<?xml version="1.0" encoding="utf-8"?>
<!-- Generator: Adobe Illustrator 16.0.0, SVG Export Plug-In . SVG Version: 6.00 Build 0)  -->
<!DOCTYPE svg PUBLIC "-//W3C//DTD SVG 1.1//EN" "http://www.w3.org/Graphics/SVG/1.1/DTD/svg11.dtd">
<svg version="1.1" id="Layer_1" xmlns="http://www.w3.org/2000/svg" xmlns:xlink="http://www.w3.org/1999/xlink" x="0px" y="0px"
	 width="100px" height="100px" viewBox="0 0 100 100" enable-background="new 0 0 100 100" xml:space="preserve">
<path fill="#FFFFFF" d="M97.991,49.913c0-26.509-21.486-47.994-47.99-47.994c-26.506,0-47.992,21.485-47.992,47.994
	c0,26.503,21.486,47.994,47.992,47.994C76.503,97.906,97.991,76.416,97.991,49.913z"/>
<g>
	<defs>
		<path id="SVGID_1_" d="M97.991,50.091c0-26.512-21.486-47.997-47.99-47.997c-26.506,0-47.992,21.485-47.992,47.997
			c0,26.5,21.486,47.991,47.992,47.991C76.503,98.082,97.991,76.592,97.991,50.091z"/>
	</defs>
	<clipPath id="SVGID_2_">
		<use xlink:href="#SVGID_1_"  overflow="visible"/>
	</clipPath>
	<path clip-path="url(#SVGID_2_)" fill="none" d="M97.991,50.091c0-26.518-21.486-47.997-47.99-47.997
		c-26.506,0-47.992,21.479-47.992,47.997c0,26.5,21.486,47.991,47.992,47.991C76.503,98.082,97.991,76.592,97.991,50.091z"/>
	<path clip-path="url(#SVGID_2_)" fill="#E5E5E4" d="M76.195,77.609c-2.551-3.998-14.006-7.867-14.006-7.867l-0.119,0.211
		l0.798-1.793l-5.761-1.76v-2.718c2.291-1.596,4.289-3.359,4.955-4.206c0.277-0.354,0.646-0.812,1.06-1.393h10.545
		c0,0-3.748-7.024-2.831-21.796c0.147-1.005,0.249-2.024,0.249-3.07c0-11.601-9.396-21.003-21.002-21.003
		c-11.609,0-21.006,9.402-21.006,21.003c0,0.263,0.03,0.518,0.039,0.778c0.943,19.186-4,24.088-4,24.088h11.873
		c0.414,0.58,0.782,1.039,1.059,1.393c0.671,0.853,2.696,2.637,5.011,4.242v2.812l-6.013,1.629l0.714,1.6
		c-0.798,0.273-11.516,4.001-13.969,7.85c-2.127,6.348-2.719,20.555-2.719,20.555h5.249h18.432h5.248h5.246H73.67h5.245
		C78.915,98.164,78.339,83.957,76.195,77.609z"/>
</g>
<g>
	<path fill="#C8D5E4" d="M-38.082,47.365c0-26.491-21.461-47.949-47.94-47.949c-26.485,0-47.946,21.458-47.946,47.949
		c0,26.475,21.461,47.943,47.946,47.943C-59.542,95.309-38.082,73.84-38.082,47.365z"/>
</g>
<path fill="none" d="M-42.005,47.082c0-24.648-19.979-44.625-44.622-44.625c-24.646,0-44.623,19.977-44.623,44.625
	c0,24.641,19.977,44.624,44.623,44.624C-61.986,91.703-42.005,71.723-42.005,47.082z"/>
<path fill="none" d="M-38.082,47.541c0-26.493-21.461-47.949-47.94-47.949c-26.485,0-47.946,21.456-47.946,47.949
	c0,26.479,21.461,47.943,47.946,47.943C-59.542,95.484-38.082,74.02-38.082,47.541z"/>
<g>
	<rect x="-93.04" y="59.625" fill="#FFFFFF" width="14.037" height="15.393"/>
	<path fill="#FFFFFF" d="M-77.306,68.805c0,0,13.348,1.949,15.326,4.002c1.725,1.793,5.283,18.914,6.109,22.678
		c-23.439,0-30.151,0-30.151,0V69.529L-77.306,68.805z"/>
	<g>
		<path fill="#FFFFFF" d="M-86.022,15.574c6.813,0,17.601,3.876,17.601,22.035c0,10.487-3.416,17.351-4.912,19.259
			c-1.371,1.743-9.07,5.467-12.688,5.467C-86.022,43.98-86.022,15.574-86.022,15.574z"/>
		<path fill="#FFFFFF" d="M-65.037,41.937c0.297-2.896-1.09-5.481-3.084-5.757c-2.016-0.273-3.883,1.856-4.184,4.757
			c-0.285,2.902,1.08,5.482,3.096,5.759C-67.203,46.97-65.341,44.839-65.037,41.937z"/>
	</g>
	<g>
		<path fill="#FFFFFF" d="M-86.022,15.574c-6.814,0-17.601,3.876-17.601,22.035c0,10.487,3.412,17.351,4.911,19.259
			c1.367,1.743,9.068,5.467,12.689,5.467C-86.022,43.98-86.022,15.574-86.022,15.574z"/>
		<path fill="#FFFFFF" d="M-107.019,41.937c-0.301-2.896,1.081-5.481,3.09-5.757c2.004-0.273,3.881,1.856,4.182,4.757
			c0.301,2.902-1.081,5.482-3.091,5.759C-104.841,46.97-106.718,44.839-107.019,41.937z"/>
	</g>
	<path fill="#FFFFFF" d="M-94.754,68.805c0,0-13.352,1.949-15.311,4.002c-1.729,1.793-5.294,18.914-6.125,22.678
		c23.45,0,30.167,0,30.167,0V69.529L-94.754,68.805z"/>
	<polygon fill="#FFFFFF" points="-86.022,69.061 -93.642,65.996 -95.519,67.832 -91.734,76.312 	"/>
	<polygon fill="#FFFFFF" points="-86.022,69.061 -78.408,65.996 -76.531,67.832 -80.326,76.312 	"/>
</g>
<path fill="#FFFFFF" d="M-68.041,36.614c0,0,5.76-23.693-18.104-23.693c-24.001,0-17.88,23.724-17.88,23.724
	s3.186-2.631,3.186,5.764c1.3,0,0.602,0,0.602,0s1.153-5.63,1.505-10.672c8.44,0,15.913-1.084,22.189-6.278
	c3.551,0,4.045,4.439,4.045,7.834l-1.562,0.604c0,0,1.511,2.958,1.616,8.512c1.081,0,1.081,0,1.081,0S-71.511,33.146-68.041,36.614z
	"/>
<path fill="#FFFFFF" d="M-86.022,55.488c3.177,0,5.753-1.055,5.753-2.346H-91.78C-91.78,54.434-89.2,55.488-86.022,55.488z"/>
<path fill="none" d="M-38.082,47.541c0-26.493-21.461-47.949-47.94-47.949c-26.485,0-47.946,21.456-47.946,47.949
	c0,26.479,21.461,47.943,47.946,47.943C-59.542,95.484-38.082,74.02-38.082,47.541z"/>
</svg>
