<?xml version="1.0" encoding="utf-8"?>
<!-- Generator: Adobe Illustrator 16.0.0, SVG Export Plug-In . SVG Version: 6.00 Build 0)  -->
<!DOCTYPE svg PUBLIC "-//W3C//DTD SVG 1.1//EN" "http://www.w3.org/Graphics/SVG/1.1/DTD/svg11.dtd">
<svg version="1.1" id="Layer_1" xmlns="http://www.w3.org/2000/svg" xmlns:xlink="http://www.w3.org/1999/xlink" x="0px" y="0px"
	 width="100px" height="100px" viewBox="0 0 100 100" enable-background="new 0 0 100 100" xml:space="preserve">
<path fill="#C8D5E4" d="M218.219,49.527c0-26.509-21.486-47.994-47.99-47.994c-26.506,0-47.992,21.485-47.992,47.994
	c0,26.502,21.486,47.993,47.992,47.993C196.73,97.52,218.219,76.029,218.219,49.527z"/>
<g>
	<g>
		<g>
			<defs>
				<path id="SVGID_1_" d="M218.219,49.705c0-26.511-21.486-47.996-47.99-47.996c-26.506,0-47.992,21.485-47.992,47.996
					c0,26.501,21.486,47.99,47.992,47.99C196.73,97.695,218.219,76.206,218.219,49.705z"/>
			</defs>
			<clipPath id="SVGID_2_">
				<use xlink:href="#SVGID_1_"  overflow="visible"/>
			</clipPath>
			<g clip-path="url(#SVGID_2_)">
				<g>
					<g>
						<path fill="#FFFFFF" d="M191.312,32.832c0-11.601-9.396-21.003-21.002-21.003c-11.609,0-21.006,9.402-21.006,21.003
							c0,11.6,9.396,21.008,21.006,21.008C181.917,53.84,191.312,44.432,191.312,32.832z"/>
						<polygon fill="#FFFFFF" points="177.335,77.814 170.229,97.777 163.286,77.814 163.286,62.402 177.335,62.402 						"/>
						<g>
							<path fill="#FFFFFF" d="M170.311,19.689c-6.816,0-17.615,3.884-17.615,22.053c0,10.503,4.088,15.447,5.58,17.349
								c1.375,1.748,8.429,7.412,12.035,7.412C170.311,48.134,170.311,19.689,170.311,19.689z"/>
						</g>
						<g>
							<g>
								<g>
									<path fill="#FFFFFF" d="M170.258,19.689c6.812,0,17.614,3.884,17.614,22.053c0,10.503-4.088,15.447-5.582,17.349
										c-1.374,1.748-8.413,7.412-12.032,7.412C170.258,48.134,170.258,19.689,170.258,19.689z"/>
								</g>
							</g>
						</g>
						<path fill="#FFFFFF" d="M170.229,97.777V78.583c0,0-5.254-1.308-6.408-5.554c-0.551-2.032-0.532-3.676-0.532-3.676
							s-11.474,3.869-14.021,7.869c-2.127,6.346-2.719,20.555-2.719,20.555H170.229z"/>
						<path fill="#FFFFFF" d="M170.229,97.777V78.583c0,0,5.238-1.308,6.394-5.554c0.552-2.032,0.552-3.676,0.552-3.676
							s11.452,3.869,14.004,7.869c2.143,6.346,2.721,20.555,2.721,20.555H170.229z"/>
						<path fill="#FFFFFF" d="M170.311,60.102c2.66,0,4.815-1.629,4.815-3.646h-9.632C165.494,58.473,167.648,60.102,170.311,60.102
							z"/>
					</g>
					<path fill="#FFFFFF" d="M169.32,14.463c-12.471,0-16.273,10.916-16.273,15.955c-4.51,6.285,0.426,11.903,3.902,13.886
						c0-1.174,0-1.599,0-3.095c0-4.068,3.867-7.824,9.684-7.204c5.199,0.563,8.477-2.381,11.236-7.384
						C181.283,19.936,177.036,14.463,169.32,14.463z"/>
					<path fill="#FFFFFF" d="M177.335,24.572c0,0,2.921,11.827,10.892,15.752c1.428-10.632,2.267-8.389,0-13.986
						c-2.26-5.595-10.892-9.761-10.892-9.761V24.572z"/>
				</g>
				<path fill="#FFFFFF" d="M164.98,97.777V81.635l-6.941-12.279c0,0-11.473,3.869-14.021,7.867
					c-2.127,6.348-2.719,20.555-2.719,20.555H164.98L164.98,97.777z"/>
				<path fill="#FFFFFF" d="M175.475,97.777V81.635l6.943-12.279c0,0,11.454,3.869,14.006,7.867
					c2.143,6.348,2.719,20.555,2.719,20.555H175.475L175.475,97.777z"/>
				<polygon fill="#FFFFFF" points="168.807,76.643 163.286,66.145 157.273,67.773 161.979,78.314 				"/>
				<polygon fill="#FFFFFF" points="171.171,76.643 176.691,66.145 182.701,67.773 177.996,78.314 				"/>
				<polygon fill="#FFFFFF" points="171.578,76.643 177.335,66.014 183.096,67.773 178.404,78.314 				"/>
				<path fill="none" d="M218.219,49.705c0-26.517-21.486-47.996-47.99-47.996c-26.506,0-47.992,21.479-47.992,47.996
					c0,26.501,21.486,47.99,47.992,47.99C196.73,97.695,218.219,76.206,218.219,49.705z"/>
				<path fill="#FFFFFF" d="M170.311,23.048c0,0,5.641,3.718,21.002,9.784c-1.684,16.87,2.582,24.866,2.582,24.866h-48.551
					c0,0,5.082-5.026,3.963-24.866l21.726-9.784"/>
			</g>
		</g>
	</g>
</g>
<path fill="#FFFFFF" d="M97.941,49.915c0-26.491-21.461-47.949-47.938-47.949c-26.484,0-47.945,21.458-47.945,47.949
	c0,26.476,21.461,47.942,47.945,47.942C76.48,97.857,97.941,76.391,97.941,49.915z"/>
<g>
	<defs>
		<path id="SVGID_3_" d="M97.941,50.091c0-26.493-21.461-47.949-47.938-47.949c-26.484,0-47.945,21.456-47.945,47.949
			c0,26.479,21.461,47.943,47.945,47.943C76.48,98.034,97.941,76.568,97.941,50.091z"/>
	</defs>
	<clipPath id="SVGID_4_">
		<use xlink:href="#SVGID_3_"  overflow="visible"/>
	</clipPath>
	<path clip-path="url(#SVGID_4_)" fill="#E5E5E4" d="M80.152,98.034c-0.824-3.765-4.383-20.886-6.107-22.679
		c-1.797-1.865-12.975-3.644-15.007-3.954l0.456-1.02l-1.877-1.836l-0.598,0.24v-5.907c2.617-1.164,4.973-2.57,5.674-3.462
		c1.007-1.285,2.883-4.829,4.003-10.206c0.041,0.008,0.078,0.029,0.12,0.035c2.004,0.275,3.869-1.856,4.172-4.759
		c0.297-2.896-1.092-5.481-3.086-5.758c-0.109-0.015-0.216,0.004-0.323,0.003C67.025,21.8,56.632,18.124,50.003,18.124
		c-6.631,0-17.022,3.676-17.575,20.608c-0.11,0-0.219-0.019-0.331-0.003c-2.01,0.277-3.392,2.862-3.091,5.758
		c0.302,2.903,2.179,5.034,4.181,4.759c0.042-0.006,0.08-0.027,0.122-0.035c1.118,5.377,2.994,8.921,4.004,10.206
		c0.699,0.892,3.054,2.299,5.672,3.463v5.908l-0.602-0.242l-1.877,1.836L40.96,71.4c-2.009,0.307-13.218,2.088-15,3.955
		c-1.729,1.793-5.294,18.914-6.125,22.679c23.45,0,30.167,0,30.167,0V77.568h0.001v20.466
		C50.003,98.034,56.715,98.034,80.152,98.034z M50.004,62.176h-0.003c0.001-14.102,0.001-32.612,0.001-40.376
		C50.003,29.563,50.003,48.074,50.004,62.176z"/>
	<path clip-path="url(#SVGID_4_)" fill="#E5E5E4" d="M67.984,39.164c0,0,5.76-23.693-18.104-23.693
		c-24.001,0-17.973,22.974-17.973,22.974s3.279-1.881,3.279,6.514c1.299,0,0.602,0,0.602,0s1.152-5.631,1.505-10.672
		c8.44,0,15.913-1.084,22.189-6.278c3.551,0,4.045,4.438,4.045,7.834l-1.562,0.604c0,0,1.511,2.957,1.616,8.512
		c1.081,0,1.081,0,1.081,0S64.514,35.696,67.984,39.164z"/>
	<path clip-path="url(#SVGID_4_)" fill="none" d="M97.941,50.091c0-26.493-21.461-47.949-47.938-47.949
		c-26.484,0-47.945,21.456-47.945,47.949c0,26.479,21.461,47.943,47.945,47.943C76.48,98.034,97.941,76.568,97.941,50.091z"/>
	<path clip-path="url(#SVGID_4_)" fill="#E5E5E4" d="M38.896,41.505h-6.492c0,0-2.842-7.932-0.24-15.463
		c2.602-7.533,6.023-8.237,6.676-11.067c0,0,1.922,1.321,4.59,0.888c6.773-1.104,11.623,0.418,11.623,0.418L38.896,41.505z"/>
</g>
<g>
	<path fill="#C8D5E4" d="M-38.082,47.365c0-26.491-21.461-47.949-47.94-47.949c-26.485,0-47.946,21.458-47.946,47.949
		c0,26.475,21.461,47.943,47.946,47.943C-59.542,95.309-38.082,73.84-38.082,47.365z"/>
</g>
<path fill="none" d="M-42.005,47.082c0-24.648-19.979-44.625-44.622-44.625c-24.646,0-44.623,19.977-44.623,44.625
	c0,24.641,19.977,44.624,44.623,44.624C-61.986,91.703-42.005,71.723-42.005,47.082z"/>
<path fill="none" d="M-38.082,47.541c0-26.493-21.461-47.949-47.94-47.949c-26.485,0-47.946,21.456-47.946,47.949
	c0,26.479,21.461,47.943,47.946,47.943C-59.542,95.484-38.082,74.02-38.082,47.541z"/>
<g>
	<rect x="-93.04" y="59.625" fill="#FFFFFF" width="14.037" height="15.393"/>
	<path fill="#FFFFFF" d="M-77.306,68.805c0,0,13.348,1.949,15.326,4.002c1.725,1.793,5.283,18.914,6.109,22.678
		c-23.439,0-30.151,0-30.151,0V69.529L-77.306,68.805z"/>
	<g>
		<path fill="#FFFFFF" d="M-86.022,15.574c6.813,0,17.601,3.876,17.601,22.035c0,10.487-3.416,17.351-4.912,19.259
			c-1.371,1.743-9.07,5.467-12.688,5.467C-86.022,43.98-86.022,15.574-86.022,15.574z"/>
		<path fill="#FFFFFF" d="M-65.037,41.937c0.297-2.896-1.09-5.481-3.084-5.757c-2.016-0.273-3.883,1.856-4.184,4.757
			c-0.285,2.902,1.08,5.482,3.096,5.759C-67.203,46.97-65.341,44.839-65.037,41.937z"/>
	</g>
	<g>
		<path fill="#FFFFFF" d="M-86.022,15.574c-6.814,0-17.601,3.876-17.601,22.035c0,10.487,3.412,17.351,4.911,19.259
			c1.367,1.743,9.068,5.467,12.689,5.467C-86.022,43.98-86.022,15.574-86.022,15.574z"/>
		<path fill="#FFFFFF" d="M-107.019,41.937c-0.301-2.896,1.081-5.481,3.09-5.757c2.004-0.273,3.881,1.856,4.182,4.757
			c0.301,2.902-1.081,5.482-3.091,5.759C-104.841,46.97-106.718,44.839-107.019,41.937z"/>
	</g>
	<path fill="#FFFFFF" d="M-94.754,68.805c0,0-13.352,1.949-15.311,4.002c-1.729,1.793-5.294,18.914-6.125,22.678
		c23.45,0,30.167,0,30.167,0V69.529L-94.754,68.805z"/>
	<polygon fill="#FFFFFF" points="-86.022,69.061 -93.642,65.996 -95.519,67.832 -91.734,76.312 	"/>
	<polygon fill="#FFFFFF" points="-86.022,69.061 -78.408,65.996 -76.531,67.832 -80.326,76.312 	"/>
</g>
<path fill="#FFFFFF" d="M-68.041,36.614c0,0,5.76-23.693-18.104-23.693c-24.001,0-17.88,23.724-17.88,23.724
	s3.186-2.631,3.186,5.764c1.3,0,0.602,0,0.602,0s1.153-5.63,1.505-10.672c8.44,0,15.913-1.084,22.189-6.278
	c3.551,0,4.045,4.439,4.045,7.834l-1.562,0.604c0,0,1.511,2.958,1.616,8.512c1.081,0,1.081,0,1.081,0S-71.511,33.146-68.041,36.614z
	"/>
<path fill="#FFFFFF" d="M-86.022,55.488c3.177,0,5.753-1.055,5.753-2.346H-91.78C-91.78,54.434-89.2,55.488-86.022,55.488z"/>
<path fill="none" d="M-38.082,47.541c0-26.493-21.461-47.949-47.94-47.949c-26.485,0-47.946,21.456-47.946,47.949
	c0,26.479,21.461,47.943,47.946,47.943C-59.542,95.484-38.082,74.02-38.082,47.541z"/>
</svg>
