<?xml version="1.0" encoding="utf-8"?>
<!-- Generator: Adobe Illustrator 16.0.0, SVG Export Plug-In . SVG Version: 6.00 Build 0)  -->
<!DOCTYPE svg PUBLIC "-//W3C//DTD SVG 1.1//EN" "http://www.w3.org/Graphics/SVG/1.1/DTD/svg11.dtd">
<svg version="1.1" id="Layer_1" xmlns="http://www.w3.org/2000/svg" xmlns:xlink="http://www.w3.org/1999/xlink" x="0px" y="0px"
	 width="100px" height="100px" viewBox="0 0 100 100" enable-background="new 0 0 100 100" xml:space="preserve">
<g>
	<defs>
		<path id="SVGID_1_" d="M97.943,50.002c0-26.491-21.461-47.949-47.941-47.949c-26.485,0-47.946,21.458-47.946,47.949
			c0,26.475,21.461,47.943,47.946,47.943C76.482,97.945,97.943,76.479,97.943,50.002z"/>
	</defs>
	<defs>
		<path id="SVGID_2_" d="M97.943,50.178c0-26.493-21.461-47.949-47.941-47.949c-26.485,0-47.946,21.456-47.946,47.949
			c0,26.479,21.461,47.944,47.946,47.944C76.482,98.122,97.943,76.657,97.943,50.178z"/>
	</defs>
	<clipPath id="SVGID_3_">
		<use xlink:href="#SVGID_1_"  overflow="visible"/>
	</clipPath>
	<clipPath id="SVGID_4_" clip-path="url(#SVGID_3_)">
		<use xlink:href="#SVGID_2_"  overflow="visible"/>
	</clipPath>
	<g clip-path="url(#SVGID_4_)">
		<path fill="#FFFFFF" d="M97.943,50.002c0-26.491-21.461-47.949-47.941-47.949c-26.485,0-47.946,21.458-47.946,47.949
			c0,26.475,21.461,47.943,47.946,47.943C76.482,97.945,97.943,76.479,97.943,50.002z"/>
	</g>
	<path clip-path="url(#SVGID_4_)" fill="none" d="M97.943,50.002c0-26.491-21.461-47.949-47.941-47.949
		c-26.485,0-47.946,21.458-47.946,47.949c0,26.475,21.461,47.943,47.946,47.943C76.482,97.945,97.943,76.479,97.943,50.002z"/>
	<path clip-path="url(#SVGID_4_)" fill="#E5E5E4" d="M74.045,75.443c-1.797-1.864-12.973-3.644-15.007-3.954l0.456-1.019
		l-1.877-1.837l-0.596,0.239v-5.907c2.616-1.164,4.97-2.57,5.67-3.461c1.008-1.285,2.884-4.829,4.003-10.206
		c0.042,0.008,0.08,0.029,0.122,0.035c2.006,0.274,3.867-1.857,4.172-4.759c0.288-2.814-1.018-5.316-2.921-5.71
		c0.61-3.015,3.905-23.307-18.188-23.307c-22.165,0-18.642,20.218-17.973,23.314c-1.903,0.411-3.192,2.902-2.901,5.703
		c0.302,2.902,2.179,5.033,4.181,4.759c0.042-0.006,0.081-0.027,0.123-0.035c1.118,5.377,2.994,8.921,4.003,10.206
		c0.699,0.892,3.054,2.299,5.672,3.463v5.908l-0.602-0.242l-1.877,1.837l0.454,1.018c-2.01,0.307-13.217,2.088-14.999,3.955
		c-1.729,1.793-5.294,18.914-6.125,22.679c23.45,0,30.167,0,30.167,0s6.713,0,30.152,0C79.328,94.357,75.77,77.236,74.045,75.443z
		 M50.001,62.264c0-4.77,0.001-10.042,0.001-15.233c0,5.191,0,10.463,0.001,15.233H50.001z"/>
</g>
</svg>
