<?xml version="1.0" encoding="utf-8"?>
<!-- Generator: Adobe Illustrator 16.0.0, SVG Export Plug-In . SVG Version: 6.00 Build 0)  -->
<!DOCTYPE svg PUBLIC "-//W3C//DTD SVG 1.1//EN" "http://www.w3.org/Graphics/SVG/1.1/DTD/svg11.dtd">
<svg version="1.1" id="Layer_1" xmlns="http://www.w3.org/2000/svg" xmlns:xlink="http://www.w3.org/1999/xlink" x="0px" y="0px"
	 width="50px" height="50px" viewBox="0 0 50 50" enable-background="new 0 0 50 50" xml:space="preserve">
<path fill="#FFFFFF" d="M37.324,18.178c0,4.549,0,9.097,0,13.646c-0.082,0.118-0.144,0.257-0.25,0.353
	c-0.379,0.333-0.899,0.309-1.302-0.049c-1.755-1.552-3.506-3.104-5.258-4.654c-0.061-0.054-0.124-0.104-0.229-0.19
	c0,0.119,0.002,0.193,0,0.269c-0.004,0.653,0.016,1.307-0.021,1.959c-0.102,1.816-1.832,3.281-3.88,3.285
	c-3.272,0.007-6.544,0.006-9.816,0.001c-1.616-0.003-3.127-0.959-3.659-2.309c-0.103-0.259-0.16-0.531-0.236-0.796
	c0-3.127,0-6.255,0-9.381c0.014-0.038,0.035-0.076,0.044-0.118c0.264-1.673,1.927-2.98,3.827-2.985c3.289-0.008,6.578-0.009,9.867,0
	c1.957,0.005,3.674,1.395,3.832,3.118c0.065,0.707,0.032,1.419,0.042,2.128c0.002,0.072,0,0.144,0,0.215
	c0.028,0.009,0.052,0.019,0.078,0.027c0.048-0.056,0.09-0.12,0.146-0.168c1.742-1.542,3.482-3.085,5.229-4.619
	c0.136-0.12,0.312-0.233,0.495-0.28C36.699,17.504,37.07,17.706,37.324,18.178z"/>
<path fill="#00A0DC" d="M25.002,50.001C38.779,50,49.994,38.799,50,25.037C50.008,11.224,38.814,0.004,25.023-0.001
	C11.215-0.003,0,11.194,0,24.99C0,38.796,11.203,50.001,25.002,50.001z"/>
<g>
	<path fill="#FFFFFF" d="M25.43,12.58c0.163,0.036,0.329,0.071,0.492,0.109c1.868,0.44,3.172,2.081,3.172,3.995
		c0,1.683,0.026,8.491-0.007,10.171c-0.035,1.744-0.857,3.037-2.453,3.738c-1.59,0.696-3.089,0.427-4.395-0.721
		c-0.898-0.79-1.333-1.819-1.34-3.018c-0.009-1.688-0.003-8.502-0.002-10.191c0.001-2.041,1.53-3.78,3.559-4.047
		c0.035-0.005,0.07-0.024,0.105-0.037C24.851,12.58,25.14,12.58,25.43,12.58z"/>
	<path fill="#FFFFFF" d="M20.385,37.887c-0.337-0.131-0.612-0.32-0.714-0.695c-0.168-0.615,0.303-1.203,0.943-1.198
		c1.117,0.009,2.232,0.001,3.349,0c0.019,0,0.038-0.004,0.072-0.008c0-0.62,0-1.239,0-1.864c-0.37-0.086-0.751-0.152-1.12-0.263
		c-1.867-0.553-3.364-1.6-4.352-3.309c-0.551-0.952-0.811-1.987-0.819-3.085c-0.005-0.833,0-3.719,0-4.552
		c0-0.526,0.429-0.955,0.952-0.951c0.531,0.005,0.945,0.451,0.94,0.985c-0.005,0.839-0.037,3.735,0.022,4.571
		c0.103,1.461,0.823,2.605,1.958,3.5c1.976,1.56,4.794,1.598,6.767,0.069c1.292-1.001,1.96-2.333,1.971-3.979
		c0.005-0.715,0.003-3.481,0.001-4.198c-0.001-0.516,0.419-0.942,0.936-0.948c0.507-0.004,0.95,0.405,0.954,0.908
		c0.008,0.887,0.025,3.825-0.004,4.71c-0.068,2.089-0.976,3.754-2.624,5.019c-1.029,0.79-2.201,1.261-3.48,1.47
		c-0.06,0.01-0.114,0.025-0.183,0.039c0,0.621,0,1.242,0,1.886c0.071,0,0.141,0,0.21,0c1.083,0,2.167,0,3.251,0.001
		c0.439,0,0.812,0.304,0.915,0.749c0.096,0.411-0.109,0.846-0.496,1.036c-0.074,0.038-0.152,0.072-0.228,0.106
		C26.532,37.887,23.459,37.887,20.385,37.887z"/>
</g>
</svg>
