<?xml version="1.0" encoding="utf-8"?>
<!-- Generator: Adobe Illustrator 16.0.0, SVG Export Plug-In . SVG Version: 6.00 Build 0)  -->
<!DOCTYPE svg PUBLIC "-//W3C//DTD SVG 1.1//EN" "http://www.w3.org/Graphics/SVG/1.1/DTD/svg11.dtd">
<svg version="1.1" id="Layer_1" xmlns="http://www.w3.org/2000/svg" xmlns:xlink="http://www.w3.org/1999/xlink" x="0px" y="0px"
	 width="50px" height="50px" viewBox="0 0 50 50" enable-background="new 0 0 50 50" xml:space="preserve">
<path fill="#FFFFFF" d="M37.324,18.178c0,4.549,0,9.097,0,13.646c-0.082,0.118-0.144,0.257-0.25,0.353
	c-0.379,0.333-0.899,0.309-1.302-0.049c-1.755-1.552-3.506-3.104-5.258-4.654c-0.061-0.054-0.124-0.104-0.229-0.19
	c0,0.119,0.002,0.193,0,0.269c-0.004,0.653,0.016,1.307-0.021,1.959c-0.102,1.816-1.832,3.281-3.88,3.285
	c-3.272,0.007-6.544,0.006-9.816,0.001c-1.616-0.003-3.127-0.959-3.659-2.309c-0.103-0.259-0.16-0.531-0.236-0.796
	c0-3.127,0-6.255,0-9.381c0.014-0.038,0.035-0.076,0.044-0.118c0.264-1.673,1.927-2.98,3.827-2.985c3.289-0.008,6.578-0.009,9.867,0
	c1.957,0.005,3.674,1.395,3.832,3.118c0.065,0.707,0.032,1.419,0.042,2.128c0.002,0.072,0,0.144,0,0.215
	c0.028,0.009,0.052,0.019,0.078,0.027c0.048-0.056,0.09-0.12,0.146-0.168c1.742-1.542,3.482-3.085,5.229-4.619
	c0.136-0.12,0.312-0.233,0.495-0.28C36.699,17.504,37.07,17.706,37.324,18.178z"/>
<path fill="#00A0DC" d="M25.002,50.001C38.779,50,49.994,38.799,50,25.037C50.008,11.224,38.814,0.004,25.023-0.001
	C11.215-0.003,0,11.194,0,24.99C0,38.796,11.203,50.001,25.002,50.001z"/>
<path fill="#FFFFFF" d="M17.103,13.447c0.099,0.019,0.199,0.038,0.298,0.059c0.372,0.077,0.686,0.252,0.955,0.522
	c1.163,1.166,2.331,2.328,3.491,3.496c0.748,0.752,0.746,1.887-0.002,2.648c-0.537,0.547-1.083,1.087-1.627,1.626
	c-0.058,0.058-0.135,0.096-0.188,0.134c1.123,2.205,2.514,4.125,4.378,5.684c1.079,0.902,2.273,1.621,3.499,2.297
	c0.122,0.067,0.184,0.027,0.266-0.055c0.529-0.535,1.059-1.067,1.596-1.597c0.652-0.645,1.467-0.82,2.202-0.463
	c0.192,0.095,0.376,0.228,0.526,0.378c1.17,1.159,2.33,2.328,3.502,3.488c0.286,0.285,0.437,0.636,0.557,1.008
	c0,0.196,0,0.391,0,0.587c-0.154,0.32-0.251,0.692-0.477,0.95c-0.395,0.445-0.848,0.848-1.312,1.222
	c-0.549,0.441-1.191,0.727-1.877,0.896c-0.396,0.099-0.806,0.153-1.209,0.228c-0.075,0-0.149,0-0.225,0
	c-0.051-0.014-0.1-0.03-0.148-0.037c-0.698-0.103-1.406-0.153-2.09-0.312c-2.264-0.534-4.272-1.614-6.15-2.96
	c-1.582-1.134-3-2.455-4.332-3.869c-1.214-1.288-2.361-2.627-3.317-4.123c-0.855-1.34-1.525-2.758-1.812-4.336
	c-0.062-0.336-0.106-0.677-0.158-1.017c0-0.467,0-0.933,0-1.399c0.015-0.063,0.037-0.125,0.043-0.19
	c0.137-1.464,0.665-2.75,1.732-3.79c0.075-0.074,0.144-0.152,0.217-0.228c0.342-0.369,0.717-0.68,1.23-0.78
	c0.115-0.022,0.229-0.044,0.342-0.066C17.042,13.447,17.072,13.447,17.103,13.447z"/>
</svg>
