<?xml version="1.0" encoding="utf-8"?>
<!-- Generator: Adobe Illustrator 16.0.0, SVG Export Plug-In . SVG Version: 6.00 Build 0)  -->
<!DOCTYPE svg PUBLIC "-//W3C//DTD SVG 1.1//EN" "http://www.w3.org/Graphics/SVG/1.1/DTD/svg11.dtd">
<svg version="1.1" id="Layer_1" xmlns="http://www.w3.org/2000/svg" xmlns:xlink="http://www.w3.org/1999/xlink" x="0px" y="0px"
	 width="50px" height="50px" viewBox="0 0 50 50" enable-background="new 0 0 50 50" xml:space="preserve">
<path fill="#FFFFFF" d="M25.002,50.001C38.779,50,49.994,38.799,50,25.037C50.008,11.224,38.813,0.004,25.023-0.001
	C11.214-0.003,0,11.194,0,24.99C0,38.796,11.202,50.001,25.002,50.001z"/>
<path fill="#00A0DC" d="M16.486,39.751c-0.018,0-0.036,0-0.054,0c0-1.944-0.002-3.891,0.004-5.837c0-0.169-0.052-0.271-0.186-0.374
	c-0.39-0.298-0.781-0.597-1.142-0.928c-1.965-1.807-3.256-3.992-3.687-6.652c-0.045-0.277-0.088-0.555-0.132-0.833
	c0-0.535,0-1.071,0-1.606c0.022-0.136,0.048-0.272,0.066-0.411c0.322-2.561,1.423-4.75,3.226-6.577
	c2.259-2.292,5.031-3.574,8.195-4.047c0.42-0.062,0.842-0.108,1.263-0.162c0.643,0,1.285,0,1.928,0
	c0.509,0.068,1.02,0.124,1.527,0.207c3.303,0.548,6.139,1.974,8.383,4.491c1.293,1.45,2.178,3.122,2.584,5.031
	c0.107,0.502,0.172,1.014,0.256,1.521c0,0.5,0,1,0,1.5c-0.059,0.394-0.103,0.791-0.179,1.183c-0.522,2.688-1.87,4.902-3.959,6.641
	c-3.474,2.894-7.498,3.844-11.935,3.245c-0.119-0.016-0.268,0.012-0.371,0.071c-1.703,1.025-3.401,2.058-5.1,3.091
	C16.939,39.446,16.714,39.602,16.486,39.751z M18.12,36.686c0.069-0.04,0.152-0.086,0.233-0.135c1.162-0.698,2.326-1.394,3.481-2.1
	c0.188-0.114,0.36-0.15,0.575-0.106c1.781,0.363,3.565,0.361,5.341-0.013c3.21-0.675,5.884-2.219,7.718-4.996
	c1.573-2.384,1.957-4.983,1.104-7.724c-0.674-2.165-2.019-3.866-3.856-5.155c-3.284-2.302-6.926-2.911-10.807-2.06
	c-2.884,0.634-5.321,2.064-7.07,4.484c-2.001,2.767-2.405,5.782-1.098,8.963c0.834,2.028,2.283,3.553,4.118,4.724
	c0.198,0.127,0.269,0.258,0.267,0.491C18.113,34.261,18.12,35.464,18.12,36.686z"/>
<path fill-rule="evenodd" clip-rule="evenodd" fill="#00A0DC" d="M24.991,23.467c-1.973,0-3.945,0-5.918,0.001
	c-0.371,0.001-0.659-0.141-0.832-0.478c-0.157-0.306-0.123-0.607,0.073-0.882c0.186-0.259,0.453-0.357,0.768-0.356
	c1.027,0.004,2.052,0.002,3.079,0.002c2.883,0,5.766-0.001,8.649,0.001c0.125,0,0.253-0.004,0.374,0.022
	c0.409,0.086,0.694,0.468,0.673,0.878c-0.025,0.427-0.355,0.774-0.788,0.805c-0.25,0.018-0.5,0.007-0.749,0.007
	C28.543,23.467,26.767,23.467,24.991,23.467z"/>
<path fill-rule="evenodd" clip-rule="evenodd" fill="#00A0DC" d="M24.975,28.609c-1.401,0-2.802,0.003-4.204-0.002
	c-0.654-0.002-1.081-0.59-0.85-1.163c0.14-0.346,0.411-0.533,0.785-0.546c0.348-0.012,0.696-0.003,1.043-0.003
	c2.454-0.001,4.909-0.001,7.363,0c0.124,0,0.252-0.002,0.372,0.026c0.42,0.099,0.699,0.499,0.653,0.917
	c-0.047,0.427-0.386,0.756-0.827,0.766c-0.579,0.014-1.16,0.005-1.74,0.005C26.706,28.609,25.84,28.609,24.975,28.609z"/>
</svg>
