<?xml version="1.0" encoding="utf-8"?>
<!-- Generator: Adobe Illustrator 16.0.0, SVG Export Plug-In . SVG Version: 6.00 Build 0)  -->
<!DOCTYPE svg PUBLIC "-//W3C//DTD SVG 1.1//EN" "http://www.w3.org/Graphics/SVG/1.1/DTD/svg11.dtd">
<svg version="1.1" id="Layer_1" xmlns="http://www.w3.org/2000/svg" xmlns:xlink="http://www.w3.org/1999/xlink" x="0px" y="0px"
	 width="50px" height="50px" viewBox="0 0 50 50" enable-background="new 0 0 50 50" xml:space="preserve">
<path fill="#00A0DC" d="M25.002,50.001C38.779,50,49.994,38.799,50,25.037C50.008,11.224,38.814,0.004,25.024-0.001
	C11.215-0.003,0,11.194,0,24.99C0,38.796,11.203,50.001,25.002,50.001z"/>
<path fill="#FFFFFF" d="M37.324,18.178c0,4.549,0,9.097,0,13.646c-0.082,0.118-0.144,0.257-0.25,0.353
	c-0.379,0.333-0.899,0.309-1.302-0.049c-1.755-1.552-3.506-3.104-5.258-4.654c-0.061-0.054-0.124-0.104-0.229-0.19
	c0,0.119,0.002,0.193,0,0.269c-0.004,0.653,0.016,1.307-0.021,1.959c-0.102,1.816-1.832,3.281-3.88,3.285
	c-3.272,0.007-6.544,0.006-9.816,0.001c-1.616-0.003-3.127-0.959-3.659-2.309c-0.103-0.259-0.16-0.531-0.236-0.796
	c0-3.127,0-6.255,0-9.381c0.014-0.038,0.035-0.076,0.044-0.118c0.264-1.673,1.927-2.98,3.827-2.985c3.289-0.008,6.578-0.009,9.867,0
	c1.957,0.005,3.674,1.395,3.832,3.118c0.065,0.707,0.032,1.419,0.042,2.128c0.002,0.072,0,0.144,0,0.215
	c0.028,0.009,0.052,0.019,0.078,0.027c0.048-0.056,0.09-0.12,0.146-0.168c1.742-1.542,3.482-3.085,5.229-4.619
	c0.136-0.12,0.312-0.233,0.495-0.28C36.699,17.504,37.07,17.706,37.324,18.178z"/>
</svg>
