<?xml version="1.0" encoding="utf-8"?>
<!-- Generator: Adobe Illustrator 16.0.0, SVG Export Plug-In . SVG Version: 6.00 Build 0)  -->
<!DOCTYPE svg PUBLIC "-//W3C//DTD SVG 1.1//EN" "http://www.w3.org/Graphics/SVG/1.1/DTD/svg11.dtd">
<svg version="1.1" id="Layer_1" xmlns="http://www.w3.org/2000/svg" xmlns:xlink="http://www.w3.org/1999/xlink" x="0px" y="0px"
	 width="30px" height="30px" viewBox="0 0 30 30" enable-background="new 0 0 30 30" xml:space="preserve">
<g>
	<circle fill="#E6E3E3" cx="15" cy="14.938" r="14.275"/>
	<path fill-rule="evenodd" clip-rule="evenodd" fill="#48689A" d="M8.703,10.328c0.006-0.102,0.009-0.205,0.017-0.306
		C8.724,9.97,8.765,9.934,8.827,9.923c0.045-0.008,0.09-0.016,0.135-0.014c0.107,0.005,0.214,0.016,0.319,0.028
		C9.299,9.94,9.327,9.959,9.33,9.974c0.006,0.03-0.001,0.063-0.008,0.092c-0.003,0.008-0.028,0.013-0.042,0.012
		c-0.079-0.003-0.16-0.009-0.239-0.012c-0.034-0.002-0.067-0.001-0.101,0.001c-0.045,0.003-0.057,0.018-0.056,0.063
		c0.003,0.146,0.006,0.664,0.008,0.81c0,0.061-0.012,0.071-0.071,0.072c-0.014,0-0.028,0-0.042,0c-0.053,0-0.069-0.015-0.071-0.068
		c-0.001-0.082,0-0.536,0-0.617C8.707,10.328,8.704,10.328,8.703,10.328z"/>
	<g>
		<path fill-rule="evenodd" clip-rule="evenodd" fill="#48689A" d="M18.834,16.515c0.053-0.143,0.093-0.271,0.148-0.396
			c0.087-0.201,0.177-0.4,0.275-0.595c0.028-0.053,0.031-0.102,0.087-0.119c0.047-0.016,0.068-0.041,0.103-0.005
			c0.031,0.029,0.031,0.107,0.019,0.156c-0.024,0.092-0.065,0.18-0.103,0.267c-0.086,0.205-0.176,0.408-0.267,0.611
			c-0.021,0.048-0.056,0.093-0.09,0.135c-0.043,0.057-0.102,0.119-0.173,0.073C18.781,16.609,18.874,16.577,18.834,16.515z"/>
		<path fill="#FFFFFF" d="M7.591,17.183c0,0-0.408-7.623-0.245-7.896c0.164-0.274,0.327-0.479,0.409-0.458
			c0.081,0.02,4.61-0.123,4.61-0.123h8.026l0.103,0.265l0.183,8.706l-0.549,0.105l-7.575,0.078H8.348l-0.634-0.184L7.591,17.183z"/>
		<path fill-rule="evenodd" clip-rule="evenodd" fill="#48689A" d="M14.36,17.198c-1.079,0.033-2.157,0.033-3.236,0.057
			c-0.702,0.016-1.405-0.024-2.107-0.028c-0.25-0.002-0.372,0.013-0.573-0.146c-0.118-0.091-0.178-0.167-0.18-0.321
			c-0.017-1.284-0.031-2.567-0.058-3.852c-0.017-0.842-0.056-1.685-0.078-2.527c-0.006-0.242,0.002-0.408,0.028-0.648
			c0.031-0.267,0.09-0.408,0.356-0.398c0.377,0.012,0.753,0.043,1.13,0.055c0.868,0.026,1.736,0.063,2.604,0.064
			c1.114,0.001,2.23-0.025,3.344-0.048c0.999-0.021,1.997-0.092,2.998-0.116c0.272-0.007,0.549-0.012,0.815,0.073
			c0.344,0.11,0.301,0.259,0.322,0.574c0.04,0.622,0.146,1.282,0.158,1.905c0.024,1.255,0.114,2.51,0.136,3.765
			c0.003,0.281-0.009,0.561-0.006,0.841c0,0.175,0.024,0.236-0.01,0.407c-0.034,0.161-0.099,0.224-0.263,0.22
			c-0.475-0.013-0.952,0.046-1.426,0.033c-1.023-0.027-2.046-0.019-3.066,0.037c-0.296,0.016-0.592,0.029-0.89,0.044
			C14.36,17.191,14.36,17.195,14.36,17.198z M19.596,16.858c0.134,0.006,0.121-0.289,0.121-0.419c-0.003-0.273,0-0.548-0.006-0.823
			c-0.025-1.258-0.05-2.517-0.084-3.775c-0.013-0.554-0.077-1.142-0.084-1.701c-0.012-0.604-0.077-0.591-0.502-0.582
			c-0.446,0.011-1.084,0.018-1.531,0.027c-1.719,0.034-3.436,0.074-5.155,0.098c-0.996,0.014-1.993-0.009-2.988-0.076
			C9.11,9.59,8.851,9.599,8.592,9.596C8.518,9.595,8.467,9.631,8.458,9.704c-0.026,0.17-0.066,0.341-0.065,0.511
			c0.009,0.715,0.033,1.43,0.05,2.146c0.032,1.408,0.065,2.893,0.094,4.301c0.005,0.247,0.02,0.24,0.144,0.312
			c0.129,0.077,0.309,0.038,0.456,0.044c0.594,0.02,1.189,0.037,1.782,0.055 M17.153,16.917c0.363-0.015,0.596-0.028,0.828-0.081
			c0.04-0.003,0.065-0.062,0.087-0.105c0.027-0.059,0.053-0.127,0.074-0.189c0.146-0.36,0.291-0.72,0.44-1.078
			c0.09-0.211,0.157-0.335,0.232-0.305c0.077,0.031,0.09,0.137,0.09,0.137c-0.229,0.477-0.363,0.951-0.593,1.427
			c-0.074,0.153,0.05,0.167,0.224,0.167 M19.395,11.184c0.003,0.029,0.003,0.059-0.003,0.085"/>
		<g>
			<g>
				<path fill="#00BDF2" d="M14.982,14.213c0.006,0.197,0.012,0.394,0.019,0.591c0,0.03-0.001,0.061-0.001,0.091
					c-0.001,0.025-0.016,0.038-0.039,0.041c-0.04,0.005-0.081-0.003-0.083-0.062c-0.004-0.112-0.014-0.224-0.019-0.336
					c-0.006-0.143-0.011-0.288-0.016-0.432c0-0.017,0.001-0.035,0-0.053c-0.001-0.017,0.006-0.022,0.022-0.026
					c0.029-0.005,0.059,0,0.085,0.016c0.009,0.005,0.017,0.02,0.021,0.032c0.006,0.046,0.011,0.092,0.015,0.139H14.982z"/>
				<path fill="#00BDF2" d="M13.486,11.348c0.023,0.001,0.036,0.013,0.043,0.029c0.006,0.017,0.003,0.035-0.008,0.05
					c-0.004,0.008-0.012,0.014-0.021,0.021c-0.101,0.075-0.167,0.175-0.188,0.304c-0.011,0.069-0.019,0.139-0.028,0.208
					c-0.003,0.033-0.022,0.058-0.048,0.065c-0.045,0.012-0.074-0.007-0.085-0.057c-0.05-0.232,0.039-0.456,0.237-0.584
					C13.421,11.364,13.454,11.349,13.486,11.348z"/>
				<path fill="#00BDF2" d="M13.493,11.339c0.021,0.002,0.034,0.013,0.04,0.03c0.008,0.018,0.005,0.036-0.006,0.051
					c-0.005,0.007-0.013,0.014-0.021,0.021c-0.099,0.076-0.163,0.177-0.183,0.307c-0.011,0.07-0.017,0.14-0.025,0.211
					c-0.004,0.033-0.021,0.059-0.048,0.066c-0.043,0.012-0.073-0.008-0.082-0.058c-0.048-0.235,0.037-0.461,0.229-0.59
					C13.429,11.355,13.461,11.341,13.493,11.339z"/>
				<path fill="#00BDF2" d="M13.146,13.745c0.019-0.01,0.039-0.02,0.057-0.023c0.016-0.004,0.023-0.028,0.022-0.064
					c0-0.015-0.009-0.025-0.016-0.037c-0.006-0.005-0.014-0.012-0.021-0.014c-0.005-0.001-0.011,0-0.016,0.002
					c-0.005,0.001-0.008,0.002-0.011,0.003c-0.001,0-0.005,0.002-0.006,0.002c-0.001,0.001-0.005,0-0.006,0.001
					c-0.003,0-0.003,0.001-0.004,0.001c-0.003,0.001-0.005,0.001-0.008,0.002c-0.019,0.005-0.036,0.014-0.054,0.021
					c-0.025,0.012-0.048,0.025-0.073,0.039c-0.03,0.017-0.053,0.042-0.081,0.065c-0.135,0.102-0.13,0.333-0.132,0.355
					c-0.003,0.023-0.006,0.098,0.006,0.117c0.014,0.019,0.048,0.017,0.057,0.01c0.008-0.006,0.043-0.012,0.041-0.078
					c-0.003-0.066,0.012-0.146,0.026-0.207c0.014-0.06,0.068-0.111,0.115-0.139c0.023-0.014,0.071-0.045,0.096-0.056
					C13.139,13.747,13.143,13.746,13.146,13.745z"/>
				<path fill="#00BDF2" d="M13.79,10.879c0,0,0.391-0.032,0.667,0.312c0.277,0.345,0.288,0.818,0.276,0.926
					c-0.011,0.108-0.09,0.463-0.166,0.583c-0.086,0.14-0.17,0.24-0.406,0.299c-0.234,0.06-0.336,0.074-0.552,0.047
					c-0.214-0.029-0.417-0.066-0.515-0.158c-0.098-0.09-0.421-0.368-0.387-0.923c0.032-0.555,0.342-0.782,0.389-0.819
					C13.143,11.111,13.441,10.869,13.79,10.879z M13.173,11.283c-0.04,0.031-0.304,0.207-0.333,0.686
					c-0.028,0.479,0.212,0.663,0.297,0.742c0.085,0.079,0.302,0.161,0.488,0.185s0.245,0.021,0.449-0.029
					c0.205-0.052,0.27-0.184,0.349-0.277c0.112-0.131,0.17-0.401,0.182-0.494c0.009-0.094,0.039-0.422-0.205-0.716
					c-0.313-0.375-0.617-0.352-0.617-0.352C13.48,11.018,13.215,11.25,13.173,11.283z"/>
				<path fill="#00BDF2" d="M15.414,14.628c-0.006-0.139-0.033-0.363-0.084-0.548c-0.051-0.185-0.063-0.278-0.126-0.381
					c-0.107-0.175-0.182-0.251-0.313-0.363c-0.13-0.109-0.391-0.189-0.426-0.202c-0.036-0.011-0.042-0.012-0.279,0.153
					c-0.113,0.077-0.358,0.092-0.358,0.092s-0.012-0.001-0.019,0c-0.056,0.002-0.102-0.005-0.156-0.014
					c-0.063-0.012-0.127-0.029-0.189-0.049c-0.053-0.016-0.105-0.034-0.155-0.057c-0.017-0.007-0.032-0.014-0.046-0.024
					c-0.023-0.014-0.05-0.04-0.078-0.038c-0.014,0.001-0.028,0.01-0.04,0.017c-0.009,0.004-0.019,0.008-0.028,0.015
					c-0.003,0.002-0.008,0.007-0.011,0.009c-0.006,0.004-0.014,0.005-0.019,0.009c-0.004,0.002-0.006,0.004-0.011,0.006
					c-0.006,0.003-0.012,0.006-0.019,0.01c-0.046,0.026-0.088,0.057-0.13,0.089c-0.062,0.046-0.121,0.095-0.18,0.147
					c-0.07,0.062-0.122,0.141-0.19,0.215c-0.259,0.286-0.178,0.912-0.18,0.972c0,0.105,0.004,0.211,0.028,0.313
					c0.014,0.057,0.059,0.118,0.099,0.161c0.034,0.035,0.071,0.065,0.11,0.093c0.104,0.071,0.219,0.124,0.338,0.165
					c0.273,0.096,0.567,0.136,0.855,0.134c0.239-0.002,0.478-0.019,0.711-0.066c0.217-0.043,0.434-0.112,0.623-0.23
					c0.057-0.036,0.115-0.077,0.164-0.125c0.022-0.021,0.04-0.043,0.06-0.067c0.024-0.028,0.053-0.049,0.062-0.086
					c0.013-0.035,0.01-0.074,0.005-0.109C15.419,14.792,15.418,14.708,15.414,14.628z M13.807,15.375
					c-0.282,0.006-0.564-0.043-0.824-0.15c-0.096-0.039-0.189-0.086-0.277-0.142c-0.026-0.017-0.053-0.034-0.079-0.053
					c-0.053-0.037-0.045-0.08-0.046-0.14c-0.002-0.059-0.01-0.117-0.017-0.176c-0.021-0.167-0.039-0.394-0.017-0.555
					c0.024-0.161,0.131-0.376,0.245-0.479c0.054-0.048,0.172-0.159,0.231-0.202c0.05-0.035,0.099-0.058,0.149-0.094
					c0.015-0.011,0.011-0.016,0.029-0.012c0.005,0,0.048,0.02,0.062,0.029c0.006,0.004,0.014,0.007,0.021,0.011
					c0.028,0.014,0.065,0.026,0.095,0.036c0.056,0.018,0.076,0.021,0.14,0.03c0.066,0.011,0.136,0.008,0.203,0.016
					c0.507,0.059,0.699-0.171,0.724-0.206c0.024-0.036,0.176,0.075,0.31,0.156c0.133,0.08,0.248,0.201,0.349,0.374
					c0.101,0.172,0.126,0.691,0.13,0.822c0.003,0.06,0.006,0.119,0.009,0.18c0.001,0.041,0.014,0.083,0.006,0.124
					c-0.003,0.031-0.022,0.037-0.045,0.053c-0.026,0.018-0.051,0.036-0.078,0.051c-0.083,0.049-0.172,0.09-0.262,0.125
					c-0.292,0.117-0.606,0.177-0.919,0.197C13.898,15.371,13.854,15.374,13.807,15.375z"/>
			</g>
		</g>
		<path fill="#FFFFFF" d="M7.543,17.513l-2.477,1.322L4.89,19.656c0,0-0.708,0.449,5.282,0.449c5.989,0,11.666-0.449,11.666-0.449
			l0.794-0.19l-0.184-0.871l-0.148-0.2l-1.866-0.718c0,0-11.33,0.717-12.643,0.061C7.653,17.669,7.543,17.513,7.543,17.513z"/>
		<path fill-rule="evenodd" clip-rule="evenodd" fill="#48689A" d="M23.096,19.197c0,0.112,0,0.229-0.037,0.335
			c-0.053,0.161-0.146,0.239-0.323,0.237c-0.7-0.006-0.945,0.048-1.643,0.054c-1.608,0.015-3.214,0.149-4.822,0.177
			c-0.655,0.013-1.312,0.052-1.967,0.078c0,0.001,0,0.003,0,0.004c-0.694,0.033-1.387,0.11-2.082,0.134
			c-1.26,0.042-2.521,0.013-3.783,0.028c-0.998,0.012-1.886-0.094-2.885-0.107c-0.15-0.002-0.3-0.014-0.447-0.039
			c-0.071-0.012-0.148-0.054-0.2-0.106c-0.164-0.164-0.125-0.261-0.123-0.454c0.004-0.314,0.017-0.18,0.006-0.493
			c-0.001-0.04,0.002-0.081,0.008-0.121c0.016-0.119,0.076-0.205,0.191-0.252c0.318-0.131,0.895-0.569,1.214-0.696
			c0.567-0.226,0.576-0.222,1.146-0.441c0.088-0.034,0.098-0.125,0.085-0.212l-0.058-3.356c-0.048-0.677-0.085-1.355-0.124-2.032
			c-0.036-0.597-0.069-1.194-0.101-1.791c-0.011-0.227-0.02-0.454-0.02-0.682C7.136,9.197,7.122,9.112,7.272,8.9
			c0.09-0.127,0.33-0.189,0.488-0.194c0.279-0.011,0.26,0.013,0.54,0.001c0.607-0.026,1.213-0.044,1.819-0.082
			c0.375-0.024,0.734-0.006,1.124-0.04c0.465-0.041,0.931-0.005,1.397-0.026c1.621-0.075,3.244-0.034,4.867,0.008
			c1.026,0.027,1.928-0.066,2.709-0.049c0.406,0.009,0.472,0.173,0.53,0.579c0.053,0.365,0.027,0.585,0.034,0.954
			c0.021,1.756,0.024,3.512,0.046,5.269c0.007,0.678,0.041,1.469,0.06,2.147c0.003,0.071,0.03,0.161,0.093,0.185
			c0.573,0.229,0.415,0.168,0.992,0.394c0.143,0.056,0.616,0.277,0.762,0.333c0.214,0.114,0.322,0.293,0.329,0.4L23.096,19.197z
			 M7.797,17.398c0.023,0.18,0.118,0.269,0.277,0.317c0.261,0.077,0.38,0.083,0.646,0.083c1.153-0.002,2.895-0.009,5.569-0.018
			c0-0.006,0-0.013,0-0.019c0.735-0.022,1.469-0.044,2.203-0.068c1.253-0.042,2.505-0.086,3.754-0.129
			c0.148-0.005,0.223-0.07,0.238-0.22c0.016-0.142,0.031-0.286,0.028-0.429c-0.003-0.639-0.021-1.276-0.021-1.915
			c-0.007-1.277,0.006-2.555-0.01-3.831c-0.013-0.688-0.071-1.486-0.111-2.173c-0.003-0.035-0.047-0.082-0.081-0.096
			c-0.062-0.026-0.13-0.04-0.198-0.047c-0.468-0.055-0.924,0.012-1.426-0.004C18,8.829,17.464,8.853,16.847,8.847
			c-0.881-0.008-1.763-0.056-2.643-0.028c-0.781,0.025-1.562,0.036-2.343,0.071c-0.724,0.035-1.451,0.02-2.174,0.066
			c-0.657,0.04-1.24-0.009-1.897,0.045C7.656,9.013,7.568,9.087,7.554,9.214c-0.028,0.261-0.058,0.526-0.053,0.788
			c0.037,1.451,0.158,2.976,0.202,4.427L7.797,17.398z M13.263,19.82c0.442-0.019,0.936-0.038,1.431-0.059
			c1.151-0.05,2.302-0.1,3.452-0.145c0.927-0.035,1.851-0.066,2.774-0.098c0.062-0.003,0.08-0.027,0.083-0.085
			c0.004-0.159,0.004-0.317,0.013-0.476c0.006-0.072-0.016-0.092-0.087-0.09c-1.363,0.028-2.728,0.045-4.091,0.086
			c-1.092,0.033-2.183,0.102-3.274,0.145c-1.734,0.068-3.468,0.06-5.203-0.015c-0.654-0.03-1.306-0.067-1.958-0.107
			c-0.313-0.02-0.627-0.05-0.938-0.088c-0.28-0.034-0.341-0.012-0.394,0.262c-0.032,0.159-0.036,0.327-0.026,0.489
			c0.007,0.123,0.071,0.164,0.194,0.169c0.878,0.037,1.753,0.081,2.63,0.108C9.651,19.976,11.432,19.934,13.263,19.82z
			 M20.588,17.871c-0.056-0.032-0.301-0.003-0.365-0.004c-0.131-0.001-0.258,0.011-0.385,0.015
			c-1.438,0.036-2.876,0.073-4.313,0.107c-1.175,0.026-2.348,0.052-3.522,0.071c-1.151,0.021-2.303,0.073-3.455-0.014
			c-0.353-0.027-0.7-0.097-1.026-0.256c-0.04-0.02-0.107-0.01-0.153,0.009c-0.164,0.065-0.327,0.136-0.487,0.212
			c-0.336,0.159-0.669,0.322-1.003,0.487c-0.057,0.029-0.106,0.077-0.174,0.128c0.054,0.029,0.081,0.055,0.112,0.06
			c0.146,0.026,0.293,0.062,0.441,0.066c0.825,0.029,1.649,0.062,2.475,0.073c1.753,0.026,3.505,0.012,5.258-0.052
			c0.635-0.023,1.269-0.04,1.904-0.062c1.15-0.04,2.304-0.091,3.454-0.119c0.917-0.021,1.831-0.015,2.746-0.021
			c0.13-0.001,0.26,0,0.39,0c0-0.01,0.004-0.02,0.004-0.03c-0.025-0.014-0.053-0.031-0.081-0.043
			c-0.217-0.083-0.434-0.168-0.65-0.247L20.588,17.871z M21.667,19.204h-0.004c0-0.048,0.004-0.095,0-0.14
			c0-0.028-0.009-0.056-0.012-0.084c-0.01-0.064-0.143-0.125-0.224-0.124c-0.13,0.001-0.227,0.067-0.229,0.158
			c0,0.134,0,0.267,0.01,0.398c0.003,0.032,0.031,0.085,0.059,0.09c0.081,0.021,0.279,0.021,0.362,0.028
			c0.007,0,0.016-0.033,0.016-0.05C21.654,19.389,21.66,19.295,21.667,19.204z M22.132,19.25c0.003,0,0.006,0,0.009,0
			c0-0.08,0.01-0.162-0.003-0.241c-0.006-0.035-0.047-0.064-0.074-0.096c-0.025,0.031-0.068,0.059-0.074,0.093
			c-0.022,0.159-0.034,0.322-0.047,0.481c-0.006,0.059,0.028,0.077,0.081,0.074c0.071-0.003,0.104-0.048,0.104-0.116
			C22.132,19.381,22.132,19.315,22.132,19.25z"/>
		<path fill="#48689A" d="M26.833,17.441c-0.027-0.011-0.059-0.021-0.093-0.032c0.006-0.01,0.013-0.017,0.016-0.022
			c0.034-0.054,0.05-0.112,0.043-0.176c-0.019-0.129-0.13-0.207-0.263-0.187c-0.1,0.016-0.187,0.064-0.267,0.125
			c-0.01,0.008-0.031,0.013-0.041,0.008c-0.037-0.021-0.077-0.049-0.117-0.074c0.003-0.007,0.003-0.011,0.006-0.013
			c0.006-0.01,0.013-0.018,0.019-0.026c0.053-0.066,0.09-0.139,0.09-0.225c-0.003-0.138-0.154-0.306-0.35-0.248
			c-0.105,0.03-0.189,0.095-0.264,0.172c-0.016,0.016-0.028,0.021-0.05,0.01c-0.043-0.024-0.09-0.043-0.13-0.069
			c-0.01-0.005-0.019-0.026-0.019-0.039c0.003-0.024,0.012-0.05,0.016-0.074c0.027-0.176-0.134-0.337-0.311-0.312
			c-0.096,0.014-0.174,0.062-0.235,0.134c-0.016,0.017-0.028,0.022-0.05,0.011c-0.037-0.018-0.074-0.032-0.111-0.049
			c-0.021-0.009-0.024-0.019-0.016-0.041c0.016-0.032,0.028-0.067,0.024-0.101c0-0.12-0.067-0.207-0.154-0.281
			c-0.044-0.038-0.1-0.058-0.158-0.061c-0.121-0.008-0.227,0.03-0.313,0.112c-0.04,0.04-0.077,0.057-0.127,0.02c0,0,0,0-0.003-0.001
			c-0.024-0.009-0.028-0.018-0.013-0.044c0.022-0.036,0.044-0.079,0.044-0.119c0.012-0.22-0.208-0.397-0.422-0.346
			c-0.121,0.03-0.211,0.106-0.279,0.209c-0.015,0.025-0.03,0.035-0.062,0.024c-0.031-0.011-0.062-0.019-0.093-0.024
			c-0.127-0.02-0.242,0.003-0.338,0.088c-0.071,0.063-0.137,0.136-0.195,0.21c-0.108,0.134-0.205,0.275-0.31,0.409
			c-0.192,0.242-0.388,0.479-0.577,0.722c-0.257,0.327-0.505,0.656-0.759,0.984c-0.211,0.273-0.425,0.544-0.633,0.82
			c-0.151,0.202-0.298,0.41-0.44,0.617c-0.093,0.129-0.18,0.262-0.26,0.396c-0.044,0.068-0.071,0.147-0.047,0.226
			c0.007,0.022,0.01,0.045,0.01,0.064c0.012,0.037,0.019,0.078,0.019,0.124c0.003,0.062,0.006,0.135,0.034,0.197
			c0,0.001,0,0.001,0,0.003c0.006,0.013,0.012,0.019,0.016,0.019c0.04,0.021,0.064,0.034,0.108,0.051
			c0.251,0.1,0.505,0.202,0.759,0.292c0.158,0.056,0.326,0.09,0.487,0.138c0.161,0.05,0.315,0.104,0.474,0.155
			c0.164,0.054,0.329,0.111,0.493,0.165c0.226,0.073,0.455,0.145,0.682,0.217c0.18,0.06,0.359,0.121,0.539,0.177
			c0.214,0.065,0.428,0.086,0.645,0.026c0.165-0.045,0.301-0.141,0.416-0.263c0.127-0.14,0.244-0.287,0.362-0.435
			c0.205-0.249,0.403-0.502,0.607-0.753c0.316-0.388,0.626-0.778,0.914-1.188c0.09-0.133,0.187-0.263,0.279-0.395
			c0.04-0.06,0.081-0.123,0.13-0.179c0.047-0.053,0.074-0.117,0.121-0.169l0,0c0.031-0.044,0.062-0.087,0.087-0.134
			c0.056-0.108,0.05-0.191-0.056-0.268c-0.013-0.01-0.025-0.02-0.034-0.026c0.071-0.141,0.143-0.277,0.208-0.414
			C26.93,17.506,26.911,17.468,26.833,17.441z M26.431,17.241c0.04-0.021,0.08-0.043,0.124-0.055
			c0.056-0.015,0.086,0.019,0.074,0.075c0,0.008-0.003,0.016-0.007,0.024l0,0c0,0.005-0.003,0.012-0.003,0.018
			c-0.016,0.045-0.021,0.049-0.064,0.03c-0.041-0.02-0.081-0.04-0.121-0.062C26.412,17.263,26.415,17.25,26.431,17.241z
			 M26.183,17.714c-0.007,0.012-0.013,0.024-0.025,0.031c-0.064,0.056-0.191,0.06-0.232-0.06c-0.012-0.045,0.013-0.087,0.06-0.098
			c0.016-0.005,0.027-0.011,0.049-0.018c0.013,0.077,0.06,0.109,0.131,0.111C26.186,17.683,26.188,17.696,26.183,17.714z
			 M25.956,16.726c0.031-0.004,0.056,0.011,0.074,0.035c0.031,0.047,0.034,0.104,0.003,0.151c-0.056,0.087-0.053,0.087-0.143,0.032
			c-0.046-0.029-0.093-0.058-0.146-0.09C25.808,16.79,25.866,16.735,25.956,16.726z M25.15,16.425
			c0.062-0.017,0.111,0.04,0.105,0.117c0,0.045-0.01,0.051-0.05,0.032c-0.056-0.027-0.114-0.054-0.171-0.08
			c-0.003-0.006-0.003-0.011-0.003-0.017C25.069,16.459,25.106,16.436,25.15,16.425z M24.255,16.08
			c0.099-0.07,0.235-0.042,0.301,0.065c0.012,0.019,0.015,0.042,0.019,0.052c-0.013,0.061-0.041,0.07-0.084,0.049
			c-0.077-0.039-0.155-0.076-0.232-0.114c-0.013-0.006-0.021-0.016-0.031-0.023C24.236,16.099,24.242,16.087,24.255,16.08z
			 M24.075,16.687c0.024,0.03,0.024,0.062-0.007,0.087c-0.064,0.051-0.143,0.065-0.226,0.059c-0.034-0.003-0.057-0.03-0.062-0.065
			c-0.009-0.077,0.04-0.142,0.121-0.157C23.957,16.711,23.991,16.727,24.075,16.687z M23.632,15.636
			c0.08-0.007,0.188,0.064,0.214,0.14c0.019,0.051-0.025,0.128-0.078,0.129c-0.021,0.001-0.043-0.013-0.067-0.021
			c-0.084-0.031-0.165-0.062-0.248-0.094c-0.007-0.002-0.01-0.005-0.019-0.012C23.489,15.712,23.539,15.644,23.632,15.636z
			 M23.334,16.433c0.031,0.004,0.037,0.019,0.019,0.043c-0.031,0.045-0.077,0.048-0.127,0.049c-0.019,0.001-0.037-0.005-0.047-0.006
			c-0.046-0.013-0.08-0.027-0.099-0.064c-0.031-0.052-0.013-0.103,0.043-0.123c0.007-0.003,0.025,0.001,0.031,0.008
			C23.201,16.395,23.263,16.421,23.334,16.433z M26.635,18.263c-0.04,0.06-0.09,0.114-0.13,0.173
			c-0.134,0.185-0.261,0.373-0.396,0.556c-0.221,0.303-0.443,0.606-0.673,0.902c-0.248,0.32-0.509,0.632-0.763,0.948
			c-0.124,0.153-0.241,0.312-0.369,0.464c-0.102,0.125-0.226,0.232-0.365,0.314c-0.14,0.085-0.295,0.105-0.456,0.088
			c-0.201-0.021-0.384-0.104-0.573-0.17c-0.164-0.061-0.331-0.108-0.499-0.16c-0.207-0.062-0.418-0.119-0.626-0.185
			c-0.133-0.04-0.264-0.09-0.396-0.133c-0.201-0.066-0.403-0.132-0.607-0.195c-0.189-0.059-0.375-0.124-0.558-0.2
			c-0.137-0.058-0.273-0.105-0.413-0.155c-0.064-0.022-0.102-0.085-0.086-0.162c0.024,0.014,0.049,0.029,0.074,0.039
			c0.093,0.033,0.186,0.069,0.278,0.098c0.332,0.102,0.667,0.199,0.998,0.3c0.218,0.067,0.435,0.132,0.651,0.2
			c0.227,0.071,0.452,0.143,0.676,0.216c0.232,0.074,0.465,0.15,0.694,0.228c0.099,0.032,0.198,0.066,0.294,0.101
			c0.084,0.028,0.171,0.056,0.261,0.048c0.105-0.008,0.186-0.064,0.26-0.135c0.108-0.104,0.192-0.225,0.273-0.349
			c0.096-0.141,0.214-0.264,0.325-0.392c0.406-0.469,0.815-0.935,1.221-1.402c0.218-0.25,0.425-0.509,0.614-0.78
			c0.087-0.127,0.17-0.257,0.254-0.387c0.003-0.004,0.006-0.009,0.01-0.012C26.675,18.145,26.666,18.218,26.635,18.263z
			 M26.709,17.608c-0.241,0.496-0.561,0.943-0.917,1.363c-0.344,0.405-0.704,0.801-1.054,1.204
			c-0.235,0.272-0.472,0.548-0.704,0.827c-0.068,0.082-0.12,0.179-0.183,0.264c-0.059,0.08-0.133,0.146-0.241,0.15
			c-0.041,0.001-0.084-0.007-0.124-0.019c-0.298-0.097-0.596-0.195-0.893-0.292c-0.356-0.114-0.713-0.229-1.069-0.339
			c-0.518-0.16-1.036-0.313-1.554-0.472c-0.108-0.032-0.18-0.104-0.176-0.206c0-0.062,0.021-0.128,0.046-0.186
			c0.062-0.14,0.164-0.256,0.251-0.378c0.134-0.185,0.261-0.374,0.396-0.556c0.158-0.216,0.323-0.426,0.484-0.639
			c0.278-0.361,0.552-0.723,0.83-1.083c0.192-0.249,0.391-0.493,0.58-0.741c0.09-0.115,0.167-0.236,0.251-0.354
			c0.037-0.055,0.077-0.104,0.136-0.142c0.06-0.038,0.108-0.084,0.161-0.129c0.05-0.045,0.109-0.054,0.171-0.047
			c0.037,0.003,0.081,0.004,0.103,0.025c0.027,0.027-0.016,0.061-0.025,0.092c-0.012,0.064-0.03,0.13-0.053,0.19
			c-0.006,0.019-0.027,0.036-0.046,0.046c-0.068,0.036-0.115,0.087-0.137,0.161c-0.031,0.102,0,0.194,0.093,0.252
			c0.108,0.069,0.227,0.078,0.345,0.026c0.114-0.051,0.151-0.149,0.108-0.27c-0.037-0.093-0.1-0.163-0.192-0.203
			c-0.019-0.009-0.021-0.021-0.016-0.037c0.021-0.062,0.047-0.125,0.071-0.186c0.003-0.009,0.024-0.016,0.037-0.013
			c0.044,0.016,0.09,0.034,0.134,0.053c0.13,0.053,0.26,0.107,0.391,0.162c0.043,0.019,0.046,0.022,0.024,0.062
			c-0.04,0.074-0.053,0.155-0.056,0.237c0,0.027-0.01,0.035-0.031,0.042c-0.062,0.021-0.111,0.055-0.151,0.106
			c-0.09,0.121-0.075,0.273,0.046,0.352c0.05,0.031,0.108,0.041,0.168,0.036c0.083-0.007,0.157-0.03,0.226-0.081
			c0.115-0.089,0.127-0.228,0.025-0.332c-0.028-0.026-0.062-0.045-0.094-0.068c-0.009-0.007-0.019-0.021-0.019-0.03
			c0-0.072,0.016-0.141,0.05-0.204c0.01-0.019,0.019-0.022,0.037-0.015c0.131,0.065,0.264,0.13,0.394,0.194
			c0.06,0.027,0.118,0.054,0.177,0.083c0.016,0.008,0.031,0.018,0.047,0.025c-0.034,0.068-0.068,0.129-0.097,0.193
			c-0.012,0.025-0.024,0.033-0.049,0.037c-0.152,0.024-0.251,0.172-0.214,0.321c0.021,0.078,0.074,0.127,0.143,0.165
			c0.108,0.06,0.278,0.042,0.372-0.04c0.074-0.068,0.093-0.168,0.037-0.263c-0.028-0.048-0.068-0.087-0.105-0.126
			c-0.022-0.021-0.028-0.033-0.016-0.059c0.027-0.043,0.053-0.088,0.077-0.131c0.013-0.022,0.025-0.024,0.05-0.013
			c0.124,0.062,0.251,0.121,0.378,0.182c0.044,0.021,0.087,0.043,0.127,0.065c0.021,0.01,0.025,0.022,0.013,0.043
			c-0.028,0.062-0.056,0.126-0.087,0.188c-0.006,0.014-0.021,0.028-0.037,0.033c-0.09,0.031-0.148,0.09-0.171,0.184
			c-0.024,0.113,0.013,0.221,0.112,0.275c0.133,0.074,0.338,0.047,0.421-0.105c0.047-0.085,0.01-0.203-0.077-0.259
			c-0.013-0.009-0.028-0.021-0.04-0.023c-0.041-0.011-0.044-0.036-0.031-0.066c0.016-0.049,0.037-0.096,0.059-0.143
			c0.01-0.02,0.022-0.026,0.047-0.012c0.146,0.093,0.291,0.184,0.44,0.275c0.021,0.014,0.027,0.026,0.009,0.051
			c-0.021,0.03-0.04,0.063-0.056,0.098c-0.013,0.024-0.028,0.035-0.053,0.033c-0.103-0.009-0.198,0.099-0.211,0.188
			c-0.012,0.098,0.04,0.198,0.134,0.243c0.064,0.03,0.13,0.036,0.198,0.021c0.087-0.019,0.154-0.066,0.177-0.156
			c0.021-0.092-0.01-0.173-0.081-0.235c-0.024-0.02-0.024-0.034-0.006-0.056c0-0.001,0-0.004,0.003-0.006
			c0.056-0.082,0.056-0.078,0.146-0.034c0.105,0.051,0.214,0.096,0.319,0.141C26.719,17.566,26.725,17.575,26.709,17.608z
			 M24.828,17.01c0.027,0.043,0.021,0.089-0.016,0.122c-0.031,0.028-0.071,0.039-0.108,0.036c-0.093-0.005-0.146-0.028-0.174-0.094
			c-0.031-0.065,0-0.144,0.062-0.165c0.024-0.009,0.037-0.006,0.043,0.022c0.013,0.045,0.04,0.076,0.081,0.097
			C24.757,17.048,24.794,17.042,24.828,17.01z M25.557,17.433c0.016,0,0.027-0.024,0.053-0.036
			c-0.007,0.019-0.013,0.041-0.025,0.057c-0.05,0.057-0.161,0.075-0.226,0.041c-0.041-0.021-0.065-0.075-0.06-0.124
			c0.007-0.059,0.025-0.083,0.081-0.1c0.016,0.057,0.046,0.105,0.096,0.138C25.501,17.423,25.528,17.434,25.557,17.433z"/>
		<path fill-rule="evenodd" clip-rule="evenodd" fill="#FFFFFF" d="M24.757,16.544c-0.034,0.068-0.068,0.129-0.097,0.193
			c-0.012,0.025-0.024,0.033-0.049,0.037c-0.152,0.024-0.251,0.172-0.214,0.321c0.021,0.078,0.074,0.127,0.143,0.165
			c0.108,0.06,0.278,0.042,0.372-0.04c0.074-0.068,0.093-0.168,0.037-0.263c-0.028-0.048-0.068-0.087-0.105-0.126
			c-0.022-0.021-0.028-0.033-0.016-0.059c0.027-0.043,0.053-0.088,0.077-0.131c0.013-0.022,0.025-0.024,0.05-0.013
			c0.124,0.062,0.251,0.121,0.378,0.182c0.044,0.021,0.087,0.043,0.127,0.065c0.021,0.01,0.025,0.022,0.013,0.043
			c-0.028,0.062-0.056,0.126-0.087,0.188c-0.006,0.014-0.021,0.028-0.037,0.033c-0.09,0.031-0.148,0.09-0.171,0.184
			c-0.024,0.113,0.013,0.221,0.112,0.275c0.133,0.074,0.338,0.047,0.421-0.105c0.047-0.085,0.01-0.203-0.077-0.259
			c-0.013-0.009-0.028-0.021-0.04-0.023c-0.041-0.011-0.044-0.036-0.031-0.066c0.016-0.049,0.037-0.096,0.059-0.143
			c0.01-0.02,0.022-0.026,0.047-0.012c0.146,0.093,0.291,0.184,0.44,0.275c0.021,0.014,0.027,0.026,0.009,0.051
			c-0.021,0.03-0.04,0.063-0.056,0.098c-0.013,0.024-0.028,0.035-0.053,0.033c-0.103-0.009-0.198,0.099-0.211,0.188
			c-0.012,0.098,0.04,0.198,0.134,0.243c0.064,0.03,0.13,0.036,0.198,0.021c0.087-0.019,0.154-0.066,0.177-0.156
			c0.021-0.092-0.01-0.173-0.081-0.235c-0.024-0.02-0.024-0.034-0.006-0.056c0-0.001,0-0.004,0.003-0.006
			c0.056-0.082,0.056-0.078,0.146-0.034c0.105,0.051,0.214,0.096,0.319,0.141c0.031,0.012,0.037,0.021,0.021,0.054
			c-0.241,0.496-0.561,0.943-0.917,1.363c-0.344,0.405-0.704,0.801-1.054,1.204c-0.235,0.272-0.472,0.548-0.704,0.827
			c-0.068,0.082-0.12,0.179-0.183,0.264c-0.059,0.08-0.133,0.146-0.241,0.15c-0.041,0.001-0.084-0.007-0.124-0.019
			c-0.298-0.097-0.596-0.195-0.893-0.292c-0.356-0.114-0.713-0.229-1.069-0.339c-0.518-0.16-1.036-0.313-1.554-0.472
			c-0.108-0.032-0.18-0.104-0.176-0.206c0-0.062,0.021-0.128,0.046-0.186c0.062-0.14,0.164-0.256,0.251-0.378
			c0.134-0.185,0.261-0.374,0.396-0.556c0.158-0.216,0.323-0.426,0.484-0.639c0.278-0.361,0.552-0.723,0.83-1.083
			c0.192-0.249,0.391-0.493,0.58-0.741c0.09-0.115,0.167-0.236,0.251-0.354c0.037-0.055,0.077-0.104,0.136-0.142
			c0.06-0.038,0.108-0.084,0.161-0.129c0.05-0.045,0.109-0.054,0.171-0.047c0.037,0.003,0.081,0.004,0.103,0.025
			c0.027,0.027-0.016,0.061-0.025,0.092c-0.012,0.064-0.03,0.13-0.053,0.19c-0.006,0.019-0.027,0.036-0.046,0.046
			c-0.068,0.036-0.115,0.087-0.137,0.161c-0.031,0.102,0,0.194,0.093,0.252c0.108,0.069,0.227,0.078,0.345,0.026
			c0.114-0.051,0.151-0.149,0.108-0.27c-0.037-0.093-0.1-0.163-0.192-0.203c-0.019-0.009-0.021-0.021-0.016-0.037
			c0.021-0.062,0.047-0.125,0.071-0.186c0.003-0.009,0.024-0.016,0.037-0.013c0.044,0.016,0.09,0.034,0.134,0.053
			c0.13,0.053,0.26,0.107,0.391,0.162c0.043,0.019,0.046,0.022,0.024,0.062c-0.04,0.074-0.053,0.155-0.056,0.237
			c0,0.027-0.01,0.035-0.031,0.042c-0.062,0.021-0.111,0.055-0.151,0.106c-0.09,0.121-0.075,0.273,0.046,0.352
			c0.05,0.031,0.108,0.041,0.168,0.036c0.083-0.007,0.157-0.03,0.226-0.081c0.115-0.089,0.127-0.228,0.025-0.332
			c-0.028-0.026-0.062-0.045-0.094-0.068c-0.009-0.007-0.019-0.021-0.019-0.03c0-0.072,0.016-0.141,0.05-0.204
			c0.01-0.019,0.019-0.022,0.037-0.015c0.131,0.065,0.264,0.13,0.394,0.194c0.06,0.027,0.118,0.054,0.177,0.083
			C24.726,16.526,24.741,16.536,24.757,16.544z M24.642,18.9c0-0.001,0-0.002,0-0.003c0.05,0.013,0.1,0.026,0.152,0.038
			c0.059,0.014,0.105-0.022,0.105-0.08c0.003-0.045-0.021-0.072-0.074-0.089c-0.103-0.031-0.205-0.058-0.308-0.095
			c-0.186-0.066-0.368-0.135-0.552-0.21c-0.146-0.06-0.294-0.127-0.437-0.195c-0.146-0.068-0.288-0.144-0.431-0.215
			c-0.087-0.044-0.171-0.089-0.258-0.128c-0.13-0.059-0.26-0.111-0.39-0.169c-0.057-0.024-0.112,0.009-0.105,0.068
			c0.003,0.024,0.024,0.056,0.049,0.068c0.078,0.045,0.158,0.085,0.236,0.124c0.148,0.071,0.3,0.14,0.446,0.212
			c0.133,0.064,0.26,0.137,0.394,0.197c0.198,0.092,0.402,0.182,0.607,0.266C24.264,18.766,24.453,18.83,24.642,18.9z
			 M24.292,19.358c0.064,0.018,0.108-0.014,0.114-0.071c0.007-0.046-0.021-0.072-0.059-0.096c-0.074-0.05-0.161-0.074-0.248-0.095
			c-0.322-0.074-0.632-0.193-0.937-0.318c-0.176-0.072-0.347-0.159-0.521-0.235c-0.177-0.078-0.354-0.152-0.533-0.228
			c-0.043-0.019-0.077-0.008-0.093,0.028c-0.021,0.04-0.009,0.084,0.031,0.105c0.114,0.06,0.227,0.121,0.341,0.176
			c0.18,0.085,0.356,0.171,0.539,0.247c0.177,0.074,0.354,0.145,0.536,0.205c0.245,0.079,0.499,0.135,0.735,0.24
			C24.232,19.331,24.267,19.348,24.292,19.358z M24.884,18.335c0-0.003,0-0.006,0.003-0.01c0.05,0.014,0.1,0.027,0.148,0.039
			c0.044,0.009,0.084-0.017,0.097-0.058c0.016-0.051-0.007-0.085-0.065-0.1c-0.226-0.053-0.443-0.135-0.657-0.222
			c-0.111-0.045-0.223-0.091-0.338-0.135c-0.133-0.051-0.267-0.098-0.396-0.15c-0.207-0.082-0.409-0.172-0.613-0.248
			c-0.112-0.043-0.229-0.066-0.348-0.096c-0.04-0.01-0.071,0.01-0.08,0.041c-0.01,0.03,0.012,0.062,0.05,0.077
			c0.046,0.019,0.093,0.034,0.139,0.053c0.152,0.061,0.304,0.12,0.456,0.182c0.155,0.062,0.31,0.126,0.465,0.188
			c0.229,0.092,0.459,0.183,0.688,0.272C24.583,18.226,24.731,18.279,24.884,18.335z M23.328,20.641
			c0.074,0.019,0.133,0.035,0.188,0.05c0.065,0.014,0.103-0.013,0.115-0.075c0.006-0.049-0.019-0.085-0.074-0.099
			c-0.242-0.065-0.49-0.124-0.72-0.228c-0.031-0.015-0.074,0.003-0.093,0.035c-0.021,0.034-0.019,0.066,0.013,0.09
			c0.04,0.028,0.08,0.056,0.124,0.073C23.033,20.543,23.188,20.594,23.328,20.641z M23.114,20.723
			c-0.127-0.021-0.255-0.04-0.382-0.061c-0.034-0.005-0.059,0.011-0.067,0.04c-0.01,0.031,0.003,0.056,0.04,0.07
			c0.074,0.027,0.148,0.057,0.223,0.082c0.155,0.05,0.319,0.079,0.469,0.151c0.027,0.015,0.067,0,0.09-0.029
			c0.019-0.027,0.021-0.058,0-0.084c-0.019-0.021-0.041-0.04-0.062-0.054C23.328,20.783,23.223,20.755,23.114,20.723z"/>
		<path fill-rule="evenodd" clip-rule="evenodd" fill="#FFFFFF" d="M26.607,18.12c0.067,0.024,0.059,0.098,0.027,0.143
			c-0.04,0.06-0.09,0.114-0.13,0.173c-0.134,0.185-0.261,0.373-0.396,0.556c-0.221,0.303-0.443,0.606-0.673,0.902
			c-0.248,0.32-0.509,0.632-0.763,0.948c-0.124,0.153-0.241,0.312-0.369,0.464c-0.102,0.125-0.226,0.232-0.365,0.314
			c-0.14,0.085-0.295,0.105-0.456,0.088c-0.201-0.021-0.384-0.104-0.573-0.17c-0.164-0.061-0.331-0.108-0.499-0.16
			c-0.207-0.062-0.418-0.119-0.626-0.185c-0.133-0.04-0.264-0.09-0.396-0.133c-0.201-0.066-0.403-0.132-0.607-0.195
			c-0.189-0.059-0.375-0.124-0.558-0.2c-0.137-0.058-0.273-0.105-0.413-0.155c-0.064-0.022-0.102-0.085-0.086-0.162
			c0.024,0.014,0.049,0.029,0.074,0.039c0.093,0.033,0.186,0.069,0.278,0.098c0.332,0.102,0.667,0.199,0.998,0.3
			c0.218,0.067,0.435,0.132,0.651,0.2c0.227,0.071,0.452,0.143,0.676,0.216c0.232,0.074,0.465,0.15,0.694,0.228
			c0.099,0.032,0.198,0.066,0.294,0.101c0.084,0.028,0.171,0.056,0.261,0.048c0.105-0.008,0.186-0.064,0.26-0.135
			c0.108-0.104,0.192-0.225,0.273-0.349c0.096-0.141,0.214-0.264,0.325-0.392c0.406-0.469,0.815-0.935,1.221-1.402
			c0.218-0.25,0.425-0.509,0.614-0.78c0.087-0.127,0.17-0.257,0.254-0.387C26.601,18.128,26.604,18.123,26.607,18.12z"/>
		<path fill-rule="evenodd" clip-rule="evenodd" fill="#FFFFFF" d="M23.434,15.778c0.056-0.066,0.105-0.134,0.198-0.143
			c0.08-0.007,0.188,0.064,0.214,0.14c0.019,0.051-0.025,0.128-0.078,0.129c-0.021,0.001-0.043-0.013-0.067-0.021
			c-0.084-0.031-0.165-0.062-0.248-0.094C23.445,15.788,23.442,15.785,23.434,15.778z"/>
		<path fill-rule="evenodd" clip-rule="evenodd" fill="#FFFFFF" d="M24.828,17.01c0.027,0.043,0.021,0.089-0.016,0.122
			c-0.031,0.028-0.071,0.039-0.108,0.036c-0.093-0.005-0.146-0.028-0.174-0.094c-0.031-0.065,0-0.144,0.062-0.165
			c0.024-0.009,0.037-0.006,0.043,0.022c0.013,0.045,0.04,0.076,0.081,0.097C24.757,17.048,24.794,17.042,24.828,17.01z"/>
		<path fill-rule="evenodd" clip-rule="evenodd" fill="#FFFFFF" d="M25.745,16.854c0.065-0.063,0.124-0.118,0.211-0.128
			c0.034-0.004,0.056,0.011,0.074,0.035c0.034,0.046,0.034,0.104,0.003,0.151c-0.053,0.087-0.053,0.087-0.143,0.031
			C25.845,16.915,25.798,16.886,25.745,16.854z"/>
		<path fill-rule="evenodd" clip-rule="evenodd" fill="#FFFFFF" d="M23.901,16.609c0.056,0.102,0.09,0.117,0.174,0.077
			c0.024,0.03,0.024,0.062-0.007,0.087c-0.064,0.051-0.143,0.065-0.226,0.059c-0.034-0.003-0.057-0.03-0.062-0.065
			C23.771,16.689,23.82,16.625,23.901,16.609z"/>
		<path fill-rule="evenodd" clip-rule="evenodd" fill="#FFFFFF" d="M24.574,16.197c-0.013,0.061-0.041,0.07-0.084,0.049
			c-0.077-0.039-0.155-0.076-0.232-0.114c-0.013-0.006-0.021-0.016-0.031-0.023c0.01-0.01,0.016-0.021,0.028-0.028
			c0.099-0.07,0.235-0.042,0.301,0.065C24.567,16.164,24.57,16.188,24.574,16.197z"/>
		<path fill-rule="evenodd" clip-rule="evenodd" fill="#FFFFFF" d="M25.38,17.272c0.016,0.057,0.046,0.105,0.096,0.137
			c0.021,0.015,0.053,0.025,0.077,0.025c0.016,0,0.031-0.025,0.057-0.037c-0.01,0.02-0.013,0.042-0.028,0.057
			c-0.05,0.059-0.158,0.076-0.227,0.041c-0.037-0.021-0.064-0.075-0.059-0.123C25.302,17.314,25.324,17.288,25.38,17.272z"/>
		<path fill-rule="evenodd" clip-rule="evenodd" fill="#FFFFFF" d="M26.037,17.57c0.012,0.077,0.059,0.108,0.13,0.111
			c0.021,0.001,0.024,0.015,0.019,0.032c-0.006,0.012-0.013,0.024-0.024,0.031c-0.065,0.055-0.192,0.059-0.232-0.06
			c-0.013-0.045,0.012-0.087,0.059-0.099C26.003,17.583,26.015,17.576,26.037,17.57z"/>
		<path fill-rule="evenodd" clip-rule="evenodd" fill="#FFFFFF" d="M25.032,16.478c0.037-0.019,0.074-0.042,0.118-0.053
			c0.062-0.017,0.111,0.04,0.105,0.117c0,0.045-0.01,0.051-0.05,0.032c-0.056-0.027-0.114-0.054-0.171-0.08
			C25.032,16.488,25.032,16.483,25.032,16.478z"/>
		<path fill-rule="evenodd" clip-rule="evenodd" fill="#00BDF2" d="M24.642,18.9c-0.188-0.07-0.378-0.135-0.563-0.21
			c-0.205-0.084-0.409-0.174-0.607-0.266c-0.134-0.061-0.261-0.133-0.394-0.197c-0.146-0.072-0.298-0.141-0.446-0.212
			c-0.078-0.039-0.158-0.079-0.236-0.124c-0.024-0.013-0.046-0.044-0.049-0.068c-0.007-0.06,0.049-0.093,0.105-0.068
			c0.13,0.058,0.26,0.11,0.39,0.169c0.087,0.039,0.171,0.084,0.258,0.128c0.143,0.071,0.285,0.146,0.431,0.215
			c0.143,0.068,0.291,0.136,0.437,0.195c0.184,0.075,0.366,0.144,0.552,0.21c0.103,0.037,0.205,0.063,0.308,0.095
			c0.053,0.017,0.077,0.044,0.074,0.089c0,0.058-0.047,0.094-0.105,0.08c-0.053-0.012-0.103-0.025-0.152-0.038
			C24.642,18.898,24.642,18.899,24.642,18.9z"/>
		<path fill-rule="evenodd" clip-rule="evenodd" fill="#00BDF2" d="M24.292,19.358c-0.025-0.011-0.06-0.027-0.093-0.041
			c-0.236-0.105-0.49-0.161-0.735-0.24c-0.183-0.061-0.359-0.131-0.536-0.205c-0.183-0.076-0.359-0.162-0.539-0.247
			c-0.114-0.055-0.227-0.116-0.341-0.176c-0.04-0.021-0.053-0.065-0.031-0.105c0.016-0.036,0.05-0.047,0.093-0.028
			c0.18,0.075,0.356,0.149,0.533,0.228c0.174,0.076,0.345,0.163,0.521,0.235c0.305,0.125,0.614,0.244,0.937,0.318
			c0.087,0.021,0.174,0.045,0.248,0.095c0.037,0.023,0.065,0.05,0.059,0.096C24.4,19.345,24.356,19.376,24.292,19.358z"/>
		<path fill-rule="evenodd" clip-rule="evenodd" fill="#00BDF2" d="M24.884,18.335c-0.152-0.056-0.301-0.109-0.452-0.166
			c-0.229-0.09-0.459-0.181-0.688-0.272c-0.155-0.062-0.31-0.125-0.465-0.188c-0.152-0.062-0.304-0.121-0.456-0.182
			c-0.046-0.019-0.093-0.034-0.139-0.053c-0.038-0.015-0.06-0.047-0.05-0.077c0.009-0.031,0.04-0.051,0.08-0.041
			c0.118,0.029,0.235,0.053,0.348,0.096c0.204,0.076,0.406,0.166,0.613,0.248c0.13,0.053,0.264,0.1,0.396,0.15
			c0.115,0.044,0.227,0.09,0.338,0.135c0.214,0.087,0.432,0.169,0.657,0.222c0.059,0.015,0.081,0.049,0.065,0.1
			c-0.013,0.041-0.053,0.066-0.097,0.058c-0.049-0.012-0.099-0.025-0.148-0.039C24.884,18.329,24.884,18.332,24.884,18.335z"/>
		<path fill-rule="evenodd" clip-rule="evenodd" fill="#00BDF2" d="M23.334,20.644c-0.14-0.048-0.294-0.098-0.446-0.153
			c-0.043-0.016-0.084-0.045-0.121-0.074c-0.034-0.023-0.037-0.056-0.016-0.089c0.022-0.032,0.062-0.051,0.094-0.035
			c0.232,0.104,0.477,0.162,0.719,0.228c0.056,0.014,0.084,0.05,0.074,0.098c-0.013,0.063-0.05,0.09-0.111,0.074
			C23.468,20.678,23.408,20.662,23.334,20.644z"/>
		<path fill="#FFFFFF" d="M26.431,17.241c0.04-0.021,0.08-0.043,0.124-0.055c0.056-0.015,0.086,0.019,0.074,0.075
			c0,0.008-0.003,0.016-0.007,0.024l0,0c0,0.005-0.003,0.012-0.003,0.018c-0.016,0.045-0.021,0.049-0.064,0.03
			c-0.041-0.02-0.081-0.04-0.121-0.062C26.412,17.263,26.415,17.25,26.431,17.241z"/>
		<g>
			<g>
				<path fill="#48689A" d="M18.746,16.95c0.259-0.183,0.347-0.564,0.456-0.845c0.018-0.046-0.257-0.02-0.285,0.053
					c-0.09,0.229-0.181,0.64-0.392,0.788C18.408,17.028,18.698,16.984,18.746,16.95L18.746,16.95z"/>
			</g>
		</g>
	</g>
</g>
</svg>
