<?xml version="1.0" encoding="utf-8"?>
<!-- Generator: Adobe Illustrator 16.0.0, SVG Export Plug-In . SVG Version: 6.00 Build 0)  -->
<!DOCTYPE svg PUBLIC "-//W3C//DTD SVG 1.1//EN" "http://www.w3.org/Graphics/SVG/1.1/DTD/svg11.dtd">
<svg version="1.1" id="Layer_1" xmlns="http://www.w3.org/2000/svg" xmlns:xlink="http://www.w3.org/1999/xlink" x="0px" y="0px"
	 width="30px" height="30px" viewBox="0 0 30 30" enable-background="new 0 0 30 30" xml:space="preserve">
<g>
	<g>
		<path fill="#00BDF2" d="M13.535,13.463c0.008,0.244,0.016,0.488,0.023,0.732c0.001,0.038-0.001,0.076-0.001,0.114
			c-0.001,0.031-0.019,0.047-0.048,0.051c-0.051,0.007-0.1-0.004-0.103-0.077c-0.007-0.14-0.019-0.278-0.025-0.417
			c-0.008-0.179-0.012-0.357-0.018-0.536c0-0.021,0-0.043-0.001-0.065c-0.001-0.021,0.008-0.029,0.026-0.033
			c0.038-0.007,0.075,0,0.107,0.019c0.012,0.007,0.022,0.025,0.024,0.04c0.009,0.057,0.013,0.114,0.019,0.172
			C13.539,13.463,13.537,13.463,13.535,13.463z"/>
		<path fill="#00BDF2" d="M11.681,9.909c0.029,0.001,0.044,0.016,0.053,0.036c0.009,0.022,0.005,0.044-0.009,0.063
			c-0.006,0.009-0.016,0.017-0.025,0.024c-0.126,0.094-0.208,0.218-0.233,0.379c-0.014,0.085-0.023,0.172-0.034,0.257
			c-0.005,0.042-0.028,0.073-0.062,0.082c-0.055,0.015-0.092-0.009-0.105-0.071c-0.061-0.289,0.047-0.566,0.295-0.725
			C11.599,9.93,11.641,9.911,11.681,9.909z"/>
		<path fill="#00BDF2" d="M11.688,9.898c0.028,0.002,0.042,0.016,0.051,0.036c0.01,0.022,0.005,0.044-0.009,0.063
			c-0.007,0.009-0.016,0.018-0.024,0.025c-0.123,0.095-0.202,0.219-0.227,0.382c-0.014,0.086-0.021,0.173-0.032,0.26
			c-0.005,0.043-0.028,0.074-0.06,0.083c-0.053,0.015-0.089-0.009-0.102-0.072c-0.059-0.292,0.046-0.571,0.286-0.731
			C11.609,9.918,11.649,9.9,11.688,9.898z"/>
		<path fill="#00BDF2" d="M11.257,12.883c0.023-0.013,0.047-0.024,0.072-0.029c0.017-0.004,0.027-0.034,0.026-0.079
			c0-0.02-0.011-0.032-0.02-0.047c-0.008-0.008-0.017-0.016-0.026-0.018c-0.007-0.001-0.014,0.001-0.02,0.002
			c-0.005,0.002-0.01,0.003-0.014,0.004c-0.001,0.001-0.004,0.002-0.006,0.003c-0.003,0.002-0.006,0.001-0.01,0.002
			c-0.001,0.001-0.003,0.001-0.005,0.001c-0.002,0.001-0.006,0.002-0.01,0.002c-0.022,0.007-0.044,0.017-0.065,0.027
			c-0.032,0.014-0.062,0.031-0.092,0.048c-0.037,0.021-0.065,0.052-0.101,0.08c-0.166,0.127-0.161,0.412-0.164,0.44
			c-0.002,0.029-0.007,0.123,0.009,0.146c0.016,0.022,0.059,0.019,0.07,0.011c0.011-0.007,0.054-0.015,0.051-0.096
			c-0.003-0.083,0.015-0.183,0.032-0.256c0.018-0.074,0.084-0.138,0.143-0.173c0.028-0.017,0.088-0.055,0.119-0.068
			C11.251,12.885,11.254,12.884,11.257,12.883z"/>
		<path fill="#00BDF2" d="M12.058,9.329c0,0,0.484-0.041,0.826,0.386c0.343,0.428,0.357,1.016,0.343,1.149
			c-0.015,0.134-0.111,0.574-0.206,0.724c-0.109,0.173-0.213,0.297-0.504,0.371s-0.418,0.093-0.683,0.058
			c-0.266-0.035-0.519-0.081-0.639-0.194c-0.121-0.113-0.522-0.458-0.481-1.146c0.042-0.688,0.426-0.97,0.483-1.016
			C11.254,9.616,11.624,9.315,12.058,9.329z M11.293,9.828c-0.05,0.039-0.378,0.257-0.414,0.851
			c-0.037,0.594,0.263,0.823,0.369,0.92c0.105,0.098,0.375,0.2,0.606,0.23c0.231,0.03,0.304,0.027,0.557-0.037
			c0.253-0.064,0.333-0.227,0.432-0.343c0.138-0.163,0.211-0.498,0.224-0.614c0.013-0.116,0.05-0.522-0.253-0.887
			c-0.388-0.467-0.765-0.438-0.765-0.438C11.673,9.499,11.343,9.788,11.293,9.828z"/>
		<path fill="#00BDF2" d="M14.072,13.979c-0.008-0.173-0.042-0.451-0.104-0.68c-0.062-0.229-0.079-0.345-0.157-0.474
			c-0.133-0.217-0.224-0.312-0.387-0.449c-0.162-0.137-0.486-0.237-0.529-0.25c-0.044-0.014-0.054-0.015-0.347,0.189
			c-0.139,0.095-0.443,0.114-0.443,0.114s-0.016-0.001-0.023-0.001c-0.069,0.003-0.127-0.005-0.195-0.018
			c-0.08-0.015-0.158-0.035-0.235-0.059c-0.065-0.021-0.13-0.043-0.192-0.071c-0.019-0.009-0.04-0.018-0.058-0.03
			c-0.028-0.017-0.06-0.05-0.095-0.047c-0.017,0.001-0.035,0.013-0.049,0.02c-0.011,0.005-0.023,0.011-0.034,0.019
			c-0.005,0.003-0.01,0.008-0.015,0.012c-0.008,0.004-0.016,0.006-0.023,0.011c-0.004,0.003-0.007,0.006-0.012,0.008
			c-0.008,0.004-0.016,0.008-0.023,0.012c-0.057,0.032-0.11,0.071-0.162,0.11c-0.077,0.058-0.149,0.12-0.222,0.184
			c-0.086,0.076-0.151,0.173-0.237,0.268c-0.32,0.354-0.222,1.13-0.222,1.205c0,0.13,0.004,0.262,0.034,0.389
			c0.017,0.071,0.073,0.147,0.124,0.2c0.041,0.043,0.087,0.081,0.137,0.115c0.127,0.088,0.271,0.154,0.417,0.206
			c0.339,0.119,0.704,0.167,1.062,0.165c0.296-0.001,0.593-0.023,0.883-0.082c0.269-0.054,0.538-0.139,0.772-0.285
			c0.073-0.045,0.142-0.097,0.204-0.155c0.028-0.027,0.051-0.055,0.075-0.083c0.029-0.036,0.064-0.061,0.079-0.108
			c0.013-0.043,0.011-0.091,0.004-0.136C14.078,14.182,14.076,14.077,14.072,13.979z M12.078,14.904
			c-0.349,0.007-0.699-0.054-1.022-0.186c-0.12-0.049-0.236-0.107-0.344-0.176c-0.033-0.021-0.065-0.042-0.097-0.065
			c-0.066-0.046-0.057-0.1-0.058-0.175c-0.001-0.072-0.012-0.145-0.02-0.217c-0.025-0.208-0.05-0.49-0.021-0.69
			c0.029-0.199,0.161-0.466,0.303-0.594c0.067-0.06,0.212-0.197,0.286-0.25c0.061-0.043,0.124-0.073,0.186-0.116
			c0.018-0.013,0.011-0.02,0.036-0.016c0.006,0.001,0.059,0.025,0.075,0.036c0.01,0.005,0.019,0.01,0.028,0.014
			c0.035,0.017,0.081,0.032,0.118,0.044c0.069,0.022,0.093,0.026,0.173,0.039c0.083,0.013,0.169,0.008,0.252,0.018
			c0.628,0.073,0.866-0.211,0.898-0.254c0.031-0.044,0.218,0.093,0.383,0.192c0.166,0.1,0.309,0.25,0.434,0.464
			c0.125,0.214,0.156,0.858,0.162,1.02c0.003,0.074,0.005,0.148,0.01,0.223c0.002,0.05,0.018,0.103,0.01,0.152
			c-0.006,0.039-0.028,0.046-0.057,0.067c-0.032,0.022-0.063,0.044-0.096,0.064c-0.103,0.061-0.213,0.111-0.324,0.155
			c-0.364,0.144-0.753,0.22-1.142,0.243C12.191,14.9,12.135,14.903,12.078,14.904z"/>
	</g>
</g>
<path fill-rule="evenodd" clip-rule="evenodd" fill="#48689A" d="M23.598,19.646c0,0.139,0.002,0.281-0.043,0.416
	c-0.068,0.2-0.182,0.295-0.402,0.294c-0.869-0.008-1.17,0.06-2.037,0.067c-1.994,0.017-3.986,0.183-5.98,0.218
	c-0.814,0.015-1.628,0.062-2.443,0.097c0,0.002,0,0.004,0,0.006c-0.86,0.04-1.72,0.136-2.581,0.165
	c-1.563,0.051-3.127,0.016-4.691,0.034c-1.239,0.015-2.341-0.114-3.58-0.133c-0.185-0.002-0.372-0.017-0.554-0.048
	c-0.089-0.016-0.184-0.067-0.248-0.131c-0.205-0.205-0.156-0.324-0.153-0.564c0.006-0.391,0.021-0.223,0.008-0.613
	c-0.001-0.05,0.003-0.1,0.01-0.149c0.021-0.147,0.094-0.253,0.238-0.312c0.394-0.163,1.109-0.706,1.505-0.865
	c0.704-0.278,0.715-0.273,1.422-0.546c0.111-0.043,0.123-0.156,0.107-0.263l-0.071-4.164C4.046,12.315,4,11.475,3.95,10.634
	c-0.043-0.74-0.084-1.48-0.123-2.221C3.812,8.132,3.8,7.85,3.801,7.568c0.001-0.326-0.016-0.432,0.171-0.695
	c0.112-0.158,0.41-0.234,0.604-0.241C4.924,6.619,4.9,6.649,5.247,6.634C6,6.601,6.752,6.578,7.504,6.531
	c0.464-0.028,0.91-0.007,1.394-0.049c0.577-0.049,1.154-0.006,1.733-0.032c2.012-0.093,4.024-0.043,6.035,0.011
	c1.275,0.034,2.395-0.083,3.361-0.062c0.504,0.011,0.582,0.216,0.658,0.718c0.066,0.454,0.037,0.727,0.041,1.184
	c0.029,2.178,0.033,4.356,0.059,6.535c0.008,0.842,0.051,1.823,0.074,2.665c0.002,0.087,0.039,0.199,0.115,0.229
	c0.711,0.284,0.516,0.207,1.229,0.486c0.178,0.07,0.764,0.345,0.947,0.415c0.268,0.141,0.4,0.362,0.406,0.496L23.598,19.646z
	 M4.625,17.414c0.027,0.224,0.145,0.334,0.344,0.394c0.323,0.096,0.471,0.104,0.802,0.104c1.43-0.003,3.59-0.011,6.907-0.022
	c0-0.007,0-0.016,0-0.022c0.911-0.028,1.822-0.055,2.734-0.086c1.551-0.051,3.104-0.105,4.655-0.158
	c0.184-0.007,0.277-0.088,0.297-0.273c0.02-0.176,0.035-0.354,0.033-0.531c-0.006-0.791-0.025-1.583-0.029-2.375
	c-0.006-1.583,0.012-3.168-0.012-4.751c-0.01-0.853-0.084-1.844-0.137-2.695c-0.002-0.043-0.055-0.1-0.098-0.119
	c-0.076-0.033-0.164-0.049-0.246-0.059c-0.578-0.068-1.148,0.016-1.768-0.005c-0.828-0.028-1.496,0.002-2.259-0.005
	c-1.092-0.01-2.186-0.07-3.278-0.035c-0.969,0.031-1.937,0.043-2.905,0.088C8.766,6.904,7.866,6.886,6.968,6.942
	C6.151,6.993,5.429,6.933,4.614,6.999C4.449,7.012,4.339,7.105,4.322,7.263C4.288,7.587,4.25,7.915,4.258,8.241
	c0.045,1.799,0.196,3.691,0.249,5.49L4.625,17.414z M11.403,20.418c0.548-0.022,1.162-0.048,1.775-0.072
	c1.427-0.06,2.854-0.124,4.282-0.179c1.146-0.045,2.293-0.083,3.439-0.122c0.076-0.003,0.102-0.033,0.104-0.104
	c0.002-0.196,0.006-0.394,0.018-0.592c0.004-0.088-0.021-0.112-0.109-0.109c-1.691,0.034-3.383,0.056-5.074,0.106
	c-1.354,0.041-2.708,0.126-4.063,0.179c-2.15,0.086-4.301,0.074-6.452-0.019c-0.81-0.036-1.62-0.083-2.429-0.133
	c-0.39-0.024-0.778-0.062-1.165-0.108c-0.348-0.043-0.422-0.016-0.488,0.324c-0.039,0.197-0.044,0.405-0.032,0.607
	c0.009,0.152,0.088,0.202,0.24,0.21c1.088,0.046,2.176,0.1,3.264,0.135C6.923,20.61,9.131,20.559,11.403,20.418z M20.486,18.001
	c-0.066-0.04-0.369-0.004-0.453-0.004c-0.156-0.003-0.314,0.012-0.473,0.017c-1.785,0.045-3.57,0.092-5.353,0.133
	c-1.456,0.034-2.912,0.064-4.368,0.091c-1.428,0.024-2.857,0.088-4.285-0.019c-0.439-0.033-0.87-0.121-1.272-0.317
	c-0.051-0.023-0.134-0.013-0.191,0.011c-0.204,0.081-0.405,0.168-0.603,0.262c-0.417,0.199-0.832,0.401-1.245,0.607
	c-0.071,0.034-0.131,0.094-0.216,0.156c0.065,0.037,0.1,0.068,0.138,0.074c0.182,0.032,0.364,0.076,0.548,0.084
	c1.022,0.035,2.045,0.073,3.069,0.09c2.174,0.033,4.349,0.014,6.523-0.064c0.787-0.028,1.575-0.051,2.362-0.078
	c1.428-0.049,2.856-0.112,4.286-0.146c1.135-0.026,2.27-0.019,3.406-0.025c0.16-0.001,0.32,0,0.48,0
	c0.004-0.013,0.006-0.025,0.008-0.038c-0.033-0.018-0.064-0.039-0.1-0.053c-0.27-0.104-0.539-0.209-0.811-0.309L20.486,18.001z
	 M21.828,19.653c0,0-0.002,0-0.004,0c0-0.058,0.002-0.116,0-0.174c-0.002-0.033-0.012-0.067-0.016-0.103
	c-0.014-0.08-0.178-0.154-0.277-0.154c-0.16,0.002-0.281,0.084-0.283,0.196c-0.004,0.165,0,0.33,0.01,0.495
	c0.002,0.04,0.039,0.104,0.072,0.111c0.102,0.023,0.346,0.026,0.451,0.032c0.004,0.002,0.018-0.038,0.02-0.059
	C21.812,19.883,21.82,19.768,21.828,19.653z M22.402,19.711c0.006,0,0.01,0,0.014,0c0-0.1,0.01-0.201-0.004-0.299
	c-0.006-0.043-0.061-0.08-0.092-0.119c-0.033,0.038-0.088,0.074-0.094,0.115c-0.027,0.197-0.041,0.398-0.059,0.598
	c-0.008,0.072,0.037,0.097,0.1,0.093c0.09-0.006,0.131-0.062,0.135-0.145C22.404,19.873,22.402,19.792,22.402,19.711z"/>
<path fill-rule="evenodd" clip-rule="evenodd" fill="#48689A" d="M12.765,17.166c-1.338,0.041-2.676,0.041-4.015,0.07
	c-0.871,0.02-1.743-0.03-2.615-0.035c-0.308-0.002-0.46,0.016-0.711-0.181c-0.146-0.114-0.221-0.207-0.223-0.4
	c-0.019-1.592-0.038-3.185-0.07-4.776c-0.021-1.045-0.071-2.09-0.097-3.135C5.027,8.409,5.036,8.202,5.07,7.905
	C5.109,7.573,5.183,7.399,5.512,7.41c0.467,0.016,0.934,0.055,1.4,0.069c1.077,0.033,2.154,0.079,3.23,0.08
	c1.382,0.001,2.765-0.031,4.147-0.06c1.24-0.025,2.478-0.114,3.718-0.144c0.34-0.008,0.682-0.016,1.012,0.09
	c0.43,0.137,0.377,0.322,0.4,0.713c0.051,0.77,0.18,1.589,0.195,2.361c0.033,1.557,0.145,3.113,0.17,4.67
	c0.006,0.349-0.01,0.696-0.008,1.045c0,0.215,0.033,0.292-0.012,0.503c-0.041,0.2-0.121,0.279-0.326,0.272
	c-0.59-0.016-1.18,0.057-1.77,0.041c-1.268-0.033-2.535-0.023-3.802,0.046c-0.368,0.021-0.736,0.037-1.103,0.057
	C12.765,17.158,12.765,17.162,12.765,17.166z M19.262,16.743c0.164,0.008,0.146-0.356,0.146-0.518c-0.002-0.34,0-0.682-0.008-1.022
	c-0.031-1.561-0.061-3.121-0.102-4.682c-0.018-0.688-0.096-1.417-0.107-2.11c-0.012-0.75-0.094-0.733-0.619-0.72
	c-0.555,0.013-1.348,0.022-1.9,0.033c-2.132,0.042-4.264,0.092-6.395,0.122C9.042,7.863,7.806,7.834,6.571,7.751
	C6.252,7.73,5.931,7.74,5.609,7.735C5.518,7.734,5.455,7.78,5.441,7.87C5.41,8.081,5.36,8.292,5.363,8.503
	c0.011,0.887,0.04,1.774,0.06,2.662c0.041,1.747,0.082,3.588,0.119,5.335c0.007,0.307,0.026,0.298,0.178,0.388
	c0.161,0.095,0.382,0.047,0.566,0.053c0.737,0.025,1.473,0.049,2.21,0.069 M16.23,16.817c0.451-0.019,0.736-0.036,1.027-0.101
	c0.047-0.005,0.078-0.079,0.105-0.131c0.035-0.073,0.064-0.158,0.096-0.235c0.178-0.446,0.357-0.893,0.545-1.337
	c0.219-0.524,0.445-1.045,0.672-1.566c0.033-0.076,0.078-0.168,0.195-0.116c0.111,0.049,0.148,0.135,0.098,0.25
	c-0.188,0.409-0.375,0.818-0.568,1.223c-0.283,0.591-0.576,1.178-0.861,1.768c-0.092,0.19,0.064,0.208,0.277,0.208 M19.012,9.706
	c0,0.036,0.002,0.073-0.006,0.106"/>
<path fill-rule="evenodd" clip-rule="evenodd" fill="#48689A" d="M5.746,8.644c0.007-0.127,0.012-0.254,0.022-0.38
	C5.773,8.201,5.824,8.156,5.9,8.142c0.055-0.01,0.111-0.02,0.167-0.017C6.2,8.132,6.332,8.145,6.464,8.16
	c0.023,0.002,0.059,0.026,0.062,0.045c0.007,0.037-0.001,0.077-0.011,0.114C6.512,8.328,6.481,8.335,6.463,8.334
	C6.365,8.33,6.266,8.322,6.167,8.318C6.126,8.317,6.084,8.317,6.043,8.32c-0.057,0.004-0.072,0.021-0.07,0.079
	c0.003,0.181,0.008,0.824,0.01,1.004c0,0.075-0.015,0.088-0.088,0.09c-0.018,0-0.036,0-0.053,0c-0.063,0-0.085-0.019-0.086-0.083
	c-0.002-0.101,0-0.665,0-0.765C5.751,8.645,5.749,8.644,5.746,8.644z"/>
<path fill-rule="evenodd" clip-rule="evenodd" fill="#48689A" d="M18.312,16.317c0.064-0.176,0.117-0.336,0.184-0.49
	c0.109-0.25,0.221-0.497,0.346-0.738c0.033-0.066,0.035-0.126,0.105-0.148c0.059-0.019,0.084-0.049,0.127-0.007
	c0.037,0.036,0.037,0.133,0.021,0.194c-0.029,0.114-0.08,0.223-0.125,0.332c-0.109,0.253-0.219,0.505-0.332,0.757
	c-0.025,0.061-0.068,0.115-0.109,0.168c-0.055,0.07-0.127,0.147-0.219,0.091C18.248,16.437,18.365,16.396,18.312,16.317z"/>
<path fill="#48689A" d="M29.049,17.265c-0.037-0.014-0.074-0.025-0.115-0.04c0.008-0.012,0.014-0.02,0.018-0.026
	c0.041-0.067,0.062-0.141,0.053-0.22c-0.021-0.159-0.16-0.257-0.326-0.23c-0.123,0.02-0.23,0.079-0.328,0.155
	c-0.012,0.01-0.037,0.015-0.049,0.009c-0.051-0.027-0.096-0.059-0.146-0.091c0.002-0.01,0.004-0.015,0.006-0.019
	c0.008-0.01,0.018-0.021,0.025-0.031c0.064-0.082,0.109-0.172,0.107-0.278c-0.004-0.172-0.189-0.379-0.434-0.309
	c-0.131,0.038-0.234,0.118-0.326,0.214c-0.02,0.021-0.033,0.026-0.061,0.012c-0.055-0.03-0.111-0.053-0.164-0.084
	c-0.012-0.009-0.021-0.034-0.02-0.051c0.002-0.03,0.014-0.061,0.018-0.092c0.033-0.218-0.166-0.417-0.383-0.386
	c-0.123,0.016-0.217,0.077-0.295,0.165c-0.018,0.021-0.033,0.027-0.061,0.015c-0.047-0.022-0.094-0.041-0.141-0.062
	c-0.027-0.011-0.027-0.024-0.016-0.051c0.018-0.04,0.031-0.083,0.031-0.125c-0.004-0.149-0.086-0.258-0.193-0.349
	c-0.057-0.047-0.123-0.071-0.197-0.076c-0.15-0.01-0.279,0.038-0.387,0.138c-0.053,0.051-0.096,0.071-0.156,0.025
	c-0.002,0-0.004,0-0.006-0.002c-0.031-0.009-0.035-0.021-0.018-0.054c0.027-0.046,0.055-0.098,0.057-0.147
	c0.014-0.273-0.258-0.493-0.523-0.429c-0.152,0.037-0.262,0.131-0.346,0.259c-0.021,0.032-0.041,0.043-0.076,0.03
	c-0.039-0.014-0.078-0.023-0.119-0.03c-0.154-0.024-0.299,0.004-0.418,0.109c-0.088,0.079-0.168,0.168-0.244,0.262
	c-0.129,0.165-0.25,0.341-0.383,0.507c-0.236,0.301-0.479,0.595-0.715,0.895c-0.316,0.405-0.627,0.813-0.941,1.221
	c-0.262,0.34-0.525,0.676-0.783,1.019c-0.189,0.251-0.369,0.508-0.549,0.765c-0.111,0.16-0.219,0.325-0.322,0.493
	c-0.051,0.083-0.088,0.183-0.059,0.278c0.01,0.028,0.014,0.056,0.016,0.081c0.014,0.045,0.023,0.097,0.023,0.152
	c0.002,0.078,0.008,0.17,0.039,0.245c0,0.001,0,0.003,0,0.003c0.008,0.016,0.018,0.022,0.02,0.024
	c0.051,0.026,0.082,0.042,0.135,0.063c0.312,0.123,0.625,0.248,0.943,0.36c0.197,0.069,0.404,0.111,0.604,0.173
	c0.197,0.06,0.393,0.125,0.588,0.191c0.205,0.067,0.406,0.139,0.609,0.204c0.281,0.093,0.564,0.18,0.848,0.271
	c0.225,0.072,0.445,0.149,0.67,0.219c0.264,0.081,0.531,0.106,0.801,0.032c0.203-0.056,0.371-0.173,0.512-0.326
	c0.158-0.172,0.305-0.355,0.451-0.537c0.252-0.311,0.502-0.625,0.754-0.935c0.391-0.481,0.777-0.965,1.133-1.474
	c0.113-0.164,0.23-0.327,0.346-0.49c0.053-0.074,0.102-0.152,0.162-0.221c0.057-0.065,0.092-0.146,0.15-0.21l0,0
	c0.039-0.054,0.078-0.106,0.109-0.165c0.068-0.134,0.061-0.237-0.072-0.333c-0.016-0.011-0.029-0.024-0.039-0.032
	c0.088-0.176,0.174-0.344,0.258-0.515C29.166,17.344,29.145,17.298,29.049,17.265z M28.549,17.018
	c0.051-0.025,0.1-0.055,0.154-0.069c0.066-0.019,0.105,0.022,0.092,0.093c-0.002,0.012-0.006,0.021-0.008,0.03l0,0
	c-0.002,0.008-0.004,0.015-0.006,0.022c-0.018,0.056-0.025,0.062-0.078,0.037c-0.053-0.022-0.104-0.049-0.152-0.075
	C28.525,17.044,28.527,17.027,28.549,17.018z M28.24,17.603c-0.008,0.015-0.018,0.029-0.029,0.04
	c-0.08,0.067-0.24,0.072-0.287-0.075c-0.02-0.057,0.012-0.106,0.07-0.122c0.018-0.004,0.035-0.012,0.061-0.02
	c0.018,0.094,0.076,0.135,0.16,0.138C28.244,17.564,28.25,17.581,28.24,17.603z M27.959,16.377c0.041-0.004,0.07,0.013,0.092,0.044
	c0.041,0.057,0.043,0.127,0.006,0.187c-0.068,0.109-0.068,0.109-0.178,0.04c-0.059-0.035-0.117-0.072-0.182-0.11
	C27.777,16.457,27.85,16.389,27.959,16.377z M26.959,16.003c0.078-0.021,0.139,0.051,0.135,0.146
	c-0.002,0.056-0.014,0.062-0.062,0.038c-0.072-0.032-0.145-0.064-0.215-0.098c-0.002-0.006-0.002-0.014-0.004-0.02
	C26.861,16.047,26.908,16.016,26.959,16.003z M25.848,15.577c0.127-0.088,0.297-0.053,0.375,0.079
	c0.014,0.024,0.018,0.052,0.023,0.066c-0.018,0.074-0.051,0.087-0.104,0.06c-0.096-0.047-0.193-0.094-0.291-0.141
	c-0.014-0.007-0.023-0.02-0.035-0.029C25.826,15.6,25.834,15.585,25.848,15.577z M25.627,16.328c0.031,0.037,0.029,0.078-0.01,0.108
	c-0.082,0.062-0.178,0.081-0.277,0.072c-0.047-0.004-0.07-0.038-0.078-0.082c-0.014-0.095,0.047-0.175,0.148-0.194
	C25.479,16.358,25.523,16.378,25.627,16.328z M25.076,15.024c0.1-0.009,0.232,0.08,0.266,0.173c0.023,0.064-0.031,0.16-0.094,0.162
	c-0.029,0-0.059-0.016-0.086-0.027c-0.104-0.038-0.205-0.077-0.311-0.116c-0.004-0.002-0.01-0.006-0.02-0.015
	C24.9,15.12,24.961,15.035,25.076,15.024z M24.709,16.013c0.037,0.006,0.047,0.023,0.023,0.054c-0.039,0.057-0.1,0.06-0.16,0.061
	c-0.021,0-0.045-0.006-0.057-0.008c-0.057-0.015-0.1-0.033-0.125-0.078c-0.035-0.064-0.014-0.128,0.055-0.154
	c0.01-0.003,0.031,0.001,0.037,0.009C24.541,15.967,24.621,15.999,24.709,16.013z M28.801,18.285
	c-0.051,0.072-0.109,0.141-0.162,0.213c-0.162,0.229-0.322,0.463-0.49,0.689c-0.275,0.375-0.549,0.752-0.834,1.12
	c-0.309,0.396-0.631,0.782-0.947,1.175c-0.152,0.19-0.299,0.387-0.457,0.574c-0.127,0.156-0.277,0.287-0.451,0.392
	c-0.176,0.105-0.365,0.13-0.566,0.107c-0.25-0.024-0.479-0.127-0.713-0.211c-0.203-0.073-0.41-0.135-0.619-0.196
	c-0.258-0.078-0.518-0.149-0.775-0.229c-0.166-0.051-0.328-0.111-0.492-0.167c-0.252-0.081-0.502-0.164-0.754-0.242
	c-0.234-0.073-0.465-0.153-0.691-0.247c-0.168-0.07-0.342-0.131-0.512-0.192c-0.08-0.029-0.127-0.105-0.109-0.203
	c0.033,0.018,0.062,0.038,0.094,0.048c0.115,0.043,0.23,0.087,0.346,0.124c0.412,0.125,0.826,0.247,1.24,0.371
	c0.268,0.082,0.537,0.164,0.807,0.249c0.279,0.087,0.559,0.177,0.838,0.267c0.287,0.093,0.576,0.188,0.861,0.281
	c0.123,0.041,0.244,0.085,0.365,0.126c0.104,0.035,0.209,0.068,0.32,0.061c0.131-0.011,0.232-0.081,0.324-0.169
	c0.133-0.127,0.238-0.278,0.34-0.431c0.119-0.176,0.264-0.329,0.402-0.487c0.506-0.579,1.01-1.16,1.516-1.739
	c0.27-0.311,0.525-0.631,0.76-0.968c0.111-0.157,0.211-0.318,0.316-0.479c0.004-0.005,0.01-0.012,0.012-0.017
	C28.85,18.136,28.84,18.229,28.801,18.285z M28.893,17.472c-0.301,0.616-0.693,1.172-1.135,1.69
	c-0.43,0.504-0.873,0.994-1.309,1.493c-0.295,0.34-0.586,0.684-0.873,1.027c-0.084,0.102-0.148,0.22-0.227,0.327
	c-0.074,0.101-0.166,0.181-0.299,0.186c-0.051,0.003-0.105-0.006-0.154-0.022c-0.369-0.119-0.738-0.242-1.109-0.361
	c-0.441-0.143-0.883-0.284-1.326-0.421c-0.641-0.197-1.283-0.39-1.926-0.584c-0.135-0.042-0.225-0.133-0.219-0.256
	c0-0.078,0.027-0.159,0.059-0.231c0.078-0.173,0.203-0.315,0.312-0.468c0.164-0.23,0.322-0.464,0.49-0.69
	c0.197-0.267,0.4-0.527,0.602-0.791c0.344-0.447,0.684-0.897,1.027-1.344c0.238-0.309,0.484-0.611,0.723-0.921
	c0.107-0.142,0.207-0.292,0.311-0.438c0.047-0.067,0.096-0.129,0.168-0.175c0.072-0.047,0.135-0.104,0.199-0.16
	c0.062-0.056,0.137-0.067,0.213-0.058c0.043,0.005,0.098,0.005,0.125,0.031c0.035,0.034-0.018,0.075-0.027,0.114
	c-0.02,0.081-0.043,0.159-0.07,0.236c-0.006,0.023-0.033,0.044-0.057,0.057c-0.082,0.045-0.141,0.107-0.168,0.2
	c-0.035,0.126,0.002,0.241,0.113,0.312c0.135,0.086,0.283,0.097,0.43,0.033c0.143-0.063,0.189-0.185,0.133-0.334
	c-0.045-0.115-0.121-0.203-0.236-0.253c-0.023-0.01-0.027-0.024-0.02-0.045c0.027-0.077,0.057-0.155,0.086-0.23
	c0.006-0.011,0.033-0.021,0.047-0.017c0.057,0.019,0.111,0.042,0.166,0.065c0.162,0.066,0.324,0.134,0.484,0.201
	c0.055,0.022,0.059,0.029,0.031,0.078c-0.051,0.092-0.066,0.191-0.068,0.293c0,0.033-0.012,0.044-0.039,0.054
	c-0.076,0.024-0.139,0.065-0.189,0.131c-0.111,0.15-0.09,0.34,0.061,0.436c0.061,0.039,0.133,0.051,0.205,0.045
	c0.104-0.008,0.197-0.037,0.281-0.1c0.143-0.11,0.156-0.283,0.029-0.412c-0.033-0.033-0.078-0.056-0.115-0.085
	c-0.012-0.009-0.021-0.025-0.021-0.037c-0.002-0.09,0.02-0.175,0.062-0.254c0.01-0.022,0.023-0.027,0.045-0.017
	c0.164,0.081,0.324,0.16,0.488,0.239c0.072,0.035,0.146,0.069,0.219,0.104c0.021,0.011,0.041,0.022,0.059,0.032
	c-0.043,0.085-0.086,0.161-0.119,0.24c-0.016,0.03-0.033,0.041-0.064,0.046c-0.188,0.029-0.309,0.213-0.262,0.397
	c0.025,0.098,0.092,0.158,0.176,0.205c0.135,0.075,0.346,0.053,0.459-0.05c0.094-0.084,0.117-0.207,0.047-0.326
	c-0.033-0.059-0.084-0.107-0.131-0.155c-0.023-0.024-0.035-0.041-0.018-0.072c0.035-0.054,0.064-0.108,0.096-0.163
	c0.014-0.027,0.033-0.03,0.062-0.016c0.154,0.077,0.312,0.149,0.469,0.225c0.055,0.026,0.105,0.056,0.158,0.081
	c0.025,0.014,0.027,0.029,0.016,0.056c-0.037,0.076-0.07,0.154-0.107,0.23c-0.01,0.018-0.027,0.035-0.047,0.042
	c-0.111,0.038-0.186,0.111-0.213,0.228c-0.031,0.141,0.016,0.274,0.137,0.342c0.166,0.093,0.42,0.059,0.525-0.131
	c0.059-0.105,0.014-0.252-0.096-0.321c-0.018-0.011-0.031-0.025-0.051-0.029c-0.049-0.012-0.053-0.044-0.039-0.081
	c0.021-0.06,0.047-0.119,0.072-0.178c0.012-0.025,0.029-0.032,0.057-0.015c0.184,0.115,0.365,0.229,0.549,0.343
	c0.027,0.017,0.035,0.032,0.014,0.063c-0.029,0.036-0.053,0.076-0.072,0.119c-0.014,0.03-0.035,0.044-0.064,0.042
	c-0.127-0.011-0.246,0.122-0.262,0.234c-0.016,0.12,0.053,0.245,0.166,0.3c0.08,0.038,0.16,0.045,0.246,0.027
	c0.109-0.023,0.191-0.083,0.219-0.193c0.025-0.114-0.014-0.215-0.1-0.291c-0.031-0.025-0.031-0.044-0.01-0.07
	c0.002-0.002,0.004-0.004,0.004-0.007c0.07-0.102,0.072-0.098,0.182-0.043c0.129,0.064,0.264,0.119,0.398,0.174
	C28.906,17.42,28.914,17.431,28.893,17.472z M26.561,16.729c0.035,0.054,0.027,0.11-0.02,0.15c-0.039,0.036-0.086,0.05-0.137,0.045
	c-0.111-0.007-0.178-0.035-0.215-0.116c-0.035-0.081,0.002-0.178,0.08-0.205c0.027-0.011,0.045-0.006,0.053,0.029
	c0.014,0.055,0.049,0.094,0.1,0.119C26.475,16.776,26.52,16.769,26.561,16.729z M27.461,17.254c0.02,0,0.039-0.032,0.068-0.045
	c-0.01,0.023-0.016,0.051-0.031,0.069c-0.062,0.072-0.197,0.095-0.281,0.05c-0.047-0.024-0.08-0.092-0.074-0.152
	c0.01-0.071,0.033-0.104,0.102-0.123c0.02,0.071,0.059,0.131,0.121,0.17C27.395,17.24,27.43,17.254,27.461,17.254z"/>
<path fill-rule="evenodd" clip-rule="evenodd" fill="#FFFFFF" d="M26.473,16.151c-0.043,0.085-0.086,0.161-0.119,0.24
	c-0.016,0.03-0.033,0.041-0.064,0.046c-0.188,0.029-0.309,0.213-0.262,0.397c0.025,0.098,0.092,0.158,0.176,0.205
	c0.135,0.075,0.346,0.053,0.459-0.05c0.094-0.084,0.117-0.207,0.047-0.326c-0.033-0.059-0.084-0.107-0.131-0.155
	c-0.023-0.024-0.035-0.041-0.018-0.072c0.035-0.054,0.064-0.108,0.096-0.163c0.014-0.027,0.033-0.03,0.062-0.016
	c0.154,0.077,0.312,0.149,0.469,0.225c0.055,0.026,0.105,0.056,0.158,0.081c0.025,0.014,0.027,0.029,0.016,0.056
	c-0.037,0.076-0.07,0.154-0.107,0.23c-0.01,0.018-0.027,0.035-0.047,0.042c-0.111,0.038-0.186,0.111-0.213,0.228
	c-0.031,0.141,0.016,0.274,0.137,0.342c0.166,0.093,0.42,0.059,0.525-0.131c0.059-0.105,0.014-0.252-0.096-0.321
	c-0.018-0.011-0.031-0.025-0.051-0.029c-0.049-0.012-0.053-0.044-0.039-0.081c0.021-0.06,0.047-0.119,0.072-0.178
	c0.012-0.025,0.029-0.032,0.057-0.015c0.184,0.115,0.365,0.229,0.549,0.343c0.027,0.017,0.035,0.032,0.014,0.063
	c-0.029,0.036-0.053,0.076-0.072,0.119c-0.014,0.03-0.035,0.044-0.064,0.042c-0.127-0.011-0.246,0.122-0.262,0.234
	c-0.016,0.12,0.053,0.245,0.166,0.3c0.08,0.038,0.16,0.045,0.246,0.027c0.109-0.023,0.191-0.083,0.219-0.193
	c0.025-0.114-0.014-0.215-0.1-0.291c-0.031-0.025-0.031-0.044-0.01-0.07c0.002-0.002,0.004-0.004,0.004-0.007
	c0.07-0.102,0.072-0.098,0.182-0.043c0.129,0.064,0.264,0.119,0.398,0.174c0.037,0.016,0.045,0.026,0.023,0.067
	c-0.301,0.616-0.693,1.172-1.135,1.69c-0.43,0.504-0.873,0.994-1.309,1.493c-0.295,0.34-0.586,0.684-0.873,1.027
	c-0.084,0.102-0.148,0.22-0.227,0.327c-0.074,0.101-0.166,0.181-0.299,0.186c-0.051,0.003-0.105-0.006-0.154-0.022
	c-0.369-0.119-0.738-0.242-1.109-0.361c-0.441-0.143-0.883-0.284-1.326-0.421c-0.641-0.197-1.283-0.39-1.926-0.584
	c-0.135-0.042-0.225-0.133-0.219-0.256c0-0.078,0.027-0.159,0.059-0.231c0.078-0.173,0.203-0.315,0.312-0.468
	c0.164-0.23,0.322-0.464,0.49-0.69c0.197-0.267,0.4-0.527,0.602-0.791c0.344-0.447,0.684-0.897,1.027-1.344
	c0.238-0.309,0.484-0.611,0.723-0.921c0.107-0.142,0.207-0.292,0.311-0.438c0.047-0.067,0.096-0.129,0.168-0.175
	c0.072-0.047,0.135-0.104,0.199-0.16c0.062-0.056,0.137-0.067,0.213-0.058c0.043,0.005,0.098,0.005,0.125,0.031
	c0.035,0.034-0.018,0.075-0.027,0.114c-0.02,0.081-0.043,0.159-0.07,0.236c-0.006,0.023-0.033,0.044-0.057,0.057
	c-0.082,0.045-0.141,0.107-0.168,0.2c-0.035,0.126,0.002,0.241,0.113,0.312c0.135,0.086,0.283,0.097,0.43,0.033
	c0.143-0.063,0.189-0.185,0.133-0.334c-0.045-0.115-0.121-0.203-0.236-0.253c-0.023-0.01-0.027-0.024-0.02-0.045
	c0.027-0.077,0.057-0.155,0.086-0.23c0.006-0.011,0.033-0.021,0.047-0.017c0.057,0.019,0.111,0.042,0.166,0.065
	c0.162,0.066,0.324,0.134,0.484,0.201c0.055,0.022,0.059,0.029,0.031,0.078c-0.051,0.092-0.066,0.191-0.068,0.293
	c0,0.033-0.012,0.044-0.039,0.054c-0.076,0.024-0.139,0.065-0.189,0.131c-0.111,0.15-0.09,0.34,0.061,0.436
	c0.061,0.039,0.133,0.051,0.205,0.045c0.104-0.008,0.197-0.037,0.281-0.1c0.143-0.11,0.156-0.283,0.029-0.412
	c-0.033-0.033-0.078-0.056-0.115-0.085c-0.012-0.009-0.021-0.025-0.021-0.037c-0.002-0.09,0.02-0.175,0.062-0.254
	c0.01-0.022,0.023-0.027,0.045-0.017c0.164,0.081,0.324,0.16,0.488,0.239c0.072,0.035,0.146,0.069,0.219,0.104
	C26.436,16.13,26.455,16.142,26.473,16.151z M26.328,19.075c0.002-0.002,0.002-0.003,0.002-0.005
	c0.062,0.017,0.125,0.033,0.186,0.048c0.074,0.017,0.131-0.027,0.135-0.1c0.002-0.055-0.027-0.089-0.092-0.109
	c-0.127-0.038-0.258-0.072-0.383-0.117c-0.229-0.083-0.459-0.168-0.684-0.261c-0.184-0.075-0.365-0.157-0.543-0.243
	c-0.18-0.086-0.355-0.178-0.535-0.267c-0.105-0.054-0.211-0.109-0.32-0.158c-0.16-0.072-0.322-0.14-0.48-0.209
	c-0.068-0.03-0.143,0.011-0.133,0.083c0.004,0.031,0.033,0.07,0.061,0.087c0.096,0.056,0.195,0.104,0.295,0.152
	c0.184,0.089,0.369,0.174,0.553,0.264c0.164,0.079,0.322,0.168,0.484,0.243c0.252,0.115,0.504,0.227,0.758,0.33
	C25.861,18.907,26.096,18.987,26.328,19.075z M25.895,19.643c0.082,0.022,0.137-0.018,0.145-0.087
	c0.004-0.059-0.029-0.091-0.072-0.119c-0.096-0.062-0.201-0.093-0.309-0.118c-0.4-0.093-0.785-0.24-1.164-0.396
	c-0.217-0.089-0.428-0.197-0.645-0.292c-0.219-0.097-0.439-0.189-0.658-0.282c-0.057-0.023-0.098-0.01-0.119,0.035
	c-0.025,0.051-0.01,0.104,0.041,0.131c0.141,0.073,0.279,0.15,0.422,0.218c0.221,0.105,0.441,0.213,0.668,0.307
	c0.219,0.093,0.439,0.18,0.666,0.254c0.303,0.099,0.617,0.168,0.912,0.298C25.822,19.609,25.865,19.629,25.895,19.643z
	 M26.629,18.374c0-0.005,0.002-0.008,0.004-0.013c0.062,0.017,0.123,0.034,0.188,0.048c0.051,0.012,0.102-0.021,0.119-0.072
	c0.018-0.062-0.012-0.104-0.084-0.122c-0.281-0.065-0.549-0.168-0.814-0.275c-0.139-0.056-0.279-0.113-0.418-0.166
	c-0.164-0.063-0.33-0.123-0.494-0.188c-0.256-0.101-0.504-0.212-0.76-0.308c-0.139-0.052-0.285-0.082-0.43-0.117
	c-0.053-0.014-0.092,0.011-0.102,0.049c-0.01,0.039,0.016,0.079,0.062,0.098c0.059,0.021,0.115,0.042,0.172,0.063
	c0.189,0.075,0.379,0.15,0.568,0.227c0.191,0.077,0.381,0.156,0.572,0.232c0.285,0.113,0.57,0.228,0.855,0.337
	C26.254,18.238,26.443,18.305,26.629,18.374z M24.697,21.232c0.094,0.024,0.166,0.044,0.24,0.062
	c0.076,0.019,0.123-0.015,0.137-0.093c0.01-0.061-0.021-0.104-0.09-0.122c-0.301-0.08-0.607-0.153-0.893-0.281
	c-0.039-0.02-0.092,0.003-0.115,0.043c-0.025,0.041-0.025,0.081,0.016,0.111c0.049,0.035,0.098,0.071,0.154,0.091
	C24.336,21.111,24.527,21.175,24.697,21.232z M24.436,21.335c-0.156-0.025-0.316-0.051-0.473-0.075
	c-0.043-0.006-0.074,0.013-0.084,0.05c-0.012,0.039,0.004,0.07,0.047,0.087c0.094,0.035,0.186,0.07,0.279,0.101
	c0.193,0.063,0.395,0.101,0.578,0.189c0.037,0.019,0.086,0,0.113-0.037c0.021-0.033,0.027-0.072-0.002-0.104
	c-0.021-0.024-0.047-0.05-0.076-0.066C24.699,21.409,24.568,21.374,24.436,21.335z"/>
<path fill-rule="evenodd" clip-rule="evenodd" fill="#FFFFFF" d="M28.768,18.105c0.082,0.03,0.072,0.123,0.033,0.18
	c-0.051,0.072-0.109,0.141-0.162,0.213c-0.162,0.229-0.322,0.463-0.49,0.689c-0.275,0.375-0.549,0.752-0.834,1.12
	c-0.309,0.396-0.631,0.782-0.947,1.175c-0.152,0.19-0.299,0.387-0.457,0.574c-0.127,0.156-0.277,0.287-0.451,0.392
	c-0.176,0.105-0.365,0.13-0.566,0.107c-0.25-0.024-0.479-0.127-0.713-0.211c-0.203-0.073-0.41-0.135-0.619-0.196
	c-0.258-0.078-0.518-0.149-0.775-0.229c-0.166-0.051-0.328-0.111-0.492-0.167c-0.252-0.081-0.502-0.164-0.754-0.242
	c-0.234-0.073-0.465-0.153-0.691-0.247c-0.168-0.07-0.342-0.131-0.512-0.192c-0.08-0.029-0.127-0.105-0.109-0.203
	c0.033,0.018,0.062,0.038,0.094,0.048c0.115,0.043,0.23,0.087,0.346,0.124c0.412,0.125,0.826,0.247,1.24,0.371
	c0.268,0.082,0.537,0.164,0.807,0.249c0.279,0.087,0.559,0.177,0.838,0.267c0.287,0.093,0.576,0.188,0.861,0.281
	c0.123,0.041,0.244,0.085,0.365,0.126c0.104,0.035,0.209,0.068,0.32,0.061c0.131-0.011,0.232-0.081,0.324-0.169
	c0.133-0.127,0.238-0.278,0.34-0.431c0.119-0.176,0.264-0.329,0.402-0.487c0.506-0.579,1.01-1.16,1.516-1.739
	c0.27-0.311,0.525-0.631,0.76-0.968c0.111-0.157,0.211-0.318,0.316-0.479C28.76,18.117,28.766,18.11,28.768,18.105z"/>
<path fill-rule="evenodd" clip-rule="evenodd" fill="#FFFFFF" d="M24.832,15.202c0.068-0.082,0.129-0.167,0.244-0.178
	c0.1-0.009,0.232,0.08,0.266,0.173c0.023,0.064-0.031,0.16-0.094,0.162c-0.029,0-0.059-0.016-0.086-0.027
	c-0.104-0.038-0.205-0.077-0.311-0.116C24.848,15.215,24.842,15.21,24.832,15.202z"/>
<path fill-rule="evenodd" clip-rule="evenodd" fill="#FFFFFF" d="M26.561,16.729c0.035,0.054,0.027,0.11-0.02,0.15
	c-0.039,0.036-0.086,0.05-0.137,0.045c-0.111-0.007-0.178-0.035-0.215-0.116c-0.035-0.081,0.002-0.178,0.08-0.205
	c0.027-0.011,0.045-0.006,0.053,0.029c0.014,0.055,0.049,0.094,0.1,0.119C26.475,16.776,26.52,16.769,26.561,16.729z"/>
<path fill-rule="evenodd" clip-rule="evenodd" fill="#FFFFFF" d="M27.697,16.537c0.08-0.08,0.152-0.148,0.262-0.16
	c0.041-0.004,0.07,0.013,0.092,0.044c0.041,0.057,0.043,0.127,0.006,0.187c-0.068,0.109-0.068,0.109-0.178,0.04
	C27.82,16.612,27.762,16.575,27.697,16.537z"/>
<path fill-rule="evenodd" clip-rule="evenodd" fill="#FFFFFF" d="M25.41,16.232c0.068,0.126,0.113,0.146,0.217,0.096
	c0.031,0.037,0.029,0.078-0.01,0.108c-0.082,0.062-0.178,0.081-0.277,0.072c-0.047-0.004-0.07-0.038-0.078-0.082
	C25.248,16.332,25.309,16.252,25.41,16.232z"/>
<path fill-rule="evenodd" clip-rule="evenodd" fill="#FFFFFF" d="M26.246,15.722c-0.018,0.074-0.051,0.087-0.104,0.06
	c-0.096-0.047-0.193-0.094-0.291-0.141c-0.014-0.007-0.023-0.02-0.035-0.029c0.01-0.011,0.018-0.026,0.031-0.034
	c0.127-0.088,0.297-0.053,0.375,0.079C26.236,15.681,26.24,15.708,26.246,15.722z"/>
<path fill-rule="evenodd" clip-rule="evenodd" fill="#FFFFFF" d="M27.244,17.053c0.02,0.071,0.059,0.131,0.121,0.17
	c0.029,0.018,0.064,0.031,0.096,0.031c0.02,0,0.039-0.032,0.068-0.045c-0.01,0.023-0.016,0.051-0.031,0.069
	c-0.062,0.072-0.197,0.095-0.281,0.05c-0.047-0.024-0.08-0.092-0.074-0.152C27.152,17.104,27.176,17.072,27.244,17.053z"/>
<path fill-rule="evenodd" clip-rule="evenodd" fill="#FFFFFF" d="M24.516,16.119c-0.057-0.015-0.1-0.033-0.125-0.078
	c-0.035-0.064-0.014-0.128,0.055-0.154c0.01-0.003,0.031,0.001,0.037,0.009c0.059,0.07,0.139,0.103,0.227,0.116
	c0.037,0.006,0.047,0.023,0.023,0.054c-0.039,0.057-0.1,0.06-0.16,0.061C24.551,16.127,24.527,16.121,24.516,16.119z"/>
<path fill-rule="evenodd" clip-rule="evenodd" fill="#FFFFFF" d="M28.055,17.426c0.018,0.094,0.076,0.135,0.16,0.138
	c0.029,0.001,0.035,0.018,0.025,0.039c-0.008,0.015-0.018,0.029-0.029,0.04c-0.08,0.067-0.24,0.072-0.287-0.075
	c-0.02-0.057,0.012-0.106,0.07-0.122C28.012,17.441,28.029,17.434,28.055,17.426z"/>
<path fill-rule="evenodd" clip-rule="evenodd" fill="#FFFFFF" d="M26.812,16.07c0.049-0.023,0.096-0.055,0.146-0.067
	c0.078-0.021,0.139,0.051,0.135,0.146c-0.002,0.056-0.014,0.062-0.062,0.038c-0.072-0.032-0.145-0.064-0.215-0.098
	C26.814,16.084,26.814,16.076,26.812,16.07z"/>
<path fill-rule="evenodd" clip-rule="evenodd" fill="#00BDF2" d="M26.328,19.075c-0.232-0.088-0.467-0.168-0.697-0.262
	c-0.254-0.104-0.506-0.215-0.758-0.33c-0.162-0.075-0.32-0.164-0.484-0.243c-0.184-0.09-0.369-0.175-0.553-0.264
	c-0.1-0.048-0.199-0.097-0.295-0.152c-0.027-0.017-0.057-0.056-0.061-0.087c-0.01-0.072,0.064-0.113,0.133-0.083
	c0.158,0.069,0.32,0.137,0.48,0.209c0.109,0.049,0.215,0.104,0.32,0.158c0.18,0.089,0.355,0.181,0.535,0.267
	c0.178,0.086,0.359,0.168,0.543,0.243c0.225,0.093,0.455,0.178,0.684,0.261c0.125,0.045,0.256,0.079,0.383,0.117
	c0.064,0.021,0.094,0.055,0.092,0.109c-0.004,0.072-0.061,0.116-0.135,0.1c-0.061-0.015-0.123-0.031-0.186-0.048
	C26.33,19.072,26.33,19.073,26.328,19.075z"/>
<path fill-rule="evenodd" clip-rule="evenodd" fill="#00BDF2" d="M25.895,19.643c-0.029-0.014-0.072-0.033-0.113-0.052
	c-0.295-0.13-0.609-0.199-0.912-0.298c-0.227-0.074-0.447-0.161-0.666-0.254c-0.227-0.094-0.447-0.201-0.668-0.307
	c-0.143-0.067-0.281-0.145-0.422-0.218c-0.051-0.026-0.066-0.08-0.041-0.131c0.021-0.045,0.062-0.059,0.119-0.035
	c0.219,0.093,0.439,0.186,0.658,0.282c0.217,0.095,0.428,0.203,0.645,0.292c0.379,0.155,0.764,0.303,1.164,0.396
	c0.107,0.025,0.213,0.057,0.309,0.118c0.043,0.028,0.076,0.061,0.072,0.119C26.031,19.625,25.977,19.665,25.895,19.643z"/>
<path fill-rule="evenodd" clip-rule="evenodd" fill="#00BDF2" d="M26.629,18.374c-0.186-0.069-0.375-0.136-0.561-0.208
	c-0.285-0.109-0.57-0.224-0.855-0.337c-0.191-0.076-0.381-0.155-0.572-0.232c-0.189-0.076-0.379-0.151-0.568-0.227
	c-0.057-0.021-0.113-0.042-0.172-0.063c-0.047-0.019-0.072-0.059-0.062-0.098c0.01-0.038,0.049-0.062,0.102-0.049
	c0.145,0.035,0.291,0.065,0.43,0.117c0.256,0.096,0.504,0.207,0.76,0.308c0.164,0.065,0.33,0.125,0.494,0.188
	c0.139,0.053,0.279,0.11,0.418,0.166c0.266,0.107,0.533,0.21,0.814,0.275c0.072,0.018,0.102,0.06,0.084,0.122
	c-0.018,0.052-0.068,0.084-0.119,0.072c-0.064-0.014-0.125-0.031-0.188-0.048C26.631,18.366,26.629,18.369,26.629,18.374z"/>
<path fill-rule="evenodd" clip-rule="evenodd" fill="#00BDF2" d="M24.697,21.232c-0.17-0.058-0.361-0.121-0.551-0.189
	c-0.057-0.02-0.105-0.056-0.154-0.091c-0.041-0.03-0.041-0.07-0.016-0.111c0.023-0.04,0.076-0.062,0.115-0.043
	c0.285,0.128,0.592,0.201,0.893,0.281c0.068,0.018,0.1,0.062,0.09,0.122c-0.014,0.078-0.061,0.111-0.137,0.093
	C24.863,21.276,24.791,21.257,24.697,21.232z"/>
<path fill-rule="evenodd" clip-rule="evenodd" fill="#00BDF2" d="M24.436,21.335c0.133,0.039,0.264,0.074,0.383,0.145
	c0.029,0.017,0.055,0.042,0.076,0.066c0.029,0.031,0.023,0.07,0.002,0.104c-0.027,0.037-0.076,0.056-0.113,0.037
	c-0.184-0.089-0.385-0.126-0.578-0.189c-0.094-0.03-0.186-0.065-0.279-0.101c-0.043-0.017-0.059-0.048-0.047-0.087
	c0.01-0.037,0.041-0.056,0.084-0.05C24.119,21.284,24.279,21.31,24.436,21.335z"/>
</svg>
