<?xml version="1.0" encoding="utf-8"?>
<!-- Generator: Adobe Illustrator 16.0.0, SVG Export Plug-In . SVG Version: 6.00 Build 0)  -->
<!DOCTYPE svg PUBLIC "-//W3C//DTD SVG 1.1//EN" "http://www.w3.org/Graphics/SVG/1.1/DTD/svg11.dtd">
<svg version="1.1" id="Layer_1" xmlns="http://www.w3.org/2000/svg" xmlns:xlink="http://www.w3.org/1999/xlink" x="0px" y="0px"
	 width="30px" height="30px" viewBox="0 0 30 30" enable-background="new 0 0 30 30" xml:space="preserve">
<ellipse opacity="0.4" fill="#B5D5DF" cx="15" cy="15" rx="14.019" ry="14.184"/>
<g>
	<path fill="#48689A" d="M19.2,19.078c0.025,0.82,0.053,1.642,0.078,2.462c0.002,0.127-0.006,0.254-0.007,0.381
		c-0.004,0.104-0.062,0.159-0.16,0.172c-0.171,0.022-0.337-0.017-0.348-0.261c-0.022-0.467-0.061-0.934-0.082-1.4
		c-0.025-0.601-0.041-1.201-0.062-1.803c-0.001-0.073,0.003-0.147-0.003-0.219c-0.005-0.07,0.027-0.097,0.091-0.109
		c0.127-0.023,0.249,0,0.355,0.064c0.041,0.023,0.076,0.084,0.083,0.133c0.029,0.191,0.045,0.385,0.065,0.578
		C19.212,19.076,19.205,19.077,19.2,19.078z"/>
	<path fill="#48689A" d="M12.962,7.126c0.1,0.006,0.15,0.053,0.18,0.121c0.031,0.074,0.016,0.147-0.031,0.211
		c-0.021,0.033-0.053,0.059-0.085,0.083c-0.425,0.314-0.701,0.731-0.786,1.272C12.193,9.1,12.163,9.39,12.126,9.679
		c-0.019,0.143-0.096,0.245-0.206,0.274c-0.184,0.05-0.31-0.03-0.353-0.238c-0.204-0.972,0.159-1.904,0.991-2.438
		C12.689,7.194,12.829,7.131,12.962,7.126z"/>
	<path fill="#48689A" d="M12.986,7.09c0.096,0.007,0.145,0.053,0.174,0.122c0.03,0.074,0.015,0.149-0.03,0.213
		c-0.021,0.032-0.052,0.06-0.081,0.084c-0.413,0.317-0.68,0.738-0.762,1.283c-0.044,0.29-0.072,0.582-0.109,0.874
		c-0.017,0.144-0.092,0.248-0.199,0.277c-0.178,0.05-0.3-0.031-0.342-0.241c-0.197-0.981,0.155-1.921,0.961-2.46
		C12.723,7.158,12.858,7.096,12.986,7.09z"/>
	<path fill="#48689A" d="M11.541,17.125c0.077-0.041,0.158-0.08,0.241-0.098c0.06-0.014,0.093-0.113,0.089-0.266
		c-0.002-0.066-0.039-0.107-0.066-0.156c-0.027-0.025-0.056-0.052-0.088-0.06c-0.022-0.003-0.048,0.005-0.066,0.011
		c-0.016,0.004-0.033,0.006-0.047,0.014c-0.006,0.002-0.014,0.007-0.021,0.008c-0.011,0.007-0.021,0.004-0.032,0.008
		c-0.006,0.004-0.01,0.006-0.017,0.006c-0.011,0.004-0.021,0.008-0.032,0.01c-0.077,0.023-0.15,0.057-0.223,0.09
		c-0.105,0.049-0.207,0.104-0.308,0.163c-0.122,0.069-0.217,0.175-0.34,0.27c-0.557,0.427-0.54,1.386-0.548,1.481
		c-0.009,0.097-0.024,0.411,0.03,0.489c0.054,0.076,0.197,0.067,0.235,0.039c0.035-0.024,0.181-0.049,0.171-0.325
		s0.05-0.611,0.11-0.859c0.06-0.248,0.28-0.462,0.479-0.58c0.093-0.058,0.298-0.188,0.399-0.229
		C11.519,17.133,11.53,17.129,11.541,17.125z"/>
	<path fill="#48689A" d="M14.23,5.174c0,0,1.628-0.138,2.78,1.3c1.152,1.438,1.2,3.413,1.151,3.864
		c-0.049,0.451-0.374,1.931-0.69,2.434c-0.368,0.583-0.718,0.998-1.696,1.247c-0.979,0.25-1.405,0.312-2.299,0.195
		c-0.895-0.118-1.742-0.272-2.148-0.651c-0.407-0.38-1.756-1.538-1.618-3.854c0.139-2.316,1.433-3.262,1.625-3.416
		C11.53,6.14,12.774,5.129,14.23,5.174z M11.66,6.853c-0.169,0.132-1.272,0.863-1.392,2.862c-0.121,1.997,0.886,2.768,1.241,3.094
		c0.355,0.327,1.259,0.671,2.037,0.772c0.777,0.102,1.021,0.09,1.873-0.124c0.853-0.215,1.121-0.762,1.454-1.155
		c0.464-0.547,0.711-1.675,0.754-2.063c0.042-0.39,0.166-1.756-0.853-2.984c-1.307-1.57-2.573-1.471-2.573-1.471
		C12.936,5.745,11.829,6.72,11.66,6.853z"/>
	<path fill="#48689A" d="M21.005,20.811c-0.027-0.581-0.142-1.516-0.352-2.285s-0.266-1.16-0.529-1.592
		c-0.446-0.73-0.754-1.047-1.3-1.509c-0.545-0.46-1.634-0.796-1.782-0.844c-0.146-0.048-0.179-0.049-1.166,0.636
		c-0.467,0.321-1.488,0.384-1.488,0.384s-0.055-0.003-0.078-0.002c-0.233,0.012-0.427-0.015-0.655-0.057
		c-0.267-0.049-0.53-0.119-0.791-0.2c-0.219-0.069-0.437-0.146-0.646-0.239c-0.064-0.029-0.133-0.061-0.194-0.1
		c-0.095-0.058-0.201-0.168-0.322-0.16c-0.057,0.004-0.116,0.041-0.164,0.067c-0.037,0.019-0.08,0.037-0.116,0.062
		c-0.016,0.011-0.031,0.028-0.049,0.04c-0.025,0.016-0.055,0.022-0.08,0.039c-0.013,0.01-0.023,0.019-0.04,0.026
		c-0.026,0.013-0.053,0.027-0.079,0.041c-0.191,0.107-0.37,0.238-0.545,0.37c-0.256,0.193-0.502,0.401-0.744,0.614
		c-0.291,0.258-0.511,0.585-0.797,0.902c-1.079,1.191-0.747,3.8-0.749,4.051c0,0.438,0.014,0.881,0.116,1.306
		c0.056,0.238,0.243,0.495,0.414,0.673c0.138,0.145,0.294,0.271,0.46,0.387c0.429,0.299,0.911,0.519,1.403,0.692
		c1.138,0.399,2.366,0.562,3.568,0.556c0.995-0.006,1.995-0.078,2.971-0.273c0.905-0.182,1.81-0.468,2.596-0.96
		c0.244-0.152,0.477-0.324,0.685-0.522c0.093-0.088,0.17-0.18,0.25-0.276c0.098-0.121,0.215-0.207,0.266-0.362
		c0.047-0.146,0.038-0.306,0.014-0.457C21.026,21.493,21.019,21.14,21.005,20.811z M14.299,23.921
		c-1.174,0.025-2.35-0.182-3.438-0.626c-0.402-0.164-0.791-0.359-1.157-0.591c-0.11-0.07-0.219-0.144-0.325-0.22
		c-0.222-0.156-0.192-0.334-0.196-0.586c-0.006-0.244-0.04-0.489-0.068-0.731c-0.084-0.699-0.168-1.648-0.07-2.319
		c0.099-0.671,0.544-1.567,1.019-1.997c0.226-0.203,0.713-0.663,0.96-0.84c0.206-0.146,0.417-0.246,0.624-0.393
		c0.062-0.044,0.039-0.066,0.121-0.052c0.021,0.002,0.195,0.083,0.254,0.119c0.03,0.017,0.061,0.034,0.092,0.048
		c0.117,0.058,0.272,0.106,0.396,0.147c0.231,0.075,0.314,0.09,0.581,0.13c0.281,0.044,0.568,0.029,0.851,0.062
		c2.11,0.246,2.914-0.711,3.02-0.858c0.104-0.148,0.731,0.313,1.289,0.649c0.555,0.334,1.036,0.838,1.454,1.558
		c0.42,0.721,0.524,2.884,0.546,3.43c0.01,0.249,0.021,0.5,0.032,0.751c0.009,0.168,0.06,0.346,0.033,0.514
		c-0.02,0.131-0.093,0.155-0.191,0.224c-0.107,0.074-0.212,0.147-0.321,0.213c-0.348,0.206-0.716,0.376-1.091,0.524
		c-1.221,0.484-2.531,0.738-3.839,0.818C14.682,23.909,14.49,23.917,14.299,23.921z"/>
</g>
</svg>
