<?xml version="1.0" encoding="utf-8"?>
<!-- Generator: Adobe Illustrator 16.0.0, SVG Export Plug-In . SVG Version: 6.00 Build 0)  -->
<!DOCTYPE svg PUBLIC "-//W3C//DTD SVG 1.1//EN" "http://www.w3.org/Graphics/SVG/1.1/DTD/svg11.dtd">
<svg version="1.1" id="Layer_1" xmlns="http://www.w3.org/2000/svg" xmlns:xlink="http://www.w3.org/1999/xlink" x="0px" y="0px"
	 width="30px" height="30px" viewBox="0 0 30 30" enable-background="new 0 0 30 30" xml:space="preserve">
<path fill="#00BDF2" d="M18.023,28.58c0.033,0.145,0.068,0.27,0.092,0.398c0.033,0.197-0.018,0.281-0.209,0.342
	c-0.633,0.209-1.275,0.229-1.914,0.021c-0.257-0.086-0.506-0.199-0.753-0.307c-0.13-0.057-0.223-0.152-0.235-0.311
	c-0.002-0.035-0.063-0.088-0.099-0.09c-0.535-0.027-0.895-0.361-1.245-0.707c-0.208-0.207-0.243-0.445-0.119-0.711
	c0.058-0.129,0.105-0.26,0.157-0.393c0.039-0.1,0.002-0.172-0.085-0.223c-0.044-0.029-0.087-0.055-0.131-0.084
	c-0.152-0.104-0.232-0.242-0.145-0.434c0.072-0.156,0.111-0.33,0.156-0.498c0.034-0.113-0.011-0.201-0.094-0.287
	c-0.138-0.143-0.271-0.291-0.368-0.459c-0.134-0.229-0.081-0.457,0.101-0.645c0.09-0.096,0.206-0.166,0.302-0.256
	c0.032-0.029,0.071-0.096,0.06-0.133c-0.123-0.391-0.213-0.795-0.39-1.16c-0.222-0.459-0.349-0.939-0.483-1.424
	c-0.172-0.607-0.339-1.221-0.531-1.828c-0.239-0.752-0.503-1.496-0.897-2.186c-0.303-0.529-0.651-1.033-0.979-1.548
	c-0.394-0.628-0.726-1.286-0.921-2.006C9.13,13.05,9.065,12.434,9.118,11.81c0.163-1.899,0.967-3.516,2.163-4.965
	c0.773-0.937,1.779-1.468,2.937-1.754c1.167-0.289,2.355-0.411,3.546-0.267c1.672,0.204,3.117,0.873,4.154,2.263
	c0.334,0.448,0.549,0.963,0.762,1.475c0.268,0.644,0.475,1.309,0.602,1.994c0.145,0.763,0.186,1.532,0.096,2.306
	c-0.174,1.479-0.775,2.788-1.586,4.014c-0.328,0.498-0.672,0.988-0.969,1.506c-0.531,0.906-0.697,1.898-0.627,2.938
	c0.023,0.357,0.039,0.717,0.039,1.074c0,0.244-0.023,0.488-0.047,0.732c-0.008,0.061-0.031,0.141-0.078,0.176
	c-0.104,0.074-0.105,0.166-0.088,0.27c0.062,0.357,0,0.697-0.139,1.033c-0.074,0.18-0.061,0.355,0.053,0.537
	c0.088,0.141,0.129,0.328,0.133,0.498c0.002,0.289-0.045,0.576-0.064,0.867c-0.01,0.15-0.008,0.295,0.004,0.443
	c0.021,0.342,0.014,0.66-0.287,0.896c-0.209,0.164-0.4,0.346-0.602,0.516c-0.195,0.158-0.414,0.236-0.668,0.219
	C18.316,28.568,18.18,28.58,18.023,28.58z M14.351,23.609c0.199,0.258,0.461,0.297,0.716,0.324c0.401,0.041,0.809,0.049,1.211,0.08
	c0.988,0.072,1.881-0.193,2.695-0.748c0.172-0.123,0.178-0.125,0.043-0.27c-0.18-0.193-0.17-0.297-0.004-0.504
	c0.025-0.031,0.047-0.062,0.076-0.084c0.193-0.148,0.23-0.352,0.229-0.578c-0.004-0.52,0.01-1.037,0.006-1.555
	c-0.008-0.939,0.283-1.785,0.803-2.561c0.344-0.504,0.689-1.008,1.008-1.533c0.67-1.097,1.141-2.275,1.338-3.549
	c0.123-0.809,0.021-1.597-0.211-2.375c-0.23-0.773-0.576-1.496-0.945-2.211c-0.492-0.959-1.25-1.624-2.258-1.999
	c-1.049-0.39-2.129-0.455-3.23-0.309c-0.837,0.113-1.651,0.322-2.427,0.662c-0.629,0.277-1.206,0.626-1.611,1.2
	c-0.233,0.334-0.471,0.671-0.677,1.022c-0.523,0.896-0.913,1.844-0.976,2.899c-0.034,0.579,0.013,1.151,0.113,1.717
	c0.101,0.573,0.271,1.125,0.569,1.629c0.398,0.684,0.797,1.365,1.191,2.052c0.47,0.812,0.868,1.66,1.095,2.582
	c0.186,0.752,0.37,1.508,0.585,2.254c0.149,0.516,0.414,0.967,0.931,1.217c0.115,0.055,0.247,0.123,0.242,0.266
	c-0.007,0.146-0.153,0.188-0.264,0.246C14.522,23.525,14.443,23.564,14.351,23.609z M16.609,27.045c0,0.014,0.002,0.025,0.006,0.041
	c0.312-0.027,0.631-0.031,0.939-0.082c0.51-0.086,1.018-0.193,1.52-0.305c0.406-0.088,0.439-0.145,0.391-0.561
	c-0.018-0.152-0.018-0.299,0.074-0.436c0.068-0.111,0.053-0.225-0.061-0.311c-0.047-0.033-0.092-0.068-0.135-0.105
	c-0.098-0.074-0.131-0.162-0.092-0.283c0.016-0.049,0.002-0.113,0.002-0.17c-0.055,0.016-0.113,0.027-0.166,0.055
	c-0.053,0.023-0.098,0.07-0.154,0.1c-0.268,0.143-0.525,0.316-0.809,0.414c-0.543,0.186-1.111,0.244-1.684,0.277
	c-0.156,0.014-0.318-0.016-0.474-0.039c-0.132-0.027-0.226-0.113-0.273-0.242c-0.043-0.119,0.003-0.197,0.13-0.205
	c0.111-0.004,0.225,0.006,0.338,0.006c0.227,0.002,0.457,0.025,0.676-0.006c0.598-0.094,1.18-0.252,1.707-0.557
	c0.279-0.16,0.537-0.361,0.797-0.553c0.084-0.064,0.094-0.162,0.037-0.256c-0.057-0.088-0.146-0.111-0.234-0.07
	c-0.189,0.084-0.377,0.168-0.557,0.27c-0.439,0.248-0.889,0.494-1.41,0.482c-0.691-0.018-1.383-0.053-2.074-0.105
	c-0.351-0.023-0.696-0.105-1.047-0.15c-0.091-0.008-0.215,0-0.277,0.055c-0.139,0.117-0.181,0.295-0.141,0.477
	c0.034,0.154,0.133,0.252,0.294,0.289c0.197,0.045,0.288,0.189,0.234,0.383c-0.041,0.141-0.099,0.283-0.168,0.416
	c-0.146,0.273-0.146,0.314,0.107,0.496c0.157,0.113,0.246,0.254,0.204,0.445c-0.035,0.162-0.108,0.318-0.147,0.48
	c-0.024,0.1-0.057,0.23-0.014,0.307c0.185,0.326,0.438,0.586,0.839,0.643c0.137,0.021,0.247,0.078,0.317,0.209
	c0.082,0.15,0.209,0.244,0.382,0.256c0.412,0.027,0.818,0.045,1.228,0.08c0.236,0.018,0.445-0.002,0.666-0.115
	c0.137-0.07,0.197-0.135,0.211-0.281c0.029-0.254,0.055-0.273,0.312-0.271c0.492,0.004,0.879-0.213,1.211-0.551
	c0.182-0.184,0.178-0.279,0.041-0.5c-0.066-0.107-0.123-0.115-0.234-0.066c-0.32,0.139-0.639,0.285-0.973,0.379
	c-0.58,0.166-1.184,0.164-1.781,0.152c-0.162-0.002-0.328-0.027-0.488-0.068c-0.122-0.029-0.182-0.133-0.151-0.264
	c0.025-0.115,0.113-0.16,0.231-0.158C16.178,27.053,16.396,27.045,16.609,27.045z"/>
<path fill="#00BDF2" d="M8.877,6.709c-0.002,0.23-0.102,0.304-0.232,0.219C8.361,6.753,8.083,6.566,7.817,6.366
	C7.494,6.123,7.183,5.863,6.872,5.604C6.788,5.532,6.72,5.438,6.657,5.344c-0.08-0.118-0.075-0.239,0.024-0.349
	c0.092-0.105,0.206-0.154,0.338-0.071C7.131,4.991,7.25,5.054,7.345,5.141c0.45,0.422,0.896,0.848,1.335,1.282
	C8.773,6.518,8.834,6.647,8.877,6.709z"/>
<path fill="#00BDF2" d="M15.891,1.994c-0.016,0.197-0.036,0.502-0.062,0.807c-0.001,0.027-0.01,0.054-0.019,0.081
	c-0.035,0.101-0.072,0.205-0.207,0.191c-0.126-0.012-0.145-0.127-0.162-0.221c-0.092-0.517-0.188-1.035-0.257-1.557
	c-0.023-0.181,0.006-0.375,0.024-0.56c0.01-0.126,0.105-0.192,0.226-0.216c0.131-0.025,0.24,0.024,0.29,0.143
	c0.051,0.119,0.094,0.249,0.105,0.376C15.859,1.32,15.868,1.6,15.891,1.994z"/>
<path fill="#00BDF2" d="M22.525,5.871c-0.186-0.008-0.273-0.076-0.326-0.191c-0.049-0.106,0.008-0.191,0.08-0.249
	c0.205-0.165,0.408-0.329,0.627-0.476c0.48-0.321,0.965-0.633,1.453-0.943c0.08-0.054,0.191-0.142,0.273-0.03
	c0.072,0.101-0.043,0.183-0.107,0.244c-0.564,0.499-1.129,0.994-1.697,1.486C22.732,5.793,22.6,5.835,22.525,5.871z"/>
<path fill="#00BDF2" d="M6.131,13.553c-0.52-0.044-1.042-0.088-1.561-0.136c-0.118-0.011-0.243-0.034-0.272-0.177
	c-0.023-0.1,0.105-0.229,0.252-0.262c0.063-0.014,0.13-0.016,0.196-0.012c0.676,0.051,1.353,0.106,2.028,0.157
	c0.029,0.004,0.057,0.005,0.083,0.013c0.11,0.034,0.185,0.103,0.179,0.222c-0.006,0.118-0.098,0.162-0.197,0.164
	c-0.235,0.006-0.47,0-0.706,0C6.133,13.533,6.133,13.543,6.131,13.553z"/>
<path fill="#00BDF2" d="M15.333,19.562c-0.039-0.023-0.076-0.061-0.119-0.07c-0.187-0.043-0.249-0.193-0.287-0.348
	c-0.098-0.387-0.203-0.775-0.276-1.166c-0.211-1.098-0.469-2.18-1.088-3.136c-0.284-0.439-0.32-0.927-0.275-1.429
	c0.015-0.163,0.091-0.228,0.253-0.216c0.439,0.034,0.87,0.11,1.241,0.373c0.049,0.035,0.107,0.059,0.158,0.092
	c0.086,0.056,0.133,0.061,0.166-0.062c0.056-0.211,0.145-0.41,0.311-0.561c0.247-0.222,0.567-0.202,0.763,0.067
	c0.109,0.154,0.189,0.335,0.271,0.507c0.078,0.165,0.088,0.174,0.236,0.063c0.357-0.26,0.711-0.527,1.072-0.783
	c0.123-0.088,0.264-0.192,0.426-0.089c0.168,0.104,0.162,0.283,0.135,0.445c-0.021,0.132-0.082,0.258-0.115,0.39
	c-0.012,0.049,0.006,0.106,0.01,0.158c0.047-0.006,0.102,0,0.146-0.021c0.229-0.104,0.461-0.208,0.688-0.321
	c0.086-0.045,0.152-0.031,0.217,0.03c0.15,0.144,0.26,0.316,0.279,0.524c0.01,0.084-0.033,0.184-0.074,0.262
	c-0.197,0.369-0.414,0.727-0.602,1.098c-0.062,0.125-0.076,0.281-0.094,0.423c-0.062,0.515-0.096,1.031-0.174,1.544
	c-0.041,0.26-0.164,0.508-0.236,0.766c-0.059,0.209-0.107,0.42-0.141,0.631c-0.051,0.33-0.098,0.662-0.125,0.994
	c-0.047,0.654-0.082,1.309-0.115,1.961c-0.027,0.557-0.039,1.113-0.061,1.672c-0.004,0.148-0.166,0.305-0.32,0.283
	c-0.041-0.002-0.098-0.068-0.105-0.111c-0.02-0.125-0.02-0.254-0.021-0.383c-0.01-1.018-0.018-2.031-0.027-3.053
	c-0.002-0.355-0.031-0.396-0.387-0.393c-0.371,0.006-0.742,0.031-1.113,0.047c-0.151,0.008-0.251,0.09-0.283,0.232
	c-0.031,0.133-0.059,0.268-0.057,0.402c0.003,0.705,0.021,1.404,0.031,2.107c0.001,0.199-0.016,0.396-0.017,0.594
	c-0.001,0.113-0.06,0.154-0.164,0.17c-0.308,0.041-0.478-0.092-0.471-0.398c0.016-0.893,0.04-1.783,0.061-2.676
	c0.006-0.225,0.02-0.447,0.271-0.566C15.326,19.598,15.33,19.582,15.333,19.562z M18.842,14.066
	c-0.014-0.007-0.027-0.015-0.041-0.024c-0.068,0.055-0.145,0.102-0.205,0.165c-0.205,0.212-0.457,0.263-0.738,0.236
	c-0.258-0.024-0.348-0.108-0.379-0.368c-0.029-0.262-0.029-0.26-0.242-0.106c-0.062,0.043-0.123,0.087-0.188,0.127
	c-0.223,0.148-0.473,0.199-0.732,0.224c-0.119,0.009-0.201-0.037-0.26-0.135c-0.065-0.102-0.123-0.213-0.189-0.313
	c-0.069-0.109-0.138-0.106-0.192,0.011c-0.05,0.102-0.082,0.211-0.124,0.315c-0.095,0.228-0.303,0.311-0.52,0.195
	c-0.123-0.063-0.235-0.155-0.343-0.243c-0.161-0.13-0.346-0.187-0.546-0.203c-0.137-0.011-0.195,0.058-0.167,0.192
	c0.018,0.081,0.045,0.161,0.081,0.239c0.099,0.22,0.225,0.426,0.301,0.649c0.16,0.459,0.303,0.923,0.433,1.388
	c0.169,0.611,0.318,1.227,0.479,1.842c0.087,0.332,0.178,0.662,0.277,0.992c0.039,0.131,0.084,0.129,0.21,0.078
	c0.135-0.059,0.281-0.121,0.423-0.129c0.373-0.016,0.744-0.01,1.117,0.004c0.285,0.01,0.35-0.025,0.348-0.316
	c0-0.459,0.104-0.893,0.268-1.32c0.129-0.342,0.223-0.695,0.256-1.064c0.037-0.406,0.051-0.819,0.209-1.206
	c0.129-0.332,0.18-0.691,0.387-0.995C18.809,14.235,18.818,14.145,18.842,14.066z"/>
<path fill="#00BDF2" d="M20.943,10.953c-0.02,0.076-0.033,0.178-0.076,0.26c-0.027,0.052-0.105,0.092-0.164,0.1
	c-0.029,0.005-0.086-0.076-0.1-0.13c-0.088-0.267-0.158-0.539-0.242-0.81c-0.318-1.036-0.861-1.935-1.664-2.668
	c-0.074-0.066-0.146-0.136-0.201-0.215c-0.068-0.105-0.029-0.205,0.094-0.243C18.75,7.2,18.9,7.24,19.01,7.35
	c0.23,0.23,0.469,0.461,0.668,0.72c0.369,0.475,0.709,0.974,0.938,1.536C20.787,10.029,20.867,10.48,20.943,10.953z"/>
</svg>
