<?xml version="1.0" encoding="utf-8"?>
<!-- Generator: Adobe Illustrator 16.0.0, SVG Export Plug-In . SVG Version: 6.00 Build 0)  -->
<!DOCTYPE svg PUBLIC "-//W3C//DTD SVG 1.1//EN" "http://www.w3.org/Graphics/SVG/1.1/DTD/svg11.dtd">
<svg version="1.1" id="Layer_1" xmlns="http://www.w3.org/2000/svg" xmlns:xlink="http://www.w3.org/1999/xlink" x="0px" y="0px"
	 width="30px" height="30px" viewBox="0 0 30 30" enable-background="new 0 0 30 30" xml:space="preserve">
<path fill="#00BDF2" d="M3.779,7.296c0.108-0.435,0.19-0.877,0.334-1.299c0.096-0.289,0.268-0.559,0.425-0.824
	C4.944,4.484,5.389,3.82,5.881,3.187C6.237,2.733,6.67,2.369,7.186,2.12c0.666-0.325,1.333-0.652,2.023-0.911
	c0.49-0.181,1.023-0.25,1.534-0.368c0.547-0.126,0.8-0.182,1.347-0.309c0.64-0.149,1.865-0.039,2.178,0.054
	c0.339,0.121,0.691,0.212,1.036,0.327c1.138,0.386,2.172,0.931,2.923,1.916c0.184,0.236,0.42,0.434,0.606,0.67
	c0.68,0.866,1.233,1.8,1.559,2.857c0.243,0.792,0.416,1.596,0.48,2.423c0.077,0.992-0.039,1.963-0.343,2.914
	c-0.229,0.718-0.479,1.423-0.802,2.1c-0.251,0.53-0.492,1.074-0.959,1.459c-0.069,0.058-0.014,0.093,0.021,0.139
	c0.38,0.478,0.768,0.947,1.135,1.432c0.663,0.885,1.229,1.836,1.78,2.792c0.689,1.195,1.375,2.396,2.044,3.605
	c0.389,0.697,0.767,1.405,1.029,2.168c0.17,0.496,0.257,1.008,0.188,1.533c-0.113,0.885-0.641,1.439-1.443,1.767
	c-0.596,0.243-1.206,0.226-1.814,0.054c-0.725-0.211-1.223-0.679-1.543-1.354c-0.338-0.714-0.66-1.436-1.047-2.121
	c-0.468-0.834-0.989-1.642-1.494-2.457c-1.044-1.686-2.093-3.369-3.134-5.056c-0.065-0.108-0.136-0.125-0.25-0.117
	c-0.445,0.033-0.891,0.064-1.338,0.078c-0.458,0.017-0.919,0.021-1.377,0.016c-0.781-0.01-1.545-0.102-2.289-0.36
	c-1.226-0.428-2.373-1.008-3.412-1.789c-0.85-0.638-1.557-1.413-2.024-2.38c-0.231-0.478-0.32-0.997-0.346-1.523
	C3.398,10.445,3.532,9.22,3.703,8C3.737,7.766,3.767,7.533,3.8,7.3C3.793,7.298,3.785,7.296,3.779,7.296z M11.001,13.738
	c-0.003,0.01-0.003,0.02-0.003,0.032c0.612,0.055,1.221,0.124,1.832,0.16c0.309,0.018,0.624,0.002,0.93-0.041
	c0.647-0.092,1.246-0.342,1.815-0.659c1.397-0.773,2.438-1.847,2.884-3.43c0.192-0.686,0.275-1.378,0.272-2.083
	c0-0.604-0.077-1.199-0.203-1.787c-0.325-1.527-1.202-2.645-2.541-3.413c-0.641-0.37-1.324-0.644-2.036-0.843
	c-0.705-0.196-1.422-0.279-2.153-0.24c-0.573,0.031-1.135,0.159-1.685,0.335C9.251,2.042,8.444,2.431,7.766,3.046
	C7.219,3.541,6.754,4.104,6.351,4.718c-0.349,0.53-0.63,1.096-0.764,1.718c-0.203,0.953-0.212,1.91-0.039,2.868
	c0.164,0.917,0.558,1.722,1.207,2.395c0.63,0.654,1.412,1.072,2.229,1.429C9.631,13.413,10.308,13.604,11.001,13.738z
	 M21.065,26.594c0.013-0.063,0.023-0.106,0.031-0.149c0.091-0.453,0.177-0.907,0.281-1.354c0.055-0.236,0.134-0.465,0.225-0.693
	c0.047-0.122,0.196-0.146,0.354-0.085c0.124,0.049,0.127,0.139,0.101,0.25c-0.04,0.18-0.083,0.359-0.114,0.539
	c-0.021,0.104,0.021,0.135,0.119,0.09c0.13-0.057,0.253-0.121,0.378-0.185c0.192-0.096,0.383-0.189,0.604-0.192
	c0.136-0.002,0.25,0.076,0.302,0.201c0.042,0.105,0.008,0.241-0.109,0.308c-0.155,0.096-0.324,0.166-0.489,0.235
	c-0.119,0.053-0.246,0.073-0.363,0.12c-0.073,0.026-0.112,0.074-0.06,0.158c0.125,0.196,0.067,0.372-0.127,0.501
	c-0.076,0.052-0.149,0.136-0.174,0.223c-0.035,0.113-0.04,0.243-0.025,0.363c0.015,0.087,0.06,0.197,0.13,0.241
	c0.097,0.066,0.188-0.019,0.262-0.094c0.021-0.018,0.036-0.037,0.057-0.055c0.122-0.102,0.238-0.214,0.372-0.305
	c0.189-0.132,0.382-0.128,0.58,0.013c0.195,0.134,0.383,0.124,0.563-0.013c0.117-0.092,0.143-0.189,0.078-0.325
	c-0.064-0.142-0.132-0.278-0.198-0.418c-0.065-0.134-0.069-0.272,0.048-0.375c0.171-0.154,0.116-0.302,0.028-0.467
	c-0.02-0.04-0.041-0.084-0.063-0.126c-0.671-1.275-1.34-2.55-2.017-3.822c-0.455-0.859-0.928-1.709-1.379-2.57
	c-0.575-1.101-1.315-2.078-2.208-2.942c-0.204-0.2-0.43-0.339-0.721-0.372c-0.274-0.034-0.495-0.171-0.676-0.376
	c-0.127-0.144-0.294-0.241-0.476-0.202c-0.363,0.08-0.681,0.278-0.806,0.639c-0.126,0.364-0.193,0.749-0.263,1.13
	c-0.03,0.151-0.032,0.325,0.018,0.465c0.108,0.312,0.255,0.613,0.39,0.916c0.013,0.027,0.039,0.049,0.08,0.101
	c0.035-0.114,0.067-0.197,0.087-0.28c0.082-0.317,0.159-0.638,0.241-0.954c0.009-0.032,0.035-0.077,0.061-0.083
	c0.188-0.05,0.412,0.17,0.372,0.359c-0.12,0.575-0.233,1.151-0.358,1.726c-0.049,0.221,0.091,0.346,0.214,0.527
	c0.021-0.08,0.039-0.129,0.047-0.174c0.122-0.545,0.238-1.095,0.366-1.637c0.05-0.216,0.163-0.249,0.342-0.114
	c0.146,0.109,0.215,0.241,0.169,0.433c-0.158,0.625-0.304,1.25-0.462,1.877c-0.051,0.202-0.026,0.386,0.083,0.56
	c0.027,0.035,0.062,0.064,0.095,0.098c0.021-0.04,0.054-0.077,0.062-0.114c0.064-0.315,0.122-0.63,0.186-0.945
	c0.046-0.229,0.09-0.459,0.148-0.687c0.012-0.049,0.074-0.117,0.116-0.118c0.274-0.025,0.393,0.121,0.336,0.384
	c-0.134,0.608-0.268,1.215-0.393,1.825c-0.048,0.236,0.14,0.613,0.365,0.752c0.011-0.052,0.019-0.096,0.027-0.142
	c0.073-0.367,0.142-0.736,0.222-1.103c0.048-0.225,0.117-0.447,0.173-0.669c0.021-0.095,0.073-0.112,0.159-0.091
	c0.185,0.044,0.291,0.188,0.264,0.378c-0.018,0.134-0.048,0.267-0.074,0.4c-0.09,0.458-0.167,0.915-0.277,1.367
	c-0.087,0.361,0.009,0.649,0.252,0.906c0.019,0.018,0.043,0.032,0.082,0.062c0.012-0.062,0.021-0.107,0.029-0.154
	c0.082-0.418,0.163-0.835,0.249-1.257c0.028-0.13,0.071-0.263,0.115-0.39c0.011-0.031,0.055-0.072,0.085-0.074
	c0.286-0.018,0.464,0.2,0.396,0.48c-0.015,0.057-0.034,0.114-0.047,0.172c-0.145,0.588-0.286,1.176-0.425,1.765
	c-0.018,0.073-0.03,0.158-0.007,0.226c0.057,0.15,0.137,0.293,0.212,0.435c0.021,0.042,0.062,0.068,0.105,0.117
	c0.019-0.049,0.03-0.072,0.035-0.097c0.076-0.335,0.147-0.673,0.228-1.011c0.054-0.223,0.116-0.445,0.179-0.666
	c0.013-0.046,0.055-0.124,0.074-0.122c0.118,0.011,0.241,0.025,0.337,0.08c0.057,0.031,0.102,0.143,0.093,0.213
	c-0.023,0.215-0.077,0.429-0.113,0.641c-0.099,0.561-0.197,1.12-0.289,1.678c-0.01,0.05-0.007,0.105,0.01,0.151
	c0.069,0.197,0.143,0.391,0.22,0.585c0.021,0.056,0.062,0.101,0.107,0.172c0.021-0.062,0.033-0.088,0.039-0.116
	c0.079-0.483,0.154-0.971,0.243-1.451c0.038-0.209,0.096-0.412,0.162-0.615c0.04-0.12,0.122-0.137,0.237-0.077
	c0.051,0.028,0.108,0.055,0.149,0.096c0.031,0.033,0.056,0.089,0.05,0.128c-0.046,0.358-0.096,0.72-0.154,1.077
	c-0.082,0.475-0.163,0.949-0.258,1.423c-0.052,0.259,0.071,0.443,0.216,0.624C20.993,26.563,21.023,26.568,21.065,26.594z
	 M4.677,10.383c-0.008-0.002-0.018-0.002-0.028-0.004c-0.006,0.039-0.02,0.076-0.022,0.114C4.61,10.935,4.57,11.378,4.585,11.82
	c0.021,0.529,0.181,1.027,0.487,1.47c0.483,0.702,1.093,1.278,1.815,1.716c0.653,0.397,1.336,0.744,2.004,1.117
	c0.082,0.045,0.123,0.014,0.141-0.06c0.044-0.174,0.085-0.349,0.121-0.523c0.076-0.339,0.073-0.334,0.412-0.26
	c0.122,0.028,0.164,0.082,0.133,0.206C9.634,15.743,9.579,16,9.526,16.261c-0.013,0.052-0.017,0.143,0.003,0.154
	c0.075,0.032,0.162,0.049,0.244,0.051c0.022,0,0.058-0.062,0.071-0.103c0.025-0.065,0.038-0.132,0.048-0.199
	c0.036-0.209,0.075-0.419,0.103-0.631c0.016-0.117,0.07-0.157,0.181-0.134c0.025,0.004,0.051,0.004,0.077,0.007
	c0.278,0.026,0.309,0.062,0.256,0.331c-0.056,0.257-0.12,0.516-0.177,0.774c-0.008,0.037-0.003,0.112,0.007,0.113
	c0.087,0.026,0.181,0.046,0.271,0.039c0.031-0.002,0.073-0.078,0.082-0.124c0.061-0.306,0.113-0.611,0.163-0.92
	c0.031-0.202,0.066-0.236,0.272-0.229c0.038,0.001,0.076,0.009,0.114,0.017c0.171,0.028,0.18,0.038,0.147,0.206
	c-0.067,0.336-0.137,0.668-0.204,1.003c-0.011,0.043-0.013,0.088-0.022,0.144c0.11,0.001,0.168-0.028,0.186-0.129
	c0.055-0.295,0.117-0.592,0.174-0.89c0.062-0.331,0.063-0.33,0.397-0.341c0.112-0.003,0.148,0.031,0.124,0.139
	c-0.073,0.338-0.142,0.676-0.214,1.016c-0.05,0.233-0.014,0.264,0.228,0.233c0.106-0.014,0.132-0.082,0.148-0.159
	c0.071-0.366,0.145-0.73,0.202-1.095c0.025-0.159,0.121-0.203,0.358-0.177c0.137,0.017,0.172,0.069,0.14,0.239
	c-0.059,0.322-0.122,0.639-0.182,0.956c-0.029,0.152,0.012,0.195,0.164,0.183c0.097-0.008,0.122-0.065,0.135-0.144
	c0.052-0.343,0.102-0.692,0.158-1.036c0.03-0.183,0.102-0.238,0.289-0.228c0.054,0.002,0.107,0.016,0.164,0.022
	c0.109,0.015,0.153,0.064,0.131,0.182c-0.063,0.345-0.122,0.688-0.178,1.035c-0.01,0.054-0.011,0.11-0.021,0.176
	c0.124-0.014,0.18-0.062,0.197-0.17c0.057-0.365,0.124-0.733,0.189-1.099c0.025-0.135,0.079-0.168,0.204-0.144
	c0.103,0.022,0.156,0.068,0.125,0.187c-0.079,0.312-0.11,0.63-0.042,0.95c0.012,0.035,0.037,0.069,0.068,0.137
	c0.02-0.062,0.028-0.081,0.031-0.102c0.007-0.052,0.01-0.102,0.014-0.152c0.044-0.477,0.165-0.931,0.403-1.348
	c0.054-0.095,0.114-0.19,0.163-0.286c0.019-0.034,0.027-0.091,0.01-0.118c-0.018-0.021-0.077-0.024-0.114-0.016
	c-0.278,0.059-0.55,0.135-0.831,0.184c-0.415,0.076-0.83,0.169-1.249,0.186c-0.405,0.018-0.818-0.017-1.218-0.089
	c-0.735-0.135-1.461-0.305-2.188-0.477c-0.492-0.112-0.959-0.297-1.401-0.541c-0.632-0.348-1.214-0.767-1.773-1.22
	c-0.593-0.479-1.068-1.037-1.325-1.763C4.776,10.704,4.729,10.542,4.677,10.383z M16.674,13.804
	c0.005,0.016,0.009,0.028,0.012,0.041c0.055,0.012,0.106,0.017,0.159,0.033c0.188,0.056,0.382,0.089,0.556,0.17
	c0.22,0.105,0.353,0.303,0.459,0.518c0.046,0.09,0.105,0.105,0.182,0.04c0.028-0.023,0.06-0.046,0.088-0.073
	c0.458-0.463,0.776-1.014,0.994-1.619c0.157-0.444,0.274-0.899,0.388-1.354c0.175-0.714,0.324-1.437,0.366-2.175
	c0.006-0.115,0.021-0.235-0.074-0.362c-0.021,0.067-0.035,0.105-0.046,0.145c-0.098,0.341-0.188,0.682-0.292,1.02
	c-0.222,0.733-0.584,1.393-1.057,1.999c-0.453,0.579-1.014,1.042-1.585,1.494C16.771,13.718,16.725,13.764,16.674,13.804z"/>
<path fill="#00BDF2" d="M14.261,2.359c0.858,0.19,1.27,0.387,2.13,0.976c0.274,0.187,0.512,0.408,0.685,0.68
	c0.147,0.234,0.021,0.365-0.192,0.465c-0.053,0.024-0.175-0.018-0.231-0.065c-0.203-0.164-0.389-0.348-0.583-0.521
	c-0.468-0.404-0.746-0.576-1.066-0.686c-0.643-0.188-1.298-0.314-1.965-0.38c-1.013-0.1-1.977,0.03-2.871,0.462
	c-0.584,0.282-1.158,0.582-1.683,0.95C7.925,4.631,7.503,5.118,7.222,5.71C7.096,5.978,7.007,6.256,6.984,6.555
	C6.982,6.604,6.975,6.65,6.968,6.702C6.939,6.867,6.815,6.967,6.652,6.946C6.488,6.927,6.245,6.812,6.273,6.632
	c0.04-0.251,0.091-0.505,0.176-0.745c0.401-1.166,1.295-1.957,2.362-2.606c0.88-0.536,1.861-0.842,2.905-1.003
	C12.508,2.159,13.296,2.165,14.261,2.359z"/>
</svg>
