<?xml version="1.0" encoding="utf-8"?>
<!-- Generator: Adobe Illustrator 16.0.0, SVG Export Plug-In . SVG Version: 6.00 Build 0)  -->
<!DOCTYPE svg PUBLIC "-//W3C//DTD SVG 1.1//EN" "http://www.w3.org/Graphics/SVG/1.1/DTD/svg11.dtd">
<svg version="1.1" id="Layer_1" xmlns="http://www.w3.org/2000/svg" xmlns:xlink="http://www.w3.org/1999/xlink" x="0px" y="0px"
	 width="30px" height="30px" viewBox="0 0 30 30" enable-background="new 0 0 30 30" xml:space="preserve">
<circle fill="#E6E3E3" cx="14.97" cy="15" r="14.25"/>
<path fill="#FFFFFF" d="M16.56,14.781c-0.113,0.311-0.277,0.59-0.528,0.818c-0.177,0.161-0.392,0.245-0.622,0.295
	c-0.311,0.068-0.619,0.133-0.935,0.096c-0.661-0.08-1.176-0.423-1.471-1.028c-0.234-0.479-0.323-0.98-0.272-1.506
	c0.03-0.307,0.141-0.588,0.296-0.855c0.191-0.326,0.417-0.62,0.731-0.843c0.249-0.178,0.409-0.258,0.709-0.324
	c0.262-0.057,0.617-0.018,0.848,0.083c0.487,0.214,0.877,0.543,1.153,0.996c0.21,0.346,0.294,0.724,0.28,1.082
	C16.747,14.028,16.693,14.412,16.56,14.781z"/>
<path fill-rule="evenodd" clip-rule="evenodd" fill="#48689A" d="M14.197,12.091c0.054,0.009,0.079,0.037,0.093,0.073
	c0.014,0.041,0.001,0.078-0.026,0.109c-0.015,0.016-0.032,0.028-0.05,0.038c-0.248,0.141-0.417,0.343-0.487,0.621
	c-0.039,0.148-0.068,0.297-0.102,0.446c-0.017,0.074-0.063,0.122-0.125,0.132c-0.103,0.016-0.168-0.034-0.183-0.146
	c-0.068-0.518,0.173-0.985,0.652-1.217C14.044,12.111,14.124,12.086,14.197,12.091z"/>
<path fill="#FFFFFF" d="M12.475,16.213c0,0-0.71-0.195-0.84-0.033c-0.129,0.164-0.933,0.471-1.276,0.479
	c-0.344,0.01-0.742,0.207-1,0.336c-0.258,0.131-0.453,0.484-0.215,0.961s0.895,2.051,1.044,2.332
	c0.149,0.283,0.325,0.506,0.867,0.482c0.541-0.021,1.848-0.398,1.933-0.209c0.085,0.189-0.014,1.199,1.093,1.164
	c1.107-0.037,2.175,0.146,2.501-0.021s0.668-0.682,0.712-1.289c0.053-0.127,0.255-0.145,0.912-0.018
	c0.658,0.125,1.395,0.389,1.694-0.109s0.597-1.922,0.728-2.264s0.544-1.531,0.091-1.643c-0.452-0.113-0.877-0.17-1.258-0.148
	c-0.381,0.023-1.173-0.55-1.557-0.444c-0.384,0.106-0.517,0.639-0.823,0.168c-0.308-0.469-0.714-0.347-1.067-0.263
	c-0.353,0.085-0.347,0.398-1.426,0.38C13.506,16.055,12.896,15.891,12.475,16.213z"/>
<path fill-rule="evenodd" clip-rule="evenodd" fill="#48689A" d="M16.952,16.863c-0.002,0.385-0.003,0.77-0.006,1.154
	c0,0.059-0.005,0.119-0.009,0.178c-0.003,0.047-0.031,0.072-0.077,0.078c-0.08,0.008-0.156-0.016-0.158-0.129
	c-0.003-0.219-0.013-0.438-0.015-0.656c-0.002-0.281,0-0.562,0.001-0.844c0.001-0.033,0.003-0.068,0.003-0.104
	c-0.002-0.031,0.014-0.043,0.043-0.047c0.061-0.01,0.116,0.004,0.165,0.035c0.02,0.01,0.035,0.039,0.038,0.062
	c0.009,0.09,0.013,0.182,0.021,0.271C16.955,16.863,16.954,16.863,16.952,16.863z"/>
<path fill-rule="evenodd" clip-rule="evenodd" fill="#48689A" d="M12.976,17.012c0.005-0.059,0.011-0.133,0.018-0.207
	c0.008-0.086,0.058-0.143,0.127-0.186c0.118-0.07,0.245-0.104,0.381-0.104c0.044,0,0.07,0.023,0.074,0.068
	c0.005,0.057-0.015,0.086-0.057,0.098c-0.07,0.021-0.142,0.041-0.208,0.07c-0.076,0.033-0.114,0.094-0.103,0.182
	c0.019,0.15,0.036,0.301,0.053,0.451c0.008,0.074,0.014,0.148,0.016,0.225c0.002,0.066-0.075,0.145-0.141,0.15
	c-0.036,0.002-0.073-0.033-0.082-0.088c-0.023-0.143-0.044-0.287-0.063-0.434C12.981,17.17,12.981,17.1,12.976,17.012z"/>
<path fill-rule="evenodd" clip-rule="evenodd" fill="#48689A" d="M13.286,21.516c-0.015-0.002-0.03-0.002-0.045-0.004
	c-0.103-0.02-0.146-0.066-0.088-0.154c0.167-0.256,0.331-0.516,0.5-0.77c0.052-0.078,0.114-0.148,0.175-0.221
	c0.043-0.049,0.091-0.047,0.141-0.004c0.072,0.064,0.075,0.104,0.021,0.186c-0.187,0.283-0.373,0.564-0.56,0.848
	c-0.017,0.025-0.032,0.053-0.053,0.074c-0.023,0.023-0.053,0.039-0.08,0.059C13.293,21.523,13.29,21.52,13.286,21.516z"/>
<path fill-rule="evenodd" clip-rule="evenodd" fill="#48689A" d="M13.63,21.65c0.071-0.113,0.129-0.215,0.194-0.311
	c0.105-0.154,0.212-0.309,0.322-0.459c0.028-0.039,0.055-0.09,0.12-0.057c0.062,0.033,0.095,0.086,0.065,0.152
	c-0.04,0.09-0.09,0.176-0.144,0.26c-0.086,0.133-0.18,0.26-0.268,0.393c-0.022,0.033-0.047,0.049-0.089,0.043
	C13.77,21.66,13.708,21.658,13.63,21.65z"/>
<path fill-rule="evenodd" clip-rule="evenodd" fill="#48689A" d="M14.842,20.941c0.021,0.004,0.041,0.006,0.062,0.01
	c0.057,0.01,0.079,0.041,0.056,0.094c-0.057,0.125-0.117,0.252-0.182,0.377c-0.045,0.088-0.099,0.172-0.153,0.254
	c-0.04,0.059-0.145,0.088-0.209,0.061c-0.043-0.018-0.052-0.051-0.037-0.088c0.095-0.23,0.203-0.455,0.355-0.654
	c0.022-0.029,0.064-0.043,0.098-0.064C14.835,20.934,14.839,20.938,14.842,20.941z"/>
<g>
	<g>
		<path fill="#48689A" d="M16.88,21.453c-0.476,0.463-1.866,0.179-2.471,0.199c-1.347,0.047-1.241-1.101-1.387-2.096
			c-0.125-0.853-0.291-1.685-0.364-2.546c-0.078-0.909,0.483-0.86,1.145-0.91c0.14-0.011,0.243-0.169,0.041-0.154
			c-0.573,0.043-1.163-0.084-1.494,0.44c-0.173,0.274,0.055,1.126,0.086,1.438c0.085,0.865,0.276,1.73,0.418,2.589
			c0.225,1.36,0.43,1.432,1.808,1.384c0.803-0.027,1.811,0.319,2.447-0.302C17.23,21.379,16.944,21.39,16.88,21.453L16.88,21.453z"
			/>
	</g>
</g>
<g>
	<g>
		<path fill="#48689A" d="M17.091,21.513c0.541-1.166,0.463-2.602,0.483-3.853c0.01-0.588,0.158-1.59-0.507-1.861
			c-0.108-0.044-0.338,0.111-0.172,0.179c0.688,0.28,0.382,2.066,0.367,2.582c-0.028,0.965-0.03,2.036-0.445,2.932
			C16.751,21.633,17.043,21.615,17.091,21.513L17.091,21.513z"/>
	</g>
</g>
<g>
	<g>
		<path fill="#48689A" d="M13.582,15.885c-0.314,0.027-0.731-0.045-1.017,0.127c-0.35,0.213-0.244,0.738-0.201,1.065
			c0.007,0.054,0.299-0.006,0.29-0.078c-0.035-0.266-0.077-0.492-0.005-0.758c0.088-0.324,0.542-0.222,0.806-0.245
			C13.527,15.991,13.772,15.869,13.582,15.885L13.582,15.885z"/>
	</g>
</g>
<path fill-rule="evenodd" clip-rule="evenodd" fill="#48689A" d="M9.534,17.633C9.528,17.59,9.52,17.535,9.513,17.48
	c-0.008-0.062,0.018-0.111,0.062-0.154c0.073-0.068,0.159-0.115,0.257-0.137c0.031-0.008,0.054,0.006,0.064,0.037
	c0.013,0.039,0.004,0.064-0.025,0.08c-0.047,0.027-0.095,0.053-0.138,0.084c-0.048,0.035-0.066,0.086-0.044,0.146
	c0.039,0.105,0.076,0.211,0.112,0.316c0.019,0.053,0.035,0.105,0.049,0.158c0.012,0.047-0.03,0.117-0.077,0.131
	c-0.026,0.008-0.058-0.012-0.074-0.049c-0.04-0.1-0.08-0.199-0.116-0.301C9.564,17.746,9.552,17.693,9.534,17.633z"/>
<g>
	<g>
		<path fill="#48689A" d="M12.993,20.395c-0.304,0.035-0.597,0.111-0.894,0.188c-0.249,0.064-0.497,0.122-0.751,0.165
			c-0.601,0.103-0.837-0.108-1.042-0.654c-0.18-0.479-0.4-0.95-0.643-1.4c-0.158-0.292-0.309-0.571-0.433-0.877
			c-0.212-0.526,0.363-0.813,0.773-0.948c0.171-0.057,0.13-0.224-0.045-0.166c-0.275,0.091-0.941,0.175-1.04,0.534
			c-0.23,0.837,0.674,1.935,0.986,2.659c0.28,0.65,0.241,1.013,1,1.062c0.694,0.046,1.374-0.305,2.054-0.384
			C13.108,20.558,13.193,20.371,12.993,20.395L12.993,20.395z"/>
	</g>
</g>
<g>
	<g>
		<path fill="#48689A" d="M9.851,16.806c0.715,0.09,1.509-0.088,2.006-0.645c0.122-0.138-0.155-0.186-0.243-0.088
			c-0.412,0.462-1.076,0.594-1.664,0.52C9.807,16.575,9.655,16.781,9.851,16.806L9.851,16.806z"/>
	</g>
</g>
<path fill-rule="evenodd" clip-rule="evenodd" fill="#48689A" d="M19.72,17.607c0.001-0.053,0.005-0.117,0.007-0.184
	c0.003-0.076-0.034-0.133-0.091-0.176c-0.096-0.076-0.203-0.119-0.322-0.135c-0.038-0.004-0.062,0.014-0.071,0.053
	c-0.012,0.049,0.002,0.076,0.039,0.094c0.059,0.025,0.119,0.051,0.174,0.082c0.062,0.039,0.089,0.096,0.07,0.17
	c-0.033,0.129-0.066,0.26-0.097,0.389c-0.016,0.064-0.029,0.129-0.04,0.195c-0.01,0.059,0.05,0.135,0.107,0.146
	c0.031,0.006,0.067-0.02,0.082-0.066c0.035-0.123,0.071-0.246,0.104-0.371C19.697,17.744,19.705,17.682,19.72,17.607z"/>
<path fill="#FFFFFF" d="M11.741,15.442c-0.03,0.24-0.102,0.468-0.245,0.673c-0.101,0.145-0.24,0.24-0.397,0.314
	c-0.212,0.1-0.424,0.197-0.656,0.223c-0.487,0.053-0.914-0.111-1.226-0.496c-0.247-0.305-0.393-0.652-0.443-1.038
	c-0.029-0.225,0.005-0.445,0.072-0.663c0.083-0.265,0.199-0.514,0.386-0.725c0.149-0.169,0.252-0.253,0.458-0.35
	c0.177-0.083,0.439-0.114,0.621-0.08c0.386,0.075,0.72,0.247,0.992,0.526c0.209,0.215,0.332,0.472,0.38,0.73
	C11.751,14.87,11.777,15.154,11.741,15.442z"/>
<path fill-rule="evenodd" clip-rule="evenodd" fill="#48689A" d="M15.856,15.977c1.015-0.298,1.336,0.293,1.336,0.293l0.307-0.041
	c-0.04-0.119-0.19-0.434-0.307-0.491c-0.13-0.063-0.238-0.102-0.382-0.12c-0.109-0.015-0.221-0.023-0.317-0.031
	c0.064-0.104,0.142-0.205,0.194-0.318c0.184-0.391,0.287-0.804,0.328-1.235c0.032-0.338-0.001-0.67-0.081-0.998
	c-0.078-0.322-0.207-0.627-0.367-0.917c-0.17-0.306-0.394-0.561-0.699-0.736c-0.496-0.284-1.023-0.312-1.568-0.173
	c-0.337,0.086-0.643,0.241-0.921,0.45c-0.479,0.355-0.783,0.826-0.921,1.404c-0.076,0.314-0.086,0.633-0.073,0.954
	c0.014,0.339,0.094,0.662,0.257,0.961c0.18,0.329,0.424,0.604,0.72,0.833c0.063,0.049,0.128,0.092,0.199,0.145
	c-0.016,0.006-0.024,0.008-0.033,0.01c-0.161,0.012-0.316,0.053-0.466,0.113 M16.56,14.781c-0.113,0.311-0.277,0.59-0.528,0.818
	c-0.177,0.161-0.392,0.245-0.622,0.295c-0.311,0.068-0.619,0.133-0.935,0.096c-0.661-0.08-1.176-0.423-1.471-1.028
	c-0.234-0.479-0.323-0.98-0.272-1.506c0.03-0.307,0.141-0.588,0.296-0.855c0.191-0.326,0.417-0.62,0.731-0.843
	c0.249-0.178,0.409-0.258,0.709-0.324c0.262-0.057,0.617-0.018,0.848,0.083c0.487,0.214,0.877,0.543,1.153,0.996
	c0.21,0.346,0.294,0.724,0.28,1.082C16.747,14.028,16.693,14.412,16.56,14.781z"/>
<path fill="#FFFFFF" d="M20.659,15.525c-0.285,0.432-0.712,0.647-1.225,0.643c-0.245-0.004-0.477-0.084-0.707-0.164
	c-0.171-0.062-0.326-0.146-0.445-0.287c-0.169-0.199-0.269-0.43-0.324-0.679c-0.066-0.295-0.069-0.593-0.029-0.924
	c0.024-0.275,0.126-0.555,0.321-0.8c0.255-0.319,0.584-0.532,0.979-0.649c0.186-0.055,0.461-0.05,0.654,0.019
	c0.224,0.08,0.339,0.157,0.513,0.317c0.216,0.201,0.361,0.448,0.476,0.716c0.092,0.219,0.15,0.445,0.143,0.683
	C21.002,14.808,20.884,15.182,20.659,15.525z"/>
<g>
	<g>
		<path fill="#48689A" d="M19.955,16.146c-0.539,0.17-1.365-0.072-1.756-0.463c-0.069-0.07-0.344,0.038-0.27,0.111
			c0.479,0.48,1.417,0.694,2.062,0.491C20.162,16.23,20.127,16.092,19.955,16.146L19.955,16.146z"/>
	</g>
</g>
<g>
	<g>
		<path fill="#48689A" d="M19.247,16.673c0.281,0.061,0.711,0.011,0.816,0.35c0.078,0.253,0.017,0.567-0.033,0.818
			c-0.018,0.086,0.271,0.036,0.287-0.045c0.063-0.318,0.098-0.65,0-0.965c-0.079-0.256-0.641-0.239-0.836-0.281
			C19.406,16.533,19.15,16.652,19.247,16.673L19.247,16.673z"/>
	</g>
</g>
<g>
	<g>
		<path fill="#48689A" d="M17.25,20.388c1.221,0.073,2.479,0.953,3.012-0.564c0.121-0.346,0.155-0.729,0.235-1.084
			c0.119-0.525,0.41-0.997,0.531-1.527c0.205-0.895-0.325-0.857-0.983-0.992c-0.067-0.014-0.317,0.095-0.238,0.111
			c0.164,0.033,0.328,0.051,0.495,0.07c0.632,0.071,0.48,0.69,0.378,1.138c-0.15,0.656-0.474,1.234-0.602,1.906
			c-0.041,0.218-0.1,0.423-0.173,0.631c-0.173,0.494-0.457,0.524-0.884,0.442c-0.525-0.102-1.048-0.215-1.582-0.246
			C17.379,20.269,17.107,20.38,17.25,20.388L17.25,20.388z"/>
	</g>
</g>
<g>
	<g>
		<path fill="#48689A" d="M13.632,15.996c0.718,0.356,1.995,0.234,2.617-0.271c0.131-0.106-0.158-0.114-0.234-0.053
			c-0.475,0.386-1.605,0.452-2.153,0.179C13.773,15.808,13.508,15.934,13.632,15.996L13.632,15.996z"/>
	</g>
</g>
<path fill="#FFFFFF" d="M6.433,12.113c-0.085,0.015-0.238,0.024-0.327,0.018c-0.104-0.007-0.136-0.137-0.172-0.229
	c-0.039-0.098-0.038-0.113-0.07-0.213c-0.041-0.125-0.082-0.249-0.122-0.374c-0.045-0.145-0.054-0.089-0.092-0.236
	c-0.105-0.4-0.206-0.802-0.306-1.204C5.333,9.829,5.333,9.778,5.339,9.73c0.012-0.097,0.08-0.151,0.167-0.179
	c0.079-0.024,0.16-0.04,0.241-0.057c0.386-0.078,0.772-0.154,1.158-0.231C7.19,9.206,7.475,9.149,7.761,9.09
	c0.25-0.051,0.5-0.104,0.75-0.154C8.625,8.915,8.74,8.892,8.854,8.879c0.138-0.015,0.214,0.039,0.256,0.165
	c0.038,0.109,0.063,0.224,0.087,0.336c0.052,0.255,0.096,0.512,0.15,0.767c0.037,0.173,0.047,0.144,0.087,0.315
	c0.039,0.162,0.067,0.325,0.069,0.492c0.001,0.095-0.005,0.191-0.042,0.281c-0.035,0.088-0.094,0.151-0.188,0.178
	c-0.05,0.014-0.082,0.04-0.075,0.096c0,0.005-0.002,0.012-0.007,0.015c-0.028,0.024-0.005,0.037,0.003,0.07
	c0.056,0.23,0.124,0.429,0.179,0.659l0.013,0.147c-0.002,0.002-0.005,0.004-0.007,0.006c-0.06-0.032-0.237-0.11-0.296-0.142
	c-0.233-0.126-0.457-0.177-0.705-0.274c-0.153-0.062-0.344-0.103-0.51-0.098C7.684,11.898,7.63,11.907,7.45,11.94
	c-0.244,0.044-0.375,0.057-0.618,0.1"/>
<path fill-rule="evenodd" clip-rule="evenodd" fill="#48689A" d="M9.199,8.707C9.184,8.665,9.15,8.645,9.106,8.65
	C9.083,8.654,9.062,8.658,9.04,8.663C8.703,8.732,8.366,8.801,8.029,8.871c-0.314,0.064-0.629,0.13-0.945,0.195
	c-0.407,0.083-0.816,0.164-1.223,0.25C5.686,9.353,5.508,9.384,5.343,9.464C5.247,9.511,5.174,9.58,5.169,9.694
	C5.167,9.762,5.171,9.832,5.186,9.896c0.051,0.228,0.104,0.454,0.165,0.68c0.069,0.258,0.144,0.515,0.222,0.771
	c0.056,0.186,0.08,0.169,0.141,0.354c0.032,0.096,0.061,0.194,0.093,0.29c0.021,0.062,0.045,0.124,0.074,0.183
	c0.021,0.043,0.056,0.073,0.108,0.08c0.174,0.024,0.348,0.014,0.519-0.016c0.217-0.038,0.433-0.086,0.648-0.131
	c0.217-0.044,0.435-0.072,0.656-0.066c0.013-0.002,0.025-0.003,0.038-0.002c0.014,0.001,0.029-0.001,0.042,0.001
	c0.016,0.001,0.03,0.003,0.043,0.006c0.039-0.001,0.078,0.002,0.114,0.016c0.014,0,0.025,0.001,0.036,0.002
	c0.255,0.038,0.501,0.111,0.736,0.214c0.21,0.092,0.417,0.194,0.624,0.292c0.04,0.018,0.077,0.018,0.112-0.008
	c0.036-0.026,0.031-0.062,0.022-0.099c-0.07-0.289-0.139-0.578-0.21-0.867c-0.005-0.022,0-0.03,0.021-0.036
	c0.063-0.016,0.126-0.033,0.188-0.053c0.074-0.024,0.13-0.07,0.127-0.154c-0.003-0.084-0.015-0.168-0.029-0.251
	c-0.055-0.313-0.112-0.626-0.168-0.94C9.461,9.898,9.458,9.832,9.404,9.567C9.35,9.309,9.285,9.052,9.226,8.794
	C9.218,8.764,9.209,8.736,9.199,8.707z M6.433,12.113c-0.085,0.015-0.238,0.024-0.327,0.018c-0.104-0.007-0.136-0.137-0.172-0.229
	c-0.039-0.098-0.038-0.113-0.07-0.213c-0.041-0.125-0.082-0.249-0.122-0.374c-0.045-0.145-0.054-0.089-0.092-0.236
	c-0.105-0.4-0.206-0.802-0.306-1.204C5.333,9.829,5.333,9.778,5.339,9.73c0.012-0.097,0.08-0.151,0.167-0.179
	c0.079-0.024,0.16-0.04,0.241-0.057c0.386-0.078,0.772-0.154,1.158-0.231C7.19,9.206,7.475,9.149,7.761,9.09
	c0.25-0.051,0.5-0.104,0.75-0.154C8.625,8.915,8.74,8.892,8.854,8.879c0.138-0.015,0.214,0.039,0.256,0.165
	c0.038,0.109,0.063,0.224,0.087,0.336c0.052,0.255,0.096,0.512,0.15,0.767c0.037,0.173,0.047,0.144,0.087,0.315
	c0.039,0.162,0.067,0.325,0.069,0.492c0.001,0.095-0.005,0.191-0.042,0.281c-0.035,0.088-0.094,0.151-0.188,0.178
	c-0.05,0.014-0.082,0.04-0.075,0.096c0,0.005-0.002,0.012-0.007,0.015c-0.028,0.024-0.005,0.037,0.003,0.07
	c0.056,0.23,0.124,0.429,0.179,0.659l0.013,0.147c-0.002,0.002-0.005,0.004-0.007,0.006c-0.06-0.032-0.237-0.11-0.296-0.142
	c-0.233-0.126-0.457-0.177-0.705-0.274c-0.153-0.062-0.344-0.103-0.51-0.098C7.684,11.898,7.63,11.907,7.45,11.94
	c-0.244,0.044-0.375,0.057-0.618,0.1"/>
<path fill-rule="evenodd" clip-rule="evenodd" fill="#00BDF2" d="M7.702,11.294c-0.404,0.098-0.809,0.194-1.213,0.294
	c-0.067,0.017-0.123-0.045-0.104-0.109c0.011-0.034,0.037-0.05,0.068-0.058c0.126-0.03,0.252-0.061,0.377-0.09
	c0.677-0.16,1.353-0.319,2.029-0.479c0.058-0.013,0.088-0.003,0.114,0.038c0.032,0.051,0.009,0.106-0.048,0.121
	c-0.195,0.047-0.39,0.094-0.584,0.141c-0.212,0.051-0.424,0.103-0.635,0.153C7.704,11.302,7.703,11.298,7.702,11.294z"/>
<path fill-rule="evenodd" clip-rule="evenodd" fill="#00BDF2" d="M7.254,10.008c-0.383,0.092-0.768,0.186-1.151,0.278
	c-0.064,0.017-0.098,0-0.111-0.053c-0.014-0.056,0.014-0.097,0.075-0.112c0.481-0.116,0.961-0.232,1.442-0.349
	c0.287-0.069,0.576-0.139,0.863-0.208c0.048-0.012,0.076-0.002,0.098,0.029C8.508,9.649,8.484,9.71,8.417,9.727
	C8.034,9.82,7.65,9.913,7.266,10.005C7.263,10.007,7.258,10.007,7.254,10.008z"/>
<path fill-rule="evenodd" clip-rule="evenodd" fill="#00BDF2" d="M7.461,10.521c0.357-0.09,0.714-0.181,1.071-0.271
	c0.041-0.011,0.069-0.001,0.089,0.028c0.041,0.058,0.017,0.121-0.054,0.138c-0.308,0.075-0.616,0.149-0.925,0.225
	c-0.396,0.096-0.791,0.191-1.187,0.286c-0.012,0.004-0.023,0.006-0.035,0.009C6.36,10.95,6.319,10.93,6.308,10.879
	c-0.012-0.055,0.021-0.099,0.074-0.11c0.26-0.057,0.518-0.118,0.777-0.177c0.101-0.023,0.202-0.048,0.302-0.073
	C7.461,10.52,7.461,10.521,7.461,10.521z"/>
<path fill="#FFFFFF" d="M22.327,11.264c-0.224-0.038-0.342-0.047-0.565-0.086c-0.165-0.028-0.215-0.036-0.385-0.036
	c-0.151,0-0.326,0.045-0.47,0.111c-0.228,0.103-0.436,0.159-0.65,0.291c-0.056,0.033-0.22,0.115-0.274,0.148
	c-0.002-0.001-0.004-0.004-0.007-0.005l0.014-0.148c0.056-0.23,0.121-0.433,0.177-0.663c0.008-0.033,0.03-0.047,0.004-0.069
	c-0.004-0.004-0.006-0.01-0.005-0.016c0.005-0.057-0.022-0.082-0.069-0.094c-0.084-0.024-0.137-0.087-0.168-0.174
	c-0.032-0.089-0.036-0.184-0.033-0.28c0.006-0.167,0.033-0.331,0.073-0.493c0.039-0.173,0.048-0.144,0.085-0.318
	c0.054-0.256,0.042-0.25,0.096-0.507c0.022-0.113,0.05-0.228,0.085-0.338c0.041-0.127,0.111-0.184,0.237-0.171
	c0.105,0.01,0.21,0.029,0.313,0.049c0.229,0.044,0.457,0.091,0.687,0.136c0.261,0.051,0.521,0.102,0.782,0.152
	c0.353,0.068,0.706,0.135,1.06,0.204c0.073,0.015,0.147,0.029,0.219,0.051c0.08,0.025,0.142,0.078,0.15,0.175
	c0.004,0.047,0.004,0.099-0.008,0.145c-0.098,0.404-0.141,0.545-0.245,0.948c-0.037,0.147-0.044,0.092-0.088,0.237
	c-0.04,0.126-0.079,0.252-0.119,0.377c-0.032,0.102-0.031,0.115-0.067,0.214c-0.035,0.093-0.066,0.223-0.163,0.233
	c-0.081,0.008-0.223,0.002-0.3-0.01"/>
<path fill-rule="evenodd" clip-rule="evenodd" fill="#48689A" d="M20.131,8.338c-0.06,0.259-0.123,0.518-0.177,0.777
	c-0.055,0.265-0.002,0.069-0.05,0.336c-0.059,0.314-0.116,0.628-0.173,0.943c-0.014,0.083-0.026,0.167-0.031,0.251
	c-0.003,0.084,0.047,0.129,0.115,0.152c0.057,0.018,0.112,0.033,0.171,0.047c0.021,0.006,0.024,0.014,0.02,0.036
	c-0.07,0.29-0.14,0.581-0.209,0.872c-0.01,0.037-0.013,0.073,0.02,0.098c0.031,0.025,0.064,0.025,0.103,0.006
	c0.191-0.103,0.383-0.21,0.577-0.307c0.219-0.11,0.445-0.188,0.68-0.232c0.01-0.001,0.021-0.002,0.032-0.003
	c0.034-0.014,0.07-0.019,0.106-0.019c0.013-0.003,0.025-0.006,0.038-0.007c0.015-0.002,0.027,0,0.04-0.002s0.024,0,0.036,0.001
	c0.202-0.011,0.401,0.011,0.6,0.051c0.197,0.04,0.395,0.083,0.594,0.115c0.156,0.025,0.315,0.033,0.476,0.003
	c0.048-0.009,0.081-0.04,0.101-0.083c0.027-0.06,0.05-0.122,0.071-0.184c0.031-0.097,0.06-0.195,0.09-0.292
	c0.06-0.186,0.082-0.17,0.137-0.357c0.075-0.258,0.148-0.516,0.217-0.777c0.059-0.226,0.056-0.191,0.106-0.42
	c0.015-0.065,0.02-0.135,0.02-0.202c-0.003-0.115-0.068-0.182-0.157-0.227c-0.148-0.075-0.311-0.103-0.472-0.136
	c-0.372-0.077-0.745-0.147-1.119-0.221c-0.286-0.056-0.574-0.115-0.862-0.171c-0.308-0.062-0.617-0.123-0.924-0.183
	c-0.02-0.004-0.041-0.008-0.061-0.011c-0.04-0.005-0.072,0.015-0.087,0.059C20.147,8.279,20.138,8.309,20.131,8.338z M22.327,11.264
	c-0.224-0.038-0.342-0.047-0.565-0.086c-0.165-0.028-0.215-0.036-0.385-0.036c-0.151,0-0.326,0.045-0.47,0.111
	c-0.228,0.103-0.436,0.159-0.65,0.291c-0.056,0.033-0.22,0.115-0.274,0.148c-0.002-0.001-0.004-0.004-0.007-0.005l0.014-0.148
	c0.056-0.23,0.121-0.433,0.177-0.663c0.008-0.033,0.03-0.047,0.004-0.069c-0.004-0.004-0.006-0.01-0.005-0.016
	c0.005-0.057-0.022-0.082-0.069-0.094c-0.084-0.024-0.137-0.087-0.168-0.174c-0.032-0.089-0.036-0.184-0.033-0.28
	c0.006-0.167,0.033-0.331,0.073-0.493c0.039-0.173,0.048-0.144,0.085-0.318c0.054-0.256,0.042-0.25,0.096-0.507
	c0.022-0.113,0.05-0.228,0.085-0.338c0.041-0.127,0.111-0.184,0.237-0.171c0.105,0.01,0.21,0.029,0.313,0.049
	c0.229,0.044,0.457,0.091,0.687,0.136c0.261,0.051,0.521,0.102,0.782,0.152c0.353,0.068,0.706,0.135,1.06,0.204
	c0.073,0.015,0.147,0.029,0.219,0.051c0.08,0.025,0.142,0.078,0.15,0.175c0.004,0.047,0.004,0.099-0.008,0.145
	c-0.098,0.404-0.141,0.545-0.245,0.948c-0.037,0.147-0.044,0.092-0.088,0.237c-0.04,0.126-0.079,0.252-0.119,0.377
	c-0.032,0.102-0.031,0.115-0.067,0.214c-0.035,0.093-0.066,0.223-0.163,0.233c-0.081,0.008-0.223,0.002-0.3-0.01"/>
<path fill-rule="evenodd" clip-rule="evenodd" fill="#00BDF2" d="M21.874,9.112c-0.372-0.094-0.745-0.188-1.119-0.282
	c-0.042-0.01-0.071,0.001-0.094,0.035c-0.042,0.068-0.02,0.14,0.054,0.157c0.321,0.077,0.645,0.154,0.967,0.231
	c0.412,0.098,0.826,0.197,1.239,0.295c0.013,0.003,0.024,0.006,0.037,0.009c0.063,0.014,0.106-0.01,0.119-0.068
	c0.015-0.062-0.021-0.112-0.075-0.124c-0.271-0.059-0.541-0.12-0.812-0.182c-0.105-0.024-0.211-0.05-0.315-0.074
	C21.875,9.109,21.875,9.11,21.874,9.112z"/>
<path fill-rule="evenodd" clip-rule="evenodd" fill="#00BDF2" d="M21.753,9.67c-0.373-0.094-0.745-0.188-1.117-0.282
	c-0.044-0.01-0.073,0.001-0.096,0.035c-0.042,0.068-0.02,0.139,0.053,0.156c0.322,0.078,0.646,0.155,0.968,0.231
	c0.413,0.099,0.826,0.197,1.239,0.296c0.013,0.002,0.024,0.006,0.038,0.009c0.062,0.014,0.105-0.01,0.119-0.068
	c0.013-0.062-0.021-0.112-0.076-0.124c-0.271-0.059-0.541-0.12-0.812-0.181c-0.105-0.024-0.211-0.05-0.316-0.076
	C21.753,9.667,21.753,9.669,21.753,9.67z"/>
<path fill-rule="evenodd" clip-rule="evenodd" fill="#00BDF2" d="M21.749,10.292c-0.301-0.086-0.602-0.171-0.9-0.257
	c-0.035-0.009-0.06,0-0.076,0.029c-0.033,0.057-0.013,0.119,0.046,0.134c0.259,0.071,0.519,0.141,0.778,0.212
	c0.333,0.09,0.666,0.18,0.998,0.271c0.011,0.003,0.021,0.005,0.03,0.008c0.051,0.013,0.086-0.006,0.094-0.057
	c0.012-0.053-0.017-0.096-0.062-0.106c-0.218-0.056-0.436-0.111-0.652-0.167c-0.086-0.022-0.17-0.046-0.256-0.069
	C21.749,10.29,21.749,10.291,21.749,10.292z"/>
<path fill-rule="evenodd" clip-rule="evenodd" fill="#48689A" d="M19.859,13.002c-0.04,0.01-0.058,0.032-0.065,0.06
	c-0.008,0.031,0.003,0.058,0.027,0.079c0.011,0.011,0.023,0.019,0.038,0.025c0.192,0.09,0.331,0.232,0.399,0.436
	c0.035,0.106,0.066,0.216,0.101,0.325c0.016,0.054,0.054,0.088,0.101,0.092c0.077,0.005,0.123-0.035,0.128-0.119
	c0.02-0.39-0.187-0.724-0.557-0.87C19.975,13.008,19.914,12.994,19.859,13.002z"/>
<path fill-rule="evenodd" clip-rule="evenodd" fill="#48689A" d="M21.263,14.126c-0.051-0.456-0.237-0.845-0.568-1.163
	c-0.193-0.187-0.411-0.335-0.66-0.434c-0.402-0.159-0.809-0.189-1.216-0.02c-0.25,0.104-0.448,0.276-0.606,0.494
	c-0.151,0.207-0.28,0.426-0.371,0.666c-0.092,0.243-0.149,0.493-0.157,0.755c-0.011,0.333,0.027,0.659,0.129,0.976
	c0.03,0.092,0.079,0.176,0.118,0.263c-0.076-0.003-0.264,0.022-0.392,0.076c-0.167,0.071-0.294,0.139-0.347,0.151
	c0.067,0.074,0.104,0.143,0.152,0.229c0.166-0.033,0.738-0.225,1.032-0.096l2.128,0.352c-0.108-0.061-0.224-0.107-0.347-0.135
	c-0.006,0-0.011-0.004-0.023-0.01c0.06-0.031,0.114-0.061,0.167-0.09c0.249-0.146,0.461-0.334,0.632-0.566
	c0.155-0.213,0.247-0.452,0.29-0.71C21.266,14.619,21.288,14.373,21.263,14.126z M20.659,15.525
	c-0.285,0.432-0.712,0.647-1.225,0.643c-0.245-0.004-0.477-0.084-0.707-0.164c-0.171-0.062-0.326-0.146-0.445-0.287
	c-0.169-0.199-0.269-0.43-0.324-0.679c-0.066-0.295-0.069-0.593-0.029-0.924c0.024-0.275,0.126-0.555,0.321-0.8
	c0.255-0.319,0.584-0.532,0.979-0.649c0.186-0.055,0.461-0.05,0.654,0.019c0.224,0.08,0.339,0.157,0.513,0.317
	c0.216,0.201,0.361,0.448,0.476,0.716c0.092,0.219,0.15,0.445,0.143,0.683C21.002,14.808,20.884,15.182,20.659,15.525z"/>
<path fill-rule="evenodd" clip-rule="evenodd" fill="#48689A" d="M9.506,13.914c0.038-0.005,0.06,0.006,0.076,0.028
	C9.6,13.965,9.6,13.993,9.588,14.019c-0.006,0.012-0.016,0.024-0.025,0.035c-0.131,0.144-0.199,0.311-0.186,0.507
	c0.007,0.104,0.019,0.207,0.029,0.311c0.005,0.051-0.015,0.094-0.054,0.113c-0.063,0.032-0.116,0.013-0.149-0.057
	c-0.154-0.322-0.096-0.676,0.167-0.928C9.412,13.96,9.457,13.926,9.506,13.914z"/>
<path fill-rule="evenodd" clip-rule="evenodd" fill="#48689A" d="M12.506,16.117c-0.004,0-0.311-0.074-0.315-0.072
	c-0.082,0.008-0.292-0.025-0.364-0.016c0.029-0.084,0.068-0.17,0.086-0.259c0.068-0.311,0.074-0.625,0.033-0.941
	c-0.033-0.248-0.111-0.481-0.222-0.704c-0.109-0.219-0.251-0.417-0.415-0.599c-0.171-0.192-0.375-0.337-0.624-0.413
	c-0.403-0.123-0.786-0.056-1.154,0.133c-0.228,0.118-0.421,0.279-0.587,0.475c-0.285,0.334-0.427,0.722-0.431,1.16
	c-0.002,0.237,0.042,0.469,0.105,0.697c0.066,0.242,0.176,0.46,0.342,0.648c0.184,0.207,0.404,0.365,0.655,0.479
	c0.053,0.025,0.107,0.047,0.167,0.072c-0.011,0.006-0.016,0.01-0.022,0.012c-0.114,0.037-0.219,0.09-0.316,0.158l1.99-0.531
	c0.222-0.125,0.771-0.021,0.919-0.023C12.377,16.312,12.474,16.203,12.506,16.117z M11.741,15.442
	c-0.03,0.24-0.102,0.468-0.245,0.673c-0.101,0.145-0.24,0.24-0.397,0.314c-0.212,0.1-0.424,0.197-0.656,0.223
	c-0.487,0.053-0.914-0.111-1.226-0.496c-0.247-0.305-0.393-0.652-0.443-1.038c-0.029-0.225,0.005-0.445,0.072-0.663
	c0.083-0.265,0.199-0.514,0.386-0.725c0.149-0.169,0.252-0.253,0.458-0.35c0.177-0.083,0.439-0.114,0.621-0.08
	c0.386,0.075,0.72,0.247,0.992,0.526c0.209,0.215,0.332,0.472,0.38,0.73C11.751,14.87,11.777,15.154,11.741,15.442z"/>
</svg>
