<?xml version="1.0" encoding="utf-8"?>
<!-- Generator: Adobe Illustrator 16.0.0, SVG Export Plug-In . SVG Version: 6.00 Build 0)  -->
<!DOCTYPE svg PUBLIC "-//W3C//DTD SVG 1.1//EN" "http://www.w3.org/Graphics/SVG/1.1/DTD/svg11.dtd">
<svg version="1.1" id="Layer_1" xmlns="http://www.w3.org/2000/svg" xmlns:xlink="http://www.w3.org/1999/xlink" x="0px" y="0px"
	 width="30px" height="30px" viewBox="0 0 30 30" enable-background="new 0 0 30 30" xml:space="preserve">
<path fill-rule="evenodd" clip-rule="evenodd" fill="#48689A" d="M6.979,7.301c-0.022-0.063-0.074-0.093-0.14-0.084
	C6.805,7.222,6.771,7.229,6.738,7.235C6.229,7.34,5.719,7.444,5.21,7.549C4.734,7.647,4.259,7.746,3.781,7.843
	C3.166,7.969,2.548,8.091,1.933,8.221C1.667,8.277,1.397,8.327,1.149,8.446C1.002,8.517,0.893,8.621,0.887,8.794
	C0.884,8.896,0.889,9.001,0.911,9.1c0.078,0.344,0.158,0.687,0.25,1.027c0.104,0.391,0.217,0.779,0.334,1.167
	c0.085,0.28,0.122,0.256,0.213,0.535c0.048,0.146,0.092,0.293,0.141,0.439c0.032,0.094,0.069,0.187,0.112,0.276
	c0.032,0.065,0.085,0.111,0.163,0.122c0.264,0.037,0.525,0.02,0.785-0.025c0.329-0.057,0.655-0.128,0.982-0.196
	c0.327-0.068,0.657-0.11,0.991-0.102C4.9,12.34,4.919,12.339,4.939,12.34c0.021,0.002,0.042-0.001,0.064,0.001
	c0.022,0.002,0.043,0.005,0.064,0.009c0.059-0.002,0.117,0.004,0.172,0.023c0.021,0.001,0.039,0.002,0.055,0.004
	c0.386,0.056,0.758,0.167,1.114,0.324c0.317,0.14,0.629,0.293,0.943,0.442c0.06,0.028,0.116,0.025,0.169-0.013
	c0.055-0.039,0.048-0.092,0.034-0.148c-0.106-0.437-0.211-0.874-0.318-1.31c-0.008-0.034-0.001-0.046,0.032-0.055
	c0.096-0.024,0.191-0.049,0.284-0.08c0.114-0.037,0.197-0.106,0.193-0.234c-0.005-0.127-0.022-0.254-0.043-0.379
	c-0.083-0.475-0.17-0.948-0.256-1.422c-0.072-0.4-0.076-0.502-0.159-0.901C7.207,8.212,7.11,7.824,7.019,7.434
	C7.007,7.389,6.994,7.345,6.979,7.301z M2.796,12.451c-0.127,0.023-0.36,0.038-0.495,0.027c-0.157-0.011-0.207-0.207-0.259-0.346
	c-0.059-0.149-0.057-0.169-0.106-0.322c-0.061-0.189-0.123-0.377-0.184-0.565c-0.07-0.219-0.082-0.135-0.14-0.356
	c-0.158-0.605-0.311-1.213-0.461-1.82c-0.018-0.07-0.016-0.147-0.008-0.219C1.162,8.702,1.264,8.62,1.396,8.58
	c0.117-0.038,0.24-0.062,0.363-0.087c0.583-0.118,1.167-0.234,1.751-0.35C3.942,8.056,4.373,7.97,4.804,7.882
	C5.182,7.805,5.56,7.725,5.939,7.649c0.172-0.034,0.345-0.067,0.518-0.087C6.667,7.54,6.78,7.622,6.845,7.812
	C6.9,7.977,6.939,8.15,6.974,8.32C7.053,8.707,7.12,9.095,7.203,9.48c0.057,0.261,0.07,0.217,0.133,0.478
	c0.058,0.244,0.099,0.492,0.103,0.743c0.003,0.144-0.007,0.289-0.062,0.425c-0.053,0.133-0.143,0.229-0.283,0.269
	c-0.076,0.021-0.123,0.06-0.114,0.147c0,0.007-0.005,0.018-0.011,0.023c-0.043,0.036-0.008,0.055,0.006,0.104
	c0.084,0.347,0.186,0.649,0.27,0.997l0.019,0.223c-0.003,0.003-0.006,0.006-0.01,0.009c-0.09-0.047-0.358-0.167-0.448-0.215
	c-0.351-0.19-0.69-0.267-1.065-0.414c-0.233-0.092-0.521-0.155-0.771-0.148c-0.279,0.007-0.36,0.02-0.634,0.07
	c-0.369,0.068-0.565,0.087-0.935,0.153"/>
<path fill-rule="evenodd" clip-rule="evenodd" fill="#00BDF2" d="M4.715,11.214c-0.612,0.148-1.224,0.294-1.834,0.446
	c-0.102,0.026-0.187-0.068-0.158-0.166c0.016-0.052,0.054-0.075,0.104-0.087c0.19-0.045,0.38-0.092,0.57-0.136
	c1.023-0.242,2.044-0.482,3.067-0.723c0.087-0.02,0.134-0.005,0.172,0.057c0.047,0.077,0.015,0.161-0.074,0.183
	c-0.294,0.072-0.589,0.142-0.883,0.212c-0.32,0.077-0.641,0.155-0.96,0.232C4.717,11.225,4.716,11.219,4.715,11.214z"/>
<path fill-rule="evenodd" clip-rule="evenodd" fill="#00BDF2" d="M4.039,9.27c-0.58,0.14-1.16,0.281-1.74,0.42
	C2.202,9.714,2.149,9.689,2.13,9.609C2.109,9.526,2.152,9.463,2.243,9.441c0.727-0.176,1.453-0.352,2.18-0.528
	c0.435-0.105,0.871-0.21,1.306-0.316C5.801,8.58,5.841,8.593,5.876,8.642c0.057,0.084,0.022,0.177-0.08,0.202
	c-0.58,0.141-1.159,0.281-1.739,0.421C4.051,9.266,4.044,9.268,4.039,9.27z"/>
<path fill-rule="evenodd" clip-rule="evenodd" fill="#00BDF2" d="M4.352,10.045c0.54-0.137,1.079-0.273,1.62-0.41
	C6.032,9.62,6.074,9.634,6.104,9.678c0.062,0.088,0.024,0.184-0.08,0.209C5.558,10,5.091,10.113,4.626,10.226
	c-0.599,0.145-1.197,0.29-1.795,0.434c-0.018,0.004-0.035,0.009-0.054,0.013c-0.091,0.021-0.151-0.009-0.169-0.086
	c-0.018-0.082,0.033-0.149,0.111-0.166c0.392-0.087,0.783-0.179,1.174-0.269c0.152-0.036,0.305-0.073,0.458-0.11
	C4.351,10.042,4.352,10.044,4.352,10.045z"/>
<path fill-rule="evenodd" clip-rule="evenodd" fill="#48689A" d="M23.511,6.744c-0.092,0.392-0.188,0.783-0.271,1.176
	c-0.082,0.4-0.001,0.104-0.075,0.507c-0.087,0.475-0.175,0.951-0.26,1.427c-0.022,0.126-0.039,0.253-0.046,0.38
	c-0.007,0.128,0.069,0.196,0.172,0.229c0.085,0.029,0.173,0.051,0.26,0.073c0.031,0.007,0.037,0.02,0.028,0.054
	c-0.106,0.438-0.21,0.878-0.315,1.317c-0.015,0.058-0.02,0.111,0.029,0.148c0.048,0.038,0.1,0.039,0.154,0.009
	c0.291-0.156,0.58-0.317,0.873-0.465c0.331-0.166,0.674-0.285,1.029-0.351c0.015-0.002,0.03-0.003,0.05-0.004
	c0.051-0.021,0.104-0.029,0.159-0.029c0.019-0.004,0.038-0.008,0.06-0.01c0.02-0.003,0.039-0.001,0.059-0.003
	c0.018-0.001,0.035-0.001,0.054,0.001c0.307-0.018,0.608,0.017,0.907,0.077c0.298,0.061,0.598,0.125,0.897,0.173
	c0.236,0.04,0.477,0.05,0.721,0.007c0.071-0.013,0.12-0.06,0.15-0.125c0.041-0.09,0.076-0.185,0.107-0.279
	c0.049-0.147,0.091-0.295,0.138-0.442c0.09-0.281,0.122-0.258,0.204-0.541c0.116-0.39,0.226-0.781,0.329-1.174
	c0.09-0.343,0.084-0.29,0.163-0.635c0.021-0.1,0.027-0.205,0.026-0.307c-0.002-0.172-0.103-0.274-0.235-0.342
	c-0.225-0.114-0.472-0.156-0.714-0.206c-0.562-0.115-1.128-0.222-1.69-0.334c-0.436-0.085-0.871-0.173-1.307-0.26
	c-0.466-0.093-0.932-0.185-1.396-0.277c-0.03-0.006-0.061-0.012-0.092-0.016c-0.062-0.007-0.108,0.024-0.13,0.088
	C23.533,6.655,23.521,6.7,23.511,6.744z M26.829,11.169c-0.337-0.058-0.518-0.072-0.854-0.131c-0.252-0.043-0.325-0.055-0.583-0.055
	c-0.229,0-0.494,0.069-0.71,0.167c-0.346,0.157-0.657,0.24-0.984,0.439c-0.082,0.051-0.332,0.177-0.415,0.226
	c-0.003-0.002-0.006-0.005-0.01-0.009l0.021-0.224c0.083-0.349,0.183-0.653,0.267-1.003c0.012-0.05,0.045-0.07,0.006-0.104
	c-0.006-0.005-0.011-0.017-0.011-0.024c0.013-0.086-0.033-0.124-0.1-0.144c-0.13-0.037-0.209-0.131-0.256-0.262
	c-0.05-0.135-0.056-0.279-0.051-0.423c0.008-0.252,0.052-0.5,0.108-0.746c0.062-0.262,0.074-0.217,0.131-0.48
	c0.082-0.387,0.065-0.379,0.145-0.767c0.035-0.171,0.074-0.345,0.128-0.512c0.063-0.192,0.17-0.277,0.36-0.258
	c0.159,0.015,0.317,0.044,0.475,0.074C24.843,7,25.188,7.072,25.534,7.139c0.394,0.078,0.788,0.155,1.182,0.231
	c0.535,0.103,1.068,0.204,1.603,0.308c0.11,0.022,0.224,0.044,0.333,0.077c0.118,0.038,0.212,0.118,0.226,0.265
	c0.007,0.071,0.006,0.148-0.012,0.219c-0.147,0.611-0.213,0.823-0.37,1.433c-0.058,0.223-0.066,0.139-0.134,0.359
	c-0.059,0.19-0.121,0.38-0.18,0.57c-0.048,0.153-0.047,0.175-0.103,0.324c-0.053,0.14-0.1,0.337-0.244,0.353
	c-0.124,0.013-0.337,0.004-0.455-0.015"/>
<path fill-rule="evenodd" clip-rule="evenodd" fill="#00BDF2" d="M26.175,8.265c-0.492-0.124-0.985-0.247-1.479-0.372
	c-0.055-0.014-0.095,0.001-0.123,0.046c-0.058,0.09-0.026,0.184,0.07,0.208c0.425,0.102,0.852,0.203,1.277,0.305
	c0.547,0.131,1.093,0.261,1.639,0.391c0.017,0.004,0.032,0.008,0.051,0.011c0.082,0.019,0.139-0.013,0.156-0.089
	c0.019-0.083-0.026-0.147-0.099-0.164c-0.358-0.078-0.715-0.159-1.073-0.24c-0.141-0.032-0.278-0.067-0.419-0.1
	C26.175,8.262,26.175,8.264,26.175,8.265z"/>
<path fill-rule="evenodd" clip-rule="evenodd" fill="#00BDF2" d="M26.001,8.967c-0.492-0.124-0.985-0.248-1.479-0.372
	c-0.055-0.014-0.094,0.001-0.123,0.046c-0.058,0.089-0.026,0.184,0.069,0.207c0.426,0.102,0.853,0.204,1.278,0.305
	c0.547,0.13,1.093,0.261,1.64,0.391c0.016,0.003,0.032,0.007,0.049,0.011c0.083,0.02,0.141-0.013,0.158-0.089
	c0.019-0.083-0.028-0.148-0.1-0.164c-0.358-0.079-0.716-0.159-1.073-0.241c-0.139-0.032-0.28-0.066-0.418-0.099
	C26.002,8.964,26.001,8.965,26.001,8.967z"/>
<path fill-rule="evenodd" clip-rule="evenodd" fill="#00BDF2" d="M25.996,9.906c-0.397-0.114-0.794-0.227-1.191-0.34
	c-0.046-0.012-0.076,0-0.099,0.038c-0.046,0.076-0.019,0.158,0.059,0.179c0.343,0.093,0.687,0.187,1.029,0.28
	c0.439,0.119,0.881,0.239,1.32,0.358c0.014,0.004,0.027,0.007,0.039,0.009c0.068,0.018,0.113-0.008,0.126-0.074
	c0.015-0.071-0.024-0.127-0.082-0.142c-0.288-0.072-0.576-0.146-0.864-0.221c-0.112-0.029-0.225-0.06-0.336-0.091
	C25.997,9.904,25.997,9.904,25.996,9.906z"/>
<path fill-rule="evenodd" clip-rule="evenodd" fill="#48689A" d="M17.047,18.293c1.532-0.451,2.019,0.444,2.019,0.444l0.462-0.062
	c-0.059-0.182-0.288-0.654-0.462-0.741c-0.197-0.097-0.362-0.156-0.579-0.185c-0.164-0.021-0.33-0.033-0.479-0.047
	c0.097-0.155,0.215-0.309,0.294-0.479c0.276-0.593,0.433-1.218,0.495-1.868c0.049-0.512,0-1.013-0.122-1.509
	c-0.118-0.486-0.312-0.948-0.554-1.387c-0.256-0.463-0.597-0.848-1.058-1.112c-0.752-0.43-1.549-0.472-2.371-0.262
	c-0.51,0.131-0.972,0.366-1.394,0.68c-0.722,0.539-1.182,1.249-1.393,2.124c-0.114,0.474-0.129,0.958-0.11,1.442
	c0.021,0.514,0.142,1,0.391,1.453c0.271,0.497,0.64,0.913,1.088,1.259c0.096,0.072,0.194,0.142,0.3,0.221
	c-0.022,0.005-0.036,0.011-0.049,0.012c-0.244,0.021-0.478,0.081-0.705,0.173 M18.107,16.484c-0.169,0.472-0.418,0.894-0.798,1.238
	c-0.269,0.243-0.498,0.443-0.848,0.52c-0.47,0.104-1.03,0.13-1.505,0.071c-1-0.119-1.779-0.64-2.226-1.555
	c-0.353-0.722-0.489-1.481-0.411-2.276c0.045-0.464,0.213-0.889,0.449-1.294c0.288-0.492,0.631-0.937,1.104-1.275
	c0.377-0.269,0.619-0.39,1.074-0.49c0.395-0.086,0.934-0.026,1.28,0.126c0.737,0.325,1.326,0.821,1.742,1.506
	c0.319,0.524,0.447,1.094,0.426,1.636C18.391,15.347,18.311,15.926,18.107,16.484z"/>
<path fill-rule="evenodd" clip-rule="evenodd" fill="#48689A" d="M18.701,19.635c-0.003,0.582-0.004,1.162-0.007,1.743
	c0,0.089-0.009,0.18-0.015,0.27c-0.005,0.073-0.047,0.109-0.116,0.117c-0.121,0.013-0.237-0.021-0.24-0.192
	c-0.002-0.331-0.02-0.662-0.021-0.993c-0.005-0.425,0-0.849,0.001-1.274c0-0.053,0.006-0.106,0.004-0.156
	c-0.003-0.05,0.021-0.067,0.066-0.074c0.09-0.013,0.175,0.007,0.25,0.054c0.027,0.018,0.051,0.062,0.056,0.098
	c0.015,0.134,0.022,0.271,0.03,0.409C18.707,19.635,18.703,19.635,18.701,19.635z"/>
<path fill-rule="evenodd" clip-rule="evenodd" fill="#48689A" d="M12.69,19.858c0.007-0.087,0.016-0.2,0.025-0.313
	c0.013-0.129,0.087-0.216,0.195-0.279c0.176-0.105,0.369-0.156,0.576-0.158c0.066,0,0.104,0.039,0.111,0.104
	c0.008,0.085-0.022,0.131-0.088,0.148c-0.105,0.033-0.212,0.062-0.314,0.106c-0.114,0.049-0.171,0.141-0.156,0.272
	c0.03,0.229,0.055,0.455,0.08,0.684c0.013,0.112,0.023,0.226,0.027,0.34c0.003,0.1-0.115,0.219-0.214,0.227
	c-0.055,0.003-0.112-0.049-0.125-0.132c-0.034-0.218-0.067-0.435-0.096-0.654C12.697,20.1,12.698,19.991,12.69,19.858z"/>
<path fill-rule="evenodd" clip-rule="evenodd" fill="#48689A" d="M14.232,27.008c-0.023,0-0.045,0-0.069-0.004
	c-0.155-0.03-0.22-0.101-0.132-0.234c0.252-0.387,0.5-0.777,0.757-1.162c0.079-0.117,0.171-0.226,0.264-0.332
	c0.065-0.076,0.137-0.073,0.212-0.008c0.11,0.097,0.115,0.156,0.032,0.28c-0.284,0.427-0.564,0.854-0.846,1.282
	c-0.025,0.038-0.048,0.08-0.081,0.112c-0.036,0.034-0.08,0.058-0.121,0.087C14.242,27.021,14.237,27.015,14.232,27.008z"/>
<path fill-rule="evenodd" clip-rule="evenodd" fill="#48689A" d="M14.888,26.872c0.108-0.173,0.196-0.324,0.294-0.47
	c0.158-0.234,0.321-0.465,0.487-0.694c0.041-0.059,0.083-0.135,0.18-0.084c0.095,0.048,0.143,0.129,0.1,0.229
	c-0.06,0.138-0.137,0.268-0.218,0.393c-0.13,0.2-0.271,0.395-0.406,0.593c-0.034,0.052-0.07,0.076-0.134,0.065
	C15.099,26.888,15.006,26.883,14.888,26.872z"/>
<path fill-rule="evenodd" clip-rule="evenodd" fill="#48689A" d="M16.719,25.801c0.032,0.004,0.064,0.008,0.096,0.013
	c0.087,0.018,0.12,0.063,0.085,0.142c-0.087,0.192-0.178,0.384-0.274,0.57c-0.069,0.133-0.15,0.26-0.231,0.386
	c-0.059,0.091-0.218,0.131-0.317,0.092c-0.064-0.026-0.078-0.078-0.055-0.136c0.145-0.348,0.307-0.686,0.537-0.986
	c0.034-0.044,0.097-0.066,0.147-0.1C16.711,25.788,16.715,25.794,16.719,25.801z"/>
<path fill-rule="evenodd" clip-rule="evenodd" fill="#48689A" d="M14.536,12.418c0.082,0.012,0.122,0.055,0.141,0.11
	c0.021,0.061,0.001,0.118-0.04,0.165c-0.021,0.022-0.047,0.042-0.076,0.058c-0.373,0.212-0.63,0.52-0.737,0.939
	c-0.058,0.223-0.103,0.45-0.152,0.675c-0.024,0.112-0.097,0.186-0.189,0.2c-0.155,0.023-0.254-0.052-0.276-0.219
	c-0.103-0.785,0.261-1.492,0.986-1.842C14.305,12.448,14.424,12.411,14.536,12.418z"/>
<g>
	<g>
		<path fill="#48689A" d="M18.562,26.527c-0.635,0.624-2.396,0.284-3.218,0.264c-0.816-0.021-2.033,0.088-2.219-0.901
			c-0.136-0.724-0.234-1.461-0.342-2.19c-0.162-1.102-0.394-2.181-0.503-3.29c-0.163-1.652,0.424-1.771,1.672-1.856
			c0.278-0.02,0.367-0.394,0.038-0.371c-0.787,0.055-1.89-0.159-2.274,0.702c-0.243,0.545,0.082,1.658,0.136,2.211
			c0.129,1.31,0.42,2.617,0.633,3.915c0.276,1.692,0.439,2.275,2.266,2.17c1.349-0.078,3.156,0.547,4.22-0.498
			C19.188,26.468,18.724,26.369,18.562,26.527L18.562,26.527z"/>
	</g>
</g>
<g>
	<g>
		<path fill="#48689A" d="M18.941,26.605c0.74-1.55,0.662-3.486,0.711-5.152c0.026-0.902,0.382-2.944-0.709-3.39
			c-0.109-0.044-0.547,0.13-0.396,0.191c1.083,0.442,0.626,3.201,0.604,3.986c-0.043,1.467-0.039,3.094-0.686,4.446
			C18.426,26.77,18.882,26.73,18.941,26.605L18.941,26.605z"/>
	</g>
</g>
<g>
	<g>
		<path fill="#48689A" d="M13.292,18.321c1.298,0.674,3.508,0.502,4.645-0.428c0.198-0.163-0.697-0.063-0.873,0.08
			c-0.681,0.558-2.128,0.403-2.86,0.023C13.957,17.869,13.189,18.268,13.292,18.321L13.292,18.321z"/>
	</g>
</g>
<g>
	<g>
		<path fill="#48689A" d="M13.542,18.109c-0.523,0.05-1.22-0.1-1.628,0.314c-0.385,0.39-0.233,1.067-0.173,1.539
			c0.021,0.161,0.506,0.052,0.483-0.129c-0.048-0.37-0.115-0.714-0.019-1.082c0.13-0.492,0.873-0.339,1.27-0.377
			C13.711,18.353,13.877,18.077,13.542,18.109L13.542,18.109z"/>
	</g>
</g>
<path fill-rule="evenodd" clip-rule="evenodd" fill="#48689A" d="M11.522,18.396c-0.008,0-0.013,0-0.021,0
	c-0.121,0.013-0.441-0.035-0.549-0.021c0.043-0.128,0.103-0.257,0.132-0.393c0.101-0.471,0.111-0.945,0.048-1.424
	c-0.049-0.375-0.167-0.727-0.334-1.063c-0.166-0.331-0.381-0.629-0.626-0.905c-0.26-0.291-0.568-0.511-0.944-0.626
	c-0.61-0.185-1.189-0.083-1.746,0.202c-0.344,0.178-0.636,0.422-0.887,0.717c-0.432,0.506-0.645,1.092-0.653,1.755
	C5.938,16.996,6.005,17.346,6.1,17.69c0.1,0.366,0.267,0.696,0.519,0.981c0.276,0.312,0.61,0.55,0.989,0.723
	c0.081,0.037,0.162,0.072,0.252,0.11c-0.015,0.007-0.024,0.014-0.033,0.016c-0.171,0.055-0.331,0.138-0.478,0.241l3.01-0.805
	c0.334-0.188,0.811-0.188,1.033-0.191C11.428,18.644,11.473,18.523,11.522,18.396z M10.823,17.484
	c-0.044,0.364-0.153,0.71-0.369,1.02c-0.153,0.219-0.364,0.363-0.603,0.475c-0.319,0.151-0.64,0.301-0.991,0.337
	c-0.737,0.078-1.383-0.169-1.854-0.751c-0.372-0.462-0.594-0.984-0.669-1.568c-0.043-0.341,0.007-0.673,0.11-1.002
	c0.125-0.401,0.299-0.777,0.583-1.097c0.227-0.255,0.382-0.382,0.692-0.529c0.269-0.127,0.665-0.173,0.939-0.12
	c0.583,0.112,1.087,0.372,1.499,0.796c0.316,0.323,0.502,0.712,0.575,1.104C10.839,16.62,10.878,17.049,10.823,17.484z"/>
<path fill-rule="evenodd" clip-rule="evenodd" fill="#48689A" d="M7.486,20.797c-0.008-0.065-0.021-0.147-0.031-0.229
	c-0.013-0.095,0.025-0.169,0.092-0.232c0.11-0.106,0.241-0.174,0.389-0.208c0.046-0.012,0.08,0.011,0.096,0.056
	c0.02,0.061,0.007,0.097-0.037,0.122c-0.072,0.04-0.144,0.079-0.208,0.126c-0.076,0.056-0.102,0.131-0.068,0.224
	c0.059,0.157,0.114,0.316,0.17,0.477c0.027,0.08,0.053,0.159,0.074,0.24c0.017,0.071-0.047,0.176-0.118,0.197
	c-0.039,0.013-0.087-0.016-0.111-0.073c-0.06-0.152-0.12-0.302-0.175-0.453C7.531,20.968,7.513,20.891,7.486,20.797z"/>
<path fill-rule="evenodd" clip-rule="evenodd" fill="#48689A" d="M7.444,15.175c0.056-0.008,0.089,0.01,0.114,0.042
	c0.027,0.034,0.027,0.076,0.01,0.115c-0.01,0.02-0.024,0.038-0.038,0.054c-0.198,0.217-0.3,0.47-0.281,0.766
	c0.01,0.157,0.028,0.312,0.042,0.47c0.008,0.078-0.022,0.142-0.08,0.17c-0.096,0.048-0.176,0.021-0.226-0.085
	c-0.232-0.488-0.145-1.023,0.253-1.405C7.3,15.244,7.371,15.193,7.444,15.175z"/>
<g>
	<g>
		<path fill="#48689A" d="M11.893,25.059c-0.469,0.063-0.91,0.188-1.364,0.324c-1.583,0.475-1.834-0.875-2.286-1.891
			c-0.561-1.263-2.096-3.167-0.042-3.833c0.287-0.093,0.214-0.386-0.078-0.291c-0.495,0.16-1.257,0.213-1.544,0.728
			c-0.446,0.8,0.683,2.495,1.008,3.154c0.297,0.602,0.545,1.226,0.778,1.854c0.127,0.342,0.111,0.505,0.497,0.631
			c1.032,0.339,1.957-0.224,2.978-0.36C12.092,25.341,12.225,25.015,11.893,25.059L11.893,25.059z"/>
	</g>
</g>
<g>
	<g>
		<path fill="#48689A" d="M7.95,19.535c1.046,0.137,2.353-0.125,3.062-0.98c0.187-0.226-0.279-0.235-0.393-0.098
			c-0.59,0.712-1.619,0.894-2.487,0.781C7.93,19.212,7.625,19.493,7.95,19.535L7.95,19.535z"/>
	</g>
</g>
<path fill-rule="evenodd" clip-rule="evenodd" fill="#48689A" d="M25.219,15.496c-0.075-0.689-0.358-1.277-0.858-1.759
	c-0.292-0.282-0.621-0.506-0.998-0.656c-0.608-0.24-1.223-0.286-1.839-0.03c-0.379,0.157-0.677,0.418-0.917,0.746
	c-0.228,0.312-0.422,0.646-0.561,1.007c-0.14,0.368-0.227,0.746-0.238,1.142c-0.017,0.504,0.042,0.997,0.195,1.477
	c0.044,0.137,0.118,0.266,0.179,0.395c-0.115-0.002-0.507,0.03-0.635,0.03c-0.091,0-0.172,0.01-0.251,0.026
	c0.101,0.112,0.188,0.235,0.26,0.367c0.25-0.051,0.854-0.073,1.303,0.123l3.215,0.529c-0.165-0.092-0.338-0.161-0.521-0.201
	c-0.01-0.001-0.019-0.008-0.036-0.015c0.088-0.048,0.171-0.091,0.251-0.14c0.377-0.22,0.699-0.501,0.955-0.854
	c0.233-0.32,0.374-0.683,0.438-1.072C25.224,16.239,25.258,15.869,25.219,15.496z M24.308,17.61
	c-0.432,0.655-1.078,0.977-1.853,0.973c-0.37-0.004-0.719-0.126-1.068-0.25c-0.259-0.092-0.492-0.222-0.673-0.432
	c-0.257-0.302-0.406-0.65-0.49-1.025c-0.102-0.447-0.105-0.897-0.043-1.399c0.035-0.416,0.188-0.839,0.482-1.208
	c0.386-0.484,0.884-0.807,1.48-0.983c0.278-0.083,0.696-0.075,0.99,0.029c0.338,0.121,0.512,0.237,0.773,0.48
	c0.328,0.304,0.548,0.676,0.72,1.082c0.142,0.333,0.228,0.673,0.218,1.033C24.825,16.525,24.648,17.092,24.308,17.61z"/>
<path fill-rule="evenodd" clip-rule="evenodd" fill="#48689A" d="M24.036,19.984c0.003-0.069,0.008-0.157,0.011-0.244
	c0.004-0.1-0.045-0.172-0.119-0.23c-0.127-0.1-0.27-0.157-0.428-0.178c-0.049-0.008-0.082,0.02-0.095,0.069
	c-0.014,0.063,0.005,0.101,0.052,0.122c0.078,0.034,0.159,0.067,0.23,0.111c0.083,0.05,0.117,0.124,0.094,0.224
	c-0.044,0.17-0.087,0.342-0.129,0.514c-0.02,0.086-0.038,0.172-0.052,0.258c-0.013,0.077,0.066,0.178,0.141,0.194
	c0.042,0.008,0.091-0.026,0.108-0.088c0.049-0.163,0.095-0.327,0.138-0.49C24.007,20.166,24.018,20.085,24.036,19.984z"/>
<path fill-rule="evenodd" clip-rule="evenodd" fill="#48689A" d="M23.098,13.796c-0.06,0.015-0.087,0.048-0.099,0.09
	c-0.013,0.047,0.005,0.088,0.04,0.12c0.016,0.016,0.038,0.029,0.06,0.039c0.29,0.137,0.498,0.351,0.603,0.657
	c0.055,0.163,0.102,0.329,0.15,0.493c0.025,0.082,0.083,0.133,0.152,0.139c0.117,0.008,0.188-0.053,0.194-0.18
	c0.03-0.589-0.279-1.095-0.84-1.314C23.271,13.805,23.18,13.784,23.098,13.796z"/>
<g>
	<g>
		<path fill="#48689A" d="M19.704,25.137c0.802,0.048,2.223,0.641,2.963,0.351c0.804-0.314,1.059-1.279,1.218-2.025
			c0.27-1.267,0.912-2.435,1.051-3.72c0.114-1.058-0.83-0.989-1.581-1.14c-0.128-0.025-0.564,0.178-0.305,0.23
			c0.188,0.045,0.379,0.075,0.572,0.092c1.149,0.144,0.861,0.992,0.693,1.728c-0.176,0.769-0.607,1.444-0.782,2.217
			c-0.171,0.755-0.236,1.472-0.684,2.132c-0.367,0.543-2.283-0.062-2.841-0.095C19.883,24.898,19.447,25.121,19.704,25.137
			L19.704,25.137z"/>
	</g>
</g>
<g>
	<g>
		<path fill="#48689A" d="M23.223,18.479c-0.774,0.26-2.051-0.075-2.618-0.655c-0.161-0.164-0.617,0.039-0.441,0.219
			c0.718,0.732,2.174,1.115,3.153,0.786C23.607,18.731,23.52,18.38,23.223,18.479L23.223,18.479z"/>
	</g>
</g>
<g>
	<g>
		<path fill="#48689A" d="M23.37,18.758c0.349,0.077,0.922,0.02,1.06,0.413c0.119,0.34,0.04,0.797-0.029,1.138
			c-0.02,0.095,0.452,0.021,0.475-0.09c0.079-0.388,0.118-0.786,0.038-1.177c-0.094-0.451-0.804-0.388-1.145-0.464
			C23.66,18.555,23.244,18.729,23.37,18.758L23.37,18.758z"/>
	</g>
</g>
</svg>
