<?xml version="1.0" encoding="utf-8"?>
<!-- Generator: Adobe Illustrator 16.0.0, SVG Export Plug-In . SVG Version: 6.00 Build 0)  -->
<!DOCTYPE svg PUBLIC "-//W3C//DTD SVG 1.1//EN" "http://www.w3.org/Graphics/SVG/1.1/DTD/svg11.dtd">
<svg version="1.1" id="Layer_1" xmlns="http://www.w3.org/2000/svg" xmlns:xlink="http://www.w3.org/1999/xlink" x="0px" y="0px"
	 width="30px" height="30px" viewBox="0 0 30 30" enable-background="new 0 0 30 30" xml:space="preserve">
<path fill="#00BDF2" d="M22.19,21.254c0.038,1.234,0.081,2.471,0.116,3.703c0.004,0.19-0.006,0.382-0.01,0.574
	c-0.006,0.156-0.092,0.238-0.24,0.257c-0.256,0.034-0.506-0.024-0.521-0.391c-0.037-0.704-0.094-1.405-0.124-2.107
	c-0.039-0.903-0.062-1.805-0.093-2.71c-0.002-0.109,0.003-0.224-0.004-0.332c-0.01-0.104,0.039-0.142,0.134-0.161
	c0.192-0.036,0.376,0,0.535,0.097c0.064,0.035,0.115,0.123,0.127,0.199c0.041,0.289,0.065,0.578,0.097,0.869
	C22.208,21.252,22.198,21.253,22.19,21.254z"/>
<path fill="#00BDF2" d="M10.673,18.319c0.114-0.063,0.237-0.122,0.362-0.148c0.091-0.021,0.139-0.173,0.133-0.4
	c-0.002-0.098-0.058-0.161-0.1-0.233c-0.042-0.041-0.084-0.079-0.132-0.09c-0.034-0.006-0.071,0.007-0.1,0.015
	c-0.023,0.007-0.049,0.012-0.071,0.022c-0.009,0.003-0.021,0.009-0.029,0.01c-0.017,0.011-0.033,0.01-0.049,0.014
	c-0.009,0.005-0.015,0.008-0.024,0.01c-0.018,0.004-0.034,0.01-0.05,0.013c-0.115,0.034-0.224,0.084-0.333,0.134
	c-0.16,0.074-0.313,0.158-0.465,0.247c-0.183,0.104-0.327,0.264-0.51,0.405c-0.837,0.644-0.812,2.083-0.824,2.229
	c-0.013,0.146-0.037,0.617,0.044,0.735c0.081,0.112,0.299,0.1,0.354,0.059c0.056-0.038,0.271-0.074,0.259-0.491
	c-0.015-0.416,0.073-0.917,0.165-1.289c0.089-0.376,0.421-0.697,0.719-0.875c0.142-0.086,0.448-0.281,0.6-0.346
	C10.639,18.331,10.657,18.323,10.673,18.319z"/>
<path fill="#00BDF2" d="M14.716,0.346c0,0,2.448-0.207,4.181,1.955c1.733,2.164,1.808,5.133,1.731,5.812
	c-0.071,0.678-0.562,2.902-1.038,3.66c-0.554,0.876-1.08,1.5-2.552,1.875c-1.471,0.375-2.112,0.47-3.456,0.292
	c-1.344-0.178-2.619-0.408-3.231-0.98c-0.611-0.571-2.64-2.312-2.433-5.793c0.209-3.483,2.154-4.908,2.444-5.136
	C10.657,1.798,12.527,0.278,14.716,0.346z M10.853,2.871C10.598,3.07,8.939,4.169,8.759,7.175c-0.184,3.003,1.332,4.161,1.866,4.651
	c0.533,0.491,1.893,1.01,3.063,1.163c1.169,0.152,1.534,0.136,2.816-0.186c1.282-0.324,1.687-1.147,2.187-1.737
	c0.699-0.821,1.072-2.52,1.136-3.103c0.062-0.585,0.247-2.642-1.284-4.487c-1.963-2.361-3.867-2.211-3.867-2.211
	C12.771,1.206,11.106,2.669,10.853,2.871z"/>
<path fill="#00BDF2" d="M24.903,23.86c-0.04-0.874-0.212-2.277-0.527-3.436c-0.316-1.158-0.399-1.744-0.797-2.394
	c-0.672-1.101-1.135-1.576-1.953-2.27c-0.82-0.694-2.459-1.198-2.681-1.269c-0.22-0.074-0.268-0.075-1.754,0.954
	c-0.701,0.484-2.237,0.58-2.237,0.58s-0.083-0.008-0.12-0.006c-0.349,0.019-0.638-0.022-0.982-0.085
	c-0.402-0.074-0.799-0.18-1.19-0.302c-0.329-0.104-0.657-0.217-0.973-0.357c-0.098-0.044-0.2-0.093-0.292-0.15
	c-0.142-0.087-0.303-0.254-0.484-0.239c-0.085,0.006-0.175,0.061-0.249,0.1c-0.056,0.031-0.119,0.056-0.173,0.093
	c-0.025,0.018-0.048,0.043-0.072,0.059c-0.04,0.025-0.084,0.035-0.121,0.058c-0.021,0.017-0.035,0.031-0.06,0.042
	c-0.041,0.021-0.082,0.039-0.119,0.062c-0.289,0.16-0.557,0.357-0.82,0.556c-0.385,0.29-0.755,0.602-1.118,0.923
	c-0.438,0.386-0.769,0.879-1.201,1.356c-1.623,1.796-1.124,5.714-1.125,6.092c0,0.656,0.021,1.326,0.174,1.964
	c0.086,0.357,0.366,0.744,0.622,1.011c0.208,0.219,0.444,0.408,0.692,0.58c0.646,0.45,1.371,0.781,2.112,1.042
	c1.709,0.601,3.556,0.846,5.365,0.836c1.496-0.008,3-0.116,4.468-0.408c1.36-0.276,2.721-0.707,3.902-1.445
	c0.367-0.228,0.718-0.488,1.029-0.786c0.141-0.13,0.258-0.27,0.376-0.416c0.148-0.181,0.326-0.31,0.401-0.543
	c0.069-0.22,0.056-0.461,0.02-0.689C24.938,24.89,24.925,24.354,24.903,23.86z M14.82,28.539c-1.766,0.039-3.536-0.273-5.17-0.941
	c-0.604-0.248-1.189-0.541-1.741-0.889c-0.165-0.106-0.329-0.217-0.489-0.331c-0.332-0.234-0.287-0.503-0.295-0.882
	c-0.008-0.366-0.059-0.736-0.103-1.1c-0.126-1.053-0.251-2.481-0.106-3.489c0.15-1.007,0.818-2.356,1.533-3.001
	c0.339-0.306,1.072-0.998,1.444-1.265c0.31-0.219,0.629-0.37,0.937-0.591c0.095-0.065,0.06-0.097,0.183-0.077
	c0.032,0.006,0.295,0.123,0.384,0.178c0.043,0.029,0.088,0.053,0.135,0.072c0.178,0.089,0.409,0.162,0.598,0.224
	c0.349,0.113,0.472,0.135,0.873,0.196c0.423,0.064,0.854,0.045,1.28,0.095c3.173,0.368,4.381-1.071,4.538-1.292
	c0.159-0.221,1.104,0.472,1.94,0.979c0.835,0.5,1.558,1.259,2.188,2.342c0.631,1.083,0.79,4.338,0.82,5.156
	c0.017,0.374,0.031,0.755,0.05,1.131c0.013,0.254,0.092,0.519,0.051,0.771c-0.032,0.197-0.141,0.232-0.29,0.336
	c-0.161,0.115-0.316,0.222-0.483,0.321c-0.522,0.309-1.075,0.564-1.64,0.787c-1.834,0.731-3.808,1.11-5.772,1.231
	C15.396,28.52,15.109,28.532,14.82,28.539z"/>
</svg>
