<?xml version="1.0" encoding="utf-8"?>
<!-- Generator: Adobe Illustrator 16.0.0, SVG Export Plug-In . SVG Version: 6.00 Build 0)  -->
<!DOCTYPE svg PUBLIC "-//W3C//DTD SVG 1.1//EN" "http://www.w3.org/Graphics/SVG/1.1/DTD/svg11.dtd">
<svg version="1.1" id="Layer_1" xmlns="http://www.w3.org/2000/svg" xmlns:xlink="http://www.w3.org/1999/xlink" x="0px" y="0px"
	 width="30px" height="30px" viewBox="0 0 30 30" enable-background="new 0 0 30 30" xml:space="preserve">
<ellipse opacity="0.4" fill="#CAD4E8" cx="15" cy="15.144" rx="13.834" ry="13.997"/>
<g>
	<path fill="#48689A" d="M16.362,25.52c-0.712-0.046-1.422-0.085-2.133-0.143c-0.191-0.015-0.384-0.075-0.567-0.138
		c-0.18-0.062-0.237-0.215-0.239-0.396c-0.004-0.436-0.014-0.872-0.021-1.31c-0.001-0.022-0.001-0.044-0.002-0.066
		c-0.015-0.179-0.063-0.322-0.273-0.369c-0.314-0.07-0.623-0.164-0.935-0.241c-0.125-0.03-0.238,0.011-0.335,0.1
		c-0.247,0.222-0.495,0.443-0.747,0.658c-0.068,0.058-0.154,0.098-0.234,0.14c-0.22,0.109-0.43,0.061-0.618-0.073
		c-0.245-0.174-0.493-0.349-0.712-0.552c-0.392-0.365-0.767-0.751-1.146-1.132c-0.061-0.061-0.109-0.137-0.157-0.209
		c-0.159-0.237-0.161-0.473-0.012-0.723c0.184-0.312,0.351-0.633,0.525-0.949c0.134-0.24,0.109-0.46-0.064-0.678
		c-0.179-0.224-0.353-0.45-0.647-0.522c-0.115-0.028-0.243-0.018-0.363-0.026c-0.27-0.018-0.54-0.025-0.807-0.06
		c-0.211-0.026-0.341-0.168-0.39-0.374c-0.171-0.734-0.345-1.468-0.502-2.205c-0.05-0.232-0.051-0.475-0.079-0.713
		c-0.019-0.179,0.056-0.304,0.213-0.381c0.364-0.176,0.726-0.358,1.095-0.522c0.182-0.081,0.379-0.128,0.568-0.193
		c0.143-0.047,0.208-0.14,0.232-0.296c0.052-0.335,0.121-0.667,0.291-0.971c0.129-0.233,0.093-0.304-0.131-0.46
		c-0.309-0.212-0.617-0.428-0.91-0.661c-0.205-0.164-0.377-0.365-0.42-0.643c-0.023-0.148,0.003-0.287,0.096-0.409
		c0.154-0.201,0.299-0.41,0.461-0.602c0.336-0.398,0.649-0.808,0.872-1.284c0.084-0.182,0.225-0.341,0.359-0.495
		c0.254-0.294,0.584-0.338,0.945-0.258c0.327,0.074,0.635,0.199,0.912,0.382c0.291,0.194,0.578,0.22,0.884,0.06
		c0.305-0.158,0.64-0.193,0.97-0.253c0.025-0.005,0.052-0.006,0.078-0.011c0.225-0.049,0.249-0.087,0.247-0.317
		c-0.002-0.384-0.002-0.768,0.007-1.151c0.003-0.107,0.038-0.215,0.071-0.318c0.056-0.182,0.188-0.291,0.367-0.338
		c0.488-0.129,0.976-0.266,1.467-0.381c0.467-0.109,0.938-0.202,1.41-0.291c0.461-0.089,0.928-0.137,1.387,0.013
		c0.49,0.16,0.723,0.471,0.749,0.985c0.019,0.397,0.027,0.795,0.059,1.19c0.014,0.182,0.051,0.363,0.102,0.538
		c0.063,0.213,0.19,0.243,0.344,0.081c0.136-0.146,0.247-0.316,0.383-0.464c0.208-0.229,0.423-0.451,0.641-0.671
		c0.219-0.219,0.471-0.26,0.736-0.095c0.473,0.293,0.947,0.588,1.412,0.895c0.323,0.215,0.649,0.432,0.874,0.76
		c0.139,0.202,0.262,0.412,0.279,0.666c0.007,0.125-0.031,0.226-0.099,0.33c-0.208,0.326-0.405,0.66-0.607,0.992
		c-0.074,0.121-0.058,0.229,0.032,0.345c0.203,0.262,0.39,0.538,0.489,0.86c0.046,0.149,0.081,0.302,0.127,0.453
		c0.052,0.17,0.162,0.26,0.346,0.287c0.372,0.054,0.739,0.125,1.106,0.198c0.174,0.034,0.29,0.156,0.329,0.321
		c0.063,0.266,0.131,0.536,0.148,0.807c0.04,0.553,0.049,1.109,0.069,1.663c0.003,0.091,0,0.186-0.006,0.276
		c-0.018,0.243-0.119,0.382-0.354,0.441c-0.317,0.082-0.636,0.153-0.956,0.216c-0.163,0.032-0.297,0.083-0.379,0.24
		c-0.192,0.37-0.395,0.735-0.587,1.105c-0.081,0.159-0.061,0.291,0.07,0.437c0.284,0.312,0.545,0.647,0.81,0.977
		c0.131,0.164,0.142,0.334,0.031,0.528c-0.442,0.786-0.872,1.579-1.312,2.367c-0.043,0.079-0.102,0.152-0.162,0.221
		c-0.135,0.152-0.304,0.195-0.499,0.134c-0.307-0.096-0.617-0.184-0.92-0.29c-0.108-0.039-0.2-0.12-0.301-0.181
		c-0.114-0.069-0.229-0.089-0.335,0.017c-0.351,0.349-0.797,0.523-1.249,0.688c-0.299,0.109-0.599,0.217-0.898,0.321
		c-0.108,0.037-0.144,0.102-0.146,0.225c-0.006,0.5-0.027,1.002-0.051,1.502c-0.004,0.085-0.036,0.172-0.066,0.252
		c-0.042,0.111-0.121,0.17-0.252,0.167c-0.322-0.007-0.646-0.002-0.969-0.002C16.362,25.533,16.362,25.526,16.362,25.52z
		 M16.656,23.683L16.656,23.683c0.001-0.215,0.009-0.428-0.002-0.643c-0.013-0.22,0.084-0.365,0.282-0.435
		c0.27-0.096,0.543-0.189,0.821-0.255c0.779-0.181,1.468-0.514,2.019-1.11c0.183-0.199,0.229-0.205,0.462-0.072
		c0.324,0.187,0.64,0.391,0.958,0.587c0.178,0.108,0.211,0.112,0.332-0.062c0.149-0.214,0.286-0.437,0.418-0.661
		c0.136-0.233,0.251-0.479,0.393-0.71c0.162-0.264,0.175-0.434-0.081-0.732c-0.188-0.224-0.403-0.425-0.619-0.62
		c-0.151-0.135-0.189-0.29-0.173-0.48c0.023-0.274,0.141-0.506,0.271-0.741c0.281-0.517,0.553-1.039,0.826-1.56
		c0.063-0.121,0.156-0.179,0.287-0.192c0.217-0.021,0.435-0.049,0.652-0.072c0.417-0.041,0.433-0.053,0.401-0.475
		c-0.033-0.434-0.08-0.868-0.122-1.303c-0.01-0.125-0.068-0.22-0.195-0.248c-0.183-0.041-0.366-0.083-0.553-0.096
		c-0.172-0.012-0.324-0.057-0.464-0.152c-0.098-0.067-0.188-0.144-0.287-0.205c-0.246-0.15-0.333-0.386-0.393-0.65
		c-0.04-0.176-0.092-0.359-0.188-0.509c-0.186-0.294-0.401-0.57-0.611-0.848c-0.097-0.127-0.152-0.264-0.09-0.413
		c0.059-0.143,0.127-0.29,0.227-0.406c0.158-0.185,0.345-0.346,0.521-0.516c0.194-0.188,0.223-0.416,0.062-0.633
		c-0.074-0.099-0.176-0.178-0.275-0.258c-0.361-0.294-0.721-0.592-1.092-0.875c-0.207-0.158-0.258-0.146-0.427,0.051
		C19.7,8.757,19.435,9.16,19.214,9.594c-0.043,0.086-0.13,0.17-0.216,0.214c-0.212,0.104-0.445,0.114-0.658,0.009
		c-0.264-0.131-0.514-0.293-0.77-0.44c-0.252-0.143-0.341-0.363-0.344-0.644c-0.008-0.576-0.026-1.153-0.045-1.729
		c-0.007-0.233-0.14-0.388-0.371-0.392c-0.295-0.004-0.593,0.003-0.887,0.039c-0.319,0.038-0.636,0.106-0.951,0.176
		c-0.366,0.081-0.729,0.175-1.093,0.264c-0.141,0.034-0.214,0.123-0.216,0.27c-0.002,0.143-0.014,0.288-0.006,0.432
		c0.018,0.332,0.046,0.662,0.066,0.994c0.01,0.193-0.024,0.254-0.208,0.311c-0.14,0.044-0.289,0.065-0.436,0.081
		c-0.56,0.062-1.112,0.148-1.564,0.521c-0.255,0.209-0.517,0.212-0.803,0.079c-0.351-0.163-0.708-0.316-1.062-0.471
		C9.442,9.217,9.307,9.244,9.164,9.422C9.077,9.53,9.007,9.652,8.939,9.773c-0.117,0.209-0.208,0.433-0.341,0.628
		c-0.143,0.207-0.318,0.393-0.485,0.583c-0.158,0.178-0.175,0.346-0.015,0.522c0.102,0.112,0.225,0.202,0.344,0.298
		c0.265,0.217,0.536,0.431,0.799,0.65c0.05,0.041,0.087,0.099,0.121,0.155c0.108,0.18,0.005,0.334-0.069,0.491
		c-0.081,0.169-0.183,0.33-0.242,0.504c-0.117,0.349-0.112,0.713-0.111,1.076c0.003,0.259-0.103,0.362-0.354,0.431
		c-0.504,0.137-1.001,0.296-1.503,0.444c-0.149,0.043-0.192,0.142-0.184,0.287c0.038,0.671,0.187,1.319,0.391,1.957
		c0.062,0.193,0.187,0.273,0.375,0.281c0.114,0.004,0.227,0.002,0.341,0.002c0.166,0.002,0.334-0.014,0.498,0.012
		c0.132,0.021,0.278,0.062,0.381,0.143c0.404,0.321,0.726,0.715,0.985,1.161c0.116,0.202,0.144,0.415,0.028,0.623
		c-0.197,0.354-0.396,0.707-0.61,1.05c-0.092,0.147-0.097,0.266,0.006,0.403c0.284,0.381,0.632,0.696,1.013,0.979
		c0.2,0.149,0.393,0.148,0.59,0.008c0.188-0.136,0.371-0.277,0.557-0.414c0.253-0.189,0.536-0.226,0.833-0.141
		c0.234,0.068,0.462,0.154,0.695,0.228c0.385,0.124,0.772,0.244,1.158,0.364c0.122,0.039,0.207,0.108,0.22,0.246
		c0.01,0.117,0.039,0.233,0.04,0.351c0.003,0.362-0.004,0.726-0.004,1.088c0,0.172,0.041,0.225,0.204,0.27
		c0.046,0.014,0.092,0.029,0.14,0.033c0.57,0.039,1.141,0.079,1.712,0.112c0.166,0.01,0.2-0.023,0.205-0.194
		C16.659,24.163,16.656,23.923,16.656,23.683z"/>
	<path fill="#48689A" d="M15.317,18.309c-0.493,0.005-1.003-0.081-1.472-0.331c-0.549-0.291-0.895-0.767-1.117-1.335
		c-0.202-0.517-0.28-1.05-0.169-1.605c0.071-0.353,0.236-0.652,0.461-0.925c0.563-0.684,1.281-1.111,2.138-1.328
		c0.3-0.076,0.565-0.065,0.817,0.117c0.214,0.156,0.465,0.178,0.719,0.201c0.552,0.05,0.948,0.348,1.229,0.811
		c0.238,0.394,0.352,0.83,0.415,1.283c0.052,0.357,0.056,0.711,0.004,1.069c-0.107,0.744-0.492,1.279-1.161,1.617
		C16.604,18.173,15.995,18.312,15.317,18.309z M15.517,17.342c0.229-0.029,0.459-0.045,0.686-0.09
		c0.69-0.135,1.059-0.746,1.133-1.228c0.062-0.378,0-0.745-0.093-1.112c-0.09-0.348-0.272-0.627-0.528-0.868
		c-0.261-0.244-0.531-0.453-0.913-0.445c-0.166,0.004-0.337-0.026-0.495,0.007c-0.555,0.12-1.009,0.421-1.377,0.849
		c-0.195,0.226-0.313,0.487-0.326,0.794c-0.013,0.318,0.011,0.629,0.12,0.928c0.16,0.441,0.423,0.796,0.868,0.994
		C14.887,17.304,15.199,17.317,15.517,17.342z"/>
	<path fill="#48689A" d="M21.865,13.995c-0.056,0.283-0.105,0.569-0.171,0.852c-0.027,0.115-0.108,0.207-0.243,0.202
		c-0.131-0.006-0.201-0.104-0.233-0.216c-0.027-0.102-0.062-0.219-0.04-0.317c0.107-0.506,0.021-0.981-0.216-1.432
		c-0.264-0.503-0.617-0.929-1.13-1.196c-0.116-0.059-0.243-0.098-0.366-0.138c-0.149-0.046-0.229-0.125-0.233-0.246
		c-0.006-0.136,0.07-0.251,0.208-0.298c0.245-0.083,0.474-0.006,0.69,0.104c0.458,0.233,0.77,0.624,1.062,1.028
		c0.243,0.335,0.453,0.693,0.567,1.098C21.811,13.612,21.83,13.798,21.865,13.995z"/>
	<path fill="#48689A" d="M11.107,15.279c0.042-0.314,0.055-0.636,0.13-0.942c0.089-0.366,0.321-0.667,0.564-0.946
		c0.165-0.191,0.349-0.367,0.535-0.536c0.127-0.114,0.273-0.104,0.408-0.001c0.128,0.096,0.135,0.185,0.026,0.304
		c-0.288,0.306-0.547,0.633-0.75,1.003c-0.199,0.364-0.292,0.746-0.211,1.158c0.052,0.275,0.103,0.549,0.157,0.824
		c0.001,0.008,0.003,0.016,0.006,0.023c0.052,0.252-0.014,0.412-0.187,0.453c-0.216,0.052-0.48-0.088-0.53-0.3
		c-0.05-0.207-0.081-0.418-0.105-0.629c-0.016-0.134-0.002-0.271-0.002-0.406C11.134,15.282,11.12,15.282,11.107,15.279z"/>
</g>
</svg>
