<?xml version="1.0" encoding="utf-8"?>
<!-- Generator: Adobe Illustrator 16.0.0, SVG Export Plug-In . SVG Version: 6.00 Build 0)  -->
<!DOCTYPE svg PUBLIC "-//W3C//DTD SVG 1.1//EN" "http://www.w3.org/Graphics/SVG/1.1/DTD/svg11.dtd">
<svg version="1.1" id="Layer_1" xmlns="http://www.w3.org/2000/svg" xmlns:xlink="http://www.w3.org/1999/xlink" x="0px" y="0px"
	 width="30px" height="30px" viewBox="0 0 30 30" enable-background="new 0 0 30 30" xml:space="preserve">
<circle fill="#E6E3E3" cx="15" cy="14.958" r="14.256"/>
<path fill="#FFFFFF" d="M13.832,9.039c0.328,0.071,0.613,0.132,0.896,0.193c0.227,0.049,0.454,0.102,0.681,0.151
	c0.082,0.018,0.165,0.024,0.245,0.044c0.096,0.023,0.191,0.051,0.285,0.082c0.095,0.03,0.132,0.109,0.146,0.207
	c0.03,0.2,0.014,0.401-0.018,0.599c-0.028,0.194-0.063,0.387-0.104,0.579c-0.078,0.37-0.113,0.745-0.15,1.12
	c-0.028,0.268-0.056,0.537-0.084,0.806c-0.028,0.274-0.055,0.55-0.088,0.824c-0.037,0.301-0.07,0.602-0.117,0.902
	c-0.078,0.491-0.156,0.982-0.254,1.47c-0.078,0.389-0.177,0.773-0.281,1.156c-0.084,0.315-0.188,0.626-0.291,0.937
	c-0.068,0.203-0.155,0.4-0.231,0.602c-0.006,0.014-0.006,0.031-0.003,0.047c0.014,0.097,0.021,0.331-0.071,0.343
	c-0.196,0.018-0.185,0.037-0.382,0.04c-0.769,0.015-1.738-0.213-2.483-0.377c-0.577-0.128-1.1-0.217-1.682-0.327
	c-0.335-0.062-0.753-0.232-1.091-0.276c-0.281-0.035-0.562-0.082-0.834-0.169c-0.12-0.039-0.236-0.093-0.354-0.144
	c-0.074-0.033-0.088-0.108-0.1-0.183c-0.055-0.343,0.074-0.688,0.118-1.032c0.058-0.455,0.005-0.908,0.065-1.362
	c0.035-0.25,0.059-0.5,0.092-0.75c0.055-0.397,0.107-0.793,0.172-1.188c0.105-0.644,0.218-1.286,0.334-1.928
	c0.052-0.284,0.133-0.561,0.248-0.826c0.19-0.439,0.479-0.781,0.895-1.002c0.347-0.184,0.688-0.377,1.038-0.556
	c0.304-0.156,0.623-0.277,0.957-0.347c0.233-0.049,0.467-0.045,0.698-0.002c0.273,0.051,0.543,0.117,0.815,0.174
	C13.226,8.914,13.551,8.98,13.832,9.039z"/>
<g>
	<g>
		<path fill-rule="evenodd" clip-rule="evenodd" fill="#3C5884" d="M14.564,19.085c-0.037,0.122-0.186,0.115-0.186,0.115
			c-0.205,0.02-0.262,0.026-0.467,0.031c-0.802,0.013-1.578-0.15-2.355-0.321c-0.603-0.133-1.204-0.27-1.811-0.385
			c-0.348-0.064-0.705-0.182-1.07-0.257c-0.294-0.037-0.478-0.144-0.76-0.234c-0.127-0.041-0.248-0.098-0.369-0.149
			c-0.078-0.035-0.094-0.112-0.105-0.188c0.029-0.285,0.018-0.582,0.062-0.938c0.06-0.469,0.051-0.887,0.114-1.356
			c0.036-0.258,0.061-0.518,0.095-0.775c0.056-0.41,0.109-0.82,0.176-1.228c0.109-0.666,0.227-1.33,0.348-1.993
			c0.053-0.292,0.137-0.579,0.256-0.853C8.689,10.1,8.905,9.746,9.338,9.518c0.361-0.19,0.719-0.39,1.081-0.574
			c0.317-0.161,0.65-0.285,0.998-0.356c0.243-0.051,0.486-0.046,0.728-0.001c0.285,0.053,0.566,0.122,0.85,0.182
			c0.34,0.072,0.681,0.142,0.973,0.202c0.344,0.074,0.641,0.137,0.936,0.202c0.236,0.051,0.474,0.105,0.711,0.157
			c0.084,0.018,0.17,0.026,0.256,0.046c0.099,0.023,0.197,0.053,0.296,0.084c0.101,0.032,0.137,0.114,0.152,0.215
			c0.03,0.208,0.015,0.414-0.017,0.619c-0.031,0.2-0.067,0.399-0.109,0.598c-0.081,0.382-0.116,0.771-0.156,1.158
			c-0.027,0.277-0.057,0.555-0.085,0.833c-0.03,0.284-0.058,0.568-0.091,0.852c-0.036,0.312-0.072,0.623-0.121,0.933
			c-0.08,0.507-0.16,1.016-0.262,1.519c-0.08,0.403-0.074-0.367-0.182,0.028c-0.09,0.326-0.327,1.403-0.436,1.724
			c-0.072,0.211-0.134,0.666-0.215,0.872C14.645,18.809,14.594,18.981,14.564,19.085z M7.972,14.012
			c-0.067,0.502-0.104,0.615-0.167,1.119c-0.051,0.401-0.085,0.854-0.122,1.257c-0.044,0.47-0.038,0.885-0.062,1.134
			c-0.012,0.149-0.01,0.147,0.095,0.239c0.142,0.125,0.378,0.187,0.554,0.242c0.236,0.075,0.425,0.115,0.664,0.171
			c0.624,0.144,0.993,0.247,1.309,0.299c0.309,0.058,0.669,0.11,0.92,0.159c0.415,0.077,0.812,0.163,1.227,0.243
			c0.314,0.06,0.666,0.126,0.984,0.168c0.266,0.035,0.381,0.011,0.561,0.014c0.137,0,0.305-0.016,0.439-0.024
			c0.012-0.002,0.028-0.014,0.031-0.024c0.056-0.14,0.148-0.715,0.199-0.856c0.097-0.272,0.242-1.097,0.323-1.373
			c0.104-0.354-0.201-1.781-0.116-2.14c0.193-0.808,0.018-0.96,0.119-1.785c0.036-0.296,0.664,0.705,0.697,0.407
			c0.143-1.281,0.168-1.614,0.068-0.634c0.025-0.261,0.051-0.522,0.078-0.783c0.023-0.23,0.047-0.46,0.072-0.691
			c0.028-0.284,0.276-0.92,0.247-1.207C16.09,9.778,16.15,9.67,15.989,9.632c-0.181-0.061-0.714-0.198-0.874-0.235
			c-0.374-0.087-0.736-0.166-1.111-0.248c-0.381-0.083-0.768-0.163-1.148-0.248c-0.306-0.07-0.654-0.169-0.97-0.187
			c-0.03-0.002-0.05,0.003-0.067,0.027c-0.086,0.122-0.197,0.333-0.312,0.5c-0.152,0.209-0.232,0.441-0.222,0.703
			c0.003,0.143,0.002,0.286,0,0.428c0,0.089-0.073,0.061-0.156,0.039c-0.122-0.032-0.158-0.068-0.278-0.102
			c-0.381-0.106-0.764-0.199-1.162-0.21c-0.256-0.007-0.509,0.019-0.775,0.072c-0.105,0.023-0.121,0.088-0.121,0.088
			c-0.113,0.177-0.189,0.569-0.268,0.765c-0.105,0.266-0.16,0.525-0.211,0.807c-0.094,0.522-0.184,1.074-0.271,1.598 M11.113,10.197
			c-0.086-0.517,0.231-1.058,0.551-1.444c0.127-0.12-0.174-0.061-0.18-0.059c-0.145,0.012-0.344,0.069-0.461,0.121
			C10.6,9.002,10.086,9.253,9.842,9.394C9.637,9.488,9.39,9.64,9.209,9.782C9.18,9.805,9.13,9.853,9.102,9.877
			C9.104,9.881,8.934,9.982,8.998,10C9.062,9.99,9.27,9.961,9.336,9.956c0.258-0.021,0.58,0.018,0.833,0.069
			c0.291,0.059,0.571,0.087,0.862,0.156C11.052,10.187,11.074,10.19,11.113,10.197z"/>
	</g>
	<path fill-rule="evenodd" clip-rule="evenodd" fill="#48689A" d="M14.564,19.085c-0.037,0.122-0.186,0.115-0.186,0.115
		c-0.205,0.02-0.262,0.026-0.467,0.031c-0.802,0.013-1.578-0.15-2.355-0.321c-0.603-0.133-1.204-0.27-1.811-0.385
		c-0.348-0.064-0.705-0.182-1.07-0.257c-0.294-0.037-0.478-0.144-0.76-0.234c-0.127-0.041-0.248-0.098-0.369-0.149
		c-0.078-0.035-0.094-0.112-0.105-0.188c0.029-0.285,0.018-0.582,0.062-0.938c0.06-0.469,0.051-0.887,0.114-1.356
		c0.036-0.258,0.061-0.518,0.095-0.775c0.056-0.41,0.109-0.82,0.176-1.228c0.109-0.666,0.227-1.33,0.348-1.993
		c0.053-0.292,0.137-0.579,0.256-0.853C8.689,10.1,8.905,9.746,9.338,9.518c0.361-0.19,0.719-0.39,1.081-0.574
		c0.317-0.161,0.65-0.285,0.998-0.356c0.243-0.051,0.486-0.046,0.728-0.001c0.285,0.053,0.566,0.122,0.85,0.182
		c0.34,0.072,0.681,0.142,0.973,0.202c0.344,0.074,0.641,0.137,0.936,0.202c0.236,0.051,0.474,0.105,0.711,0.157
		c0.084,0.018,0.17,0.026,0.256,0.046c0.099,0.023,0.197,0.053,0.296,0.084c0.101,0.032,0.137,0.114,0.152,0.215
		c0.03,0.208,0.015,0.414-0.017,0.619c-0.031,0.2-0.067,0.399-0.109,0.598c-0.081,0.382-0.116,0.771-0.156,1.158
		c-0.027,0.277-0.057,0.555-0.085,0.833c-0.03,0.284-0.058,0.568-0.091,0.852c-0.036,0.312-0.072,0.623-0.121,0.933
		c-0.08,0.507-0.16,1.016-0.262,1.519c-0.08,0.403-0.074-0.367-0.182,0.028c-0.09,0.326-0.327,1.403-0.436,1.724
		c-0.072,0.211-0.134,0.666-0.215,0.872C14.645,18.809,14.594,18.981,14.564,19.085z M7.972,14.012
		c-0.067,0.502-0.104,0.615-0.167,1.119c-0.051,0.401-0.085,0.854-0.122,1.257c-0.044,0.47-0.038,0.885-0.062,1.134
		c-0.012,0.149-0.01,0.147,0.095,0.239c0.142,0.125,0.378,0.187,0.554,0.242c0.236,0.075,0.425,0.115,0.664,0.171
		c0.624,0.144,0.993,0.247,1.309,0.299c0.309,0.058,0.669,0.11,0.92,0.159c0.415,0.077,0.812,0.163,1.227,0.243
		c0.314,0.06,0.666,0.126,0.984,0.168c0.266,0.035,0.381,0.011,0.561,0.014c0.137,0,0.305-0.016,0.439-0.024
		c0.012-0.002,0.028-0.014,0.031-0.024c0.056-0.14,0.148-0.715,0.199-0.856c0.097-0.272,0.242-1.097,0.323-1.373
		c0.104-0.354-0.201-1.781-0.116-2.14c0.193-0.808,0.018-0.96,0.119-1.785c0.036-0.296,0.664,0.705,0.697,0.407
		c0.143-1.281,0.168-1.614,0.068-0.634c0.025-0.261,0.051-0.522,0.078-0.783c0.023-0.23,0.047-0.46,0.072-0.691
		c0.028-0.284,0.276-0.92,0.247-1.207C16.09,9.778,16.15,9.67,15.989,9.632c-0.181-0.061-0.714-0.198-0.874-0.235
		c-0.374-0.087-0.736-0.166-1.111-0.248c-0.381-0.083-0.768-0.163-1.148-0.248c-0.306-0.07-0.654-0.169-0.97-0.187
		c-0.03-0.002-0.05,0.003-0.067,0.027c-0.086,0.122-0.197,0.333-0.312,0.5c-0.152,0.209-0.232,0.441-0.222,0.703
		c0.003,0.143,0.002,0.286,0,0.428c0,0.089-0.073,0.061-0.156,0.039c-0.122-0.032-0.158-0.068-0.278-0.102
		c-0.381-0.106-0.764-0.199-1.162-0.21c-0.256-0.007-0.509,0.019-0.775,0.072c-0.105,0.023-0.121,0.088-0.121,0.088
		c-0.113,0.177-0.189,0.569-0.268,0.765c-0.105,0.266-0.16,0.525-0.211,0.807c-0.094,0.522-0.184,1.074-0.271,1.598 M11.113,10.197
		c-0.086-0.517,0.231-1.058,0.551-1.444c0.127-0.12-0.174-0.061-0.18-0.059c-0.145,0.012-0.344,0.069-0.461,0.121
		C10.6,9.002,10.086,9.253,9.842,9.394C9.637,9.488,9.39,9.64,9.209,9.782C9.18,9.805,9.13,9.853,9.102,9.877
		C9.104,9.881,8.934,9.982,8.998,10C9.062,9.99,9.27,9.961,9.336,9.956c0.258-0.021,0.58,0.018,0.833,0.069
		c0.291,0.059,0.571,0.087,0.862,0.156C11.052,10.187,11.074,10.19,11.113,10.197z"/>
</g>
<path fill-rule="evenodd" clip-rule="evenodd" fill="#00BDF2" d="M12.779,13.994c0.469,0.083,0.939,0.166,1.408,0.248
	c0.063,0.01,0.115,0.032,0.135,0.084c0.016,0.047,0.008,0.093-0.037,0.126c-0.041,0.032-0.094,0.025-0.148,0.017
	c-0.289-0.05-0.579-0.105-0.87-0.15c-0.528-0.083-1.06-0.166-1.589-0.241c-0.459-0.065-0.92-0.124-1.379-0.179
	c-0.35-0.043-0.698-0.077-1.047-0.113c-0.172-0.018-0.344-0.035-0.516-0.053c-0.082-0.008-0.135-0.052-0.14-0.112
	c-0.005-0.061,0.056-0.12,0.132-0.116c0.094,0.002,0.189,0.011,0.284,0.019c0.327,0.032,0.654,0.063,0.981,0.099
	c0.307,0.033,0.613,0.071,0.92,0.111c0.459,0.061,0.918,0.124,1.378,0.19c0.163,0.024,0.323,0.059,0.484,0.089
	C12.776,14.004,12.777,13.999,12.779,13.994z"/>
<path fill-rule="evenodd" clip-rule="evenodd" fill="#00BDF2" d="M12.85,15.454c0.354,0.065,0.707,0.129,1.06,0.195
	c0.103,0.019,0.151,0.064,0.142,0.132c-0.012,0.072-0.086,0.113-0.188,0.096c-0.221-0.039-0.441-0.082-0.662-0.116
	c-0.543-0.085-1.084-0.171-1.627-0.249c-0.443-0.064-0.887-0.117-1.33-0.171c-0.252-0.03-0.504-0.053-0.757-0.078
	c-0.28-0.027-0.562-0.053-0.844-0.08c-0.019-0.002-0.036-0.002-0.056-0.003c-0.084-0.004-0.126-0.024-0.148-0.068
	c-0.025-0.053-0.008-0.113,0.052-0.141c0.028-0.014,0.069-0.024,0.104-0.021c0.527,0.05,1.057,0.094,1.583,0.154
	c0.557,0.062,1.114,0.134,1.669,0.208c0.334,0.044,0.668,0.101,1,0.151C12.848,15.459,12.85,15.457,12.85,15.454z"/>
<path fill-rule="evenodd" clip-rule="evenodd" fill="#00BDF2" d="M12.807,17.042c0.354,0.064,0.707,0.129,1.061,0.194
	c0.104,0.019,0.151,0.063,0.142,0.131c-0.011,0.072-0.087,0.113-0.187,0.097c-0.222-0.039-0.441-0.082-0.664-0.116
	c-0.543-0.085-1.083-0.172-1.627-0.249c-0.441-0.062-0.886-0.117-1.329-0.171c-0.253-0.03-0.505-0.054-0.757-0.078
	c-0.281-0.027-0.562-0.053-0.844-0.079c-0.018-0.001-0.037-0.004-0.055-0.004c-0.084-0.004-0.127-0.024-0.148-0.068
	c-0.026-0.053-0.008-0.112,0.051-0.142c0.028-0.013,0.068-0.023,0.104-0.02c0.528,0.049,1.057,0.095,1.584,0.153
	c0.558,0.062,1.114,0.134,1.67,0.208c0.334,0.044,0.666,0.101,1,0.151C12.807,17.047,12.807,17.045,12.807,17.042z"/>
<path fill-rule="evenodd" clip-rule="evenodd" fill="#00BDF2" d="M9.039,12.335c-0.086-0.013-0.135-0.061-0.133-0.123
	c0.001-0.062,0.066-0.114,0.143-0.106c0.152,0.015,0.304,0.032,0.455,0.052c0.361,0.042,0.723,0.088,1.084,0.132
	c0.313,0.039,0.627,0.078,0.941,0.116s0.629,0.076,0.941,0.112c0.287,0.032,0.573,0.066,0.859,0.099
	c0.261,0.029,0.52,0.053,0.778,0.081c0.066,0.007,0.133,0.012,0.198,0.02c0.069,0.009,0.105,0.041,0.11,0.094
	c0.005,0.061-0.059,0.146-0.168,0.134c-0.259-0.029-0.519-0.052-0.778-0.081c-0.273-0.028-0.549-0.06-0.822-0.092
	c-0.322-0.038-0.646-0.076-0.969-0.114c-0.238-0.029-0.479-0.057-0.717-0.086c-0.325-0.04-0.648-0.082-0.975-0.122
	c-0.305-0.037-0.609-0.074-0.914-0.112C9.062,12.337,9.049,12.336,9.039,12.335z"/>
<path fill-rule="evenodd" clip-rule="evenodd" fill="#00BDF2" d="M13.466,10.898c0.263,0.062,0.526,0.122,0.788,0.183
	c0.102,0.024,0.147,0.127,0.084,0.185c-0.025,0.023-0.061,0.029-0.102,0.019c-0.113-0.028-0.228-0.058-0.342-0.084
	c-0.367-0.086-0.738-0.158-1.113-0.2c-0.234-0.026-0.47-0.044-0.705-0.065c-0.042-0.004-0.086-0.004-0.127-0.006
	c-0.081-0.005-0.132-0.046-0.135-0.111c-0.004-0.054,0.037-0.086,0.117-0.082c0.131,0.005,0.263,0.01,0.394,0.023
	c0.265,0.027,0.533,0.057,0.798,0.091c0.115,0.015,0.227,0.041,0.34,0.061C13.463,10.906,13.465,10.902,13.466,10.898z"/>
<path fill-rule="evenodd" clip-rule="evenodd" fill="#00BDF2" d="M13.771,10.355c0.253,0.059,0.508,0.117,0.761,0.177
	c0.097,0.022,0.14,0.122,0.079,0.177c-0.023,0.022-0.057,0.029-0.098,0.019c-0.109-0.027-0.219-0.056-0.329-0.082
	c-0.354-0.083-0.712-0.152-1.071-0.193c-0.228-0.025-0.454-0.042-0.682-0.063c-0.039-0.003-0.081-0.004-0.122-0.005
	c-0.077-0.005-0.126-0.044-0.13-0.107c-0.003-0.052,0.035-0.083,0.113-0.079c0.127,0.006,0.254,0.01,0.379,0.022
	c0.258,0.027,0.514,0.056,0.771,0.088c0.108,0.014,0.217,0.039,0.325,0.059C13.77,10.363,13.77,10.359,13.771,10.355z"/>
<path fill-rule="evenodd" clip-rule="evenodd" fill="#00BDF2" d="M13.977,9.814c0.254,0.059,0.508,0.118,0.762,0.177
	c0.096,0.023,0.141,0.122,0.079,0.176c-0.024,0.023-0.058,0.029-0.097,0.02c-0.11-0.028-0.22-0.056-0.33-0.082
	c-0.354-0.083-0.711-0.152-1.072-0.192c-0.226-0.025-0.453-0.043-0.68-0.063c-0.041-0.004-0.082-0.004-0.123-0.007
	c-0.078-0.004-0.127-0.043-0.13-0.107c-0.003-0.052,0.036-0.082,0.114-0.078c0.126,0.005,0.252,0.01,0.378,0.022
	c0.257,0.026,0.514,0.056,0.771,0.088c0.109,0.014,0.218,0.039,0.326,0.059C13.975,9.823,13.977,9.819,13.977,9.814z"/>
<path fill="#FFFFFF" d="M13.322,13.189c0.146-0.5,0.27-0.989,0.572-1.42c0.182-0.258,0.391-0.497,0.619-0.715
	c0.234-0.222,0.444-0.369,0.738-0.494c0.318-0.135,0.705-0.235,1.051-0.253c0.53-0.026,1.244,0.005,1.704,0.3
	c0.209,0.133,0.522,0.307,0.705,0.473c0.208,0.188,0.318,0.346,0.488,0.566c0.324,0.422,0.473,0.996,0.558,1.512
	c0.038,0.231,0.074,0.461,0.093,0.695c0.061,0.725-0.07,1.404-0.471,2.041c-0.11,0.175-0.08,0.139,0.062,0.301
	c0.126,0.144,0.354,0.389,0.474,0.538c0.06,0.077,0.458,0.699,0.701,1.08c0.305,0.476,0.603,0.904,0.87,1.4
	c0.191,0.355,0.375,0.584,0.482,0.858c0.079,0.199,0.166,0.38,0.148,0.595c-0.03,0.363-0.298,0.379-0.62,0.526
	c-0.239,0.111-0.447,0.166-0.562,0.178c-0.106,0.009-0.384-0.071-0.529-0.341c-0.15-0.286-0.398-0.573-0.567-0.846
	c-0.207-0.334-0.449-0.682-0.67-1.004c-0.458-0.669-0.949-1.516-1.33-2.161c-0.1-0.17-0.243-0.112-0.29-0.106
	c-0.182,0.022,0,0-0.182,0.015c-0.188,0.015-0.648,0.034-0.835,0.039c-0.318,0.011-0.655-0.005-0.962-0.098
	c-0.322-0.097-0.666-0.219-0.954-0.387c-0.452-0.261-0.761-0.498-1.026-0.957c-0.396-0.682-0.496-1.559-0.277-2.304
	C13.314,13.211,13.319,13.2,13.322,13.189z"/>
<path fill-rule="evenodd" clip-rule="evenodd" fill="#48689A" d="M13.201,13.096c0.15-0.518,0.277-1.022,0.592-1.469
	c0.188-0.267,0.402-0.514,0.639-0.739c0.242-0.23,0.459-0.382,0.764-0.511c0.329-0.14,0.728-0.243,1.086-0.262
	c0.546-0.027,1.284,0.004,1.76,0.309c0.215,0.138,0.539,0.318,0.729,0.489c0.213,0.193,0.328,0.357,0.504,0.585
	c0.334,0.438,0.488,1.031,0.575,1.565c0.039,0.238,0.076,0.476,0.097,0.718c0.061,0.75-0.074,1.452-0.488,2.112
	c-0.114,0.18-0.083,0.145,0.064,0.311c0.131,0.149,0.365,0.402,0.489,0.558c0.062,0.078,0.473,0.724,0.725,1.116
	c0.312,0.492,0.62,0.936,0.896,1.448c0.198,0.37,0.388,0.604,0.499,0.888c0.081,0.205,0.172,0.394,0.153,0.615
	c-0.031,0.376-0.308,0.394-0.64,0.546c-0.248,0.115-0.463,0.171-0.582,0.182c-0.108,0.011-0.396-0.073-0.546-0.352
	c-0.155-0.295-0.411-0.594-0.586-0.874c-0.214-0.346-0.465-0.704-0.692-1.04c-0.473-0.69-0.98-1.566-1.373-2.234
	c-0.103-0.176-0.251-0.115-0.3-0.109c-0.187,0.022,0,0-0.188,0.016c-0.192,0.016-0.668,0.034-0.861,0.041
	c-0.33,0.01-0.676-0.007-0.994-0.102c-0.332-0.099-0.688-0.227-0.984-0.399c-0.467-0.271-0.787-0.515-1.062-0.991
	c-0.407-0.705-0.511-1.612-0.284-2.382C13.193,13.12,13.197,13.107,13.201,13.096z M16.188,15.627c0,0.004,0,0.009,0,0.015
	c0.259,0.011,0.517,0.028,0.776,0.032c0.13,0.002,0.262-0.011,0.391-0.034c0.271-0.051,0.519-0.168,0.753-0.312
	c0.575-0.353,0.995-0.825,1.151-1.502c0.069-0.292,0.091-0.587,0.077-0.884c-0.012-0.254-0.057-0.503-0.121-0.75
	c-0.166-0.638-0.557-1.092-1.135-1.392c-0.278-0.144-0.571-0.246-0.876-0.316c-0.302-0.07-0.605-0.091-0.912-0.062
	c-0.243,0.024-0.477,0.088-0.704,0.173c-0.359,0.132-0.693,0.311-0.969,0.583c-0.22,0.218-0.406,0.466-0.564,0.732
	c-0.138,0.23-0.245,0.474-0.289,0.739c-0.068,0.405-0.055,0.81,0.037,1.211c0.086,0.383,0.268,0.715,0.555,0.987
	c0.277,0.263,0.616,0.425,0.968,0.561C15.604,15.517,15.893,15.584,16.188,15.627z M18.232,15.885
	c-0.109,0.039-0.191,0.227-0.191,0.227c-0.046,0.154-0.111,0.251-0.078,0.547c0.016,0.138,0.087,0.183,0.109,0.243
	c0.053,0.129,0.12,0.253,0.183,0.378c0.005,0.011,0.017,0.02,0.035,0.041c0.014-0.049,0.025-0.084,0.032-0.119
	c0.028-0.136,0.056-0.272,0.083-0.407c0.003-0.015,0.013-0.033,0.025-0.037c0.078-0.024,0.176,0.064,0.162,0.145
	c-0.039,0.245-0.077,0.491-0.118,0.735c-0.016,0.093,0.045,0.145,0.101,0.218c0.007-0.034,0.014-0.054,0.017-0.074
	c0.041-0.232,0.08-0.466,0.123-0.697c0.018-0.092,0.064-0.108,0.143-0.055c0.063,0.044,0.096,0.099,0.079,0.179
	c-0.055,0.267-0.104,0.534-0.16,0.802c-0.018,0.086-0.003,0.164,0.047,0.234c0.011,0.016,0.027,0.024,0.041,0.038
	c0.008-0.016,0.022-0.031,0.023-0.049c0.021-0.135,0.041-0.268,0.061-0.401c0.016-0.099,0.03-0.195,0.05-0.293
	c0.005-0.021,0.029-0.05,0.048-0.053c0.115-0.015,0.167,0.044,0.148,0.155c-0.045,0.259-0.09,0.519-0.132,0.779
	c-0.016,0.1,0.07,0.255,0.169,0.311c0.002-0.022,0.006-0.042,0.009-0.06c0.024-0.157,0.046-0.314,0.072-0.472
	c0.017-0.095,0.041-0.189,0.061-0.285c0.008-0.038,0.029-0.049,0.065-0.042c0.079,0.016,0.126,0.073,0.118,0.155
	c-0.006,0.057-0.015,0.114-0.023,0.17c-0.029,0.194-0.053,0.389-0.091,0.584c-0.03,0.152,0.016,0.271,0.123,0.376
	c0.009,0.009,0.019,0.014,0.035,0.026c0.005-0.028,0.007-0.049,0.011-0.066c0.026-0.179,0.052-0.356,0.081-0.535
	c0.01-0.056,0.024-0.113,0.041-0.168c0.004-0.014,0.022-0.031,0.035-0.031c0.119-0.014,0.198,0.075,0.176,0.194
	c-0.006,0.024-0.013,0.049-0.017,0.073c-0.05,0.25-0.099,0.502-0.146,0.755c-0.006,0.028-0.01,0.066,0.001,0.093
	c0.028,0.062,0.063,0.121,0.098,0.182c0.009,0.016,0.027,0.026,0.048,0.044c0.006-0.02,0.011-0.028,0.013-0.04
	c0.025-0.144,0.05-0.287,0.076-0.432c0.02-0.095,0.041-0.189,0.063-0.285c0.004-0.02,0.021-0.051,0.03-0.051
	c0.048,0.002,0.101,0.007,0.143,0.026c0.024,0.014,0.045,0.058,0.043,0.089c-0.007,0.091-0.024,0.182-0.037,0.271
	c-0.03,0.239-0.061,0.477-0.09,0.715c-0.003,0.021,0,0.045,0.008,0.062c0.033,0.082,0.067,0.161,0.104,0.243
	c0.01,0.022,0.027,0.04,0.048,0.07c0.008-0.026,0.013-0.037,0.015-0.051c0.025-0.205,0.046-0.411,0.073-0.617
	c0.014-0.088,0.033-0.175,0.058-0.261c0.016-0.053,0.049-0.06,0.099-0.038c0.022,0.012,0.048,0.022,0.064,0.038
	c0.015,0.013,0.026,0.035,0.024,0.053c-0.013,0.153-0.026,0.306-0.046,0.458c-0.022,0.201-0.05,0.403-0.08,0.604
	c-0.018,0.11,0.038,0.186,0.102,0.261c0.007,0.007,0.021,0.011,0.039,0.021c0.005-0.027,0.007-0.047,0.011-0.064
	c0.029-0.192,0.058-0.385,0.093-0.575c0.019-0.102,0.049-0.201,0.081-0.297c0.019-0.056,0.08-0.068,0.149-0.044
	c0.052,0.018,0.056,0.055,0.046,0.104c-0.014,0.075-0.045,0.131-0.057,0.208l-0.018,0.096c-0.18,0.845-0.169,0.752-0.16,0.803
	c0.007,0.035,0.016,0.208,0.211,0.246c0.247,0.035,0.716-0.224,0.79-0.25c0.075-0.027,0.224-0.031,0.242-0.295
	c0.021-0.261-0.213-0.604-0.213-0.604c-0.01-0.018-0.02-0.035-0.029-0.054c-0.308-0.524-0.615-1.049-0.924-1.575
	c-0.209-0.352-0.422-0.703-0.629-1.057c-0.265-0.454-0.589-0.903-0.981-1.251c-0.091-0.081-0.101-0.113-0.224-0.122
	c-0.116-0.008-0.278-0.077-0.359-0.161C18.625,15.887,18.393,15.828,18.232,15.885z M13.422,13.731
	c-0.012,0.186-0.031,0.323-0.028,0.509c0.003,0.224,0.034,0.747,0.228,1.026c0.196,0.301,0.43,0.595,0.73,0.787
	c0.272,0.175,0.564,0.288,0.844,0.452c0.035,0.02,0.051,0.008,0.061-0.023c0.02-0.073,0.039-0.146,0.057-0.22
	c0.033-0.142,0.033-0.141,0.176-0.105c0.051,0.014,0.068,0.035,0.054,0.088c-0.028,0.108-0.056,0.217-0.081,0.325
	c-0.006,0.021-0.008,0.061,0.002,0.063c0.029,0.016,0.066,0.023,0.102,0.025c0.01,0,0.025-0.026,0.031-0.043
	c0.01-0.026,0.016-0.055,0.021-0.084c0.018-0.087,0.037-0.176,0.05-0.265c0.008-0.048,0.031-0.064,0.077-0.055
	c0.012,0.002,0.021,0.002,0.032,0.003c0.118,0.015,0.131,0.029,0.105,0.143c-0.025,0.108-0.056,0.217-0.082,0.325
	c-0.003,0.016-0.003,0.048,0.001,0.049c0.037,0.01,0.076,0.021,0.114,0.019c0.013-0.001,0.032-0.031,0.036-0.052
	c0.027-0.128,0.055-0.257,0.078-0.387c0.017-0.084,0.03-0.099,0.117-0.093c0.017,0,0.031,0.003,0.048,0.006
	c0.072,0.015,0.077,0.02,0.061,0.089c-0.031,0.142-0.064,0.282-0.097,0.422c-0.004,0.019-0.007,0.037-0.01,0.061
	c0.046,0.002,0.07-0.01,0.079-0.052c0.027-0.125,0.056-0.25,0.082-0.375c0.03-0.138,0.031-0.138,0.172-0.14
	c0.046-0.001,0.062,0.015,0.051,0.061c-0.033,0.142-0.066,0.283-0.101,0.426c-0.023,0.098-0.009,0.111,0.094,0.101
	c0.046-0.004,0.058-0.033,0.064-0.066c0.034-0.152,0.068-0.305,0.096-0.46c0.013-0.066,0.054-0.084,0.153-0.07
	c0.059,0.008,0.071,0.03,0.057,0.103c-0.027,0.134-0.058,0.268-0.087,0.401c-0.013,0.064,0.004,0.082,0.067,0.079
	c0.041-0.003,0.054-0.026,0.059-0.06c0.025-0.146,0.051-0.29,0.076-0.437c0.016-0.076,0.046-0.099,0.124-0.093
	c0.023,0.001,0.047,0.008,0.07,0.011c0.046,0.007,0.065,0.03,0.054,0.079c-0.029,0.144-0.058,0.288-0.085,0.434
	c-0.006,0.024-0.007,0.048-0.01,0.075c0.052-0.006,0.076-0.025,0.084-0.069c0.028-0.155,0.059-0.308,0.091-0.462
	c0.012-0.059,0.034-0.071,0.087-0.06c0.045,0.01,0.064,0.031,0.053,0.081c-0.037,0.131-0.054,0.264-0.027,0.399
	c0.003,0.017,0.015,0.03,0.027,0.059c0.176,0.03,0.279-0.025,0.28-0.034c0.004-0.021,0.006-0.042,0.009-0.063
	c0.021-0.201-0.009-0.33,0.107-0.608c0.018-0.043,0.051-0.079,0.072-0.12c0.007-0.014,0.012-0.039,0.004-0.049
	c-0.006-0.01-0.223,0.023-0.238,0.027c-0.117,0.022-0.234,0.051-0.354,0.07c-0.175,0.026-0.352,0.062-0.527,0.066
	c-0.172,0.003-0.347-0.017-0.514-0.05c-0.31-0.064-0.614-0.145-0.919-0.223c-0.207-0.053-0.402-0.135-0.588-0.242
	c-0.262-0.154-0.503-0.336-0.735-0.532c-0.245-0.208-0.457-0.725-0.558-1.033c-0.021-0.067-0.041-0.137-0.061-0.205
	C13.438,13.642,13.422,13.731,13.422,13.731z M18.326,15.708c0.004,0.006,0.006,0.01,0.008,0.016
	c0.022,0.003,0.046,0.003,0.067,0.008c0.081,0.016,0.221,0.012,0.297,0.04c0.097,0.035,0.198,0.109,0.25,0.194
	c0.023,0.037,0.048,0.041,0.079,0.011c0.011-0.012,0.062-0.068,0.071-0.082c0.176-0.21,0.289-0.455,0.357-0.718
	c0.049-0.191,0.082-0.387,0.111-0.583c0.049-0.308,0.085-0.617,0.073-0.931c-0.001-0.047,0-0.098-0.044-0.148
	c-0.007,0.029-0.011,0.045-0.015,0.062c-0.027,0.147-0.054,0.294-0.084,0.44c-0.066,0.317-0.193,0.608-0.369,0.879
	c-0.17,0.26-0.388,0.477-0.612,0.688C18.498,15.604,18.347,15.688,18.326,15.708z"/>
<path fill-rule="evenodd" clip-rule="evenodd" fill="#00BDF2" d="M18.046,11.335c0.243,0.176,0.494,0.425,0.677,0.737
	c0.058,0.099,0.101,0.204,0.113,0.319c0.011,0.099-0.049,0.127-0.132,0.134c-0.021,0.001-0.054-0.029-0.064-0.052
	c-0.039-0.082-0.069-0.168-0.105-0.252c-0.086-0.199-0.219-0.362-0.383-0.5c-0.176-0.147-0.364-0.275-0.566-0.384
	c-0.306-0.166-0.631-0.246-0.98-0.215c-0.229,0.02-0.457,0.047-0.681,0.104c-0.236,0.061-0.445,0.172-0.625,0.336
	c-0.081,0.075-0.152,0.158-0.203,0.257c-0.01,0.016-0.018,0.032-0.028,0.047c-0.034,0.052-0.089,0.071-0.138,0.043
	c-0.049-0.027-0.109-0.098-0.072-0.156c0.052-0.081,0.105-0.159,0.169-0.23c0.307-0.344,0.71-0.497,1.148-0.58
	c0.362-0.068,0.719-0.046,1.075,0.036C17.521,11.04,17.771,11.144,18.046,11.335z"/>
<path fill-rule="evenodd" clip-rule="evenodd" fill="#00BDF2" d="M16.258,15.094c-0.113-0.036-0.219-0.065-0.32-0.103
	c-0.201-0.075-0.4-0.154-0.598-0.234c-0.27-0.111-0.499-0.28-0.709-0.48c-0.068-0.063-0.076-0.096-0.033-0.177
	c0.035-0.068,0.092-0.085,0.154-0.042c0.047,0.032,0.094,0.064,0.132,0.104c0.147,0.157,0.335,0.251,0.528,0.335
	c0.234,0.103,0.472,0.202,0.711,0.296c0.084,0.034,0.175,0.052,0.262,0.073c0.054,0.012,0.067,0.048,0.074,0.094
	c0.009,0.066-0.008,0.109-0.059,0.122C16.353,15.093,16.302,15.091,16.258,15.094z"/>
</svg>
