<?xml version="1.0" encoding="utf-8"?>
<!-- Generator: Adobe Illustrator 16.0.0, SVG Export Plug-In . SVG Version: 6.00 Build 0)  -->
<!DOCTYPE svg PUBLIC "-//W3C//DTD SVG 1.1//EN" "http://www.w3.org/Graphics/SVG/1.1/DTD/svg11.dtd">
<svg version="1.1" id="Layer_1" xmlns="http://www.w3.org/2000/svg" xmlns:xlink="http://www.w3.org/1999/xlink" x="0px" y="0px"
	 width="30px" height="30px" viewBox="0 0 30 30" enable-background="new 0 0 30 30" xml:space="preserve">
<path fill-rule="evenodd" clip-rule="evenodd" fill="#FFFFFF" d="M26.812,17.07c0.049-0.023,0.096-0.055,0.146-0.067
	c0.078-0.021,0.139,0.051,0.135,0.146c-0.002,0.056-0.014,0.062-0.062,0.038c-0.072-0.032-0.145-0.064-0.215-0.098
	C26.814,17.084,26.814,17.076,26.812,17.07z"/>
<g>
	<path fill="#FFFFFF" d="M13.537,7.314c0.447,0.096,0.834,0.178,1.219,0.262c0.309,0.067,0.615,0.139,0.924,0.205
		c0.111,0.024,0.225,0.034,0.334,0.06c0.131,0.031,0.26,0.07,0.387,0.111c0.13,0.042,0.178,0.15,0.197,0.282
		c0.041,0.271,0.02,0.543-0.023,0.812c-0.039,0.263-0.087,0.525-0.143,0.786c-0.106,0.502-0.152,1.012-0.205,1.521
		c-0.037,0.365-0.074,0.729-0.112,1.093c-0.04,0.374-0.075,0.747-0.12,1.12c-0.049,0.409-0.096,0.818-0.16,1.224
		c-0.105,0.667-0.211,1.334-0.344,1.997c-0.105,0.528-0.24,1.051-0.381,1.57c-0.116,0.429-0.254,0.85-0.396,1.271
		c-0.093,0.276-0.209,0.545-0.315,0.817c-0.005,0.02-0.007,0.043-0.003,0.062c0.02,0.135-0.021,0.207-0.146,0.22
		c-0.268,0.027-0.535,0.056-0.803,0.062c-1.045,0.021-2.056-0.194-3.066-0.416c-0.785-0.173-1.57-0.353-2.359-0.502
		c-0.453-0.085-0.918-0.112-1.375-0.172c-0.385-0.051-0.766-0.111-1.133-0.232c-0.165-0.052-0.322-0.125-0.481-0.194
		c-0.101-0.045-0.12-0.147-0.136-0.247C4.82,18.56,4.828,18.089,4.888,17.62c0.079-0.616,0.173-1.231,0.257-1.847
		c0.046-0.339,0.078-0.68,0.125-1.018c0.074-0.539,0.143-1.078,0.231-1.614c0.144-0.874,0.297-1.747,0.454-2.617
		c0.07-0.386,0.182-0.762,0.338-1.121c0.258-0.596,0.65-1.061,1.215-1.361c0.471-0.25,0.934-0.513,1.408-0.756
		c0.414-0.212,0.847-0.375,1.301-0.47c0.317-0.067,0.635-0.062,0.947-0.003c0.371,0.069,0.738,0.159,1.107,0.237
		C12.714,7.144,13.156,7.234,13.537,7.314z"/>
	<g>
		<g>
			<path fill-rule="evenodd" clip-rule="evenodd" fill="#48689A" d="M14.532,20.955c-0.05,0.166-0.251,0.156-0.251,0.156
				c-0.278,0.027-0.355,0.037-0.635,0.043c-1.088,0.019-2.144-0.204-3.197-0.435c-0.819-0.182-1.635-0.368-2.459-0.521
				c-0.474-0.09-0.959-0.249-1.454-0.35c-0.399-0.053-0.649-0.196-1.032-0.321c-0.17-0.055-0.336-0.131-0.501-0.202
				c-0.105-0.047-0.126-0.152-0.143-0.255c0.04-0.389,0.022-0.789,0.085-1.273c0.08-0.638,0.069-1.205,0.155-1.842
				c0.048-0.351,0.081-0.703,0.128-1.053c0.077-0.557,0.148-1.114,0.24-1.668c0.148-0.904,0.305-1.806,0.47-2.706
				c0.071-0.398,0.187-0.787,0.349-1.158C6.555,8.753,6.85,8.273,7.436,7.964c0.49-0.258,0.975-0.529,1.469-0.779
				C9.336,6.967,9.787,6.798,10.258,6.7c0.33-0.068,0.662-0.062,0.989-0.001c0.386,0.072,0.769,0.165,1.153,0.247
				c0.462,0.097,0.924,0.192,1.322,0.274c0.465,0.1,0.868,0.186,1.27,0.273c0.322,0.07,0.643,0.144,0.964,0.213
				c0.115,0.025,0.233,0.036,0.348,0.062c0.136,0.032,0.271,0.073,0.403,0.115c0.135,0.043,0.186,0.155,0.205,0.292
				c0.043,0.28,0.021,0.562-0.021,0.84c-0.041,0.272-0.09,0.543-0.148,0.813c-0.109,0.518-0.157,1.046-0.211,1.572
				c-0.039,0.377-0.076,0.754-0.115,1.131c-0.041,0.386-0.078,0.772-0.123,1.158c-0.051,0.422-0.098,0.844-0.165,1.265
				c-0.11,0.689-0.219,1.379-0.356,2.064c-0.108,0.546-0.101-0.5-0.247,0.037c-0.121,0.443-0.444,1.906-0.591,2.341
				c-0.097,0.286-0.182,0.903-0.291,1.185C14.643,20.581,14.574,20.816,14.532,20.955z M5.58,14.067
				c-0.092,0.683-0.143,0.835-0.228,1.519c-0.067,0.547-0.114,1.158-0.165,1.707c-0.06,0.639-0.052,1.2-0.082,1.539
				c-0.019,0.202-0.014,0.2,0.127,0.325c0.193,0.17,0.515,0.254,0.752,0.33c0.32,0.102,0.576,0.157,0.903,0.231
				c0.846,0.193,1.349,0.337,1.775,0.405c0.419,0.078,0.909,0.152,1.249,0.216c0.564,0.105,1.104,0.224,1.668,0.331
				c0.426,0.083,0.902,0.173,1.334,0.23c0.362,0.046,0.518,0.013,0.763,0.015c0.183,0.003,0.414-0.02,0.598-0.034
				c0.015-0.002,0.038-0.015,0.042-0.029c0.076-0.19,0.201-0.973,0.27-1.165c0.131-0.37,0.328-1.489,0.439-1.864
				c0.141-0.48-0.273-2.418-0.157-2.906c0.262-1.097,0.022-1.304,0.16-2.422c0.05-0.403,0.903,0.956,0.948,0.552
				c0.192-1.738,0.229-2.191,0.091-0.861c0.036-0.354,0.071-0.708,0.106-1.062c0.033-0.312,0.065-0.625,0.098-0.938
				c0.041-0.386,0.375-1.25,0.336-1.639c-0.002-0.229,0.08-0.377-0.141-0.427c-0.244-0.083-0.969-0.269-1.186-0.32
				c-0.508-0.118-1-0.226-1.508-0.337c-0.52-0.113-1.043-0.221-1.561-0.337c-0.418-0.093-0.889-0.229-1.318-0.253
				c-0.039-0.003-0.067,0.004-0.091,0.039c-0.116,0.163-0.267,0.451-0.425,0.678c-0.206,0.285-0.312,0.6-0.303,0.957
				c0.008,0.192,0.005,0.387,0.002,0.58c0,0.12-0.099,0.081-0.211,0.052c-0.166-0.042-0.215-0.091-0.38-0.137
				C8.971,8.896,8.451,8.769,7.91,8.755C7.562,8.746,7.219,8.781,6.857,8.852C6.715,8.885,6.692,8.973,6.692,8.973
				c-0.154,0.239-0.256,0.772-0.361,1.039c-0.146,0.362-0.218,0.714-0.287,1.096c-0.127,0.71-0.252,1.459-0.368,2.17 M9.847,8.887
				C9.73,8.185,10.161,7.45,10.594,6.926c0.174-0.163-0.236-0.083-0.244-0.08C10.152,6.862,9.883,6.938,9.725,7.01
				C9.15,7.264,8.451,7.605,8.119,7.796C7.842,7.924,7.506,8.13,7.26,8.323C7.219,8.354,7.152,8.42,7.114,8.452
				c0.003,0.005-0.228,0.143-0.142,0.167c0.09-0.012,0.371-0.051,0.461-0.059c0.35-0.03,0.789,0.024,1.129,0.094
				C8.961,8.734,9.34,8.772,9.733,8.866C9.763,8.873,9.793,8.877,9.847,8.887z"/>
			<path fill-rule="evenodd" clip-rule="evenodd" fill="#48689A" d="M14.532,20.955c-0.05,0.166-0.251,0.156-0.251,0.156
				c-0.278,0.027-0.355,0.037-0.635,0.043c-1.088,0.019-2.144-0.204-3.197-0.435c-0.819-0.182-1.635-0.368-2.459-0.521
				c-0.474-0.09-0.959-0.249-1.454-0.35c-0.399-0.053-0.649-0.196-1.032-0.321c-0.17-0.055-0.336-0.131-0.501-0.202
				c-0.105-0.047-0.126-0.152-0.143-0.255c0.04-0.389,0.022-0.789,0.085-1.273c0.08-0.638,0.069-1.205,0.155-1.842
				c0.048-0.351,0.081-0.703,0.128-1.053c0.077-0.557,0.148-1.114,0.24-1.668c0.148-0.904,0.305-1.806,0.47-2.706
				c0.071-0.398,0.187-0.787,0.349-1.158C6.555,8.753,6.85,8.273,7.436,7.964c0.49-0.258,0.975-0.529,1.469-0.779
				C9.336,6.967,9.787,6.798,10.258,6.7c0.33-0.068,0.662-0.062,0.989-0.001c0.386,0.072,0.769,0.165,1.153,0.247
				c0.462,0.097,0.924,0.192,1.322,0.274c0.465,0.1,0.868,0.186,1.27,0.273c0.322,0.07,0.643,0.144,0.964,0.213
				c0.115,0.025,0.233,0.036,0.348,0.062c0.136,0.032,0.271,0.073,0.403,0.115c0.135,0.043,0.186,0.155,0.205,0.292
				c0.043,0.28,0.021,0.562-0.021,0.84c-0.041,0.272-0.09,0.543-0.148,0.813c-0.109,0.518-0.157,1.046-0.211,1.572
				c-0.039,0.377-0.076,0.754-0.115,1.131c-0.041,0.386-0.078,0.772-0.123,1.158c-0.051,0.422-0.098,0.844-0.165,1.265
				c-0.11,0.689-0.219,1.379-0.356,2.064c-0.108,0.546-0.101-0.5-0.247,0.037c-0.121,0.443-0.444,1.906-0.591,2.341
				c-0.097,0.286-0.182,0.903-0.291,1.185C14.643,20.581,14.574,20.816,14.532,20.955z M5.58,14.067
				c-0.092,0.683-0.143,0.835-0.228,1.519c-0.067,0.547-0.114,1.158-0.165,1.707c-0.06,0.639-0.052,1.2-0.082,1.539
				c-0.019,0.202-0.014,0.2,0.127,0.325c0.193,0.17,0.515,0.254,0.752,0.33c0.32,0.102,0.576,0.157,0.903,0.231
				c0.846,0.193,1.349,0.337,1.775,0.405c0.419,0.078,0.909,0.152,1.249,0.216c0.564,0.105,1.104,0.224,1.668,0.331
				c0.426,0.083,0.902,0.173,1.334,0.23c0.362,0.046,0.518,0.013,0.763,0.015c0.183,0.003,0.414-0.02,0.598-0.034
				c0.015-0.002,0.038-0.015,0.042-0.029c0.076-0.19,0.201-0.973,0.27-1.165c0.131-0.37,0.328-1.489,0.439-1.864
				c0.141-0.48-0.273-2.418-0.157-2.906c0.262-1.097,0.022-1.304,0.16-2.422c0.05-0.403,0.903,0.956,0.948,0.552
				c0.192-1.738,0.229-2.191,0.091-0.861c0.036-0.354,0.071-0.708,0.106-1.062c0.033-0.312,0.065-0.625,0.098-0.938
				c0.041-0.386,0.375-1.25,0.336-1.639c-0.002-0.229,0.08-0.377-0.141-0.427c-0.244-0.083-0.969-0.269-1.186-0.32
				c-0.508-0.118-1-0.226-1.508-0.337c-0.52-0.113-1.043-0.221-1.561-0.337c-0.418-0.093-0.889-0.229-1.318-0.253
				c-0.039-0.003-0.067,0.004-0.091,0.039c-0.116,0.163-0.267,0.451-0.425,0.678c-0.206,0.285-0.312,0.6-0.303,0.957
				c0.008,0.192,0.005,0.387,0.002,0.58c0,0.12-0.099,0.081-0.211,0.052c-0.166-0.042-0.215-0.091-0.38-0.137
				C8.971,8.896,8.451,8.769,7.91,8.755C7.562,8.746,7.219,8.781,6.857,8.852C6.715,8.885,6.692,8.973,6.692,8.973
				c-0.154,0.239-0.256,0.772-0.361,1.039c-0.146,0.362-0.218,0.714-0.287,1.096c-0.127,0.71-0.252,1.459-0.368,2.17 M9.847,8.887
				C9.73,8.185,10.161,7.45,10.594,6.926c0.174-0.163-0.236-0.083-0.244-0.08C10.152,6.862,9.883,6.938,9.725,7.01
				C9.15,7.264,8.451,7.605,8.119,7.796C7.842,7.924,7.506,8.13,7.26,8.323C7.219,8.354,7.152,8.42,7.114,8.452
				c0.003,0.005-0.228,0.143-0.142,0.167c0.09-0.012,0.371-0.051,0.461-0.059c0.35-0.03,0.789,0.024,1.129,0.094
				C8.961,8.734,9.34,8.772,9.733,8.866C9.763,8.873,9.793,8.877,9.847,8.887z"/>
		</g>
		<path fill-rule="evenodd" clip-rule="evenodd" fill="#00BDF2" d="M12.109,14.042c0.637,0.112,1.275,0.224,1.913,0.335
			c0.085,0.015,0.155,0.045,0.181,0.115c0.023,0.065,0.012,0.126-0.049,0.172c-0.057,0.043-0.129,0.035-0.201,0.022
			c-0.395-0.068-0.788-0.142-1.183-0.204c-0.718-0.113-1.438-0.226-2.158-0.328c-0.622-0.089-1.247-0.168-1.872-0.244
			c-0.473-0.058-0.948-0.103-1.422-0.152c-0.234-0.025-0.466-0.047-0.699-0.072c-0.111-0.012-0.184-0.072-0.189-0.152
			c-0.007-0.083,0.076-0.161,0.178-0.158c0.129,0.004,0.258,0.015,0.387,0.027c0.444,0.042,0.889,0.084,1.332,0.133
			c0.418,0.045,0.834,0.095,1.25,0.151c0.623,0.082,1.248,0.168,1.871,0.258c0.221,0.032,0.438,0.079,0.657,0.119
			C12.105,14.057,12.106,14.049,12.109,14.042z"/>
		<path fill-rule="evenodd" clip-rule="evenodd" fill="#00BDF2" d="M12.204,16.025c0.479,0.088,0.96,0.176,1.438,0.264
			c0.141,0.025,0.207,0.088,0.193,0.18c-0.016,0.098-0.118,0.152-0.254,0.13c-0.3-0.052-0.6-0.11-0.9-0.157
			c-0.736-0.116-1.473-0.233-2.211-0.339c-0.6-0.087-1.203-0.159-1.805-0.232c-0.342-0.041-0.686-0.073-1.027-0.106
			c-0.382-0.038-0.764-0.072-1.146-0.108c-0.025-0.002-0.05-0.004-0.075-0.005c-0.114-0.005-0.172-0.032-0.203-0.094
			c-0.033-0.071-0.009-0.152,0.07-0.19c0.039-0.019,0.095-0.032,0.141-0.028c0.718,0.067,1.436,0.128,2.15,0.208
			c0.758,0.085,1.514,0.183,2.268,0.283c0.455,0.06,0.906,0.137,1.357,0.206C12.203,16.033,12.204,16.029,12.204,16.025z"/>
		<path fill-rule="evenodd" clip-rule="evenodd" fill="#00BDF2" d="M12.146,18.182c0.48,0.086,0.96,0.175,1.439,0.263
			c0.141,0.025,0.207,0.09,0.193,0.18c-0.017,0.098-0.119,0.154-0.254,0.13c-0.301-0.051-0.601-0.11-0.902-0.157
			c-0.735-0.115-1.471-0.233-2.209-0.339c-0.6-0.085-1.203-0.157-1.805-0.231c-0.342-0.042-0.686-0.072-1.027-0.105
			c-0.383-0.038-0.765-0.072-1.146-0.108c-0.025-0.002-0.051-0.004-0.075-0.005c-0.114-0.005-0.173-0.032-0.202-0.093
			c-0.033-0.071-0.01-0.152,0.07-0.19c0.039-0.02,0.093-0.032,0.141-0.028c0.718,0.067,1.435,0.128,2.152,0.208
			c0.755,0.085,1.512,0.183,2.266,0.283c0.454,0.061,0.906,0.136,1.357,0.205C12.146,18.188,12.146,18.186,12.146,18.182z"/>
		<path fill-rule="evenodd" clip-rule="evenodd" fill="#00BDF2" d="M7.029,11.791c-0.115-0.019-0.184-0.083-0.18-0.168
			c0.002-0.083,0.09-0.154,0.194-0.144c0.206,0.019,0.411,0.044,0.618,0.069c0.489,0.059,0.98,0.119,1.472,0.179
			c0.425,0.053,0.851,0.107,1.277,0.159s0.853,0.101,1.28,0.151c0.389,0.045,0.777,0.091,1.166,0.134
			c0.354,0.038,0.705,0.072,1.057,0.109c0.089,0.009,0.18,0.017,0.269,0.028c0.094,0.012,0.144,0.055,0.15,0.128
			c0.008,0.082-0.081,0.197-0.228,0.181c-0.353-0.04-0.705-0.072-1.059-0.11c-0.371-0.04-0.743-0.083-1.114-0.125
			c-0.439-0.05-0.877-0.103-1.315-0.155c-0.326-0.039-0.65-0.077-0.976-0.117c-0.441-0.054-0.881-0.11-1.323-0.165
			c-0.412-0.051-0.828-0.101-1.24-0.151C7.061,11.793,7.043,11.792,7.029,11.791z"/>
		<path fill-rule="evenodd" clip-rule="evenodd" fill="#00BDF2" d="M13.041,9.839c0.357,0.083,0.715,0.165,1.072,0.249
			c0.136,0.033,0.199,0.173,0.112,0.25c-0.034,0.031-0.081,0.04-0.138,0.026c-0.155-0.039-0.309-0.08-0.465-0.115
			c-0.498-0.117-1.002-0.214-1.512-0.271c-0.318-0.036-0.638-0.061-0.957-0.089c-0.057-0.005-0.115-0.005-0.174-0.009
			c-0.109-0.006-0.178-0.062-0.183-0.151c-0.005-0.074,0.05-0.116,0.159-0.111c0.179,0.007,0.357,0.014,0.535,0.032
			c0.361,0.037,0.723,0.078,1.086,0.125c0.152,0.019,0.306,0.054,0.459,0.082C13.039,9.85,13.039,9.844,13.041,9.839z"/>
		<path fill-rule="evenodd" clip-rule="evenodd" fill="#00BDF2" d="M13.455,9.102c0.346,0.079,0.689,0.158,1.033,0.239
			c0.132,0.031,0.191,0.166,0.109,0.24c-0.033,0.03-0.078,0.039-0.133,0.026c-0.148-0.037-0.299-0.076-0.447-0.111
			c-0.481-0.112-0.966-0.206-1.457-0.261c-0.307-0.035-0.615-0.058-0.922-0.085c-0.057-0.005-0.111-0.006-0.167-0.008
			c-0.106-0.006-0.171-0.06-0.177-0.146c-0.005-0.071,0.049-0.112,0.155-0.108c0.17,0.008,0.343,0.014,0.513,0.032
			c0.349,0.035,0.697,0.075,1.047,0.119c0.147,0.019,0.295,0.053,0.442,0.08C13.453,9.111,13.455,9.106,13.455,9.102z"/>
		<path fill-rule="evenodd" clip-rule="evenodd" fill="#00BDF2" d="M13.736,8.368c0.343,0.08,0.688,0.158,1.031,0.239
			c0.133,0.031,0.192,0.166,0.109,0.241c-0.033,0.03-0.078,0.039-0.133,0.025c-0.148-0.037-0.297-0.076-0.447-0.111
			c-0.48-0.112-0.967-0.206-1.456-0.261c-0.307-0.035-0.615-0.058-0.923-0.085C11.863,8.41,11.807,8.41,11.75,8.407
			c-0.105-0.006-0.17-0.06-0.176-0.146c-0.004-0.071,0.049-0.112,0.154-0.107c0.172,0.008,0.344,0.014,0.516,0.031
			c0.348,0.036,0.696,0.076,1.045,0.12c0.148,0.018,0.295,0.052,0.442,0.079C13.733,8.378,13.733,8.373,13.736,8.368z"/>
	</g>
</g>
<path fill="#FFFFFF" d="M12.682,12.824c0.203-0.703,0.379-1.39,0.803-1.996c0.254-0.363,0.547-0.698,0.868-1.003
	c0.329-0.313,0.622-0.519,1.036-0.695c0.447-0.189,0.988-0.33,1.475-0.354c0.743-0.038,1.744,0.005,2.391,0.419
	c0.291,0.187,0.73,0.432,0.988,0.664c0.291,0.263,0.447,0.484,0.686,0.795c0.455,0.594,0.662,1.399,0.783,2.124
	c0.051,0.325,0.102,0.648,0.129,0.975c0.082,1.02-0.102,1.974-0.664,2.869c-0.154,0.245-0.111,0.196,0.088,0.424
	c0.178,0.201,0.496,0.546,0.664,0.756c0.084,0.105,0.645,0.981,0.984,1.517c0.426,0.667,0.844,1.269,1.219,1.968
	c0.268,0.498,0.525,0.819,0.678,1.203c0.109,0.281,0.232,0.534,0.207,0.837c-0.041,0.51-0.418,0.534-0.869,0.739
	c-0.336,0.155-0.627,0.234-0.787,0.248c-0.15,0.015-0.541-0.1-0.742-0.478c-0.213-0.398-0.559-0.804-0.799-1.188
	c-0.287-0.467-0.627-0.955-0.939-1.411c-0.641-0.938-1.33-2.127-1.863-3.036c-0.141-0.236-0.342-0.155-0.406-0.147
	c-0.254,0.03,0,0-0.256,0.021c-0.264,0.021-0.908,0.047-1.172,0.057c-0.446,0.014-0.916-0.01-1.349-0.139
	c-0.452-0.134-0.935-0.307-1.339-0.541c-0.631-0.368-1.068-0.7-1.439-1.345c-0.554-0.958-0.693-2.189-0.387-3.235
	C12.672,12.854,12.677,12.839,12.682,12.824z"/>
<path fill-rule="evenodd" clip-rule="evenodd" fill="#48689A" d="M12.682,12.824c0.203-0.703,0.379-1.39,0.803-1.996
	c0.254-0.363,0.547-0.698,0.868-1.003c0.329-0.313,0.622-0.519,1.036-0.695c0.447-0.189,0.988-0.33,1.475-0.354
	c0.743-0.038,1.744,0.005,2.391,0.419c0.291,0.187,0.73,0.432,0.988,0.664c0.291,0.263,0.447,0.484,0.686,0.795
	c0.455,0.594,0.662,1.399,0.783,2.124c0.051,0.325,0.102,0.648,0.129,0.975c0.082,1.02-0.102,1.974-0.664,2.869
	c-0.154,0.245-0.111,0.196,0.088,0.424c0.178,0.201,0.496,0.546,0.664,0.756c0.084,0.105,0.645,0.981,0.984,1.517
	c0.426,0.667,0.844,1.269,1.219,1.968c0.268,0.498,0.525,0.819,0.678,1.203c0.109,0.281,0.232,0.534,0.207,0.837
	c-0.041,0.51-0.418,0.534-0.869,0.739c-0.336,0.155-0.627,0.234-0.787,0.248c-0.15,0.015-0.541-0.1-0.742-0.478
	c-0.213-0.398-0.559-0.804-0.799-1.188c-0.287-0.467-0.627-0.955-0.939-1.411c-0.641-0.938-1.33-2.127-1.863-3.036
	c-0.141-0.236-0.342-0.155-0.406-0.147c-0.254,0.03,0,0-0.256,0.021c-0.264,0.021-0.908,0.047-1.172,0.057
	c-0.446,0.014-0.916-0.01-1.349-0.139c-0.452-0.134-0.935-0.307-1.339-0.541c-0.631-0.368-1.068-0.7-1.439-1.345
	c-0.554-0.958-0.693-2.189-0.387-3.235C12.672,12.854,12.677,12.839,12.682,12.824z M16.736,16.262c0,0.006,0,0.012-0.001,0.019
	c0.352,0.015,0.703,0.039,1.056,0.044c0.176,0.003,0.355-0.015,0.529-0.047c0.371-0.068,0.705-0.229,1.023-0.423
	c0.781-0.48,1.352-1.122,1.564-2.041c0.094-0.397,0.121-0.797,0.104-1.202c-0.016-0.344-0.076-0.682-0.162-1.017
	c-0.227-0.866-0.758-1.484-1.545-1.891c-0.377-0.195-0.773-0.334-1.186-0.43c-0.411-0.094-0.824-0.124-1.24-0.083
	c-0.33,0.032-0.646,0.12-0.956,0.234c-0.489,0.18-0.941,0.423-1.314,0.793c-0.3,0.296-0.552,0.631-0.769,0.994
	c-0.186,0.312-0.332,0.643-0.393,1.003c-0.093,0.551-0.072,1.101,0.051,1.645c0.118,0.521,0.365,0.972,0.754,1.341
	c0.377,0.358,0.836,0.577,1.314,0.761C15.944,16.109,16.336,16.203,16.736,16.262z M19.516,16.609
	c-0.15,0.055-0.262,0.309-0.262,0.309c-0.064,0.211-0.152,0.342-0.105,0.744c0.021,0.187,0.117,0.249,0.15,0.328
	c0.07,0.177,0.16,0.345,0.246,0.515c0.008,0.015,0.023,0.027,0.049,0.056c0.018-0.066,0.031-0.113,0.043-0.163
	c0.037-0.184,0.074-0.368,0.113-0.553c0.004-0.018,0.018-0.045,0.031-0.049c0.107-0.033,0.24,0.087,0.223,0.195
	c-0.053,0.334-0.104,0.667-0.16,1c-0.021,0.126,0.059,0.195,0.135,0.295c0.012-0.047,0.02-0.072,0.023-0.1
	c0.055-0.318,0.109-0.633,0.166-0.947c0.025-0.126,0.09-0.146,0.195-0.075c0.086,0.059,0.129,0.133,0.105,0.244
	c-0.074,0.361-0.141,0.726-0.215,1.087c-0.025,0.117-0.006,0.222,0.062,0.318c0.016,0.021,0.037,0.036,0.057,0.053
	c0.012-0.021,0.029-0.043,0.031-0.067c0.027-0.18,0.053-0.362,0.082-0.544c0.02-0.133,0.039-0.266,0.066-0.398
	c0.006-0.027,0.041-0.068,0.064-0.071c0.158-0.021,0.229,0.061,0.203,0.212c-0.061,0.353-0.121,0.704-0.18,1.058
	c-0.021,0.135,0.096,0.347,0.23,0.419c0.004-0.028,0.008-0.054,0.01-0.08c0.033-0.212,0.062-0.426,0.102-0.638
	c0.021-0.132,0.055-0.259,0.08-0.388c0.012-0.054,0.039-0.067,0.09-0.058c0.107,0.021,0.17,0.101,0.16,0.209
	c-0.006,0.08-0.02,0.156-0.031,0.233c-0.041,0.264-0.072,0.528-0.123,0.789c-0.043,0.212,0.02,0.372,0.166,0.516
	c0.014,0.009,0.025,0.017,0.049,0.034c0.006-0.039,0.01-0.065,0.014-0.092c0.035-0.242,0.072-0.482,0.109-0.726
	c0.012-0.076,0.035-0.151,0.057-0.229c0.004-0.018,0.029-0.041,0.047-0.043c0.162-0.019,0.27,0.104,0.238,0.263
	c-0.006,0.034-0.016,0.068-0.023,0.101c-0.066,0.342-0.133,0.684-0.197,1.024c-0.008,0.041-0.014,0.092,0.002,0.127
	c0.037,0.087,0.086,0.166,0.133,0.246c0.012,0.021,0.037,0.037,0.062,0.062c0.012-0.027,0.018-0.042,0.02-0.054
	c0.035-0.195,0.068-0.391,0.104-0.585c0.025-0.132,0.055-0.258,0.086-0.388c0.006-0.027,0.029-0.073,0.039-0.071
	c0.066,0.003,0.139,0.009,0.195,0.037c0.031,0.017,0.061,0.079,0.059,0.119c-0.008,0.125-0.033,0.247-0.051,0.37
	c-0.041,0.324-0.082,0.647-0.121,0.969c-0.004,0.029,0,0.06,0.01,0.086c0.045,0.111,0.092,0.221,0.141,0.329
	c0.016,0.03,0.037,0.057,0.066,0.096c0.01-0.034,0.018-0.051,0.02-0.066c0.033-0.279,0.062-0.56,0.102-0.839
	c0.018-0.12,0.045-0.238,0.078-0.354c0.02-0.072,0.064-0.083,0.133-0.052c0.031,0.014,0.064,0.028,0.088,0.052
	c0.018,0.017,0.035,0.047,0.033,0.07c-0.018,0.208-0.037,0.415-0.062,0.621c-0.033,0.274-0.068,0.549-0.111,0.821
	c-0.021,0.15,0.053,0.252,0.141,0.354c0.008,0.011,0.027,0.015,0.053,0.028c0.006-0.036,0.01-0.062,0.014-0.088
	c0.041-0.261,0.078-0.522,0.125-0.781c0.027-0.137,0.066-0.271,0.111-0.401c0.025-0.075,0.109-0.094,0.201-0.062
	c0.072,0.026,0.078,0.076,0.064,0.143c-0.02,0.103-0.061,0.177-0.076,0.279l-0.025,0.134c-0.244,1.146-0.229,1.02-0.217,1.088
	c0.01,0.05,0.02,0.281,0.287,0.335c0.336,0.048,0.973-0.303,1.072-0.341c0.102-0.036,0.303-0.041,0.33-0.397
	s-0.291-0.823-0.291-0.823c-0.012-0.022-0.025-0.046-0.039-0.07c-0.418-0.713-0.834-1.427-1.254-2.139
	c-0.283-0.48-0.576-0.954-0.855-1.437c-0.359-0.617-0.801-1.227-1.332-1.699c-0.123-0.11-0.137-0.153-0.303-0.164
	c-0.158-0.012-0.381-0.105-0.488-0.219C20.047,16.613,19.73,16.533,19.516,16.609z M12.98,13.686
	c-0.016,0.252-0.041,0.438-0.037,0.69c0.004,0.304,0.047,1.015,0.309,1.394c0.268,0.409,0.584,0.808,0.992,1.069
	c0.369,0.237,0.768,0.392,1.145,0.614c0.048,0.026,0.07,0.01,0.082-0.031c0.027-0.1,0.054-0.199,0.078-0.299
	c0.046-0.193,0.045-0.191,0.238-0.144c0.068,0.017,0.092,0.048,0.073,0.119c-0.04,0.146-0.076,0.294-0.11,0.441
	c-0.006,0.029-0.01,0.082,0.002,0.088c0.043,0.021,0.092,0.03,0.138,0.032c0.014,0.001,0.034-0.035,0.043-0.057
	c0.014-0.036,0.023-0.075,0.03-0.113c0.023-0.121,0.048-0.24,0.068-0.361c0.01-0.066,0.041-0.088,0.104-0.074
	c0.015,0.003,0.029,0.003,0.044,0.005c0.16,0.02,0.179,0.039,0.144,0.193c-0.035,0.147-0.075,0.294-0.11,0.441
	c-0.006,0.022-0.006,0.065,0.001,0.066c0.05,0.014,0.104,0.027,0.156,0.026c0.016-0.001,0.043-0.045,0.048-0.071
	c0.038-0.175,0.073-0.35,0.105-0.524c0.021-0.116,0.041-0.136,0.159-0.129c0.021,0.001,0.044,0.006,0.064,0.01
	c0.098,0.02,0.104,0.026,0.082,0.121c-0.043,0.191-0.086,0.382-0.131,0.572c-0.006,0.025-0.01,0.051-0.014,0.082
	c0.062,0.003,0.097-0.014,0.108-0.07c0.036-0.17,0.075-0.34,0.111-0.51c0.04-0.187,0.04-0.187,0.233-0.189
	c0.062-0.001,0.083,0.021,0.068,0.082c-0.045,0.192-0.091,0.386-0.137,0.578c-0.031,0.135-0.012,0.152,0.127,0.138
	c0.062-0.006,0.078-0.045,0.088-0.089c0.047-0.208,0.094-0.416,0.131-0.625c0.017-0.092,0.072-0.115,0.207-0.098
	c0.079,0.012,0.098,0.042,0.077,0.141c-0.036,0.183-0.079,0.364-0.117,0.546c-0.019,0.087,0.005,0.11,0.092,0.105
	c0.056-0.004,0.07-0.036,0.078-0.08c0.035-0.197,0.069-0.395,0.106-0.593c0.02-0.104,0.061-0.134,0.168-0.126
	c0.029,0.002,0.062,0.01,0.094,0.015c0.062,0.01,0.088,0.041,0.074,0.106c-0.043,0.197-0.08,0.394-0.117,0.59
	c-0.008,0.032-0.01,0.064-0.014,0.102c0.07-0.006,0.104-0.034,0.113-0.096c0.041-0.208,0.082-0.417,0.125-0.625
	c0.018-0.079,0.047-0.097,0.119-0.082c0.059,0.014,0.088,0.042,0.068,0.109c-0.049,0.18-0.07,0.36-0.035,0.544
	c0.006,0.021,0.02,0.041,0.035,0.079c0.24,0.041,0.381-0.034,0.383-0.046c0.006-0.028,0.008-0.059,0.012-0.088
	c0.029-0.272-0.012-0.446,0.146-0.825c0.023-0.059,0.068-0.107,0.098-0.163c0.01-0.019,0.016-0.052,0.006-0.065
	c-0.01-0.013-0.305,0.032-0.324,0.036c-0.16,0.031-0.32,0.07-0.48,0.095c-0.238,0.038-0.479,0.085-0.717,0.09
	c-0.234,0.004-0.471-0.021-0.699-0.068c-0.418-0.087-0.833-0.195-1.246-0.302c-0.281-0.071-0.547-0.183-0.798-0.329
	c-0.356-0.208-0.685-0.457-1-0.723c-0.332-0.282-0.62-0.983-0.757-1.404c-0.031-0.091-0.057-0.184-0.083-0.277
	C13.002,13.564,12.98,13.686,12.98,13.686z M19.643,16.37c0.004,0.007,0.006,0.015,0.01,0.022c0.031,0.004,0.062,0.004,0.092,0.01
	c0.109,0.021,0.299,0.016,0.402,0.054c0.129,0.048,0.268,0.148,0.34,0.265c0.031,0.05,0.064,0.056,0.107,0.014
	c0.014-0.015,0.082-0.093,0.096-0.109c0.24-0.287,0.393-0.618,0.486-0.975c0.066-0.26,0.111-0.526,0.152-0.792
	c0.064-0.417,0.113-0.838,0.1-1.263c-0.002-0.064-0.002-0.134-0.061-0.202c-0.01,0.039-0.016,0.061-0.02,0.085
	c-0.039,0.199-0.074,0.399-0.115,0.598c-0.09,0.431-0.262,0.826-0.502,1.193c-0.23,0.354-0.525,0.647-0.83,0.935
	C19.873,16.23,19.668,16.344,19.643,16.37z"/>
<path fill-rule="evenodd" clip-rule="evenodd" fill="#00BDF2" d="M19.238,10.284c0.33,0.24,0.67,0.577,0.92,1.001
	c0.078,0.135,0.135,0.277,0.152,0.434c0.016,0.134-0.066,0.173-0.18,0.181c-0.027,0.003-0.072-0.039-0.086-0.07
	c-0.051-0.112-0.094-0.229-0.145-0.343c-0.115-0.27-0.295-0.491-0.52-0.679c-0.238-0.2-0.494-0.374-0.768-0.521
	c-0.416-0.225-0.857-0.334-1.334-0.292c-0.311,0.027-0.619,0.065-0.922,0.142c-0.321,0.082-0.604,0.234-0.848,0.458
	c-0.111,0.101-0.208,0.214-0.279,0.348c-0.011,0.021-0.024,0.043-0.037,0.064c-0.047,0.071-0.121,0.097-0.187,0.059
	c-0.067-0.038-0.149-0.133-0.098-0.213c0.069-0.109,0.144-0.216,0.229-0.312c0.416-0.468,0.965-0.675,1.56-0.788
	c0.489-0.093,0.976-0.062,1.46,0.048C18.523,9.883,18.863,10.024,19.238,10.284z"/>
<path fill-rule="evenodd" clip-rule="evenodd" fill="#00BDF2" d="M16.833,15.537c-0.153-0.048-0.297-0.088-0.437-0.14
	c-0.271-0.102-0.541-0.209-0.811-0.318c-0.366-0.15-0.678-0.38-0.964-0.651c-0.092-0.087-0.102-0.131-0.045-0.241
	c0.048-0.093,0.124-0.117,0.212-0.057c0.062,0.042,0.126,0.086,0.177,0.14c0.2,0.215,0.456,0.342,0.718,0.457
	c0.32,0.14,0.641,0.274,0.966,0.402c0.114,0.045,0.237,0.07,0.357,0.098c0.069,0.017,0.091,0.066,0.099,0.127
	c0.012,0.091-0.011,0.151-0.078,0.167C16.963,15.536,16.894,15.533,16.833,15.537z"/>
</svg>
