<?xml version="1.0" encoding="utf-8"?>
<!-- Generator: Adobe Illustrator 16.0.0, SVG Export Plug-In . SVG Version: 6.00 Build 0)  -->
<!DOCTYPE svg PUBLIC "-//W3C//DTD SVG 1.1//EN" "http://www.w3.org/Graphics/SVG/1.1/DTD/svg11.dtd">
<svg version="1.1" id="Layer_1" xmlns="http://www.w3.org/2000/svg" xmlns:xlink="http://www.w3.org/1999/xlink" x="0px" y="0px"
	 width="30px" height="30px" viewBox="0 0 30 30" enable-background="new 0 0 30 30" xml:space="preserve">
<ellipse opacity="0.4" fill="#CAE4D9" cx="15.164" cy="14.805" rx="13.645" ry="13.805"/>
<g>
	<path fill="#48689A" d="M8.783,18.391c0,0,1.931,0.164,3.021,0.384c1.089,0.22,5.751,0.811,5.751,0.811s0.564,0.119,0.506-0.419
		s-0.493-4.363-0.454-6.358c0.037-1.996,0.195-2.559-0.548-2.403c-1.603,0.348-8.273,2.212-8.273,2.212
		c-0.383,0.085-0.974-0.007-1.341,0.092c-0.287,0.078-0.548,0.195-0.736,0.408c-0.155,0.173-0.247,0.377-0.319,0.585
		c-0.111,0.324-0.14,0.66-0.153,0.996c-0.018,0.409,0.015,0.503,0.055,0.911c0.027,0.284,0.074,0.566,0.117,0.851
		c0.024,0.161,0.114,0.813,0.147,0.973c0.036,0.182,0.063,0.364,0.151,0.535c0.14,0.269,0.354,0.335,0.725,0.338
		C7.89,18.309,8.135,18.348,8.783,18.391 M17.62,19.109c-0.966-0.081-2.177-0.274-2.177-0.274s-0.936-0.122-2.786-0.377
		c-1.9-0.263-3.612-0.537-3.612-0.537 M20.044,18.871 M9.045,17.921c0,0.013-0.298-0.288-0.298-0.273
		c-0.038-0.025-0.063-0.037-0.084-0.055c-0.125-0.108-0.247-0.219-0.373-0.327c-0.035-0.031-0.079-0.056-0.12-0.082
		c-0.043-0.032-0.068-0.015-0.068,0.026c0,0.105,0.014,0.208,0.104,0.287c0.151,0.136,0.303,0.271,0.454,0.406
		c0.019,0.018,0.028,0.041,0.042,0.062c-0.029,0.006-0.059,0.017-0.089,0.016c-0.05-0.001-0.1-0.013-0.151-0.017
		c-0.043-0.002-0.048-0.021-0.037-0.051c0.021-0.061,0.004-0.114-0.047-0.157c-0.162-0.135-0.324-0.267-0.487-0.398
		c-0.024-0.02-0.06-0.028-0.091-0.041c-0.016,0.028-0.036,0.058-0.043,0.088c-0.015,0.063,0.006,0.119,0.058,0.169
		c0.089,0.083,0.176,0.17,0.263,0.256c0.022,0.021,0.047,0.044,0.062,0.07c0.011,0.02,0.007,0.045,0.01,0.068
		c-0.034,0-0.079,0.015-0.097,0.001c-0.071-0.049-0.14-0.103-0.198-0.164c-0.147-0.156-0.287-0.315-0.431-0.474
		c-0.013-0.015-0.025-0.03-0.041-0.043c-0.034-0.027-0.081-0.022-0.091,0.016c-0.013,0.053-0.02,0.109-0.006,0.16
		c0.029,0.109,0.121,0.188,0.201,0.271c0.049,0.052,0.101,0.1,0.149,0.151c0.01,0.011,0.02,0.028,0.014,0.039
		c-0.004,0.008-0.027,0.013-0.042,0.016c-0.017,0.001-0.034-0.001-0.052,0.001c-0.073,0.01-0.122-0.014-0.149-0.074
		c-0.033-0.072-0.095-0.125-0.177-0.15c-0.089-0.029-0.123-0.088-0.137-0.159c-0.054-0.263-0.174-1.018-0.219-1.281
		c-0.047-0.272-0.089-0.544-0.118-0.818c-0.055-0.51-0.104-0.711-0.031-1.223c0.042-0.298,0.128-0.583,0.325-0.836
		c0.163-0.208,0.39-0.327,0.669-0.381c0.261-0.051,0.595,0.075,0.861,0.048c0.121-0.012,0.715-0.171,0.72-0.17
		c4.265-0.915,7.353-2.006,7.353-2.006s0.531-0.134,0.478,0.111c-0.054,0.243,0.172,6.772,0.278,7.149
		c0.106,0.375,0.408,0.972,0.214,0.957"/>
	<path fill="#48689A" d="M18.918,19.716c1.062,0.271,2.484,0.571,2.484,0.571s0.548,0.148,0.511-0.456
		c-0.036-0.604-0.227-4.958-0.211-7.135c0.014-2.237,0.329-3.139-0.404-2.985c0,0-2.034,0.547-2.392,0.563
		c-0.36,0.017-0.227,0.128-0.264,0.485c-0.06,0.562-0.24,6.073-0.036,7.989C18.68,19.436,18.58,19.63,18.918,19.716z M21.196,19.68
		c-0.942-0.12-1.626-0.243-1.626-0.243s-0.372,0-0.383-0.374c-0.025-0.8-0.271-3.427-0.08-7.386
		c0.046-0.956-0.023-0.958,0.337-1.002c0.359-0.044,1.435-0.429,1.435-0.429s0.525-0.136,0.465,0.136
		c-0.062,0.272-0.021,7.531,0.021,7.964C21.474,19.452,21.387,19.699,21.196,19.68"/>
	<path fill="#48689A" d="M12.412,18.674c-0.062,0.028-0.149,0.003-0.301-0.148c-0.184-0.185-0.366-0.346-0.549-0.517
		c-0.031-0.028-0.062-0.058-0.091-0.088c-0.065-0.071-0.094-0.131-0.069-0.156c0.022-0.025,0.055-0.038,0.082-0.058l0.004,0.006
		c0.022-0.003,0.042-0.007,0.064-0.007c0.043,0,0.096,0.041,0.167,0.113c0.274,0.287,0.462,0.472,0.575,0.589
		C12.452,18.568,12.485,18.64,12.412,18.674z"/>
	<path fill="#48689A" d="M10.602,18.237c-0.049,0.022-0.12,0.003-0.241-0.12c-0.146-0.146-0.292-0.276-0.441-0.412
		c-0.024-0.023-0.049-0.046-0.073-0.072c-0.051-0.056-0.075-0.104-0.056-0.124c0.019-0.021,0.044-0.03,0.067-0.045l0.003,0.004
		c0.017-0.003,0.034-0.006,0.052-0.005c0.034,0,0.078,0.031,0.133,0.092c0.154,0.158,0.309,0.313,0.463,0.471
		C10.634,18.152,10.661,18.211,10.602,18.237z"/>
	<path fill="#48689A" d="M9.755,18.13c-0.05,0.022-0.12,0.002-0.241-0.12c-0.147-0.147-0.293-0.276-0.44-0.413
		C9.049,17.574,9.024,17.552,9,17.525c-0.052-0.056-0.075-0.104-0.056-0.124c0.019-0.02,0.044-0.031,0.066-0.046l0.004,0.005
		c0.018-0.002,0.033-0.006,0.051-0.006c0.034,0,0.077,0.032,0.134,0.092c0.153,0.159,0.309,0.314,0.461,0.472
		C9.787,18.045,9.813,18.104,9.755,18.13z"/>
	<path fill="#48689A" d="M11.743,18.505c-0.03,0.021-0.089-0.012-0.219-0.169c-0.158-0.188-0.31-0.356-0.465-0.534
		c-0.026-0.03-0.052-0.06-0.079-0.093c-0.057-0.069-0.091-0.131-0.083-0.152c0.006-0.021,0.022-0.029,0.034-0.044l0.004,0.004
		c0.012-0.001,0.022-0.003,0.036,0c0.025,0.004,0.069,0.048,0.131,0.123c0.167,0.205,0.334,0.404,0.5,0.605
		C11.738,18.408,11.778,18.48,11.743,18.505z"/>
	<path fill="#48689A" d="M11.211,18.348c-0.029,0.021-0.088-0.013-0.219-0.168c-0.158-0.189-0.31-0.357-0.465-0.535
		c-0.025-0.029-0.051-0.06-0.078-0.092c-0.058-0.071-0.091-0.131-0.083-0.152c0.007-0.021,0.023-0.031,0.034-0.046l0.003,0.006
		c0.013,0,0.023-0.003,0.037,0c0.026,0.003,0.069,0.046,0.13,0.122c0.168,0.204,0.334,0.403,0.501,0.605
		C11.208,18.251,11.248,18.324,11.211,18.348z"/>
	<path fill="#48689A" d="M12.967,18.681c-0.03,0.001-0.059,0.002-0.088,0.002c-0.044,0-0.095-0.03-0.17-0.105
		c-0.196-0.198-0.392-0.388-0.589-0.586c-0.051-0.05-0.102-0.119-0.153-0.18c0.011-0.026,0.021-0.055,0.034-0.077
		c0.008-0.012,0.025-0.012,0.036-0.02c0.041-0.029,0.108-0.001,0.206,0.1c0.225,0.232,0.449,0.464,0.674,0.699
		C13.006,18.607,13.025,18.677,12.967,18.681z"/>
	<path fill="#48689A" d="M13.632,18.784c-0.045,0.011-0.087,0.027-0.14,0.025c-0.021,0-0.066-0.031-0.102-0.065
		c-0.236-0.216-0.473-0.433-0.71-0.652c-0.046-0.045-0.094-0.101-0.156-0.164c0.079-0.018,0.137-0.043,0.209-0.043
		c0.028,0,0.088,0.037,0.133,0.081c0.188,0.184,0.375,0.377,0.561,0.564c0.058,0.059,0.114,0.114,0.17,0.173
		C13.639,18.745,13.656,18.778,13.632,18.784z"/>
	<path fill="#48689A" d="M13.993,18.825c-0.02-0.002-0.062-0.04-0.095-0.071c-0.255-0.25-0.51-0.504-0.766-0.755
		c-0.022-0.022-0.045-0.054-0.068-0.08c0.007-0.012,0.01-0.027,0.021-0.032c0.035-0.011,0.065-0.024,0.108-0.02
		c0.019,0.001,0.069,0.037,0.092,0.068c0.115,0.154,0.232,0.278,0.353,0.395c0.12,0.113,0.24,0.229,0.36,0.347
		c0.032,0.03,0.063,0.067,0.116,0.126C14.067,18.812,14.037,18.828,13.993,18.825z"/>
	<path fill="#48689A" d="M14.119,18.029c0.052,0.003,0.104,0.017,0.202,0.124c0.084,0.092,0.174,0.158,0.26,0.234
		c0.173,0.15,0.345,0.3,0.517,0.452c0.022,0.019,0.045,0.05,0.067,0.074c-0.006,0.012-0.011,0.027-0.021,0.032
		c-0.014,0.009-0.033,0.009-0.049,0.012c-0.079,0.007-0.154,0.018-0.237,0.018c-0.017,0-0.059-0.031-0.084-0.062
		c-0.083-0.096-0.163-0.198-0.245-0.301c-0.126-0.158-0.253-0.317-0.379-0.477C14.083,18.053,14.074,18.026,14.119,18.029z"/>
	<path fill="#48689A" d="M16.597,19.143c-0.058,0.029-0.139,0.003-0.278-0.149c-0.17-0.184-0.339-0.345-0.508-0.517
		c-0.027-0.028-0.058-0.057-0.085-0.088c-0.061-0.07-0.086-0.131-0.065-0.155c0.021-0.025,0.051-0.039,0.078-0.058l0.003,0.006
		c0.021-0.003,0.039-0.007,0.061-0.007c0.04,0,0.089,0.041,0.155,0.114c0.177,0.199,0.356,0.392,0.533,0.588
		C16.635,19.036,16.665,19.109,16.597,19.143z"/>
	<path fill="#48689A" d="M17.104,19.151c-0.027,0-0.053,0.002-0.081,0.001c-0.038,0-0.088-0.031-0.155-0.106
		c-0.183-0.197-0.365-0.388-0.547-0.585c-0.047-0.051-0.095-0.119-0.142-0.18c0.009-0.027,0.02-0.056,0.031-0.078
		c0.007-0.012,0.023-0.012,0.033-0.02c0.037-0.029,0.1-0.001,0.19,0.101c0.208,0.23,0.417,0.463,0.625,0.698
		C17.142,19.077,17.159,19.146,17.104,19.151z"/>
	<path fill="#48689A" d="M17.727,19.167c-0.042,0.011-0.081,0.027-0.131,0.026c-0.02-0.001-0.062-0.033-0.094-0.064
		c-0.219-0.217-0.438-0.436-0.657-0.655c-0.044-0.044-0.088-0.1-0.145-0.163c0.072-0.019,0.126-0.043,0.194-0.043
		c0.025-0.001,0.081,0.035,0.122,0.08c0.175,0.185,0.348,0.377,0.521,0.566c0.054,0.058,0.104,0.113,0.157,0.172
		C17.732,19.129,17.748,19.16,17.727,19.167z"/>
	<path fill="#48689A" d="M14.961,18.063c0.048,0.005,0.096,0.016,0.187,0.116c0.078,0.085,0.161,0.146,0.241,0.217
		c0.159,0.139,0.319,0.278,0.479,0.418c0.02,0.017,0.042,0.047,0.062,0.07c-0.005,0.01-0.009,0.024-0.019,0.029
		c-0.013,0.006-0.03,0.006-0.045,0.011c-0.073,0.007-0.143,0.016-0.219,0.016c-0.015-0.001-0.055-0.028-0.078-0.057
		c-0.078-0.089-0.152-0.185-0.228-0.277c-0.117-0.146-0.233-0.295-0.352-0.443C14.928,18.087,14.92,18.062,14.961,18.063z"/>
	<path fill="#48689A" d="M24.188,11.361c-0.22-0.116-0.244-0.244-0.102-0.327c0.308-0.175,0.621-0.343,0.943-0.49
		c0.391-0.18,0.792-0.341,1.191-0.5c0.111-0.043,0.235-0.06,0.354-0.074c0.154-0.016,0.269,0.051,0.328,0.197
		c0.058,0.14,0.05,0.268-0.092,0.352c-0.119,0.07-0.237,0.151-0.367,0.195c-0.625,0.21-1.254,0.413-1.885,0.606
		C24.425,11.361,24.269,11.353,24.188,11.361z"/>
	<path fill="#48689A" d="M25.206,15.112c-0.254-0.011-0.651-0.03-1.05-0.051c-0.035-0.001-0.072-0.008-0.106-0.017
		c-0.131-0.03-0.269-0.062-0.25-0.178c0.018-0.108,0.166-0.125,0.287-0.139c0.676-0.079,1.353-0.16,2.032-0.221
		c0.237-0.021,0.487,0.004,0.729,0.019c0.166,0.011,0.252,0.093,0.282,0.196c0.032,0.111-0.03,0.207-0.187,0.25
		c-0.155,0.043-0.323,0.08-0.488,0.091C26.089,15.088,25.72,15.093,25.206,15.112z"/>
	<path fill="#48689A" d="M27.1,19.473c0.074,0.18,0.04,0.301-0.064,0.413c-0.1,0.105-0.218,0.096-0.317,0.059
		c-0.277-0.104-0.555-0.213-0.817-0.342c-0.578-0.28-1.149-0.574-1.72-0.869c-0.095-0.051-0.245-0.108-0.156-0.246
		c0.081-0.123,0.224-0.059,0.321-0.026c0.816,0.264,1.63,0.532,2.438,0.812C26.919,19.319,27.023,19.423,27.1,19.473z"/>
	<path fill="#48689A" d="M13.077,18.718c-0.025,0.178-0.061,0.357-0.103,0.534c-0.066,0.278-0.182,0.529-0.358,0.756
		c-0.13,0.168-0.265,0.33-0.435,0.462c-0.199,0.154-0.421,0.25-0.667,0.297c-0.25,0.048-0.5,0.06-0.751,0.048
		c-0.229-0.004-0.454-0.035-0.678-0.091c-0.52-0.129-1.007-0.472-1.271-0.942c-0.126-0.22-0.2-0.459-0.242-0.711
		c-0.046-0.272-0.074-0.544-0.055-0.824 M8.875,18.029c-0.036,0.283-0.03,0.566,0.04,0.844c0.065,0.252,0.17,0.489,0.308,0.709
		c0.178,0.284,0.421,0.486,0.737,0.6c0.251,0.091,0.512,0.126,0.811,0.143c0.09-0.001,0.213,0.001,0.336-0.009
		c0.115-0.008,0.232-0.019,0.343-0.045c0.32-0.079,0.574-0.264,0.786-0.514c0.215-0.251,0.343-0.543,0.414-0.864"/>
	<path fill="#48689A" d="M12.119,18.822c-0.091,0.245-0.225,0.463-0.425,0.632c-0.267,0.224-0.576,0.315-0.942,0.307
		c-0.315-0.028-0.631-0.132-0.898-0.344c-0.312-0.248-0.509-0.584-0.458-0.979 M9.638,18.393c-0.01,0.103,0.016,0.199,0.049,0.293
		c0.087,0.26,0.238,0.469,0.483,0.596c0.282,0.145,0.58,0.195,0.895,0.146c0.275-0.042,0.494-0.169,0.649-0.404
		c0.105-0.158,0.181-0.331,0.229-0.516"/>
	<path fill="#48689A" d="M21.464,19.74c0.03-0.004,0.047-0.02,0.046-0.049c-0.001-0.038-0.004-0.077-0.008-0.115
		c-0.002-0.01-0.01-0.021-0.021-0.027c-0.128-0.09-0.263-0.175-0.39-0.268c-0.148-0.109-0.294-0.223-0.438-0.336
		c-0.054-0.04-0.091-0.093-0.121-0.148c-0.022-0.041-0.029-0.081-0.008-0.124c0.014-0.028,0.026-0.057,0.036-0.085
		c0.007-0.027,0.026-0.038,0.051-0.029c0.035,0.011,0.072,0.023,0.106,0.042c0.166,0.096,0.312,0.215,0.456,0.337
		c0.115,0.096,0.222,0.198,0.333,0.298c0.011,0.01,0.028,0.015,0.042,0.021c0.007-0.015,0.018-0.027,0.021-0.043
		c0.005-0.019,0.005-0.04,0.002-0.059c-0.015-0.111-0.031-0.225-0.045-0.337c-0.008-0.057-0.036-0.103-0.079-0.142
		c-0.043-0.04-0.085-0.081-0.134-0.113c-0.164-0.109-0.329-0.214-0.494-0.32c-0.084-0.055-0.169-0.109-0.253-0.165
		c-0.044-0.027-0.053-0.068-0.036-0.11c0.019-0.05,0.043-0.1,0.07-0.146c0.031-0.053,0.038-0.056,0.09-0.021
		c0.106,0.075,0.215,0.148,0.313,0.232c0.153,0.129,0.3,0.265,0.45,0.397c0.014,0.01,0.04,0.026,0.048,0.021
		c0.014-0.01,0.028-0.031,0.03-0.05c0.005-0.052,0.008-0.105,0.005-0.158c-0.007-0.072-0.021-0.143-0.027-0.214
		c-0.006-0.062-0.031-0.108-0.085-0.145c-0.148-0.097-0.296-0.197-0.446-0.294c-0.143-0.091-0.287-0.178-0.433-0.267
		c-0.031-0.02-0.058-0.043-0.068-0.078c-0.026-0.085-0.018-0.17,0.017-0.252c0.015-0.038,0.028-0.04,0.064-0.021
		c0.014,0.006,0.029,0.013,0.042,0.021c0.103,0.075,0.207,0.149,0.305,0.23c0.166,0.14,0.328,0.285,0.49,0.428
		c0.045,0.038,0.07,0.032,0.087-0.022c0.001-0.005,0.001-0.01,0.002-0.015c0.023-0.108,0.01-0.218-0.002-0.327
		c-0.004-0.032-0.017-0.059-0.043-0.078c-0.05-0.041-0.097-0.082-0.149-0.116c-0.229-0.153-0.463-0.302-0.689-0.457
		c-0.124-0.084-0.243-0.178-0.362-0.27c-0.027-0.021-0.049-0.052-0.062-0.084c-0.045-0.091-0.013-0.161,0.084-0.19
		c0.026-0.007,0.049-0.006,0.071,0.013c0.053,0.039,0.105,0.077,0.155,0.116c0.26,0.207,0.519,0.411,0.779,0.618
		c0.052,0.039,0.102,0.079,0.157,0.116c0.041,0.029,0.071,0.014,0.073-0.035c0.002-0.031,0-0.062-0.003-0.094"/>
	<path fill="#48689A" d="M21.368,16.527c0.024-0.002,0.037-0.015,0.037-0.037c-0.001-0.03-0.003-0.061-0.007-0.091
		c-0.001-0.007-0.008-0.016-0.014-0.021c-0.103-0.069-0.206-0.137-0.304-0.208c-0.117-0.084-0.229-0.173-0.341-0.261
		c-0.042-0.031-0.07-0.071-0.094-0.116c-0.018-0.03-0.023-0.062-0.007-0.095c0.012-0.022,0.021-0.043,0.028-0.067
		c0.006-0.021,0.02-0.027,0.039-0.022c0.028,0.009,0.056,0.019,0.081,0.033c0.13,0.075,0.244,0.166,0.356,0.262
		c0.089,0.075,0.173,0.154,0.259,0.231c0.008,0.007,0.021,0.012,0.031,0.017c0.006-0.012,0.015-0.022,0.018-0.033
		c0.003-0.014,0.003-0.03,0.001-0.045c-0.011-0.088-0.022-0.176-0.035-0.263c-0.005-0.044-0.029-0.08-0.062-0.11
		c-0.033-0.03-0.065-0.062-0.104-0.088c-0.127-0.085-0.256-0.166-0.384-0.248c-0.065-0.043-0.131-0.086-0.196-0.128
		c-0.034-0.021-0.04-0.053-0.027-0.085c0.015-0.04,0.032-0.078,0.054-0.115c0.023-0.041,0.03-0.043,0.069-0.017
		c0.083,0.059,0.166,0.116,0.244,0.181c0.119,0.099,0.234,0.206,0.351,0.307c0.01,0.009,0.03,0.02,0.036,0.019
		c0.012-0.008,0.022-0.025,0.024-0.039c0.004-0.042,0.006-0.083,0.002-0.125c-0.004-0.055-0.015-0.11-0.02-0.166
		c-0.005-0.047-0.024-0.084-0.066-0.112c-0.117-0.075-0.23-0.154-0.346-0.228c-0.11-0.071-0.224-0.138-0.336-0.208
		c-0.025-0.015-0.046-0.033-0.054-0.061c-0.021-0.067-0.014-0.132,0.013-0.197c0.012-0.027,0.021-0.03,0.049-0.017
		c0.012,0.006,0.023,0.011,0.034,0.018c0.079,0.06,0.16,0.116,0.235,0.179c0.129,0.108,0.255,0.221,0.383,0.333
		c0.033,0.031,0.053,0.025,0.066-0.018c0.001-0.003,0.001-0.007,0.002-0.011c0.017-0.085,0.007-0.169-0.002-0.254
		c-0.003-0.025-0.014-0.046-0.034-0.061c-0.037-0.031-0.074-0.062-0.116-0.09c-0.177-0.119-0.358-0.234-0.535-0.354
		c-0.097-0.065-0.188-0.138-0.281-0.209c-0.021-0.016-0.038-0.042-0.048-0.066c-0.035-0.07-0.011-0.125,0.065-0.146
		c0.021-0.007,0.038-0.005,0.055,0.008c0.041,0.031,0.081,0.061,0.121,0.093c0.202,0.159,0.403,0.319,0.604,0.478
		c0.04,0.032,0.08,0.062,0.122,0.091c0.031,0.023,0.056,0.012,0.057-0.027c0.002-0.024,0.001-0.048-0.002-0.072"/>
</g>
</svg>
