<?xml version="1.0" encoding="utf-8"?>
<!-- Generator: Adobe Illustrator 16.0.0, SVG Export Plug-In . SVG Version: 6.00 Build 0)  -->
<!DOCTYPE svg PUBLIC "-//W3C//DTD SVG 1.1//EN" "http://www.w3.org/Graphics/SVG/1.1/DTD/svg11.dtd">
<svg version="1.1" id="Layer_1" xmlns="http://www.w3.org/2000/svg" xmlns:xlink="http://www.w3.org/1999/xlink" x="0px" y="0px"
	 width="30px" height="30px" viewBox="0 0 30 30" enable-background="new 0 0 30 30" xml:space="preserve">
<path fill="#00A0DC" d="M14.167,15.288c0,0,5.71-8.269,11.252-11.395c0.142-0.113,1.905-0.341,3.296,0.454
	c0.256,0.143,0.399,0.541,0,0.74c-0.396,0.198-7.932,4.839-12.893,13.479c-0.565,0.832-0.926,1.326-1.656,1.326
	c-0.729,0-2.586-0.229-2.926-1.365c-0.342-1.137-1.44-4.167-2.122-5.001c-0.682-0.833,0.189-1.677,0.559-1.903
	c0.37-0.229,1.903-1.136,3.126,0.738C14.024,14.237,14.138,15.004,14.167,15.288z"/>
<g>
	<g>
		<path fill="#FFFFFF" d="M4.08,24.292c0-4.672,0-9.345,0-14.017c0-1.039,0-2.079,0-3.118c0-3.037,3.469-2.353,5.077-2.353
			c2.487,0,4.973,0,7.46,0c0.638,0,2.085-0.969,0.785-0.969c-3.978,0-7.957,0-11.935,0c-0.703,0-2.296,0.25-2.74,0.959
			C1.422,6.883,2.148,9.982,2.148,12.35c0,4.153,0,8.307,0,12.46C2.148,25.299,4.08,24.967,4.08,24.292L4.08,24.292z"/>
	</g>
</g>
<g>
	<g>
		<path fill="#FFFFFF" d="M23.557,13.707c0,2.573,0,5.146,0,7.719c0,3.811,0.473,3.761-3.443,3.761
			c-2.275,0-15.404,1.215-16.034-0.838c-0.281-0.917-2.21-0.391-1.932,0.518c0.4,1.306,1.097,1.765,2.477,1.779
			c5.108,0.054,10.22,0,15.329,0c1.189,0,4.644,0.591,5.411-1.09c0.538-1.179,0.152-3.043,0.152-4.265c0-2.573,0-5.146,0-7.719
			C25.518,12.533,23.557,12.807,23.557,13.707L23.557,13.707z"/>
	</g>
</g>
</svg>
