<?xml version="1.0" encoding="utf-8"?>
<!-- Generator: Adobe Illustrator 16.0.0, SVG Export Plug-In . SVG Version: 6.00 Build 0)  -->
<!DOCTYPE svg PUBLIC "-//W3C//DTD SVG 1.1//EN" "http://www.w3.org/Graphics/SVG/1.1/DTD/svg11.dtd">
<svg version="1.1" id="Layer_1" xmlns="http://www.w3.org/2000/svg" xmlns:xlink="http://www.w3.org/1999/xlink" x="0px" y="0px"
	 width="30px" height="30px" viewBox="0 0 30 30" enable-background="new 0 0 30 30" xml:space="preserve">
<path fill="#00BDF2" d="M11.97,28.997c-0.855-0.017-1.712-0.018-2.568-0.056c-0.41-0.018-0.814-0.104-1.203-0.251
	c-0.404-0.155-0.665-0.424-0.805-0.835c-0.42-1.226-0.832-2.448-1.28-3.662c-0.611-1.659-1.221-3.321-1.888-4.958
	c-0.739-1.812-1.591-3.572-2.563-5.276c-0.251-0.44-0.546-0.856-0.814-1.292c-0.078-0.129-0.137-0.276-0.192-0.419
	c-0.066-0.167,0.018-0.333,0.21-0.434c0.331-0.171,0.661-0.346,0.998-0.508c1.081-0.53,2.162-1.06,3.25-1.576
	C5.554,9.523,6.01,9.339,6.467,9.166c0.146-0.052,0.328-0.061,0.481-0.033C7.605,9.255,8.26,9.39,8.911,9.539
	c0.428,0.097,0.848,0.227,1.273,0.333c0.169,0.043,0.265,0.163,0.333,0.302c0.31,0.61,0.618,1.222,0.912,1.842
	c0.278,0.587,0.527,1.188,0.812,1.769c0.087,0.179,0.247,0.326,0.393,0.467c0.109,0.104,0.165,0.083,0.237-0.048
	c0.9-1.663,1.819-3.321,2.696-4.997c1.021-1.953,1.995-3.93,3.003-5.89c0.251-0.485,0.542-0.947,0.827-1.412
	c0.086-0.14,0.22-0.248,0.396-0.262c0.085-0.009,0.168,0.016,0.251,0.012c0.618-0.027,1.236-0.039,1.853-0.092
	c0.596-0.05,1.19-0.136,1.783-0.215c0.435-0.062,0.867-0.141,1.305-0.199c0.501-0.059,1.004-0.123,1.506-0.146
	c0.226-0.008,0.463,0.059,0.684,0.13c0.355,0.114,0.561,0.404,0.709,0.721c0.319,0.69,0.621,1.388,0.919,2.086
	c0.149,0.347,0.268,0.708,0.418,1.054c0.235,0.543,0.177,1.06-0.088,1.576c-0.812,1.597-1.617,3.2-2.434,4.795
	c-1.319,2.586-2.642,5.164-3.967,7.743c-1.216,2.363-2.431,4.729-3.663,7.085c-0.283,0.545-0.62,1.064-0.962,1.577
	c-0.25,0.377-0.6,0.659-1.058,0.757c-0.301,0.066-0.609,0.112-0.916,0.14c-0.97,0.084-1.941,0.159-2.911,0.229
	c-0.418,0.031-0.834,0.039-1.25,0.058C11.971,28.969,11.971,28.981,11.97,28.997z M11,27.648v0.013
	c0.514-0.029,1.03-0.056,1.544-0.095c0.246-0.018,0.491-0.061,0.734-0.11c0.362-0.076,0.563-0.346,0.735-0.643
	c1.314-2.279,2.507-4.623,3.663-6.985c0.823-1.688,1.636-3.377,2.455-5.067c0.956-1.969,1.922-3.933,2.867-5.908
	c0.762-1.589,1.532-3.169,2.435-4.687c0.31-0.52,0.58-1.066,0.857-1.605c0.118-0.23,0.045-0.352-0.211-0.394
	c-0.391-0.065-0.772,0.021-1.15,0.104c-0.539,0.114-1.072,0.269-1.614,0.363C22.44,2.79,21.56,2.929,20.678,3.046
	c-0.301,0.041-0.488,0.156-0.648,0.417c-1.527,2.492-2.971,5.029-4.326,7.618c-1.017,1.942-1.995,3.909-3,5.859
	c-0.267,0.52-0.559,1.028-0.875,1.517c-0.225,0.343-0.584,0.408-0.863,0.03c-0.142-0.196-0.273-0.404-0.386-0.617
	c-0.917-1.749-1.82-3.504-2.742-5.252c-0.342-0.654-0.715-1.293-1.08-1.934c-0.128-0.229-0.194-0.25-0.449-0.18
	c-0.243,0.067-0.49,0.128-0.725,0.216c-1.104,0.41-2.174,0.897-3.229,1.417c-0.211,0.102-0.26,0.211-0.161,0.429
	c0.116,0.253,0.245,0.504,0.391,0.74c0.171,0.28,0.386,0.53,0.545,0.815c0.288,0.514,0.551,1.042,0.816,1.562
	c1.155,2.271,2.188,4.593,3.078,6.979c0.532,1.438,1.069,2.878,1.6,4.318c0.098,0.263,0.216,0.502,0.507,0.595
	c0.117,0.038,0.243,0.075,0.367,0.076C9.999,27.658,10.5,27.65,11,27.648z M23.52,10.684c-0.172,0.331-0.346,0.646-0.495,0.97
	c-0.101,0.214-0.081,0.234,0.141,0.337c0.315,0.147,0.639,0.282,0.951,0.442c0.121,0.061,0.224,0.163,0.315,0.263
	c0.032,0.033,0.032,0.137,0.003,0.172c-0.039,0.05-0.117,0.094-0.183,0.095c-0.083,0.001-0.172-0.031-0.255-0.061
	c-0.397-0.145-0.788-0.295-1.185-0.435c-0.042-0.016-0.132,0-0.151,0.03c-0.17,0.262-0.33,0.532-0.488,0.801
	c-0.05,0.081-0.029,0.139,0.072,0.166c0.186,0.045,0.37,0.094,0.554,0.152c0.222,0.068,0.448,0.136,0.662,0.222
	c0.136,0.053,0.259,0.28,0.225,0.359c-0.034,0.09-0.175,0.113-0.371,0.06c0,0-0.007-0.002-0.015-0.002
	c-0.419-0.109-0.838-0.221-1.262-0.321c-0.061-0.016-0.169,0.001-0.195,0.042c-0.171,0.255-0.342,0.511-0.479,0.791
	c-0.097,0.197-0.021,0.303,0.194,0.37c0.244,0.084,0.483,0.171,0.73,0.25c0.261,0.085,0.524,0.164,0.789,0.237
	c0.099,0.028,0.186,0.028,0.243-0.095c0.896-1.883,1.799-3.765,2.691-5.651c0.146-0.312,0.25-0.642,0.365-0.968
	c0.037-0.109-0.006-0.2-0.12-0.251c-0.424-0.191-0.852-0.38-1.271-0.578c-0.121-0.055-0.199-0.019-0.264,0.076
	c-0.123,0.184-0.247,0.375-0.369,0.561c-0.125,0.191-0.102,0.263,0.114,0.343c0.408,0.155,0.792,0.355,1.13,0.634
	c0.125,0.104,0.143,0.293,0.037,0.427c-0.096,0.124-0.19,0.017-0.287-0.018c-0.018-0.005-0.033-0.018-0.049-0.026
	c-0.373-0.184-0.744-0.368-1.12-0.544c-0.034-0.018-0.115-0.007-0.132,0.017c-0.097,0.172-0.193,0.348-0.271,0.531
	c-0.043,0.095,0.008,0.179,0.108,0.227c0.162,0.083,0.323,0.167,0.481,0.259c0.228,0.127,0.455,0.257,0.675,0.397
	c0.116,0.073,0.123,0.166,0.039,0.317c-0.058,0.103-0.137,0.153-0.256,0.083c-0.069-0.041-0.145-0.062-0.214-0.101
	C24.257,11.078,23.901,10.888,23.52,10.684z M26.596,4.841c-0.069,0.048-0.158,0.078-0.2,0.139
	c-0.102,0.158-0.202,0.327-0.271,0.503c-0.075,0.199-0.009,0.299,0.167,0.42c0.305,0.213,0.604,0.439,0.898,0.668
	c0.096,0.076,0.085,0.219-0.001,0.326c-0.079,0.101-0.171,0.077-0.264,0.022c-0.062-0.038-0.124-0.082-0.188-0.122
	c-0.251-0.163-0.499-0.326-0.754-0.482c-0.068-0.045-0.153-0.081-0.211,0.008c-0.229,0.352-0.454,0.706-0.678,1.062
	c-0.055,0.086-0.025,0.146,0.059,0.193c0.441,0.254,0.881,0.511,1.322,0.763c0.108,0.065,0.188,0.044,0.252-0.069
	c0.446-0.755,0.901-1.504,1.341-2.264c0.146-0.247,0.098-0.387-0.16-0.531c-0.285-0.162-0.578-0.301-0.871-0.445
	C26.899,4.965,26.756,4.91,26.596,4.841z M22.027,17.806c0.056-0.04,0.139-0.066,0.164-0.119c0.254-0.483,0.497-0.973,0.741-1.46
	c0.054-0.105,0.027-0.179-0.099-0.199c-0.572-0.102-1.141-0.206-1.712-0.311c-0.103-0.019-0.159,0.043-0.2,0.115
	c-0.099,0.181-0.196,0.362-0.281,0.551c-0.082,0.182-0.147,0.373-0.211,0.562c-0.063,0.176-0.036,0.247,0.133,0.322
	c0.252,0.111,0.504,0.223,0.761,0.319C21.547,17.666,21.775,17.729,22.027,17.806z M19.446,22.865
	c0.129,0.02,0.223-0.028,0.285-0.137c0.206-0.377,0.414-0.751,0.609-1.132c0.077-0.151,0.054-0.177-0.117-0.205
	c-0.496-0.084-0.994-0.164-1.492-0.249c-0.431-0.072-0.577,0.004-0.75,0.405c-0.021,0.048-0.039,0.094-0.054,0.144
	c-0.101,0.302-0.052,0.454,0.215,0.634c0.13,0.089,0.268,0.171,0.409,0.242C18.836,22.705,19.127,22.835,19.446,22.865z
	 M20.499,21.071c0.054-0.033,0.13-0.058,0.169-0.109c0.226-0.295,0.396-0.62,0.507-0.976c0.04-0.129,0.007-0.203-0.122-0.249
	c-0.566-0.212-1.152-0.35-1.748-0.438c-0.056-0.005-0.145,0.035-0.177,0.081c-0.205,0.305-0.34,0.64-0.392,1.008
	c-0.013,0.089,0.009,0.151,0.106,0.184c0.31,0.103,0.614,0.222,0.924,0.318C19.999,20.959,20.239,21.007,20.499,21.071z
	 M17.71,25.781c0.003-0.016,0.004-0.029,0.005-0.045c0.165,0.054,0.257-0.025,0.33-0.16c0.119-0.227,0.25-0.448,0.368-0.675
	c0.082-0.164,0.067-0.223-0.104-0.274c-0.469-0.155-0.942-0.297-1.417-0.431c-0.054-0.016-0.155,0.021-0.19,0.068
	c-0.213,0.294-0.374,0.612-0.46,0.965c-0.035,0.13,0.008,0.212,0.137,0.244C16.819,25.579,17.267,25.68,17.71,25.781z
	 M20.118,17.781c-0.046,0.03-0.12,0.053-0.152,0.103c-0.108,0.178-0.204,0.362-0.3,0.549c-0.059,0.115-0.011,0.201,0.089,0.259
	c0.124,0.068,0.242,0.146,0.371,0.197c0.38,0.151,0.764,0.293,1.148,0.429c0.05,0.018,0.159-0.015,0.18-0.053
	c0.155-0.291,0.301-0.589,0.439-0.887c0.05-0.105,0.003-0.176-0.114-0.206c-0.249-0.063-0.493-0.142-0.743-0.199
	C20.741,17.9,20.443,17.849,20.118,17.781z M17.574,22.77c-0.039,0.017-0.097,0.027-0.119,0.058
	c-0.108,0.156-0.219,0.312-0.306,0.478c-0.049,0.096,0.002,0.192,0.093,0.257c0.407,0.291,0.847,0.528,1.318,0.7
	c0.087,0.031,0.202,0.064,0.267-0.046c0.161-0.273,0.314-0.548,0.466-0.826c0.056-0.104,0.005-0.169-0.1-0.199
	c-0.284-0.089-0.568-0.185-0.856-0.258C18.089,22.865,17.836,22.823,17.574,22.77z M16.691,27.128
	c0.147-0.041,0.318-0.045,0.421-0.13c0.147-0.124,0.253-0.299,0.358-0.465c0.088-0.143,0.042-0.235-0.117-0.285
	c-0.505-0.155-1.025-0.215-1.547-0.256c-0.068-0.004-0.181,0.051-0.202,0.107c-0.079,0.188-0.137,0.393-0.185,0.594
	c-0.032,0.137,0.048,0.217,0.176,0.24C15.957,27.001,16.321,27.06,16.691,27.128z M8.731,11.389
	c-0.186-0.007-0.235,0.062-0.183,0.171c0.193,0.403,0.26,0.443,0.712,0.466c0.229,0.011,0.458,0.02,0.661,0.151
	c0.042,0.028,0.11,0.027,0.164,0.02c0.105-0.015,0.152-0.104,0.102-0.196c-0.072-0.131-0.145-0.263-0.233-0.383
	c-0.039-0.053-0.115-0.102-0.18-0.11C9.409,11.46,9.041,11.422,8.731,11.389z M11.202,15.373c0.132-0.014,0.279-0.024,0.421-0.042
	c0.241-0.028,0.262-0.064,0.137-0.271c-0.054-0.089-0.128-0.218-0.207-0.225c-0.343-0.044-0.689-0.054-1.037-0.063
	c-0.106-0.001-0.141,0.078-0.112,0.177c0.021,0.069,0.048,0.143,0.062,0.216c0.02,0.106,0.081,0.16,0.191,0.168
	C10.834,15.345,11.011,15.358,11.202,15.373z M9.331,11.178c0.006,0.011,0.01,0.018,0.015,0.024
	c0.074-0.032,0.194-0.048,0.212-0.099c0.037-0.114-0.048-0.209-0.155-0.25c-0.341-0.133-0.688-0.26-1.034-0.383
	c-0.104-0.038-0.199-0.004-0.247,0.102c-0.075,0.163,0.111,0.493,0.29,0.515C8.72,11.122,9.025,11.148,9.331,11.178z M10.998,14.291
	c0.269-0.009,0.282-0.03,0.175-0.267c-0.012-0.027-0.019-0.057-0.036-0.076c-0.061-0.067-0.117-0.174-0.188-0.186
	c-0.319-0.05-0.641-0.076-0.96-0.102c-0.093-0.009-0.132,0.05-0.13,0.141c0.007,0.154,0.082,0.266,0.227,0.299
	C10.388,14.173,10.693,14.229,10.998,14.291z M11.439,16.474c0.132-0.045,0.268-0.085,0.394-0.139
	c0.174-0.075,0.207-0.234,0.185-0.43c-0.016-0.15-0.167-0.158-0.283-0.186c-0.239-0.057-0.445,0.071-0.663,0.131
	c-0.018,0.005-0.038,0.065-0.028,0.091c0.044,0.127,0.089,0.255,0.151,0.374C11.242,16.403,11.316,16.474,11.439,16.474z
	 M9.164,12.65c0.007,0.163,0.082,0.25,0.23,0.277c0.148,0.031,0.298,0.051,0.44,0.089c0.225,0.06,0.445,0.135,0.668,0.201
	c0.071,0.022,0.134,0.013,0.11-0.081c-0.044-0.169-0.111-0.323-0.305-0.365c-0.332-0.076-0.663-0.148-0.998-0.218
	C9.217,12.534,9.167,12.576,9.164,12.65z M26.73,4.206c0.04,0.069,0.052,0.121,0.086,0.144c0.231,0.164,0.469,0.323,0.705,0.478
	c0.031,0.019,0.076,0.014,0.114,0.02c0.002-0.035,0.015-0.073,0.005-0.103c-0.104-0.334-0.271-0.633-0.489-0.905
	c-0.026-0.03-0.145-0.041-0.163-0.017C26.891,3.943,26.813,4.077,26.73,4.206z"/>
<path fill="#00BDF2" d="M17.469,10.389c-0.106,0.007-0.212,0.021-0.318,0.021c-0.055,0.002-0.146-0.003-0.163-0.036
	c-0.022-0.046-0.008-0.127,0.018-0.181c0.095-0.189,0.378-0.27,0.574-0.17c0.147,0.075,0.185,0.058,0.257-0.088
	c0.811-1.631,1.624-3.257,2.425-4.896c0.19-0.391,0.481-0.347,0.771-0.239c0.15,0.06,0.18,0.146,0.102,0.29
	c-0.42,0.758-0.845,1.51-1.267,2.263c-0.649,1.152-1.301,2.304-1.947,3.456c-0.202,0.364-0.378,0.741-0.586,1.099
	c-0.08,0.139-0.2,0.259-0.324,0.365c-0.219,0.188-0.44,0.132-0.579-0.12c-0.16-0.289-0.14-0.562,0.095-0.799
	c0.257-0.256,0.537-0.495,0.805-0.74c0.06-0.055,0.109-0.118,0.164-0.179C17.485,10.419,17.477,10.404,17.469,10.389z"/>
<path fill="#00BDF2" d="M6.168,11.925c0.101-0.01,0.165,0.031,0.213,0.124c0.536,0.979,1.028,1.977,1.456,3.007
	c0.02,0.043,0.028,0.089,0.043,0.134c0.062,0.176-0.034,0.297-0.213,0.237c-0.118-0.035-0.242-0.114-0.312-0.214
	c-0.234-0.315-0.46-0.64-0.653-0.979c-0.333-0.581-0.655-1.172-0.957-1.772c-0.165-0.325-0.057-0.479,0.311-0.525
	C6.094,11.933,6.13,11.93,6.168,11.925z"/>
</svg>
