<?xml version="1.0" encoding="utf-8"?>
<!-- Generator: Adobe Illustrator 16.0.0, SVG Export Plug-In . SVG Version: 6.00 Build 0)  -->
<!DOCTYPE svg PUBLIC "-//W3C//DTD SVG 1.1//EN" "http://www.w3.org/Graphics/SVG/1.1/DTD/svg11.dtd">
<svg version="1.1" id="Layer_1" xmlns="http://www.w3.org/2000/svg" xmlns:xlink="http://www.w3.org/1999/xlink" x="0px" y="0px"
	 width="30px" height="30px" viewBox="0 0 30 30" enable-background="new 0 0 30 30" xml:space="preserve">
<g>
	<g>
		<path fill="#FFFFFF" d="M4.08,24.292c0-4.672,0-9.345,0-14.017c0-1.039,0-2.079,0-3.118c0-3.037,3.469-2.353,5.077-2.353
			c2.487,0,4.973,0,7.46,0c0.638,0,2.085-0.969,0.785-0.969c-3.978,0-7.957,0-11.935,0c-0.703,0-2.296,0.25-2.74,0.959
			C1.422,6.883,2.148,9.982,2.148,12.35c0,4.153,0,8.307,0,12.46C2.148,25.299,4.08,24.967,4.08,24.292L4.08,24.292z"/>
	</g>
</g>
<g>
	<path fill="#2E466A" d="M14.199,15.178c0,0,5.7-8.251,11.228-11.37c0.143-0.113,1.9-0.34,3.29,0.453
		c0.255,0.142,0.396,0.539,0,0.737c-0.397,0.199-7.917,4.83-12.866,13.449c-0.565,0.832-0.924,1.324-1.652,1.324
		c-0.727,0-2.58-0.227-2.919-1.362c-0.341-1.135-1.437-4.157-2.118-4.99c-0.68-0.832,0.189-1.673,0.558-1.899
		c0.369-0.228,1.899-1.134,3.119,0.736C14.057,14.128,14.171,14.894,14.199,15.178z"/>
	<g>
		<g>
			<path fill="#FFFFFF" d="M4.136,24.162c0-4.662,0-9.325,0-13.987c0-1.037,0-2.074,0-3.111c0-3.029,3.46-2.346,5.063-2.346
				c2.481,0,4.962,0,7.443,0c0.638,0,2.085-0.969,0.785-0.969c-3.969,0-7.938,0-11.908,0c-0.702,0-2.294,0.249-2.737,0.958
				c-1.302,2.084-0.578,5.177-0.578,7.54c0,4.145,0,8.289,0,12.434C2.204,25.169,4.136,24.837,4.136,24.162L4.136,24.162z"/>
		</g>
	</g>
	<g>
		<g>
			<path fill="#FFFFFF" d="M23.567,13.601c0,2.567,0,5.134,0,7.701c0,3.802,0.472,3.752-3.435,3.752
				c-2.271,0-15.37,1.212-15.997-0.835c-0.281-0.917-2.21-0.391-1.932,0.518c0.4,1.304,1.095,1.763,2.474,1.776
				c5.097,0.05,10.198,0,15.295,0c1.191,0,4.637,0.589,5.403-1.091c0.537-1.176,0.152-3.035,0.152-4.255c0-2.567,0-5.134,0-7.701
				C25.528,12.426,23.567,12.7,23.567,13.601L23.567,13.601z"/>
		</g>
	</g>
</g>
</svg>
