<?xml version="1.0" encoding="utf-8"?>
<!-- Generator: Adobe Illustrator 16.0.0, SVG Export Plug-In . SVG Version: 6.00 Build 0)  -->
<!DOCTYPE svg PUBLIC "-//W3C//DTD SVG 1.1//EN" "http://www.w3.org/Graphics/SVG/1.1/DTD/svg11.dtd">
<svg version="1.1" id="Layer_1" xmlns="http://www.w3.org/2000/svg" xmlns:xlink="http://www.w3.org/1999/xlink" x="0px" y="0px"
	 width="30px" height="30px" viewBox="0 0 30 30" enable-background="new 0 0 30 30" xml:space="preserve">
<ellipse fill="#3D9ED8" stroke="#00A5E5" stroke-miterlimit="10" cx="14.932" cy="15.044" rx="13.443" ry="13.668"/>
<path fill="#FFFFFF" d="M15.07,22.167c0,0-4.708-4.434-4.708-8.42c0-3.836,2.378-5.206,4.828-5.231
	c1.733-0.017,4.493,1.146,4.493,4.882C19.684,17.335,16.354,20.82,15.07,22.167z M15.023,11.108c-1.286,0-2.33,1.093-2.33,2.441
	c0,1.348,1.044,2.44,2.33,2.44c1.287,0,2.331-1.093,2.331-2.44C17.354,12.201,16.311,11.108,15.023,11.108z"/>
</svg>
