<?xml version="1.0" encoding="utf-8"?>
<!-- Generator: Adobe Illustrator 16.0.0, SVG Export Plug-In . SVG Version: 6.00 Build 0)  -->
<!DOCTYPE svg PUBLIC "-//W3C//DTD SVG 1.1//EN" "http://www.w3.org/Graphics/SVG/1.1/DTD/svg11.dtd">
<svg version="1.1" id="Layer_1" xmlns="http://www.w3.org/2000/svg" xmlns:xlink="http://www.w3.org/1999/xlink" x="0px" y="0px"
	 width="30px" height="29.312px" viewBox="0 0 30 29.312" enable-background="new 0 0 30 29.312" xml:space="preserve">
<g>
	<path fill="#151E2B" d="M19.307,1.09c0,0-1.896-0.778-4.395-0.793c-2.496-0.013-4.435,0.776-4.435,0.776s1.297,2.735,4.397,2.741
		C17.871,3.819,19.114,1.523,19.307,1.09z"/>
	<ellipse fill="#00A4E0" cx="14.831" cy="19.667" rx="2.144" ry="2.129"/>
	<ellipse fill="#151E2B" cx="14.816" cy="6.321" rx="2.143" ry="2.131"/>
	<g>
		<defs>
			<ellipse id="SVGID_1_" cx="14.788" cy="13.025" rx="12.938" ry="12.761"/>
		</defs>
		<clipPath id="SVGID_2_">
			<use xlink:href="#SVGID_1_"  overflow="visible"/>
		</clipPath>
		<g clip-path="url(#SVGID_2_)">
			<defs>
				<ellipse id="SVGID_3_" cx="14.75" cy="13.009" rx="12.823" ry="12.777"/>
			</defs>
			<clipPath id="SVGID_4_">
				<use xlink:href="#SVGID_3_"  overflow="visible"/>
			</clipPath>
			<path clip-path="url(#SVGID_4_)" fill="#00A4E0" d="M19.852,27.282c0,2.823-2.239,5.113-5,5.113c-2.763,0-5-2.29-5-5.113
				c0-2.819,2.237-5.106,5-5.106C17.612,22.176,19.852,24.463,19.852,27.282z"/>
		</g>
	</g>
	<path fill="#151E2B" d="M21.517,15.082c-1.184,0-2.14-0.958-2.14-2.135c0-1.175,0.956-2.13,2.14-2.13
		c1.187,0,2.144,0.955,2.144,2.13C23.66,14.124,22.703,15.082,21.517,15.082z"/>
	<path fill="#151E2B" d="M26.779,17.416c0,0,0.784-1.888,0.799-4.368c0.012-2.485-0.781-4.412-0.781-4.412s-2.75,1.291-2.755,4.372
		C24.034,15.988,26.345,17.222,26.779,17.416z"/>
	<ellipse fill="#151E2B" cx="8.125" cy="13.104" rx="2.143" ry="2.131"/>
	<path fill="#151E2B" d="M2.863,8.636c0,0-0.785,1.887-0.8,4.368c-0.013,2.486,0.783,4.412,0.783,4.412s2.751-1.293,2.755-4.371
		C5.608,10.067,3.297,8.83,2.863,8.636z"/>
	<path fill="#151E2B" d="M11.574,6.8c0.835,0.838,0.831,2.186-0.007,3.014c-0.844,0.832-2.2,0.826-3.035-0.012
		C7.699,8.968,7.703,7.619,8.543,6.791C9.384,5.961,10.741,5.967,11.574,6.8z"/>
	<path fill="#151E2B" d="M9.539,1.443c0,0-1.902,0.775-3.683,2.516C4.074,5.698,3.256,7.618,3.256,7.618s2.859,1.029,5.063-1.136
		C10.451,4.389,9.704,1.889,9.539,1.443z"/>
	<path fill="#151E2B" d="M21.021,9.755c-0.833,0.837-2.188,0.847-3.03,0.022c-0.846-0.828-0.854-2.176-0.019-3.015
		c0.83-0.836,2.184-0.848,3.028-0.019C21.845,7.57,21.854,8.917,21.021,9.755z"/>
	<path fill="#151E2B" d="M26.389,7.674c0,0-0.8-1.882-2.568-3.634c-1.771-1.754-3.707-2.547-3.707-2.547s-1.006,2.854,1.194,5.021
		C23.437,8.61,25.945,7.842,26.389,7.674z"/>
	<path fill="#151E2B" d="M18.085,19.177c-0.843-0.831-0.852-2.179-0.021-3.014c0.833-0.841,2.189-0.848,3.031-0.021
		c0.845,0.827,0.854,2.175,0.021,3.014C20.283,19.993,18.929,20.001,18.085,19.177z"/>
	<path fill="#151E2B" d="M20.178,24.515c0,0,1.894-0.797,3.655-2.557c1.767-1.757,2.562-3.681,2.562-3.681s-2.87-1.003-5.051,1.184
		C19.235,21.579,20.007,24.068,20.178,24.515z"/>
	<path fill="#151E2B" d="M8.61,16.241c0.833-0.839,2.189-0.843,3.033-0.013c0.839,0.829,0.846,2.175,0.01,3.014
		c-0.831,0.835-2.188,0.843-3.03,0.011C7.781,18.424,7.775,17.078,8.61,16.241z"/>
	<path fill="#151E2B" d="M3.238,18.308c0,0,0.793,1.884,2.557,3.644c1.764,1.755,3.702,2.552,3.702,2.552s1.01-2.848-1.182-5.022
		C6.19,17.378,3.682,18.14,3.238,18.308z"/>
</g>
</svg>
