<?xml version="1.0" encoding="utf-8"?>
<!-- Generator: Adobe Illustrator 16.0.0, SVG Export Plug-In . SVG Version: 6.00 Build 0)  -->
<!DOCTYPE svg PUBLIC "-//W3C//DTD SVG 1.1//EN" "http://www.w3.org/Graphics/SVG/1.1/DTD/svg11.dtd">
<svg version="1.1" id="Layer_1" xmlns="http://www.w3.org/2000/svg" xmlns:xlink="http://www.w3.org/1999/xlink" x="0px" y="0px"
	 width="30px" height="30px" viewBox="0 0 30 30" enable-background="new 0 0 30 30" xml:space="preserve">
<ellipse fill="#3D9ED8" stroke="#00A5E5" stroke-miterlimit="10" cx="15" cy="15" rx="13.562" ry="13.75"/>
<path fill="#FFFFFF" d="M15.82,18.922L17.7,19.5c0,0,0.846,0.37,0.846-0.454v-2.24v-0.127c0,0,0-5.058,0-5.879
	c0-0.82-0.827-0.467-0.827-0.467l-1.879,0.579"/>
<path fill="#FFFFFF" d="M14.929,10.911l-7.166,1.96H6.071c0,0-0.479-0.056-0.479,0.355c0,0.589,0,3.371,0,3.371
	s-0.015,0.259,0.281,0.259c0.264,0,1.619,0,1.923,0l0.051,0.017l-0.143,0.123c-0.425,1.338,0.394,2.673,1.944,3.156
	c1.551,0.484,3.355-0.185,3.78-1.526l-0.021-0.143l1.521,0.438V10.911z M12.225,18.144c-0.247,0.785-1.188,1.191-2.096,0.909
	c-0.907-0.284-1.431-1.049-1.18-1.834l-0.01-0.03l3.294,0.95L12.225,18.144z"/>
<line fill="#FFFFFF" stroke="#FFFFFF" stroke-linecap="round" stroke-linejoin="round" stroke-miterlimit="10" x1="20.86" y1="14.719" x2="23.568" y2="14.719"/>
<line fill="#FFFFFF" stroke="#FFFFFF" stroke-linecap="round" stroke-linejoin="round" stroke-miterlimit="10" x1="20.898" y1="11.461" x2="23.416" y2="10.474"/>
<line fill="#FFFFFF" stroke="#FFFFFF" stroke-linecap="round" stroke-linejoin="round" stroke-miterlimit="10" x1="20.898" y1="18.203" x2="23.416" y2="19.188"/>
</svg>
