<?xml version="1.0" encoding="utf-8"?>
<!-- Generator: Adobe Illustrator 16.0.0, SVG Export Plug-In . SVG Version: 6.00 Build 0)  -->
<!DOCTYPE svg PUBLIC "-//W3C//DTD SVG 1.1//EN" "http://www.w3.org/Graphics/SVG/1.1/DTD/svg11.dtd">
<svg version="1.1" id="Layer_1" xmlns="http://www.w3.org/2000/svg" xmlns:xlink="http://www.w3.org/1999/xlink" x="0px" y="0px"
	 width="30px" height="30px" viewBox="-5 -5 30 30" enable-background="new -5 -5 30 30" xml:space="preserve">
<g>
	<path fill="#122028" d="M10.017-3.723c7.533,0,13.657,6.123,13.657,13.648S17.55,23.574,10.017,23.574
		c-7.533,0-13.658-6.122-13.658-13.649C-3.642,2.399,2.485-3.723,10.017-3.723 M10.017-4.829C1.861-4.829-4.75,1.777-4.75,9.925
		c0,8.148,6.611,14.755,14.766,14.755c8.151,0,14.765-6.607,14.765-14.755C24.782,1.777,18.168-4.829,10.017-4.829L10.017-4.829z"/>
</g>
<rect x="8.288" y="1.716" fill="#122028" width="3.347" height="17.024"/>
<rect x="1.589" y="8.527" fill="#122028" width="16.741" height="3.402"/>
</svg>
