<?xml version="1.0" encoding="utf-8"?>
<!-- Generator: Adobe Illustrator 16.0.0, SVG Export Plug-In . SVG Version: 6.00 Build 0)  -->
<!DOCTYPE svg PUBLIC "-//W3C//DTD SVG 1.1//EN" "http://www.w3.org/Graphics/SVG/1.1/DTD/svg11.dtd">
<svg version="1.1" id="Layer_1" xmlns="http://www.w3.org/2000/svg" xmlns:xlink="http://www.w3.org/1999/xlink" x="0px" y="0px"
	 width="30px" height="30px" viewBox="0 0 30 30" enable-background="new 0 0 30 30" xml:space="preserve">
<path fill-rule="evenodd" clip-rule="evenodd" fill="#808285" d="M15.528,6.885c0.577-0.009,1.155-0.021,1.733-0.024
	c0.131-0.001,0.266,0.013,0.391,0.045c0.304,0.078,0.419,0.296,0.435,0.583c0.012,0.221-0.015,0.444-0.035,0.666
	c-0.034,0.354-0.09,0.705-0.115,1.059c-0.04,0.559-0.051,1.12,0,1.678c0.025,0.281,0.073,0.561,0.127,0.839
	c0.037,0.191,0.102,0.223,0.288,0.216c0.707-0.025,1.413-0.053,2.119-0.066c0.461-0.01,0.921,0.008,1.376,0.079
	c0.192,0.029,0.385,0.077,0.571,0.135c0.246,0.076,0.378,0.278,0.48,0.504c0.137,0.301,0.208,0.622,0.264,0.948
	c0.107,0.638,0.126,1.282,0.16,1.926c0.021,0.399,0.058,0.797,0.055,1.196c-0.003,0.312-0.052,0.627-0.221,0.902
	c-0.154,0.256-0.383,0.396-0.673,0.404c-0.825,0.018-1.651,0.016-2.476,0.039c-0.432,0.014-0.863,0.055-1.294,0.102
	c-0.151,0.016-0.302,0.072-0.446,0.127c-0.117,0.045-0.146,0.113-0.136,0.242c0.036,0.422,0.078,0.846,0.109,1.268
	c0.047,0.639,0.083,1.277,0.01,1.916c-0.022,0.193-0.061,0.387-0.159,0.559c-0.062,0.109-0.153,0.168-0.277,0.186
	c-0.459,0.061-0.915,0.135-1.374,0.184c-0.471,0.051-0.942,0.088-1.415,0.109c-0.485,0.02-0.973,0.025-1.459,0.012
	c-0.232-0.006-0.466-0.062-0.697-0.107c-0.165-0.033-0.252-0.154-0.26-0.324c-0.021-0.438-0.04-0.875-0.053-1.312
	c-0.02-0.611-0.021-1.225-0.051-1.834c-0.016-0.35-0.07-0.697-0.221-1.018c-0.068-0.146-0.158-0.277-0.321-0.326
	c-0.053-0.016-0.11-0.018-0.167-0.018c-0.828-0.002-1.656,0.01-2.484-0.006c-0.436-0.008-0.873-0.059-1.309-0.102
	c-0.146-0.014-0.289-0.061-0.432-0.098c-0.237-0.061-0.357-0.229-0.416-0.465c-0.119-0.484-0.164-0.983-0.191-1.479
	c-0.025-0.487-0.032-0.976-0.051-1.463c-0.012-0.294-0.051-0.589-0.039-0.882c0.012-0.332,0.066-0.661,0.217-0.966
	c0.086-0.175,0.211-0.269,0.412-0.271c0.766-0.004,1.531-0.017,2.299-0.03c0.387-0.006,0.773-0.032,1.16-0.027
	c0.242,0.003,0.485,0.045,0.729,0.072c0.242,0.027,0.293-0.02,0.285-0.271c-0.027-0.862-0.064-1.725-0.08-2.587
	c-0.008-0.44,0.014-0.882,0.043-1.321c0.012-0.192,0.072-0.382,0.119-0.57c0.027-0.114,0.115-0.17,0.223-0.188
	c0.224-0.034,0.446-0.08,0.67-0.095c0.791-0.052,1.584-0.093,2.375-0.137c0.067-0.004,0.135,0,0.202,0
	C15.528,6.89,15.528,6.887,15.528,6.885z M13.189,10.633c0.006,0,0.011,0,0.017,0c0,0.249,0,0.498,0,0.748
	c0.001,0.249,0.003,0.499,0,0.748c-0.001,0.085,0.001,0.172-0.019,0.253c-0.123,0.494-0.68,0.99-1.276,0.983
	c-0.572-0.006-1.144-0.017-1.716-0.045c-0.635-0.03-1.27-0.083-1.906-0.121c-0.169-0.011-0.34-0.009-0.51-0.006
	c-0.127,0.003-0.228,0.083-0.248,0.209c-0.018,0.12-0.033,0.245-0.021,0.365c0.049,0.553,0.104,1.104,0.166,1.654
	c0.035,0.309,0.096,0.613,0.205,0.907c0.066,0.174,0.167,0.303,0.363,0.326c0.18,0.021,0.362,0.061,0.541,0.053
	c0.701-0.029,1.4-0.072,2.1-0.111c0.311-0.018,0.621-0.049,0.932-0.053c0.337-0.004,0.657,0.084,0.907,0.32
	c0.419,0.398,0.717,0.867,0.794,1.459c0.08,0.633,0.115,1.268,0.146,1.902c0.024,0.504,0.063,1.008,0.099,1.51
	c0.016,0.219,0.083,0.266,0.317,0.297c0.517,0.068,1.032,0.006,1.544-0.049c0.449-0.049,0.893-0.131,1.34-0.197
	c0.09-0.012,0.16-0.059,0.184-0.141c0.043-0.143,0.086-0.287,0.104-0.434c0.059-0.475,0.025-0.951-0.006-1.424
	c-0.027-0.441-0.079-0.883-0.125-1.322c-0.031-0.295-0.078-0.588-0.104-0.883c-0.01-0.111,0.005-0.229,0.03-0.338
	c0.01-0.043,0.073-0.096,0.12-0.105c0.151-0.035,0.306-0.061,0.46-0.068c0.768-0.041,1.536-0.076,2.304-0.107
	c0.113-0.006,0.208-0.039,0.28-0.123c0.142-0.168,0.287-0.334,0.417-0.51c0.167-0.229,0.309-0.477,0.48-0.703
	c0.384-0.5,0.779-0.99,1.172-1.483c0.064-0.081,0.101-0.173,0.073-0.271c-0.037-0.131-0.084-0.261-0.145-0.383
	c-0.051-0.102-0.125-0.123-0.231-0.082c-0.238,0.091-0.449,0.226-0.616,0.422c-0.109,0.127-0.214,0.257-0.326,0.381
	c-0.678,0.751-1.356,1.501-2.036,2.252c-0.053,0.059-0.101,0.123-0.161,0.174c-0.12,0.104-0.236,0.098-0.345-0.006
	c-0.133-0.129-0.157-0.256-0.058-0.382c0.06-0.074,0.134-0.139,0.206-0.205c0.129-0.117,0.274-0.22,0.391-0.352
	c0.536-0.602,1.066-1.209,1.598-1.815c0.148-0.17,0.295-0.342,0.439-0.516c0.084-0.101,0.069-0.143-0.055-0.178
	c-0.053-0.015-0.109-0.028-0.164-0.026c-0.289,0.011-0.579,0.022-0.869,0.042c-0.071,0.004-0.145,0.025-0.212,0.052
	c-0.21,0.086-0.379,0.232-0.542,0.384c-0.506,0.464-0.927,1.002-1.331,1.554c-0.23,0.313-0.469,0.624-0.781,0.865
	c-0.059,0.047-0.127,0.084-0.195,0.113c-0.084,0.039-0.222,0.006-0.278-0.059c-0.068-0.082-0.044-0.167-0.003-0.248
	c0.037-0.072,0.084-0.142,0.138-0.203c0.447-0.509,0.898-1.014,1.346-1.522c0.194-0.223,0.386-0.45,0.575-0.677
	c0.065-0.078,0.048-0.135-0.049-0.162c-0.064-0.018-0.132-0.033-0.198-0.034c-0.19-0.004-0.381,0.001-0.571,0.001
	c-0.132,0-0.247,0.041-0.352,0.12c-0.415,0.315-0.783,0.681-1.117,1.08c-0.188,0.224-0.346,0.473-0.531,0.698
	c-0.084,0.103-0.195,0.185-0.303,0.264c-0.06,0.044-0.137,0.033-0.197-0.016c-0.056-0.046-0.07-0.11-0.046-0.176
	c0.031-0.084,0.06-0.174,0.11-0.246c0.147-0.204,0.303-0.403,0.461-0.6c0.348-0.428,0.7-0.852,1.047-1.28
	c0.045-0.057,0.088-0.131,0.094-0.2c0.018-0.245,0.022-0.491,0.025-0.737c0.001-0.069-0.017-0.14-0.031-0.208
	c-0.019-0.082-0.057-0.098-0.125-0.049c-0.065,0.048-0.129,0.102-0.188,0.158c-0.652,0.639-1.244,1.334-1.832,2.031
	c-0.06,0.07-0.13,0.134-0.201,0.192c-0.056,0.044-0.109,0.026-0.152-0.03c-0.088-0.123-0.09-0.247-0.001-0.371
	c0.02-0.026,0.039-0.052,0.06-0.076c0.352-0.42,0.716-0.831,1.053-1.263c0.422-0.541,0.822-1.099,1.23-1.649
	c0.021-0.03,0.051-0.065,0.051-0.099c0.008-0.17,0.012-0.34,0.006-0.509c-0.002-0.079-0.03-0.089-0.091-0.039
	c-0.098,0.079-0.194,0.161-0.285,0.248c-0.653,0.614-1.31,1.227-1.893,1.912c-0.073,0.086-0.165,0.159-0.259,0.222
	c-0.051,0.034-0.131,0.052-0.189,0.041c-0.133-0.025-0.196-0.172-0.116-0.281c0.097-0.131,0.212-0.25,0.327-0.365
	c0.217-0.214,0.458-0.405,0.658-0.633c0.467-0.534,0.916-1.084,1.37-1.629c0.176-0.212,0.344-0.431,0.514-0.647
	C16.99,9.107,17.002,9.075,17,9.05c-0.01-0.103-0.031-0.204-0.039-0.308c-0.012-0.14-0.008-0.281-0.025-0.42
	c-0.021-0.171-0.13-0.211-0.263-0.101c-0.081,0.067-0.159,0.141-0.227,0.22c-0.407,0.474-0.81,0.951-1.218,1.424
	c-0.107,0.123-0.225,0.24-0.348,0.347c-0.09,0.077-0.172,0.076-0.231,0.02c-0.069-0.066-0.044-0.145-0.015-0.22
	c0.07-0.18,0.214-0.306,0.328-0.453c0.426-0.552,0.847-1.108,1.268-1.664c0.031-0.042,0.047-0.095,0.07-0.143
	c-0.053-0.016-0.105-0.045-0.157-0.043c-0.219,0.009-0.438,0.027-0.657,0.042c-0.129,0.008-0.224,0.079-0.309,0.168
	c-0.119,0.125-0.241,0.248-0.354,0.379C14.625,8.529,14.433,8.766,14.238,9c-0.084,0.101-0.149,0.111-0.258,0.038
	c-0.229-0.155-0.244-0.269-0.065-0.477c0.038-0.044,0.081-0.085,0.122-0.127c0.104-0.108,0.211-0.212,0.309-0.325
	c0.065-0.077,0.125-0.163,0.172-0.253c0.05-0.096,0.006-0.187-0.1-0.209c-0.078-0.018-0.164-0.021-0.244-0.009
	c-0.248,0.039-0.497,0.081-0.742,0.137c-0.248,0.056-0.305,0.141-0.306,0.395c0,0.03,0,0.06,0.003,0.088
	c0.02,0.284,0.052,0.567,0.057,0.852C13.195,9.617,13.189,10.125,13.189,10.633z M21.495,16.942
	c0.001,0.004,0.001,0.008,0.002,0.012c0.197-0.021,0.396-0.039,0.593-0.064c0.209-0.029,0.268-0.086,0.294-0.291
	c0.04-0.315,0.079-0.629,0.106-0.943c0.011-0.136-0.003-0.275-0.021-0.41c-0.012-0.085-0.061-0.102-0.133-0.057
	c-0.062,0.038-0.123,0.082-0.174,0.133c-0.383,0.378-0.715,0.798-1.021,1.238c-0.054,0.078-0.092,0.172-0.119,0.262
	c-0.027,0.092,0,0.117,0.095,0.119C21.243,16.944,21.369,16.942,21.495,16.942z"/>
<path fill-rule="evenodd" clip-rule="evenodd" fill="#808285" d="M34.791,31.952c0.811,0,1.621,0.008,2.431-0.003
	c0.632-0.009,1.264-0.046,1.896-0.061c0.62-0.015,1.24-0.021,1.861-0.021c0.228,0,0.456,0.023,0.677,0.086
	c0.145,0.041,0.228,0.124,0.261,0.259c0.102,0.415,0.135,0.837,0.165,1.259c0.031,0.445,0.06,0.892,0.075,1.338
	c0.02,0.568,0.019,1.137,0.04,1.704c0.009,0.222-0.109,0.343-0.315,0.424c-0.213,0.083-0.438,0.134-0.667,0.152
	c-0.681,0.054-1.362,0.107-2.044,0.147c-0.998,0.059-1.998,0.11-2.998,0.157c-1.525,0.074-3.054,0.116-4.583,0.09
	c-0.555-0.01-1.11-0.026-1.665-0.054c-0.297-0.015-0.594-0.053-0.889-0.094c-0.223-0.031-0.439-0.09-0.639-0.191
	c-0.242-0.124-0.381-0.315-0.427-0.555c-0.044-0.229-0.077-0.464-0.089-0.697c-0.02-0.379-0.025-0.759-0.023-1.138
	c0.005-0.486,0.019-0.972,0.039-1.458c0.012-0.289,0.051-0.577,0.154-0.853c0.045-0.116,0.105-0.229,0.176-0.333
	c0.083-0.126,0.218-0.182,0.383-0.182c0.717,0.001,1.434-0.005,2.15-0.001c1.344,0.008,2.688,0.02,4.031,0.03
	C34.791,31.957,34.791,31.954,34.791,31.952z M33.84,32.76c0-0.002,0-0.005,0-0.007c-0.799-0.015-1.598-0.03-2.397-0.044
	c-0.819-0.013-1.64-0.024-2.459-0.034c-0.181-0.003-0.212,0.03-0.257,0.204c-0.082,0.314-0.107,0.638-0.111,0.959
	c-0.013,0.781-0.006,1.562-0.005,2.344c0,0.068,0.009,0.138,0.016,0.207c0.009,0.074,0.051,0.116,0.128,0.114
	c0.102-0.004,0.204-0.009,0.306-0.02c0.025-0.003,0.055-0.027,0.071-0.049c0.236-0.325,0.463-0.657,0.707-0.976
	c0.287-0.373,0.586-0.736,0.885-1.1c0.106-0.13,0.244-0.225,0.394-0.301c0.106-0.054,0.211-0.071,0.323-0.02
	c0.074,0.034,0.15,0.067,0.229,0.09c0.07,0.021,0.096,0.063,0.076,0.125c-0.031,0.091-0.064,0.184-0.113,0.266
	c-0.252,0.416-0.566,0.784-0.889,1.145c-0.254,0.285-0.523,0.555-0.785,0.833c-0.025,0.027-0.037,0.068-0.055,0.104
	c0.037,0.018,0.074,0.045,0.113,0.053c0.049,0.01,0.103,0.011,0.152,0.005c0.297-0.036,0.594-0.077,0.891-0.112
	c0.15-0.019,0.27-0.093,0.372-0.197c0.104-0.107,0.216-0.214,0.302-0.337c0.287-0.407,0.563-0.822,0.844-1.233
	c0.145-0.212,0.288-0.423,0.432-0.635c0.074-0.107,0.18-0.128,0.291-0.088c0.134,0.049,0.266,0.107,0.389,0.176
	c0.139,0.076,0.148,0.096,0.056,0.222c-0.196,0.269-0.394,0.538-0.612,0.786c-0.339,0.385-0.697,0.75-1.045,1.127
	c-0.031,0.032-0.071,0.099-0.059,0.118c0.024,0.038,0.082,0.071,0.129,0.075c0.139,0.012,0.281,0.019,0.42,0.009
	c0.189-0.014,0.377-0.047,0.564-0.064c0.16-0.016,0.286-0.077,0.379-0.213c0.257-0.372,0.522-0.739,0.775-1.114
	c0.24-0.355,0.471-0.72,0.703-1.08c0.051-0.08,0.113-0.146,0.206-0.175c0.228-0.065,0.451-0.044,0.669,0.043
	c0.094,0.037,0.102,0.067,0.057,0.159c-0.018,0.036-0.035,0.074-0.06,0.106c-0.2,0.255-0.394,0.518-0.608,0.76
	c-0.368,0.417-0.751,0.82-1.127,1.229c-0.102,0.109-0.084,0.173,0.06,0.215c0.013,0.003,0.025,0.004,0.038,0.006
	c0.289,0.056,0.576,0.024,0.864-0.006c0.082-0.009,0.153-0.043,0.206-0.106c0.104-0.124,0.213-0.243,0.306-0.375
	c0.403-0.573,0.796-1.153,1.204-1.723c0.224-0.312,0.468-0.608,0.711-0.904c0.056-0.068,0.141-0.121,0.222-0.159
	c0.242-0.111,0.425-0.03,0.501,0.212c0.021,0.065,0.019,0.124-0.027,0.18c-0.105,0.129-0.206,0.261-0.313,0.389
	c-0.541,0.648-1.083,1.296-1.624,1.945c-0.107,0.127-0.212,0.257-0.311,0.391c-0.076,0.104-0.035,0.182,0.094,0.187
	c0.082,0.003,0.166,0.001,0.246-0.009c0.137-0.017,0.272-0.052,0.41-0.059c0.164-0.008,0.281-0.084,0.377-0.205
	c0.298-0.381,0.601-0.757,0.89-1.145c0.553-0.743,1.097-1.492,1.643-2.24c0.03-0.042,0.05-0.091,0.075-0.136
	c-0.053-0.013-0.106-0.039-0.159-0.037c-0.228,0.004-0.455,0.015-0.683,0.026c-0.606,0.031-1.212,0.083-1.819,0.091
	C35.977,32.771,34.908,32.76,33.84,32.76z M38.703,36.278c0.086,0.013,0.164,0.012,0.226-0.07c0.423-0.562,0.846-1.125,1.274-1.682
	c0.288-0.376,0.589-0.742,0.88-1.114c0.034-0.045,0.059-0.105,0.062-0.16c0.019-0.236-0.157-0.417-0.325-0.516
	c-0.041-0.024-0.117-0.022-0.161,0c-0.117,0.06-0.242,0.119-0.335,0.21c-0.252,0.243-0.494,0.497-0.729,0.757
	c-0.623,0.687-1.237,1.38-1.803,2.115c-0.081,0.104-0.153,0.217-0.225,0.329c-0.038,0.061-0.023,0.082,0.047,0.085
	C37.977,36.248,38.34,36.263,38.703,36.278z M40.259,36.191c0,0.009,0,0.018,0,0.026c0.194-0.008,0.389-0.016,0.583-0.024
	c0.097-0.004,0.179-0.04,0.249-0.104c0.155-0.144,0.252-0.326,0.27-0.529c0.026-0.315,0.028-0.634,0.029-0.95
	c0.001-0.092-0.029-0.187-0.058-0.276c-0.021-0.069-0.065-0.079-0.124-0.038c-0.04,0.028-0.077,0.06-0.113,0.093
	c-0.407,0.383-0.789,0.789-1.13,1.232c-0.104,0.137-0.19,0.29-0.273,0.441c-0.045,0.08-0.008,0.129,0.083,0.13
	C39.936,36.193,40.098,36.191,40.259,36.191z"/>
</svg>
