<?xml version="1.0" encoding="utf-8"?>
<!-- Generator: Adobe Illustrator 16.0.0, SVG Export Plug-In . SVG Version: 6.00 Build 0)  -->
<!DOCTYPE svg PUBLIC "-//W3C//DTD SVG 1.1//EN" "http://www.w3.org/Graphics/SVG/1.1/DTD/svg11.dtd">
<svg version="1.1" id="Layer_1" xmlns="http://www.w3.org/2000/svg" xmlns:xlink="http://www.w3.org/1999/xlink" x="0px" y="0px"
	 width="30px" height="30px" viewBox="0 0 30 30" enable-background="new 0 0 30 30" xml:space="preserve">
<path fill="#486799" d="M15.619,3.873c0.804-0.012,1.605-0.028,2.408-0.033c0.182-0.001,0.37,0.019,0.543,0.063
	c0.422,0.108,0.58,0.411,0.604,0.81c0.018,0.306-0.02,0.616-0.049,0.924C19.078,6.128,19,6.615,18.966,7.107
	c-0.057,0.777-0.071,1.556,0,2.331c0.034,0.39,0.101,0.779,0.177,1.165c0.052,0.266,0.142,0.31,0.399,0.3
	c0.981-0.035,1.963-0.073,2.942-0.092c0.64-0.014,1.28,0.011,1.912,0.11c0.266,0.041,0.534,0.107,0.792,0.188
	c0.341,0.105,0.524,0.386,0.667,0.7c0.189,0.418,0.288,0.864,0.366,1.316c0.149,0.886,0.175,1.781,0.223,2.675
	c0.027,0.554,0.079,1.105,0.075,1.66c-0.003,0.434-0.071,0.872-0.307,1.253c-0.214,0.356-0.53,0.551-0.935,0.562
	c-1.145,0.026-2.293,0.023-3.438,0.054c-0.599,0.02-1.197,0.076-1.797,0.143c-0.208,0.021-0.419,0.099-0.618,0.176
	c-0.162,0.063-0.204,0.157-0.19,0.336c0.051,0.587,0.109,1.175,0.152,1.761c0.065,0.889,0.116,1.772,0.014,2.661
	c-0.03,0.268-0.085,0.539-0.221,0.777c-0.086,0.15-0.214,0.233-0.385,0.257c-0.637,0.085-1.271,0.188-1.908,0.256
	c-0.654,0.07-1.308,0.122-1.965,0.152c-0.673,0.026-1.352,0.034-2.026,0.016c-0.322-0.008-0.647-0.085-0.968-0.149
	c-0.229-0.044-0.35-0.213-0.361-0.448c-0.03-0.609-0.056-1.216-0.073-1.822c-0.028-0.849-0.03-1.701-0.071-2.546
	c-0.023-0.487-0.097-0.969-0.307-1.414c-0.095-0.202-0.22-0.384-0.446-0.453c-0.073-0.021-0.152-0.025-0.232-0.025
	C9.287,19,8.138,19.018,6.988,18.995c-0.605-0.011-1.212-0.081-1.818-0.142c-0.203-0.02-0.401-0.084-0.6-0.136
	c-0.329-0.083-0.496-0.316-0.578-0.645c-0.165-0.674-0.227-1.367-0.265-2.056c-0.035-0.676-0.044-1.355-0.07-2.031
	c-0.017-0.408-0.071-0.818-0.055-1.226c0.017-0.461,0.092-0.917,0.301-1.341c0.12-0.243,0.293-0.374,0.572-0.376
	c1.064-0.006,2.126-0.023,3.192-0.041c0.538-0.008,1.074-0.045,1.611-0.038c0.336,0.004,0.673,0.062,1.012,0.1
	c0.337,0.037,0.408-0.028,0.396-0.376c-0.037-1.197-0.088-2.396-0.111-3.593c-0.011-0.611,0.02-1.225,0.06-1.835
	c0.017-0.267,0.1-0.53,0.165-0.792c0.038-0.158,0.159-0.235,0.31-0.261c0.311-0.047,0.619-0.111,0.931-0.131
	c1.098-0.073,2.2-0.129,3.298-0.191c0.093-0.005,0.188,0,0.28,0C15.619,3.88,15.619,3.876,15.619,3.873z M12.372,9.078
	c0.008,0,0.016,0,0.023,0c0,0.345,0,0.691,0,1.039c0.002,0.346,0.004,0.693,0,1.039c-0.001,0.118,0.002,0.239-0.026,0.351
	c-0.171,0.687-0.945,1.375-1.771,1.366c-0.795-0.009-1.589-0.023-2.384-0.062c-0.882-0.041-1.764-0.115-2.646-0.168
	c-0.234-0.015-0.472-0.013-0.709-0.009c-0.176,0.005-0.316,0.115-0.343,0.291c-0.025,0.166-0.046,0.34-0.03,0.507
	c0.068,0.768,0.145,1.534,0.23,2.297C4.765,16.156,4.849,16.579,5,16.986c0.092,0.242,0.232,0.421,0.504,0.453
	c0.25,0.028,0.502,0.085,0.751,0.075c0.973-0.042,1.944-0.103,2.916-0.156c0.432-0.024,0.863-0.067,1.294-0.074
	c0.468-0.004,0.913,0.118,1.26,0.447c0.582,0.551,0.995,1.204,1.102,2.025c0.112,0.879,0.16,1.761,0.203,2.643
	c0.033,0.699,0.088,1.399,0.137,2.096c0.023,0.305,0.116,0.369,0.44,0.413c0.719,0.095,1.434,0.008,2.144-0.068
	c0.624-0.068,1.242-0.182,1.861-0.274c0.126-0.016,0.223-0.081,0.256-0.194c0.06-0.199,0.12-0.399,0.145-0.604
	c0.081-0.661,0.035-1.321-0.009-1.978c-0.038-0.612-0.11-1.228-0.173-1.837c-0.043-0.409-0.109-0.815-0.145-1.225
	c-0.015-0.154,0.005-0.319,0.041-0.47c0.014-0.06,0.102-0.134,0.166-0.146c0.211-0.048,0.425-0.085,0.64-0.095
	c1.066-0.057,2.134-0.106,3.201-0.149c0.155-0.008,0.286-0.054,0.388-0.171c0.197-0.234,0.397-0.465,0.578-0.709
	c0.232-0.317,0.43-0.661,0.666-0.976c0.534-0.694,1.083-1.375,1.627-2.06c0.09-0.112,0.142-0.24,0.104-0.376
	c-0.052-0.183-0.116-0.364-0.202-0.533c-0.07-0.142-0.173-0.171-0.32-0.113c-0.33,0.126-0.624,0.312-0.855,0.585
	c-0.151,0.177-0.298,0.357-0.452,0.529c-0.941,1.044-1.883,2.085-2.828,3.126c-0.075,0.083-0.14,0.172-0.224,0.243
	c-0.167,0.146-0.329,0.136-0.479-0.009c-0.186-0.179-0.218-0.355-0.079-0.531c0.082-0.102,0.185-0.193,0.284-0.284
	c0.18-0.163,0.382-0.306,0.544-0.489c0.744-0.835,1.479-1.678,2.219-2.52c0.205-0.236,0.409-0.475,0.608-0.717
	c0.118-0.14,0.098-0.198-0.075-0.246c-0.073-0.021-0.151-0.04-0.228-0.036c-0.401,0.015-0.804,0.03-1.208,0.058
	c-0.097,0.006-0.2,0.035-0.293,0.072c-0.292,0.119-0.525,0.322-0.753,0.533c-0.703,0.645-1.287,1.392-1.848,2.159
	c-0.32,0.434-0.652,0.865-1.084,1.202c-0.082,0.064-0.177,0.116-0.271,0.155c-0.116,0.055-0.309,0.009-0.386-0.082
	c-0.095-0.113-0.062-0.231-0.005-0.345c0.051-0.099,0.116-0.196,0.192-0.28c0.621-0.707,1.246-1.408,1.868-2.114
	c0.269-0.31,0.535-0.625,0.8-0.941c0.091-0.107,0.065-0.187-0.069-0.225c-0.089-0.025-0.183-0.046-0.274-0.047
	c-0.263-0.006-0.529,0.001-0.794,0.001c-0.183,0-0.342,0.058-0.488,0.167c-0.576,0.438-1.087,0.946-1.55,1.5
	c-0.263,0.311-0.482,0.656-0.738,0.97c-0.117,0.142-0.271,0.257-0.421,0.364c-0.083,0.062-0.191,0.048-0.274-0.021
	c-0.078-0.064-0.097-0.153-0.064-0.245c0.043-0.116,0.083-0.241,0.153-0.341c0.204-0.283,0.421-0.56,0.639-0.833
	c0.484-0.595,0.974-1.184,1.455-1.779c0.063-0.079,0.122-0.182,0.13-0.277c0.026-0.34,0.032-0.682,0.034-1.024
	c0.003-0.096-0.021-0.195-0.042-0.289c-0.026-0.114-0.079-0.136-0.174-0.067c-0.09,0.066-0.178,0.142-0.262,0.219
	c-0.904,0.888-1.727,1.853-2.543,2.821c-0.083,0.098-0.181,0.187-0.279,0.267c-0.078,0.062-0.152,0.036-0.211-0.041
	c-0.122-0.171-0.125-0.343-0.001-0.516c0.028-0.036,0.054-0.072,0.083-0.106c0.489-0.583,0.994-1.154,1.463-1.754
	c0.585-0.751,1.143-1.526,1.707-2.291c0.029-0.042,0.072-0.09,0.072-0.137c0.011-0.235,0.017-0.472,0.009-0.707
	c-0.004-0.109-0.043-0.124-0.128-0.054c-0.137,0.109-0.269,0.224-0.396,0.344c-0.906,0.853-1.819,1.704-2.629,2.656
	c-0.101,0.119-0.229,0.221-0.359,0.308c-0.071,0.047-0.182,0.072-0.263,0.058c-0.185-0.034-0.272-0.24-0.161-0.391
	c0.135-0.182,0.294-0.348,0.454-0.507c0.301-0.298,0.636-0.563,0.914-0.879c0.65-0.742,1.272-1.505,1.902-2.262
	c0.245-0.294,0.478-0.599,0.714-0.899c0.019-0.026,0.035-0.071,0.033-0.105c-0.015-0.144-0.044-0.283-0.055-0.428
	c-0.017-0.194-0.012-0.39-0.035-0.583c-0.029-0.237-0.18-0.293-0.365-0.14c-0.112,0.093-0.221,0.195-0.315,0.305
	c-0.564,0.658-1.125,1.321-1.691,1.978c-0.148,0.17-0.312,0.333-0.483,0.482c-0.125,0.107-0.238,0.105-0.321,0.028
	c-0.095-0.092-0.061-0.202-0.021-0.305c0.098-0.25,0.298-0.426,0.456-0.629c0.592-0.767,1.176-1.539,1.762-2.311
	c0.042-0.059,0.064-0.133,0.097-0.199c-0.073-0.022-0.146-0.062-0.219-0.06c-0.304,0.012-0.607,0.038-0.912,0.059
	c-0.179,0.011-0.311,0.11-0.43,0.233c-0.165,0.174-0.334,0.345-0.491,0.526c-0.275,0.321-0.542,0.65-0.812,0.975
	c-0.117,0.14-0.208,0.154-0.359,0.053c-0.317-0.216-0.338-0.374-0.09-0.663c0.053-0.061,0.112-0.118,0.169-0.176
	c0.144-0.149,0.292-0.294,0.43-0.451c0.09-0.107,0.173-0.227,0.238-0.352c0.069-0.134,0.008-0.259-0.139-0.291
	c-0.108-0.024-0.228-0.029-0.339-0.012c-0.344,0.054-0.69,0.112-1.029,0.19c-0.345,0.078-0.424,0.196-0.425,0.548
	c0,0.042,0,0.083,0.004,0.122c0.027,0.395,0.072,0.788,0.079,1.184C12.38,7.667,12.372,8.373,12.372,9.078z M23.906,17.839
	c0.001,0.006,0.001,0.013,0.003,0.018c0.272-0.028,0.549-0.054,0.823-0.087c0.291-0.041,0.371-0.12,0.408-0.405
	c0.056-0.438,0.109-0.874,0.147-1.311c0.016-0.19-0.005-0.382-0.029-0.569c-0.016-0.117-0.084-0.143-0.184-0.079
	c-0.088,0.053-0.172,0.114-0.242,0.185c-0.531,0.525-0.992,1.108-1.418,1.72c-0.075,0.109-0.128,0.24-0.166,0.363
	c-0.036,0.128,0,0.163,0.133,0.166C23.557,17.843,23.732,17.839,23.906,17.839z"/>
</svg>
