<?xml version="1.0" encoding="utf-8"?>
<!-- Generator: Adobe Illustrator 16.0.0, SVG Export Plug-In . SVG Version: 6.00 Build 0)  -->
<!DOCTYPE svg PUBLIC "-//W3C//DTD SVG 1.1//EN" "http://www.w3.org/Graphics/SVG/1.1/DTD/svg11.dtd">
<svg version="1.1" id="Layer_1" xmlns="http://www.w3.org/2000/svg" xmlns:xlink="http://www.w3.org/1999/xlink" x="0px" y="0px"
	 width="30px" height="30px" viewBox="0 0 30 30" enable-background="new 0 0 30 30" xml:space="preserve">
<g>
	<circle fill="#C7C4E2" cx="15.018" cy="14.905" r="14.56"/>
	<path fill-rule="evenodd" clip-rule="evenodd" fill="#AEACC6" d="M7.979,9.091c0.09-0.012,0.179-0.025,0.27-0.035
		C8.601,9.017,8.875,8.82,9.143,8.611C9.319,8.474,9.5,8.342,9.681,8.213C9.727,8.182,9.786,8.168,9.84,8.146
		c0.008,0.012,0.016,0.024,0.024,0.036c-0.15,0.187-0.3,0.374-0.46,0.574c0.035,0.005,0.057,0.015,0.074,0.012
		C9.512,8.762,9.542,8.742,9.575,8.74c0.207-0.017,0.343-0.155,0.487-0.28c0.166-0.146,0.336-0.285,0.507-0.423
		c0.05-0.04,0.106-0.077,0.167-0.098c0.042-0.016,0.096-0.014,0.138-0.001c0.077,0.021,0.081,0.054,0.028,0.114
		c-0.119,0.136-0.239,0.27-0.358,0.408c-0.028,0.033-0.048,0.073-0.086,0.133c0.142,0.007,0.265,0.025,0.385,0.014
		c0.051-0.005,0.102-0.062,0.148-0.103c0.143-0.132,0.283-0.269,0.425-0.4c0.043-0.04,0.092-0.081,0.146-0.101
		c0.029-0.012,0.083,0.005,0.11,0.027c0.022,0.018,0.028,0.067,0.02,0.097c-0.01,0.036-0.042,0.064-0.068,0.094
		c-0.094,0.112-0.195,0.219-0.281,0.336c-0.067,0.09-0.048,0.123,0.057,0.15c0.109,0.026,0.219,0.051,0.328,0.081
		c0.075,0.02,0.125,0.004,0.169-0.067c0.191-0.308,0.389-0.614,0.585-0.92c0.112-0.173,0.272-0.294,0.438-0.405
		c0.135-0.087,0.28-0.009,0.292,0.152c0.001,0.011,0.001,0.021,0.001,0.033c0.004,0.157-0.013,0.181-0.165,0.218
		c0.143,0.058,0.298,0.093,0.389,0.248c0.021-0.025,0.035-0.038,0.044-0.054c0.09-0.143,0.173-0.29,0.271-0.427
		c0.03-0.042,0.095-0.078,0.146-0.082c0.12-0.011,0.171,0.078,0.112,0.182c-0.054,0.096-0.113,0.188-0.167,0.285
		c-0.019,0.033-0.024,0.071-0.036,0.109c0.04,0.006,0.079,0.014,0.119,0.021c0.011,0.001,0.023,0,0.035-0.002
		c0.326-0.042,0.285-0.022,0.348-0.27c0.024-0.097,0.068-0.191,0.121-0.277c0.068-0.111,0.237-0.119,0.33-0.027
		c0.057,0.055,0.04,0.103,0,0.156c-0.049,0.072-0.101,0.143-0.141,0.219c-0.031,0.062,0,0.104,0.071,0.108
		c0.129,0.01,0.258,0.016,0.388,0.022c0.028,0.002,0.056,0,0.083-0.006c0.052-0.011,0.08-0.033,0.06-0.095
		c-0.032-0.104-0.061-0.21-0.086-0.318c-0.028-0.125,0.042-0.217,0.179-0.246c0.073-0.016,0.147,0.051,0.166,0.166
		c0.019,0.105,0.031,0.212,0.035,0.319c0.004,0.147,0,0.145,0.153,0.153C15.758,7.987,15.851,8,15.943,8.007
		c0.035,0.002,0.071,0,0.124,0c-0.019-0.035-0.03-0.057-0.044-0.078c-0.06-0.097-0.124-0.194-0.182-0.292
		c-0.038-0.061-0.004-0.1,0.051-0.117c0.054-0.015,0.112-0.026,0.167-0.028c0.082-0.005,0.146,0.024,0.175,0.114
		c0.028,0.083,0.062,0.163,0.091,0.244c0.062,0.171,0.146,0.221,0.352,0.193c-0.01-0.024-0.018-0.046-0.029-0.066
		c-0.055-0.091-0.115-0.181-0.168-0.273c-0.047-0.086-0.023-0.123,0.076-0.129c0.117-0.008,0.223,0.001,0.289,0.125
		c0.021,0.038,0.086,0.067,0.133,0.072c0.26,0.025,0.414,0.172,0.504,0.404c0.023,0.061,0.057,0.097,0.123,0.124
		c0.281,0.113,0.451,0.312,0.447,0.63c-0.004,0.142,0.006,0.283,0.002,0.424c-0.002,0.079,0.033,0.106,0.107,0.103
		c0.125-0.006,0.248-0.006,0.371-0.016c0.035-0.002,0.064-0.026,0.098-0.042c-0.014-0.029-0.023-0.06-0.043-0.086
		c-0.109-0.163-0.229-0.321-0.332-0.488c-0.064-0.102-0.039-0.163,0.059-0.218c0.09-0.052,0.188-0.038,0.234,0.05
		c0.051,0.087,0.08,0.185,0.119,0.278c0.045,0.109,0.086,0.22,0.137,0.327c0.031,0.071,0.09,0.109,0.174,0.115
		c0.117,0.009,0.234,0.026,0.352,0.032c0.025,0.002,0.062-0.012,0.072-0.029c0.008-0.016-0.01-0.052-0.025-0.072
		c-0.15-0.193-0.305-0.386-0.455-0.58c-0.027-0.035-0.055-0.073-0.072-0.114c-0.023-0.051-0.076-0.099-0.027-0.162
		c0.049-0.062,0.152-0.107,0.221-0.072c0.062,0.033,0.129,0.083,0.168,0.143c0.109,0.167,0.203,0.344,0.305,0.516
		c0.057,0.092,0.109,0.185,0.176,0.27c0.027,0.036,0.08,0.066,0.123,0.071c0.166,0.014,0.332,0.021,0.498,0.02
		c0.051,0,0.1-0.041,0.148-0.062c-0.029-0.039-0.055-0.083-0.09-0.115c-0.225-0.208-0.455-0.413-0.684-0.621
		c-0.039-0.038-0.076-0.082-0.111-0.126c-0.047-0.062-0.037-0.105,0.027-0.146c0.107-0.064,0.215-0.039,0.318,0.07
		c0.162,0.172,0.328,0.342,0.494,0.512c0.064,0.066,0.135,0.128,0.197,0.197c0.037,0.042,0.061,0.095,0.1,0.136
		c0.035,0.037,0.082,0.089,0.127,0.092c0.176,0.011,0.355,0.007,0.533,0.007c0.023-0.001,0.047-0.021,0.068-0.032
		c-0.012-0.02-0.023-0.044-0.041-0.059c-0.311-0.244-0.623-0.484-0.932-0.729c-0.047-0.038-0.09-0.088-0.119-0.139
		c-0.043-0.074,0.004-0.141,0.088-0.129c0.055,0.007,0.109,0.029,0.156,0.058c0.348,0.222,0.678,0.468,0.914,0.816
		c0.104,0.15,0.299,0.237,0.473,0.22c-0.023-0.031-0.039-0.058-0.062-0.077c-0.152-0.129-0.307-0.258-0.463-0.383
		c-0.088-0.069-0.143-0.155-0.158-0.269c-0.01-0.062-0.041-0.12-0.062-0.18c-0.016-0.038-0.039-0.071-0.047-0.108
		c-0.021-0.081-0.033-0.169,0.037-0.229c0.07-0.057,0.152-0.034,0.215,0.012c0.119,0.087,0.234,0.183,0.348,0.278
		C22.148,8.697,22.512,9,22.871,9.311C23,9.423,23.139,9.538,23.193,9.707c0.037,0.125,0.064,0.258,0.076,0.39
		c0.041,0.47,0.1,0.94,0.102,1.41c0.02,2.7,0.025,5.401,0.037,8.102c0.002,0.545,0.012,1.09-0.002,1.636
		c-0.008,0.299-0.053,0.601-0.088,0.898c-0.037,0.309-0.221,0.484-0.523,0.553c-0.416,0.096-0.828,0.215-1.248,0.296
		c-0.498,0.098-1.008,0.141-1.516,0.142c-0.689,0.002-1.379-0.008-2.068-0.014c-0.057-0.001-0.086,0.003-0.086,0.076
		c0,0.199-0.119,0.354-0.316,0.379c-0.191,0.024-0.389,0.033-0.58,0.022c-0.863-0.046-1.726-0.106-2.589-0.15
		c-0.291-0.017-0.585,0-0.881,0.006c-0.381,0.008-0.762,0.004-1.137-0.081c-0.116-0.026-0.228-0.078-0.338-0.128
		c-0.077-0.034-0.112-0.104-0.117-0.191c-0.017-0.232-0.036-0.467-0.061-0.699c-0.004-0.035-0.041-0.096-0.061-0.095
		c-0.061,0.003-0.121,0.028-0.18,0.051c-0.004,0.001,0.006,0.059,0.02,0.084c0.037,0.068,0.093,0.129,0.117,0.2
		c0.041,0.117-0.024,0.218-0.146,0.237c-0.111,0.019-0.225,0.032-0.336,0.034c-0.624,0.015-1.25,0.017-1.872,0.038
		c-0.37,0.015-0.737,0.061-1.107,0.087c-0.095,0.008-0.192,0.01-0.287,0c-0.337-0.035-0.394-0.161-0.456-0.431
		c-0.102-0.448-0.095-0.909-0.12-1.365c-0.04-0.759-0.075-1.517-0.126-2.274c-0.041-0.617-0.1-1.233-0.155-1.849
		c-0.044-0.478-0.092-0.956-0.147-1.431c-0.044-0.373-0.101-0.745-0.155-1.116c-0.048-0.332-0.098-0.665-0.149-0.996
		c-0.049-0.311-0.102-0.624-0.152-0.936c-0.062-0.395-0.12-0.792-0.187-1.187c-0.057-0.331-0.121-0.66-0.188-0.988
		c-0.027-0.132-0.075-0.259-0.108-0.389C6.055,10,6.065,9.961,6.077,9.933C6.16,9.752,6.298,9.619,6.462,9.516
		c0.449-0.286,0.9-0.569,1.353-0.849c0.322-0.201,0.649-0.396,0.973-0.594c0.123-0.074,0.248-0.135,0.396-0.129
		c0.063,0.003,0.128,0.017,0.14,0.084c0.008,0.044-0.008,0.114-0.039,0.143C9.197,8.252,9.1,8.327,8.999,8.391
		c-0.292,0.185-0.59,0.362-0.884,0.545C8.06,8.971,8.014,9.018,7.964,9.059C7.97,9.069,7.974,9.08,7.979,9.091z M17.568,15.902
		c0.006-1.009,0.02-2.394,0.018-3.776c-0.002-0.968-0.025-1.937-0.139-2.901c-0.045-0.382-0.25-0.637-0.611-0.764
		c-0.289-0.102-0.586-0.139-0.89-0.144C15.223,8.305,14.5,8.312,13.792,8.49c-0.436,0.109-0.851,0.271-1.255,0.467
		c-0.119,0.058-0.165,0.136-0.158,0.265c0.021,0.419,0.035,0.84,0.057,1.261c0.039,0.698,0.089,1.397,0.121,2.096
		c0.06,1.337,0.059,2.677,0.041,4.016c-0.027,2.001-0.062,4.004-0.094,6.006c-0.004,0.286,0.002,0.296,0.292,0.297
		c0.297,0.001,0.593,0,0.891-0.015c1.101-0.053,2.193,0.061,3.288,0.162c0.164,0.015,0.223-0.028,0.273-0.189
		c0.072-0.225,0.08-0.456,0.092-0.687c0.041-0.804,0.082-1.607,0.109-2.412C17.49,18.598,17.521,17.438,17.568,15.902z
		 M17.973,20.002c0.031-0.011,0.062-0.02,0.092-0.036c0.145-0.085,0.291-0.17,0.434-0.261c0.055-0.037,0.08-0.019,0.104,0.031
		c0.055,0.106,0.039,0.178-0.062,0.245c-0.154,0.105-0.316,0.203-0.471,0.312c-0.037,0.024-0.062,0.076-0.076,0.119
		c-0.016,0.051-0.018,0.107-0.02,0.159c0,0.035,0.012,0.07,0.02,0.105c0.033-0.009,0.07-0.011,0.1-0.027
		c0.137-0.086,0.273-0.177,0.414-0.262c0.035-0.021,0.082-0.032,0.125-0.034c0.023-0.001,0.061,0.025,0.068,0.048
		c0.01,0.023,0,0.062-0.014,0.083c-0.021,0.028-0.055,0.05-0.084,0.071c-0.16,0.112-0.316,0.237-0.49,0.333
		c-0.172,0.095-0.217,0.237-0.213,0.414c0.002,0.037,0.002,0.073,0.004,0.11c0.008,0.079,0.023,0.092,0.094,0.056
		c0.117-0.059,0.232-0.123,0.354-0.18c0.141-0.067,0.285-0.13,0.432-0.19c0.021-0.009,0.074,0.002,0.08,0.016
		c0.01,0.026,0.004,0.069-0.012,0.092c-0.031,0.039-0.07,0.076-0.113,0.1c-0.242,0.137-0.49,0.266-0.732,0.404
		c-0.053,0.028-0.105,0.084-0.123,0.139c-0.025,0.08-0.021,0.171-0.025,0.257c-0.002,0.092,0.02,0.113,0.105,0.084
		c0.127-0.044,0.248-0.103,0.373-0.153c0.168-0.067,0.332-0.139,0.5-0.201c0.025-0.009,0.064,0.017,0.098,0.026
		c-0.012,0.032-0.016,0.071-0.035,0.098c-0.02,0.028-0.057,0.046-0.088,0.063c-0.211,0.124-0.424,0.246-0.635,0.371
		c-0.057,0.034-0.113,0.076-0.16,0.122c-0.047,0.048-0.031,0.089,0.035,0.1c0.055,0.011,0.113,0.012,0.17,0.009
		c0.73-0.021,1.461-0.031,2.191-0.07c0.352-0.019,0.699-0.09,1.049-0.143c0.303-0.048,0.605-0.104,0.908-0.155
		c0.148-0.025,0.283-0.067,0.328-0.234c0.027-0.097,0.062-0.195,0.068-0.295c0.039-0.589,0.096-1.178,0.098-1.767
		c0.006-2.551-0.004-5.102-0.016-7.652c-0.004-0.72-0.02-1.44-0.111-2.156c-0.023-0.203-0.08-0.262-0.285-0.265
		c-0.172-0.004-0.346,0.002-0.518,0.007c-0.396,0.011-0.789,0.025-1.186,0.035c-0.832,0.02-1.666,0.036-2.498,0.056
		c-0.111,0.002-0.141,0.032-0.141,0.143c0,0.096,0.014,0.192,0.014,0.288c0.012,0.588,0.023,1.175,0.035,1.764
		c0,0.091,0.035,0.119,0.123,0.085c0.131-0.05,0.256-0.112,0.385-0.167c0.033-0.012,0.092-0.032,0.098-0.026
		c0.021,0.037,0.041,0.085,0.037,0.124c-0.004,0.035-0.039,0.076-0.068,0.096c-0.164,0.094-0.332,0.182-0.498,0.269
		c-0.061,0.03-0.09,0.071-0.088,0.139c0.006,0.182,0.008,0.367,0.012,0.55c0.004,0.147,0.008,0.146,0.141,0.073
		c0.17-0.093,0.342-0.182,0.516-0.268c0.027-0.014,0.092-0.014,0.1,0c0.016,0.032,0.021,0.084,0.008,0.116
		c-0.02,0.04-0.057,0.08-0.096,0.103c-0.215,0.133-0.432,0.263-0.652,0.39c-0.057,0.032-0.092,0.068-0.092,0.137
		c0.004,0.189,0,0.378,0,0.567c-0.002,0.053,0.023,0.076,0.072,0.061c0.086-0.026,0.172-0.054,0.254-0.087
		c0.139-0.055,0.273-0.119,0.414-0.173c0.035-0.013,0.098-0.015,0.115,0.005c0.021,0.026,0.029,0.092,0.012,0.122
		c-0.031,0.05-0.08,0.099-0.135,0.127c-0.213,0.108-0.432,0.206-0.648,0.309c-0.049,0.023-0.08,0.057-0.08,0.116
		c-0.004,0.169-0.008,0.338-0.008,0.508c0,0.12,0.027,0.134,0.137,0.069c0.164-0.099,0.326-0.2,0.488-0.3
		c0.102-0.062,0.199-0.126,0.305-0.185c0.068-0.039,0.092-0.022,0.104,0.057c0.014,0.113-0.039,0.176-0.129,0.23
		c-0.289,0.173-0.57,0.353-0.857,0.527c-0.072,0.043-0.1,0.103-0.1,0.181c0,0.143,0,0.288,0,0.432
		c0.002,0.095,0.033,0.117,0.121,0.084c0.084-0.032,0.166-0.069,0.246-0.108c0.141-0.067,0.277-0.138,0.418-0.204
		c0.078-0.036,0.123-0.005,0.109,0.08c-0.006,0.034-0.023,0.072-0.045,0.097c-0.045,0.043-0.094,0.083-0.146,0.112
		c-0.188,0.106-0.375,0.208-0.566,0.306c-0.092,0.048-0.133,0.114-0.125,0.216c0.008,0.078,0.014,0.158,0.018,0.236
		c0.006,0.091,0.043,0.115,0.123,0.079c0.031-0.012,0.057-0.029,0.084-0.044c0.186-0.111,0.371-0.223,0.559-0.332
		c0.076-0.042,0.15-0.029,0.182,0.025c0.045,0.074-0.008,0.118-0.059,0.153c-0.209,0.137-0.42,0.271-0.633,0.403
		c-0.297,0.183-0.244,0.119-0.258,0.45c0,0.008,0,0.016,0,0.025c0.006,0.071,0.033,0.094,0.098,0.063s0.123-0.07,0.182-0.107
		c0.156-0.097,0.309-0.197,0.467-0.288c0.031-0.017,0.1-0.012,0.117,0.009c0.02,0.026,0.018,0.094-0.002,0.122
		c-0.047,0.063-0.105,0.122-0.172,0.169c-0.215,0.147-0.438,0.288-0.65,0.439c-0.047,0.034-0.094,0.102-0.098,0.155
		c-0.01,0.242-0.006,0.485-0.008,0.729c0,0.015,0.01,0.029,0.02,0.058c0.049-0.027,0.096-0.047,0.137-0.075
		c0.18-0.128,0.373-0.23,0.584-0.298c0.055-0.019,0.105-0.031,0.139,0.031c0.029,0.061,0.006,0.146-0.051,0.179
		c-0.238,0.142-0.48,0.282-0.721,0.423C17.939,19.643,17.887,19.832,17.973,20.002z M12.021,20.164
		c-0.009-0.007-0.019-0.014-0.028-0.021c-0.133,0.097-0.265,0.194-0.398,0.291c-0.052,0.038-0.101,0.087-0.159,0.109
		c-0.036,0.015-0.098,0.005-0.129-0.019c-0.027-0.021-0.042-0.082-0.032-0.117c0.012-0.053,0.046-0.102,0.081-0.146
		c0.151-0.196,0.368-0.291,0.591-0.378c0.099-0.038,0.145-0.104,0.136-0.205c-0.012-0.139-0.036-0.274-0.049-0.411
		c-0.008-0.067-0.045-0.072-0.095-0.058c-0.082,0.026-0.165,0.055-0.248,0.08c-0.1,0.035-0.196,0.074-0.295,0.103
		c-0.076,0.021-0.124-0.024-0.151-0.092c-0.027-0.071,0.035-0.08,0.075-0.098c0.221-0.099,0.44-0.201,0.665-0.292
		c0.07-0.027,0.09-0.069,0.083-0.134c-0.01-0.105-0.026-0.212-0.041-0.317c-0.016-0.119-0.043-0.138-0.149-0.083
		c-0.186,0.095-0.366,0.201-0.55,0.298c-0.061,0.032-0.129,0.058-0.196,0.07c-0.066,0.013-0.121-0.018-0.147-0.088
		c-0.025-0.068,0.01-0.112,0.062-0.149c0.022-0.014,0.044-0.025,0.066-0.038c0.278-0.148,0.556-0.3,0.834-0.447
		c0.054-0.028,0.081-0.062,0.082-0.124c0.002-0.143,0.011-0.288,0.014-0.431c0.001-0.108-0.023-0.129-0.119-0.078
		c-0.222,0.114-0.44,0.236-0.659,0.355c-0.037,0.021-0.071,0.047-0.11,0.062c-0.045,0.018-0.083,0-0.082-0.05
		c0-0.044,0.005-0.096,0.029-0.127c0.05-0.064,0.106-0.127,0.171-0.175c0.164-0.12,0.333-0.231,0.502-0.345
		c0.326-0.217,0.26-0.102,0.306-0.503c0.016-0.148,0.003-0.301,0.003-0.461c-0.032,0.008-0.067,0.009-0.095,0.023
		c-0.225,0.111-0.446,0.226-0.671,0.337c-0.041,0.021-0.087,0.046-0.131,0.05c-0.032,0.001-0.08-0.023-0.096-0.051
		c-0.013-0.021,0.003-0.071,0.021-0.096c0.028-0.037,0.069-0.067,0.107-0.094c0.269-0.186,0.54-0.369,0.809-0.555
		c0.036-0.025,0.083-0.059,0.09-0.095c0.029-0.167-0.006-0.328-0.041-0.51c-0.106,0.074-0.201,0.132-0.29,0.201
		c-0.1,0.078-0.194,0.163-0.291,0.244c-0.069,0.057-0.136,0.046-0.209-0.026c-0.064-0.061-0.021-0.109,0.019-0.151
		c0.081-0.086,0.161-0.174,0.251-0.251c0.144-0.123,0.299-0.232,0.444-0.353c0.036-0.03,0.086-0.08,0.083-0.117
		c-0.009-0.198-0.033-0.396-0.053-0.608c-0.05,0.021-0.081,0.027-0.106,0.044c-0.149,0.099-0.299,0.201-0.448,0.3
		c-0.034,0.021-0.066,0.049-0.103,0.06c-0.077,0.021-0.125-0.021-0.167-0.083c-0.042-0.064-0.005-0.106,0.04-0.136
		c0.218-0.149,0.437-0.297,0.66-0.438c0.059-0.038,0.094-0.075,0.088-0.146c-0.011-0.114-0.012-0.227-0.029-0.337
		c-0.012-0.099-0.042-0.115-0.134-0.071c-0.134,0.063-0.267,0.133-0.399,0.202c-0.087,0.046-0.145,0.012-0.155-0.088
		c-0.008-0.08,0.043-0.122,0.096-0.158c0.156-0.104,0.314-0.208,0.475-0.307c0.054-0.033,0.081-0.071,0.079-0.135
		c-0.005-0.39,0.004-0.78-0.014-1.169c-0.036-0.789-0.085-1.58-0.129-2.369c-0.006-0.122-0.02-0.145-0.139-0.161
		c-0.232-0.028-0.465-0.06-0.698-0.073C10.262,8.997,9.586,9.06,8.92,9.215c-0.327,0.077-0.652,0.16-0.971,0.263
		C7.566,9.601,7.191,9.747,6.813,9.884C6.682,9.931,6.62,10.03,6.636,10.167c0.021,0.182,0.051,0.363,0.082,0.543
		c0.048,0.283,0.106,0.566,0.152,0.85c0.053,0.318,0.1,0.641,0.147,0.961c0.042,0.281,0.083,0.563,0.122,0.847
		c0.051,0.383,0.1,0.766,0.148,1.149c0.043,0.333,0.085,0.667,0.125,1.001c0.052,0.439,0.101,0.879,0.148,1.32
		c0.042,0.405,0.084,0.81,0.121,1.214c0.042,0.47,0.078,0.939,0.115,1.41c0.032,0.402,0.061,0.805,0.088,1.207
		c0.035,0.499,0.066,0.998,0.1,1.497c0.008,0.116,0.059,0.179,0.175,0.192c0.158,0.019,0.32,0.03,0.479,0.028
		c0.334-0.004,0.666-0.021,1-0.026c0.488-0.009,0.978-0.012,1.465-0.019c0.112-0.001,0.215-0.024,0.303-0.105
		c0.113-0.101,0.222-0.218,0.355-0.281c0.171-0.081,0.219-0.193,0.192-0.365c-0.012-0.076-0.011-0.153-0.016-0.245
		c-0.047,0.022-0.076,0.036-0.102,0.05c-0.135,0.064-0.272,0.132-0.427,0.115c-0.045-0.004-0.088-0.04-0.134-0.062
		c0.027-0.042,0.05-0.09,0.082-0.128c0.019-0.022,0.052-0.032,0.079-0.047c0.165-0.086,0.327-0.177,0.494-0.259
		c0.088-0.044,0.11-0.11,0.104-0.2c-0.006-0.139-0.009-0.276-0.012-0.414C12.02,20.32,12.021,20.243,12.021,20.164z"/>
	<path fill-rule="evenodd" clip-rule="evenodd" fill="#FFFFFF" d="M17.568,15.902c-0.047,1.536-0.078,2.696-0.121,3.855
		c-0.027,0.805-0.068,1.608-0.109,2.412c-0.012,0.23-0.02,0.462-0.092,0.687c-0.051,0.161-0.109,0.204-0.273,0.189
		c-1.095-0.102-2.188-0.215-3.288-0.162c-0.297,0.015-0.594,0.016-0.891,0.015c-0.29-0.001-0.295-0.011-0.292-0.297
		c0.032-2.002,0.066-4.005,0.094-6.006c0.018-1.339,0.019-2.678-0.041-4.016c-0.031-0.699-0.082-1.398-0.121-2.096
		c-0.021-0.42-0.036-0.842-0.057-1.261c-0.007-0.129,0.04-0.207,0.158-0.265c0.404-0.196,0.819-0.358,1.255-0.467
		c0.708-0.179,1.431-0.185,2.155-0.173c0.304,0.005,0.601,0.042,0.89,0.144c0.361,0.127,0.566,0.381,0.611,0.764
		c0.113,0.964,0.137,1.933,0.139,2.901C17.588,13.508,17.574,14.893,17.568,15.902z M16.281,11.711l-0.008,0
		c0.004-0.056,0.008-0.112,0.01-0.168c0.012-0.314,0.02-0.626,0.029-0.94c0.004-0.114-0.039-0.207-0.151-0.236
		c-0.213-0.055-0.427-0.135-0.641-0.135c-0.545,0-1.088,0.037-1.633,0.061c-0.087,0.003-0.152,0.053-0.17,0.14
		c-0.018,0.079-0.028,0.161-0.032,0.242c-0.007,0.175-0.008,0.35-0.01,0.525c-0.004,0.537-0.022,1.073-0.005,1.609
		c0.019,0.577,0.078,1.154,0.109,1.732c0.043,0.778,0.073,1.556,0.112,2.335c0.009,0.202,0.034,0.403,0.055,0.606
		c0.01,0.088,0.067,0.131,0.149,0.131c0.144,0.001,0.29,0.005,0.431-0.016c0.227-0.035,0.452-0.064,0.682-0.056
		c0.144,0.006,0.287,0.009,0.431,0.009c0.041,0,0.088-0.006,0.119-0.028c0.093-0.068,0.15-0.163,0.162-0.277
		c0.027-0.258,0.049-0.516,0.068-0.776c0.028-0.428,0.044-0.857,0.074-1.284c0.059-0.785,0.131-1.57,0.184-2.355
		C16.27,12.456,16.27,12.082,16.281,11.711z M14.971,20.9c0.121,0,0.244,0.011,0.365-0.004c0.118-0.015,0.241-0.039,0.347-0.09
		c0.218-0.104,0.339-0.3,0.441-0.507c0.064-0.131,0.129-0.27,0.09-0.414c-0.053-0.203-0.116-0.407-0.202-0.598
		c-0.112-0.245-0.28-0.456-0.542-0.556c-0.369-0.141-0.737-0.098-1.086,0.056c-0.386,0.17-0.605,0.497-0.741,0.88
		c-0.176,0.491,0.117,1.027,0.617,1.167C14.494,20.9,14.731,20.908,14.971,20.9z"/>
	<path fill-rule="evenodd" clip-rule="evenodd" fill="#FFFFFF" d="M17.973,20.002c-0.086-0.17-0.033-0.359,0.119-0.448
		c0.24-0.141,0.482-0.281,0.721-0.423c0.057-0.032,0.08-0.118,0.051-0.179c-0.033-0.062-0.084-0.05-0.139-0.031
		c-0.211,0.067-0.404,0.17-0.584,0.298c-0.041,0.028-0.088,0.048-0.137,0.075c-0.01-0.028-0.02-0.043-0.02-0.058
		c0.002-0.243-0.002-0.486,0.008-0.729c0.004-0.054,0.051-0.121,0.098-0.155c0.213-0.151,0.436-0.292,0.65-0.439
		c0.066-0.047,0.125-0.105,0.172-0.169c0.02-0.028,0.021-0.096,0.002-0.122c-0.018-0.021-0.086-0.025-0.117-0.009
		c-0.158,0.091-0.311,0.191-0.467,0.288c-0.059,0.037-0.117,0.077-0.182,0.107s-0.092,0.008-0.098-0.063c0-0.01,0-0.018,0-0.025
		c0.014-0.331-0.039-0.268,0.258-0.45c0.213-0.132,0.424-0.267,0.633-0.403c0.051-0.035,0.104-0.079,0.059-0.153
		c-0.031-0.055-0.105-0.067-0.182-0.025c-0.188,0.109-0.373,0.221-0.559,0.332c-0.027,0.015-0.053,0.032-0.084,0.044
		c-0.08,0.036-0.117,0.012-0.123-0.079c-0.004-0.078-0.01-0.158-0.018-0.236c-0.008-0.102,0.033-0.168,0.125-0.216
		c0.191-0.098,0.379-0.199,0.566-0.306c0.053-0.029,0.102-0.069,0.146-0.112c0.021-0.024,0.039-0.062,0.045-0.097
		c0.014-0.085-0.031-0.116-0.109-0.08c-0.141,0.066-0.277,0.137-0.418,0.204c-0.08,0.039-0.162,0.076-0.246,0.108
		c-0.088,0.033-0.119,0.011-0.121-0.084c0-0.145,0-0.289,0-0.432c0-0.079,0.027-0.138,0.1-0.181
		c0.287-0.174,0.568-0.354,0.857-0.527c0.09-0.054,0.143-0.118,0.129-0.23c-0.012-0.079-0.035-0.096-0.104-0.057
		c-0.105,0.059-0.203,0.123-0.305,0.185c-0.162,0.101-0.324,0.202-0.488,0.3c-0.109,0.064-0.137,0.05-0.137-0.069
		c0-0.17,0.004-0.339,0.008-0.508c0-0.059,0.031-0.093,0.08-0.116c0.217-0.103,0.436-0.201,0.648-0.309
		c0.055-0.028,0.104-0.077,0.135-0.127c0.018-0.03,0.01-0.096-0.012-0.122c-0.018-0.02-0.08-0.018-0.115-0.005
		c-0.141,0.055-0.275,0.118-0.414,0.173c-0.082,0.033-0.168,0.061-0.254,0.087c-0.049,0.015-0.074-0.007-0.072-0.061
		c0-0.189,0.004-0.378,0-0.567c0-0.069,0.035-0.105,0.092-0.137c0.221-0.127,0.438-0.257,0.652-0.39
		c0.039-0.023,0.076-0.062,0.096-0.103c0.014-0.032,0.008-0.084-0.008-0.116c-0.008-0.014-0.072-0.014-0.1,0
		c-0.174,0.086-0.346,0.175-0.516,0.268c-0.133,0.073-0.137,0.074-0.141-0.073c-0.004-0.184-0.006-0.368-0.012-0.55
		c-0.002-0.068,0.027-0.109,0.088-0.139c0.166-0.087,0.334-0.175,0.498-0.269c0.029-0.02,0.064-0.061,0.068-0.096
		c0.004-0.039-0.016-0.087-0.037-0.124c-0.006-0.006-0.064,0.014-0.098,0.026c-0.129,0.056-0.254,0.117-0.385,0.167
		c-0.088,0.033-0.123,0.006-0.123-0.085c-0.012-0.589-0.023-1.176-0.035-1.764c0-0.096-0.014-0.191-0.014-0.288
		c0-0.111,0.029-0.141,0.141-0.143c0.832-0.02,1.666-0.036,2.498-0.056c0.396-0.009,0.789-0.024,1.186-0.035
		c0.172-0.005,0.346-0.011,0.518-0.007c0.205,0.003,0.262,0.062,0.285,0.265c0.092,0.716,0.107,1.436,0.111,2.156
		c0.012,2.55,0.021,5.101,0.016,7.652c-0.002,0.589-0.059,1.178-0.098,1.767c-0.006,0.1-0.041,0.198-0.068,0.295
		c-0.045,0.167-0.18,0.209-0.328,0.234c-0.303,0.051-0.605,0.107-0.908,0.155c-0.35,0.053-0.697,0.124-1.049,0.143
		c-0.73,0.039-1.461,0.05-2.191,0.07c-0.057,0.003-0.115,0.002-0.17-0.009c-0.066-0.011-0.082-0.052-0.035-0.1
		c0.047-0.046,0.104-0.088,0.16-0.122c0.211-0.125,0.424-0.247,0.635-0.371c0.031-0.018,0.068-0.035,0.088-0.063
		c0.02-0.026,0.023-0.065,0.035-0.098c-0.033-0.01-0.072-0.035-0.098-0.026c-0.168,0.062-0.332,0.134-0.5,0.201
		c-0.125,0.051-0.246,0.109-0.373,0.153c-0.086,0.029-0.107,0.008-0.105-0.084c0.004-0.086,0-0.177,0.025-0.257
		c0.018-0.055,0.07-0.11,0.123-0.139c0.242-0.139,0.49-0.268,0.732-0.404c0.043-0.023,0.082-0.061,0.113-0.1
		c0.016-0.022,0.021-0.065,0.012-0.092c-0.006-0.014-0.059-0.024-0.08-0.016c-0.146,0.061-0.291,0.123-0.432,0.19
		c-0.121,0.057-0.236,0.121-0.354,0.18c-0.07,0.036-0.086,0.023-0.094-0.056c-0.002-0.037-0.002-0.073-0.004-0.11
		c-0.004-0.177,0.041-0.319,0.213-0.414c0.174-0.096,0.33-0.221,0.49-0.333c0.029-0.021,0.062-0.043,0.084-0.071
		c0.014-0.021,0.023-0.06,0.014-0.083c-0.008-0.022-0.045-0.049-0.068-0.048c-0.043,0.002-0.09,0.013-0.125,0.034
		c-0.141,0.085-0.277,0.176-0.414,0.262c-0.029,0.017-0.066,0.019-0.1,0.027c-0.008-0.035-0.02-0.07-0.02-0.105
		c0.002-0.052,0.004-0.108,0.02-0.159c0.014-0.043,0.039-0.095,0.076-0.119c0.154-0.108,0.316-0.206,0.471-0.312
		c0.102-0.067,0.117-0.139,0.062-0.245c-0.023-0.05-0.049-0.068-0.104-0.031c-0.143,0.091-0.289,0.176-0.434,0.261
		C18.035,19.982,18.004,19.991,17.973,20.002z M19.99,14.207c0,0-0.012,0-0.016,0c-0.016-0.596-0.027-1.191-0.043-1.787
		c-0.01-0.421-0.021-0.842-0.031-1.263c-0.002-0.139,0.027-0.16,0.166-0.149c0.17,0.013,0.344,0.021,0.516,0.025
		c0.045,0.001,0.096-0.01,0.139-0.027c0.07-0.027,0.096-0.108,0.082-0.212c-0.008-0.075-0.059-0.093-0.123-0.101
		c-0.146-0.016-0.291-0.043-0.438-0.055c-0.188-0.016-0.377-0.028-0.566-0.028c-0.107,0-0.127,0.027-0.129,0.135
		c-0.014,0.392-0.041,0.785-0.031,1.177c0.033,1.397,0.062,2.795,0.137,4.192c0.025,0.491-0.018,0.987-0.031,1.481
		c-0.004,0.187,0.049,0.244,0.236,0.253c0.02,0.001,0.037,0.001,0.059,0.001c0.373-0.001,0.746-0.002,1.117-0.006
		c0.203-0.002,0.357-0.139,0.377-0.339c0.037-0.352,0.068-0.702,0.107-1.053c0.047-0.423,0.1-0.847,0.15-1.27
		c0.041-0.348,0.084-0.695,0.117-1.043c0.041-0.407,0.076-0.815,0.109-1.224c0.043-0.52,0.084-1.041,0.125-1.562
		c0.008-0.078,0.016-0.158,0.008-0.236c-0.004-0.037-0.033-0.091-0.064-0.104c-0.232-0.088-0.361-0.002-0.379,0.243
		c0,0.012,0,0.022,0,0.034c-0.016,0.239-0.027,0.479-0.045,0.718c-0.039,0.646-0.076,1.292-0.127,1.937
		c-0.037,0.458-0.096,0.915-0.145,1.372c-0.045,0.39-0.086,0.78-0.127,1.17c-0.027,0.256-0.047,0.513-0.072,0.769
		c-0.004,0.051-0.012,0.105-0.08,0.122c-0.285,0.064-0.576,0.068-0.869,0.064c-0.068-0.002-0.111-0.037-0.115-0.107
		c-0.008-0.097-0.014-0.192-0.014-0.288C19.988,16.1,19.99,15.153,19.99,14.207z M19.232,20.592c-0.02,0.27,0.09,0.505,0.344,0.67
		c0.172,0.112,0.355,0.194,0.557,0.235c0.324,0.064,0.635,0.05,0.912-0.159c0.281-0.213,0.451-0.485,0.396-0.85
		c-0.039-0.272-0.188-0.499-0.365-0.704c-0.168-0.191-0.377-0.315-0.627-0.328c-0.197-0.01-0.395,0.017-0.588,0.044
		c-0.188,0.025-0.316,0.146-0.4,0.31C19.338,20.046,19.246,20.293,19.232,20.592z M20.82,12.5c0.002-0.004,0.002-0.008,0.002-0.012
		c0.045,0,0.09,0,0.135,0s0.092,0.002,0.137,0.002c0.119-0.001,0.188-0.041,0.221-0.156c0.076-0.269,0.076-0.545,0.066-0.821
		c-0.004-0.089-0.047-0.146-0.133-0.176c-0.285-0.094-0.576-0.157-0.875-0.166c-0.139-0.006-0.24,0.062-0.281,0.187
		c-0.041,0.127-0.068,0.262-0.076,0.394c-0.014,0.194-0.01,0.391,0.074,0.573c0.021,0.044,0.074,0.095,0.119,0.101
		C20.412,12.459,20.617,12.478,20.82,12.5z"/>
	<path fill-rule="evenodd" clip-rule="evenodd" fill="#FFFFFF" d="M12.021,20.164c0,0.079-0.001,0.156,0.001,0.234
		c0.003,0.138,0.006,0.275,0.012,0.414c0.006,0.09-0.016,0.156-0.104,0.2c-0.167,0.082-0.33,0.173-0.494,0.259
		c-0.027,0.015-0.061,0.024-0.079,0.047c-0.032,0.038-0.055,0.086-0.082,0.128c0.046,0.022,0.089,0.059,0.134,0.062
		c0.155,0.017,0.292-0.051,0.427-0.115c0.026-0.014,0.055-0.027,0.102-0.05c0.005,0.092,0.004,0.169,0.016,0.245
		c0.027,0.172-0.021,0.284-0.192,0.365c-0.133,0.063-0.242,0.181-0.355,0.281c-0.087,0.081-0.191,0.104-0.303,0.105
		c-0.488,0.007-0.978,0.01-1.465,0.019c-0.333,0.005-0.666,0.022-1,0.026c-0.16,0.002-0.321-0.01-0.479-0.028
		c-0.116-0.014-0.167-0.076-0.175-0.192c-0.033-0.499-0.064-0.998-0.1-1.497c-0.027-0.402-0.056-0.805-0.088-1.207
		c-0.037-0.471-0.073-0.94-0.115-1.41c-0.036-0.404-0.079-0.809-0.121-1.214c-0.048-0.44-0.097-0.88-0.148-1.32
		c-0.04-0.333-0.082-0.667-0.125-1.001c-0.048-0.383-0.097-0.766-0.148-1.149c-0.039-0.283-0.08-0.565-0.122-0.847
		C6.97,12.2,6.923,11.878,6.87,11.56c-0.046-0.284-0.104-0.567-0.152-0.85c-0.031-0.18-0.061-0.361-0.082-0.543
		C6.62,10.03,6.682,9.931,6.813,9.884c0.378-0.137,0.753-0.283,1.136-0.406C8.268,9.375,8.593,9.292,8.92,9.215
		c0.666-0.156,1.342-0.219,2.025-0.185c0.233,0.013,0.466,0.044,0.698,0.073c0.119,0.016,0.132,0.039,0.139,0.161
		c0.043,0.789,0.093,1.58,0.129,2.369c0.018,0.389,0.008,0.779,0.014,1.169c0.001,0.064-0.025,0.102-0.079,0.135
		c-0.16,0.1-0.319,0.203-0.475,0.307c-0.052,0.037-0.104,0.079-0.096,0.158c0.01,0.1,0.067,0.134,0.155,0.088
		c0.133-0.068,0.265-0.138,0.399-0.202c0.093-0.044,0.122-0.028,0.134,0.071c0.017,0.111,0.018,0.224,0.029,0.337
		c0.006,0.071-0.029,0.108-0.088,0.146c-0.223,0.141-0.442,0.29-0.66,0.438c-0.044,0.03-0.082,0.072-0.04,0.136
		c0.042,0.062,0.09,0.104,0.167,0.083c0.036-0.011,0.068-0.038,0.103-0.06c0.149-0.1,0.299-0.201,0.448-0.3
		c0.025-0.017,0.057-0.023,0.106-0.044c0.02,0.212,0.044,0.41,0.053,0.608c0.003,0.038-0.047,0.087-0.083,0.117
		c-0.145,0.121-0.3,0.229-0.444,0.353c-0.09,0.077-0.171,0.165-0.251,0.251c-0.039,0.042-0.083,0.091-0.019,0.151
		c0.074,0.072,0.141,0.083,0.209,0.026c0.097-0.081,0.191-0.166,0.291-0.244c0.089-0.069,0.184-0.127,0.29-0.201
		c0.035,0.183,0.07,0.344,0.041,0.51c-0.007,0.036-0.054,0.069-0.09,0.095c-0.269,0.186-0.54,0.37-0.809,0.555
		c-0.039,0.026-0.079,0.057-0.107,0.094c-0.019,0.024-0.035,0.074-0.021,0.096c0.016,0.027,0.063,0.052,0.096,0.051
		c0.044-0.004,0.09-0.028,0.131-0.05c0.225-0.111,0.447-0.226,0.671-0.337c0.028-0.015,0.063-0.016,0.095-0.023
		c0,0.16,0.013,0.312-0.003,0.461c-0.045,0.401,0.02,0.286-0.306,0.503c-0.168,0.113-0.338,0.225-0.502,0.345
		c-0.064,0.048-0.121,0.11-0.171,0.175c-0.024,0.031-0.029,0.083-0.029,0.127c-0.001,0.05,0.036,0.067,0.082,0.05
		c0.04-0.016,0.073-0.042,0.11-0.062c0.219-0.119,0.437-0.241,0.659-0.355c0.095-0.051,0.12-0.03,0.119,0.078
		c-0.003,0.143-0.012,0.288-0.014,0.431c-0.001,0.062-0.028,0.096-0.082,0.124c-0.278,0.147-0.556,0.299-0.834,0.447
		c-0.021,0.013-0.044,0.024-0.066,0.038c-0.052,0.037-0.087,0.081-0.062,0.149c0.026,0.07,0.081,0.101,0.147,0.088
		c0.067-0.013,0.136-0.038,0.196-0.07c0.184-0.097,0.364-0.203,0.55-0.298c0.106-0.055,0.133-0.036,0.149,0.083
		c0.015,0.105,0.031,0.212,0.041,0.317c0.007,0.064-0.012,0.106-0.083,0.134c-0.225,0.091-0.444,0.193-0.665,0.292
		c-0.041,0.018-0.103,0.026-0.075,0.098c0.027,0.067,0.075,0.112,0.151,0.092c0.099-0.028,0.196-0.067,0.295-0.103
		c0.083-0.025,0.166-0.054,0.248-0.08c0.05-0.015,0.087-0.01,0.095,0.058c0.013,0.137,0.038,0.272,0.049,0.411
		c0.008,0.101-0.037,0.167-0.136,0.205c-0.223,0.087-0.44,0.182-0.591,0.378c-0.035,0.044-0.068,0.093-0.081,0.146
		c-0.009,0.035,0.005,0.096,0.032,0.117c0.031,0.023,0.093,0.033,0.129,0.019c0.058-0.022,0.106-0.071,0.159-0.109
		c0.133-0.097,0.265-0.194,0.398-0.291C12.002,20.15,12.012,20.157,12.021,20.164z M7.694,10.896
		c0.019,0.486,0.129,0.956,0.248,1.423c0.07,0.272,0.131,0.543,0.146,0.823c0.022,0.41,0.104,0.809,0.191,1.21
		c0.048,0.225,0.086,0.453,0.119,0.682c0.027,0.185,0.035,0.37,0.056,0.556c0.031,0.26,0.073,0.519,0.096,0.781
		c0.024,0.255,0.031,0.513,0.044,0.769c0.006,0.088,0.054,0.151,0.134,0.165c0.117,0.021,0.24,0.042,0.356,0.024
		c0.167-0.024,0.328-0.078,0.491-0.128c0.113-0.035,0.202-0.108,0.229-0.227c0.011-0.043-0.002-0.104-0.03-0.14
		c-0.019-0.022-0.081-0.022-0.121-0.017c-0.186,0.028-0.371,0.066-0.557,0.094c-0.104,0.014-0.145-0.012-0.16-0.117
		c-0.028-0.215-0.055-0.431-0.063-0.646c-0.016-0.451-0.098-0.891-0.192-1.33c-0.06-0.278-0.112-0.559-0.149-0.841
		c-0.047-0.346-0.06-0.697-0.114-1.042c-0.068-0.438-0.167-0.87-0.244-1.306c-0.036-0.193-0.062-0.39-0.078-0.586
		c-0.013-0.164,0.034-0.209,0.197-0.215c0.511-0.016,1.022-0.031,1.526-0.126c0.062-0.012,0.099,0.012,0.105,0.076
		c0.024,0.247,0.058,0.493,0.072,0.741c0.036,0.693,0.064,1.388,0.095,2.081c0.028,0.635,0.055,1.27,0.083,1.905
		c0.015,0.33,0.071,0.65,0.188,0.958c0.012,0.028,0.044,0.066,0.07,0.068c0.139,0.015,0.21-0.059,0.199-0.197
		c-0.001-0.024-0.004-0.05-0.01-0.075c-0.072-0.354-0.113-0.713-0.117-1.075c-0.021-1.5-0.074-2.999-0.164-4.495
		c-0.015-0.249-0.078-0.317-0.327-0.331c0,0-0.005,0-0.009-0.001c-0.296-0.017-0.585,0.032-0.873,0.09
		c-0.152,0.031-0.303,0.066-0.46,0.042c-0.081-0.012-0.164-0.022-0.243-0.012c-0.187,0.022-0.374,0.054-0.559,0.087
		c-0.121,0.022-0.142,0.049-0.161,0.173C7.701,10.789,7.698,10.844,7.694,10.896z M9.586,20.946
		c0.108-0.013,0.219-0.021,0.326-0.042c0.458-0.093,0.788-0.332,0.901-0.812c0.086-0.368,0.019-0.699-0.234-0.985
		c-0.229-0.258-0.521-0.422-0.839-0.536c-0.202-0.073-0.413-0.103-0.62-0.021c-0.297,0.117-0.52,0.325-0.691,0.589
		c-0.168,0.263-0.241,0.549-0.133,0.854C8.487,20.531,8.924,20.954,9.586,20.946z M8.254,11.388
		c0.008,0.041,0.011,0.085,0.025,0.123c0.082,0.2,0.163,0.401,0.253,0.597c0.054,0.118,0.096,0.131,0.225,0.095
		c0.123-0.034,0.241-0.079,0.364-0.108c0.143-0.033,0.286-0.057,0.432-0.078c0.202-0.026,0.249-0.082,0.216-0.282
		c-0.002-0.012-0.004-0.022-0.006-0.033c-0.043-0.189-0.088-0.377-0.129-0.567c-0.041-0.189-0.097-0.224-0.281-0.159
		c-0.008,0.002-0.015,0.007-0.023,0.01c-0.28,0.11-0.57,0.173-0.871,0.186C8.317,11.178,8.258,11.243,8.254,11.388z"/>
	<path fill-rule="evenodd" clip-rule="evenodd" fill="#AEACC6" d="M16.281,11.711c-0.012,0.371-0.012,0.745-0.037,1.117
		c-0.053,0.785-0.125,1.57-0.184,2.355c-0.029,0.427-0.046,0.856-0.074,1.284c-0.019,0.261-0.041,0.519-0.068,0.776
		c-0.012,0.114-0.069,0.209-0.162,0.277c-0.031,0.022-0.079,0.028-0.119,0.028c-0.144,0-0.287-0.003-0.431-0.009
		c-0.23-0.009-0.456,0.021-0.682,0.056c-0.141,0.021-0.287,0.017-0.431,0.016c-0.082,0-0.139-0.043-0.149-0.131
		c-0.021-0.203-0.045-0.404-0.055-0.606c-0.039-0.779-0.068-1.558-0.112-2.335c-0.031-0.579-0.09-1.155-0.109-1.732
		c-0.017-0.537,0.001-1.073,0.005-1.609c0.002-0.175,0.003-0.35,0.01-0.525c0.004-0.081,0.014-0.164,0.032-0.242
		c0.018-0.086,0.083-0.136,0.17-0.14c0.544-0.024,1.087-0.061,1.633-0.061c0.214,0,0.428,0.081,0.641,0.135
		c0.112,0.029,0.155,0.122,0.151,0.236c-0.01,0.314-0.018,0.626-0.029,0.94c-0.002,0.056-0.006,0.112-0.01,0.168L16.281,11.711z
		 M14.144,13.924c0.021,0.508,0.042,1.015,0.065,1.522c0.024,0.547,0.052,1.096,0.073,1.642c0.004,0.085,0.042,0.117,0.121,0.114
		c0.024-0.001,0.05,0,0.076-0.001c0.322-0.009,0.643-0.02,0.965-0.027c0.108-0.003,0.13-0.014,0.142-0.123
		c0.023-0.229,0.043-0.46,0.059-0.691c0.051-0.795,0.1-1.588,0.144-2.383c0.042-0.734,0.081-1.466,0.113-2.199
		c0.014-0.335,0.013-0.672,0.016-1.008c0.001-0.115-0.034-0.159-0.144-0.187c-0.04-0.008-0.083-0.018-0.125-0.017
		c-0.499,0.017-0.998,0.035-1.497,0.057c-0.108,0.005-0.124,0.024-0.125,0.135c-0.002,0.118,0.006,0.236,0.01,0.355
		C14.073,12.05,14.109,12.986,14.144,13.924z"/>
	<path fill-rule="evenodd" clip-rule="evenodd" fill="#AEACC6" d="M14.971,20.9c-0.24,0.008-0.477,0-0.712-0.065
		c-0.5-0.14-0.793-0.676-0.617-1.167c0.136-0.383,0.355-0.71,0.741-0.88c0.35-0.153,0.717-0.196,1.086-0.056
		c0.262,0.1,0.43,0.311,0.542,0.556c0.086,0.19,0.149,0.395,0.202,0.598c0.039,0.145-0.025,0.283-0.09,0.414
		c-0.102,0.207-0.223,0.403-0.441,0.507c-0.105,0.051-0.229,0.075-0.347,0.09C15.215,20.911,15.092,20.9,14.971,20.9z
		 M14.897,19.767c-0.007-0.001-0.012-0.001-0.017-0.001c0-0.079,0.005-0.158,0-0.238c-0.007-0.091-0.022-0.184-0.038-0.273
		c-0.004-0.017-0.028-0.043-0.042-0.042c-0.016,0-0.035,0.024-0.046,0.041c-0.01,0.019-0.017,0.041-0.02,0.063
		c-0.021,0.142-0.055,0.283-0.058,0.427c-0.004,0.202,0.012,0.404,0.027,0.605c0.002,0.033,0.045,0.064,0.069,0.097
		c0.029-0.031,0.062-0.059,0.089-0.091c0.009-0.011,0.009-0.033,0.009-0.049C14.88,20.125,14.888,19.945,14.897,19.767z
		 M15.215,19.203c-0.011-0.001-0.021-0.002-0.033-0.003c-0.013,0.03-0.033,0.058-0.038,0.088c-0.045,0.277-0.093,0.555-0.131,0.833
		c-0.01,0.073,0.002,0.152,0.014,0.227c0.008,0.055,0.032,0.118,0.104,0.109c0.075-0.011,0.111-0.061,0.111-0.138
		c-0.002-0.323,0.001-0.648-0.002-0.972C15.239,19.3,15.223,19.251,15.215,19.203z M14.466,19.682c0,0-0.002,0-0.003,0
		c0-0.076,0.001-0.152-0.003-0.228c0-0.023-0.017-0.045-0.025-0.066c-0.02,0.009-0.043,0.013-0.06,0.026
		c-0.235,0.198-0.251,0.632-0.03,0.846c0.016,0.016,0.042,0.025,0.064,0.024c0.009,0,0.022-0.035,0.024-0.056
		C14.446,20.046,14.455,19.864,14.466,19.682z M15.517,20.229c0.122-0.094,0.141-0.52,0.017-0.635
		C15.496,19.812,15.473,20.012,15.517,20.229z"/>
	<path fill-rule="evenodd" clip-rule="evenodd" fill="#AEACC6" d="M19.99,14.207c0,0.946-0.002,1.893,0,2.839
		c0,0.096,0.006,0.191,0.014,0.288c0.004,0.07,0.047,0.105,0.115,0.107c0.293,0.004,0.584,0,0.869-0.064
		c0.068-0.017,0.076-0.071,0.08-0.122c0.025-0.256,0.045-0.513,0.072-0.769c0.041-0.39,0.082-0.78,0.127-1.17
		c0.049-0.457,0.107-0.914,0.145-1.372c0.051-0.645,0.088-1.291,0.127-1.937c0.018-0.239,0.029-0.479,0.045-0.718
		c0-0.012,0-0.022,0-0.034c0.018-0.245,0.146-0.331,0.379-0.243c0.031,0.013,0.061,0.067,0.064,0.104
		c0.008,0.078,0,0.158-0.008,0.236c-0.041,0.521-0.082,1.042-0.125,1.562c-0.033,0.408-0.068,0.816-0.109,1.224
		c-0.033,0.349-0.076,0.695-0.117,1.043c-0.051,0.423-0.104,0.847-0.15,1.27c-0.039,0.351-0.07,0.701-0.107,1.053
		c-0.02,0.2-0.174,0.337-0.377,0.339c-0.371,0.004-0.744,0.005-1.117,0.006c-0.021,0-0.039,0-0.059-0.001
		c-0.188-0.009-0.24-0.066-0.236-0.253c0.014-0.494,0.057-0.99,0.031-1.481c-0.074-1.396-0.104-2.794-0.137-4.192
		c-0.01-0.392,0.018-0.785,0.031-1.177c0.002-0.107,0.021-0.135,0.129-0.135c0.189,0,0.379,0.013,0.566,0.028
		c0.146,0.012,0.291,0.039,0.438,0.055c0.064,0.008,0.115,0.026,0.123,0.101c0.014,0.104-0.012,0.186-0.082,0.212
		c-0.043,0.017-0.094,0.028-0.139,0.027c-0.172-0.005-0.346-0.013-0.516-0.025c-0.139-0.01-0.168,0.01-0.166,0.149
		c0.01,0.42,0.021,0.841,0.031,1.263c0.016,0.596,0.027,1.191,0.043,1.787C19.979,14.207,19.984,14.207,19.99,14.207z"/>
	<path fill-rule="evenodd" clip-rule="evenodd" fill="#AEACC6" d="M19.232,20.592c0.014-0.299,0.105-0.546,0.229-0.782
		c0.084-0.163,0.213-0.284,0.4-0.31c0.193-0.027,0.391-0.054,0.588-0.044c0.25,0.013,0.459,0.137,0.627,0.328
		c0.178,0.205,0.326,0.432,0.365,0.704c0.055,0.364-0.115,0.637-0.396,0.85c-0.277,0.209-0.588,0.224-0.912,0.159
		c-0.201-0.041-0.385-0.123-0.557-0.235C19.322,21.097,19.213,20.861,19.232,20.592z M20.578,20.108
		c-0.016,0.033-0.031,0.049-0.029,0.067c0.004,0.24,0.01,0.482,0.021,0.724c0,0.022,0.039,0.061,0.064,0.063
		c0.029,0.002,0.074-0.017,0.092-0.041c0.088-0.112,0.16-0.228,0.109-0.386C20.785,20.377,20.723,20.229,20.578,20.108z
		 M20.332,20.525c0,0,0.008,0,0.012,0c0-0.093,0-0.186,0-0.278c0-0.046,0.002-0.092-0.01-0.134c-0.008-0.024-0.041-0.06-0.064-0.059
		c-0.029,0.001-0.068,0.026-0.08,0.052c-0.02,0.038-0.025,0.086-0.025,0.131c-0.006,0.189-0.006,0.377-0.002,0.566
		c0,0.035,0.006,0.077,0.027,0.103c0.021,0.029,0.062,0.042,0.098,0.062c0.014-0.028,0.041-0.058,0.043-0.089
		C20.336,20.762,20.332,20.644,20.332,20.525z M19.883,20.269c-0.09,0.052-0.125,0.133-0.113,0.227
		c0.02,0.138,0.047,0.193,0.113,0.211C19.883,20.563,19.883,20.422,19.883,20.269z"/>
	<path fill-rule="evenodd" clip-rule="evenodd" fill="#AEACC6" d="M20.82,12.5c-0.203-0.023-0.408-0.042-0.611-0.075
		c-0.045-0.006-0.098-0.056-0.119-0.101c-0.084-0.182-0.088-0.378-0.074-0.573c0.008-0.132,0.035-0.267,0.076-0.394
		c0.041-0.125,0.143-0.193,0.281-0.187c0.299,0.009,0.59,0.072,0.875,0.166c0.086,0.029,0.129,0.087,0.133,0.176
		c0.01,0.276,0.01,0.552-0.066,0.821c-0.033,0.115-0.102,0.155-0.221,0.156c-0.045,0-0.092-0.002-0.137-0.002s-0.09,0-0.135,0
		C20.822,12.493,20.822,12.497,20.82,12.5z"/>
	<path fill-rule="evenodd" clip-rule="evenodd" fill="#AEACC6" d="M7.694,10.896c0.004-0.053,0.007-0.107,0.014-0.16
		c0.019-0.124,0.04-0.15,0.161-0.173c0.186-0.033,0.372-0.064,0.559-0.087c0.08-0.01,0.163,0,0.243,0.012
		c0.157,0.025,0.308-0.01,0.46-0.042c0.288-0.058,0.577-0.106,0.873-0.09c0.004,0.001,0.007,0.001,0.007,0.001
		c0.251,0.014,0.314,0.082,0.329,0.331c0.09,1.497,0.143,2.995,0.164,4.495c0.004,0.362,0.044,0.722,0.117,1.075
		c0.006,0.025,0.008,0.051,0.01,0.075c0.011,0.139-0.061,0.212-0.199,0.197c-0.025-0.002-0.058-0.04-0.07-0.068
		c-0.117-0.308-0.173-0.628-0.188-0.958c-0.028-0.635-0.056-1.27-0.083-1.905c-0.031-0.693-0.059-1.388-0.095-2.081
		c-0.014-0.248-0.048-0.494-0.072-0.741c-0.006-0.064-0.043-0.088-0.105-0.076c-0.504,0.095-1.015,0.11-1.526,0.126
		c-0.163,0.006-0.209,0.051-0.197,0.215c0.016,0.197,0.042,0.393,0.078,0.586c0.078,0.436,0.176,0.869,0.244,1.306
		c0.054,0.345,0.067,0.696,0.114,1.042c0.038,0.282,0.09,0.562,0.149,0.841c0.094,0.439,0.176,0.878,0.192,1.33
		c0.008,0.216,0.035,0.432,0.063,0.646c0.015,0.105,0.055,0.131,0.16,0.117c0.186-0.027,0.372-0.065,0.557-0.094
		c0.04-0.006,0.102-0.006,0.121,0.017c0.027,0.036,0.041,0.097,0.03,0.14c-0.028,0.118-0.117,0.191-0.229,0.227
		c-0.163,0.05-0.324,0.104-0.491,0.128c-0.116,0.018-0.24-0.003-0.356-0.024c-0.08-0.014-0.128-0.077-0.134-0.165
		c-0.013-0.256-0.02-0.514-0.044-0.769c-0.023-0.263-0.065-0.521-0.096-0.781c-0.021-0.186-0.029-0.371-0.056-0.556
		c-0.032-0.229-0.07-0.458-0.119-0.682c-0.087-0.401-0.169-0.8-0.191-1.21c-0.014-0.28-0.076-0.551-0.146-0.823
		C7.823,11.852,7.712,11.382,7.694,10.896z"/>
	<path fill-rule="evenodd" clip-rule="evenodd" fill="#AEACC6" d="M9.586,20.946c-0.662,0.008-1.099-0.415-1.29-0.954
		c-0.107-0.305-0.035-0.591,0.133-0.854C8.6,18.875,8.823,18.667,9.12,18.55c0.207-0.082,0.418-0.053,0.62,0.021
		c0.319,0.114,0.61,0.278,0.839,0.536c0.252,0.286,0.32,0.617,0.234,0.985c-0.113,0.48-0.443,0.72-0.901,0.812
		C9.805,20.925,9.694,20.934,9.586,20.946z M9.471,19.739c0.011,0.21,0.016,0.385,0.032,0.56c0.002,0.041,0.035,0.107,0.063,0.111
		c0.068,0.012,0.147,0.01,0.211-0.015c0.068-0.029,0.039-0.108,0.032-0.169c-0.019-0.147-0.042-0.295-0.061-0.442
		c-0.02-0.16-0.033-0.319-0.052-0.479c-0.008-0.061-0.035-0.111-0.105-0.112c-0.067-0.003-0.086,0.05-0.09,0.102
		C9.487,19.455,9.479,19.615,9.471,19.739z M9.966,19.871c0.002,0.001,0.006,0.002,0.009,0.002c0.005,0.118,0.008,0.235,0.017,0.354
		c0.01,0.103,0.065,0.126,0.148,0.066c0.077-0.056,0.134-0.124,0.161-0.221c0.07-0.26-0.05-0.472-0.179-0.678
		c-0.039-0.06-0.091-0.047-0.104,0.026C9.996,19.569,9.984,19.721,9.966,19.871z M9.206,20.3c0.004-0.049,0.011-0.082,0.01-0.114
		c-0.012-0.256-0.027-0.511-0.042-0.767c0-0.012,0-0.024-0.005-0.034c-0.019-0.031-0.042-0.062-0.062-0.094
		c-0.032,0.021-0.077,0.037-0.092,0.065c-0.04,0.083-0.077,0.169-0.098,0.259c-0.067,0.267,0.046,0.476,0.23,0.657
		C9.158,20.283,9.175,20.285,9.206,20.3z"/>
	<path fill-rule="evenodd" clip-rule="evenodd" fill="#AEACC6" d="M8.254,11.388c0.004-0.145,0.063-0.21,0.205-0.216
		c0.301-0.013,0.591-0.075,0.871-0.186c0.008-0.003,0.015-0.008,0.023-0.01c0.184-0.064,0.241-0.03,0.281,0.159
		c0.041,0.189,0.086,0.378,0.129,0.567c0.002,0.011,0.004,0.021,0.006,0.033c0.032,0.201-0.015,0.256-0.216,0.282
		c-0.146,0.021-0.289,0.044-0.432,0.078c-0.124,0.029-0.242,0.074-0.364,0.108c-0.129,0.036-0.171,0.023-0.225-0.095
		c-0.09-0.196-0.171-0.397-0.253-0.597C8.265,11.473,8.262,11.429,8.254,11.388z"/>
	<path fill-rule="evenodd" clip-rule="evenodd" fill="#FFFFFF" d="M14.144,13.924c-0.035-0.938-0.071-1.874-0.106-2.811
		c-0.004-0.119-0.012-0.237-0.01-0.355c0.001-0.111,0.017-0.13,0.125-0.135c0.499-0.022,0.998-0.041,1.497-0.057
		c0.042-0.001,0.085,0.008,0.125,0.017c0.11,0.028,0.145,0.072,0.144,0.187c-0.003,0.336-0.002,0.672-0.016,1.008
		c-0.032,0.733-0.071,1.465-0.113,2.199c-0.044,0.795-0.093,1.588-0.144,2.383c-0.015,0.231-0.035,0.462-0.059,0.691
		c-0.012,0.109-0.034,0.12-0.142,0.123c-0.322,0.008-0.643,0.019-0.965,0.027c-0.025,0.001-0.052,0-0.076,0.001
		c-0.079,0.003-0.117-0.029-0.121-0.114c-0.021-0.546-0.049-1.094-0.073-1.642C14.186,14.938,14.166,14.432,14.144,13.924z
		 M15.033,10.773c-0.249,0.022-0.444,0.038-0.638,0.055c-0.068,0.007-0.104,0.046-0.103,0.118c0,0.198,0.001,0.395,0,0.592
		c0,0.077,0.034,0.13,0.106,0.143c0.105,0.019,0.216,0.04,0.324,0.034c0.312-0.017,0.624-0.048,0.936-0.072
		c0.067-0.006,0.093-0.045,0.093-0.107c0-0.178,0.002-0.355,0.003-0.533c0-0.151-0.015-0.179-0.168-0.195
		C15.384,10.788,15.181,10.783,15.033,10.773z"/>
	<path fill-rule="evenodd" clip-rule="evenodd" fill="#FFFFFF" d="M14.897,19.767c-0.009,0.179-0.017,0.358-0.027,0.539
		c0,0.016,0,0.038-0.009,0.049c-0.027,0.032-0.06,0.06-0.089,0.091c-0.024-0.032-0.067-0.063-0.069-0.097
		c-0.015-0.201-0.031-0.403-0.027-0.605c0.003-0.144,0.037-0.285,0.058-0.427c0.003-0.022,0.01-0.045,0.02-0.063
		c0.011-0.017,0.03-0.041,0.046-0.041c0.014-0.001,0.039,0.025,0.042,0.042c0.016,0.09,0.031,0.183,0.038,0.273
		c0.005,0.08,0,0.159,0,0.238C14.885,19.766,14.89,19.766,14.897,19.767z"/>
	<path fill-rule="evenodd" clip-rule="evenodd" fill="#FFFFFF" d="M15.215,19.203c0.008,0.048,0.024,0.097,0.025,0.145
		c0.003,0.323,0,0.648,0.002,0.972c0,0.077-0.036,0.127-0.111,0.138c-0.071,0.009-0.096-0.055-0.104-0.109
		c-0.012-0.074-0.024-0.153-0.014-0.227c0.038-0.278,0.085-0.556,0.131-0.833c0.005-0.03,0.025-0.058,0.038-0.088
		C15.193,19.201,15.204,19.202,15.215,19.203z"/>
	<path fill-rule="evenodd" clip-rule="evenodd" fill="#FFFFFF" d="M14.466,19.682c-0.011,0.183-0.02,0.364-0.032,0.547
		c-0.002,0.021-0.015,0.056-0.024,0.056c-0.022,0.001-0.048-0.009-0.064-0.024c-0.221-0.214-0.205-0.647,0.03-0.846
		c0.016-0.014,0.04-0.018,0.06-0.026c0.009,0.021,0.025,0.043,0.025,0.066c0.004,0.075,0.003,0.151,0.003,0.228
		C14.464,19.682,14.464,19.682,14.466,19.682z"/>
	<path fill-rule="evenodd" clip-rule="evenodd" fill="#FFFFFF" d="M15.517,20.229c-0.044-0.217-0.021-0.416,0.017-0.635
		C15.658,19.709,15.639,20.135,15.517,20.229z"/>
	<path fill-rule="evenodd" clip-rule="evenodd" fill="#FFFFFF" d="M20.578,20.108c0.145,0.12,0.207,0.269,0.258,0.428
		c0.051,0.158-0.021,0.273-0.109,0.386c-0.018,0.024-0.062,0.043-0.092,0.041c-0.025-0.003-0.064-0.041-0.064-0.063
		c-0.012-0.241-0.018-0.483-0.021-0.724C20.547,20.157,20.562,20.142,20.578,20.108z"/>
	<path fill-rule="evenodd" clip-rule="evenodd" fill="#FFFFFF" d="M20.332,20.525c0,0.118,0.004,0.236-0.002,0.354
		c-0.002,0.031-0.029,0.061-0.043,0.089c-0.035-0.021-0.076-0.033-0.098-0.062c-0.021-0.025-0.027-0.067-0.027-0.103
		c-0.004-0.189-0.004-0.377,0.002-0.566c0-0.045,0.006-0.093,0.025-0.131c0.012-0.025,0.051-0.051,0.08-0.052
		c0.023-0.001,0.057,0.034,0.064,0.059c0.012,0.042,0.01,0.088,0.01,0.134c0,0.093,0,0.186,0,0.278
		C20.34,20.525,20.336,20.525,20.332,20.525z"/>
	<path fill-rule="evenodd" clip-rule="evenodd" fill="#FFFFFF" d="M19.883,20.269c0,0.153,0,0.295,0,0.438
		c-0.066-0.018-0.094-0.073-0.113-0.211C19.758,20.401,19.793,20.32,19.883,20.269z"/>
	<path fill-rule="evenodd" clip-rule="evenodd" fill="#FFFFFF" d="M9.471,19.739c0.008-0.124,0.016-0.284,0.031-0.444
		c0.004-0.052,0.023-0.104,0.09-0.102c0.07,0.001,0.097,0.052,0.105,0.112c0.019,0.159,0.032,0.318,0.052,0.479
		c0.019,0.147,0.042,0.295,0.061,0.442c0.007,0.061,0.036,0.14-0.032,0.169c-0.064,0.024-0.144,0.026-0.211,0.015
		c-0.028-0.004-0.061-0.07-0.063-0.111C9.487,20.124,9.482,19.949,9.471,19.739z"/>
	<path fill-rule="evenodd" clip-rule="evenodd" fill="#FFFFFF" d="M9.966,19.871c0.018-0.15,0.03-0.302,0.054-0.45
		c0.012-0.073,0.064-0.086,0.104-0.026c0.129,0.206,0.249,0.418,0.179,0.678c-0.027,0.097-0.084,0.165-0.161,0.221
		c-0.083,0.06-0.139,0.036-0.148-0.066c-0.009-0.118-0.012-0.235-0.017-0.354C9.973,19.873,9.969,19.872,9.966,19.871z"/>
	<path fill-rule="evenodd" clip-rule="evenodd" fill="#FFFFFF" d="M9.206,20.3c-0.031-0.015-0.048-0.017-0.059-0.027
		c-0.185-0.182-0.297-0.391-0.23-0.657c0.021-0.09,0.058-0.176,0.098-0.259c0.015-0.028,0.06-0.044,0.092-0.065
		c0.02,0.031,0.043,0.062,0.062,0.094c0.005,0.01,0.005,0.022,0.005,0.034c0.015,0.256,0.03,0.511,0.042,0.767
		C9.217,20.218,9.21,20.251,9.206,20.3z"/>
	<path fill-rule="evenodd" clip-rule="evenodd" fill="#AEACC6" d="M15.033,10.773c0.148,0.01,0.351,0.015,0.552,0.035
		c0.153,0.016,0.168,0.043,0.168,0.195c-0.001,0.178-0.003,0.355-0.003,0.533c0,0.062-0.025,0.101-0.093,0.107
		c-0.312,0.024-0.624,0.055-0.936,0.072c-0.108,0.005-0.219-0.016-0.324-0.034c-0.072-0.013-0.106-0.066-0.106-0.143
		c0.001-0.197,0-0.394,0-0.592c-0.002-0.072,0.034-0.111,0.103-0.118C14.589,10.811,14.784,10.795,15.033,10.773z"/>
</g>
</svg>
