<?xml version="1.0" encoding="utf-8"?>
<!-- Generator: Adobe Illustrator 16.0.0, SVG Export Plug-In . SVG Version: 6.00 Build 0)  -->
<!DOCTYPE svg PUBLIC "-//W3C//DTD SVG 1.1//EN" "http://www.w3.org/Graphics/SVG/1.1/DTD/svg11.dtd">
<svg version="1.1" id="Layer_1" xmlns="http://www.w3.org/2000/svg" xmlns:xlink="http://www.w3.org/1999/xlink" x="0px" y="0px"
	 width="30px" height="30px" viewBox="0 0 30 30" enable-background="new 0 0 30 30" xml:space="preserve">
<ellipse fill="none" stroke="#132028" stroke-linecap="round" stroke-linejoin="round" stroke-miterlimit="10" cx="15.013" cy="15.451" rx="13.821" ry="13.451"/>
<path fill="#132028" stroke="#132028" stroke-linecap="round" stroke-linejoin="round" stroke-miterlimit="10" d="M19.385,17.803
	c0,0-2.93-0.7-3.079-1.298c0,0-0.134-0.219-0.134-0.882h-0.076c1.152-0.437,1.978-1.598,1.978-2.964
	c0-1.741-1.337-3.152-2.987-3.152c-1.651,0-2.989,1.411-2.989,3.152c0,1.367,0.826,2.527,1.979,2.964h-0.223
	c0,0.663-0.133,0.882-0.133,0.882c-0.149,0.598-3.078,1.298-3.078,1.298c-1.151,0.387-1.033,1.249-1.033,1.249v0.995h0.971h9.838
	v-0.995C20.417,19.052,20.536,18.189,19.385,17.803z"/>
</svg>
