<?xml version="1.0" encoding="utf-8"?>
<!-- Generator: Adobe Illustrator 16.0.0, SVG Export Plug-In . SVG Version: 6.00 Build 0)  -->
<!DOCTYPE svg PUBLIC "-//W3C//DTD SVG 1.1//EN" "http://www.w3.org/Graphics/SVG/1.1/DTD/svg11.dtd">
<svg version="1.1" id="Layer_1" xmlns="http://www.w3.org/2000/svg" xmlns:xlink="http://www.w3.org/1999/xlink" x="0px" y="0px"
	 width="40px" height="40px" viewBox="0 0 40 40" enable-background="new 0 0 40 40" xml:space="preserve">
<ellipse fill="none" stroke="#FFFFFF" stroke-linecap="round" stroke-linejoin="round" stroke-miterlimit="10" cx="19.813" cy="19.726" rx="18.548" ry="18.725"/>
<path fill="#FFFFFF" stroke="#FFFFFF" stroke-linecap="round" stroke-linejoin="round" stroke-miterlimit="10" d="M30.236,18.439
	v4.559c0,2.88-0.569,4.347-3.32,4.347h-14.73c-2.752,0-3.319-1.467-3.319-4.347v-4.559c0-2.878,0.567-4.345,3.319-4.345h2.343V13.24
	c0-1.353,0.268-2.042,1.561-2.042h6.924c1.293,0,1.558,0.689,1.558,2.042v0.854h2.344C29.667,14.094,30.236,15.561,30.236,18.439z
	 M19.404,16.394c-2.346,0-4.25,1.919-4.25,4.289c0,2.367,1.903,4.288,4.25,4.288s4.248-1.921,4.248-4.288
	C23.651,18.313,21.75,16.394,19.404,16.394z"/>
<path fill="none" stroke="#FFFFFF" stroke-linecap="round" stroke-linejoin="round" stroke-miterlimit="10" d="M19.506,17.938
	c1.221-0.104,2.292,0.812,2.397,2.043"/>
</svg>
