<?xml version="1.0" encoding="utf-8"?>
<!-- Generator: Adobe Illustrator 16.0.0, SVG Export Plug-In . SVG Version: 6.00 Build 0)  -->
<!DOCTYPE svg PUBLIC "-//W3C//DTD SVG 1.1//EN" "http://www.w3.org/Graphics/SVG/1.1/DTD/svg11.dtd">
<svg version="1.1" id="Capa_1" xmlns="http://www.w3.org/2000/svg" xmlns:xlink="http://www.w3.org/1999/xlink" x="0px" y="0px"
	 width="298.5px" height="237.5px" viewBox="0 0 298.5 237.5" enable-background="new 0 0 298.5 237.5" xml:space="preserve">
<path fill="#FFFFFF" stroke="#FFFFFF" stroke-width="9" stroke-miterlimit="10" d="M94.473,134.75
	c0,29.616,24.413,53.625,54.528,53.625c30.115,0,54.529-24.009,54.529-53.625S179.115,81.125,149,81.125
	C118.885,81.125,94.473,105.134,94.473,134.75z M266.446,44h-58.723c-4.194-16.5-8.39-33-25.167-33h-67.112
	c-16.778,0-20.972,16.5-25.167,33H31.555c-9.228,0-16.778,7.425-16.778,16.5V209c0,9.074,7.55,16.5,16.778,16.5h234.891
	c9.228,0,16.777-7.426,16.777-16.5V60.5C283.224,51.425,275.674,44,266.446,44z M149,207.969c-41.118,0-74.452-32.779-74.452-73.219
	c0-40.438,33.333-73.219,74.452-73.219c41.12,0,74.453,32.781,74.453,73.219C223.453,175.189,190.121,207.969,149,207.969z
	 M266.446,93.5h-33.556V77h33.556V93.5z"/>
</svg>
