<?xml version="1.0" encoding="utf-8"?>
<!-- Generator: Adobe Illustrator 16.0.0, SVG Export Plug-In . SVG Version: 6.00 Build 0)  -->
<!DOCTYPE svg PUBLIC "-//W3C//DTD SVG 1.1//EN" "http://www.w3.org/Graphics/SVG/1.1/DTD/svg11.dtd">
<svg version="1.1" id="Layer_1" xmlns="http://www.w3.org/2000/svg" xmlns:xlink="http://www.w3.org/1999/xlink" x="0px" y="0px"
	 width="30px" height="30px" viewBox="0 0 30 30" enable-background="new 0 0 30 30" xml:space="preserve">
<path fill="#FFFFFF" d="M29.488,12.367c-0.021-0.212-0.064-0.421-0.1-0.631c-0.046-0.24-0.143-0.336-0.382-0.371
	c-0.188-0.027-0.376-0.048-0.564-0.055c-0.289-0.011-0.289-0.006-0.376-0.277c-0.015-0.045-0.029-0.089-0.042-0.137
	c-0.141-0.526-0.458-0.895-0.993-1.021c-0.296-0.071-0.609-0.093-0.914-0.098c-0.819-0.015-1.639-0.01-2.461-0.008
	c-0.102,0-0.153-0.023-0.193-0.132c-0.177-0.503-0.37-1-0.553-1.502c-0.217-0.593-0.541-1.102-1.081-1.452
	c-0.295-0.19-0.587-0.393-0.945-0.433c-0.572-0.063-1.148-0.125-1.724-0.152c-1.801-0.084-3.587,0.04-5.351,0.433
	c-0.421,0.095-0.771,0.271-0.974,0.675c-0.294,0.578-0.598,1.147-0.899,1.719c-0.028,0.051-0.07,0.111-0.119,0.132
	c-0.217,0.092-0.432,0.208-0.659,0.25c-0.507,0.094-1.021,0.16-1.532,0.219C9.01,9.597,8.412,9.471,7.823,9.298
	c-0.095-0.027-0.145-0.083-0.158-0.19C7.639,8.93,7.601,8.754,7.553,8.582C7.457,8.23,7.122,7.931,6.792,7.9
	C5.89,7.815,4.985,7.792,4.083,7.892C3.681,7.937,3.344,8.119,3.079,8.423C3.043,8.464,3.007,8.518,3.001,8.57
	C2.957,8.893,2.917,9.216,2.884,9.541c-0.01,0.097-0.032,0.172-0.126,0.218c-0.321,0.155-0.579,0.392-0.75,0.695
	c-0.167,0.295-0.389,0.368-0.698,0.325c-0.216-0.03-0.288,0.021-0.352,0.224c-0.059,0.188-0.088,0.386-0.131,0.58
	c-0.123,0.533-0.248,1.067-0.369,1.601c-0.038,0.162,0.003,0.315,0.144,0.4c0.179,0.11,0.37,0.208,0.569,0.275
	c0.231,0.079,0.243,0.063,0.233,0.31c-0.031,0.891-0.079,1.78-0.1,2.671c-0.038,1.668-0.016,3.335,0.167,4.994
	c0.074,0.679,0.205,1.346,0.458,1.983c0.247,0.624,0.678,1.004,1.353,1.075c0.565,0.061,1.13,0.134,1.697,0.152
	c1.815,0.057,3.626,0.117,5.443,0.126c1.804,0.012,3.609-0.04,5.413-0.063v-0.03c0.583-0.024,1.166-0.051,1.749-0.067
	c1.812-0.058,3.627-0.128,5.439-0.166c1.223-0.026,2.444-0.002,3.668-0.014c0.216-0.001,0.457-0.025,0.644-0.121
	c0.369-0.186,0.716-0.421,1.059-0.651c0.074-0.052,0.123-0.167,0.141-0.262c0.031-0.162,0.039-0.33,0.041-0.494
	c0.02-1.696,0.052-3.394,0.048-5.088c-0.004-1.232-0.053-2.463-0.087-3.697c-0.002-0.119,0.008-0.179,0.158-0.163
	c0.241,0.024,0.443-0.067,0.606-0.252c0.169-0.194,0.257-0.427,0.257-0.674C29.556,13.075,29.522,12.72,29.488,12.367z
	 M1.494,11.931c-0.039,0.457-0.076,0.914-0.121,1.37c-0.004,0.056-0.041,0.108-0.062,0.163c-0.058-0.025-0.126-0.039-0.174-0.077
	c-0.176-0.145-0.176-0.227-0.092-0.437c0.064-0.16,0.101-0.335,0.13-0.505c0.047-0.289,0.078-0.582,0.119-0.873
	c0.008-0.057,0.031-0.119,0.06-0.168c0.018-0.031,0.067-0.042,0.101-0.062c0.021,0.035,0.054,0.071,0.055,0.106
	c0.007,0.16,0.004,0.321,0.004,0.482C1.508,11.931,1.501,11.931,1.494,11.931z M3.755,9.096c0.306-0.026,0.613-0.026,0.917-0.069
	c0.188-0.026,0.37-0.111,0.551-0.173c0.044-0.016,0.088-0.044,0.116-0.08c0.028-0.036,0.054-0.091,0.048-0.132
	C5.383,8.617,5.312,8.585,5.274,8.589C5.085,8.603,4.897,8.638,4.708,8.644C4.511,8.65,4.312,8.638,4.116,8.626
	C4.084,8.624,4.031,8.587,4.031,8.569c0.001-0.035,0.026-0.087,0.057-0.101c0.094-0.04,0.194-0.09,0.292-0.092
	c0.593-0.016,1.184-0.034,1.775-0.019c0.23,0.007,0.46,0.092,0.683,0.162c0.125,0.041,0.2,0.152,0.225,0.289
	c0.036,0.203-0.078,0.345-0.282,0.345c-0.341,0-0.683,0-1.022,0C5.757,9.142,5.756,9.129,5.756,9.118
	C5.274,9.145,4.793,9.17,4.311,9.206c-0.14,0.01-0.276,0.055-0.415,0.083c-0.046,0.01-0.103,0.039-0.136,0.022
	c-0.054-0.029-0.09-0.087-0.137-0.133C3.667,9.149,3.708,9.099,3.755,9.096z M26.478,23.737c-0.075,0.188-0.46,0.325-0.648,0.24
	c-0.072-0.032-0.076-0.079-0.036-0.147c0.188-0.35,0.371-0.7,0.555-1.053c0.265-0.501,0.53-1.004,0.787-1.507
	c0.086-0.166,0.015-0.26-0.174-0.252c-0.172,0.008-0.284,0.11-0.353,0.252c-0.211,0.453-0.418,0.908-0.623,1.365
	c-0.168,0.374-0.331,0.751-0.498,1.127c-0.069,0.153-0.306,0.235-0.456,0.161c-0.079-0.042-0.085-0.103-0.043-0.179
	c0.168-0.336,0.337-0.668,0.502-1.001c0.095-0.188,0.189-0.381,0.267-0.578c0.027-0.071,0.026-0.227,0.002-0.237
	c-0.096-0.031-0.216-0.045-0.307-0.015c-0.084,0.033-0.167,0.121-0.209,0.202c-0.196,0.402-0.39,0.806-0.564,1.219
	c-0.062,0.146-0.08,0.318-0.097,0.48c-0.015,0.13-0.074,0.211-0.197,0.219c-0.186,0.012-0.371,0.018-0.556,0.002
	c-0.154-0.013-0.175-0.082-0.076-0.202c0.216-0.261,0.433-0.522,0.649-0.786c0.008-0.008,0.013-0.016,0.017-0.023
	c0.06-0.095,0.154-0.209,0.073-0.31c-0.091-0.108-0.233-0.046-0.348-0.009c-0.059,0.018-0.119,0.062-0.164,0.106
	c-0.275,0.29-0.516,0.604-0.664,0.982c-0.098,0.251-0.396,0.361-0.636,0.239c-0.066-0.037-0.063-0.08-0.021-0.139
	c0.097-0.142,0.193-0.28,0.277-0.428c0.1-0.178,0.044-0.267-0.16-0.266c-0.186,0-0.338,0.053-0.42,0.246
	c-0.065,0.155-0.159,0.301-0.236,0.45c-0.057,0.106-0.135,0.154-0.26,0.159c-1.26,0.051-2.519,0.112-3.778,0.159
	c-1.32,0.053-2.642,0.092-3.963,0.139c-0.151,0.006-0.302,0.025-0.453,0.02c-0.148-0.006-0.165-0.053-0.098-0.188
	c0.07-0.139,0.135-0.283,0.196-0.425c0.012-0.028,0.014-0.097,0-0.102c-0.094-0.038-0.191-0.086-0.289-0.088
	c-0.056,0-0.137,0.061-0.17,0.118c-0.088,0.153-0.149,0.316-0.229,0.472c-0.075,0.146-0.201,0.223-0.369,0.22
	c-0.183-0.004-0.37,0.037-0.56-0.078c0.045-0.049,0.078-0.088,0.117-0.125c0.179-0.174,0.382-0.331,0.536-0.524
	c0.114-0.142,0.17-0.332,0.239-0.505c0.016-0.037-0.012-0.117-0.046-0.148c-0.027-0.022-0.099-0.016-0.141,0
	c-0.226,0.096-0.379,0.278-0.521,0.469c-0.146,0.196-0.296,0.394-0.43,0.6c-0.127,0.197-0.292,0.312-0.527,0.335
	c-0.136,0.012-0.272,0.03-0.408,0.039c-0.037,0.003-0.096-0.016-0.108-0.038c-0.013-0.03,0.007-0.082,0.03-0.114
	c0.138-0.186,0.281-0.37,0.426-0.55c0.311-0.385,0.627-0.759,0.937-1.142c0.042-0.055,0.102-0.148,0.083-0.188
	c-0.024-0.052-0.119-0.088-0.189-0.097c-0.182-0.03-0.343,0.036-0.449,0.183c-0.228,0.314-0.453,0.633-0.661,0.957
	c-0.149,0.234-0.275,0.483-0.398,0.733c-0.065,0.136-0.143,0.218-0.301,0.204c-0.099-0.01-0.2,0.001-0.298-0.005
	c-0.106-0.005-0.14-0.07-0.082-0.152c0.299-0.434,0.606-0.863,0.912-1.297c0.019-0.026,0.052-0.049,0.062-0.079
	c0.02-0.069,0.062-0.167,0.033-0.212c-0.057-0.085-0.177-0.121-0.267-0.054c-0.142,0.109-0.302,0.222-0.4,0.37
	c-0.249,0.373-0.468,0.766-0.699,1.15c-0.14,0.236-0.447,0.321-0.718,0.181c0.057-0.067,0.102-0.137,0.162-0.189
	c0.144-0.132,0.299-0.249,0.438-0.384c0.045-0.044,0.09-0.142,0.069-0.187c-0.042-0.09-0.139-0.115-0.245-0.086
	c-0.277,0.078-0.46,0.266-0.599,0.509c-0.265,0.462-0.19,0.399-0.708,0.389c-1.057-0.018-2.112-0.044-3.168-0.074
	c-0.441-0.013-0.877-0.06-1.299-0.207c-0.501-0.176-0.78-0.543-0.921-1.034c-0.228-0.778-0.295-1.581-0.339-2.385
	c-0.117-2.131-0.061-4.265,0.01-6.395c0.028-0.79,0.082-1.58,0.168-2.366c0.081-0.767,0.439-1.376,1.212-1.63
	c0.388-0.126,0.801-0.192,1.207-0.25C5.5,9.911,6.14,9.919,6.778,10.002c0.434,0.057,0.864,0.116,1.291,0.198
	c0.988,0.189,1.957,0.166,2.91-0.185c0.391-0.143,0.816-0.172,1.208-0.318c0.589-0.221,0.586-0.528,0.831-1.049
	c0.146-0.309,0.29-0.634,0.52-0.893c0.223-0.253,0.469-0.292,0.774-0.41c0.647-0.248,1.307-0.407,2.004-0.407
	c1.16,0,2.327-0.021,3.485,0.083c1.008,0.091,1.788,0.366,2.35,1.263c0.109,0.174,0.205,0.367,0.285,0.552
	c0.169,0.395,0.312,0.801,0.381,1.222c0.074,0.467,0.289,0.923,0.319,1.396c0.016,0.276-0.063,0.85,0.441,0.691
	c0.085-0.027,0.168-0.067,0.242-0.117c0.199-0.136,0.228-0.258,0.159-0.545c-0.073-0.307-0.141-0.616-0.203-0.927
	c-0.041-0.203-0.023-0.229,0.182-0.215c0.8,0.055,1.596,0.106,2.394,0.178c0.532,0.047,0.825,0.391,0.996,0.867
	c0.198,0.551,0.256,1.128,0.272,1.704c0.07,2.481,0.119,4.964,0.189,7.445c0.012,0.418-0.077,0.781-0.287,1.145
	C27.142,22.348,26.754,23.014,26.478,23.737z M26.984,23.868c-0.149,0.038-0.207-0.009-0.158-0.151
	c0.046-0.137,0.105-0.273,0.179-0.398c0.164-0.277,0.338-0.544,0.513-0.814c0.051-0.081,0.121-0.151,0.201-0.248
	c0.032,0.06,0.052,0.085,0.061,0.116C27.98,23.002,27.61,23.693,26.984,23.868z M29.055,12.962c0,0.18,0.008,0.36-0.002,0.54
	c-0.011,0.186-0.256,0.388-0.438,0.357c-0.033-0.005-0.074-0.067-0.079-0.108c-0.039-0.304-0.064-0.612-0.102-0.917
	c-0.045-0.309-0.095-0.616-0.151-0.924c-0.035-0.199-0.004-0.241,0.198-0.227c0.072,0.006,0.144,0.012,0.211,0.025
	c0.202,0.04,0.303,0.154,0.319,0.36c0.019,0.297,0.037,0.595,0.054,0.893H29.055z"/>
<path fill="#FFFFFF" d="M17.603,23.606c-0.695,0.009-1.383-0.057-2.061-0.195c-1.589-0.321-2.798-1.194-3.656-2.559
	c-0.407-0.649-0.659-1.354-0.817-2.103c-0.172-0.808-0.289-1.622-0.268-2.451c0.035-1.346,0.412-2.588,1.203-3.691
	c0.507-0.704,1.182-1.208,1.958-1.577c0.484-0.231,0.976-0.452,1.474-0.649c0.395-0.156,0.822-0.187,1.243-0.201
	c0.588-0.023,1.178-0.065,1.758,0.055c0.527,0.109,1.052,0.236,1.564,0.4c0.764,0.246,1.495,0.586,2.15,1.062
	c0.938,0.683,1.59,1.576,1.962,2.677c0.294,0.876,0.325,1.778,0.235,2.683c-0.054,0.539-0.139,1.081-0.244,1.61
	c-0.163,0.836-0.489,1.606-0.99,2.3c-0.377,0.52-0.769,1.022-1.264,1.437c-0.58,0.485-1.244,0.794-1.979,0.967
	C19.124,23.546,18.367,23.605,17.603,23.606z M17.747,22.681c0.271-0.02,0.645-0.028,1.017-0.071
	c0.348-0.038,0.698-0.079,1.032-0.175c0.958-0.271,1.706-0.856,2.318-1.629c0.619-0.773,0.974-1.662,1.148-2.635
	c0.161-0.911,0.265-1.825,0.165-2.754c-0.071-0.671-0.281-1.291-0.672-1.842c-0.897-1.265-2.17-1.917-3.655-2.208
	c-0.537-0.104-1.082-0.182-1.626-0.263c-0.442-0.067-0.876-0.096-1.312,0.072c-0.447,0.172-0.909,0.287-1.395,0.298
	c-0.167,0.003-0.342,0.078-0.49,0.159c-0.996,0.545-1.624,1.41-2.062,2.43c-0.271,0.636-0.425,1.302-0.486,1.988
	c-0.073,0.853-0.024,1.699,0.223,2.517c0.228,0.745,0.572,1.439,1.017,2.08c0.573,0.829,1.336,1.402,2.305,1.702
	C16.049,22.587,16.84,22.663,17.747,22.681z"/>
<path fill="#FFFFFF" d="M9.083,21.562c-0.017,0.078-0.026,0.178-0.056,0.271c-0.042,0.129-0.138,0.152-0.239,0.061
	c-0.203-0.18-0.289-0.425-0.315-0.682c-0.072-0.653-0.121-1.31-0.181-1.964c-0.035-0.376-0.093-0.754-0.107-1.133
	c-0.034-1.026-0.042-2.056-0.075-3.082c-0.029-0.866-0.08-1.731-0.118-2.598c-0.008-0.197-0.008-0.396,0.006-0.594
	c0.009-0.14,0.093-0.174,0.182-0.067c0.098,0.116,0.178,0.257,0.223,0.402c0.164,0.499,0.208,1.019,0.227,1.54
	c0.048,1.463,0.066,2.927,0.128,4.389c0.036,0.833,0.132,1.662,0.208,2.49C8.994,20.912,9.042,21.227,9.083,21.562z"/>
<path fill="#FFFFFF" d="M17.626,20.629c-0.957-0.047-1.926-0.313-2.762-0.918c-0.971-0.706-1.369-1.7-1.264-2.887
	c0.062-0.725,0.233-1.422,0.605-2.052c0.336-0.565,0.71-1.11,1.253-1.505c0.394-0.29,0.84-0.439,1.322-0.452
	c0.191-0.005,0.396,0.048,0.578,0.119c0.188,0.076,0.379,0.11,0.565,0.067c0.639-0.15,1.183,0.047,1.69,0.415
	c0.77,0.556,1.433,1.207,1.845,2.079c0.172,0.365,0.298,0.747,0.34,1.149c0.036,0.349-0.039,0.689-0.15,1.019
	c-0.248,0.742-0.623,1.412-1.211,1.939C19.66,20.301,18.732,20.613,17.626,20.629z M14.083,17.042
	c-0.015,0.311,0.073,0.594,0.184,0.875c0.299,0.763,0.781,1.37,1.538,1.719c0.869,0.399,1.78,0.514,2.726,0.331
	c0.826-0.161,1.473-0.568,1.915-1.287c0.303-0.487,0.51-1.015,0.634-1.57c0.093-0.414,0.074-0.826-0.078-1.229
	c-0.271-0.715-0.759-1.268-1.317-1.766c-0.387-0.346-0.838-0.535-1.354-0.537c-0.331-0.001-0.659,0.024-0.99,0.046
	c-0.195,0.015-0.313-0.04-0.344-0.188c-0.046-0.2-0.174-0.276-0.361-0.184c-0.507,0.253-1.013,0.513-1.415,0.927
	C14.445,14.977,14.206,15.987,14.083,17.042z"/>
<path opacity="0.5" fill="#FFFFFF" d="M94.011,7.186c-0.035-0.359-0.108-0.715-0.171-1.07c-0.075-0.407-0.239-0.57-0.646-0.629
	c-0.319-0.046-0.638-0.083-0.958-0.093c-0.489-0.019-0.489-0.01-0.637-0.469c-0.025-0.078-0.051-0.153-0.072-0.231
	c-0.237-0.894-0.777-1.518-1.684-1.732c-0.504-0.12-1.035-0.157-1.553-0.166c-1.39-0.026-2.781-0.017-4.174-0.014
	c-0.172,0-0.262-0.039-0.329-0.225c-0.3-0.854-0.628-1.696-0.938-2.548c-0.367-1.006-0.917-1.87-1.833-2.463
	c-0.499-0.323-0.995-0.668-1.604-0.735c-0.972-0.106-1.948-0.211-2.927-0.258c-3.055-0.143-6.085,0.067-9.076,0.736
	c-0.716,0.16-1.308,0.458-1.653,1.145c-0.499,0.979-1.014,1.946-1.524,2.918c-0.048,0.085-0.119,0.188-0.201,0.224
	c-0.369,0.156-0.734,0.35-1.118,0.421c-0.86,0.159-1.729,0.272-2.599,0.373c-1.047,0.12-2.062-0.094-3.062-0.387
	c-0.163-0.047-0.247-0.142-0.271-0.324c-0.041-0.301-0.106-0.601-0.188-0.893c-0.164-0.595-0.732-1.103-1.291-1.156
	c-1.53-0.145-3.066-0.185-4.596-0.014c-0.684,0.077-1.254,0.384-1.704,0.901c-0.061,0.069-0.122,0.16-0.132,0.249
	c-0.076,0.547-0.144,1.096-0.2,1.647c-0.017,0.165-0.054,0.292-0.214,0.37c-0.545,0.263-0.982,0.666-1.272,1.18
	c-0.282,0.501-0.659,0.625-1.186,0.552c-0.365-0.051-0.486,0.034-0.596,0.379c-0.1,0.319-0.148,0.655-0.224,0.983
	c-0.21,0.905-0.421,1.811-0.626,2.716C44.69,8.846,44.76,9.107,44.998,9.25c0.304,0.187,0.628,0.353,0.967,0.467
	c0.393,0.135,0.41,0.107,0.396,0.525c-0.053,1.511-0.134,3.021-0.169,4.531c-0.066,2.83-0.027,5.658,0.282,8.476
	c0.124,1.152,0.347,2.281,0.775,3.367c0.418,1.057,1.15,1.699,2.296,1.822c0.958,0.102,1.917,0.227,2.88,0.258
	c3.078,0.096,6.152,0.197,9.232,0.213c3.061,0.02,6.125-0.066,9.186-0.107v-0.055c0.988-0.037,1.976-0.08,2.965-0.111
	c3.078-0.1,6.153-0.219,9.232-0.283c2.072-0.043,4.146,0,6.22-0.021c0.369-0.004,0.776-0.045,1.097-0.205
	c0.623-0.314,1.213-0.713,1.794-1.107c0.125-0.084,0.208-0.281,0.237-0.441c0.054-0.273,0.066-0.559,0.07-0.84
	c0.032-2.879,0.088-5.756,0.082-8.633c-0.007-2.09-0.092-4.179-0.146-6.271c-0.006-0.202,0.013-0.305,0.27-0.278
	c0.406,0.042,0.75-0.114,1.023-0.428c0.289-0.33,0.439-0.724,0.439-1.143C94.124,8.387,94.065,7.783,94.011,7.186z"/>
<path fill="#FFFFFF" d="M94.011,7.186c-0.035-0.359-0.108-0.715-0.171-1.07c-0.075-0.407-0.239-0.57-0.646-0.629
	c-0.319-0.046-0.638-0.083-0.958-0.093c-0.489-0.019-0.489-0.01-0.637-0.469c-0.025-0.078-0.051-0.153-0.072-0.231
	c-0.237-0.894-0.777-1.518-1.684-1.732c-0.504-0.12-1.035-0.157-1.553-0.166c-1.39-0.026-2.781-0.017-4.174-0.014
	c-0.172,0-0.262-0.039-0.329-0.225c-0.3-0.854-0.628-1.696-0.938-2.548c-0.367-1.006-0.917-1.87-1.833-2.463
	c-0.499-0.323-0.995-0.668-1.604-0.735c-0.972-0.106-1.948-0.211-2.927-0.258c-3.055-0.143-6.085,0.067-9.076,0.736
	c-0.716,0.16-1.308,0.458-1.653,1.145c-0.499,0.979-1.014,1.946-1.524,2.918c-0.048,0.085-0.119,0.188-0.201,0.224
	c-0.369,0.156-0.734,0.35-1.118,0.421c-0.86,0.159-1.729,0.272-2.599,0.373c-1.047,0.12-2.062-0.094-3.062-0.387
	c-0.163-0.047-0.247-0.142-0.271-0.324c-0.041-0.301-0.106-0.601-0.188-0.893c-0.164-0.595-0.732-1.103-1.291-1.156
	c-1.53-0.145-3.066-0.185-4.596-0.014c-0.684,0.077-1.254,0.384-1.704,0.901c-0.061,0.069-0.122,0.16-0.132,0.249
	c-0.076,0.547-0.144,1.096-0.2,1.647c-0.017,0.165-0.054,0.292-0.214,0.37c-0.545,0.263-0.982,0.666-1.272,1.18
	c-0.282,0.501-0.659,0.625-1.186,0.552c-0.365-0.051-0.486,0.034-0.596,0.379c-0.1,0.319-0.148,0.655-0.224,0.983
	c-0.21,0.905-0.421,1.811-0.626,2.716C44.69,8.846,44.76,9.107,44.998,9.25c0.304,0.187,0.628,0.353,0.967,0.467
	c0.393,0.135,0.41,0.107,0.396,0.525c-0.053,1.511-0.134,3.021-0.169,4.531c-0.066,2.83-0.027,5.658,0.282,8.476
	c0.124,1.152,0.347,2.281,0.775,3.367c0.418,1.057,1.15,1.699,2.296,1.822c0.958,0.102,1.917,0.227,2.88,0.258
	c3.078,0.096,6.152,0.197,9.232,0.213c3.061,0.02,6.125-0.066,9.186-0.107v-0.055c0.988-0.037,1.976-0.08,2.965-0.111
	c3.078-0.1,6.153-0.219,9.232-0.283c2.072-0.043,4.146,0,6.22-0.021c0.369-0.004,0.776-0.045,1.097-0.205
	c0.623-0.314,1.213-0.713,1.794-1.107c0.125-0.084,0.208-0.281,0.237-0.441c0.054-0.273,0.066-0.559,0.07-0.84
	c0.032-2.879,0.088-5.756,0.082-8.633c-0.007-2.09-0.092-4.179-0.146-6.271c-0.006-0.202,0.013-0.305,0.27-0.278
	c0.406,0.042,0.75-0.114,1.023-0.428c0.289-0.33,0.439-0.724,0.439-1.143C94.124,8.387,94.065,7.783,94.011,7.186z M46.514,6.445
	c-0.066,0.777-0.13,1.551-0.204,2.326c-0.007,0.094-0.069,0.183-0.105,0.275c-0.1-0.042-0.215-0.064-0.296-0.13
	c-0.299-0.245-0.299-0.385-0.157-0.741c0.11-0.271,0.173-0.568,0.224-0.858c0.078-0.489,0.13-0.986,0.2-1.48
	c0.015-0.097,0.052-0.201,0.101-0.286c0.031-0.051,0.113-0.071,0.172-0.104c0.035,0.06,0.092,0.12,0.094,0.18
	c0.012,0.271,0.007,0.544,0.007,0.817C46.537,6.445,46.526,6.445,46.514,6.445z M50.35,1.636c0.519-0.045,1.042-0.044,1.556-0.116
	c0.317-0.045,0.627-0.189,0.936-0.296c0.074-0.026,0.148-0.075,0.195-0.135c0.049-0.06,0.094-0.154,0.081-0.225
	c-0.007-0.041-0.126-0.095-0.191-0.089c-0.319,0.023-0.64,0.083-0.959,0.092c-0.335,0.012-0.671-0.01-1.007-0.029
	c-0.053-0.004-0.143-0.065-0.143-0.098c0.003-0.059,0.045-0.148,0.098-0.169c0.158-0.068,0.328-0.153,0.494-0.156
	c1.006-0.027,2.008-0.059,3.012-0.032c0.39,0.012,0.779,0.156,1.158,0.274c0.213,0.069,0.342,0.258,0.383,0.491
	c0.062,0.344-0.133,0.583-0.479,0.585c-0.579,0-1.158,0-1.735,0c-0.003-0.021-0.003-0.042-0.003-0.062
	c-0.819,0.047-1.635,0.088-2.453,0.151c-0.236,0.017-0.469,0.093-0.704,0.142c-0.079,0.017-0.175,0.065-0.23,0.037
	c-0.093-0.05-0.153-0.147-0.233-0.226C50.2,1.728,50.271,1.641,50.35,1.636z M88.899,26.477c-0.125,0.32-0.779,0.553-1.098,0.412
	c-0.121-0.055-0.127-0.137-0.062-0.252c0.317-0.594,0.631-1.191,0.941-1.787c0.449-0.852,0.898-1.701,1.338-2.557
	c0.143-0.281,0.023-0.441-0.297-0.426c-0.291,0.014-0.48,0.184-0.598,0.426c-0.359,0.768-0.71,1.541-1.057,2.316
	c-0.285,0.637-0.562,1.275-0.844,1.912c-0.12,0.262-0.519,0.4-0.774,0.273c-0.135-0.07-0.144-0.176-0.075-0.305
	c0.288-0.566,0.573-1.129,0.854-1.697c0.16-0.322,0.322-0.646,0.453-0.98c0.047-0.125,0.044-0.387,0.003-0.402
	c-0.163-0.055-0.366-0.078-0.522-0.023c-0.143,0.053-0.283,0.201-0.354,0.342c-0.334,0.684-0.661,1.367-0.959,2.068
	c-0.104,0.25-0.135,0.539-0.164,0.812c-0.025,0.219-0.123,0.357-0.334,0.371c-0.312,0.021-0.629,0.029-0.939,0.004
	c-0.264-0.021-0.298-0.139-0.133-0.34c0.368-0.447,0.736-0.891,1.104-1.336c0.012-0.014,0.021-0.027,0.028-0.041
	c0.099-0.162,0.262-0.352,0.122-0.523c-0.153-0.186-0.394-0.078-0.587-0.016c-0.103,0.031-0.204,0.104-0.278,0.182
	c-0.468,0.492-0.876,1.023-1.127,1.664c-0.168,0.426-0.674,0.617-1.078,0.406c-0.113-0.061-0.109-0.135-0.037-0.236
	c0.164-0.236,0.328-0.473,0.473-0.725c0.168-0.299,0.072-0.451-0.273-0.449c-0.314,0-0.574,0.088-0.713,0.416
	c-0.111,0.266-0.27,0.512-0.4,0.766c-0.096,0.18-0.23,0.262-0.441,0.27c-2.137,0.084-4.273,0.188-6.409,0.271
	c-2.241,0.086-4.482,0.156-6.724,0.234c-0.257,0.01-0.514,0.043-0.77,0.033c-0.252-0.008-0.279-0.092-0.166-0.32
	c0.118-0.236,0.229-0.477,0.331-0.719c0.021-0.051,0.024-0.164,0-0.172c-0.157-0.064-0.323-0.146-0.489-0.15
	c-0.096-0.002-0.233,0.105-0.288,0.203c-0.149,0.256-0.254,0.535-0.39,0.799c-0.126,0.248-0.341,0.379-0.624,0.373
	c-0.31-0.006-0.626,0.061-0.95-0.133c0.076-0.084,0.132-0.15,0.199-0.213c0.303-0.295,0.646-0.561,0.908-0.891
	c0.193-0.238,0.29-0.562,0.406-0.857c0.026-0.062-0.02-0.195-0.078-0.248c-0.045-0.041-0.167-0.029-0.238,0
	c-0.384,0.16-0.643,0.467-0.886,0.793c-0.247,0.336-0.501,0.668-0.729,1.018c-0.215,0.334-0.497,0.531-0.895,0.566
	c-0.231,0.02-0.463,0.053-0.693,0.068c-0.062,0.004-0.163-0.025-0.183-0.066c-0.021-0.047,0.011-0.141,0.05-0.193
	c0.236-0.314,0.477-0.627,0.725-0.934c0.527-0.648,1.062-1.287,1.588-1.938c0.072-0.092,0.175-0.248,0.143-0.318
	c-0.041-0.086-0.201-0.146-0.32-0.164c-0.309-0.049-0.582,0.062-0.762,0.312c-0.387,0.531-0.77,1.07-1.121,1.623
	c-0.253,0.398-0.468,0.822-0.677,1.244c-0.11,0.227-0.24,0.369-0.51,0.344c-0.167-0.014-0.338,0.002-0.507-0.004
	c-0.18-0.01-0.237-0.121-0.139-0.26c0.508-0.74,1.029-1.469,1.547-2.201c0.032-0.047,0.09-0.082,0.105-0.133
	c0.034-0.119,0.105-0.285,0.055-0.361c-0.094-0.145-0.299-0.205-0.451-0.092c-0.242,0.186-0.512,0.377-0.68,0.627
	c-0.422,0.635-0.793,1.301-1.186,1.955c-0.236,0.398-0.758,0.545-1.219,0.305c0.098-0.113,0.174-0.23,0.275-0.322
	c0.246-0.221,0.508-0.422,0.744-0.648c0.076-0.076,0.151-0.242,0.117-0.318c-0.07-0.154-0.236-0.193-0.416-0.145
	c-0.471,0.131-0.781,0.449-1.016,0.861c-0.45,0.783-0.324,0.68-1.202,0.662c-1.794-0.033-3.585-0.076-5.377-0.129
	c-0.747-0.021-1.488-0.1-2.204-0.35c-0.85-0.301-1.322-0.922-1.562-1.756c-0.386-1.32-0.502-2.682-0.575-4.047
	C47.63,17.617,47.724,14,47.846,10.384c0.046-1.34,0.14-2.681,0.285-4.016c0.138-1.3,0.744-2.335,2.058-2.765
	c0.657-0.215,1.358-0.326,2.047-0.426c1.075-0.158,2.162-0.145,3.243-0.003c0.734,0.096,1.466,0.197,2.19,0.335
	c1.676,0.323,3.32,0.281,4.938-0.312c0.664-0.243,1.385-0.291,2.051-0.539c0.998-0.375,0.992-0.897,1.408-1.78
	c0.246-0.524,0.494-1.076,0.881-1.514c0.379-0.43,0.797-0.498,1.314-0.696c1.1-0.42,2.219-0.689,3.399-0.689
	c1.972,0,3.95-0.035,5.917,0.141c1.707,0.154,3.033,0.622,3.986,2.143c0.186,0.296,0.346,0.623,0.48,0.937
	c0.288,0.669,0.531,1.358,0.646,2.073c0.127,0.793,0.492,1.565,0.543,2.37c0.029,0.468-0.107,1.441,0.75,1.171
	c0.144-0.046,0.285-0.113,0.41-0.197c0.338-0.23,0.388-0.438,0.271-0.926c-0.125-0.521-0.239-1.046-0.346-1.572
	c-0.069-0.346-0.039-0.389,0.309-0.365c1.355,0.091,2.709,0.181,4.061,0.301c0.902,0.079,1.4,0.663,1.69,1.47
	c0.337,0.935,0.434,1.915,0.461,2.891c0.118,4.211,0.204,8.424,0.322,12.633c0.019,0.709-0.132,1.324-0.485,1.941
	C90.026,24.119,89.371,25.252,88.899,26.477z M89.763,26.697c-0.254,0.068-0.352-0.014-0.268-0.254
	c0.076-0.232,0.178-0.465,0.301-0.676c0.28-0.469,0.574-0.926,0.871-1.383c0.088-0.139,0.205-0.256,0.342-0.42
	c0.053,0.1,0.088,0.145,0.102,0.195C91.452,25.23,90.827,26.402,89.763,26.697z M93.275,8.195c0,0.307,0.014,0.611-0.005,0.917
	c-0.016,0.316-0.437,0.659-0.742,0.606c-0.057-0.008-0.123-0.114-0.133-0.183c-0.066-0.517-0.107-1.038-0.176-1.556
	c-0.072-0.524-0.158-1.045-0.252-1.567c-0.061-0.337-0.008-0.409,0.335-0.386c0.122,0.011,0.243,0.019,0.36,0.044
	c0.342,0.068,0.512,0.26,0.539,0.61c0.032,0.504,0.062,1.011,0.092,1.515H93.275z"/>
<path fill="#FFFFFF" d="M73.846,26.256c-1.179,0.016-2.346-0.096-3.498-0.328c-2.696-0.547-4.747-2.029-6.204-4.346
	c-0.689-1.098-1.117-2.299-1.387-3.566c-0.293-1.371-0.49-2.752-0.453-4.159c0.061-2.285,0.698-4.391,2.041-6.261
	c0.859-1.195,2.004-2.05,3.321-2.676c0.821-0.393,1.657-0.766,2.503-1.101c0.669-0.265,1.394-0.317,2.108-0.342
	c0.995-0.038,1.999-0.11,2.983,0.094c0.894,0.186,1.784,0.399,2.65,0.679c1.301,0.417,2.539,0.994,3.65,1.802
	c1.596,1.159,2.699,2.675,3.33,4.543c0.499,1.488,0.551,3.016,0.397,4.553c-0.091,0.916-0.233,1.832-0.413,2.734
	c-0.279,1.416-0.83,2.725-1.68,3.898c-0.639,0.883-1.303,1.736-2.143,2.439c-0.986,0.824-2.112,1.348-3.359,1.637
	C76.425,26.152,75.142,26.254,73.846,26.256z M74.089,24.684c0.461-0.031,1.096-0.047,1.727-0.117
	c0.588-0.066,1.184-0.137,1.752-0.299c1.624-0.463,2.893-1.455,3.933-2.762c1.048-1.314,1.651-2.822,1.944-4.471
	c0.277-1.548,0.451-3.1,0.283-4.673c-0.12-1.14-0.477-2.19-1.141-3.128c-1.523-2.146-3.682-3.253-6.202-3.745
	c-0.911-0.178-1.835-0.309-2.756-0.446c-0.75-0.113-1.487-0.164-2.228,0.122c-0.758,0.292-1.541,0.485-2.367,0.504
	c-0.281,0.005-0.578,0.132-0.83,0.27c-1.69,0.924-2.755,2.392-3.498,4.124c-0.46,1.078-0.721,2.206-0.824,3.374
	c-0.123,1.445-0.041,2.879,0.379,4.27c0.385,1.266,0.971,2.441,1.726,3.529c0.972,1.404,2.267,2.379,3.91,2.887
	C71.208,24.527,72.551,24.656,74.089,24.684z"/>
<path fill="#FFFFFF" d="M59.39,22.785c-0.028,0.135-0.045,0.305-0.096,0.463c-0.07,0.219-0.232,0.258-0.405,0.104
	c-0.343-0.307-0.491-0.723-0.536-1.158c-0.121-1.107-0.203-2.221-0.305-3.332c-0.06-0.641-0.158-1.279-0.182-1.92
	c-0.059-1.745-0.072-3.489-0.127-5.23c-0.049-1.47-0.137-2.938-0.199-4.407c-0.016-0.335-0.016-0.674,0.01-1.009
	C57.565,6.058,57.708,6,57.858,6.18c0.166,0.197,0.302,0.436,0.378,0.681c0.28,0.848,0.354,1.731,0.386,2.614
	c0.082,2.482,0.113,4.967,0.219,7.449c0.059,1.41,0.223,2.818,0.35,4.225C59.238,21.684,59.319,22.215,59.39,22.785z"/>
<path fill="#FFFFFF" d="M73.886,21.207c-1.625-0.082-3.27-0.535-4.688-1.561c-1.648-1.197-2.321-2.885-2.144-4.899
	c0.104-1.227,0.395-2.414,1.027-3.481c0.57-0.959,1.203-1.883,2.126-2.555c0.669-0.49,1.425-0.744,2.243-0.765
	c0.326-0.009,0.674,0.08,0.98,0.202c0.32,0.128,0.643,0.188,0.961,0.114c1.082-0.255,2.006,0.08,2.867,0.704
	c1.307,0.943,2.431,2.048,3.131,3.527c0.291,0.619,0.505,1.268,0.576,1.952c0.061,0.592-0.068,1.17-0.254,1.727
	c-0.422,1.26-1.059,2.395-2.057,3.291C77.336,20.646,75.763,21.176,73.886,21.207z M67.872,15.118
	c-0.026,0.528,0.124,1.009,0.312,1.482c0.507,1.297,1.325,2.326,2.61,2.92c1.475,0.678,3.018,0.871,4.625,0.559
	c1.402-0.27,2.498-0.963,3.25-2.182c0.512-0.826,0.863-1.723,1.073-2.665c0.157-0.703,0.126-1.4-0.133-2.085
	c-0.459-1.212-1.286-2.15-2.235-2.997c-0.656-0.584-1.419-0.906-2.297-0.909c-0.561-0.003-1.12,0.04-1.68,0.079
	c-0.333,0.024-0.533-0.068-0.586-0.32c-0.076-0.339-0.293-0.47-0.609-0.311c-0.861,0.428-1.72,0.87-2.401,1.573
	C68.487,11.614,68.081,13.33,67.872,15.118z"/>
</svg>
