<?xml version="1.0" encoding="utf-8"?>
<!-- Generator: Adobe Illustrator 16.0.0, SVG Export Plug-In . SVG Version: 6.00 Build 0)  -->
<!DOCTYPE svg PUBLIC "-//W3C//DTD SVG 1.1//EN" "http://www.w3.org/Graphics/SVG/1.1/DTD/svg11.dtd">
<svg version="1.1" id="Layer_1" xmlns="http://www.w3.org/2000/svg" xmlns:xlink="http://www.w3.org/1999/xlink" x="0px" y="0px"
	 width="30px" height="30px" viewBox="0 0 30 30" enable-background="new 0 0 30 30" xml:space="preserve">
<path opacity="0.55" fill="#FFFFFF" d="M29.395,11.727c-0.021-0.21-0.065-0.418-0.101-0.625c-0.044-0.238-0.141-0.333-0.379-0.368
	c-0.188-0.026-0.371-0.047-0.559-0.054c-0.288-0.011-0.288-0.006-0.373-0.274c-0.015-0.046-0.029-0.089-0.044-0.136
	c-0.138-0.522-0.452-0.887-0.982-1.012c-0.296-0.07-0.604-0.092-0.909-0.097c-0.812-0.015-1.623-0.01-2.436-0.008
	c-0.103,0-0.155-0.023-0.194-0.132c-0.175-0.498-0.367-0.991-0.549-1.489c-0.214-0.588-0.535-1.093-1.07-1.439
	c-0.292-0.189-0.582-0.391-0.937-0.43c-0.569-0.062-1.139-0.123-1.711-0.15c-1.786-0.083-3.557,0.039-5.304,0.43
	c-0.417,0.094-0.764,0.268-0.966,0.669c-0.292,0.573-0.592,1.137-0.892,1.705c-0.027,0.049-0.068,0.11-0.117,0.13
	c-0.215,0.092-0.429,0.205-0.653,0.246C10.716,8.786,10.209,8.852,9.7,8.91C9.089,8.98,8.497,8.856,7.912,8.684
	C7.816,8.657,7.768,8.602,7.753,8.495C7.73,8.319,7.691,8.144,7.645,7.973C7.548,7.625,7.217,7.328,6.89,7.298
	C5.996,7.213,5.098,7.19,4.204,7.29c-0.4,0.044-0.733,0.225-0.996,0.527C3.174,7.857,3.137,7.91,3.131,7.961
	c-0.044,0.32-0.083,0.641-0.117,0.962C3.005,9.02,2.983,9.095,2.889,9.141C2.571,9.294,2.314,9.529,2.146,9.83
	c-0.166,0.292-0.386,0.365-0.693,0.322c-0.213-0.03-0.285,0.02-0.348,0.221c-0.058,0.187-0.086,0.384-0.13,0.575
	c-0.123,0.529-0.246,1.057-0.366,1.587c-0.037,0.16,0.004,0.314,0.142,0.397c0.179,0.109,0.368,0.206,0.566,0.273
	c0.229,0.079,0.239,0.062,0.231,0.307c-0.031,0.883-0.08,1.765-0.1,2.647c-0.039,1.654-0.016,3.308,0.165,4.954
	c0.072,0.672,0.203,1.332,0.454,1.967c0.243,0.617,0.671,0.992,1.341,1.066c0.56,0.059,1.12,0.131,1.683,0.148
	c1.799,0.057,3.595,0.116,5.395,0.125c1.789,0.012,3.58-0.038,5.369-0.062v-0.03c0.578-0.023,1.154-0.048,1.731-0.067
	c1.799-0.058,3.596-0.127,5.396-0.165c1.21-0.025,2.421,0,3.635-0.012c0.214-0.003,0.451-0.026,0.639-0.12
	c0.364-0.184,0.71-0.416,1.05-0.646c0.074-0.051,0.12-0.166,0.138-0.259c0.032-0.159,0.038-0.326,0.041-0.49
	c0.021-1.683,0.054-3.364,0.051-5.045c-0.007-1.222-0.057-2.442-0.089-3.665c-0.003-0.118,0.009-0.178,0.159-0.163
	c0.237,0.024,0.439-0.067,0.598-0.25c0.171-0.192,0.258-0.423,0.258-0.667C29.458,12.428,29.426,12.075,29.395,11.727z"/>
<path fill="#FFFFFF" d="M29.395,11.727c-0.021-0.21-0.065-0.418-0.101-0.625c-0.044-0.238-0.141-0.333-0.379-0.368
	c-0.188-0.026-0.371-0.047-0.559-0.054c-0.288-0.011-0.288-0.006-0.373-0.274c-0.015-0.046-0.029-0.089-0.044-0.136
	c-0.138-0.522-0.452-0.887-0.982-1.012c-0.296-0.07-0.604-0.092-0.909-0.097c-0.812-0.015-1.623-0.01-2.436-0.008
	c-0.103,0-0.155-0.023-0.194-0.132c-0.175-0.498-0.367-0.991-0.549-1.489c-0.214-0.588-0.535-1.093-1.07-1.439
	c-0.292-0.189-0.582-0.391-0.937-0.43c-0.569-0.062-1.139-0.123-1.711-0.15c-1.786-0.083-3.557,0.039-5.304,0.43
	c-0.417,0.094-0.764,0.268-0.966,0.669c-0.292,0.573-0.592,1.137-0.892,1.705c-0.027,0.049-0.068,0.11-0.117,0.13
	c-0.215,0.092-0.429,0.205-0.653,0.246C10.716,8.786,10.209,8.852,9.7,8.91C9.089,8.98,8.497,8.856,7.912,8.684
	C7.816,8.657,7.768,8.602,7.753,8.495C7.73,8.319,7.691,8.144,7.645,7.973C7.548,7.625,7.217,7.328,6.89,7.298
	C5.996,7.213,5.098,7.19,4.204,7.29c-0.4,0.044-0.733,0.225-0.996,0.527C3.174,7.857,3.137,7.91,3.131,7.961
	c-0.044,0.32-0.083,0.641-0.117,0.962C3.005,9.02,2.983,9.095,2.889,9.141C2.571,9.294,2.314,9.529,2.146,9.83
	c-0.166,0.292-0.386,0.365-0.693,0.322c-0.213-0.03-0.285,0.02-0.348,0.221c-0.058,0.187-0.086,0.384-0.13,0.575
	c-0.123,0.529-0.246,1.057-0.366,1.587c-0.037,0.16,0.004,0.314,0.142,0.397c0.179,0.109,0.368,0.206,0.566,0.273
	c0.229,0.079,0.239,0.062,0.231,0.307c-0.031,0.883-0.08,1.765-0.1,2.647c-0.039,1.654-0.016,3.308,0.165,4.954
	c0.072,0.672,0.203,1.332,0.454,1.967c0.243,0.617,0.671,0.992,1.341,1.066c0.56,0.059,1.12,0.131,1.683,0.148
	c1.799,0.057,3.595,0.116,5.395,0.125c1.789,0.012,3.58-0.038,5.369-0.062v-0.03c0.578-0.023,1.154-0.048,1.731-0.067
	c1.799-0.058,3.596-0.127,5.396-0.165c1.21-0.025,2.421,0,3.635-0.012c0.214-0.003,0.451-0.026,0.639-0.12
	c0.364-0.184,0.71-0.416,1.05-0.646c0.074-0.051,0.12-0.166,0.138-0.259c0.032-0.159,0.038-0.326,0.041-0.49
	c0.021-1.683,0.054-3.364,0.051-5.045c-0.007-1.222-0.057-2.442-0.089-3.665c-0.003-0.118,0.009-0.178,0.159-0.163
	c0.237,0.024,0.439-0.067,0.598-0.25c0.171-0.192,0.258-0.423,0.258-0.667C29.458,12.428,29.426,12.075,29.395,11.727z
	 M1.637,11.293c-0.04,0.454-0.076,0.906-0.121,1.359c-0.003,0.055-0.04,0.107-0.061,0.16c-0.058-0.024-0.125-0.037-0.173-0.076
	c-0.174-0.143-0.174-0.225-0.091-0.433c0.064-0.158,0.101-0.332,0.131-0.501c0.045-0.286,0.076-0.576,0.117-0.865
	c0.007-0.057,0.029-0.117,0.058-0.167c0.018-0.029,0.066-0.041,0.1-0.06c0.021,0.034,0.055,0.07,0.056,0.105
	c0.006,0.158,0.003,0.318,0.003,0.478C1.65,11.293,1.645,11.293,1.637,11.293z M3.878,8.483c0.302-0.027,0.608-0.026,0.909-0.068
	c0.185-0.026,0.367-0.111,0.547-0.173C5.377,8.228,5.42,8.199,5.449,8.164c0.028-0.035,0.054-0.09,0.047-0.131
	C5.491,8.009,5.422,7.977,5.384,7.98C5.196,7.994,5.01,8.029,4.823,8.035C4.628,8.042,4.431,8.029,4.235,8.018
	C4.204,8.015,4.151,7.98,4.151,7.96c0.001-0.034,0.026-0.086,0.057-0.099c0.093-0.04,0.192-0.09,0.289-0.091
	C5.085,7.754,5.67,7.736,6.258,7.751c0.227,0.007,0.454,0.092,0.675,0.161c0.125,0.04,0.201,0.15,0.224,0.287
	C7.193,8.4,7.081,8.54,6.878,8.541c-0.339,0-0.678,0-1.015,0C5.862,8.528,5.862,8.516,5.862,8.504
	C5.384,8.532,4.908,8.556,4.428,8.593c-0.138,0.009-0.272,0.054-0.41,0.083c-0.047,0.01-0.103,0.038-0.135,0.021
	C3.829,8.667,3.794,8.611,3.747,8.565C3.791,8.537,3.832,8.486,3.878,8.483z M26.406,22.999c-0.073,0.188-0.455,0.323-0.643,0.24
	c-0.07-0.03-0.073-0.079-0.035-0.146c0.186-0.348,0.367-0.697,0.549-1.045c0.264-0.498,0.524-0.995,0.782-1.495
	c0.083-0.164,0.015-0.258-0.173-0.248c-0.17,0.008-0.281,0.107-0.349,0.248c-0.211,0.448-0.416,0.902-0.618,1.354
	c-0.168,0.373-0.329,0.744-0.493,1.117c-0.07,0.152-0.302,0.234-0.452,0.16c-0.078-0.041-0.084-0.104-0.043-0.178
	c0.167-0.331,0.334-0.659,0.498-0.992c0.094-0.188,0.188-0.379,0.264-0.573c0.026-0.073,0.026-0.227,0.003-0.235
	c-0.097-0.032-0.214-0.045-0.308-0.015c-0.082,0.031-0.165,0.119-0.205,0.201c-0.197,0.398-0.388,0.799-0.561,1.208
	c-0.062,0.147-0.079,0.315-0.097,0.475c-0.015,0.128-0.07,0.208-0.193,0.218c-0.185,0.014-0.37,0.018-0.552,0.003
	c-0.151-0.014-0.172-0.082-0.075-0.199c0.214-0.262,0.431-0.521,0.645-0.78c0.006-0.009,0.012-0.016,0.015-0.024
	c0.06-0.095,0.155-0.205,0.074-0.306c-0.092-0.107-0.233-0.047-0.344-0.01c-0.062,0.019-0.121,0.061-0.164,0.107
	c-0.272,0.287-0.511,0.598-0.657,0.971c-0.1,0.25-0.395,0.361-0.631,0.238c-0.065-0.036-0.062-0.079-0.021-0.138
	c0.096-0.139,0.191-0.276,0.276-0.424c0.099-0.175,0.042-0.264-0.16-0.262c-0.185,0-0.335,0.051-0.416,0.243
	c-0.065,0.154-0.157,0.298-0.234,0.446c-0.056,0.104-0.135,0.153-0.258,0.157c-1.249,0.05-2.497,0.109-3.745,0.159
	c-1.311,0.051-2.619,0.092-3.93,0.137c-0.149,0.006-0.301,0.024-0.45,0.019c-0.146-0.004-0.163-0.052-0.097-0.188
	c0.069-0.137,0.133-0.276,0.194-0.419c0.013-0.029,0.015-0.095,0-0.101c-0.091-0.037-0.189-0.086-0.286-0.087
	c-0.056-0.002-0.136,0.062-0.169,0.119c-0.086,0.148-0.147,0.312-0.227,0.466c-0.073,0.146-0.199,0.221-0.365,0.218
	c-0.18-0.004-0.365,0.035-0.556-0.077c0.045-0.05,0.078-0.088,0.117-0.125c0.177-0.173,0.378-0.327,0.531-0.52
	c0.113-0.14,0.17-0.329,0.237-0.502c0.015-0.036-0.011-0.114-0.045-0.145c-0.026-0.024-0.098-0.019-0.139,0
	c-0.224,0.094-0.375,0.272-0.518,0.463c-0.145,0.196-0.293,0.392-0.426,0.596c-0.126,0.194-0.291,0.31-0.523,0.33
	c-0.135,0.011-0.27,0.031-0.405,0.04c-0.037,0.002-0.095-0.015-0.107-0.04c-0.012-0.026,0.006-0.081,0.029-0.112
	c0.138-0.183,0.278-0.366,0.423-0.545c0.308-0.379,0.62-0.753,0.928-1.132c0.042-0.055,0.101-0.146,0.083-0.187
	c-0.025-0.05-0.119-0.085-0.188-0.096c-0.18-0.029-0.34,0.035-0.446,0.182c-0.226,0.312-0.448,0.626-0.655,0.949
	c-0.147,0.233-0.273,0.48-0.395,0.727c-0.065,0.133-0.141,0.216-0.299,0.201c-0.097-0.008-0.196,0.001-0.296-0.002
	c-0.104-0.006-0.138-0.071-0.081-0.152c0.298-0.433,0.601-0.857,0.905-1.285c0.019-0.028,0.052-0.049,0.062-0.077
	c0.019-0.07,0.062-0.168,0.032-0.212c-0.056-0.085-0.176-0.12-0.264-0.054c-0.142,0.108-0.299,0.22-0.397,0.366
	c-0.246,0.371-0.463,0.76-0.693,1.143c-0.138,0.232-0.443,0.317-0.712,0.179c0.057-0.066,0.103-0.136,0.161-0.189
	c0.144-0.129,0.297-0.246,0.436-0.378c0.044-0.046,0.087-0.143,0.068-0.187c-0.041-0.091-0.139-0.112-0.243-0.085
	c-0.275,0.076-0.458,0.263-0.594,0.504c-0.264,0.457-0.189,0.397-0.702,0.386c-1.048-0.019-2.095-0.044-3.143-0.074
	c-0.435-0.012-0.87-0.06-1.287-0.204c-0.497-0.176-0.772-0.54-0.914-1.026c-0.226-0.771-0.292-1.567-0.335-2.365
	c-0.116-2.112-0.062-4.227,0.01-6.34c0.026-0.783,0.081-1.566,0.166-2.346c0.081-0.759,0.436-1.365,1.203-1.616
	c0.384-0.125,0.794-0.191,1.196-0.249c0.629-0.092,1.264-0.085,1.896-0.002c0.429,0.056,0.856,0.115,1.279,0.196
	c0.979,0.189,1.941,0.164,2.885-0.183c0.389-0.142,0.809-0.17,1.199-0.315c0.583-0.219,0.579-0.524,0.823-1.04
	c0.143-0.306,0.288-0.628,0.514-0.885c0.222-0.251,0.466-0.291,0.768-0.407c0.644-0.246,1.298-0.403,1.987-0.403
	c1.152,0,2.309-0.021,3.458,0.083c0.999,0.09,1.772,0.363,2.329,1.251c0.109,0.173,0.202,0.365,0.282,0.548
	c0.167,0.39,0.309,0.792,0.377,1.21c0.074,0.464,0.287,0.915,0.317,1.385c0.017,0.274-0.062,0.842,0.438,0.685
	c0.086-0.027,0.168-0.066,0.24-0.116c0.196-0.135,0.226-0.256,0.159-0.541c-0.073-0.304-0.142-0.611-0.203-0.918
	c-0.04-0.202-0.022-0.228,0.183-0.214c0.791,0.054,1.58,0.105,2.372,0.177c0.527,0.046,0.818,0.387,0.987,0.858
	c0.196,0.547,0.253,1.119,0.271,1.689c0.067,2.462,0.117,4.923,0.188,7.381c0.012,0.415-0.076,0.775-0.285,1.136
	C27.065,21.621,26.681,22.284,26.406,22.999z M26.911,23.129c-0.15,0.039-0.206-0.008-0.156-0.148
	c0.044-0.137,0.103-0.271,0.176-0.396c0.161-0.272,0.334-0.541,0.507-0.808c0.053-0.08,0.121-0.149,0.2-0.245
	c0.031,0.059,0.052,0.084,0.061,0.115C27.898,22.271,27.532,22.957,26.911,23.129z M28.963,12.316c0,0.179,0.009,0.357-0.003,0.536
	c-0.009,0.185-0.256,0.385-0.435,0.354c-0.032-0.005-0.07-0.067-0.076-0.107c-0.04-0.302-0.063-0.607-0.102-0.909
	c-0.045-0.306-0.095-0.61-0.15-0.916c-0.035-0.197-0.003-0.239,0.197-0.225c0.072,0.006,0.144,0.011,0.211,0.026
	c0.199,0.04,0.298,0.152,0.312,0.356c0.021,0.294,0.039,0.591,0.057,0.885H28.963z"/>
<path fill="#FFFFFF" d="M17.608,22.87c-0.688,0.01-1.37-0.056-2.044-0.191c-1.576-0.32-2.773-1.187-3.625-2.54
	c-0.403-0.642-0.653-1.342-0.811-2.084c-0.17-0.801-0.286-1.608-0.264-2.43c0.036-1.334,0.408-2.565,1.192-3.659
	c0.503-0.699,1.171-1.198,1.941-1.564c0.48-0.229,0.969-0.448,1.463-0.644c0.392-0.155,0.815-0.186,1.231-0.199
	c0.582-0.023,1.169-0.065,1.744,0.055c0.522,0.107,1.043,0.233,1.549,0.396c0.761,0.243,1.483,0.581,2.133,1.053
	c0.933,0.677,1.577,1.563,1.946,2.655c0.293,0.869,0.322,1.762,0.231,2.661c-0.053,0.535-0.135,1.069-0.24,1.597
	c-0.164,0.828-0.484,1.593-0.981,2.279c-0.374,0.516-0.762,1.015-1.252,1.425c-0.576,0.482-1.234,0.787-1.964,0.957
	C19.116,22.81,18.365,22.868,17.608,22.87z M17.751,21.951c0.269-0.018,0.64-0.026,1.009-0.067c0.344-0.04,0.691-0.081,1.023-0.175
	c0.95-0.271,1.69-0.85,2.299-1.614c0.611-0.769,0.965-1.65,1.137-2.612c0.16-0.905,0.264-1.812,0.165-2.731
	c-0.07-0.666-0.278-1.28-0.667-1.828c-0.89-1.253-2.152-1.901-3.624-2.188c-0.532-0.104-1.073-0.181-1.611-0.261
	c-0.438-0.066-0.869-0.095-1.302,0.072c-0.442,0.17-0.9,0.284-1.382,0.295c-0.165,0.003-0.339,0.077-0.485,0.158
	c-0.988,0.54-1.61,1.397-2.045,2.409c-0.269,0.63-0.421,1.29-0.481,1.972c-0.071,0.844-0.023,1.682,0.221,2.496
	c0.225,0.739,0.568,1.425,1.009,2.062c0.567,0.821,1.324,1.392,2.284,1.688C16.067,21.86,16.852,21.935,17.751,21.951z"/>
<path fill="#FFFFFF" d="M9.161,20.843c-0.016,0.077-0.026,0.177-0.056,0.27c-0.041,0.128-0.136,0.151-0.236,0.06
	c-0.201-0.179-0.288-0.422-0.314-0.675c-0.07-0.648-0.119-1.299-0.179-1.947c-0.034-0.375-0.093-0.747-0.106-1.123
	c-0.033-1.019-0.042-2.039-0.075-3.056c-0.028-0.859-0.079-1.716-0.116-2.576c-0.009-0.196-0.009-0.394,0.006-0.589
	c0.009-0.139,0.092-0.173,0.18-0.067c0.097,0.115,0.176,0.254,0.22,0.398c0.164,0.496,0.208,1.012,0.226,1.527
	c0.048,1.451,0.066,2.903,0.128,4.353c0.035,0.825,0.13,1.646,0.205,2.469C9.073,20.198,9.12,20.509,9.161,20.843z"/>
<path fill="#FFFFFF" d="M17.633,19.92c-0.95-0.048-1.912-0.312-2.74-0.912c-0.963-0.699-1.357-1.688-1.253-2.862
	c0.062-0.717,0.232-1.411,0.601-2.035c0.333-0.561,0.702-1.101,1.242-1.493c0.392-0.286,0.833-0.435,1.31-0.447
	c0.19-0.005,0.395,0.047,0.573,0.118c0.188,0.075,0.376,0.11,0.562,0.067c0.633-0.15,1.173,0.046,1.675,0.411
	c0.765,0.551,1.421,1.197,1.83,2.061c0.17,0.362,0.294,0.741,0.338,1.14c0.034,0.347-0.041,0.685-0.148,1.011
	c-0.248,0.735-0.619,1.398-1.202,1.923C19.648,19.593,18.729,19.901,17.633,19.92z M14.117,16.361
	c-0.015,0.309,0.074,0.591,0.184,0.866c0.296,0.758,0.773,1.359,1.524,1.706c0.862,0.396,1.764,0.509,2.703,0.326
	c0.819-0.157,1.46-0.563,1.898-1.274c0.3-0.482,0.505-1.007,0.627-1.557c0.094-0.411,0.074-0.819-0.077-1.219
	c-0.269-0.708-0.752-1.256-1.307-1.751c-0.382-0.341-0.83-0.53-1.341-0.531c-0.329-0.002-0.655,0.024-0.982,0.046
	c-0.195,0.015-0.312-0.04-0.344-0.187c-0.043-0.198-0.169-0.274-0.355-0.181c-0.503,0.25-1.004,0.508-1.403,0.918
	C14.478,14.314,14.24,15.317,14.117,16.361z"/>
</svg>
