<?xml version="1.0" encoding="utf-8"?>
<!-- Generator: Adobe Illustrator 16.0.0, SVG Export Plug-In . SVG Version: 6.00 Build 0)  -->
<!DOCTYPE svg PUBLIC "-//W3C//DTD SVG 1.1//EN" "http://www.w3.org/Graphics/SVG/1.1/DTD/svg11.dtd">
<svg version="1.1" id="Layer_1" xmlns="http://www.w3.org/2000/svg" xmlns:xlink="http://www.w3.org/1999/xlink" x="0px" y="0px"
	 width="30px" height="30px" viewBox="0 0 30 30" enable-background="new 0 0 30 30" xml:space="preserve">
<path fill-rule="evenodd" clip-rule="evenodd" fill="#2C3962" d="M8.753,6.715c-0.042-0.31-0.077-0.606-0.118-0.903
	C8.54,5.1,8.503,4.385,8.552,3.669c0.013-0.18,0.071-0.359,0.127-0.532c0.054-0.165,0.189-0.248,0.35-0.28
	c0.396-0.077,0.792-0.16,1.188-0.212c0.596-0.081,1.19-0.15,1.789-0.199c1.131-0.09,2.257-0.192,3.39-0.238
	c1.53-0.062,3.063-0.083,4.595-0.1c0.428-0.004,0.858,0.048,1.284,0.105c0.305,0.042,0.605,0.149,0.734,0.467
	c0.072,0.183,0.109,0.389,0.129,0.587c0.077,0.892,0.146,1.784,0.214,2.676c0.007,0.109,0.039,0.133,0.145,0.129
	c0.964-0.036,1.932-0.08,2.899-0.088c0.445-0.006,0.893,0.054,1.339,0.098c0.159,0.014,0.302,0.078,0.43,0.195
	c0.166,0.154,0.358,0.283,0.531,0.431c0.526,0.449,0.784,1.04,0.844,1.71c0.041,0.463,0.034,0.93,0.041,1.396
	c0.022,2.05,0.046,4.104,0.065,6.154c0.022,2.455,0.039,4.909,0.063,7.365c0.005,0.59,0.035,1.181,0.046,1.771
	c0.009,0.472-0.048,0.938-0.155,1.396c-0.157,0.665-0.648,1.078-1.328,1.133c-2.172,0.18-4.348,0.154-6.527,0.158
	c-2.942,0.01-5.886-0.004-8.83,0.013c-2.023,0.013-4.047,0.075-6.073,0.085c-0.978,0.004-1.96-0.06-2.94-0.105
	c-0.238-0.012-0.485-0.047-0.71-0.127c-0.328-0.119-0.471-0.422-0.579-0.73c-0.26-0.742-0.312-1.516-0.319-2.291
	c-0.024-4.619-0.044-9.235-0.048-13.855c0-0.404,0.113-0.812,0.218-1.208c0.141-0.533,0.353-1.042,0.643-1.512
	c0.192-0.311,0.397-0.617,0.75-0.761C3.029,7.228,3.224,7.192,3.413,7.17c0.568-0.068,1.139-0.128,1.711-0.179
	c0.56-0.049,1.123-0.088,1.685-0.129c0.604-0.045,1.208-0.085,1.812-0.13C8.661,6.729,8.706,6.721,8.753,6.715z M18.769,17.109
	c-0.028,0.082-0.055,0.123-0.059,0.166c-0.016,0.209-0.044,0.421-0.033,0.63c0.009,0.15,0.046,0.313,0.114,0.446
	c0.214,0.416,0.45,0.822,0.68,1.232c0.108,0.191,0.108,0.202-0.049,0.362c-0.017,0.017-0.034,0.032-0.048,0.048
	c-0.083,0.092-0.163,0.086-0.236-0.006c-0.124-0.152-0.246-0.309-0.373-0.455c-0.044-0.053-0.109-0.084-0.164-0.127
	c-0.037,0.067-0.074,0.134-0.111,0.201c-0.004,0.003-0.002,0.01-0.004,0.014c-0.039,0.288-0.086,0.574-0.113,0.863
	c-0.035,0.379-0.245,0.615-0.582,0.752c-0.479,0.195-0.987,0.244-1.498,0.264c-0.824,0.033-1.647-0.001-2.467-0.109
	c-0.47-0.062-0.936-0.147-1.383-0.314c-0.223-0.082-0.362-0.22-0.396-0.459c-0.016-0.119-0.044-0.238-0.055-0.357
	c-0.107-1.139-0.131-2.279-0.101-3.424c0.011-0.359,0.002-0.375-0.366-0.35c-0.332,0.021-0.662,0.062-0.992,0.067
	c-1.486,0.025-2.974,0.038-4.461,0.062c-1.084,0.016-2.168,0.039-3.251,0.06c-0.221,0.005-0.244,0.028-0.253,0.249
	c-0.016,0.377-0.035,0.753-0.038,1.13c-0.017,1.997-0.055,3.995,0.049,5.991c0.035,0.646,0.063,1.298,0.266,1.922
	c0.129,0.393,0.351,0.714,0.756,0.85c0.254,0.082,0.521,0.149,0.785,0.162c1.199,0.053,2.398,0.121,3.598,0.117
	c2.271-0.011,4.542-0.066,6.814-0.104c0.133-0.002,0.175-0.057,0.117-0.18c-0.091-0.188-0.198-0.369-0.293-0.554
	c-0.023-0.046-0.054-0.112-0.036-0.147c0.087-0.164,0.257-0.211,0.423-0.249c0.141-0.032,0.204,0.069,0.259,0.166
	c0.144,0.247,0.301,0.491,0.408,0.753c0.098,0.232,0.251,0.307,0.479,0.291c0.343-0.022,0.688-0.043,1.033-0.071
	c0.244-0.021,0.288-0.083,0.189-0.319c-0.104-0.251-0.231-0.492-0.354-0.734c-0.063-0.131-0.055-0.196,0.076-0.242
	c0.378-0.129,0.498-0.078,0.645,0.228c0.014,0.032,0.033,0.064,0.048,0.097c0.105,0.252,0.215,0.5,0.315,0.753
	c0.067,0.171,0.179,0.28,0.364,0.285c0.228,0.007,0.455,0.007,0.684,0c0.25-0.005,0.261-0.027,0.127-0.239
	c-0.035-0.056-0.074-0.112-0.115-0.164c-0.238-0.296-0.473-0.596-0.721-0.886c-0.153-0.181-0.088-0.327,0.065-0.474
	c0.17-0.161,0.341-0.168,0.48-0.012c0.127,0.146,0.244,0.3,0.348,0.461c0.244,0.387,0.479,0.776,0.712,1.168
	c0.098,0.158,0.242,0.229,0.417,0.223c0.249-0.016,0.498-0.045,0.747-0.069c0.081-0.009,0.115-0.048,0.078-0.129
	c-0.064-0.136-0.117-0.278-0.194-0.409c-0.26-0.453-0.528-0.902-0.788-1.357c-0.03-0.051-0.041-0.143-0.014-0.191
	c0.141-0.258,0.379-0.266,0.538-0.025c0.011,0.015,0.02,0.031,0.026,0.047c0.355,0.655,0.712,1.311,1.063,1.969
	c0.048,0.09,0.113,0.143,0.21,0.135c0.164-0.014,0.328-0.026,0.489-0.062c0.325-0.07,0.334-0.088,0.177-0.391
	c-0.319-0.609-0.733-1.154-1.151-1.697c-0.078-0.098-0.087-0.184-0.03-0.279c0.055-0.084,0.12-0.166,0.198-0.233
	c0.114-0.101,0.192-0.089,0.278,0.034c0.094,0.132,0.183,0.266,0.258,0.407c0.343,0.632,0.689,1.264,1.018,1.901
	c0.113,0.219,0.284,0.304,0.511,0.295c0.232-0.006,0.464-0.027,0.695-0.045c0.131-0.011,0.166-0.05,0.106-0.171
	c-0.126-0.251-0.251-0.505-0.406-0.737c-0.352-0.52-0.721-1.025-1.083-1.535c-0.12-0.172-0.094-0.293,0.085-0.416
	c0.175-0.119,0.254-0.109,0.373,0.078c0.164,0.26,0.322,0.523,0.477,0.793c0.325,0.563,0.647,1.131,0.966,1.7
	c0.092,0.164,0.231,0.224,0.4,0.204c0.202-0.02,0.399-0.059,0.598-0.093c0.081-0.015,0.104-0.063,0.062-0.138
	c-0.07-0.129-0.133-0.264-0.216-0.385c-0.479-0.701-0.962-1.398-1.451-2.095c-0.072-0.106-0.118-0.208-0.089-0.337
	c0.039-0.15,0.122-0.268,0.279-0.316c0.157-0.045,0.209,0.084,0.284,0.173c0.017,0.016,0.028,0.035,0.039,0.056
	c0.284,0.494,0.568,0.99,0.852,1.488c0.254,0.451,0.496,0.909,0.756,1.357c0.153,0.266,0.286,0.273,0.477,0.027
	c0.107-0.135,0.18-0.297,0.28-0.438c0.074-0.104,0.064-0.192-0.001-0.294c-0.458-0.694-0.913-1.391-1.369-2.087
	c-0.18-0.276-0.365-0.55-0.537-0.833c-0.077-0.129-0.007-0.266,0.159-0.361c0.157-0.09,0.194-0.08,0.304,0.079
	c0.034,0.048,0.067,0.095,0.096,0.146c0.376,0.659,0.75,1.321,1.128,1.979c0.096,0.168,0.202,0.328,0.308,0.488
	c0.053,0.08,0.111,0.078,0.135-0.025c0.018-0.087,0.04-0.176,0.038-0.265c-0.003-0.456-0.011-0.912-0.022-1.37
	c-0.002-0.072-0.026-0.152-0.063-0.214c-0.367-0.593-0.74-1.182-1.111-1.772c-0.171-0.271-0.138-0.627,0.085-0.869
	c0.085-0.088,0.145-0.09,0.223,0.006c0.033,0.039,0.063,0.084,0.088,0.131c0.163,0.319,0.323,0.637,0.484,0.957
	c0.06,0.123,0.118,0.248,0.177,0.371c0.012-0.003,0.024-0.005,0.037-0.01c0.001-0.045,0.01-0.094,0.007-0.141
	c-0.016-0.398-0.03-0.797-0.057-1.193c-0.009-0.1-0.048-0.211-0.106-0.293c-0.155-0.218-0.333-0.42-0.494-0.633
	c-0.131-0.173-0.09-0.322,0.122-0.49c0.12-0.098,0.16-0.086,0.325,0.102c0.055,0.062,0.103,0.132,0.157,0.199
	c0.026,0.032,0.056,0.062,0.107,0.123c0.02-0.083,0.039-0.131,0.042-0.18c0.039-1.076,0.078-2.148,0.113-3.225
	c0.005-0.223-0.122-0.343-0.35-0.348c-0.161-0.004-0.321-0.004-0.483-0.007c-0.574-0.015-1.146-0.032-1.719-0.047
	c-0.142-0.003-0.182,0.05-0.131,0.181c0.041,0.1,0.098,0.191,0.153,0.282c0.115,0.179,0.111,0.23-0.053,0.367
	c-0.046,0.04-0.101,0.073-0.155,0.102c-0.201,0.108-0.291,0.089-0.387-0.118c-0.101-0.222-0.18-0.455-0.258-0.686
	c-0.03-0.092-0.079-0.146-0.166-0.15c-0.182-0.006-0.365-0.002-0.549,0c-0.096,0.002-0.119,0.042-0.067,0.129
	c0.148,0.244,0.29,0.492,0.438,0.735c0.111,0.179,0.111,0.196-0.055,0.325c-0.022,0.018-0.049,0.035-0.075,0.053
	c-0.231,0.147-0.294,0.143-0.443-0.09c-0.2-0.308-0.384-0.624-0.581-0.933c-0.035-0.052-0.103-0.103-0.163-0.11
	c-0.222-0.031-0.446-0.043-0.669-0.062c-0.17-0.015-0.203,0.025-0.12,0.174c0.24,0.419,0.485,0.832,0.733,1.246
	c0.116,0.19,0.121,0.219-0.052,0.365c-0.306,0.26-0.341,0.215-0.498-0.06c-0.297-0.515-0.584-1.036-0.85-1.564
	c-0.103-0.206-0.224-0.288-0.444-0.261c-0.111,0.013-0.225,0.006-0.364,0.01c0.053,0.115,0.081,0.194,0.124,0.268
	c0.3,0.512,0.604,1.022,0.9,1.537c0.033,0.055,0.059,0.143,0.039,0.196c-0.062,0.185-0.415,0.337-0.557,0.118
	c-0.042-0.064-0.101-0.119-0.134-0.184c-0.327-0.617-0.652-1.233-0.968-1.853c-0.05-0.098-0.106-0.166-0.216-0.171
	c-0.21-0.012-0.42-0.023-0.631-0.022c-0.149,0.002-0.169,0.056-0.088,0.185c0.45,0.719,0.9,1.438,1.35,2.16
	c0.022,0.037,0.044,0.111,0.026,0.131c-0.103,0.109-0.205,0.228-0.33,0.295c-0.037,0.02-0.157-0.112-0.237-0.178
	c-0.016-0.013-0.028-0.033-0.042-0.053c-0.216-0.34-0.43-0.679-0.645-1.02C18.946,17.4,18.869,17.272,18.769,17.109z M23.222,15.047
	c0,0.007,0,0.015,0,0.023c1.182-0.025,2.365-0.049,3.546-0.076c0.251-0.007,0.5-0.029,0.751-0.048
	c0.19-0.017,0.251-0.099,0.221-0.285c-0.014-0.093-0.031-0.185-0.037-0.28c-0.05-0.75-0.092-1.5-0.145-2.25
	c-0.063-0.858-0.133-1.715-0.2-2.57c-0.038-0.498-0.084-0.991-0.267-1.46c-0.141-0.36-0.348-0.667-0.72-0.825
	c-0.269-0.116-0.555-0.132-0.843-0.124c-1.931,0.061-3.86,0.108-5.789,0.186c-1.893,0.075-3.784,0.182-5.676,0.273
	c-1.494,0.074-2.986,0.147-4.482,0.216C8.126,7.893,6.675,7.944,5.22,8.021C4.815,8.042,4.4,8.082,4.019,8.205
	C3.104,8.502,2.64,9.222,2.482,10.122c-0.094,0.523-0.085,1.069-0.074,1.605c0.02,1.177,0.072,2.355,0.111,3.531
	c0.005,0.166,0.044,0.217,0.214,0.226c0.304,0.015,0.609,0.03,0.911,0.023c1.366-0.033,2.731-0.092,4.097-0.104
	c1.326-0.011,2.652,0.021,3.979,0.039c0.14,0,0.211-0.05,0.22-0.188c0.012-0.232,0.038-0.464,0.038-0.697
	c0-0.22,0.103-0.363,0.281-0.468c0.3-0.175,0.634-0.25,0.973-0.267c0.673-0.036,1.345-0.06,2.014-0.075
	c0.987-0.02,1.971-0.03,2.956-0.042c0.295-0.003,0.476,0.107,0.563,0.382c0.06,0.191,0.07,0.402,0.092,0.604
	c0.013,0.107-0.041,0.271,0.011,0.312c0.076,0.061,0.221,0.042,0.335,0.042C20.543,15.048,21.882,15.047,23.222,15.047z M16.2,3.23
	c0-0.012,0-0.023,0-0.034c-1.245,0.039-2.49,0.071-3.734,0.12c-0.7,0.026-1.401,0.074-2.092,0.23
	C9.917,3.651,9.692,3.869,9.679,4.311C9.661,5.005,9.666,5.699,9.661,6.392C9.657,6.504,9.707,6.528,9.81,6.516
	c0.212-0.023,0.427-0.038,0.641-0.053c0.216-0.014,0.228-0.031,0.203-0.254c-0.037-0.343-0.059-0.689,0.044-1.026
	c0.101-0.341,0.29-0.625,0.661-0.71c0.394-0.091,0.794-0.177,1.197-0.216c0.807-0.076,1.615-0.12,2.425-0.178
	c1.185-0.086,2.369-0.095,3.557-0.038c0.319,0.017,0.643,0.064,0.96,0.107C19.672,4.169,19.8,4.26,19.84,4.44
	c0.039,0.184,0.089,0.367,0.1,0.553c0.014,0.352,0.001,0.707,0.001,1.061c0,0.196,0.004,0.212,0.2,0.202
	c0.358-0.019,0.715-0.049,1.07-0.086c0.047-0.005,0.121-0.077,0.127-0.125c0.02-0.163,0.026-0.33,0.016-0.494
	c-0.02-0.322-0.048-0.643-0.078-0.963c-0.026-0.253-0.042-0.509-0.099-0.757c-0.095-0.409-0.354-0.6-0.771-0.6
	C19.003,3.23,17.601,3.23,16.2,3.23z M14.78,17.315c0,0,0-0.001,0-0.003c0.057,0,0.117,0.002,0.174,0
	c0.72-0.013,1.44-0.03,2.154-0.159c0.206-0.038,0.367-0.122,0.39-0.353c0.018-0.223,0.039-0.447,0.034-0.67
	c-0.011-0.366-0.046-0.73-0.063-1.098c-0.011-0.229-0.048-0.274-0.279-0.3c-0.201-0.022-0.401-0.046-0.603-0.064
	c-1.07-0.1-2.135-0.025-3.198,0.105c-0.171,0.021-0.25,0.109-0.277,0.258c-0.046,0.254-0.101,0.51-0.116,0.767
	c-0.026,0.419-0.032,0.841-0.03,1.262c0,0.21,0.065,0.257,0.271,0.256C13.751,17.315,14.265,17.315,14.78,17.315z M15.256,6.408
	c0-0.013,0-0.026,0-0.038c1.062,0,2.122,0.001,3.186,0c0.106,0,0.219,0.005,0.319-0.024c0.069-0.021,0.148-0.085,0.177-0.152
	c0.032-0.07,0.023-0.167,0.011-0.247c-0.035-0.227-0.076-0.451-0.133-0.671c-0.016-0.065-0.083-0.144-0.145-0.165
	c-0.111-0.039-0.236-0.053-0.354-0.053c-0.642-0.002-1.282-0.01-1.924,0.007c-1.054,0.026-2.111,0.059-3.166,0.109
	c-0.378,0.019-0.754,0.096-1.129,0.155c-0.171,0.025-0.307,0.117-0.351,0.291c-0.039,0.16-0.08,0.324-0.083,0.486
	c-0.004,0.383-0.098,0.407,0.383,0.396C13.117,6.478,14.188,6.441,15.256,6.408z M15.278,20.484c0.367,0,0.735,0.006,1.103-0.002
	c0.224-0.004,0.446-0.021,0.667-0.051c0.057-0.007,0.133-0.07,0.15-0.123c0.05-0.148,0.096-0.303,0.101-0.455
	c0.03-0.578,0.046-1.154,0.063-1.73c0.004-0.199-0.031-0.248-0.231-0.238c-0.252,0.012-0.509,0.045-0.758,0.09
	c-0.195,0.041-0.238,0.109-0.221,0.316c0.017,0.182,0.046,0.363,0.073,0.545c0.019,0.117-0.03,0.178-0.144,0.197
	c-0.544,0.09-1.079,0.016-1.607-0.114c-0.141-0.034-0.199-0.164-0.155-0.308c0.025-0.089,0.061-0.177,0.1-0.264
	c0.149-0.32,0.114-0.383-0.248-0.389c-0.313-0.007-0.627-0.002-0.94,0c-0.223,0-0.29,0.096-0.242,0.317
	c0.039,0.183,0.088,0.366,0.104,0.551c0.034,0.445,0.052,0.892,0.073,1.34c0.005,0.112,0.058,0.194,0.166,0.216
	c0.194,0.042,0.394,0.09,0.591,0.098C14.374,20.494,14.828,20.484,15.278,20.484z"/>
<path fill-rule="evenodd" clip-rule="evenodd" fill="#FFFFFF" d="M18.769,17.109c0.101,0.163,0.178,0.291,0.256,0.418
	c0.215,0.341,0.429,0.68,0.645,1.02c0.014,0.02,0.026,0.04,0.042,0.053c0.08,0.065,0.2,0.197,0.237,0.178
	c0.125-0.067,0.228-0.186,0.33-0.295c0.018-0.02-0.004-0.094-0.026-0.131c-0.449-0.723-0.899-1.441-1.35-2.16
	c-0.081-0.129-0.062-0.183,0.088-0.185c0.211-0.001,0.421,0.011,0.631,0.022c0.109,0.005,0.166,0.073,0.216,0.171
	c0.315,0.619,0.641,1.235,0.968,1.853c0.033,0.064,0.092,0.119,0.134,0.184c0.142,0.219,0.494,0.066,0.557-0.118
	c0.02-0.054-0.006-0.142-0.039-0.196c-0.297-0.515-0.601-1.025-0.9-1.537c-0.043-0.073-0.071-0.152-0.124-0.268
	c0.14-0.004,0.253,0.003,0.364-0.01c0.221-0.027,0.342,0.055,0.444,0.261c0.266,0.528,0.553,1.05,0.85,1.564
	c0.157,0.274,0.192,0.319,0.498,0.06c0.173-0.146,0.168-0.175,0.052-0.365c-0.248-0.414-0.493-0.827-0.733-1.246
	c-0.083-0.148-0.05-0.188,0.12-0.174c0.223,0.02,0.447,0.031,0.669,0.062c0.061,0.008,0.128,0.059,0.163,0.11
	c0.197,0.309,0.381,0.625,0.581,0.933c0.149,0.232,0.212,0.237,0.443,0.09c0.026-0.018,0.053-0.035,0.075-0.053
	c0.166-0.129,0.166-0.146,0.055-0.325c-0.147-0.243-0.289-0.491-0.438-0.735c-0.052-0.087-0.028-0.127,0.067-0.129
	c0.184-0.002,0.367-0.006,0.549,0c0.087,0.004,0.136,0.059,0.166,0.15c0.078,0.23,0.157,0.464,0.258,0.686
	c0.096,0.207,0.186,0.227,0.387,0.118c0.055-0.028,0.109-0.062,0.155-0.102c0.164-0.137,0.168-0.188,0.053-0.367
	c-0.056-0.091-0.112-0.183-0.153-0.282c-0.051-0.131-0.011-0.184,0.131-0.181c0.572,0.015,1.145,0.032,1.719,0.047
	c0.162,0.003,0.322,0.003,0.483,0.007c0.228,0.005,0.354,0.125,0.35,0.348c-0.035,1.076-0.074,2.148-0.113,3.225
	c-0.003,0.049-0.022,0.097-0.042,0.18c-0.052-0.061-0.081-0.091-0.107-0.123c-0.055-0.067-0.103-0.137-0.157-0.199
	c-0.165-0.188-0.205-0.199-0.325-0.102c-0.212,0.168-0.253,0.317-0.122,0.49c0.161,0.213,0.339,0.415,0.494,0.633
	c0.059,0.082,0.098,0.193,0.106,0.293c0.026,0.396,0.041,0.795,0.057,1.193c0.003,0.047-0.006,0.096-0.007,0.141
	c-0.013,0.005-0.025,0.007-0.037,0.01c-0.059-0.123-0.117-0.248-0.177-0.371c-0.161-0.32-0.321-0.638-0.484-0.957
	c-0.024-0.047-0.055-0.092-0.088-0.131c-0.078-0.096-0.138-0.094-0.223-0.006c-0.223,0.242-0.256,0.598-0.085,0.869
	c0.371,0.591,0.744,1.18,1.111,1.772c0.037,0.062,0.062,0.142,0.063,0.214c0.012,0.458,0.02,0.914,0.022,1.37
	c0.002,0.089-0.021,0.178-0.038,0.265c-0.023,0.104-0.082,0.105-0.135,0.025c-0.105-0.16-0.212-0.32-0.308-0.488
	c-0.378-0.657-0.752-1.319-1.128-1.979c-0.028-0.051-0.062-0.098-0.096-0.146c-0.109-0.159-0.146-0.169-0.304-0.079
	c-0.166,0.096-0.236,0.232-0.159,0.361c0.172,0.283,0.357,0.557,0.537,0.833c0.456,0.696,0.911,1.393,1.369,2.087
	c0.065,0.102,0.075,0.189,0.001,0.294c-0.101,0.142-0.173,0.304-0.28,0.438c-0.19,0.246-0.323,0.238-0.477-0.027
	c-0.26-0.448-0.502-0.906-0.756-1.357c-0.283-0.498-0.567-0.994-0.852-1.488c-0.011-0.021-0.022-0.04-0.039-0.056
	c-0.075-0.089-0.127-0.218-0.284-0.173c-0.157,0.049-0.24,0.166-0.279,0.316c-0.029,0.129,0.017,0.23,0.089,0.337
	c0.489,0.696,0.973,1.394,1.451,2.095c0.083,0.121,0.146,0.256,0.216,0.385c0.042,0.074,0.02,0.123-0.062,0.138
	c-0.198,0.034-0.396,0.073-0.598,0.093c-0.169,0.02-0.309-0.04-0.4-0.204c-0.318-0.569-0.641-1.137-0.966-1.7
	c-0.154-0.27-0.312-0.533-0.477-0.793c-0.119-0.188-0.198-0.197-0.373-0.078c-0.179,0.123-0.205,0.244-0.085,0.416
	c0.362,0.51,0.731,1.016,1.083,1.535c0.155,0.232,0.28,0.486,0.406,0.737c0.06,0.121,0.024,0.16-0.106,0.171
	c-0.231,0.018-0.463,0.039-0.695,0.045c-0.227,0.009-0.397-0.076-0.511-0.295c-0.328-0.638-0.675-1.27-1.018-1.901
	c-0.075-0.142-0.164-0.275-0.258-0.407c-0.086-0.123-0.164-0.135-0.278-0.034c-0.078,0.067-0.144,0.149-0.198,0.233
	c-0.057,0.096-0.048,0.182,0.03,0.279c0.418,0.543,0.832,1.088,1.151,1.697c0.157,0.303,0.148,0.32-0.177,0.391
	c-0.161,0.036-0.325,0.049-0.489,0.062c-0.097,0.008-0.162-0.045-0.21-0.135c-0.352-0.658-0.708-1.313-1.063-1.969
	c-0.007-0.016-0.016-0.032-0.026-0.047c-0.159-0.24-0.397-0.232-0.538,0.025c-0.027,0.049-0.017,0.141,0.014,0.191
	c0.26,0.455,0.528,0.904,0.788,1.357c0.077,0.131,0.13,0.273,0.194,0.409c0.037,0.081,0.003,0.12-0.078,0.129
	c-0.249,0.024-0.498,0.054-0.747,0.069c-0.175,0.007-0.319-0.064-0.417-0.223c-0.232-0.392-0.468-0.781-0.712-1.168
	c-0.104-0.161-0.221-0.315-0.348-0.461c-0.14-0.156-0.311-0.149-0.48,0.012c-0.153,0.146-0.219,0.293-0.065,0.474
	c0.248,0.29,0.482,0.59,0.721,0.886c0.041,0.052,0.08,0.108,0.115,0.164c0.134,0.212,0.123,0.234-0.127,0.239
	c-0.229,0.007-0.456,0.007-0.684,0c-0.186-0.005-0.297-0.114-0.364-0.285c-0.101-0.253-0.21-0.501-0.315-0.753
	c-0.015-0.032-0.034-0.064-0.048-0.097c-0.146-0.306-0.267-0.356-0.645-0.228c-0.131,0.046-0.14,0.111-0.076,0.242
	c0.122,0.242,0.249,0.483,0.354,0.734c0.099,0.236,0.055,0.299-0.189,0.319c-0.345,0.028-0.69,0.049-1.033,0.071
	c-0.228,0.016-0.381-0.059-0.479-0.291c-0.107-0.262-0.265-0.506-0.408-0.753c-0.055-0.097-0.118-0.198-0.259-0.166
	c-0.166,0.038-0.336,0.085-0.423,0.249c-0.018,0.035,0.013,0.102,0.036,0.147c0.095,0.185,0.202,0.366,0.293,0.554
	c0.058,0.123,0.016,0.178-0.117,0.18c-2.272,0.037-4.544,0.093-6.814,0.104c-1.199,0.004-2.398-0.064-3.598-0.117
	c-0.265-0.013-0.531-0.08-0.785-0.162c-0.405-0.136-0.627-0.457-0.756-0.85c-0.202-0.624-0.23-1.275-0.266-1.922
	c-0.104-1.996-0.065-3.994-0.049-5.991c0.003-0.377,0.022-0.753,0.038-1.13c0.009-0.221,0.032-0.244,0.253-0.249
	c1.083-0.021,2.167-0.044,3.251-0.06c1.487-0.023,2.975-0.036,4.461-0.062c0.33-0.005,0.66-0.047,0.992-0.067
	c0.368-0.025,0.377-0.01,0.366,0.35c-0.03,1.145-0.007,2.285,0.101,3.424c0.011,0.119,0.039,0.238,0.055,0.357
	c0.033,0.239,0.173,0.377,0.396,0.459c0.447,0.167,0.913,0.252,1.383,0.314c0.819,0.108,1.643,0.143,2.467,0.109
	c0.511-0.02,1.02-0.068,1.498-0.264c0.337-0.137,0.547-0.373,0.582-0.752c0.027-0.289,0.074-0.575,0.113-0.863
	c0.002-0.004,0-0.011,0.004-0.014c0.037-0.067,0.074-0.134,0.111-0.201c0.055,0.043,0.12,0.074,0.164,0.127
	c0.127,0.146,0.249,0.303,0.373,0.455c0.073,0.092,0.153,0.098,0.236,0.006c0.014-0.016,0.031-0.031,0.048-0.048
	c0.157-0.16,0.157-0.171,0.049-0.362c-0.229-0.41-0.466-0.816-0.68-1.232c-0.068-0.133-0.105-0.296-0.114-0.446
	c-0.011-0.209,0.018-0.421,0.033-0.63C18.714,17.232,18.74,17.191,18.769,17.109z"/>
<path fill-rule="evenodd" clip-rule="evenodd" fill="#FFFFFF" d="M23.222,15.047c-1.34,0-2.679,0.001-4.02-0.002
	c-0.114,0-0.259,0.02-0.335-0.042c-0.052-0.041,0.002-0.205-0.011-0.312c-0.021-0.202-0.032-0.413-0.092-0.604
	c-0.088-0.275-0.269-0.385-0.563-0.382c-0.985,0.011-1.969,0.022-2.956,0.042c-0.669,0.015-1.341,0.04-2.014,0.075
	c-0.339,0.017-0.673,0.092-0.973,0.267c-0.179,0.105-0.281,0.248-0.281,0.468c0,0.233-0.026,0.464-0.038,0.697
	c-0.009,0.138-0.08,0.188-0.22,0.188c-1.326-0.018-2.652-0.05-3.979-0.039c-1.365,0.013-2.73,0.072-4.097,0.104
	c-0.302,0.007-0.607-0.008-0.911-0.023c-0.17-0.009-0.209-0.06-0.214-0.226c-0.039-1.176-0.092-2.354-0.111-3.531
	c-0.011-0.536-0.02-1.082,0.074-1.605c0.157-0.9,0.621-1.62,1.536-1.917C4.4,8.082,4.815,8.042,5.22,8.021
	c1.455-0.076,2.906-0.127,4.361-0.193c1.496-0.069,2.988-0.142,4.482-0.216c1.892-0.092,3.783-0.198,5.676-0.273
	c1.929-0.078,3.858-0.125,5.789-0.186c0.288-0.009,0.574,0.008,0.843,0.124c0.372,0.158,0.579,0.465,0.72,0.825
	c0.183,0.469,0.229,0.962,0.267,1.46c0.067,0.855,0.137,1.712,0.2,2.57c0.053,0.75,0.095,1.501,0.145,2.25
	c0.006,0.095,0.023,0.187,0.037,0.28c0.03,0.186-0.03,0.268-0.221,0.285c-0.251,0.02-0.5,0.042-0.751,0.048
	c-1.181,0.027-2.364,0.051-3.546,0.076C23.222,15.062,23.222,15.054,23.222,15.047z M26.643,9.445
	c-0.035-0.34-0.057-0.616-0.094-0.891c-0.024-0.183-0.118-0.331-0.298-0.396c-0.113-0.042-0.229-0.08-0.349-0.092
	c-0.535-0.056-1.062,0.022-1.589,0.092c-0.078,0.009-0.157,0.033-0.229,0.065c-0.103,0.044-0.133,0.129-0.089,0.231
	c0.041,0.091,0.1,0.173,0.128,0.267c0.038,0.134,0.125,0.22,0.247,0.259c0.194,0.063,0.392,0.124,0.592,0.156
	c0.278,0.043,0.56,0.058,0.84,0.089c0.148,0.016,0.209,0.073,0.214,0.225c0.004,0.193-0.007,0.384-0.007,0.576
	c0,0.134,0,0.269,0.013,0.403c0.012,0.131,0.119,0.257,0.217,0.259c0.122,0.001,0.177-0.089,0.221-0.187
	c0.014-0.036,0.037-0.072,0.042-0.111C26.555,10.056,26.604,9.721,26.643,9.445z M4.228,8.957c0,0.006,0,0.014-0.002,0.02
	c-0.041,0-0.08,0.001-0.12,0C3.516,8.954,3.263,9.243,3.164,9.74c-0.059,0.288-0.104,0.583-0.124,0.875
	c-0.037,0.522,0.037,1.035,0.237,1.521c0.021,0.053,0.093,0.122,0.136,0.118c0.048-0.003,0.113-0.073,0.129-0.126
	c0.046-0.162,0.094-0.328,0.105-0.494c0.03-0.424,0.03-0.851,0.061-1.273c0.02-0.294,0.162-0.515,0.455-0.62
	c0.115-0.042,0.242-0.068,0.352-0.122C4.678,9.538,4.84,9.451,4.982,9.34c0.111-0.084,0.087-0.185-0.035-0.256
	C4.905,9.062,4.857,9.04,4.812,9.033C4.615,9.004,4.423,8.981,4.228,8.957z"/>
<path fill-rule="evenodd" clip-rule="evenodd" fill="#FFFFFF" d="M16.2,3.23c1.4,0,2.803,0,4.205,0.001
	c0.417,0,0.677,0.191,0.771,0.6c0.057,0.248,0.072,0.503,0.099,0.757c0.03,0.32,0.059,0.641,0.078,0.963
	c0.011,0.164,0.004,0.331-0.016,0.494c-0.006,0.048-0.08,0.12-0.127,0.125c-0.355,0.037-0.712,0.067-1.07,0.086
	c-0.196,0.01-0.2-0.006-0.2-0.202c0-0.354,0.013-0.708-0.001-1.061c-0.011-0.186-0.061-0.369-0.1-0.553
	c-0.04-0.18-0.168-0.271-0.343-0.292c-0.317-0.042-0.641-0.09-0.96-0.107c-1.188-0.057-2.372-0.048-3.557,0.038
	c-0.81,0.058-1.618,0.102-2.425,0.178c-0.403,0.04-0.804,0.125-1.197,0.216c-0.371,0.084-0.561,0.369-0.661,0.71
	c-0.103,0.337-0.081,0.683-0.044,1.026c0.024,0.224,0.013,0.24-0.203,0.254c-0.214,0.015-0.429,0.03-0.641,0.053
	C9.707,6.528,9.657,6.504,9.661,6.392c0.005-0.693,0-1.387,0.018-2.081c0.014-0.442,0.238-0.66,0.695-0.765
	c0.69-0.156,1.392-0.204,2.092-0.23c1.244-0.049,2.489-0.082,3.734-0.12C16.2,3.207,16.2,3.218,16.2,3.23z"/>
<path fill-rule="evenodd" clip-rule="evenodd" fill="#FFFFFF" d="M14.78,17.315c-0.516,0-1.029,0-1.545,0
	c-0.205,0.001-0.271-0.046-0.271-0.256c-0.002-0.421,0.004-0.843,0.03-1.262c0.016-0.257,0.07-0.512,0.116-0.767
	c0.027-0.149,0.106-0.237,0.277-0.258c1.063-0.13,2.128-0.205,3.198-0.105c0.201,0.019,0.401,0.042,0.603,0.064
	c0.231,0.026,0.269,0.071,0.279,0.3c0.018,0.367,0.053,0.732,0.063,1.098c0.005,0.223-0.017,0.447-0.034,0.67
	c-0.022,0.23-0.184,0.314-0.39,0.353c-0.714,0.129-1.435,0.146-2.154,0.159c-0.057,0.002-0.117,0-0.174,0
	C14.78,17.314,14.78,17.315,14.78,17.315z"/>
<path fill-rule="evenodd" clip-rule="evenodd" fill="#FFFFFF" d="M15.278,20.484c-0.45,0-0.904,0.01-1.356-0.004
	c-0.197-0.008-0.396-0.056-0.591-0.098c-0.108-0.021-0.161-0.104-0.166-0.216c-0.021-0.448-0.039-0.895-0.073-1.34
	c-0.016-0.185-0.064-0.368-0.104-0.551c-0.048-0.222,0.02-0.317,0.242-0.317c0.313-0.002,0.627-0.007,0.94,0
	c0.362,0.006,0.397,0.068,0.248,0.389c-0.039,0.087-0.074,0.175-0.1,0.264c-0.044,0.144,0.015,0.273,0.155,0.308
	c0.528,0.13,1.063,0.204,1.607,0.114c0.113-0.02,0.162-0.08,0.144-0.197c-0.027-0.182-0.057-0.363-0.073-0.545
	c-0.018-0.207,0.025-0.275,0.221-0.316c0.249-0.045,0.506-0.078,0.758-0.09c0.2-0.01,0.235,0.039,0.231,0.238
	c-0.018,0.576-0.033,1.152-0.063,1.73c-0.005,0.152-0.051,0.307-0.101,0.455c-0.018,0.053-0.094,0.116-0.15,0.123
	c-0.221,0.029-0.443,0.047-0.667,0.051C16.014,20.49,15.646,20.484,15.278,20.484z"/>
<path fill-rule="evenodd" clip-rule="evenodd" fill="#2C3962" d="M26.643,9.445c-0.039,0.276-0.088,0.61-0.142,0.945
	c-0.005,0.039-0.028,0.075-0.042,0.111c-0.044,0.097-0.099,0.188-0.221,0.187c-0.098-0.002-0.205-0.127-0.217-0.259
	c-0.013-0.134-0.013-0.269-0.013-0.403c0-0.191,0.011-0.383,0.007-0.576c-0.005-0.152-0.065-0.209-0.214-0.225
	c-0.28-0.031-0.562-0.046-0.84-0.089c-0.2-0.032-0.397-0.093-0.592-0.156c-0.122-0.039-0.209-0.125-0.247-0.259
	c-0.028-0.093-0.087-0.175-0.128-0.267c-0.044-0.102-0.014-0.187,0.089-0.231c0.072-0.032,0.151-0.056,0.229-0.065
	c0.526-0.07,1.054-0.147,1.589-0.092c0.119,0.012,0.235,0.05,0.349,0.092c0.18,0.065,0.273,0.212,0.298,0.396
	C26.586,8.829,26.607,9.105,26.643,9.445z"/>
<path fill-rule="evenodd" clip-rule="evenodd" fill="#2C3962" d="M4.228,8.957c0.195,0.024,0.388,0.047,0.584,0.076
	C4.857,9.04,4.905,9.062,4.947,9.084C5.069,9.156,5.094,9.256,4.982,9.34C4.84,9.451,4.678,9.538,4.515,9.619
	C4.405,9.672,4.278,9.698,4.163,9.74c-0.293,0.105-0.436,0.326-0.455,0.62c-0.03,0.423-0.03,0.85-0.061,1.273
	c-0.012,0.166-0.06,0.333-0.105,0.494c-0.016,0.053-0.081,0.124-0.129,0.126c-0.043,0.003-0.115-0.065-0.136-0.118
	c-0.2-0.487-0.274-0.999-0.237-1.521c0.02-0.292,0.065-0.587,0.124-0.875c0.099-0.497,0.352-0.786,0.941-0.763
	c0.04,0.001,0.079,0,0.12,0C4.228,8.971,4.228,8.963,4.228,8.957z"/>
<path fill-rule="evenodd" clip-rule="evenodd" fill="#FFFFFF" d="M79.664-6.608c-0.216-0.266-0.432-0.53-0.645-0.796
	c-0.447-0.554-0.895-1.107-1.341-1.664c-0.023-0.029-0.05-0.078-0.041-0.107c0.009-0.026,0.062-0.051,0.098-0.053
	c0.332-0.023,0.664-0.053,0.998-0.052c0.109,0,0.261,0.052,0.324,0.134c0.229,0.288,0.435,0.594,0.633,0.904
	c0.055,0.085,0.068,0.208,0.07,0.314c0.007,0.327,0.004,0.654-0.004,0.982c-0.003,0.111-0.028,0.223-0.046,0.333
	C79.695-6.612,79.68-6.61,79.664-6.608z"/>
<g>
	<path fill-rule="evenodd" clip-rule="evenodd" fill="#2C3962" d="M81.043-7.727c-0.062,0.728-0.125,1.516-0.198,2.301
		c-0.063,0.679-0.136,1.356-0.21,2.034c-0.07,0.636-0.148,1.271-0.223,1.905c-0.07,0.605-0.14,1.209-0.214,1.813
		c-0.07,0.589-0.147,1.176-0.222,1.763c-0.071,0.537-0.135,1.074-0.214,1.609c-0.122,0.816-0.221,1.638-0.498,2.422
		c-0.035,0.097-0.085,0.19-0.14,0.277c-0.099,0.16-0.24,0.247-0.437,0.255c-0.791,0.032-1.582,0.064-2.371,0.106
		c-0.966,0.051-1.933,0.107-2.898,0.169c-1.033,0.066-2.066,0.136-3.098,0.212c-0.883,0.065-1.764,0.142-2.646,0.215
		c-0.876,0.072-1.752,0.143-2.627,0.222c-0.74,0.066-1.48,0.141-2.221,0.214c-0.715,0.072-1.429,0.14-2.142,0.224
		c-0.728,0.085-1.455,0.179-2.181,0.283c-0.565,0.082-1.131,0.17-1.692,0.28c-0.487,0.095-0.97,0.228-1.457,0.336
		c-0.518,0.116-1.034,0.231-1.569,0.217c-0.893-0.025-1.612-0.534-1.874-1.384c-0.199-0.653-0.365-1.319-0.507-1.988
		c-0.162-0.767-0.291-1.542-0.417-2.316c-0.104-0.637-0.186-1.276-0.273-1.915c-0.096-0.695-0.19-1.391-0.282-2.085
		c-0.094-0.728-0.185-1.455-0.279-2.182c-0.067-0.515-0.142-1.031-0.21-1.545c-0.098-0.7-0.193-1.4-0.29-2.102
		c-0.07-0.509-0.145-1.019-0.214-1.529c-0.118-0.871-0.232-1.741-0.346-2.612c-0.025-0.18-0.055-0.36-0.059-0.541
		c-0.009-0.973,0.454-1.48,1.243-1.715c0.904-0.269,1.813-0.525,2.732-0.742c1.324-0.313,2.679-0.356,4.033-0.319
		c0.201,0.006,0.401,0.055,0.599,0.099c0.272,0.062,0.45,0.243,0.57,0.488c0.179,0.36,0.389,0.699,0.675,0.985
		c0.217,0.218,0.465,0.34,0.78,0.312c0.742-0.062,1.483-0.112,2.224-0.181c0.688-0.064,1.376-0.144,2.062-0.22
		c0.601-0.066,1.199-0.139,1.8-0.206c0.686-0.079,1.374-0.154,2.061-0.229c0.662-0.074,1.323-0.149,1.985-0.22
		c0.671-0.072,1.344-0.141,2.019-0.205c1.182-0.111,2.366-0.19,3.553-0.131c0.476,0.024,0.952,0.091,1.418,0.187
		c0.461,0.094,0.76,0.407,0.911,0.853c0.177,0.52,0.209,1.06,0.203,1.601c-0.001,0.135,0.041,0.161,0.17,0.165
		c0.461,0.01,0.926,0.01,1.383,0.064c0.939,0.108,1.344,0.582,1.485,1.525C81-8.57,81.008-8.179,81.043-7.727z M53.475,7.975
		c0.033,0.006,0.055,0.015,0.072,0.012c0.385-0.061,0.77-0.121,1.154-0.185c0.585-0.095,1.169-0.198,1.754-0.29
		c0.622-0.095,1.245-0.182,1.866-0.272c0.664-0.096,1.327-0.196,1.991-0.289c0.68-0.096,1.361-0.182,2.041-0.273
		c0.731-0.096,1.464-0.199,2.197-0.287c0.803-0.098,1.61-0.185,2.417-0.271c0.745-0.081,1.489-0.161,2.236-0.229
		c0.922-0.083,1.844-0.161,2.769-0.228c1.12-0.08,2.241-0.146,3.362-0.221c0.059-0.004,0.113-0.034,0.17-0.052
		c-0.021-0.055-0.028-0.125-0.069-0.162c-0.194-0.18-0.397-0.35-0.595-0.525c-0.116-0.102-0.24-0.199-0.345-0.314
		c-0.121-0.133-0.092-0.412,0.043-0.542c0.118-0.116,0.25-0.108,0.429,0.041c0.124,0.104,0.242,0.214,0.35,0.333
		c0.319,0.357,0.633,0.718,0.946,1.08c0.128,0.147,0.283,0.221,0.48,0.209c0.255-0.015,0.509-0.019,0.764-0.032
		c0.075-0.004,0.149-0.022,0.263-0.04c-0.092-0.109-0.153-0.197-0.229-0.272c-0.734-0.743-1.473-1.482-2.209-2.224
		c-0.165-0.167-0.334-0.33-0.486-0.507c-0.118-0.139-0.114-0.289-0.024-0.398c0.087-0.103,0.256-0.142,0.399-0.059
		c0.151,0.088,0.309,0.185,0.42,0.314c0.777,0.9,1.545,1.812,2.315,2.72c0.046,0.053,0.092,0.104,0.159,0.181
		c0.047-0.109,0.081-0.189,0.114-0.267c0.182-0.427,0.146-0.797-0.169-1.177c-0.873-1.044-1.717-2.116-2.571-3.176
		c-0.177-0.219-0.359-0.432-0.53-0.655c-0.105-0.138-0.111-0.307-0.021-0.386c0.14-0.123,0.264-0.023,0.358,0.062
		c0.168,0.147,0.329,0.305,0.465,0.481c0.802,1.03,1.595,2.065,2.393,3.099c0.126,0.163,0.257,0.32,0.415,0.517
		c0.027-0.117,0.054-0.188,0.059-0.261c0.026-0.426,0.044-0.853,0.069-1.278c0.009-0.132-0.045-0.225-0.148-0.305
		c-0.1-0.075-0.191-0.164-0.271-0.257c-0.817-0.95-1.597-1.935-2.495-2.812c-0.157-0.154-0.284-0.345-0.404-0.531
		c-0.039-0.061-0.048-0.2-0.009-0.236c0.058-0.054,0.199-0.095,0.258-0.06c0.187,0.111,0.379,0.235,0.524,0.397
		c0.861,0.953,1.711,1.917,2.563,2.877c0.036,0.039,0.08,0.069,0.137,0.118c0.018-0.063,0.033-0.096,0.037-0.129
		c0.063-0.684,0.125-1.367,0.19-2.05c0.011-0.119-0.024-0.208-0.101-0.297c-0.662-0.775-1.317-1.557-1.978-2.332
		c-0.338-0.394-0.655-0.809-1.087-1.115c-0.088-0.064-0.151-0.168-0.217-0.26c-0.083-0.116-0.085-0.235,0.02-0.34
		c0.107-0.107,0.196-0.006,0.275,0.044c0.337,0.219,0.645,0.471,0.902,0.784c0.703,0.849,1.409,1.696,2.114,2.544
		c0.051,0.062,0.104,0.124,0.178,0.213c0.032-0.094,0.063-0.154,0.071-0.217c0.046-0.471,0.081-0.943,0.132-1.414
		c0.026-0.237-0.053-0.426-0.205-0.597c-0.289-0.327-0.57-0.663-0.866-0.983c-0.609-0.653-1.168-1.358-1.913-1.874
		c-0.042-0.029-0.077-0.069-0.114-0.106c-0.135-0.133-0.117-0.296-0.071-0.452c0.011-0.039,0.124-0.084,0.17-0.069
		c0.105,0.037,0.214,0.093,0.293,0.169c0.406,0.38,0.828,0.748,1.195,1.162c0.5,0.563,0.956,1.166,1.431,1.751
		c0.053,0.065,0.113,0.125,0.189,0.209c0.019-0.085,0.038-0.134,0.042-0.184c0.037-0.514,0.063-1.029,0.109-1.541
		c0.02-0.2-0.04-0.354-0.171-0.493c-0.242-0.259-0.495-0.508-0.721-0.78c-0.521-0.621-1.04-1.245-1.54-1.883
		c-0.188-0.237-0.399-0.288-0.68-0.265c-0.643,0.054-1.288,0.083-1.931,0.123c-1.117,0.065-2.235,0.122-3.352,0.195
		c-0.948,0.063-1.898,0.14-2.847,0.217c-0.789,0.064-1.577,0.133-2.363,0.208c-0.669,0.062-1.337,0.129-2.002,0.205
		c-0.609,0.069-1.219,0.148-1.828,0.228c-0.835,0.108-1.671,0.212-2.504,0.333c-0.725,0.105-1.448,0.221-2.169,0.354
		c-0.734,0.136-1.468,0.293-2.198,0.45c-0.371,0.08-0.624,0.304-0.7,0.687c-0.06,0.294-0.127,0.591-0.143,0.891
		c-0.065,1.189-0.131,2.379-0.159,3.57c-0.055,2.258-0.092,4.517-0.116,6.776c-0.009,0.814-0.172,1.586-0.493,2.329
		C53.652,7.592,53.564,7.778,53.475,7.975z M53.043,3.253c0.013-0.001,0.025-0.003,0.037-0.005c0.002-0.026,0.007-0.05,0.007-0.076
		c0.043-1.342,0.071-2.685,0.128-4.026c0.074-1.773,0.16-3.545,0.261-5.316c0.046-0.791,0.393-1.402,1.196-1.645
		c0.427-0.13,0.863-0.225,1.301-0.307c0.723-0.13,1.446-0.242,2.171-0.352c0.638-0.097,1.274-0.184,1.914-0.275
		c0.679-0.097,1.358-0.199,2.038-0.289c0.892-0.116,1.785-0.224,2.679-0.33c0.852-0.102,1.703-0.208,2.558-0.291
		c0.927-0.09,1.855-0.16,2.785-0.232c0.803-0.062,1.608-0.111,2.412-0.173c0.688-0.052,1.379-0.109,2.067-0.169
		c0.616-0.055,1.233-0.118,1.85-0.182c0.046-0.004,0.12-0.049,0.123-0.083c0.037-0.276,0.094-0.557,0.081-0.833
		c-0.021-0.436-0.208-0.598-0.639-0.579c-0.531,0.024-1.06,0.068-1.588,0.117c-0.907,0.083-1.812,0.173-2.718,0.27
		c-0.863,0.091-1.728,0.194-2.589,0.289c-0.92,0.103-1.84,0.202-2.76,0.301c-0.808,0.088-1.614,0.175-2.422,0.261
		c-0.604,0.064-1.209,0.126-1.815,0.191c-0.63,0.067-1.263,0.133-1.891,0.208c-0.749,0.091-1.496,0.19-2.245,0.289
		c-0.823,0.109-1.647,0.225-2.473,0.331c-0.671,0.086-1.342,0.158-2.011,0.244c-0.231,0.029-0.465,0.065-0.689,0.129
		c-0.378,0.105-0.579,0.392-0.582,0.789c0,0.119,0.005,0.239,0.01,0.358c0.034,0.618,0.064,1.237,0.102,1.855
		c0.075,1.231,0.145,2.462,0.232,3.692c0.127,1.77,0.266,3.538,0.401,5.307C52.988,2.898,53.019,3.075,53.043,3.253z M57.875-10.765
		c-0.033-0.051-0.059-0.096-0.088-0.138c-0.288-0.4-0.576-0.801-0.871-1.197c-0.175-0.236-0.179-0.231,0.046-0.429
		c0.032-0.027,0.074-0.092,0.065-0.108c-0.024-0.037-0.076-0.071-0.122-0.08c-0.127-0.022-0.258-0.035-0.387-0.045
		c-0.853-0.062-1.706-0.063-2.552,0.076c-0.435,0.07-0.867,0.163-1.294,0.275c-0.565,0.15-1.131,0.311-1.684,0.5
		c-0.328,0.113-0.651,0.273-0.685,0.698c-0.021,0.259-0.057,0.517-0.069,0.776c-0.009,0.172,0.046,0.316,0.21,0.42
		c0.164,0.106,0.304,0.25,0.459,0.373c0.196,0.156,0.395,0.308,0.592,0.458c0.101,0.076,0.189,0.075,0.249-0.056
		c0.055-0.122,0.118-0.241,0.177-0.362c0.094-0.193,0.055-0.345-0.096-0.505c-0.254-0.267-0.49-0.551-0.719-0.839
		c-0.112-0.141-0.095-0.282,0.017-0.396c0.112-0.116,0.256-0.113,0.37-0.034c0.129,0.088,0.248,0.202,0.34,0.328
		c0.201,0.278,0.381,0.57,0.57,0.856c0.072,0.111,0.173,0.176,0.311,0.173c0.3-0.009,0.603-0.014,0.902-0.029
		c0.055-0.002,0.106-0.046,0.171-0.075c-0.029-0.039-0.044-0.06-0.06-0.079c-0.391-0.474-0.78-0.948-1.169-1.422
		c-0.131-0.161-0.122-0.332,0.011-0.476c0.07-0.077,0.148-0.097,0.231-0.026c0.086,0.074,0.176,0.147,0.247,0.236
		c0.333,0.426,0.675,0.846,0.981,1.289c0.227,0.326,0.482,0.502,0.887,0.38c0.044-0.013,0.096-0.002,0.14-0.016
		c0.113-0.033,0.224-0.075,0.367-0.125c-0.099-0.109-0.162-0.184-0.231-0.254c-0.354-0.373-0.715-0.74-1.064-1.119
		c-0.085-0.092-0.148-0.211-0.196-0.329c-0.052-0.128,0.002-0.232,0.134-0.289c0.249-0.106,0.391-0.084,0.57,0.124
		c0.124,0.14,0.229,0.296,0.334,0.449c0.256,0.372,0.505,0.75,0.767,1.118c0.046,0.065,0.138,0.137,0.208,0.139
		c0.154,0.004,0.313-0.019,0.46-0.06c0.153-0.043,0.151-0.08,0.044-0.201c-0.375-0.432-0.749-0.865-1.12-1.299
		c-0.046-0.053-0.081-0.115-0.141-0.201c0.145-0.042,0.261-0.081,0.378-0.109c0.269-0.065,0.312-0.049,0.471,0.177
		c0.313,0.44,0.618,0.887,0.935,1.324C57.152-10.646,57.593-10.585,57.875-10.765z M79.664-6.608
		c0.016-0.002,0.031-0.004,0.047-0.004c0.018-0.11,0.043-0.222,0.046-0.333c0.008-0.328,0.011-0.655,0.004-0.982
		c-0.002-0.106-0.016-0.229-0.07-0.314c-0.198-0.31-0.404-0.616-0.633-0.904c-0.063-0.082-0.215-0.133-0.324-0.134
		c-0.334-0.001-0.666,0.029-0.998,0.052c-0.035,0.002-0.089,0.027-0.098,0.053c-0.009,0.029,0.018,0.078,0.041,0.107
		c0.446,0.556,0.894,1.11,1.341,1.664C79.232-7.138,79.448-6.874,79.664-6.608z M52.121,3.737c0.018,0,0.034,0,0.052-0.001
		c0.003-0.059,0.011-0.118,0.011-0.178c0.005-1.461,0.009-2.923,0.01-4.387c0-0.053-0.018-0.12-0.051-0.157
		c-0.186-0.198-0.374-0.389-0.568-0.577c-0.026-0.027-0.081-0.024-0.122-0.035c-0.007,0.039-0.021,0.079-0.016,0.117
		c0.028,0.242,0.062,0.484,0.092,0.727c0.094,0.769,0.178,1.539,0.277,2.307c0.088,0.686,0.19,1.369,0.289,2.054
		C52.101,3.65,52.112,3.694,52.121,3.737z M50.332-9.159c-0.001,0.001-0.003,0.001-0.007,0.001c0.021,0.165,0.055,0.329,0.061,0.494
		c0.011,0.355,0.192,0.582,0.498,0.74c0.195,0.101,0.379,0.229,0.575,0.336c0.032,0.019,0.117,0.003,0.133-0.024
		c0.125-0.193,0.086-0.782-0.071-0.947c-0.278-0.293-0.568-0.576-0.856-0.86c-0.046-0.046-0.105-0.085-0.166-0.112
		c-0.125-0.057-0.187-0.013-0.184,0.124C50.316-9.325,50.327-9.242,50.332-9.159z M51.874-4.589
		c-0.024-0.292-0.033-0.516-0.067-0.736c-0.012-0.075-0.075-0.157-0.139-0.207c-0.172-0.133-0.352-0.254-0.534-0.373
		c-0.055-0.035-0.129-0.046-0.193-0.067c-0.02,0.061-0.062,0.125-0.057,0.183c0.024,0.352,0.058,0.704,0.099,1.054
		c0.009,0.071,0.046,0.161,0.099,0.202c0.21,0.16,0.433,0.305,0.65,0.452c0.097,0.066,0.143,0.033,0.143-0.081
		C51.874-4.327,51.874-4.492,51.874-4.589z M52.049-2.037c0.023-0.011,0.046-0.021,0.069-0.031c-0.046-0.352-0.092-0.706-0.14-1.057
		c-0.006-0.033-0.028-0.071-0.057-0.09c-0.182-0.134-0.367-0.268-0.56-0.392c-0.037-0.024-0.12-0.03-0.152-0.005
		c-0.033,0.026-0.048,0.1-0.042,0.149c0.014,0.134,0.033,0.269,0.065,0.399c0.024,0.104,0.048,0.223,0.111,0.301
		c0.178,0.221,0.378,0.427,0.573,0.634C51.954-2.09,52.005-2.068,52.049-2.037z M50.629-7.253c0.055,0.177,0.074,0.363,0.161,0.508
		c0.175,0.291,0.481,0.425,0.771,0.572c0.021,0.011,0.096-0.027,0.096-0.042c-0.004-0.142,0.037-0.32-0.035-0.418
		c-0.196-0.271-0.435-0.513-0.668-0.756c-0.048-0.052-0.159-0.093-0.216-0.071C50.688-7.441,50.668-7.333,50.629-7.253z"/>
	<path fill-rule="evenodd" clip-rule="evenodd" fill="#FFFFFF" d="M53.475,7.975c0.09-0.197,0.178-0.382,0.259-0.57
		c0.321-0.743,0.484-1.515,0.493-2.329c0.024-2.259,0.062-4.518,0.116-6.776c0.028-1.191,0.094-2.381,0.159-3.57
		c0.016-0.299,0.083-0.597,0.143-0.891c0.076-0.383,0.329-0.607,0.7-0.687c0.73-0.157,1.464-0.314,2.198-0.45
		c0.721-0.133,1.444-0.249,2.169-0.354c0.833-0.122,1.669-0.225,2.504-0.333c0.609-0.08,1.219-0.159,1.828-0.228
		c0.665-0.075,1.333-0.142,2.002-0.205c0.786-0.074,1.574-0.143,2.363-0.208c0.948-0.077,1.898-0.154,2.847-0.217
		c1.116-0.073,2.234-0.13,3.352-0.195c0.643-0.039,1.288-0.069,1.931-0.123c0.28-0.023,0.492,0.027,0.68,0.265
		c0.5,0.639,1.019,1.263,1.54,1.883c0.226,0.272,0.479,0.521,0.721,0.78c0.131,0.139,0.19,0.292,0.171,0.493
		c-0.046,0.512-0.072,1.027-0.109,1.541c-0.004,0.049-0.023,0.098-0.042,0.184c-0.076-0.085-0.137-0.144-0.189-0.209
		c-0.475-0.585-0.931-1.188-1.431-1.751c-0.367-0.414-0.789-0.782-1.195-1.162c-0.079-0.076-0.188-0.132-0.293-0.169
		c-0.046-0.015-0.159,0.03-0.17,0.069c-0.046,0.156-0.063,0.319,0.071,0.452c0.037,0.037,0.072,0.077,0.114,0.106
		c0.745,0.516,1.304,1.22,1.913,1.874c0.296,0.32,0.577,0.656,0.866,0.983c0.152,0.171,0.231,0.359,0.205,0.597
		c-0.051,0.471-0.086,0.943-0.132,1.414c-0.008,0.063-0.039,0.123-0.071,0.217c-0.074-0.089-0.127-0.151-0.178-0.213
		c-0.705-0.848-1.411-1.695-2.114-2.544c-0.258-0.313-0.565-0.565-0.902-0.784c-0.079-0.05-0.168-0.152-0.275-0.044
		c-0.104,0.105-0.103,0.225-0.02,0.34c0.065,0.092,0.129,0.196,0.217,0.26c0.432,0.307,0.749,0.721,1.087,1.115
		c0.66,0.775,1.315,1.557,1.978,2.332c0.076,0.089,0.111,0.178,0.101,0.297c-0.065,0.683-0.127,1.367-0.19,2.05
		c-0.004,0.033-0.02,0.066-0.037,0.129c-0.057-0.049-0.101-0.079-0.137-0.118c-0.853-0.96-1.702-1.924-2.563-2.877
		c-0.146-0.162-0.338-0.286-0.524-0.397c-0.059-0.035-0.2,0.006-0.258,0.06c-0.039,0.036-0.03,0.175,0.009,0.236
		c0.12,0.186,0.247,0.376,0.404,0.531c0.898,0.878,1.678,1.862,2.495,2.812c0.079,0.093,0.171,0.182,0.271,0.257
		c0.104,0.08,0.157,0.172,0.148,0.305c-0.025,0.425-0.043,0.852-0.069,1.278c-0.005,0.073-0.031,0.145-0.059,0.261
		c-0.158-0.196-0.289-0.354-0.415-0.517c-0.798-1.033-1.591-2.069-2.393-3.099c-0.136-0.176-0.297-0.333-0.465-0.481
		c-0.095-0.085-0.219-0.185-0.358-0.062c-0.09,0.079-0.084,0.248,0.021,0.386c0.171,0.224,0.354,0.437,0.53,0.655
		c0.854,1.061,1.698,2.132,2.571,3.176c0.315,0.38,0.351,0.75,0.169,1.177c-0.033,0.078-0.067,0.158-0.114,0.267
		c-0.067-0.077-0.113-0.128-0.159-0.181c-0.771-0.908-1.538-1.819-2.315-2.72c-0.111-0.13-0.269-0.226-0.42-0.314
		c-0.144-0.083-0.312-0.044-0.399,0.059c-0.09,0.11-0.094,0.26,0.024,0.398c0.152,0.177,0.321,0.34,0.486,0.507
		c0.736,0.742,1.475,1.481,2.209,2.224c0.076,0.075,0.138,0.163,0.229,0.272c-0.113,0.018-0.188,0.036-0.263,0.04
		c-0.255,0.013-0.509,0.018-0.764,0.032c-0.197,0.012-0.353-0.062-0.48-0.209c-0.313-0.362-0.627-0.723-0.946-1.08
		c-0.107-0.119-0.226-0.229-0.35-0.333c-0.179-0.149-0.311-0.156-0.429-0.041c-0.135,0.131-0.164,0.409-0.043,0.542
		c0.104,0.115,0.229,0.212,0.345,0.314c0.197,0.175,0.4,0.345,0.595,0.525c0.041,0.036,0.048,0.106,0.069,0.162
		c-0.057,0.018-0.111,0.047-0.17,0.052c-1.121,0.074-2.242,0.141-3.362,0.221c-0.925,0.067-1.847,0.145-2.769,0.228
		c-0.747,0.069-1.491,0.149-2.236,0.229c-0.807,0.086-1.614,0.173-2.417,0.271c-0.733,0.088-1.466,0.191-2.197,0.287
		c-0.68,0.091-1.361,0.177-2.041,0.273c-0.664,0.093-1.327,0.192-1.991,0.289c-0.621,0.09-1.244,0.177-1.866,0.272
		c-0.585,0.092-1.169,0.194-1.754,0.29c-0.385,0.063-0.77,0.124-1.154,0.185C53.529,7.99,53.508,7.98,53.475,7.975z M55.686-2h0.005
		c0,0.65-0.002,1.3,0.002,1.951c0.002,0.301,0,0.604,0.03,0.903c0.01,0.125,0.084,0.252,0.149,0.364
		c0.021,0.037,0.109,0.051,0.164,0.046c0.023-0.002,0.041-0.083,0.054-0.13c0.009-0.029,0.005-0.062,0.007-0.093
		c0.026-0.737,0.042-1.477,0.085-2.213c0.063-1.106,0.149-2.211,0.221-3.316c0.009-0.133,0.051-0.229,0.151-0.307
		c0.251-0.193,0.535-0.328,0.847-0.372c0.431-0.061,0.868-0.086,1.301-0.135c0.067-0.008,0.161-0.047,0.189-0.099
		c0.09-0.175-0.011-0.36-0.203-0.392c-0.913-0.148-1.785-0.045-2.605,0.423c-0.27,0.154-0.407,0.345-0.402,0.669
		C55.694-3.801,55.686-2.901,55.686-2z"/>
	<path fill-rule="evenodd" clip-rule="evenodd" fill="#FFFFFF" d="M53.043,3.253c-0.024-0.178-0.055-0.354-0.068-0.534
		C52.839,0.95,52.7-0.818,52.573-2.588c-0.088-1.23-0.157-2.461-0.232-3.692c-0.037-0.618-0.067-1.237-0.102-1.855
		c-0.005-0.119-0.01-0.239-0.01-0.358c0.003-0.396,0.204-0.684,0.582-0.789c0.225-0.063,0.458-0.1,0.689-0.129
		c0.669-0.085,1.34-0.157,2.011-0.244c0.825-0.106,1.649-0.222,2.473-0.331c0.749-0.099,1.496-0.198,2.245-0.289
		c0.628-0.076,1.261-0.141,1.891-0.208c0.606-0.065,1.212-0.127,1.815-0.191c0.808-0.086,1.614-0.173,2.422-0.261
		c0.92-0.099,1.84-0.199,2.76-0.301c0.861-0.094,1.726-0.198,2.589-0.289c0.906-0.096,1.811-0.187,2.718-0.27
		c0.528-0.049,1.057-0.093,1.588-0.117c0.431-0.019,0.618,0.144,0.639,0.579c0.013,0.276-0.044,0.557-0.081,0.833
		c-0.003,0.034-0.077,0.079-0.123,0.083c-0.616,0.064-1.233,0.127-1.85,0.182c-0.688,0.061-1.379,0.117-2.067,0.169
		c-0.804,0.062-1.609,0.111-2.412,0.173c-0.93,0.072-1.858,0.142-2.785,0.232c-0.854,0.083-1.706,0.189-2.558,0.291
		c-0.894,0.106-1.787,0.214-2.679,0.33c-0.68,0.089-1.359,0.191-2.038,0.289c-0.64,0.091-1.276,0.178-1.914,0.275
		c-0.725,0.11-1.448,0.222-2.171,0.352c-0.438,0.082-0.874,0.177-1.301,0.307c-0.804,0.243-1.15,0.854-1.196,1.645
		c-0.101,1.771-0.187,3.543-0.261,5.316c-0.057,1.341-0.085,2.684-0.128,4.026c0,0.026-0.005,0.05-0.007,0.076
		C53.068,3.25,53.056,3.251,53.043,3.253z"/>
	<path fill-rule="evenodd" clip-rule="evenodd" fill="#FFFFFF" d="M57.875-10.765c-0.282,0.18-0.723,0.119-0.904-0.128
		c-0.316-0.437-0.621-0.883-0.935-1.324c-0.158-0.226-0.202-0.242-0.471-0.177c-0.117,0.028-0.233,0.066-0.378,0.109
		c0.06,0.086,0.095,0.148,0.141,0.201c0.371,0.434,0.745,0.867,1.12,1.299c0.107,0.121,0.109,0.157-0.044,0.201
		c-0.146,0.042-0.306,0.064-0.46,0.06c-0.07-0.002-0.162-0.074-0.208-0.139c-0.262-0.368-0.511-0.746-0.767-1.118
		c-0.105-0.153-0.21-0.31-0.334-0.449c-0.18-0.208-0.321-0.229-0.57-0.124c-0.132,0.056-0.186,0.161-0.134,0.289
		c0.048,0.118,0.111,0.237,0.196,0.329c0.35,0.379,0.71,0.747,1.064,1.119c0.069,0.07,0.133,0.145,0.231,0.254
		c-0.144,0.05-0.254,0.091-0.367,0.125c-0.044,0.014-0.096,0.003-0.14,0.016c-0.404,0.123-0.66-0.054-0.887-0.38
		c-0.307-0.443-0.648-0.863-0.981-1.289c-0.071-0.088-0.161-0.162-0.247-0.236c-0.083-0.071-0.161-0.051-0.231,0.026
		c-0.133,0.144-0.142,0.315-0.011,0.476c0.389,0.475,0.778,0.948,1.169,1.422c0.016,0.019,0.03,0.04,0.06,0.079
		c-0.064,0.029-0.116,0.072-0.171,0.075c-0.3,0.015-0.603,0.021-0.902,0.029c-0.138,0.003-0.238-0.062-0.311-0.173
		c-0.189-0.286-0.369-0.578-0.57-0.856c-0.092-0.126-0.211-0.24-0.34-0.328c-0.114-0.079-0.258-0.082-0.37,0.034
		c-0.111,0.113-0.129,0.254-0.017,0.396c0.229,0.288,0.465,0.572,0.719,0.839c0.15,0.16,0.189,0.312,0.096,0.505
		c-0.059,0.121-0.122,0.24-0.177,0.362c-0.06,0.131-0.148,0.132-0.249,0.056c-0.197-0.15-0.396-0.302-0.592-0.458
		c-0.155-0.123-0.295-0.267-0.459-0.373c-0.164-0.104-0.219-0.248-0.21-0.42c0.013-0.259,0.048-0.517,0.069-0.776
		c0.033-0.425,0.356-0.584,0.685-0.698c0.553-0.19,1.118-0.351,1.684-0.5c0.427-0.112,0.859-0.205,1.294-0.275
		c0.846-0.14,1.699-0.139,2.552-0.076c0.129,0.01,0.26,0.023,0.387,0.045c0.046,0.008,0.098,0.042,0.122,0.08
		c0.009,0.016-0.033,0.081-0.065,0.108c-0.225,0.198-0.221,0.193-0.046,0.429c0.295,0.396,0.583,0.797,0.871,1.197
		C57.816-10.861,57.842-10.816,57.875-10.765z"/>
	<path fill-rule="evenodd" clip-rule="evenodd" fill="#FFFFFF" d="M52.121,3.737c-0.009-0.043-0.021-0.086-0.026-0.129
		c-0.099-0.686-0.201-1.369-0.289-2.054c-0.1-0.768-0.184-1.538-0.277-2.307c-0.03-0.243-0.063-0.485-0.092-0.727
		c-0.006-0.038,0.009-0.078,0.016-0.117c0.041,0.011,0.096,0.008,0.122,0.035c0.194,0.188,0.383,0.378,0.568,0.577
		c0.033,0.037,0.051,0.104,0.051,0.157c-0.001,1.463-0.005,2.926-0.01,4.387c0,0.06-0.008,0.119-0.011,0.178
		C52.155,3.736,52.139,3.736,52.121,3.737z"/>
	<path fill-rule="evenodd" clip-rule="evenodd" fill="#FFFFFF" d="M50.332-9.159c-0.005-0.083-0.016-0.166-0.018-0.249
		c-0.003-0.137,0.059-0.181,0.184-0.124c0.061,0.027,0.12,0.066,0.166,0.112c0.288,0.284,0.578,0.567,0.856,0.86
		c0.157,0.165,0.196,0.753,0.071,0.947c-0.016,0.027-0.101,0.042-0.133,0.024c-0.196-0.107-0.38-0.235-0.575-0.336
		c-0.306-0.158-0.487-0.385-0.498-0.74c-0.006-0.165-0.039-0.329-0.061-0.494C50.329-9.158,50.331-9.158,50.332-9.159z"/>
	<path fill-rule="evenodd" clip-rule="evenodd" fill="#FFFFFF" d="M51.874-4.589c0,0.097,0,0.262,0,0.429
		c0,0.113-0.046,0.147-0.143,0.081c-0.218-0.147-0.44-0.292-0.65-0.452c-0.053-0.042-0.09-0.131-0.099-0.202
		c-0.041-0.351-0.074-0.702-0.099-1.054c-0.006-0.059,0.037-0.122,0.057-0.183c0.064,0.021,0.139,0.032,0.193,0.067
		c0.183,0.118,0.362,0.239,0.534,0.373c0.063,0.049,0.127,0.132,0.139,0.207C51.841-5.105,51.85-4.882,51.874-4.589z"/>
	<path fill-rule="evenodd" clip-rule="evenodd" fill="#FFFFFF" d="M52.049-2.037c-0.044-0.031-0.095-0.053-0.131-0.092
		c-0.195-0.207-0.396-0.413-0.573-0.634c-0.063-0.079-0.087-0.197-0.111-0.301c-0.032-0.13-0.052-0.265-0.065-0.399
		c-0.006-0.049,0.009-0.124,0.042-0.149c0.032-0.024,0.115-0.019,0.152,0.005c0.192,0.125,0.378,0.258,0.56,0.392
		c0.028,0.02,0.051,0.058,0.057,0.09c0.048,0.351,0.094,0.705,0.14,1.057C52.095-2.057,52.072-2.047,52.049-2.037z"/>
	<path fill-rule="evenodd" clip-rule="evenodd" fill="#FFFFFF" d="M50.629-7.253c0.039-0.08,0.059-0.188,0.109-0.208
		c0.057-0.022,0.168,0.02,0.216,0.071c0.233,0.243,0.472,0.485,0.668,0.756c0.072,0.098,0.031,0.276,0.035,0.418
		c0,0.015-0.074,0.053-0.096,0.042c-0.29-0.146-0.597-0.281-0.771-0.572C50.703-6.891,50.684-7.076,50.629-7.253z"/>
	<path fill-rule="evenodd" clip-rule="evenodd" fill="#2C3962" d="M55.686-2c0-0.901,0.009-1.801-0.006-2.7
		c-0.005-0.324,0.133-0.515,0.402-0.669c0.82-0.468,1.692-0.571,2.605-0.423c0.192,0.032,0.293,0.217,0.203,0.392
		c-0.028,0.052-0.122,0.091-0.189,0.099c-0.433,0.049-0.87,0.074-1.301,0.135c-0.312,0.044-0.596,0.178-0.847,0.372
		c-0.101,0.078-0.143,0.174-0.151,0.307c-0.071,1.105-0.157,2.21-0.221,3.316c-0.043,0.736-0.059,1.476-0.085,2.213
		c-0.002,0.031,0.002,0.064-0.007,0.093c-0.013,0.047-0.03,0.127-0.054,0.13c-0.055,0.005-0.143-0.009-0.164-0.046
		c-0.065-0.112-0.14-0.238-0.149-0.364c-0.03-0.299-0.028-0.602-0.03-0.903C55.688-0.7,55.69-1.351,55.69-2H55.686z"/>
</g>
<path fill-rule="evenodd" clip-rule="evenodd" fill="#2C3962" d="M81.895,71.898c-0.041,0.037,0.024-0.098,0.027-0.134
	c0.013-0.094,0.028-0.193,0.021-0.288c-0.002-0.038-0.007-0.076-0.009-0.115c-0.777,0.49-1.383,1.134-1.764,1.993
	c-0.389,0.875-0.698,1.773-0.919,2.705c-0.203,0.858-0.306,1.729-0.344,2.607c-0.015,0.316,0.009,0.635,0.029,0.953
	c0.009,0.173,0.124,0.277,0.29,0.325c0.345,0.1,0.687-0.148,0.703-0.522c0.012-0.306-0.004-0.611,0.012-0.917
	c0.054-1.019,0.246-2.013,0.576-2.977c0.228-0.661,0.45-1.327,0.828-1.927c0.164-0.262,0.354-0.496,0.568-0.711
	C81.657,72.653,81.559,72.207,81.895,71.898z"/>
<path fill-rule="evenodd" clip-rule="evenodd" fill="#2C3962" d="M84.178,75.086c-0.336-0.983-0.867-1.825-1.759-2.404
	c-0.062-0.04-0.119-0.142-0.119-0.214c-0.005-1.449-0.035-2.902,0.009-4.351c0.034-1.124,0.176-2.242,0.246-3.364
	c0.057-0.885,0.046-1.77-0.264-2.618c-0.051-0.142-0.037-0.186,0.1-0.24c0.483-0.19,0.962-0.389,1.436-0.599
	c0.448-0.198,0.531-0.564,0.225-0.931c-0.606-0.721-1.356-1.236-2.226-1.592c-1.252-0.511-2.591-0.696-3.894-1.007
	c-0.738-0.176-1.482-0.335-2.222-0.504c-0.74-0.168-1.48-0.342-2.22-0.512c-0.74-0.168-1.48-0.333-2.221-0.5
	c-0.754-0.17-1.506-0.344-2.26-0.509c-0.818-0.179-1.636-0.368-2.457-0.518c-0.516-0.092-1.043-0.172-1.564-0.158
	c-1.031,0.027-1.992,0.386-2.932,0.785c-1.245,0.528-2.444,1.169-3.745,1.559c-0.727,0.218-1.446,0.457-2.18,0.651
	c-0.732,0.193-1.475,0.356-2.22,0.503c-0.841,0.166-1.685,0.317-2.532,0.437c-0.843,0.119-1.69,0.214-2.54,0.278
	c-0.913,0.066-1.829,0.09-2.742,0.123c-0.231,0.01-0.445,0.146-0.485,0.346c-0.057,0.281,0.083,0.599,0.311,0.663
	c0.161,0.046,0.328,0.066,0.496,0.084c0.367,0.038,0.74,0.047,1.105,0.106c0.806,0.133,1.616,0.258,2.412,0.441
	c1.035,0.24,2.058,0.534,3.086,0.806c0.146,0.039,0.213,0.114,0.217,0.286c0.074,3.579-0.02,7.154-0.152,10.729
	c-0.014,0.371-0.036,0.742-0.084,1.109c-0.106,0.778-0.247,1.553-0.341,2.333c-0.085,0.703-0.12,1.414,0.053,2.113
	c0.085,0.343,0.207,0.678,0.503,0.9c0.096,0.072,0.237,0.14,0.349,0.126c0.229-0.028,0.471-0.076,0.673-0.184
	c0.335-0.175,0.653-0.392,0.962-0.612c1.197-0.857,2.525-1.412,3.967-1.665c0.798-0.14,1.61-0.22,2.419-0.264
	c1.734-0.095,3.469-0.171,5.204-0.215c1.446-0.035,2.884,0.102,4.303,0.396c1.235,0.256,2.421,0.67,3.549,1.243
	c0.465,0.238,0.788,0.05,0.823-0.474c0.03-0.445,0.039-0.896,0.092-1.342c0.127-1.109,0.269-2.218,0.413-3.326
	c0.069-0.528,0.161-1.054,0.235-1.58c0.118-0.837,0.242-1.671,0.341-2.511c0.086-0.742,0.175-1.487,0.205-2.232
	c0.035-0.854,0.009-1.712,0.009-2.571c0.07-0.031,0.136-0.062,0.199-0.089c1.077-0.411,2.154-0.82,3.231-1.233
	c0.129-0.05,0.229-0.047,0.29,0.089c0.138,0.32,0.304,0.633,0.4,0.966c0.283,0.958,0.242,2.129,0.279,3.121
	c0.069,1.819,0.103,3.483,0.127,5.304c0,0.044-0.021,0.096-0.049,0.141c0.141,0.53,0.275,1.119,0.162,1.651
	c-0.059,1.352-0.118,2.702-0.175,4.054c-0.013,0.305-0.018,0.61-0.02,0.915c0,0.21,0.129,0.38,0.318,0.444
	c0.434,0.149,0.77-0.091,0.77-0.554c0.002-1.6,0-3.2,0-4.801v-0.25c0.069,0.063,0.097,0.085,0.122,0.111
	c0.529,0.587,0.8,1.301,0.964,2.055c0.203,0.933,0.255,1.879,0.21,2.831c-0.016,0.352-0.038,0.702-0.047,1.054
	c-0.008,0.215,0.116,0.366,0.313,0.406c0.43,0.089,0.755-0.154,0.773-0.59c0.019-0.333,0.02-0.664,0.025-0.996
	C84.676,77.498,84.578,76.271,84.178,75.086z M75.639,65.189c-0.12,1.033-0.24,2.066-0.369,3.1c-0.111,0.891-0.231,1.781-0.35,2.673
	c-0.111,0.84-0.219,1.68-0.341,2.519c-0.143,0.958-0.306,1.914-0.455,2.87c-0.023,0.137-0.083,0.152-0.2,0.097
	c-1.266-0.596-2.608-0.901-3.991-1.056c-1.825-0.202-3.649-0.135-5.478-0.007c-1.268,0.089-2.536,0.158-3.802,0.256
	c-0.696,0.055-1.397,0.11-2.083,0.236c-0.459,0.085-0.9,0.283-1.342,0.451c-0.915,0.349-1.82,0.718-2.661,1.227
	c-0.182,0.11-0.348,0.249-0.531,0.384c-0.008-0.046-0.017-0.093-0.018-0.141c-0.083-1.78-0.025-3.559,0.058-5.338
	c0.146-3.124,0.428-6.244,0.441-9.375c0.002-0.256,0.002-0.511,0.002-0.818c0.192,0.067,0.356,0.118,0.518,0.183
	c0.858,0.346,1.743,0.642,2.567,1.057c0.837,0.419,1.621,0.949,2.42,1.446c0.813,0.506,1.621,1.025,2.517,1.385
	c0.651,0.26,1.328,0.324,2.017,0.318c1.315-0.011,2.624-0.124,3.926-0.333c1.449-0.232,2.878-0.562,4.289-0.963
	c0.952-0.271,1.89-0.593,2.837-0.89c0.016-0.006,0.037-0.002,0.084-0.002C75.676,64.713,75.667,64.953,75.639,65.189z
	 M81.415,61.169c-0.185,0.035-0.394-0.06-0.593-0.067c-0.524-0.018-1.055-0.06-1.577-0.02c-0.662,0.051-1.312-0.007-1.966-0.07
	c-1.025-0.101-2.05-0.219-3.074-0.346c-0.728-0.092-1.452-0.207-2.174-0.326c-0.896-0.146-1.789-0.301-2.681-0.468
	c-0.756-0.143-1.507-0.308-2.261-0.465c-0.36-0.076-0.719-0.165-1.079-0.238c-0.28-0.057-0.575,0.136-0.645,0.405
	c-0.065,0.265,0.07,0.677,0.394,0.744c0.943,0.194,1.887,0.391,2.833,0.571c0.902,0.171,1.809,0.34,2.716,0.482
	c1.062,0.169,2.128,0.316,3.196,0.46c0.867,0.115,1.74,0.213,2.608,0.314c0.401,0.047,0.802,0.08,1.203,0.12
	c0.12,0.012-0.007-0.046,0.12,0.012c0,0-0.179,0.081-0.214,0.092c-1.105,0.33-1.84,0.494-2.949,0.808
	c-0.795,0.225-1.599,0.419-2.401,0.611c-0.797,0.193-1.595,0.383-2.398,0.55c-1.038,0.217-2.08,0.419-3.124,0.607
	c-0.528,0.094-1.065,0.173-1.602,0.205c-1.371,0.089-2.651-0.249-3.86-0.822c-1.085-0.514-2.145-1.069-3.227-1.584
	c-1.528-0.72-3.106-1.329-4.747-1.788c-1.048-0.292-2.11-0.539-3.168-0.807c-0.063-0.018-0.128-0.042-0.186-0.094
	c0.201-0.03,0.404-0.058,0.605-0.092c1.383-0.248,2.778-0.447,4.143-0.759c1.496-0.341,2.978-0.749,4.441-1.196
	c1.42-0.434,2.807-0.964,4.216-1.425c0.387-0.128,0.807-0.218,1.215-0.226c0.668-0.015,1.346-0.002,2.001,0.098
	c1.042,0.16,2.075,0.378,3.1,0.619c0.922,0.217,1.824,0.509,2.74,0.749c0.836,0.22,1.676,0.423,2.519,0.615
	c0.959,0.216,1.922,0.42,2.884,0.617c0.57,0.118,1.145,0.215,1.719,0.318c0.759,0.14,1.363,0.511,1.833,1.074
	c0.105,0.127,0.197,0.265,0.314,0.422C81.98,60.981,81.707,61.113,81.415,61.169z"/>
<path fill-rule="evenodd" clip-rule="evenodd" fill="#FFFFFF" d="M53.742,78.129c-0.005-0.046-0.016-0.095-0.018-0.143
	c-0.084-1.802-0.024-3.603,0.061-5.401c0.148-3.164,0.435-6.32,0.448-9.49c0-0.258,0-0.518,0-0.828
	c0.194,0.068,0.362,0.119,0.526,0.184c0.869,0.351,1.766,0.651,2.602,1.07c0.85,0.425,1.643,0.962,2.451,1.464
	c0.824,0.514,1.643,1.037,2.552,1.4c0.66,0.265,1.344,0.33,2.043,0.324c1.335-0.011,2.66-0.127,3.979-0.338
	c1.47-0.235,2.918-0.567,4.347-0.974c0.966-0.275,1.916-0.6,2.875-0.902c0.018-0.006,0.037,0,0.086,0
	c-0.02,0.248-0.028,0.489-0.057,0.73c-0.119,1.045-0.243,2.091-0.372,3.137c-0.113,0.901-0.236,1.803-0.355,2.705
	c-0.114,0.85-0.221,1.702-0.346,2.551c-0.145,0.968-0.308,1.936-0.463,2.903c-0.021,0.139-0.081,0.154-0.201,0.099
	c-1.282-0.604-2.642-0.912-4.044-1.069c-1.851-0.205-3.7-0.136-5.553-0.007c-1.283,0.09-2.569,0.161-3.853,0.26
	c-0.705,0.054-1.415,0.11-2.11,0.239c-0.465,0.086-0.913,0.285-1.362,0.456c-0.925,0.354-1.844,0.727-2.694,1.241
	C54.098,77.853,53.93,77.993,53.742,78.129z"/>
<path fill-rule="evenodd" clip-rule="evenodd" fill="#FFFFFF" d="M82.29,60.943c-0.31,0.116-0.583,0.259-0.875,0.319
	c-0.185,0.037-0.394-0.065-0.593-0.072c-0.524-0.02-1.055-0.064-1.577-0.021c-0.662,0.055-1.312-0.009-1.966-0.076
	c-1.025-0.108-2.05-0.234-3.074-0.374c-0.728-0.098-1.452-0.223-2.174-0.351c-0.896-0.158-1.789-0.324-2.681-0.505
	c-0.756-0.153-1.507-0.332-2.261-0.502c-0.36-0.082-0.719-0.177-1.079-0.257c-0.28-0.061-0.575,0.147-0.645,0.438
	c-0.065,0.286,0.079,0.505,0.402,0.577c0.943,0.211,1.888,0.423,2.835,0.617c0.902,0.185,1.807,0.366,2.714,0.521
	c1.063,0.181,2.13,0.341,3.196,0.495c0.869,0.125,1.74,0.231,2.61,0.34c0.399,0.05,0.8,0.086,1.201,0.13
	c0.12,0.014,0.24,0.03,0.363,0.092c-0.033,0.02-0.065,0.044-0.103,0.055c-1.104,0.357-2.203,0.724-3.312,1.061
	c-0.795,0.242-1.599,0.451-2.401,0.661c-0.797,0.208-1.595,0.412-2.398,0.592c-1.038,0.232-2.08,0.452-3.124,0.654
	c-0.528,0.103-1.065,0.187-1.602,0.224c-1.371,0.095-2.651-0.271-3.86-0.889c-1.085-0.554-2.145-1.153-3.227-1.707
	c-1.528-0.779-3.106-1.436-4.747-1.929c-1.048-0.316-2.11-0.583-3.168-0.872c-0.063-0.018-0.128-0.045-0.186-0.101
	c0.201-0.033,0.404-0.062,0.605-0.1c1.383-0.268,2.778-0.481,4.143-0.817c1.496-0.368,2.978-0.81,4.441-1.291
	c1.42-0.467,2.807-1.039,4.216-1.538c0.387-0.137,0.807-0.234,1.215-0.243c0.668-0.015,1.346-0.001,2.001,0.106
	c1.042,0.173,2.075,0.407,3.1,0.667c0.922,0.234,1.824,0.55,2.74,0.81c0.836,0.235,1.676,0.455,2.519,0.662
	c0.959,0.234,1.922,0.453,2.884,0.666c0.57,0.127,1.145,0.231,1.719,0.345c0.759,0.148,1.363,0.55,1.833,1.157
	C82.081,60.625,82.173,60.772,82.29,60.943z"/>
<path fill-rule="evenodd" clip-rule="evenodd" fill="#2C3962" d="M76.519,64.351c-0.032-0.224-0.085-0.415-0.161-0.575
	c-0.492,0.132-0.99,0.242-1.49,0.345c0.044,0.019,0.081,0.043,0.106,0.073c0.187,0.237,0.354,0.486,0.517,0.742
	c0.045,0.069,0.059,0.17,0.061,0.257c0.005,0.27,0.002,0.538-0.004,0.808c-0.003,0.091-0.024,0.182-0.037,0.272
	c-0.014,0.001-0.028,0.002-0.04,0.003c-0.177-0.217-0.354-0.435-0.528-0.653c-0.354-0.436-0.705-0.87-1.053-1.308
	c-0.143,0.027-0.284,0.058-0.426,0.085c0.412,0.523,0.836,1.036,1.263,1.546c0.188,0.221,0.393,0.427,0.592,0.639
	c0.107,0.114,0.157,0.24,0.142,0.404c-0.039,0.42-0.061,0.843-0.09,1.265c-0.004,0.04-0.02,0.08-0.036,0.15
	c-0.062-0.069-0.11-0.118-0.153-0.172c-0.392-0.48-0.765-0.975-1.176-1.438c-0.302-0.341-0.648-0.641-0.98-0.953
	c-0.065-0.063-0.155-0.109-0.24-0.14c-0.039-0.013-0.131,0.025-0.14,0.056c-0.038,0.129-0.051,0.264,0.059,0.372
	c0.03,0.03,0.059,0.063,0.092,0.087c0.613,0.423,1.072,1.001,1.57,1.537c0.245,0.263,0.473,0.539,0.711,0.807
	c0.126,0.141,0.191,0.295,0.17,0.49c-0.042,0.386-0.07,0.773-0.109,1.159c-0.004,0.053-0.032,0.102-0.059,0.179
	c-0.06-0.071-0.104-0.123-0.145-0.175c-0.579-0.695-1.16-1.391-1.734-2.089c-0.214-0.256-0.466-0.462-0.741-0.643
	c-0.065-0.041-0.138-0.124-0.227-0.036c-0.086,0.087-0.085,0.185-0.016,0.279c0.055,0.075,0.105,0.16,0.18,0.213
	c0.352,0.253,0.611,0.593,0.889,0.917c0.544,0.636,1.081,1.277,1.625,1.913c0.062,0.074,0.092,0.147,0.081,0.243
	c-0.053,0.562-0.104,1.122-0.155,1.683c-0.004,0.029-0.017,0.054-0.032,0.105c-0.046-0.039-0.081-0.063-0.111-0.096
	c-0.699-0.788-1.396-1.58-2.104-2.361c-0.12-0.133-0.276-0.234-0.433-0.326c-0.047-0.028-0.162,0.005-0.21,0.05
	c-0.031,0.03-0.024,0.144,0.007,0.193c0.1,0.153,0.203,0.31,0.332,0.437c0.738,0.721,1.376,1.528,2.049,2.308
	c0.065,0.077,0.14,0.149,0.221,0.211c0.087,0.065,0.129,0.141,0.124,0.251c-0.021,0.349-0.037,0.699-0.059,1.048
	c-0.004,0.06-0.026,0.119-0.048,0.215c-0.129-0.161-0.238-0.291-0.341-0.424c-0.655-0.849-1.305-1.698-1.964-2.543
	c-0.111-0.144-0.243-0.274-0.379-0.396c-0.08-0.068-0.181-0.151-0.295-0.05c-0.074,0.064-0.071,0.203,0.018,0.316
	c0.141,0.184,0.289,0.358,0.434,0.538c0.701,0.869,1.394,1.749,2.11,2.607c0.258,0.312,0.288,0.615,0.14,0.966
	c-0.028,0.064-0.057,0.13-0.094,0.219c-0.056-0.062-0.093-0.104-0.13-0.148c-0.633-0.745-1.263-1.492-1.902-2.231
	c-0.09-0.106-0.221-0.187-0.345-0.258c-0.116-0.068-0.256-0.036-0.326,0.049c-0.074,0.09-0.076,0.211,0.021,0.326
	c0.123,0.146,0.261,0.28,0.396,0.415c0.604,0.61,1.21,1.217,1.814,1.827c0.062,0.062,0.112,0.133,0.188,0.222
	c-0.096,0.015-0.155,0.03-0.215,0.032c-0.212,0.013-0.421,0.017-0.629,0.028c-0.163,0.01-0.288-0.051-0.395-0.173
	c-0.258-0.296-0.514-0.594-0.776-0.885c-0.087-0.099-0.186-0.189-0.286-0.274c-0.146-0.121-0.256-0.128-0.354-0.032
	c-0.109,0.105-0.134,0.336-0.033,0.445c0.085,0.094,0.186,0.173,0.282,0.258c0.163,0.143,0.33,0.282,0.487,0.43
	c0.034,0.031,0.039,0.088,0.059,0.133c-0.048,0.014-0.094,0.039-0.142,0.042c-0.205,0.014-0.411,0.027-0.618,0.041l0.002,0.001
	c0.101,0.021,0.201,0.069,0.297,0.149c0.579,0.479,0.972,0.521,1.699,0.594c0.656,0.065,1.379,0.163,1.857-0.382
	c0.02-0.021,0.037-0.039,0.057-0.058c0.177-0.58,0.252-1.18,0.341-1.777c0.065-0.438,0.118-0.88,0.175-1.318
	c0.063-0.483,0.125-0.966,0.184-1.448c0.062-0.496,0.116-0.993,0.175-1.489c0.06-0.52,0.125-1.042,0.182-1.562
	c0.062-0.557,0.122-1.112,0.173-1.669c0.061-0.646,0.111-1.292,0.163-1.889C76.573,64.986,76.566,64.665,76.519,64.351z"/>
<path fill-rule="evenodd" clip-rule="evenodd" fill="#2C3962" d="M74.786,125.545c0,0.97-0.15,1.907-0.343,2.84
	c-0.256,1.228-0.57,2.442-0.994,3.622c-0.328,0.914-0.725,1.814-1.18,2.68c-1.27,2.405-2.586,4.788-3.887,7.177
	c-0.369,0.676-0.731,1.356-1.127,2.018c-0.299,0.497-0.678,0.939-1.201,1.252c-0.597,0.354-1.18,0.33-1.743-0.065
	c-0.562-0.393-0.94-0.925-1.283-1.485c-0.915-1.493-1.697-3.052-2.457-4.617c-0.639-1.313-1.274-2.628-1.866-3.959
	c-0.694-1.559-1.36-3.127-2.001-4.705c-0.397-0.975-0.688-1.984-0.897-3.013c-0.245-1.188-0.324-2.387-0.143-3.588
	c0.201-1.35,0.745-2.566,1.643-3.639c1.07-1.274,2.379-2.267,3.943-2.947c0.841-0.363,1.716-0.621,2.644-0.691
	c0.356-0.027,0.713-0.061,1.07-0.051c0.811,0.021,1.593,0.201,2.355,0.459c1.819,0.617,3.389,1.592,4.703,2.927
	c1.062,1.078,1.903,2.294,2.447,3.678C74.74,124.118,74.799,124.837,74.786,125.545z M69.546,136.777
	c0.094-0.095,0.156-0.138,0.186-0.197c0.137-0.245,0.264-0.495,0.396-0.744c0.113-0.211,0.078-0.4-0.066-0.586
	c-0.083-0.108-0.152-0.228-0.207-0.35c-0.332-0.728-0.66-1.456-0.985-2.185c-0.103-0.227-0.205-0.455-0.293-0.685
	c-0.046-0.118-0.063-0.239,0.07-0.335c0.142-0.097,0.272-0.058,0.369,0.037c0.116,0.112,0.235,0.242,0.297,0.386
	c0.391,0.901,0.765,1.808,1.145,2.714c0.07,0.161,0.125,0.179,0.243,0.042c0.115-0.136,0.207-0.292,0.316-0.437
	c0.099-0.132,0.103-0.269,0.03-0.409c-0.212-0.416-0.445-0.82-0.643-1.239c-0.347-0.722-0.675-1.449-1.007-2.176
	c-0.129-0.285-0.05-0.574,0.188-0.717c0.175-0.104,0.299-0.088,0.401,0.08c0.085,0.138,0.155,0.287,0.205,0.438
	c0.256,0.806,0.499,1.613,0.759,2.418c0.085,0.265,0.207,0.52,0.318,0.776c0.046,0.113,0.132,0.118,0.204,0.027
	c0.096-0.118,0.186-0.243,0.266-0.371c0.25-0.407,0.256-0.791-0.039-1.204c-0.231-0.323-0.408-0.689-0.567-1.055
	c-0.167-0.385-0.267-0.797-0.427-1.186c-0.188-0.451-0.41-0.893-0.613-1.339c-0.109-0.237-0.02-0.408,0.247-0.414
	c0.101-0.003,0.237,0.065,0.301,0.144c0.164,0.201,0.352,0.411,0.436,0.646c0.276,0.765,0.511,1.543,0.758,2.315
	c0.074,0.236,0.135,0.476,0.216,0.71c0.018,0.058,0.085,0.102,0.129,0.15c0.039-0.048,0.088-0.093,0.114-0.147
	c0.05-0.106,0.085-0.221,0.133-0.33c0.184-0.425,0.245-0.842,0.048-1.292c-0.256-0.589-0.461-1.196-0.71-1.788
	c-0.318-0.755-0.659-1.501-0.987-2.251c-0.042-0.095-0.072-0.196-0.083-0.293c-0.011-0.122,0.052-0.222,0.179-0.268
	c0.12-0.047,0.21,0.012,0.284,0.092c0.051,0.058,0.103,0.12,0.129,0.188c0.231,0.553,0.483,1.097,0.676,1.661
	c0.277,0.815,0.509,1.644,0.764,2.465c0.012,0.04,0.042,0.075,0.077,0.128c0.035-0.046,0.057-0.062,0.069-0.085
	c0.021-0.036,0.048-0.075,0.058-0.116c0.115-0.453,0.212-0.909,0.351-1.355c0.081-0.255-0.019-0.434-0.168-0.618
	c-0.142-0.174-0.284-0.346-0.421-0.527c-0.092-0.127-0.194-0.256-0.243-0.4c-0.17-0.5-0.304-1.01-0.476-1.507
	c-0.199-0.566-0.342-1.166-0.881-1.564c-0.009-0.005-0.015-0.016-0.021-0.024c-0.092-0.121-0.066-0.192,0.085-0.238
	c0.253-0.077,0.574,0.015,0.729,0.257c0.168,0.259,0.312,0.534,0.428,0.818c0.285,0.715,0.545,1.438,0.826,2.155
	c0.072,0.186,0.186,0.355,0.28,0.532c0.018-0.006,0.041-0.012,0.059-0.017c0.011-0.071,0.032-0.144,0.03-0.214
	c-0.009-0.397-0.026-0.795-0.035-1.191c-0.011-0.441-0.067-0.864-0.269-1.279c-0.458-0.943-0.837-1.92-1.418-2.809
	c-0.101-0.156-0.146-0.325,0.007-0.491c0.031-0.034,0.031-0.131,0.002-0.17c-0.201-0.285-0.391-0.582-0.625-0.84
	c-1.484-1.63-3.327-2.616-5.627-2.812c-1.534-0.132-3.002,0.064-4.406,0.664c-1.243,0.528-2.244,1.334-2.995,2.407
	c-0.787,1.124-1.182,2.383-1.317,3.712c-0.125,1.234-0.022,2.457,0.277,3.664c0.253,1.013,0.599,2.001,1.037,2.953
	c0.641,1.388,1.307,2.765,1.979,4.142c1.079,2.216,2.172,4.427,3.258,6.641c0.098,0.2,0.198,0.402,0.297,0.6
	c0.032-0.049,0.042-0.092,0.032-0.129c-0.168-0.573-0.343-1.145-0.502-1.72c-0.106-0.377-0.199-0.76-0.275-1.143
	c-0.026-0.126-0.009-0.271,0.031-0.394c0.065-0.188,0.277-0.208,0.393-0.042c0.065,0.092,0.122,0.197,0.15,0.304
	c0.127,0.494,0.254,0.988,0.363,1.487c0.142,0.656,0.249,1.32,0.399,1.975c0.079,0.343,0.188,0.685,0.334,1.007
	c0.111,0.246,0.342,0.401,0.655,0.377c0.213-0.016,0.273-0.112,0.185-0.291c-0.029-0.064-0.06-0.127-0.099-0.185
	c-0.326-0.472-0.487-1.005-0.603-1.545c-0.121-0.583-0.162-1.181-0.284-1.763c-0.109-0.528-0.28-1.047-0.431-1.567
	c-0.037-0.122,0-0.224,0.133-0.262c0.175-0.049,0.358,0.005,0.439,0.184c0.115,0.248,0.214,0.508,0.271,0.773
	c0.098,0.444,0.156,0.899,0.239,1.347c0.099,0.55,0.195,1.102,0.315,1.647c0.074,0.339,0.174,0.676,0.284,1.008
	c0.085,0.252,0.214,0.27,0.419,0.08c0.392-0.36,0.463-0.765,0.295-1.262c-0.253-0.75-0.439-1.518-0.66-2.276
	c-0.174-0.596-0.355-1.185-0.524-1.778c-0.062-0.206-0.113-0.416-0.14-0.627c-0.009-0.075,0.051-0.214,0.107-0.229
	c0.083-0.021,0.212,0.017,0.286,0.072c0.087,0.066,0.146,0.175,0.199,0.274c0.441,0.832,0.583,1.74,0.755,2.644
	c0.101,0.528,0.19,1.058,0.289,1.586c0.013,0.062,0.061,0.121,0.09,0.182c0.063-0.038,0.152-0.063,0.186-0.12
	c0.205-0.323,0.412-0.651,0.59-0.99c0.127-0.238,0.065-0.461-0.083-0.696c-0.291-0.473-0.521-0.975-0.658-1.51
	c-0.155-0.604-0.304-1.208-0.572-1.781c-0.108-0.227-0.133-0.464-0.044-0.705c0.079-0.219,0.311-0.273,0.479-0.107
	c0.056,0.054,0.106,0.118,0.131,0.188c0.098,0.267,0.2,0.534,0.269,0.81c0.172,0.704,0.318,1.416,0.494,2.118
	c0.056,0.222,0.163,0.434,0.262,0.642c0.065,0.131,0.131,0.126,0.223,0.009c0.055-0.074,0.111-0.148,0.166-0.225
	c0.173-0.246,0.229-0.519,0.143-0.799c-0.203-0.646-0.429-1.288-0.634-1.934c-0.217-0.682-0.45-1.357-0.785-1.998
	c-0.071-0.134-0.041-0.257,0.083-0.345c0.125-0.091,0.268-0.092,0.394,0.003c0.076,0.061,0.143,0.139,0.192,0.222
	c0.325,0.548,0.518,1.137,0.625,1.757c0.087,0.484,0.19,0.969,0.299,1.45c0.022,0.11,0.081,0.213,0.14,0.36
	c0.081-0.096,0.146-0.146,0.173-0.21c0.143-0.337,0.28-0.677,0.407-1.021c0.043-0.112,0.036-0.235-0.075-0.327
	c-0.484-0.402-0.618-0.962-0.728-1.521c-0.109-0.55-0.177-1.105-0.52-1.584c-0.037-0.057-0.051-0.131-0.065-0.198
	c-0.039-0.175,0.062-0.394,0.196-0.446c0.122-0.048,0.26,0.021,0.39,0.196c0.22,0.298,0.312,0.641,0.395,0.987
	c0.145,0.589,0.275,1.181,0.427,1.77C69.362,136.393,69.454,136.559,69.546,136.777z"/>
<path fill-rule="evenodd" clip-rule="evenodd" fill="#FFFFFF" d="M69.546,136.777c-0.092-0.219-0.184-0.385-0.229-0.562
	c-0.151-0.589-0.282-1.181-0.427-1.77c-0.083-0.347-0.175-0.689-0.395-0.987c-0.13-0.176-0.268-0.244-0.39-0.196
	c-0.135,0.053-0.235,0.271-0.196,0.446c0.015,0.067,0.028,0.142,0.065,0.198c0.343,0.479,0.41,1.034,0.52,1.584
	c0.109,0.559,0.243,1.118,0.728,1.521c0.111,0.092,0.118,0.215,0.075,0.327c-0.127,0.344-0.265,0.684-0.407,1.021
	c-0.026,0.064-0.092,0.114-0.173,0.21c-0.059-0.147-0.117-0.25-0.14-0.36c-0.108-0.481-0.212-0.966-0.299-1.45
	c-0.107-0.62-0.3-1.209-0.625-1.757c-0.05-0.083-0.116-0.161-0.192-0.222c-0.126-0.095-0.269-0.094-0.394-0.003
	c-0.124,0.088-0.154,0.211-0.083,0.345c0.335,0.641,0.568,1.316,0.785,1.998c0.205,0.646,0.431,1.287,0.634,1.934
	c0.087,0.28,0.03,0.553-0.143,0.799c-0.055,0.076-0.111,0.15-0.166,0.225c-0.092,0.117-0.157,0.122-0.223-0.009
	c-0.099-0.208-0.206-0.42-0.262-0.642c-0.176-0.702-0.322-1.414-0.494-2.118c-0.068-0.275-0.171-0.543-0.269-0.81
	c-0.024-0.069-0.075-0.134-0.131-0.188c-0.169-0.166-0.4-0.111-0.479,0.107c-0.089,0.241-0.064,0.479,0.044,0.705
	c0.269,0.573,0.417,1.177,0.572,1.781c0.138,0.535,0.367,1.037,0.658,1.51c0.148,0.235,0.21,0.458,0.083,0.696
	c-0.178,0.339-0.385,0.667-0.59,0.99c-0.033,0.057-0.122,0.082-0.186,0.12c-0.029-0.061-0.077-0.12-0.09-0.182
	c-0.099-0.528-0.188-1.058-0.289-1.586c-0.172-0.903-0.313-1.812-0.755-2.644c-0.053-0.1-0.112-0.208-0.199-0.274
	c-0.074-0.056-0.203-0.093-0.286-0.072c-0.057,0.015-0.116,0.153-0.107,0.229c0.026,0.211,0.077,0.421,0.14,0.627
	c0.169,0.594,0.351,1.183,0.524,1.778c0.221,0.759,0.407,1.526,0.66,2.276c0.168,0.497,0.097,0.901-0.295,1.262
	c-0.205,0.189-0.334,0.172-0.419-0.08c-0.11-0.332-0.21-0.669-0.284-1.008c-0.12-0.546-0.217-1.098-0.315-1.647
	c-0.083-0.447-0.142-0.902-0.239-1.347c-0.058-0.266-0.156-0.525-0.271-0.773c-0.081-0.179-0.265-0.232-0.439-0.184
	c-0.133,0.038-0.17,0.14-0.133,0.262c0.15,0.521,0.321,1.039,0.431,1.567c0.122,0.582,0.163,1.18,0.284,1.763
	c0.115,0.54,0.276,1.073,0.603,1.545c0.039,0.058,0.069,0.12,0.099,0.185c0.089,0.179,0.028,0.275-0.185,0.291
	c-0.313,0.024-0.544-0.131-0.655-0.377c-0.146-0.322-0.255-0.664-0.334-1.007c-0.15-0.654-0.258-1.318-0.399-1.975
	c-0.109-0.499-0.236-0.993-0.363-1.487c-0.028-0.106-0.085-0.212-0.15-0.304c-0.115-0.166-0.327-0.146-0.393,0.042
	c-0.04,0.122-0.058,0.268-0.031,0.394c0.076,0.383,0.169,0.766,0.275,1.143c0.159,0.575,0.334,1.146,0.502,1.72
	c0.01,0.037,0,0.08-0.032,0.129c-0.099-0.197-0.199-0.399-0.297-0.6c-1.086-2.214-2.179-4.425-3.258-6.641
	c-0.673-1.377-1.339-2.754-1.979-4.142c-0.438-0.952-0.784-1.94-1.037-2.953c-0.3-1.207-0.402-2.43-0.277-3.664
	c0.136-1.329,0.53-2.588,1.317-3.712c0.751-1.073,1.752-1.879,2.995-2.407c1.404-0.6,2.872-0.796,4.406-0.664
	c2.3,0.195,4.143,1.182,5.627,2.812c0.234,0.258,0.424,0.555,0.625,0.84c0.029,0.039,0.029,0.136-0.002,0.17
	c-0.152,0.166-0.107,0.335-0.007,0.491c0.581,0.889,0.96,1.865,1.418,2.809c0.201,0.415,0.258,0.838,0.269,1.279
	c0.009,0.396,0.026,0.794,0.035,1.191c0.002,0.07-0.02,0.143-0.03,0.214c-0.018,0.005-0.041,0.011-0.059,0.017
	c-0.095-0.177-0.208-0.347-0.28-0.532c-0.281-0.717-0.541-1.44-0.826-2.155c-0.115-0.284-0.26-0.56-0.428-0.818
	c-0.155-0.242-0.477-0.334-0.729-0.257c-0.151,0.046-0.177,0.117-0.085,0.238c0.007,0.009,0.013,0.02,0.021,0.024
	c0.539,0.398,0.682,0.998,0.881,1.564c0.172,0.497,0.306,1.007,0.476,1.507c0.049,0.145,0.151,0.273,0.243,0.4
	c0.137,0.182,0.279,0.354,0.421,0.527c0.149,0.185,0.249,0.363,0.168,0.618c-0.139,0.446-0.235,0.902-0.351,1.355
	c-0.01,0.041-0.037,0.08-0.058,0.116c-0.013,0.022-0.034,0.039-0.069,0.085c-0.035-0.053-0.065-0.088-0.077-0.128
	c-0.255-0.821-0.486-1.649-0.764-2.465c-0.192-0.564-0.444-1.108-0.676-1.661c-0.026-0.068-0.078-0.131-0.129-0.188
	c-0.074-0.08-0.164-0.139-0.284-0.092c-0.127,0.046-0.189,0.146-0.179,0.268c0.011,0.097,0.041,0.198,0.083,0.293
	c0.328,0.75,0.669,1.496,0.987,2.251c0.249,0.592,0.454,1.199,0.71,1.788c0.197,0.45,0.136,0.867-0.048,1.292
	c-0.048,0.109-0.083,0.224-0.133,0.33c-0.026,0.055-0.075,0.1-0.114,0.147c-0.044-0.049-0.111-0.093-0.129-0.15
	c-0.081-0.234-0.142-0.474-0.216-0.71c-0.247-0.772-0.481-1.551-0.758-2.315c-0.084-0.235-0.271-0.445-0.436-0.646
	c-0.063-0.078-0.2-0.146-0.301-0.144c-0.267,0.006-0.356,0.177-0.247,0.414c0.203,0.446,0.426,0.888,0.613,1.339
	c0.16,0.389,0.26,0.801,0.427,1.186c0.159,0.365,0.336,0.731,0.567,1.055c0.295,0.413,0.289,0.797,0.039,1.204
	c-0.08,0.128-0.17,0.253-0.266,0.371c-0.072,0.091-0.158,0.086-0.204-0.027c-0.111-0.257-0.233-0.512-0.318-0.776
	c-0.26-0.805-0.503-1.612-0.759-2.418c-0.05-0.151-0.12-0.301-0.205-0.438c-0.103-0.168-0.227-0.184-0.401-0.08
	c-0.238,0.143-0.317,0.432-0.188,0.717c0.332,0.727,0.66,1.454,1.007,2.176c0.197,0.419,0.431,0.823,0.643,1.239
	c0.072,0.141,0.068,0.277-0.03,0.409c-0.109,0.145-0.201,0.301-0.316,0.437c-0.118,0.137-0.173,0.119-0.243-0.042
	c-0.38-0.906-0.754-1.812-1.145-2.714c-0.062-0.144-0.181-0.273-0.297-0.386c-0.097-0.095-0.228-0.134-0.369-0.037
	c-0.134,0.096-0.116,0.217-0.07,0.335c0.088,0.229,0.19,0.458,0.293,0.685c0.325,0.729,0.653,1.457,0.985,2.185
	c0.055,0.122,0.124,0.241,0.207,0.35c0.145,0.186,0.18,0.375,0.066,0.586c-0.132,0.249-0.259,0.499-0.396,0.744
	C69.702,136.64,69.64,136.683,69.546,136.777z M65.396,126.312c0.159-0.018,0.438-0.032,0.708-0.09
	c0.563-0.117,1.035-0.381,1.358-0.845c0.637-0.916,0.424-2.238-0.47-2.951c-0.585-0.468-1.271-0.701-2.026-0.749
	c-0.739-0.048-1.383,0.169-1.798,0.776c-0.424,0.619-0.69,1.304-0.717,2.051c-0.024,0.637,0.264,1.116,0.874,1.411
	C63.939,126.212,64.602,126.28,65.396,126.312z M58.146,123.341c-0.016,0.001-0.033,0.001-0.053,0.003
	c0.052,0.402,0.085,0.81,0.161,1.207c0.022,0.118,0.143,0.249,0.26,0.312c0.083,0.046,0.252,0.021,0.342-0.033
	c0.15-0.093,0.17-0.268,0.12-0.422c-0.141-0.446-0.138-0.901-0.102-1.357c0.038-0.544,0.228-1.036,0.656-1.424
	c0.468-0.423,0.937-0.845,1.402-1.27c0.09-0.081,0.181-0.167,0.245-0.265c0.092-0.129,0.017-0.259-0.149-0.244
	c-0.124,0.01-0.255,0.049-0.367,0.104c-0.498,0.246-0.917,0.599-1.308,0.97c-0.295,0.278-0.572,0.581-0.819,0.899
	C58.186,122.268,58.135,122.801,58.146,123.341z"/>
<path fill-rule="evenodd" clip-rule="evenodd" fill="#2C3962" d="M65.396,126.312c-0.795-0.031-1.457-0.1-2.07-0.396
	c-0.61-0.295-0.898-0.774-0.874-1.411c0.026-0.747,0.293-1.432,0.717-2.051c0.415-0.607,1.059-0.824,1.798-0.776
	c0.755,0.048,1.441,0.281,2.026,0.749c0.894,0.713,1.106,2.035,0.47,2.951c-0.323,0.464-0.795,0.728-1.358,0.845
	C65.834,126.279,65.556,126.294,65.396,126.312z M65.279,125.275c0.426,0.016,0.81-0.104,1.115-0.403
	c0.483-0.475,0.448-1.143-0.104-1.509c-0.198-0.132-0.437-0.234-0.671-0.292c-0.336-0.08-0.677-0.129-0.947-0.354
	c-0.003-0.002-0.01-0.009-0.01-0.009c-0.094,0.008-0.196-0.008-0.269,0.028c-0.083,0.044-0.152,0.128-0.209,0.205
	c-0.267,0.369-0.383,0.786-0.402,1.228c-0.016,0.354,0.157,0.63,0.457,0.831C64.547,125.206,64.898,125.279,65.279,125.275z"/>
<path fill-rule="evenodd" clip-rule="evenodd" fill="#2C3962" d="M58.146,123.341c-0.012-0.54,0.039-1.073,0.389-1.521
	c0.247-0.318,0.524-0.621,0.819-0.899c0.391-0.371,0.81-0.724,1.308-0.97c0.112-0.055,0.243-0.094,0.367-0.104
	c0.166-0.015,0.241,0.115,0.149,0.244c-0.064,0.098-0.155,0.184-0.245,0.265c-0.466,0.425-0.935,0.847-1.402,1.27
	c-0.429,0.388-0.618,0.88-0.656,1.424c-0.036,0.456-0.039,0.911,0.102,1.357c0.05,0.154,0.03,0.329-0.12,0.422
	c-0.09,0.055-0.259,0.079-0.342,0.033c-0.117-0.062-0.237-0.193-0.26-0.312c-0.076-0.397-0.109-0.805-0.161-1.207
	C58.113,123.342,58.131,123.342,58.146,123.341z"/>
</svg>
