<?xml version="1.0" encoding="utf-8"?>
<!-- Generator: Adobe Illustrator 15.0.0, SVG Export Plug-In . SVG Version: 6.00 Build 0)  -->
<!DOCTYPE svg PUBLIC "-//W3C//DTD SVG 1.1//EN" "http://www.w3.org/Graphics/SVG/1.1/DTD/svg11.dtd">
<svg version="1.1" id="Capa_1" xmlns="http://www.w3.org/2000/svg" xmlns:xlink="http://www.w3.org/1999/xlink" x="0px" y="0px"
	 width="141.732px" height="141.732px" viewBox="0 0 141.732 141.732" enable-background="new 0 0 141.732 141.732"
	 xml:space="preserve">
<g>
	<path fill="none" stroke="#FFFFFF" stroke-width="2" stroke-miterlimit="10" d="M35.11,66.02V54.861h69.452v11.777
		c0,0-7.449,9.303-34.731,9.303C42.56,75.942,35.11,66.02,35.11,66.02z"/>
	<polyline fill="none" stroke="#FFFFFF" stroke-width="2" stroke-miterlimit="10" points="58.518,52.252 58.518,43.884 
		83.168,43.884 83.168,53.182 	"/>
	<polyline fill="none" stroke="#FFFFFF" stroke-width="2" stroke-miterlimit="10" points="35.733,70.11 35.733,96.004 
		104.324,96.004 104.324,70.11 	"/>
	<line fill="none" stroke="#FFFFFF" stroke-width="2" stroke-miterlimit="10" x1="64.792" y1="82.135" x2="73.395" y2="82.135"/>
</g>
<g>
	<path fill="none" stroke="#85B8A1" stroke-width="2" stroke-miterlimit="10" d="M224.642,64.871V53.712h69.452v11.777
		c0,0-7.449,9.303-34.731,9.303C232.093,74.793,224.642,64.871,224.642,64.871z"/>
	<polyline fill="none" stroke="#85B8A1" stroke-width="2" stroke-miterlimit="10" points="248.051,51.102 248.051,42.734 
		272.7,42.734 272.7,52.033 	"/>
	<polyline fill="none" stroke="#85B8A1" stroke-width="2" stroke-miterlimit="10" points="225.265,68.961 225.265,94.854 
		293.856,94.854 293.856,68.961 	"/>
	<line fill="none" stroke="#85B8A1" stroke-width="2" stroke-miterlimit="10" x1="254.324" y1="80.986" x2="262.927" y2="80.986"/>
</g>
<g>
	<path fill="#FFFFFF" d="M70.398,8.717c34.469,0,62.512,28.042,62.512,62.512c0,34.47-28.043,62.513-62.512,62.513
		c-34.469,0-62.512-28.043-62.512-62.513C7.886,36.759,35.929,8.717,70.398,8.717 M70.398,6.717
		C34.769,6.717,5.886,35.6,5.886,71.228c0,35.629,28.883,64.513,64.512,64.513s64.512-28.884,64.512-64.513
		C134.91,35.6,106.027,6.717,70.398,6.717L70.398,6.717z"/>
</g>
</svg>
