<?xml version="1.0" encoding="utf-8"?>
<!-- Generator: Adobe Illustrator 15.0.0, SVG Export Plug-In . SVG Version: 6.00 Build 0)  -->
<!DOCTYPE svg PUBLIC "-//W3C//DTD SVG 1.1//EN" "http://www.w3.org/Graphics/SVG/1.1/DTD/svg11.dtd">
<svg version="1.1" id="Capa_1" xmlns="http://www.w3.org/2000/svg" xmlns:xlink="http://www.w3.org/1999/xlink" x="0px" y="0px"
	 width="141.732px" height="141.732px" viewBox="0 0 141.732 141.732" enable-background="new 0 0 141.732 141.732"
	 xml:space="preserve">
<g>
	<path fill="#FFFFFF" d="M70.798,7.746c35.179,0,63.8,28.62,63.8,63.799s-28.621,63.797-63.8,63.797
		C35.62,135.342,7,106.723,7,71.545S35.62,7.746,70.798,7.746 M70.798,6.746C35.012,6.746,6,35.758,6,71.545
		c0,35.785,29.013,64.797,64.798,64.797c35.787,0,64.8-29.012,64.8-64.797C135.597,35.758,106.585,6.746,70.798,6.746L70.798,6.746z
		"/>
</g>
<g>
	<path fill="none" stroke="#FFFFFF" stroke-width="2" stroke-miterlimit="10" d="M35.11,66.02V54.861h69.452v11.777
		c0,0-7.449,9.303-34.731,9.303C42.56,75.942,35.11,66.02,35.11,66.02z"/>
	<polyline fill="none" stroke="#FFFFFF" stroke-width="2" stroke-miterlimit="10" points="58.518,52.252 58.518,43.884 
		83.168,43.884 83.168,53.182 	"/>
	<polyline fill="none" stroke="#FFFFFF" stroke-width="2" stroke-miterlimit="10" points="35.733,70.11 35.733,96.004 
		104.324,96.004 104.324,70.11 	"/>
	<line fill="none" stroke="#FFFFFF" stroke-width="2" stroke-miterlimit="10" x1="64.792" y1="82.136" x2="73.395" y2="82.136"/>
</g>
</svg>
