<?xml version="1.0" encoding="utf-8"?>
<!-- Generator: Adobe Illustrator 16.0.0, SVG Export Plug-In . SVG Version: 6.00 Build 0)  -->
<!DOCTYPE svg PUBLIC "-//W3C//DTD SVG 1.1//EN" "http://www.w3.org/Graphics/SVG/1.1/DTD/svg11.dtd">
<svg version="1.1" id="Capa_1" xmlns="http://www.w3.org/2000/svg" xmlns:xlink="http://www.w3.org/1999/xlink" x="0px" y="0px"
	 width="141.732px" height="141.732px" viewBox="0 0 141.732 141.732" enable-background="new 0 0 141.732 141.732"
	 xml:space="preserve">
<g>
	<path fill="none" stroke="#9197A3" stroke-width="4" stroke-miterlimit="10" d="M35.11,66.02V54.861h69.452v11.777
		c0,0-7.449,9.303-34.731,9.303C42.56,75.942,35.11,66.02,35.11,66.02z"/>
	<polyline fill="none" stroke="#9197A3" stroke-width="4" stroke-miterlimit="10" points="58.518,52.252 58.518,43.884 
		83.168,43.884 83.168,53.182 	"/>
	<polyline fill="none" stroke="#9197A3" stroke-width="4" stroke-miterlimit="10" points="35.733,70.11 35.733,96.004 
		104.324,96.004 104.324,70.11 	"/>
	<line fill="none" stroke="#9197A3" stroke-width="4" stroke-miterlimit="10" x1="64.792" y1="82.135" x2="73.395" y2="82.135"/>
</g>
<g>
	<path fill="#FFFFFF" stroke="#9197A3" stroke-width="2" stroke-miterlimit="10" d="M70.398,8.717
		c34.469,0,62.512,28.042,62.512,62.513c0,34.47-28.043,62.513-62.512,62.513S7.885,105.699,7.885,71.229
		C7.885,36.759,35.929,8.717,70.398,8.717 M70.398,6.717C34.769,6.717,5.885,35.6,5.885,71.228
		c0,35.629,28.884,64.513,64.513,64.513s64.512-28.884,64.512-64.513C134.91,35.6,106.027,6.717,70.398,6.717L70.398,6.717z"/>
</g>
</svg>
