<?xml version="1.0" encoding="utf-8"?>
<!-- Generator: Adobe Illustrator 15.0.0, SVG Export Plug-In . SVG Version: 6.00 Build 0)  -->
<!DOCTYPE svg PUBLIC "-//W3C//DTD SVG 1.1//EN" "http://www.w3.org/Graphics/SVG/1.1/DTD/svg11.dtd">
<svg version="1.1" id="Capa_1" xmlns="http://www.w3.org/2000/svg" xmlns:xlink="http://www.w3.org/1999/xlink" x="0px" y="0px"
	 width="141.732px" height="141.732px" viewBox="0 0 141.732 141.732" enable-background="new 0 0 141.732 141.732"
	 xml:space="preserve">
<g>
	<path fill="none" stroke="#85B8A1" stroke-width="2" stroke-miterlimit="10" d="M35.11,66.02V54.861h69.452v11.777
		c0,0-7.449,9.303-34.731,9.303C42.56,75.942,35.11,66.02,35.11,66.02z"/>
	<polyline fill="none" stroke="#85B8A1" stroke-width="2" stroke-miterlimit="10" points="58.518,52.252 58.518,43.884 
		83.168,43.884 83.168,53.182 	"/>
	<polyline fill="none" stroke="#85B8A1" stroke-width="2" stroke-miterlimit="10" points="35.733,70.11 35.733,96.004 
		104.324,96.004 104.324,70.11 	"/>
	<line fill="none" stroke="#85B8A1" stroke-width="2" stroke-miterlimit="10" x1="64.792" y1="82.135" x2="73.395" y2="82.135"/>
</g>
<g>
	<path fill="#85B8A1" d="M71.366,8.366c34.469,0,62.512,28.043,62.512,62.512s-28.043,62.512-62.512,62.512
		c-34.469,0-62.512-28.043-62.512-62.512S36.897,8.366,71.366,8.366 M71.366,6.366c-35.629,0-64.512,28.883-64.512,64.512
		c0,35.628,28.883,64.512,64.512,64.512s64.512-28.884,64.512-64.512C135.878,35.249,106.995,6.366,71.366,6.366L71.366,6.366z"/>
</g>
</svg>
