<?xml version="1.0" encoding="utf-8"?>
<!-- Generator: Adobe Illustrator 16.0.0, SVG Export Plug-In . SVG Version: 6.00 Build 0)  -->
<!DOCTYPE svg PUBLIC "-//W3C//DTD SVG 1.1//EN" "http://www.w3.org/Graphics/SVG/1.1/DTD/svg11.dtd">
<svg version="1.1" id="Layer_1" xmlns="http://www.w3.org/2000/svg" xmlns:xlink="http://www.w3.org/1999/xlink" x="0px" y="0px"
	 width="30px" height="30px" viewBox="0 0 30 30" enable-background="new 0 0 30 30" xml:space="preserve">
<path fill-rule="evenodd" clip-rule="evenodd" fill="#808285" d="M14.877,12.129c0.853,0,1.705,0.008,2.559-0.003
	c0.663-0.009,1.329-0.048,1.993-0.063c0.653-0.016,1.305-0.021,1.959-0.021c0.24,0,0.48,0.024,0.713,0.09
	c0.152,0.043,0.238,0.13,0.273,0.272c0.106,0.437,0.142,0.881,0.175,1.325c0.033,0.469,0.062,0.938,0.078,1.408
	c0.021,0.598,0.021,1.196,0.043,1.793c0.008,0.232-0.115,0.36-0.333,0.445c-0.224,0.088-0.46,0.141-0.701,0.16
	c-0.717,0.057-1.435,0.113-2.151,0.155c-1.051,0.062-2.103,0.116-3.155,0.166c-1.604,0.078-3.212,0.122-4.822,0.095
	c-0.584-0.011-1.168-0.028-1.752-0.057c-0.312-0.016-0.625-0.056-0.935-0.099c-0.234-0.033-0.462-0.095-0.672-0.202
	c-0.255-0.13-0.401-0.331-0.449-0.583c-0.046-0.242-0.081-0.488-0.093-0.733c-0.021-0.399-0.027-0.799-0.025-1.198
	c0.005-0.512,0.02-1.022,0.041-1.534c0.012-0.304,0.054-0.607,0.163-0.897c0.047-0.122,0.111-0.24,0.185-0.35
	c0.087-0.133,0.229-0.191,0.403-0.191c0.754,0.001,1.508-0.005,2.263-0.001c1.414,0.008,2.828,0.021,4.242,0.032
	C14.877,12.134,14.877,12.131,14.877,12.129z M13.876,12.979c0-0.002,0-0.005,0-0.007c-0.841-0.015-1.681-0.032-2.523-0.046
	c-0.862-0.014-1.726-0.026-2.587-0.036c-0.19-0.003-0.223,0.032-0.271,0.215c-0.086,0.331-0.113,0.671-0.117,1.009
	c-0.013,0.822-0.006,1.644-0.005,2.466c0,0.071,0.009,0.145,0.016,0.218c0.009,0.078,0.054,0.122,0.135,0.12
	c0.107-0.004,0.215-0.009,0.322-0.021c0.027-0.003,0.058-0.028,0.075-0.052c0.249-0.342,0.487-0.691,0.744-1.026
	c0.302-0.393,0.617-0.775,0.931-1.157c0.112-0.136,0.257-0.236,0.414-0.316c0.112-0.057,0.222-0.075,0.34-0.021
	c0.078,0.036,0.158,0.071,0.24,0.095c0.074,0.021,0.101,0.067,0.08,0.131c-0.033,0.096-0.068,0.193-0.119,0.28
	c-0.265,0.438-0.596,0.825-0.935,1.204c-0.267,0.301-0.551,0.584-0.826,0.877c-0.027,0.028-0.039,0.071-0.058,0.108
	c0.039,0.019,0.078,0.048,0.119,0.056c0.051,0.011,0.108,0.012,0.161,0.005c0.312-0.038,0.625-0.081,0.937-0.118
	c0.158-0.02,0.284-0.098,0.392-0.207c0.11-0.113,0.227-0.226,0.317-0.354c0.302-0.429,0.593-0.866,0.888-1.298
	c0.152-0.223,0.303-0.445,0.455-0.668c0.078-0.113,0.189-0.134,0.306-0.092c0.141,0.051,0.279,0.113,0.409,0.185
	c0.146,0.08,0.156,0.101,0.058,0.233c-0.207,0.283-0.414,0.566-0.644,0.827c-0.356,0.405-0.734,0.79-1.1,1.187
	c-0.033,0.033-0.075,0.104-0.062,0.124c0.025,0.04,0.086,0.075,0.135,0.079c0.146,0.013,0.296,0.02,0.442,0.01
	c0.2-0.015,0.397-0.05,0.594-0.068c0.168-0.017,0.301-0.081,0.399-0.224c0.27-0.393,0.549-0.778,0.816-1.173
	c0.252-0.374,0.495-0.757,0.74-1.137c0.053-0.084,0.119-0.154,0.217-0.184c0.239-0.069,0.475-0.046,0.704,0.045
	c0.099,0.039,0.106,0.071,0.06,0.167c-0.019,0.038-0.037,0.078-0.062,0.112c-0.211,0.268-0.415,0.544-0.641,0.799
	c-0.387,0.439-0.79,0.863-1.186,1.293c-0.106,0.115-0.088,0.182,0.063,0.226c0.013,0.003,0.027,0.005,0.04,0.007
	c0.304,0.059,0.606,0.025,0.909-0.007c0.086-0.009,0.162-0.045,0.217-0.111c0.109-0.131,0.224-0.256,0.321-0.396
	c0.424-0.603,0.837-1.213,1.267-1.812c0.236-0.328,0.493-0.641,0.748-0.952c0.06-0.072,0.147-0.127,0.234-0.167
	c0.255-0.117,0.445-0.032,0.525,0.223c0.023,0.069,0.021,0.131-0.028,0.189c-0.111,0.135-0.216,0.274-0.329,0.409
	c-0.569,0.683-1.141,1.364-1.71,2.048c-0.113,0.133-0.222,0.27-0.326,0.41c-0.08,0.11-0.037,0.191,0.099,0.196
	c0.086,0.003,0.174,0.001,0.259-0.009c0.144-0.018,0.287-0.055,0.432-0.062c0.172-0.009,0.296-0.089,0.396-0.216
	c0.314-0.401,0.633-0.797,0.938-1.205c0.581-0.782,1.152-1.57,1.729-2.357c0.03-0.044,0.051-0.096,0.078-0.143
	c-0.056-0.013-0.111-0.041-0.167-0.039c-0.24,0.004-0.479,0.016-0.72,0.028c-0.637,0.033-1.273,0.087-1.913,0.096
	C16.124,12.991,15,12.979,13.876,12.979z M18.993,16.682c0.09,0.014,0.173,0.013,0.238-0.074c0.444-0.592,0.89-1.184,1.34-1.77
	c0.305-0.396,0.621-0.781,0.927-1.172c0.035-0.047,0.062-0.111,0.066-0.168c0.019-0.249-0.167-0.439-0.344-0.542
	c-0.043-0.026-0.123-0.024-0.168,0c-0.124,0.062-0.255,0.125-0.354,0.221c-0.266,0.256-0.521,0.523-0.767,0.796
	c-0.656,0.723-1.304,1.452-1.897,2.226c-0.086,0.11-0.162,0.229-0.236,0.347c-0.041,0.063-0.024,0.086,0.05,0.09
	C18.229,16.649,18.61,16.665,18.993,16.682z M20.631,16.59c0,0.01,0,0.019,0,0.028c0.204-0.009,0.409-0.017,0.612-0.026
	c0.104-0.004,0.189-0.042,0.264-0.109c0.162-0.151,0.265-0.344,0.283-0.557c0.027-0.332,0.029-0.667,0.031-1
	c0-0.097-0.031-0.196-0.062-0.291c-0.022-0.073-0.068-0.083-0.13-0.04c-0.043,0.03-0.082,0.062-0.119,0.097
	c-0.43,0.403-0.83,0.831-1.19,1.296c-0.108,0.145-0.199,0.307-0.287,0.465c-0.048,0.085-0.009,0.136,0.088,0.137
	C20.29,16.592,20.461,16.59,20.631,16.59z"/>
<circle fill-rule="evenodd" clip-rule="evenodd" fill="none" stroke="#808285" stroke-miterlimit="10" cx="15.125" cy="14.792" r="14.125"/>
</svg>
