<?xml version="1.0" encoding="utf-8"?>
<!-- Generator: Adobe Illustrator 16.0.0, SVG Export Plug-In . SVG Version: 6.00 Build 0)  -->
<!DOCTYPE svg PUBLIC "-//W3C//DTD SVG 1.1//EN" "http://www.w3.org/Graphics/SVG/1.1/DTD/svg11.dtd">
<svg version="1.1" id="Layer_1" xmlns="http://www.w3.org/2000/svg" xmlns:xlink="http://www.w3.org/1999/xlink" x="0px" y="0px"
	 width="74px" height="74px" viewBox="0 0 74 74" enable-background="new 0 0 74 74" xml:space="preserve">
<g>
	<path fill="#021C25" d="M36.918,2.458c19.047,0,34.542,15.495,34.542,34.541c0,19.047-15.495,34.543-34.542,34.543
		c-19.046,0-34.542-15.496-34.542-34.543C2.377,17.953,17.872,2.458,36.918,2.458 M36.918,0.458
		c-20.18,0-36.542,16.36-36.542,36.541c0,20.183,16.361,36.543,36.542,36.543c20.182,0,36.542-16.36,36.542-36.543
		C73.46,16.818,57.1,0.458,36.918,0.458L36.918,0.458z"/>
</g>
<rect x="17.657" y="33.503" fill="#021C25" width="38.377" height="6.215"/>
</svg>
