<?xml version="1.0" encoding="utf-8"?>
<!-- Generator: Adobe Illustrator 16.0.0, SVG Export Plug-In . SVG Version: 6.00 Build 0)  -->
<!DOCTYPE svg PUBLIC "-//W3C//DTD SVG 1.1//EN" "http://www.w3.org/Graphics/SVG/1.1/DTD/svg11.dtd">
<svg version="1.1" id="Layer_1" xmlns="http://www.w3.org/2000/svg" xmlns:xlink="http://www.w3.org/1999/xlink" x="0px" y="0px"
	 width="30px" height="30px" viewBox="0 0 30 30" enable-background="new 0 0 30 30" xml:space="preserve">
<ellipse transform="matrix(1 0.0097 -0.0097 1 0.1459 -0.1461)" fill="none" stroke="#F2D387" stroke-miterlimit="10" cx="15.169" cy="15" rx="13.543" ry="13.475"/>
<path fill="#F2D387" d="M7.9,12.892l0.022-2.315l14.483,0.14l-0.023,2.444c0,0-1.57,1.916-7.261,1.861
	C9.433,14.967,7.9,12.892,7.9,12.892z"/>
<polyline fill="#F2D387" points="12.803,10.7 12.82,8.963 17.96,9.012 17.941,10.942 "/>
<path fill="#F2D387" d="M22.317,14.586l-0.055,5.669L7.959,20.117l0.056-5.838C8.016,14.279,13.91,17.959,22.317,14.586z"/>
<line fill="none" stroke="#FFFFFF" stroke-linecap="round" stroke-linejoin="round" stroke-miterlimit="10" x1="14.484" y1="13.302" x2="16.279" y2="13.32"/>
</svg>
