<?xml version="1.0" encoding="utf-8"?>
<!-- Generator: Adobe Illustrator 16.0.0, SVG Export Plug-In . SVG Version: 6.00 Build 0)  -->
<!DOCTYPE svg PUBLIC "-//W3C//DTD SVG 1.1//EN" "http://www.w3.org/Graphics/SVG/1.1/DTD/svg11.dtd">
<svg version="1.1" id="Layer_1" xmlns="http://www.w3.org/2000/svg" xmlns:xlink="http://www.w3.org/1999/xlink" x="0px" y="0px"
	 width="30px" height="30px" viewBox="0 0 30 30" enable-background="new 0 0 30 30" xml:space="preserve">
<g>
	<ellipse fill="none" stroke="#96D5D2" stroke-miterlimit="10" cx="15" cy="14.688" rx="13.183" ry="13.438"/>
	<path fill="#96D5D2" d="M19.996,17.965c0,0-3.349-0.865-3.52-1.607c0,0-0.15-0.269-0.15-1.087h-0.088
		c1.315-0.542,2.26-1.978,2.26-3.668c0-2.154-1.528-3.899-3.415-3.899s-3.415,1.746-3.415,3.899c0,1.69,0.943,3.126,2.262,3.668
		h-0.255c0,0.818-0.152,1.087-0.152,1.087c-0.171,0.742-3.518,1.607-3.518,1.607c-1.315,0.479-1.181,1.545-1.181,1.545v1.229h1.109
		h11.244V19.51C21.177,19.51,21.312,18.443,19.996,17.965z"/>
</g>
</svg>
