<?xml version="1.0" encoding="utf-8"?>
<!-- Generator: Adobe Illustrator 15.0.0, SVG Export Plug-In . SVG Version: 6.00 Build 0)  -->
<!DOCTYPE svg PUBLIC "-//W3C//DTD SVG 1.1//EN" "http://www.w3.org/Graphics/SVG/1.1/DTD/svg11.dtd">
<svg version="1.1" id="Capa_1" xmlns="http://www.w3.org/2000/svg" xmlns:xlink="http://www.w3.org/1999/xlink" x="0px" y="0px"
	 width="141.732px" height="141.732px" viewBox="0 0 141.732 141.732" enable-background="new 0 0 141.732 141.732"
	 xml:space="preserve">
<g>
	<path fill="#FFFFFF" d="M70.798,7.746c35.179,0,63.8,28.62,63.8,63.799s-28.621,63.797-63.8,63.797
		C35.62,135.342,7,106.723,7,71.545S35.62,7.746,70.798,7.746 M70.798,6.746C35.012,6.746,6,35.758,6,71.545
		c0,35.785,29.013,64.797,64.798,64.797c35.787,0,64.8-29.012,64.8-64.797C135.597,35.758,106.585,6.746,70.798,6.746L70.798,6.746z
		"/>
</g>
<polygon fill="none" stroke="#FFFFFF" stroke-width="2" stroke-miterlimit="10" points="36.862,68.591 109.133,68.591 
	91.596,45.031 51.211,45.031 "/>
<path fill="none" stroke="#FFFFFF" stroke-width="2" stroke-miterlimit="10" d="M96.39,68.689v26.763H88.59
	c0,0-17.709-6.943-31.529,0.314H48.2l0.033-27.077"/>
<path fill="none" stroke="#FFFFFF" stroke-width="2" stroke-miterlimit="10" d="M40.821,92.26c0,0,0,0-0.614-6.071
	c-0.603-6.062,2.035-17.312,2.035-17.312"/>
<polyline fill="none" stroke="#FFFFFF" stroke-width="2" stroke-miterlimit="10" points="38.988,95.081 40.692,91.445 
	43.196,94.749 "/>
</svg>
