<?xml version="1.0" encoding="utf-8"?>
<!-- Generator: Adobe Illustrator 15.0.0, SVG Export Plug-In . SVG Version: 6.00 Build 0)  -->
<!DOCTYPE svg PUBLIC "-//W3C//DTD SVG 1.1//EN" "http://www.w3.org/Graphics/SVG/1.1/DTD/svg11.dtd">
<svg version="1.1" id="Capa_1" xmlns="http://www.w3.org/2000/svg" xmlns:xlink="http://www.w3.org/1999/xlink" x="0px" y="0px"
	 width="141.73px" height="141.73px" viewBox="0 0 141.73 141.73" enable-background="new 0 0 141.73 141.73" xml:space="preserve">
<path fill="#3D9ED8" d="M198.003,47.021c0,7.586-0.351,10.446-6.591,10.446h-15.821c-6.238,0-6.59-2.86-6.59-10.446v-8.107
	c0-7.588,0.352-10.447,6.59-10.447h15.821c6.24,0,6.591,2.859,6.591,10.447V47.021z"/>
<g>
	
		<rect x="15.563" y="30.218" fill="none" stroke="#FFFFFF" stroke-width="3" stroke-miterlimit="10" width="109.573" height="81.868"/>
	<polyline fill="none" stroke="#FFFFFF" stroke-width="3" stroke-miterlimit="10" points="125.136,30.218 70.35,79.462 
		15.563,30.218 	"/>
</g>
<path fill="#3D9ED8" d="M198.336,96.021c0,7.586-0.35,10.447-6.59,10.447h-15.822c-6.237,0-6.59-2.861-6.59-10.447v-8.106
	c0-7.588,0.353-10.448,6.59-10.448h15.822c6.24,0,6.59,2.86,6.59,10.448V96.021z"/>
<g>
	
		<rect x="176.414" y="89.109" fill="none" stroke="#FFFFFF" stroke-width="0.75" stroke-miterlimit="10" width="14.474" height="11.003"/>
	<path fill="none" stroke="#FFFFFF" stroke-width="0.75" stroke-miterlimit="10" d="M180.472,89.137v-3.645
		c0,0,0.094-3.177,3.177-3.177c3.082,0,3.549,2.499,3.549,3.223c0,0.654,0,3.599,0,3.599"/>
	<path fill="none" stroke="#FFFFFF" stroke-width="0.75" stroke-miterlimit="10" d="M185.516,93.877
		c0-0.968-0.785-1.752-1.752-1.752c-0.968,0-1.751,0.784-1.751,1.752c0,0.728,0.442,1.352,1.073,1.615v1.397h1.354v-1.397
		C185.072,95.228,185.516,94.604,185.516,93.877z"/>
</g>
</svg>
