<?xml version="1.0" encoding="utf-8"?>
<!-- Generator: Adobe Illustrator 16.0.0, SVG Export Plug-In . SVG Version: 6.00 Build 0)  -->
<!DOCTYPE svg PUBLIC "-//W3C//DTD SVG 1.1//EN" "http://www.w3.org/Graphics/SVG/1.1/DTD/svg11.dtd">
<svg version="1.1" id="Layer_1" xmlns="http://www.w3.org/2000/svg" xmlns:xlink="http://www.w3.org/1999/xlink" x="0px" y="0px"
	 width="100px" height="100px" viewBox="0 0 100 100" enable-background="new 0 0 100 100" xml:space="preserve">
<path fill="#C8D5E4" d="M98.219,49.527c0-26.509-21.487-47.994-47.991-47.994c-26.506,0-47.992,21.485-47.992,47.994
	c0,26.502,21.486,47.992,47.992,47.992C76.731,97.519,98.219,76.029,98.219,49.527z"/>
<g>
	<path fill="#C8D5E4" d="M154.727,22.485c0-10.145-8.219-18.362-18.359-18.362c-10.143,0-18.361,8.217-18.361,18.362
		c0,10.139,8.219,18.36,18.361,18.36C146.508,40.846,154.727,32.625,154.727,22.485z"/>
</g>
<g>
	<defs>
		<path id="SVGID_1_" d="M98.219,49.705c0-26.511-21.487-47.996-47.991-47.996c-26.506,0-47.992,21.485-47.992,47.996
			c0,26.501,21.486,47.99,47.992,47.99C76.731,97.695,98.219,76.206,98.219,49.705z"/>
	</defs>
	<clipPath id="SVGID_2_">
		<use xlink:href="#SVGID_1_"  overflow="visible"/>
	</clipPath>
	<g clip-path="url(#SVGID_2_)">
		<g>
			<g>
				<path fill="#FFFFFF" d="M71.312,32.832c0-11.601-9.396-21.003-21.002-21.003c-11.609,0-21.005,9.402-21.005,21.003
					c0,11.6,9.396,21.008,21.005,21.008C61.917,53.84,71.312,44.432,71.312,32.832z"/>
				<polygon fill="#FFFFFF" points="57.335,77.815 50.228,97.777 43.286,77.815 43.286,62.402 57.335,62.402 				"/>
				<g>
					<path fill="#FFFFFF" d="M50.311,19.689c-6.818,0-17.616,3.884-17.616,22.053c0,10.503,4.087,15.448,5.581,17.349
						c1.375,1.748,8.427,7.412,12.036,7.412C50.311,48.134,50.311,19.689,50.311,19.689z"/>
				</g>
				<g>
					<g>
						<g>
							<path fill="#FFFFFF" d="M50.257,19.689c6.813,0,17.615,3.884,17.615,22.053c0,10.503-4.088,15.448-5.582,17.349
								c-1.374,1.748-8.413,7.412-12.033,7.412C50.257,48.134,50.257,19.689,50.257,19.689z"/>
						</g>
					</g>
				</g>
				<path fill="#FFFFFF" d="M50.228,97.777V78.583c0,0-5.253-1.307-6.408-5.554c-0.55-2.032-0.534-3.675-0.534-3.675
					s-11.473,3.869-14.022,7.868c-2.127,6.347-2.718,20.555-2.718,20.555H50.228z"/>
				<path fill="#FFFFFF" d="M50.228,97.777V78.583c0,0,5.239-1.307,6.392-5.554c0.552-2.032,0.552-3.675,0.552-3.675
					s11.452,3.869,14.004,7.868c2.142,6.347,2.719,20.555,2.719,20.555H50.228z"/>
				<path fill="#FFFFFF" d="M50.311,60.101c2.66,0,4.815-1.628,4.815-3.647h-9.631C45.495,58.473,47.649,60.101,50.311,60.101z"/>
			</g>
			<path fill="#FFFFFF" d="M49.32,14.463c-12.471,0-16.272,10.916-16.272,15.955c-4.51,6.285,0.425,11.903,3.902,13.886
				c0-1.174,0-1.599,0-3.095c0-4.068,3.867-7.824,9.684-7.204c5.199,0.563,8.476-2.381,11.236-7.384
				C61.283,19.936,57.036,14.463,49.32,14.463z"/>
			<path fill="#FFFFFF" d="M57.335,24.572c0,0,2.921,11.827,10.892,15.752c1.427-10.632,2.265-8.389,0-13.986
				c-2.26-5.595-10.892-9.761-10.892-9.761V24.572z"/>
		</g>
		<path fill="#FFFFFF" d="M44.98,97.777V81.635l-6.941-12.28c0,0-11.473,3.869-14.022,7.868c-2.128,6.347-2.718,20.555-2.718,20.555
			H44.98z"/>
		<path fill="#FFFFFF" d="M55.475,97.777V81.635l6.943-12.28c0,0,11.454,3.869,14.006,7.868c2.142,6.347,2.719,20.555,2.719,20.555
			H55.475z"/>
		<polygon fill="#FFFFFF" points="48.806,76.642 43.286,66.145 37.274,67.773 41.979,78.315 		"/>
		<polygon fill="#FFFFFF" points="51.171,76.642 56.691,66.145 62.701,67.773 57.996,78.315 		"/>
		<polygon fill="#FFFFFF" points="51.578,76.642 57.335,66.014 63.095,67.773 58.405,78.315 		"/>
		<path fill="none" d="M98.219,49.705c0-26.517-21.487-47.996-47.991-47.996c-26.506,0-47.992,21.479-47.992,47.996
			c0,26.501,21.486,47.99,47.992,47.99C76.731,97.695,98.219,76.206,98.219,49.705z"/>
		<path fill="#FFFFFF" d="M50.311,23.048c0,0,5.639,3.718,21.002,9.784c-1.684,16.87,2.582,24.866,2.582,24.866H25.343
			c0,0,5.082-5.026,3.962-24.866l21.725-9.784"/>
	</g>
</g>
<g>
	<defs>
		<path id="SVGID_3_" d="M154.727,22.553c0-10.146-8.219-18.362-18.359-18.362c-10.143,0-18.361,8.217-18.361,18.362
			c0,10.14,8.219,18.36,18.361,18.36C146.508,40.913,154.727,32.692,154.727,22.553z"/>
	</defs>
	<clipPath id="SVGID_4_">
		<use xlink:href="#SVGID_3_"  overflow="visible"/>
	</clipPath>
	<g clip-path="url(#SVGID_4_)">
		<g>
			<rect x="133.68" y="27.181" fill="#FFFFFF" width="5.375" height="5.895"/>
			<path fill="#FFFFFF" d="M139.705,30.695c0,0,5.111,0.747,5.869,1.533c0.66,0.687,2.023,7.243,2.34,8.685
				c-8.977,0-11.547,0-11.547,0v-9.939L139.705,30.695z"/>
			<g>
				<path fill="#FFFFFF" d="M136.367,10.311c2.609,0,6.74,1.484,6.74,8.438c0,4.016-1.309,6.645-1.881,7.375
					c-0.525,0.668-3.475,2.094-4.859,2.094C136.367,21.189,136.367,10.311,136.367,10.311z"/>
				<path fill="#FFFFFF" d="M144.404,20.407c0.113-1.109-0.418-2.1-1.182-2.205c-0.771-0.104-1.486,0.711-1.602,1.822
					c-0.109,1.111,0.414,2.1,1.186,2.205C143.574,22.334,144.287,21.519,144.404,20.407z"/>
			</g>
			<g>
				<path fill="#FFFFFF" d="M136.367,10.311c-2.609,0-6.74,1.484-6.74,8.438c0,4.016,1.307,6.645,1.881,7.375
					c0.523,0.668,3.473,2.094,4.859,2.094C136.367,21.189,136.367,10.311,136.367,10.311z"/>
				<path fill="#FFFFFF" d="M128.326,20.407c-0.115-1.109,0.414-2.1,1.184-2.205c0.768-0.104,1.486,0.711,1.602,1.822
					s-0.414,2.1-1.184,2.205C129.16,22.334,128.441,21.519,128.326,20.407z"/>
			</g>
			<path fill="#FFFFFF" d="M133.023,30.695c0,0-5.113,0.747-5.863,1.533c-0.662,0.687-2.027,7.243-2.346,8.685
				c8.98,0,11.553,0,11.553,0v-9.939L133.023,30.695z"/>
			<polygon fill="#FFFFFF" points="136.367,30.794 133.449,29.62 132.73,30.323 134.18,33.571 			"/>
			<polygon fill="#FFFFFF" points="136.367,30.794 139.283,29.62 140.002,30.323 138.549,33.571 			"/>
		</g>
		<path fill="#FFFFFF" d="M143.254,18.368c0,0,2.205-9.073-6.934-9.073c-9.191,0-6.883,8.798-6.883,8.798s1.256-0.721,1.256,2.494
			c0.498,0,0.23,0,0.23,0s0.441-2.156,0.576-4.087c3.232,0,6.094-0.415,8.498-2.404c1.359,0,1.549,1.7,1.549,3l-0.598,0.231
			c0,0,0.578,1.133,0.619,3.26c0.414,0,0.414,0,0.414,0S141.924,17.04,143.254,18.368z"/>
		<path fill="#FFFFFF" d="M136.367,25.597c1.217,0,2.203-0.404,2.203-0.898h-4.408C134.162,25.192,135.15,25.597,136.367,25.597z"/>
		<path fill="none" d="M154.727,22.553c0-10.146-8.219-18.362-18.359-18.362c-10.143,0-18.361,8.217-18.361,18.362
			c0,10.14,8.219,18.36,18.361,18.36C146.508,40.913,154.727,32.692,154.727,22.553z"/>
		<path fill="#FFFFFF" d="M132.113,19.265h-2.486c0,0-1.088-3.037-0.092-5.922s2.307-3.154,2.557-4.238c0,0,0.736,0.506,1.758,0.34
			c2.594-0.423,4.451,0.16,4.451,0.16L132.113,19.265z"/>
	</g>
</g>
</svg>
