<?xml version="1.0" encoding="utf-8"?>
<!-- Generator: Adobe Illustrator 16.0.0, SVG Export Plug-In . SVG Version: 6.00 Build 0)  -->
<!DOCTYPE svg PUBLIC "-//W3C//DTD SVG 1.1//EN" "http://www.w3.org/Graphics/SVG/1.1/DTD/svg11.dtd">
<svg version="1.1" id="Layer_1" xmlns="http://www.w3.org/2000/svg" xmlns:xlink="http://www.w3.org/1999/xlink" x="0px" y="0px"
	 width="30px" height="30px" viewBox="0 0 30 30" enable-background="new 0 0 30 30" xml:space="preserve">
<path fill-rule="evenodd" clip-rule="evenodd" fill="#2C3962" d="M27.267,18.486c-0.031,0.028,0.018-0.071,0.02-0.098
	c0.01-0.069,0.021-0.144,0.016-0.213c-0.001-0.027-0.005-0.057-0.006-0.085c-0.573,0.361-1.019,0.835-1.3,1.468
	c-0.285,0.645-0.514,1.306-0.676,1.992c-0.149,0.632-0.225,1.272-0.253,1.919c-0.012,0.232,0.006,0.467,0.022,0.702
	c0.006,0.127,0.091,0.203,0.212,0.239c0.255,0.073,0.506-0.109,0.519-0.385c0.009-0.225-0.003-0.451,0.009-0.676
	c0.039-0.75,0.181-1.481,0.425-2.191c0.166-0.486,0.33-0.977,0.608-1.418c0.121-0.192,0.262-0.365,0.419-0.522
	C27.091,19.042,27.018,18.715,27.267,18.486z"/>
<path fill-rule="evenodd" clip-rule="evenodd" fill="#2C3962" d="M28.946,20.834c-0.247-0.725-0.638-1.345-1.295-1.771
	c-0.046-0.029-0.087-0.104-0.087-0.157c-0.004-1.066-0.027-2.137,0.007-3.204c0.024-0.827,0.13-1.65,0.18-2.476
	c0.043-0.652,0.035-1.303-0.193-1.928c-0.037-0.104-0.027-0.137,0.073-0.177c0.355-0.14,0.708-0.286,1.057-0.44
	c0.331-0.146,0.392-0.416,0.165-0.686c-0.446-0.531-0.997-0.91-1.638-1.172c-0.922-0.375-1.907-0.512-2.867-0.741
	c-0.543-0.129-1.091-0.247-1.635-0.371c-0.546-0.124-1.091-0.252-1.635-0.377c-0.545-0.124-1.09-0.245-1.635-0.368
	c-0.556-0.125-1.108-0.252-1.664-0.374c-0.603-0.132-1.203-0.271-1.809-0.381c-0.379-0.067-0.768-0.126-1.151-0.117
	c-0.76,0.021-1.467,0.285-2.159,0.579c-0.917,0.389-1.8,0.86-2.757,1.147C9.369,7.98,8.838,8.157,8.298,8.3
	C7.759,8.442,7.212,8.562,6.664,8.67C6.045,8.792,5.424,8.904,4.8,8.991C4.18,9.079,3.556,9.149,2.93,9.196
	C2.258,9.245,1.583,9.262,0.911,9.287c-0.17,0.007-0.328,0.108-0.357,0.254c-0.042,0.208,0.062,0.441,0.229,0.488
	c0.118,0.034,0.241,0.049,0.365,0.062c0.27,0.028,0.545,0.034,0.813,0.078c0.593,0.098,1.19,0.19,1.776,0.325
	c0.762,0.177,1.515,0.393,2.272,0.593c0.108,0.029,0.157,0.085,0.16,0.211c0.055,2.635-0.015,5.267-0.112,7.899
	c-0.011,0.273-0.027,0.547-0.062,0.816c-0.078,0.574-0.182,1.144-0.251,1.719c-0.062,0.518-0.087,1.04,0.039,1.557
	c0.063,0.251,0.152,0.497,0.37,0.662c0.071,0.053,0.175,0.103,0.257,0.092c0.169-0.02,0.347-0.055,0.496-0.135
	c0.247-0.129,0.481-0.288,0.708-0.451c0.882-0.631,1.86-1.039,2.921-1.226c0.587-0.102,1.185-0.161,1.781-0.194
	c1.277-0.069,2.554-0.125,3.831-0.157c1.064-0.026,2.124,0.074,3.168,0.291c0.91,0.188,1.783,0.493,2.612,0.916
	c0.343,0.175,0.581,0.036,0.606-0.349c0.023-0.329,0.029-0.66,0.067-0.988c0.094-0.816,0.198-1.633,0.305-2.448
	c0.051-0.39,0.118-0.776,0.174-1.163c0.087-0.616,0.178-1.23,0.25-1.85c0.063-0.545,0.129-1.095,0.151-1.644
	c0.026-0.628,0.007-1.26,0.007-1.893c0.052-0.023,0.1-0.046,0.146-0.065c0.793-0.303,1.586-0.604,2.379-0.908
	c0.096-0.037,0.169-0.035,0.214,0.065c0.102,0.236,0.224,0.466,0.294,0.711c0.209,0.705,0.179,1.567,0.206,2.297
	c0.052,1.34,0.075,2.564,0.094,3.905c0,0.032-0.015,0.069-0.036,0.104c0.104,0.39,0.203,0.823,0.12,1.215
	c-0.044,0.995-0.088,1.99-0.129,2.984c-0.01,0.225-0.013,0.45-0.015,0.675c0,0.154,0.095,0.28,0.234,0.326
	c0.318,0.111,0.566-0.066,0.566-0.406c0.002-1.18,0-2.357,0-3.536v-0.184c0.051,0.047,0.072,0.062,0.09,0.083
	c0.39,0.431,0.589,0.957,0.71,1.512c0.149,0.688,0.187,1.384,0.154,2.084c-0.011,0.26-0.029,0.517-0.035,0.777
	c-0.005,0.157,0.086,0.269,0.231,0.299c0.316,0.065,0.556-0.114,0.568-0.436c0.015-0.245,0.015-0.489,0.021-0.733
	C29.313,22.609,29.241,21.706,28.946,20.834z M22.659,13.547c-0.088,0.761-0.177,1.521-0.271,2.282
	c-0.081,0.656-0.17,1.312-0.257,1.969c-0.082,0.617-0.16,1.236-0.251,1.853c-0.105,0.706-0.226,1.41-0.335,2.114
	c-0.018,0.101-0.062,0.112-0.147,0.071c-0.932-0.438-1.921-0.664-2.938-0.777c-1.344-0.148-2.687-0.1-4.033-0.005
	c-0.933,0.065-1.867,0.116-2.799,0.188c-0.513,0.041-1.029,0.082-1.534,0.175c-0.338,0.062-0.663,0.208-0.987,0.332
	c-0.674,0.257-1.341,0.529-1.959,0.903c-0.134,0.081-0.256,0.183-0.392,0.282c-0.005-0.034-0.012-0.068-0.012-0.104
	c-0.061-1.311-0.02-2.62,0.042-3.93c0.108-2.299,0.315-4.597,0.325-6.902c0.001-0.188,0.001-0.376,0.001-0.603
	c0.142,0.05,0.262,0.087,0.381,0.135c0.632,0.254,1.283,0.472,1.89,0.778c0.616,0.308,1.193,0.698,1.781,1.064
	c0.599,0.373,1.194,0.755,1.853,1.02c0.479,0.191,0.978,0.239,1.485,0.234c0.968-0.007,1.933-0.091,2.89-0.245
	c1.067-0.171,2.119-0.414,3.157-0.708c0.702-0.2,1.393-0.437,2.09-0.656c0.012-0.004,0.026-0.001,0.062-0.001
	C22.688,13.196,22.681,13.373,22.659,13.547z M26.913,10.588c-0.136,0.025-0.289-0.044-0.437-0.05
	c-0.387-0.013-0.777-0.044-1.161-0.014c-0.487,0.038-0.968-0.005-1.447-0.052c-0.756-0.074-1.51-0.16-2.263-0.254
	c-0.537-0.067-1.07-0.152-1.601-0.24c-0.66-0.108-1.317-0.222-1.974-0.345c-0.557-0.105-1.11-0.227-1.665-0.342
	c-0.266-0.057-0.529-0.122-0.794-0.176c-0.207-0.042-0.423,0.1-0.475,0.298c-0.048,0.195,0.052,0.498,0.29,0.548
	c0.694,0.143,1.389,0.288,2.086,0.421c0.665,0.125,1.331,0.25,1.999,0.355c0.782,0.124,1.566,0.233,2.354,0.338
	c0.64,0.085,1.281,0.157,1.921,0.232c0.295,0.034,0.59,0.059,0.886,0.088c0.088,0.009-0.006-0.034,0.088,0.009
	c0,0-0.132,0.06-0.158,0.067c-0.812,0.243-1.354,0.364-2.169,0.594c-0.588,0.166-1.179,0.309-1.77,0.45
	c-0.586,0.143-1.175,0.282-1.766,0.405c-0.765,0.159-1.531,0.308-2.301,0.447c-0.389,0.069-0.784,0.127-1.179,0.151
	c-1.009,0.065-1.952-0.183-2.841-0.605c-0.799-0.378-1.579-0.788-2.375-1.166c-1.125-0.53-2.288-0.979-3.495-1.317
	c-0.772-0.215-1.554-0.397-2.333-0.593C4.287,9.825,4.239,9.807,4.196,9.769c0.149-0.022,0.298-0.042,0.446-0.068
	c1.018-0.183,2.045-0.329,3.05-0.559c1.101-0.25,2.192-0.551,3.27-0.88c1.045-0.319,2.066-0.71,3.104-1.049
	c0.285-0.094,0.593-0.16,0.895-0.167c0.491-0.01,0.991-0.001,1.474,0.072c0.766,0.118,1.527,0.278,2.281,0.456
	c0.679,0.159,1.342,0.375,2.018,0.552c0.614,0.161,1.234,0.311,1.854,0.452c0.707,0.16,1.416,0.31,2.123,0.455
	c0.42,0.087,0.844,0.158,1.266,0.234c0.559,0.103,1.004,0.376,1.35,0.791c0.077,0.094,0.145,0.195,0.232,0.311
	C27.329,10.45,27.128,10.547,26.913,10.588z"/>
<path fill-rule="evenodd" clip-rule="evenodd" fill="#FFFFFF" d="M6.539,23.074c-0.003-0.034-0.011-0.069-0.013-0.105
	c-0.062-1.326-0.018-2.651,0.044-3.977c0.109-2.329,0.32-4.653,0.33-6.987c0-0.19,0-0.381,0-0.61
	c0.143,0.05,0.267,0.087,0.388,0.135c0.64,0.258,1.3,0.479,1.915,0.788c0.625,0.312,1.209,0.708,1.805,1.078
	c0.607,0.378,1.209,0.764,1.879,1.031c0.485,0.195,0.989,0.243,1.503,0.239c0.983-0.008,1.958-0.094,2.929-0.249
	c1.082-0.174,2.147-0.418,3.2-0.717c0.712-0.203,1.41-0.441,2.117-0.665c0.013-0.004,0.026,0,0.063,0
	c-0.015,0.183-0.022,0.36-0.043,0.538c-0.088,0.769-0.179,1.539-0.274,2.31c-0.082,0.663-0.173,1.326-0.261,1.991
	c-0.084,0.626-0.162,1.253-0.255,1.878c-0.105,0.713-0.227,1.425-0.341,2.137c-0.015,0.103-0.06,0.114-0.147,0.073
	c-0.943-0.444-1.945-0.671-2.978-0.787c-1.362-0.151-2.724-0.1-4.088-0.005c-0.945,0.065-1.892,0.119-2.836,0.191
	c-0.52,0.039-1.042,0.081-1.554,0.176c-0.342,0.063-0.672,0.21-1.003,0.336c-0.681,0.261-1.357,0.534-1.983,0.913
	C6.801,22.87,6.677,22.974,6.539,23.074z"/>
<path fill-rule="evenodd" clip-rule="evenodd" fill="#FFFFFF" d="M27.558,10.421c-0.229,0.085-0.43,0.19-0.645,0.235
	c-0.136,0.027-0.289-0.048-0.437-0.053c-0.387-0.014-0.777-0.047-1.161-0.016c-0.487,0.04-0.968-0.007-1.447-0.057
	c-0.756-0.08-1.51-0.172-2.263-0.275c-0.537-0.072-1.07-0.165-1.601-0.259c-0.66-0.117-1.317-0.239-1.974-0.372
	c-0.557-0.113-1.11-0.245-1.665-0.369c-0.266-0.061-0.529-0.131-0.794-0.189c-0.207-0.044-0.423,0.108-0.475,0.322
	c-0.048,0.21,0.059,0.372,0.296,0.425c0.695,0.155,1.389,0.311,2.087,0.455c0.664,0.136,1.33,0.269,1.997,0.383
	c0.784,0.133,1.569,0.251,2.354,0.365c0.64,0.092,1.28,0.17,1.921,0.25c0.295,0.037,0.589,0.063,0.885,0.096
	c0.089,0.01,0.178,0.023,0.268,0.068c-0.023,0.014-0.049,0.033-0.075,0.04c-0.812,0.263-1.622,0.533-2.438,0.781
	c-0.588,0.178-1.179,0.333-1.77,0.487c-0.586,0.153-1.175,0.304-1.766,0.436c-0.765,0.171-1.531,0.333-2.301,0.482
	c-0.389,0.076-0.784,0.138-1.179,0.165c-1.009,0.069-1.952-0.199-2.841-0.654c-0.799-0.408-1.579-0.85-2.375-1.257
	c-1.125-0.574-2.288-1.057-3.495-1.42c-0.772-0.232-1.554-0.429-2.333-0.642C4.287,9.834,4.239,9.813,4.196,9.772
	C4.345,9.749,4.495,9.728,4.643,9.7c1.018-0.197,2.045-0.355,3.05-0.602c1.101-0.271,2.192-0.596,3.27-0.95
	c1.045-0.344,2.066-0.766,3.104-1.133c0.285-0.1,0.593-0.172,0.895-0.179c0.491-0.011,0.991-0.001,1.474,0.079
	c0.766,0.127,1.527,0.299,2.281,0.491c0.679,0.172,1.342,0.404,2.018,0.596c0.614,0.173,1.234,0.335,1.854,0.488
	c0.707,0.173,1.416,0.333,2.123,0.49c0.42,0.094,0.844,0.17,1.266,0.253c0.559,0.109,1.004,0.406,1.35,0.853
	C27.402,10.187,27.47,10.296,27.558,10.421z"/>
<path fill-rule="evenodd" clip-rule="evenodd" fill="#2C3962" d="M23.308,12.93c-0.023-0.164-0.062-0.305-0.118-0.423
	c-0.363,0.097-0.729,0.178-1.098,0.253c0.033,0.014,0.06,0.032,0.078,0.054c0.138,0.175,0.262,0.358,0.382,0.547
	c0.032,0.051,0.042,0.125,0.043,0.188c0.004,0.199,0.002,0.396-0.003,0.595c-0.002,0.067-0.018,0.133-0.026,0.201
	c-0.01,0.001-0.021,0.001-0.03,0.002c-0.129-0.159-0.26-0.32-0.388-0.48c-0.261-0.321-0.52-0.641-0.776-0.963
	c-0.104,0.02-0.209,0.043-0.313,0.062c0.304,0.385,0.616,0.763,0.93,1.138c0.139,0.163,0.29,0.315,0.437,0.471
	c0.078,0.084,0.115,0.176,0.104,0.297c-0.028,0.309-0.045,0.62-0.066,0.931c-0.002,0.029-0.015,0.059-0.026,0.11
	c-0.046-0.052-0.081-0.087-0.112-0.126c-0.288-0.354-0.562-0.718-0.865-1.058c-0.222-0.251-0.479-0.472-0.723-0.702
	c-0.048-0.047-0.114-0.081-0.177-0.103c-0.028-0.009-0.096,0.019-0.103,0.042c-0.029,0.095-0.038,0.194,0.043,0.274
	c0.022,0.022,0.043,0.046,0.067,0.064c0.452,0.311,0.79,0.736,1.156,1.13c0.182,0.194,0.348,0.397,0.523,0.596
	c0.094,0.103,0.141,0.217,0.125,0.361c-0.03,0.283-0.051,0.567-0.081,0.852c-0.002,0.04-0.023,0.075-0.042,0.132
	c-0.045-0.053-0.077-0.09-0.107-0.128c-0.427-0.513-0.854-1.024-1.276-1.539c-0.158-0.188-0.343-0.339-0.546-0.472
	c-0.049-0.03-0.102-0.092-0.167-0.026c-0.062,0.063-0.062,0.136-0.011,0.206c0.039,0.056,0.078,0.118,0.131,0.156
	c0.26,0.187,0.451,0.437,0.655,0.676c0.401,0.468,0.796,0.94,1.197,1.408c0.044,0.055,0.067,0.108,0.06,0.179
	c-0.04,0.413-0.077,0.827-0.115,1.239c-0.003,0.021-0.012,0.039-0.023,0.078c-0.034-0.029-0.06-0.048-0.082-0.071
	c-0.514-0.58-1.028-1.163-1.549-1.738c-0.089-0.099-0.204-0.173-0.317-0.24c-0.036-0.021-0.12,0.003-0.156,0.037
	c-0.022,0.021-0.017,0.104,0.006,0.143c0.073,0.111,0.15,0.228,0.244,0.32c0.544,0.532,1.014,1.126,1.509,1.7
	c0.048,0.055,0.102,0.108,0.162,0.155c0.063,0.047,0.096,0.103,0.091,0.184c-0.015,0.257-0.027,0.516-0.042,0.771
	c-0.003,0.044-0.02,0.088-0.036,0.158c-0.094-0.119-0.175-0.214-0.251-0.312c-0.481-0.626-0.96-1.25-1.445-1.872
	c-0.081-0.106-0.179-0.203-0.279-0.293c-0.06-0.05-0.133-0.11-0.217-0.035c-0.056,0.047-0.054,0.149,0.012,0.232
	c0.105,0.135,0.213,0.263,0.32,0.396c0.517,0.639,1.025,1.287,1.554,1.919c0.19,0.229,0.213,0.453,0.104,0.71
	c-0.022,0.049-0.042,0.098-0.069,0.163c-0.042-0.047-0.068-0.077-0.096-0.11c-0.467-0.548-0.93-1.099-1.4-1.642
	c-0.066-0.08-0.162-0.138-0.253-0.191c-0.087-0.05-0.19-0.026-0.241,0.035c-0.056,0.067-0.057,0.157,0.015,0.241
	c0.092,0.108,0.193,0.207,0.293,0.306c0.445,0.449,0.891,0.896,1.336,1.345c0.045,0.046,0.082,0.099,0.139,0.165
	c-0.07,0.01-0.115,0.021-0.157,0.022c-0.157,0.01-0.311,0.013-0.464,0.021c-0.119,0.007-0.212-0.036-0.291-0.126
	c-0.189-0.218-0.378-0.438-0.572-0.651c-0.063-0.073-0.136-0.14-0.21-0.203c-0.107-0.089-0.188-0.095-0.26-0.024
	c-0.081,0.079-0.098,0.248-0.024,0.329c0.062,0.068,0.136,0.127,0.207,0.189c0.12,0.105,0.244,0.207,0.359,0.316
	c0.025,0.022,0.029,0.065,0.043,0.098c-0.035,0.01-0.069,0.029-0.104,0.031c-0.151,0.01-0.303,0.02-0.455,0.03l0.002,0.001
	c0.073,0.015,0.147,0.051,0.218,0.109c0.427,0.353,0.717,0.384,1.251,0.437c0.484,0.049,1.016,0.12,1.368-0.28
	c0.014-0.015,0.027-0.029,0.042-0.043c0.13-0.427,0.185-0.868,0.25-1.309c0.049-0.322,0.087-0.647,0.129-0.97
	c0.048-0.356,0.092-0.712,0.136-1.066c0.045-0.365,0.086-0.731,0.129-1.097c0.043-0.383,0.092-0.767,0.134-1.151
	c0.046-0.408,0.089-0.817,0.126-1.228c0.046-0.475,0.082-0.951,0.12-1.391C23.349,13.398,23.344,13.161,23.308,12.93z"/>
<path fill-rule="evenodd" clip-rule="evenodd" fill="#2C3962" d="M72.108,78.331c0,0.97-0.15,1.907-0.343,2.84
	c-0.256,1.228-0.57,2.442-0.994,3.622c-0.328,0.914-0.725,1.814-1.18,2.68c-1.27,2.405-2.586,4.788-3.887,7.177
	c-0.369,0.676-0.731,1.356-1.127,2.018c-0.299,0.497-0.678,0.939-1.201,1.252c-0.597,0.354-1.18,0.33-1.743-0.065
	c-0.562-0.393-0.94-0.925-1.283-1.485c-0.915-1.493-1.697-3.052-2.457-4.617c-0.639-1.313-1.274-2.628-1.866-3.959
	c-0.694-1.559-1.36-3.127-2.001-4.705c-0.397-0.975-0.688-1.984-0.897-3.013c-0.245-1.188-0.324-2.387-0.143-3.588
	c0.201-1.35,0.745-2.566,1.643-3.639c1.07-1.274,2.379-2.267,3.943-2.947c0.841-0.363,1.716-0.621,2.644-0.691
	c0.356-0.027,0.713-0.061,1.07-0.051c0.811,0.021,1.593,0.201,2.355,0.459c1.819,0.617,3.389,1.592,4.703,2.927
	c1.062,1.078,1.903,2.294,2.447,3.678C72.062,76.904,72.121,77.623,72.108,78.331z M66.868,89.563
	c0.094-0.095,0.156-0.138,0.186-0.197c0.137-0.245,0.264-0.495,0.396-0.744c0.113-0.211,0.078-0.4-0.066-0.586
	c-0.083-0.108-0.152-0.228-0.207-0.35c-0.332-0.728-0.66-1.456-0.985-2.185c-0.103-0.227-0.205-0.455-0.293-0.685
	c-0.046-0.118-0.063-0.239,0.07-0.335c0.142-0.097,0.272-0.058,0.369,0.037c0.116,0.112,0.235,0.242,0.297,0.386
	c0.391,0.901,0.765,1.808,1.145,2.714c0.07,0.161,0.125,0.179,0.243,0.042c0.115-0.136,0.207-0.292,0.316-0.437
	c0.099-0.132,0.103-0.269,0.03-0.409c-0.212-0.416-0.445-0.82-0.643-1.239c-0.347-0.722-0.675-1.449-1.007-2.176
	c-0.129-0.285-0.05-0.574,0.188-0.717c0.175-0.104,0.299-0.088,0.401,0.08c0.085,0.138,0.155,0.287,0.205,0.438
	c0.256,0.806,0.499,1.613,0.759,2.418c0.085,0.265,0.207,0.52,0.318,0.776c0.046,0.113,0.132,0.118,0.204,0.027
	c0.096-0.118,0.186-0.243,0.266-0.371c0.25-0.407,0.256-0.791-0.039-1.204c-0.231-0.323-0.408-0.689-0.567-1.055
	c-0.167-0.385-0.267-0.797-0.427-1.186c-0.188-0.451-0.41-0.893-0.613-1.339c-0.109-0.237-0.02-0.408,0.247-0.414
	c0.101-0.003,0.237,0.065,0.301,0.144c0.164,0.201,0.352,0.411,0.436,0.646c0.276,0.765,0.511,1.543,0.758,2.315
	c0.074,0.236,0.135,0.476,0.216,0.71c0.018,0.058,0.085,0.102,0.129,0.15c0.039-0.048,0.088-0.093,0.114-0.147
	c0.05-0.106,0.085-0.221,0.133-0.33c0.184-0.425,0.245-0.842,0.048-1.292c-0.256-0.589-0.461-1.196-0.71-1.788
	c-0.318-0.755-0.659-1.501-0.987-2.251c-0.042-0.095-0.072-0.196-0.083-0.293c-0.011-0.122,0.052-0.222,0.179-0.268
	c0.12-0.047,0.21,0.012,0.284,0.092c0.051,0.058,0.103,0.12,0.129,0.188c0.231,0.553,0.483,1.097,0.676,1.661
	c0.277,0.815,0.509,1.644,0.764,2.465c0.012,0.04,0.042,0.075,0.077,0.128c0.035-0.046,0.057-0.062,0.069-0.085
	c0.021-0.036,0.048-0.075,0.058-0.116c0.115-0.453,0.212-0.909,0.351-1.355c0.081-0.255-0.019-0.434-0.168-0.618
	c-0.142-0.174-0.284-0.346-0.421-0.527c-0.092-0.127-0.194-0.256-0.243-0.4c-0.17-0.5-0.304-1.01-0.476-1.507
	c-0.199-0.566-0.342-1.166-0.881-1.564c-0.009-0.005-0.015-0.016-0.021-0.024c-0.092-0.121-0.066-0.192,0.085-0.238
	c0.253-0.077,0.574,0.015,0.729,0.257c0.168,0.259,0.312,0.534,0.428,0.818c0.285,0.715,0.545,1.438,0.826,2.155
	c0.072,0.186,0.186,0.355,0.28,0.532c0.018-0.006,0.041-0.012,0.059-0.017c0.011-0.071,0.032-0.144,0.03-0.214
	c-0.009-0.397-0.026-0.795-0.035-1.191c-0.011-0.441-0.067-0.864-0.269-1.279c-0.458-0.943-0.837-1.92-1.418-2.809
	c-0.101-0.156-0.146-0.325,0.007-0.491c0.031-0.034,0.031-0.131,0.002-0.17c-0.201-0.285-0.391-0.582-0.625-0.84
	c-1.484-1.63-3.327-2.616-5.627-2.812c-1.534-0.132-3.002,0.064-4.406,0.664c-1.243,0.528-2.244,1.334-2.995,2.407
	c-0.787,1.124-1.182,2.383-1.317,3.712c-0.125,1.234-0.022,2.457,0.277,3.664c0.253,1.013,0.599,2.001,1.037,2.953
	c0.641,1.388,1.307,2.765,1.979,4.142c1.079,2.216,2.172,4.427,3.258,6.641c0.098,0.2,0.198,0.402,0.297,0.6
	c0.032-0.049,0.042-0.092,0.032-0.129c-0.168-0.573-0.343-1.145-0.502-1.72c-0.106-0.377-0.199-0.76-0.275-1.143
	c-0.026-0.126-0.009-0.271,0.031-0.394c0.065-0.188,0.277-0.208,0.393-0.042c0.065,0.092,0.122,0.197,0.15,0.304
	c0.127,0.494,0.254,0.988,0.363,1.487c0.142,0.656,0.249,1.32,0.399,1.975c0.079,0.343,0.188,0.685,0.334,1.007
	c0.111,0.246,0.342,0.401,0.655,0.377c0.213-0.016,0.273-0.112,0.185-0.291c-0.029-0.064-0.06-0.127-0.099-0.185
	c-0.326-0.472-0.487-1.005-0.603-1.545c-0.121-0.583-0.162-1.181-0.284-1.763c-0.109-0.528-0.28-1.047-0.431-1.567
	c-0.037-0.122,0-0.224,0.133-0.262c0.175-0.049,0.358,0.005,0.439,0.184c0.115,0.248,0.214,0.508,0.271,0.773
	c0.098,0.444,0.156,0.899,0.239,1.347c0.099,0.55,0.195,1.102,0.315,1.647c0.074,0.339,0.174,0.676,0.284,1.008
	c0.085,0.252,0.214,0.27,0.419,0.08c0.392-0.36,0.463-0.765,0.295-1.262c-0.253-0.75-0.439-1.518-0.66-2.276
	c-0.174-0.596-0.355-1.185-0.524-1.778c-0.062-0.206-0.113-0.416-0.14-0.627c-0.009-0.075,0.051-0.214,0.107-0.229
	c0.083-0.021,0.212,0.017,0.286,0.072c0.087,0.066,0.146,0.175,0.199,0.274c0.441,0.832,0.583,1.74,0.755,2.644
	c0.101,0.528,0.19,1.058,0.289,1.586c0.013,0.062,0.061,0.121,0.09,0.182c0.063-0.038,0.152-0.063,0.186-0.12
	c0.205-0.323,0.412-0.651,0.59-0.99c0.127-0.238,0.065-0.461-0.083-0.696c-0.291-0.473-0.521-0.975-0.658-1.51
	c-0.155-0.604-0.304-1.208-0.572-1.781c-0.108-0.227-0.133-0.464-0.044-0.705c0.079-0.219,0.311-0.273,0.479-0.107
	c0.056,0.054,0.106,0.118,0.131,0.188c0.098,0.267,0.2,0.534,0.269,0.81c0.172,0.704,0.318,1.416,0.494,2.118
	c0.056,0.222,0.163,0.434,0.262,0.642c0.065,0.131,0.131,0.126,0.223,0.009c0.055-0.074,0.111-0.148,0.166-0.225
	c0.173-0.246,0.229-0.519,0.143-0.799c-0.203-0.646-0.429-1.288-0.634-1.934c-0.217-0.682-0.45-1.357-0.785-1.998
	c-0.071-0.134-0.041-0.257,0.083-0.345c0.125-0.091,0.268-0.092,0.394,0.003c0.076,0.061,0.143,0.139,0.192,0.222
	c0.325,0.548,0.518,1.137,0.625,1.757c0.087,0.484,0.19,0.969,0.299,1.45c0.022,0.11,0.081,0.213,0.14,0.36
	c0.081-0.096,0.146-0.146,0.173-0.21c0.143-0.337,0.28-0.677,0.407-1.021c0.043-0.112,0.036-0.235-0.075-0.327
	c-0.484-0.402-0.618-0.962-0.728-1.521c-0.109-0.55-0.177-1.105-0.52-1.584c-0.037-0.057-0.051-0.131-0.065-0.198
	c-0.039-0.175,0.062-0.394,0.196-0.446c0.122-0.048,0.26,0.021,0.39,0.196c0.22,0.298,0.312,0.641,0.395,0.987
	c0.145,0.589,0.275,1.181,0.427,1.77C66.685,89.179,66.776,89.345,66.868,89.563z"/>
<path fill-rule="evenodd" clip-rule="evenodd" fill="#FFFFFF" d="M66.868,89.563c-0.092-0.219-0.184-0.385-0.229-0.562
	c-0.151-0.589-0.282-1.181-0.427-1.77c-0.083-0.347-0.175-0.689-0.395-0.987c-0.13-0.176-0.268-0.244-0.39-0.196
	c-0.135,0.053-0.235,0.271-0.196,0.446c0.015,0.067,0.028,0.142,0.065,0.198c0.343,0.479,0.41,1.034,0.52,1.584
	c0.109,0.559,0.243,1.118,0.728,1.521c0.111,0.092,0.118,0.215,0.075,0.327c-0.127,0.344-0.265,0.684-0.407,1.021
	c-0.026,0.064-0.092,0.114-0.173,0.21c-0.059-0.147-0.117-0.25-0.14-0.36c-0.108-0.481-0.212-0.966-0.299-1.45
	c-0.107-0.62-0.3-1.209-0.625-1.757c-0.05-0.083-0.116-0.161-0.192-0.222c-0.126-0.095-0.269-0.094-0.394-0.003
	c-0.124,0.088-0.154,0.211-0.083,0.345c0.335,0.641,0.568,1.316,0.785,1.998c0.205,0.646,0.431,1.287,0.634,1.934
	c0.087,0.28,0.03,0.553-0.143,0.799c-0.055,0.076-0.111,0.15-0.166,0.225c-0.092,0.117-0.157,0.122-0.223-0.009
	c-0.099-0.208-0.206-0.42-0.262-0.642c-0.176-0.702-0.322-1.414-0.494-2.118c-0.068-0.275-0.171-0.543-0.269-0.81
	c-0.024-0.069-0.075-0.134-0.131-0.188c-0.169-0.166-0.4-0.111-0.479,0.107c-0.089,0.241-0.064,0.479,0.044,0.705
	c0.269,0.573,0.417,1.177,0.572,1.781c0.138,0.535,0.367,1.037,0.658,1.51c0.148,0.235,0.21,0.458,0.083,0.696
	c-0.178,0.339-0.385,0.667-0.59,0.99c-0.033,0.057-0.122,0.082-0.186,0.12c-0.029-0.061-0.077-0.12-0.09-0.182
	c-0.099-0.528-0.188-1.058-0.289-1.586c-0.172-0.903-0.313-1.812-0.755-2.644c-0.053-0.1-0.112-0.208-0.199-0.274
	c-0.074-0.056-0.203-0.093-0.286-0.072c-0.057,0.015-0.116,0.153-0.107,0.229c0.026,0.211,0.077,0.421,0.14,0.627
	c0.169,0.594,0.351,1.183,0.524,1.778c0.221,0.759,0.407,1.526,0.66,2.276c0.168,0.497,0.097,0.901-0.295,1.262
	c-0.205,0.189-0.334,0.172-0.419-0.08c-0.11-0.332-0.21-0.669-0.284-1.008c-0.12-0.546-0.217-1.098-0.315-1.647
	c-0.083-0.447-0.142-0.902-0.239-1.347c-0.058-0.266-0.156-0.525-0.271-0.773c-0.081-0.179-0.265-0.232-0.439-0.184
	c-0.133,0.038-0.17,0.14-0.133,0.262c0.15,0.521,0.321,1.039,0.431,1.567c0.122,0.582,0.163,1.18,0.284,1.763
	c0.115,0.54,0.276,1.073,0.603,1.545c0.039,0.058,0.069,0.12,0.099,0.185c0.089,0.179,0.028,0.275-0.185,0.291
	c-0.313,0.024-0.544-0.131-0.655-0.377c-0.146-0.322-0.255-0.664-0.334-1.007c-0.15-0.654-0.258-1.318-0.399-1.975
	c-0.109-0.499-0.236-0.993-0.363-1.487c-0.028-0.106-0.085-0.212-0.15-0.304c-0.115-0.166-0.327-0.146-0.393,0.042
	c-0.04,0.122-0.058,0.268-0.031,0.394c0.076,0.383,0.169,0.766,0.275,1.143c0.159,0.575,0.334,1.146,0.502,1.72
	c0.01,0.037,0,0.08-0.032,0.129c-0.099-0.197-0.199-0.399-0.297-0.6c-1.086-2.214-2.179-4.425-3.258-6.641
	c-0.673-1.377-1.339-2.754-1.979-4.142c-0.438-0.952-0.784-1.94-1.037-2.953c-0.3-1.207-0.402-2.43-0.277-3.664
	c0.136-1.329,0.53-2.588,1.317-3.712c0.751-1.073,1.752-1.879,2.995-2.407c1.404-0.6,2.872-0.796,4.406-0.664
	c2.3,0.195,4.143,1.182,5.627,2.812c0.234,0.258,0.424,0.555,0.625,0.84c0.029,0.039,0.029,0.136-0.002,0.17
	c-0.152,0.166-0.107,0.335-0.007,0.491c0.581,0.889,0.96,1.865,1.418,2.809c0.201,0.415,0.258,0.838,0.269,1.279
	c0.009,0.396,0.026,0.794,0.035,1.191c0.002,0.07-0.02,0.143-0.03,0.214c-0.018,0.005-0.041,0.011-0.059,0.017
	c-0.095-0.177-0.208-0.347-0.28-0.532c-0.281-0.717-0.541-1.44-0.826-2.155c-0.115-0.284-0.26-0.56-0.428-0.818
	c-0.155-0.242-0.477-0.334-0.729-0.257c-0.151,0.046-0.177,0.117-0.085,0.238c0.007,0.009,0.013,0.02,0.021,0.024
	c0.539,0.398,0.682,0.998,0.881,1.564c0.172,0.497,0.306,1.007,0.476,1.507c0.049,0.145,0.151,0.273,0.243,0.4
	c0.137,0.182,0.279,0.354,0.421,0.527c0.149,0.185,0.249,0.363,0.168,0.618c-0.139,0.446-0.235,0.902-0.351,1.355
	c-0.01,0.041-0.037,0.08-0.058,0.116c-0.013,0.022-0.034,0.039-0.069,0.085c-0.035-0.053-0.065-0.088-0.077-0.128
	c-0.255-0.821-0.486-1.649-0.764-2.465c-0.192-0.564-0.444-1.108-0.676-1.661c-0.026-0.068-0.078-0.131-0.129-0.188
	c-0.074-0.08-0.164-0.139-0.284-0.092c-0.127,0.046-0.189,0.146-0.179,0.268c0.011,0.097,0.041,0.198,0.083,0.293
	c0.328,0.75,0.669,1.496,0.987,2.251c0.249,0.592,0.454,1.199,0.71,1.788c0.197,0.45,0.136,0.867-0.048,1.292
	c-0.048,0.109-0.083,0.224-0.133,0.33c-0.026,0.055-0.075,0.1-0.114,0.147c-0.044-0.049-0.111-0.093-0.129-0.15
	c-0.081-0.234-0.142-0.474-0.216-0.71c-0.247-0.772-0.481-1.551-0.758-2.315c-0.084-0.235-0.271-0.445-0.436-0.646
	c-0.063-0.078-0.2-0.146-0.301-0.144c-0.267,0.006-0.356,0.177-0.247,0.414c0.203,0.446,0.426,0.888,0.613,1.339
	c0.16,0.389,0.26,0.801,0.427,1.186c0.159,0.365,0.336,0.731,0.567,1.055c0.295,0.413,0.289,0.797,0.039,1.204
	c-0.08,0.128-0.17,0.253-0.266,0.371c-0.072,0.091-0.158,0.086-0.204-0.027c-0.111-0.257-0.233-0.512-0.318-0.776
	c-0.26-0.805-0.503-1.612-0.759-2.418c-0.05-0.151-0.12-0.301-0.205-0.438c-0.103-0.168-0.227-0.184-0.401-0.08
	c-0.238,0.143-0.317,0.432-0.188,0.717c0.332,0.727,0.66,1.454,1.007,2.176c0.197,0.419,0.431,0.823,0.643,1.239
	c0.072,0.141,0.068,0.277-0.03,0.409c-0.109,0.145-0.201,0.301-0.316,0.437c-0.118,0.137-0.173,0.119-0.243-0.042
	c-0.38-0.906-0.754-1.812-1.145-2.714c-0.062-0.144-0.181-0.273-0.297-0.386c-0.097-0.095-0.228-0.134-0.369-0.037
	c-0.134,0.096-0.116,0.217-0.07,0.335c0.088,0.229,0.19,0.458,0.293,0.685c0.325,0.729,0.653,1.457,0.985,2.185
	c0.055,0.122,0.124,0.241,0.207,0.35c0.145,0.186,0.18,0.375,0.066,0.586c-0.132,0.249-0.259,0.499-0.396,0.744
	C67.024,89.426,66.962,89.469,66.868,89.563z M62.719,79.098c0.159-0.018,0.438-0.032,0.708-0.09
	c0.563-0.117,1.035-0.381,1.358-0.845c0.637-0.916,0.424-2.238-0.47-2.951c-0.585-0.468-1.271-0.701-2.026-0.749
	c-0.739-0.048-1.383,0.169-1.798,0.776c-0.424,0.619-0.69,1.304-0.717,2.051c-0.024,0.637,0.264,1.116,0.874,1.411
	C61.262,78.998,61.924,79.066,62.719,79.098z M55.469,76.127c-0.016,0.001-0.033,0.001-0.053,0.003
	c0.052,0.402,0.085,0.81,0.161,1.207c0.022,0.118,0.143,0.249,0.26,0.312c0.083,0.046,0.252,0.021,0.342-0.033
	c0.15-0.093,0.17-0.268,0.12-0.422c-0.141-0.446-0.138-0.901-0.102-1.357c0.038-0.544,0.228-1.036,0.656-1.424
	c0.468-0.423,0.937-0.845,1.402-1.27c0.09-0.081,0.181-0.167,0.245-0.265c0.092-0.129,0.017-0.259-0.149-0.244
	c-0.124,0.01-0.255,0.049-0.367,0.104c-0.498,0.246-0.917,0.599-1.308,0.97c-0.295,0.278-0.572,0.581-0.819,0.899
	C55.508,75.054,55.457,75.587,55.469,76.127z"/>
<path fill-rule="evenodd" clip-rule="evenodd" fill="#2C3962" d="M62.719,79.098c-0.795-0.031-1.457-0.1-2.07-0.396
	c-0.61-0.295-0.898-0.774-0.874-1.411c0.026-0.747,0.293-1.432,0.717-2.051c0.415-0.607,1.059-0.824,1.798-0.776
	c0.755,0.048,1.441,0.281,2.026,0.749c0.894,0.713,1.106,2.035,0.47,2.951c-0.323,0.464-0.795,0.728-1.358,0.845
	C63.156,79.065,62.878,79.08,62.719,79.098z M62.602,78.062c0.426,0.016,0.81-0.104,1.115-0.403
	c0.483-0.475,0.448-1.143-0.104-1.509c-0.198-0.132-0.437-0.234-0.671-0.292c-0.336-0.08-0.677-0.129-0.947-0.354
	c-0.003-0.002-0.01-0.009-0.01-0.009c-0.094,0.008-0.196-0.008-0.269,0.028c-0.083,0.044-0.152,0.128-0.209,0.205
	c-0.267,0.369-0.383,0.786-0.402,1.228c-0.016,0.354,0.157,0.63,0.457,0.831C61.869,77.992,62.221,78.065,62.602,78.062z"/>
<path fill-rule="evenodd" clip-rule="evenodd" fill="#2C3962" d="M55.469,76.127c-0.012-0.54,0.039-1.073,0.389-1.521
	c0.247-0.318,0.524-0.621,0.819-0.899c0.391-0.371,0.81-0.724,1.308-0.97c0.112-0.055,0.243-0.094,0.367-0.104
	c0.166-0.015,0.241,0.115,0.149,0.244c-0.064,0.098-0.155,0.184-0.245,0.265c-0.466,0.425-0.935,0.847-1.402,1.27
	c-0.429,0.388-0.618,0.88-0.656,1.424c-0.036,0.456-0.039,0.911,0.102,1.357c0.05,0.154,0.03,0.329-0.12,0.422
	c-0.09,0.055-0.259,0.079-0.342,0.033c-0.117-0.062-0.237-0.193-0.26-0.312c-0.076-0.397-0.109-0.805-0.161-1.207
	C55.436,76.128,55.453,76.128,55.469,76.127z"/>
</svg>
