<?xml version="1.0" encoding="utf-8"?>
<!-- Generator: Adobe Illustrator 16.0.0, SVG Export Plug-In . SVG Version: 6.00 Build 0)  -->
<!DOCTYPE svg PUBLIC "-//W3C//DTD SVG 1.1//EN" "http://www.w3.org/Graphics/SVG/1.1/DTD/svg11.dtd">
<svg version="1.1" id="Layer_1" xmlns="http://www.w3.org/2000/svg" xmlns:xlink="http://www.w3.org/1999/xlink" x="0px" y="0px"
	 width="30px" height="30px" viewBox="0 0 30 30" enable-background="new 0 0 30 30" xml:space="preserve">
<g>
	<circle fill="#E29967" cx="15" cy="14.917" r="14.548"/>
	<path fill-rule="evenodd" clip-rule="evenodd" fill="#C4855A" d="M24.499,17.629c-0.023,0.021,0.015-0.055,0.016-0.076
		c0.007-0.053,0.017-0.109,0.014-0.164c-0.001-0.021-0.005-0.042-0.007-0.063c-0.44,0.277-0.782,0.642-0.997,1.127
		c-0.22,0.495-0.396,1.004-0.521,1.529c-0.114,0.487-0.172,0.979-0.193,1.476c-0.008,0.179,0.005,0.359,0.017,0.539
		c0.005,0.099,0.069,0.157,0.164,0.185c0.194,0.056,0.388-0.085,0.396-0.296c0.008-0.173-0.003-0.348,0.009-0.519
		c0.029-0.576,0.137-1.14,0.324-1.685c0.128-0.373,0.254-0.749,0.469-1.089c0.092-0.148,0.201-0.281,0.321-0.401
		C24.365,18.057,24.31,17.804,24.499,17.629z"/>
	<path fill-rule="evenodd" clip-rule="evenodd" fill="#C4855A" d="M25.789,19.433c-0.188-0.557-0.489-1.033-0.993-1.36
		c-0.034-0.023-0.066-0.081-0.066-0.121c-0.004-0.821-0.021-1.642,0.004-2.461c0.021-0.635,0.099-1.268,0.14-1.902
		c0.031-0.501,0.024-1.001-0.149-1.481c-0.028-0.08-0.021-0.104,0.056-0.136c0.274-0.107,0.544-0.22,0.812-0.338
		c0.254-0.112,0.301-0.32,0.128-0.527c-0.344-0.408-0.769-0.7-1.26-0.9c-0.708-0.289-1.464-0.394-2.202-0.57
		c-0.418-0.099-0.836-0.188-1.256-0.285c-0.418-0.096-0.837-0.194-1.255-0.289c-0.419-0.096-0.837-0.189-1.257-0.284
		c-0.426-0.095-0.852-0.194-1.277-0.287c-0.463-0.102-0.925-0.208-1.39-0.292c-0.291-0.052-0.589-0.099-0.883-0.091
		c-0.583,0.016-1.127,0.218-1.659,0.444c-0.704,0.299-1.381,0.661-2.119,0.882c-0.41,0.123-0.818,0.259-1.232,0.368
		s-0.833,0.202-1.255,0.285c-0.475,0.093-0.952,0.179-1.432,0.247c-0.477,0.067-0.956,0.12-1.436,0.157
		c-0.517,0.038-1.035,0.051-1.553,0.071c-0.131,0.004-0.251,0.083-0.273,0.194c-0.032,0.16,0.047,0.339,0.176,0.376
		c0.09,0.026,0.186,0.038,0.28,0.047c0.208,0.023,0.419,0.027,0.624,0.061c0.457,0.074,0.915,0.146,1.366,0.25
		c0.585,0.135,1.164,0.301,1.746,0.455c0.083,0.022,0.12,0.064,0.122,0.162c0.042,2.024-0.011,4.046-0.085,6.068
		c-0.008,0.21-0.021,0.419-0.049,0.627c-0.06,0.44-0.139,0.878-0.192,1.32c-0.047,0.397-0.068,0.8,0.03,1.195
		c0.048,0.194,0.117,0.383,0.283,0.509c0.055,0.041,0.135,0.079,0.198,0.071c0.129-0.017,0.266-0.044,0.38-0.104
		c0.19-0.099,0.371-0.222,0.545-0.348c0.676-0.483,1.427-0.798,2.243-0.94c0.452-0.079,0.911-0.124,1.369-0.149
		c0.979-0.053,1.96-0.097,2.942-0.122c0.817-0.019,1.632,0.058,2.434,0.225c0.698,0.146,1.368,0.379,2.007,0.705
		c0.263,0.133,0.446,0.026,0.466-0.269c0.018-0.253,0.022-0.508,0.052-0.76c0.072-0.628,0.151-1.254,0.234-1.881
		c0.039-0.299,0.091-0.596,0.133-0.895c0.065-0.473,0.136-0.944,0.191-1.419c0.049-0.418,0.1-0.84,0.116-1.262
		c0.021-0.483,0.006-0.968,0.006-1.455c0.039-0.017,0.075-0.035,0.114-0.049c0.608-0.233,1.218-0.464,1.825-0.698
		c0.074-0.027,0.13-0.026,0.164,0.05c0.078,0.181,0.172,0.359,0.228,0.547c0.159,0.541,0.137,1.204,0.157,1.765
		c0.039,1.029,0.059,1.969,0.072,3c0,0.025-0.012,0.054-0.028,0.079c0.08,0.301,0.156,0.633,0.092,0.935
		c-0.032,0.764-0.066,1.527-0.098,2.292c-0.009,0.173-0.012,0.346-0.013,0.519c0,0.118,0.073,0.214,0.181,0.25
		c0.244,0.084,0.436-0.051,0.436-0.312c0-0.905,0-1.811,0-2.715v-0.142c0.038,0.035,0.056,0.048,0.068,0.062
		c0.299,0.332,0.453,0.736,0.546,1.162c0.114,0.527,0.145,1.063,0.119,1.603c-0.009,0.197-0.022,0.396-0.028,0.595
		c-0.004,0.122,0.067,0.207,0.178,0.229c0.243,0.051,0.428-0.088,0.438-0.335c0.01-0.187,0.012-0.374,0.015-0.562
		C26.071,20.796,26.016,20.103,25.789,19.433z M20.962,13.835c-0.068,0.583-0.137,1.168-0.209,1.751
		c-0.063,0.505-0.132,1.009-0.197,1.512c-0.063,0.476-0.124,0.95-0.194,1.425c-0.081,0.541-0.172,1.082-0.258,1.622
		c-0.012,0.078-0.045,0.087-0.113,0.056c-0.714-0.337-1.474-0.51-2.256-0.597c-1.032-0.114-2.065-0.076-3.097-0.004
		c-0.718,0.05-1.434,0.09-2.15,0.146c-0.395,0.03-0.791,0.062-1.179,0.133c-0.259,0.049-0.509,0.16-0.758,0.255
		c-0.518,0.197-1.03,0.406-1.505,0.694c-0.103,0.062-0.197,0.142-0.302,0.216c-0.003-0.024-0.008-0.052-0.009-0.079
		c-0.048-1.007-0.015-2.013,0.033-3.019c0.083-1.767,0.242-3.532,0.25-5.301c0-0.146,0-0.29,0-0.463
		c0.109,0.038,0.203,0.066,0.292,0.103c0.486,0.196,0.986,0.364,1.454,0.598c0.472,0.237,0.916,0.538,1.368,0.819
		c0.459,0.286,0.916,0.579,1.423,0.782c0.368,0.147,0.751,0.184,1.14,0.181c0.745-0.007,1.484-0.071,2.22-0.19
		c0.82-0.131,1.628-0.316,2.426-0.543c0.538-0.153,1.069-0.335,1.604-0.503c0.009-0.003,0.02-0.001,0.048-0.001
		C20.982,13.565,20.977,13.701,20.962,13.835z M24.228,11.561c-0.104,0.02-0.223-0.034-0.335-0.038
		c-0.296-0.01-0.598-0.034-0.892-0.011c-0.374,0.028-0.742-0.004-1.111-0.04c-0.581-0.057-1.161-0.122-1.739-0.196
		c-0.41-0.052-0.822-0.116-1.23-0.183c-0.506-0.084-1.012-0.171-1.515-0.266c-0.428-0.08-0.853-0.173-1.279-0.263
		c-0.203-0.043-0.406-0.094-0.61-0.135c-0.159-0.032-0.326,0.077-0.364,0.229c-0.036,0.15,0.039,0.383,0.223,0.42
		c0.533,0.111,1.066,0.222,1.602,0.323c0.512,0.098,1.022,0.192,1.536,0.273c0.602,0.095,1.205,0.179,1.808,0.259
		c0.49,0.066,0.984,0.122,1.476,0.179c0.227,0.026,0.453,0.045,0.681,0.068c0.067,0.007-0.004-0.026,0.067,0.007
		c0,0-0.1,0.045-0.12,0.052c-0.624,0.186-1.042,0.279-1.669,0.457c-0.449,0.126-0.903,0.235-1.357,0.345
		c-0.452,0.11-0.901,0.216-1.357,0.311c-0.586,0.123-1.176,0.236-1.766,0.344c-0.299,0.054-0.603,0.098-0.906,0.117
		c-0.776,0.048-1.5-0.143-2.184-0.467c-0.613-0.289-1.213-0.604-1.825-0.895c-0.863-0.409-1.755-0.753-2.684-1.012
		c-0.593-0.166-1.194-0.305-1.792-0.457c-0.037-0.009-0.072-0.024-0.105-0.053C6.892,10.915,7.007,10.9,7.12,10.88
		c0.782-0.14,1.571-0.253,2.344-0.429c0.846-0.192,1.684-0.424,2.511-0.677c0.803-0.244,1.587-0.544,2.383-0.807
		c0.22-0.071,0.458-0.122,0.689-0.126c0.376-0.008,0.76-0.001,1.13,0.056c0.589,0.09,1.175,0.213,1.753,0.35
		c0.521,0.123,1.033,0.288,1.551,0.424c0.473,0.125,0.947,0.239,1.425,0.347c0.54,0.123,1.085,0.237,1.631,0.349
		c0.321,0.067,0.646,0.122,0.971,0.181c0.43,0.079,0.771,0.288,1.037,0.606c0.06,0.072,0.111,0.15,0.179,0.239
		C24.548,11.455,24.393,11.529,24.228,11.561z"/>
	<path fill-rule="evenodd" clip-rule="evenodd" fill="#FFFFFF" d="M8.579,21.152c-0.004-0.026-0.01-0.054-0.011-0.08
		c-0.048-1.02-0.015-2.038,0.033-3.056c0.085-1.789,0.247-3.574,0.254-5.366c0.001-0.147,0-0.292,0-0.469
		c0.111,0.038,0.205,0.067,0.296,0.104c0.493,0.197,1,0.367,1.473,0.604c0.48,0.241,0.929,0.544,1.386,0.828
		c0.468,0.29,0.93,0.587,1.443,0.793c0.374,0.148,0.762,0.185,1.156,0.183c0.755-0.007,1.503-0.072,2.25-0.192
		c0.832-0.133,1.649-0.32,2.459-0.551c0.546-0.154,1.083-0.339,1.624-0.51c0.011-0.003,0.021,0,0.05,0
		c-0.01,0.141-0.017,0.278-0.032,0.414c-0.067,0.591-0.138,1.183-0.211,1.774c-0.063,0.509-0.132,1.019-0.201,1.529
		c-0.063,0.481-0.124,0.963-0.195,1.442c-0.081,0.549-0.174,1.095-0.261,1.644c-0.013,0.079-0.047,0.087-0.114,0.055
		c-0.726-0.341-1.493-0.516-2.286-0.604c-1.047-0.117-2.093-0.078-3.141-0.004c-0.727,0.05-1.453,0.091-2.179,0.146
		c-0.4,0.03-0.801,0.062-1.194,0.135c-0.263,0.049-0.516,0.162-0.769,0.258c-0.524,0.199-1.043,0.411-1.525,0.703
		C8.778,20.997,8.684,21.076,8.579,21.152z"/>
	<path fill-rule="evenodd" clip-rule="evenodd" fill="#FFFFFF" d="M24.724,11.433c-0.176,0.067-0.331,0.146-0.496,0.181
		c-0.104,0.022-0.223-0.037-0.335-0.042c-0.296-0.011-0.598-0.036-0.892-0.011c-0.374,0.031-0.742-0.004-1.111-0.043
		c-0.581-0.061-1.161-0.132-1.739-0.211c-0.41-0.056-0.822-0.126-1.23-0.198c-0.506-0.09-1.012-0.183-1.515-0.286
		c-0.428-0.087-0.853-0.188-1.279-0.284c-0.203-0.046-0.406-0.101-0.61-0.146c-0.159-0.034-0.326,0.084-0.364,0.248
		c-0.036,0.161,0.043,0.286,0.229,0.326c0.533,0.12,1.066,0.239,1.602,0.348c0.511,0.106,1.022,0.208,1.535,0.295
		c0.602,0.103,1.205,0.193,1.809,0.28c0.491,0.07,0.983,0.131,1.476,0.192c0.226,0.029,0.452,0.049,0.679,0.074
		c0.067,0.007,0.136,0.017,0.207,0.052c-0.02,0.01-0.037,0.024-0.059,0.031c-0.623,0.2-1.247,0.41-1.874,0.6
		c-0.449,0.136-0.903,0.254-1.357,0.373c-0.452,0.119-0.901,0.233-1.357,0.336c-0.586,0.131-1.176,0.255-1.766,0.37
		c-0.299,0.058-0.603,0.106-0.906,0.127c-0.776,0.052-1.5-0.154-2.184-0.503c-0.613-0.313-1.213-0.653-1.825-0.965
		c-0.863-0.441-1.755-0.812-2.684-1.091c-0.593-0.178-1.194-0.33-1.792-0.493c-0.037-0.011-0.072-0.026-0.105-0.057
		c0.113-0.019,0.229-0.034,0.342-0.057c0.782-0.15,1.571-0.272,2.344-0.462c0.846-0.208,1.684-0.458,2.511-0.73
		c0.803-0.264,1.587-0.588,2.383-0.869c0.22-0.078,0.458-0.132,0.689-0.137c0.376-0.009,0.76-0.001,1.13,0.06
		c0.589,0.098,1.175,0.23,1.753,0.377c0.521,0.132,1.033,0.31,1.551,0.457c0.473,0.134,0.947,0.258,1.425,0.375
		c0.54,0.132,1.085,0.256,1.631,0.376c0.321,0.072,0.646,0.131,0.971,0.195c0.43,0.084,0.771,0.311,1.037,0.655
		C24.604,11.252,24.656,11.336,24.724,11.433z"/>
	<path fill-rule="evenodd" clip-rule="evenodd" fill="#C4855A" d="M21.459,13.36c-0.019-0.125-0.049-0.235-0.091-0.326
		c-0.278,0.076-0.561,0.139-0.844,0.196c0.024,0.01,0.046,0.023,0.06,0.04c0.105,0.135,0.203,0.276,0.294,0.42
		c0.025,0.04,0.032,0.096,0.033,0.146c0.003,0.152,0.001,0.304-0.003,0.456c-0.001,0.051-0.014,0.103-0.02,0.155
		c-0.008,0-0.016,0.001-0.024,0.002c-0.099-0.124-0.197-0.246-0.299-0.369c-0.199-0.247-0.397-0.493-0.594-0.74
		c-0.081,0.015-0.161,0.031-0.24,0.047c0.231,0.296,0.472,0.585,0.714,0.874c0.104,0.126,0.223,0.241,0.334,0.362
		c0.062,0.064,0.088,0.136,0.08,0.229c-0.021,0.237-0.034,0.476-0.052,0.714c-0.002,0.023-0.011,0.046-0.02,0.086
		c-0.035-0.04-0.063-0.068-0.087-0.098c-0.222-0.271-0.432-0.551-0.664-0.812c-0.172-0.193-0.368-0.363-0.555-0.54
		c-0.039-0.036-0.087-0.062-0.137-0.078c-0.021-0.008-0.074,0.014-0.079,0.032c-0.021,0.073-0.029,0.148,0.033,0.21
		c0.018,0.017,0.033,0.035,0.053,0.048c0.346,0.24,0.605,0.567,0.889,0.87c0.138,0.149,0.268,0.304,0.402,0.456
		c0.07,0.08,0.106,0.167,0.096,0.277c-0.024,0.219-0.041,0.438-0.062,0.657c-0.003,0.028-0.019,0.057-0.033,0.1
		c-0.034-0.04-0.058-0.069-0.082-0.098c-0.327-0.395-0.655-0.788-0.981-1.182c-0.119-0.146-0.263-0.263-0.419-0.364
		c-0.038-0.024-0.077-0.071-0.128-0.021c-0.048,0.049-0.047,0.104-0.009,0.158c0.03,0.042,0.06,0.091,0.101,0.122
		c0.199,0.141,0.347,0.333,0.505,0.517c0.307,0.359,0.61,0.722,0.917,1.083c0.036,0.041,0.053,0.082,0.048,0.136
		c-0.03,0.317-0.06,0.635-0.089,0.952c-0.001,0.017-0.009,0.031-0.018,0.061c-0.026-0.023-0.047-0.036-0.063-0.056
		c-0.396-0.444-0.79-0.893-1.19-1.335c-0.066-0.074-0.155-0.132-0.243-0.184c-0.026-0.017-0.092,0.003-0.119,0.027
		c-0.019,0.018-0.014,0.082,0.004,0.11c0.056,0.086,0.114,0.175,0.188,0.246c0.418,0.407,0.779,0.864,1.159,1.306
		c0.036,0.043,0.079,0.084,0.125,0.118c0.048,0.038,0.072,0.08,0.069,0.142c-0.012,0.198-0.021,0.396-0.032,0.594
		c-0.002,0.034-0.016,0.067-0.027,0.121c-0.074-0.091-0.135-0.164-0.193-0.239c-0.369-0.479-0.738-0.961-1.11-1.438
		c-0.063-0.081-0.138-0.154-0.215-0.224c-0.045-0.038-0.102-0.086-0.166-0.028c-0.043,0.036-0.041,0.115,0.009,0.179
		c0.079,0.104,0.164,0.203,0.246,0.304c0.396,0.493,0.788,0.99,1.193,1.475c0.146,0.177,0.162,0.349,0.078,0.547
		c-0.015,0.037-0.031,0.073-0.052,0.124c-0.031-0.035-0.053-0.059-0.074-0.084c-0.357-0.422-0.714-0.844-1.075-1.263
		c-0.052-0.061-0.124-0.104-0.195-0.146c-0.065-0.039-0.146-0.021-0.185,0.027c-0.043,0.051-0.044,0.119,0.012,0.186
		c0.07,0.082,0.147,0.157,0.225,0.234c0.342,0.345,0.686,0.688,1.024,1.032c0.037,0.035,0.066,0.075,0.107,0.127
		c-0.053,0.008-0.087,0.016-0.121,0.018c-0.118,0.008-0.237,0.01-0.354,0.016c-0.093,0.005-0.163-0.028-0.223-0.097
		c-0.146-0.168-0.291-0.336-0.439-0.501c-0.051-0.057-0.106-0.107-0.163-0.155c-0.083-0.068-0.145-0.071-0.2-0.02
		c-0.061,0.061-0.075,0.19-0.018,0.252c0.047,0.054,0.104,0.099,0.159,0.146c0.091,0.081,0.186,0.16,0.276,0.243
		c0.018,0.017,0.021,0.05,0.032,0.075c-0.026,0.008-0.053,0.022-0.079,0.024c-0.117,0.008-0.233,0.015-0.35,0.022v0.001
		c0.057,0.012,0.114,0.039,0.17,0.084c0.326,0.271,0.548,0.296,0.959,0.336c0.372,0.036,0.78,0.092,1.05-0.216
		c0.012-0.012,0.021-0.022,0.033-0.032c0.1-0.329,0.142-0.667,0.192-1.005c0.037-0.249,0.067-0.497,0.099-0.747
		c0.037-0.272,0.071-0.546,0.105-0.818c0.034-0.281,0.064-0.561,0.098-0.841c0.035-0.295,0.07-0.59,0.104-0.885
		c0.034-0.314,0.067-0.629,0.098-0.944c0.032-0.365,0.062-0.731,0.091-1.068C21.489,13.72,21.485,13.539,21.459,13.36z"/>
</g>
</svg>
