<?xml version="1.0" encoding="utf-8"?>
<!-- Generator: Adobe Illustrator 16.0.0, SVG Export Plug-In . SVG Version: 6.00 Build 0)  -->
<!DOCTYPE svg PUBLIC "-//W3C//DTD SVG 1.1//EN" "http://www.w3.org/Graphics/SVG/1.1/DTD/svg11.dtd">
<svg version="1.1" id="Layer_1" xmlns="http://www.w3.org/2000/svg" xmlns:xlink="http://www.w3.org/1999/xlink" x="0px" y="0px"
	 width="30px" height="30px" viewBox="0 0 30 30" enable-background="new 0 0 30 30" xml:space="preserve">
<rect x="118.444" y="130.336" fill="none" width="251.851" height="20.865"/>
<text transform="matrix(1 0 0 1 118.4434 150.4512)" fill="#FFFFFF" font-family="'HanziPenSC-W5-83pv-RKSJ-H'" font-size="27" letter-spacing="1">Company’s website</text>
<rect x="118.444" y="191.201" fill="none" width="251.851" height="20.865"/>
<text transform="matrix(1 0 0 1 118.4434 211.3164)" fill="#FFFFFF" font-family="'HanziPenSC-W5-83pv-RKSJ-H'" font-size="27" letter-spacing="1">Company Size</text>
<path fill="#FAB816" d="M349.227,323.156c0,21.15-17.143,38.302-38.293,38.302c-21.156,0-38.301-17.151-38.301-38.302
	c0-21.146,17.145-38.296,38.301-38.296C332.084,284.86,349.227,302.01,349.227,323.156z"/>
<path fill="#F26722" d="M141.202,322.544c0,21.151-17.146,38.302-38.297,38.302c-21.148,0-38.297-17.15-38.297-38.302
	c0-21.148,17.148-38.296,38.297-38.296C124.056,284.248,141.202,301.396,141.202,322.544z"/>
<path fill="#384777" d="M246.008,322.547c0,21.149-17.146,38.299-38.299,38.299c-21.146,0-38.294-17.149-38.294-38.299
	c0-21.148,17.148-38.299,38.294-38.299C228.861,284.248,246.008,301.398,246.008,322.547z"/>
<rect x="25.226" y="250.619" fill="#0087BF" width="366.983" height="2.896"/>
<rect x="25.226" y="171.848" fill="#0087BF" width="366.983" height="0.743"/>
<path fill="#FFFFFF" d="M200.581,328.094c0.076-3.271,1.246-6.103,3.441-8.521c1.529-1.686,3.397-2.899,5.464-3.812
	c1.273-0.564,2.557-1.128,3.875-1.576c2.252-0.768,4.576-1.073,6.959-0.9c1.268,0.091,2.523,0.224,3.754,0.525
	c1.525,0.375,2.969,0.971,4.289,1.826c2.184,1.409,4.172,3.059,5.93,4.976c0.902,0.985,1.506,2.141,1.756,3.465
	c0.18,0.952,0.248,1.91,0.084,2.878c-0.174,1.025-0.293,2.064-0.504,3.084c-0.305,1.475-0.674,2.952-1.637,4.158
	c-0.539,0.673-1.199,1.252-1.822,1.857c-0.318,0.31-0.664,0.59-0.992,0.891c-0.074,0.068-0.16,0.162-0.172,0.254
	c-0.203,1.548-0.393,3.101-0.588,4.651c-0.025,0.19-0.045,0.385-0.096,0.569c-0.123,0.435-0.436,0.611-0.842,0.405
	c-0.441-0.224-0.875-0.49-1.254-0.808c-0.459-0.381-0.857-0.834-1.279-1.258c-0.137-0.137-0.27-0.276-0.404-0.413
	c-0.471-0.478-0.992-0.652-1.701-0.637c-2.105,0.056-4.215,0.042-6.318-0.054c-1.383-0.062-2.779-0.226-4.131-0.51
	c-1.533-0.32-3.043-0.776-4.531-1.273c-1.748-0.587-3.408-1.388-4.952-2.402c-1.463-0.961-2.744-2.101-3.535-3.702
	C200.802,330.611,200.552,329.385,200.581,328.094z M228.695,339.725c0.035-0.007,0.068-0.013,0.104-0.019
	c0.037-0.125,0.1-0.244,0.111-0.371c0.082-0.903,0.125-1.812,0.24-2.712c0.129-0.997,0.316-1.405,1.457-1.362
	c0.402,0.016,0.688-0.105,0.936-0.392c0.084-0.096,0.174-0.182,0.25-0.28c1.689-2.208,2.721-4.658,2.672-7.479
	c-0.014-0.816-0.129-1.633-0.213-2.448c-0.109-1.063-0.443-2.051-1.012-2.957c-1.197-1.909-2.895-3.27-4.848-4.326
	c-1.588-0.857-3.27-1.511-4.986-2.054c-1.191-0.374-2.408-0.658-3.668-0.611c-0.807,0.03-1.615,0.119-2.42,0.222
	c-1.516,0.193-2.992,0.571-4.43,1.083c-2.244,0.794-4.301,1.938-6.139,3.456c-0.891,0.74-1.802,1.457-2.454,2.441
	c-1.123,1.693-1.73,3.566-1.928,5.572c-0.156,1.586,0.203,3.055,1.176,4.34c0.695,0.923,1.629,1.575,2.587,2.201
	c1.9,1.233,3.938,2.15,6.131,2.7c1.328,0.333,2.666,0.638,4.018,0.851c1.541,0.246,3.1,0.436,4.656,0.544
	c1.768,0.124,3.541,0.037,5.234-0.57c0.459-0.165,0.732-0.026,0.998,0.3c0.383,0.481,0.766,0.968,1.154,1.447
	C228.439,339.447,228.57,339.584,228.695,339.725z"/>
<path fill="#FFFFFF" d="M197.263,302.933c1.342,0.039,2.676,0.102,3.977,0.433c1.006,0.257,1.984,0.619,2.984,0.901
	c1.595,0.447,3.04,1.201,4.419,2.096c1.6,1.036,2.906,2.354,3.852,4.015c0.379,0.661,0.568,1.366,0.523,2.131
	c-0.023,0.393-0.166,0.593-0.529,0.697c-0.615,0.179-0.898,0.141-1.102-0.238c-0.172-0.327-0.268-0.697-0.396-1.05
	c-0.49-1.352-1.408-2.382-2.504-3.266c-1.701-1.373-3.581-2.438-5.636-3.189c-1.949-0.713-3.969-1.036-6.049-0.998
	c-1.633,0.026-3.264,0.137-4.879,0.395c-2.391,0.381-4.727,0.959-6.861,2.146c-2.701,1.502-4.559,3.77-5.787,6.57
	c-0.322,0.736-0.559,1.519-0.764,2.297c-0.18,0.684-0.078,1.389,0.088,2.065c0.266,1.097,0.703,2.121,1.371,3.038
	c0.59,0.81,1.385,1.394,2.178,1.979c0.916,0.674,1.834,1.346,2.752,2.017c0.232,0.167,0.312,0.379,0.152,0.622
	c-0.115,0.171-0.254,0.377-0.43,0.446c-0.277,0.109-0.443,0.295-0.59,0.522c-0.439,0.671-0.875,1.341-1.311,2.012
	c-0.039,0.057-0.082,0.117-0.092,0.179c-0.016,0.098-0.006,0.2-0.008,0.301c0.1-0.001,0.213,0.028,0.299-0.008
	c0.752-0.32,1.49-0.676,2.252-0.974c0.779-0.306,1.584-0.544,2.371-0.835c0.473-0.18,0.932-0.406,1.4-0.606
	c0.068-0.03,0.154-0.069,0.221-0.057c0.441,0.097,0.85-0.02,1.275-0.122c0.221-0.053,0.479,0.017,0.709,0.062
	c1.551,0.297,3.102,0.544,4.689,0.412c0.73-0.059,1.463-0.118,2.197-0.149c0.477-0.021,0.734,0.151,0.824,0.479
	c0.119,0.441-0.021,0.989-0.383,1.153c-0.359,0.168-0.764,0.3-1.156,0.324c-1.303,0.08-2.605-0.007-3.902-0.185
	c-1.1-0.151-2.197-0.336-3.301-0.442c-0.355-0.034-0.729,0.141-1.096,0.211c-0.33,0.061-0.662,0.136-0.996,0.151
	c-0.387,0.02-0.723,0.117-1.061,0.313c-1.297,0.755-2.607,1.492-3.922,2.217c-0.701,0.386-1.434,0.339-2.156,0.049
	c-0.467-0.188-0.643-0.667-0.391-1.158c0.445-0.865,0.934-1.708,1.377-2.573c0.25-0.486,0.457-0.996,0.666-1.501
	c0.121-0.295,0.006-0.508-0.256-0.688c-1.236-0.848-2.426-1.753-3.438-2.87c-0.844-0.933-1.352-2.033-1.664-3.233
	c-0.227-0.871-0.367-1.755-0.354-2.66c0.008-0.783,0.174-1.531,0.467-2.252c0.432-1.06,0.832-2.137,1.322-3.168
	c0.807-1.703,2.125-2.934,3.738-3.881c2.037-1.193,4.113-2.315,6.322-3.163c0.543-0.208,1.133-0.344,1.711-0.396
	C192.679,303.287,194.97,303.119,197.263,302.933z"/>
<path fill="#FFFFFF" d="M200.804,313.168c-1.84,0.118-3.676,0.242-5.518,0.359c-1.457,0.093-2.912,0.184-4.367,0.263
	c-1.1,0.059-2.201,0.096-3.301,0.138c-0.24,0.009-0.484,0.015-0.721-0.024c-0.119-0.021-0.293-0.131-0.314-0.229
	c-0.029-0.134,0.014-0.348,0.109-0.432c0.15-0.135,0.361-0.232,0.561-0.265c0.377-0.064,0.766-0.095,1.15-0.104
	c4.877-0.122,9.756-0.241,14.631-0.354c0.473-0.01,0.947,0.011,1.418,0.041c0.17,0.011,0.395,0.019,0.4,0.282
	c0.006,0.261-0.154,0.389-0.395,0.403c-0.328,0.02-0.656,0.023-0.984,0.023c-0.887,0.004-1.775,0.001-2.666,0.001
	C200.808,313.236,200.806,313.204,200.804,313.168z"/>
<path fill="#FFFFFF" d="M201.767,317.192c-0.121,0.061-0.238,0.15-0.367,0.176c-0.293,0.057-0.59,0.104-0.887,0.12
	c-2.268,0.127-4.535,0.208-6.797,0.381c-1.26,0.098-2.504,0.343-3.758,0.514c-1.164,0.158-2.334,0.323-3.504,0.448
	c-0.387,0.039-0.789-0.021-1.18-0.061c-0.221-0.023-0.432-0.123-0.428-0.385c0.004-0.248,0.189-0.38,0.418-0.41
	c0.908-0.123,1.814-0.265,2.727-0.352c1.789-0.166,3.58-0.304,5.371-0.443c2.516-0.196,5.031-0.33,7.557-0.255
	c0.277,0.01,0.555,0.081,0.832,0.123C201.757,317.098,201.763,317.144,201.767,317.192z"/>
<path fill="#FFFFFF" d="M190.427,310.268c-0.416-0.064-0.832-0.122-1.244-0.202c-0.105-0.018-0.207-0.103-0.291-0.178
	c-0.229-0.209-0.189-0.516,0.094-0.631c0.164-0.066,0.354-0.098,0.533-0.103c2.469-0.072,4.938-0.14,7.408-0.203
	c0.791-0.021,1.584-0.047,2.373-0.026c0.307,0.012,0.623,0.121,0.91,0.241c0.225,0.095,0.361,0.312,0.266,0.573
	c-0.09,0.246-0.311,0.256-0.533,0.238c-0.605-0.045-1.209-0.114-1.812-0.118c-0.52-0.004-1.037,0.091-1.557,0.111
	c-1.072,0.044-2.145,0.063-3.215,0.101c-0.975,0.033-1.949,0.078-2.922,0.116C190.433,310.214,190.429,310.241,190.427,310.268z"/>
<path fill="#FFFFFF" d="M180.483,316.094c0.15-0.531,0.297-1.027,0.426-1.529c0.156-0.615,0.266-1.243,0.451-1.85
	c0.109-0.359,0.242-0.771,0.502-1.016c0.881-0.831,1.809-1.619,2.75-2.383c0.248-0.2,0.607-0.283,0.926-0.37
	c0.121-0.031,0.342,0.039,0.402,0.135c0.061,0.093,0.033,0.322-0.045,0.418c-0.207,0.248-0.445,0.479-0.701,0.678
	c-0.525,0.405-1.084,0.771-1.609,1.179c-0.799,0.622-1.234,1.483-1.41,2.453c-0.168,0.906-0.236,1.832-0.354,2.749
	c-0.014,0.105-0.033,0.211-0.062,0.311c-0.072,0.229-0.186,0.496-0.438,0.465c-0.191-0.025-0.416-0.211-0.523-0.386
	C180.646,316.693,180.585,316.381,180.483,316.094z"/>
<path fill="#FFFFFF" d="M195.372,323.311c-0.494,0.052-0.988,0.121-1.484,0.151c-1.359,0.081-2.719,0.146-4.076-0.058
	c-0.254-0.037-0.51-0.122-0.74-0.233c-0.299-0.146-0.305-0.371-0.041-0.582c0.307-0.245,0.664-0.244,1.023-0.204
	c1.344,0.15,2.688,0.3,4.027,0.464c0.363,0.045,0.719,0.137,1.078,0.219c0.082,0.017,0.156,0.077,0.234,0.117
	C195.386,323.228,195.378,323.269,195.372,323.311z"/>
<path fill="#FFFFFF" d="M209.096,328.978c2.229-0.169,4.801-0.351,7.371-0.562c2.271-0.186,4.541-0.398,6.811-0.613
	c1.404-0.131,2.805-0.287,4.209-0.43c0.221-0.022,0.447-0.045,0.664-0.023c0.125,0.013,0.299,0.088,0.344,0.186
	c0.049,0.103,0.016,0.309-0.062,0.39c-0.115,0.12-0.299,0.229-0.463,0.241c-1.203,0.09-2.41,0.15-3.617,0.229
	c-1.492,0.099-2.986,0.197-4.48,0.313c-1.531,0.121-3.062,0.25-4.592,0.399c-1.162,0.114-2.322,0.259-3.48,0.402
	c-1.342,0.168-2.682,0.357-4.021,0.518c-0.555,0.066-1.109,0.101-1.67,0.113c-0.262,0.006-0.493-0.122-0.532-0.429
	c-0.041-0.335,0.096-0.554,0.429-0.66c0.164-0.05,0.34-0.07,0.51-0.072C207.26,328.974,208.004,328.978,209.096,328.978z"/>
<path fill="#FFFFFF" d="M221.109,323.8c2.086-0.154,4.492-0.332,6.898-0.516c0.346-0.026,0.688-0.092,1.031-0.118
	c0.203-0.016,0.338,0.08,0.33,0.306c-0.004,0.213-0.137,0.271-0.324,0.287c-1.037,0.095-2.07,0.217-3.109,0.291
	c-1.58,0.113-3.162,0.185-4.744,0.287c-1.193,0.078-2.389,0.178-3.582,0.266c-1.453,0.107-2.908,0.196-4.361,0.327
	c-0.998,0.091-1.992,0.238-2.988,0.358c-0.217,0.025-0.455,0.09-0.512-0.25c-0.047-0.301,0.047-0.501,0.383-0.57
	c0.49-0.101,0.986-0.187,1.484-0.225c2.021-0.159,4.045-0.321,6.068-0.434C218.715,323.753,219.748,323.8,221.109,323.8z"/>
<path fill="#FFFFFF" d="M217.938,332.697c1.646-0.083,3.295-0.154,4.941-0.254c0.549-0.032,1.09-0.149,1.637-0.211
	c0.449-0.05,0.58,0.021,0.611,0.288c0.033,0.334-0.26,0.744-0.584,0.748c-0.52,0.003-1.041-0.05-1.561-0.057
	c-1.256-0.016-2.512-0.08-3.762-0.012c-1.473,0.081-2.939,0.282-4.408,0.429c-0.383,0.039-0.766,0.098-1.148,0.106
	c-0.359,0.008-0.49-0.221-0.371-0.563c0.102-0.301,0.283-0.501,0.617-0.524c0.182-0.014,0.365-0.029,0.549-0.029
	c1.156-0.004,2.316-0.001,3.475-0.001C217.936,332.644,217.938,332.671,217.938,332.697z"/>
<path fill="#FFFFFF" d="M223.271,319.954c-0.123,0.032-0.244,0.082-0.369,0.089c-1.252,0.081-2.504,0.159-3.758,0.228
	c-1.639,0.087-3.279,0.154-4.916,0.25c-0.799,0.048-1.592,0.156-2.391,0.214c-0.303,0.021-0.594-0.06-0.803-0.317
	c-0.285-0.352-0.184-0.652,0.264-0.717c0.352-0.053,0.711-0.095,1.066-0.091c3.32,0.029,6.643,0.067,9.963,0.112
	c0.311,0.004,0.623,0.065,0.932,0.099C223.264,319.865,223.268,319.911,223.271,319.954z"/>
<path fill="#FFFFFF" d="M232.947,325.047c-0.105,0.82-0.205,1.643-0.328,2.462c-0.023,0.162-0.115,0.326-0.217,0.463
	c-0.178,0.244-0.412,0.218-0.525-0.067c-0.055-0.143-0.055-0.324-0.029-0.479c0.184-1.071,0.283-2.144,0.09-3.225
	c-0.15-0.854-0.494-1.612-1.055-2.28c-0.197-0.232-0.371-0.491-0.514-0.762c-0.053-0.101-0.041-0.315,0.029-0.39
	c0.088-0.087,0.281-0.128,0.414-0.103c0.412,0.082,0.734,0.328,0.992,0.656c0.773,0.979,1.119,2.097,1.076,3.338
	c-0.004,0.125,0,0.251,0,0.377C232.904,325.042,232.926,325.044,232.947,325.047z"/>
<path fill="#FFFFFF" d="M324.936,323.495c0.451-0.317,0.875-0.613,1.297-0.907c2.629-1.819,5.389-3.413,8.264-4.81
	c1.18-0.571,2.377-1.104,3.568-1.649c0.568-0.261,1.025,0.063,0.982,0.69c-0.021,0.32-0.037,0.639-0.059,0.959
	c-0.178,2.926-0.361,5.849-0.529,8.772c-0.102,1.774-0.295,3.542-0.248,5.326c0.029,1.165,0.023,2.335-0.014,3.502
	c-0.021,0.697-0.115,1.404-0.477,2.021c-0.359,0.613-0.895,1.074-1.535,1.373c-0.344,0.161-0.715,0.063-1.049-0.104
	c-1.127-0.562-2.104-1.338-3.049-2.158c-1.219-1.054-2.416-2.13-3.656-3.16c-0.76-0.627-1.617-1.119-2.539-1.485
	c-0.166-0.064-0.344-0.113-0.523-0.138c-0.176-0.023-0.564-0.026-0.811-0.125c0,0-0.795-0.081-0.75-1.239
	c0.068-1.665,0.021-2.446-0.006-3.882C323.777,325.044,323.492,324.502,324.936,323.495z M324.668,326.709
	c0.062,0.131-0.078,2.237-0.129,3.084c-0.061,1.016,0.504,1.063,0.504,1.063c1.088,0.209,1.51,0.346,2.617,0.942
	c2.123,1.144,3.328,2.276,5.604,4.187c0.455,0.379,1.074,0.891,1.566,1.223c0.543,0.364,1.404,0.714,1.664,0.121
	c0.15-0.34,0.41-1.418,0.439-1.785c0.129-1.516-0.105-3.081-0.016-4.599c0.086-1.454,0.148-2.909,0.23-4.365
	c0.105-1.896,0.27-3.357,0.361-5.256c0.02-0.385-0.023-1.307,0.025-1.688c0.244-1.896,0.021-1.82-0.746-1.578
	c-0.352,0.109-1.619,0.541-1.947,0.711c-3.131,1.598-4.709,2.381-7.586,4.402c-0.498,0.351-1.359,0.926-1.848,1.286
	c-0.098,0.071-0.428,0.295-0.564,0.466C324.543,325.077,324.6,326.579,324.668,326.709z"/>
<path fill="#FFFFFF" d="M298.035,299.991c1.594,0,2.971,0.52,4.049,1.727c0.613,0.691,1.043,1.492,1.326,2.373
	c0.291,0.905,0.371,1.827,0.258,2.764c-0.146,1.16-0.58,2.219-1.271,3.164c-0.719,0.981-1.6,1.778-2.723,2.279
	c-0.842,0.373-1.719,0.537-2.639,0.417c-1.73-0.224-3.059-1.132-4.129-2.459c-0.764-0.948-1.275-2.026-1.477-3.228
	c-0.312-1.848,0.131-3.485,1.439-4.859c0.1-0.104,0.174-0.2,0.184-0.362c0.012-0.197,0.152-0.341,0.324-0.438
	c0.916-0.531,1.883-0.936,2.922-1.168C296.869,300.069,297.445,299.986,298.035,299.991z M302.811,305.899
	c0-0.035,0.002-0.071,0-0.106c-0.002-0.064-0.008-0.131-0.012-0.195c-0.068-1.174-0.467-2.209-1.303-3.051
	c-0.664-0.67-1.463-1.114-2.377-1.359c-0.701-0.187-1.414-0.204-2.127-0.104c-0.66,0.091-1.297,0.292-1.908,0.559
	c-0.254,0.108-0.518,0.213-0.738,0.37c-0.23,0.167-0.414,0.397-0.623,0.598c-0.805,0.771-1.314,1.707-1.445,2.818
	c-0.109,0.931,0.039,1.834,0.412,2.698c0.564,1.3,1.438,2.331,2.668,3.044c0.943,0.546,1.959,0.774,3.043,0.586
	c0.752-0.129,1.428-0.459,2.01-0.942C301.939,309.535,302.711,307.879,302.811,305.899z"/>
<path fill="#FFFFFF" d="M311.4,312.17c-0.453-0.004-1.186-0.095-1.906-0.304c-0.943-0.272-1.814-0.692-2.584-1.303
	c-0.875-0.693-1.533-1.541-1.809-2.65c-0.193-0.771-0.127-1.531,0.139-2.278c0.045-0.132,0.107-0.261,0.152-0.394
	c0.014-0.041,0.002-0.102-0.02-0.143c-0.061-0.129-0.062-0.25,0.023-0.366c0.982-1.3,2.111-2.444,3.521-3.289
	c0.678-0.407,1.402-0.694,2.195-0.781c0.877-0.098,1.682,0.117,2.414,0.607c1.195,0.8,2.164,1.802,2.771,3.12
	c0.475,1.031,0.645,2.11,0.482,3.243c-0.15,1.053-0.52,2.015-1.207,2.838c-0.453,0.544-1.016,0.942-1.662,1.229
	C313.207,312.015,312.463,312.146,311.4,312.17z M311.629,311.17c0.934-0.038,1.592-0.175,2.203-0.472
	c1.236-0.597,1.902-1.598,2.086-2.948c0.113-0.88,0-1.729-0.287-2.561c-0.383-1.115-0.998-2.065-1.953-2.778
	c-0.707-0.526-1.508-0.802-2.391-0.765c-0.846,0.036-1.607,0.341-2.314,0.789c-0.951,0.597-1.734,1.378-2.43,2.249
	c-0.047,0.06-0.045,0.158-0.059,0.239c-0.021,0.114-0.016,0.235-0.057,0.342c-0.104,0.281-0.238,0.55-0.336,0.831
	c-0.186,0.538-0.213,1.091-0.08,1.641c0.193,0.805,0.656,1.45,1.289,1.959C308.584,310.728,310.076,311.16,311.629,311.17z"/>
<path fill="#FFFFFF" d="M318.09,337.73c0,0-0.43,0.887-0.629,1.339c-0.09,0.204-0.105,0.201-0.162,0.427
	c-0.061,0.235-0.057,0.406,0.125,0.34c0.197-0.073,0.645-0.251,0.889-0.411c-0.109,0.258-0.555,0.702-0.645,0.965
	c-0.061,0.176-0.125,0.35-0.191,0.523c-0.004,0.013-0.205,0.258,0.004,0.043c-0.07,0.071-0.121,0.146-0.164,0.221
	c-0.418,0.073-0.939-0.024-1.309-0.049c-0.66-0.049-1.295-0.095-1.957-0.033c-0.9,0.082-1.781,0.12-2.682,0.016
	c-0.479-0.055-0.932-0.012-1.318-0.35c-0.141-0.123-0.268-0.021-0.393-0.158c0.498-0.03,0.834,0.02,1.334,0.031
	c0.453,0.008,0.484-0.412,0.551-0.586c0.098-0.248,0.139-0.512,0.221-0.767c0.1-0.317,0.287-0.402,0.516-0.403
	c0.248-0.001,0.318,0.145,0.195,0.435c-0.104,0.242-0.223,0.471-0.342,0.702c-0.051,0.096-0.055,0.166,0.027,0.224
	c0.291,0.206,0.658,0.022,0.779-0.391c0.18-0.618,0.479-1.132,0.814-1.606c0.053-0.076,0.127-0.145,0.199-0.176
	c0.141-0.057,0.314-0.162,0.424,0.013c0.104,0.169-0.016,0.351-0.084,0.509c-0.008,0.015-0.014,0.027-0.021,0.038
	c-0.266,0.43-0.404,0.652-0.668,1.083c-0.121,0.194-0.225,0.516-0.035,0.534c0.227,0.026,0.158,0.036,0.385,0.017
	c0.152-0.014,0.391-0.203,0.408-0.415c0.023-0.267,0.172-0.505,0.248-0.747c0.213-0.675,0.449-1.338,0.691-1.994
	c0.051-0.138,0.152-0.281,0.256-0.332c0.113-0.053,0.26-0.03,0.375,0.022c0.031,0.013,0.035,0.271,0,0.387
	c-0.094,0.324-0.213,0.636-0.328,0.948c-0.203,0.549-0.408,1.094-0.617,1.639c-0.049,0.127-0.041,0.227,0.057,0.293
	c0.184,0.126,0.473-0.01,0.557-0.262c0.207-0.615,0.404-1.233,0.611-1.846c0.25-0.75,0.504-1.497,0.764-2.238
	c0.082-0.233,0.221-0.399,0.43-0.412c0.232-0.015,0.32,0.14,0.217,0.412c-0.318,0.826-0.645,1.646-0.967,2.469
	c-0.227,0.577-0.451,1.152-0.682,1.724c-0.045,0.115-0.041,0.192,0.047,0.244c0.23,0.137,0.703-0.087,0.793-0.397
	c0.34-1.182,0.814-2.275,1.283-3.368c0,0,0.289-0.743,0.572-0.536c0.279,0.208,0.291,0.356,0,0.895"/>
<path fill="#FFFFFF" d="M293.006,340.756c1.145,0.286,2.273,0.229,3.441,0.313c1.113,0.078,2.213,0.214,3.328,0.088
	c0.434-0.047,1.068-0.047,1.434-0.32c0.117-0.091,0.221-0.156,0.312-0.298c-0.178,0.008-0.393-0.007-0.572,0.001
	c-0.184,0.01-0.334-0.008-0.518-0.017c-0.182-0.01-0.203-0.089-0.121-0.31c0.084-0.229,0.164-0.459,0.238-0.693
	c0.018-0.05,0.018-0.16,0.004-0.167c-0.115-0.063-0.234-0.141-0.355-0.144c-0.068-0.002-0.17,0.103-0.209,0.195
	c-0.105,0.246-0.182,0.518-0.279,0.771c-0.094,0.239-0.248,0.365-0.453,0.361c-0.223-0.007-0.453,0.059-0.686-0.128
	c0.053-0.081,0.098-0.147,0.143-0.207c0.221-0.284,0.469-0.542,0.656-0.86c0.141-0.233,0.209-0.543,0.295-0.827
	c0.02-0.064-0.016-0.188-0.057-0.239c-0.033-0.04-0.123-0.031-0.174-0.003c-0.277,0.156-0.465,0.454-0.637,0.768
	c-0.182,0.324-0.363,0.645-0.527,0.983c-0.156,0.323-0.361,0.515-0.648,0.548c-0.168,0.017-0.334,0.05-0.502,0.065
	c-0.045,0.003-0.117-0.025-0.131-0.065c-0.016-0.048,0.008-0.136,0.037-0.187c0.17-0.305,0.342-0.604,0.521-0.902
	c0.381-0.624,0.77-1.243,1.148-1.87c0.053-0.088,0.127-0.238,0.102-0.307c-0.027-0.086-0.145-0.144-0.23-0.161
	c-0.223-0.046-0.42,0.061-0.551,0.305c-0.279,0.514-0.553,1.031-0.809,1.566c-0.184,0.383-0.338,0.794-0.49,1.202
	c-0.08,0.218-0.174,0.355-0.369,0.332c-0.119-0.013-0.242,0.001-0.365-0.005c-0.129-0.008-0.172-0.116-0.1-0.251
	c0.367-0.714,0.744-1.418,1.117-2.127c0.025-0.044,0.066-0.078,0.076-0.125c0.023-0.117,0.078-0.276,0.041-0.351
	c-0.07-0.14-0.215-0.197-0.324-0.088c-0.18,0.18-0.373,0.364-0.494,0.607c-0.305,0.608-0.574,1.254-0.855,1.886
	c-0.172,0.384-0.549,0.524-0.881,0.292c0.068-0.107,0.127-0.221,0.199-0.309c0.176-0.214,0.367-0.407,0.537-0.628
	c0.055-0.072,0.109-0.235,0.084-0.308c-0.051-0.147-0.17-0.186-0.301-0.139c-0.34,0.128-0.564,0.434-0.734,0.831
	c-0.324,0.759-0.426,0.618-1.008,0.512c-0.4-0.075-0.678,0.106-1.088,0.093C292.486,340.576,292.73,340.687,293.006,340.756z"/>
<path fill="#FFFFFF" d="M302.996,306.741c-0.021-0.072-0.031-0.144-0.031-0.207c-0.047-0.024,0.068-0.34,0.023-0.371
	c-0.049-0.04-0.133-0.452-0.184-0.491c0.051,0.132-0.041,0.93-0.016,1.07c0.006,0.037,0.004,0.077,0.004,0.115
	c-0.01,0.002-0.02,0.007-0.031,0.009c-0.037-0.071-0.07-0.146-0.115-0.213c-0.074-0.105-0.146-0.217-0.234-0.31
	c-0.078-0.082-0.281-0.017-0.305,0.097c-0.012,0.047,0.012,0.109,0.039,0.156c0.125,0.206,0.26,0.41,0.385,0.619
	c0.053,0.085,0.096,0.178,0.146,0.263c0.158,0.275,0.088,0.546-0.016,0.814c-0.006,0.012-0.021,0.02-0.043,0.039
	c-0.02-0.036-0.035-0.065-0.051-0.096c-0.125-0.242-0.248-0.486-0.377-0.728c-0.041-0.074-0.102-0.145-0.162-0.21
	c-0.064-0.07-0.137-0.062-0.229,0.008c-0.074,0.055-0.037,0.109-0.008,0.171c0.191,0.392,0.375,0.785,0.568,1.176
	c0.104,0.209,0.041,0.357-0.068,0.561c-0.016-0.033-0.031-0.056-0.039-0.079c-0.123-0.363-0.242-0.729-0.367-1.095
	c-0.033-0.091-0.08-0.178-0.119-0.268c-0.051-0.107-0.139-0.162-0.256-0.164c-0.031,0-0.08,0.008-0.094,0.028
	c-0.016,0.026-0.01,0.075,0.002,0.105c0.184,0.448,0.369,0.894,0.551,1.343c0.031,0.074,0.053,0.155,0.074,0.236
	c0.053,0.188-0.043,0.453-0.201,0.568c-0.066,0.049-0.109,0.039-0.141-0.048c-0.068-0.189-0.125-0.382-0.193-0.571
	c-0.086-0.249-0.174-0.498-0.275-0.742c-0.025-0.062-0.094-0.118-0.158-0.156c-0.068-0.042-0.143-0.02-0.207,0.034
	c-0.064,0.056-0.047,0.118-0.02,0.185c0.16,0.39,0.322,0.779,0.477,1.171c0.053,0.13,0.084,0.271,0.131,0.404
	c0.025,0.073-0.004,0.118-0.061,0.158c-0.016,0.012-0.031,0.026-0.049,0.037c-0.107,0.062-0.15,0.11-0.207-0.075
	c-0.135-0.423-0.279-0.842-0.422-1.264c-0.018-0.049-0.047-0.096-0.072-0.143c-0.066-0.104-0.135-0.126-0.25-0.074
	c-0.111,0.051-0.168,0.148-0.127,0.25c0.076,0.195,0.168,0.386,0.246,0.581c0.135,0.319,0.262,0.643,0.395,0.964
	c0.023,0.059,0.02,0.104-0.033,0.14c-0.1,0.064-0.195,0.135-0.301,0.186c-0.102,0.051-0.156,0.018-0.186-0.089
	c-0.096-0.348-0.188-0.697-0.283-1.045c-0.031-0.108-0.072-0.215-0.119-0.316c-0.059-0.122-0.303-0.166-0.406-0.075
	c-0.012,0.011-0.012,0.053-0.002,0.075c0.176,0.44,0.328,0.888,0.428,1.354c0.023,0.114-0.117,0.315-0.232,0.333
	c-0.076,0.012-0.117-0.036-0.143-0.097c-0.062-0.156-0.121-0.314-0.18-0.473c-0.104-0.297-0.207-0.594-0.311-0.888
	c-0.037-0.102-0.092-0.175-0.215-0.182c-0.109-0.007-0.16,0.042-0.123,0.148c0.098,0.261,0.201,0.521,0.295,0.782
	c0.082,0.229,0.154,0.459,0.232,0.689c0.021,0.069,0.049,0.281-0.027,0.292c-0.092,0.015-0.184,0.045-0.277,0.049
	c-0.168,0.01-0.27-0.205-0.318-0.366c-0.078-0.255-0.148-0.514-0.227-0.77c-0.055-0.178-0.113-0.354-0.178-0.529
	c-0.049-0.134-0.285-0.178-0.381-0.066c-0.025,0.025-0.027,0.089-0.014,0.127c0.098,0.282,0.205,0.562,0.305,0.846
	c0.043,0.124,0.07,0.256,0.107,0.383c0.021,0.072,0.037,0.5-0.033,0.497c-0.043,0-0.088,0.004-0.133,0.003
	c-0.164-0.004-0.303-0.438-0.369-0.627c-0.168-0.483-0.354-0.962-0.533-1.439c-0.041-0.105-0.1-0.202-0.221-0.229
	c-0.053-0.01-0.123-0.017-0.164,0.008c-0.061,0.035-0.049,0.111-0.027,0.172c0.057,0.158,0.117,0.316,0.176,0.473
	c0.105,0.269,0.209,0.536,0.314,0.805c0.012,0.037,0.02,0.076,0.035,0.145c0.021,0.116,0.244,1.004-0.42,0.862
	c-0.127-0.026-0.562-0.105-0.627-0.172c0.029,0.097,0.613,0.384,0.598,0.489l-0.01,0.041c0,0.01,0,0.021-0.002,0.034
	c1.166,1.009,3.531-0.687,4.605-1.597C302.576,309.671,303.43,308.16,302.996,306.741z"/>
<path fill="#FFFFFF" d="M311.482,311.491c0.783,0.043,1.502,0.025,2.25-0.244c0.609-0.219,1.145-0.58,1.6-1.039
	c0.311-0.31,0.92-0.881,0.838-1.383c-0.021-0.14-0.002-0.265,0.041-0.374c-0.094-0.075-0.168-0.188-0.203-0.344
	c-0.02-0.089-0.061-0.173-0.111-0.256c-0.004,0.075-0.008,0.15-0.012,0.228c-0.004,0.041-0.023,0.081-0.037,0.121
	c-0.01,0.003-0.021,0.005-0.033,0.007c-0.059-0.093-0.119-0.188-0.178-0.284c-0.195-0.324-0.387-0.652-0.588-0.974
	c-0.088-0.141-0.115-0.142-0.273-0.098c-0.117,0.033-0.135,0.087-0.066,0.188c0.322,0.473,0.613,0.963,0.871,1.477
	c0.082,0.165,0.035,0.316,0.006,0.474c-0.008,0.044-0.025,0.088-0.043,0.128c-0.041,0.075-0.076,0.079-0.119,0.006
	c-0.074-0.131-0.145-0.267-0.217-0.398c-0.186-0.342-0.369-0.688-0.562-1.028c-0.078-0.137-0.15-0.129-0.23,0.005
	c-0.059,0.101-0.066,0.195-0.002,0.306c0.252,0.423,0.494,0.852,0.738,1.276c0.004,0.006,0.008,0.011,0.01,0.017
	c0.092,0.186,0.076,0.263-0.074,0.405c-0.09,0.081-0.135,0.079-0.199-0.025c-0.154-0.253-0.305-0.507-0.461-0.759
	c-0.084-0.133-0.174-0.263-0.268-0.389c-0.066-0.084-0.125-0.078-0.205-0.005c-0.08,0.075-0.1,0.182-0.045,0.283
	c0.201,0.385,0.396,0.774,0.607,1.155c0.086,0.155,0.084,0.286-0.037,0.415c-0.053,0.058-0.1,0.118-0.15,0.177
	c-0.047,0.054-0.086,0.05-0.119-0.021c-0.08-0.174-0.162-0.35-0.248-0.521c-0.141-0.271-0.279-0.546-0.43-0.816
	c-0.064-0.114-0.186-0.136-0.287-0.067c-0.064,0.042-0.084,0.091-0.049,0.165c0.168,0.353,0.332,0.707,0.496,1.062
	c0.047,0.099,0.08,0.203,0.115,0.309c0.025,0.069,0.018,0.135-0.055,0.178c-0.066,0.037-0.129,0.089-0.199,0.107
	c-0.119,0.033-0.201-0.009-0.264-0.13c-0.102-0.204-0.195-0.412-0.291-0.618c-0.104-0.219-0.205-0.441-0.312-0.657
	c-0.051-0.103-0.123-0.12-0.23-0.077c-0.018,0.008-0.035,0.018-0.055,0.025c-0.154,0.082-0.164,0.12-0.088,0.274
	c0.174,0.359,0.355,0.717,0.518,1.08c0.084,0.189,0.084,0.216-0.123,0.218c-0.123,0-0.246,0.012-0.369,0.004
	c-0.096-0.006-0.162-0.074-0.197-0.161c-0.107-0.275-0.211-0.553-0.32-0.828c-0.061-0.15-0.123-0.302-0.197-0.445
	c-0.074-0.146-0.174-0.165-0.314-0.078c-0.137,0.086-0.156,0.161-0.084,0.304c0.168,0.325,0.34,0.65,0.5,0.98
	c0.113,0.232,0.096,0.253-0.158,0.252c-0.086-0.001-0.17-0.018-0.256-0.022c-0.09-0.005-0.129-0.063-0.166-0.137
	c-0.164-0.335-0.332-0.668-0.502-0.999c-0.016-0.037-0.045-0.068-0.07-0.103c-0.082-0.102-0.189-0.121-0.309-0.064
	c-0.059,0.027-0.064,0.06-0.041,0.12c0.102,0.247,0.199,0.5,0.293,0.751c0.01,0.026,0,0.061,0,0.092c0,0,0.137,0.416-0.402,0.282
	c-0.535-0.133,0,0.262,0,0.262L311.482,311.491z"/>
<path fill="#FFFFFF" d="M322.902,329.081c-0.031-0.632-0.068-1.266-0.164-1.887c-0.156-1.033-0.318-2.068-0.557-3.087
	c-0.246-1.048-0.541-2.09-0.889-3.111c-0.531-1.55-1.443-2.87-2.646-3.981c-1.16-1.067-2.465-1.828-4.078-1.95
	c-0.955-0.073-1.906-0.188-2.861-0.239c-1.609-0.087-3.221-0.167-4.834-0.203c-2.988-0.067-5.969,0.14-8.943,0.37
	c-1.398,0.106-2.793,0.261-4.188,0.41c-1.373,0.146-2.75,0.302-4.09,0.657c-0.744,0.196-1.434,0.514-2.029,1.01
	c-1.064,0.886-1.564,2.053-1.619,3.409c-0.039,0.955-0.02,1.914,0.002,2.87c0.025,1.06,0.084,2.118,0.123,3.176
	c0.051,1.329,0.076,2.661,0.16,3.987c0.078,1.267,0.242,2.525,0.475,3.777c0.17,0.907,0.336,1.814,0.658,2.688
	c0.432,1.167,1.012,2.255,1.803,3.221c0.521,0.637,1.162,1.085,1.969,1.288c1.01,0.257,2.039,0.411,3.076,0.503
	c1.229,0.11,2.459,0.191,3.689,0.264c2.551,0.148,5.104,0.13,7.656,0.065c1.859-0.057,3.719-0.109,5.578-0.177
	c1.754-0.064,3.514-0.045,5.262-0.28c1.041-0.138,2.061-0.352,3.012-0.808c0.609-0.291,1.229-0.591,1.594-1.191
	c0.287-0.471,0.549-0.961,0.756-1.468c0.455-1.118,0.709-2.292,0.887-3.481c0.174-1.146,0.283-2.295,0.271-3.452
	C322.965,330.668,322.945,329.873,322.902,329.081z M321.857,329.108c-0.016,0.006-0.029,0.012-0.045,0.017
	c-0.012-0.019-0.023-0.035-0.035-0.054c0.076,0.504,0.039,0.998,0.002,1.5c0.035,0.184,0.043,0.373,0.018,0.572
	c-0.062,0.465-0.082,0.935-0.123,1.402c-0.002,0.033-0.012,0.066-0.027,0.15c-0.02-0.03-0.039-0.053-0.055-0.074
	c-0.002,0.305-0.027,0.615-0.068,0.925c0,0.004,0.002,0.01,0.002,0.015c0.004,0.092,0,0.185-0.008,0.278
	c0.012,0.075,0.016,0.156,0.008,0.245c-0.215,2.465-1.375,4.529-3.682,5.574c-2.152,0.976-4.641,1.028-6.963,0.971
	c-3.455-0.088-6.9-0.102-10.357-0.088c-3.256,0.013-6.938,0.583-9.84-1.241c-0.148-0.094-0.258-0.208-0.332-0.332
	c-0.09-0.048-0.18-0.095-0.27-0.145c-0.594-0.342-0.994-0.863-1.346-1.427c-0.625-1.016-1.051-2.111-1.318-3.273
	c-0.197-0.853-0.23-1.717-0.273-2.58c-0.068-1.407-0.146-2.814-0.195-4.223c-0.068-1.996-0.133-3.995-0.156-5.992
	c-0.016-0.941,0.227-1.844,0.654-2.689c0.311-0.615,0.834-0.994,1.441-1.277c0.682-0.321,1.404-0.521,2.145-0.656
	c0.904-0.164,1.807-0.34,2.715-0.479c0.975-0.148,1.953-0.272,2.934-0.386c0.908-0.102,1.82-0.185,2.73-0.254
	c0.68-0.05,1.359-0.084,2.039-0.095c2.15-0.038,4.297,0.027,6.445,0.118c1.582,0.067,3.168,0.083,4.748,0.169
	c1.545,0.086,3.047,0.383,4.426,1.144c0.762,0.419,1.326,1.039,1.848,1.719c0.746,0.981,1.371,2.028,1.787,3.191
	c0.369,1.03,0.693,2.071,0.883,3.151c0.004,0.026,0.008,0.051,0.01,0.077c0.086,0.431,0.049,0.88-0.008,1.32
	c-0.002,0.024-0.01,0.05-0.014,0.075c0.018,0.115,0.037,0.234,0.053,0.35c0.072,0.136,0.115,0.297,0.127,0.451
	c0.045,0.545,0.07,1.092,0.102,1.64C321.861,328.967,321.857,329.038,321.857,329.108z"/>
<path fill="#FFFFFF" d="M287.57,322.926c0-1.644,0.711-2.747,1.973-3.534c0.869-0.544,1.779-1.016,2.754-1.349
	c0.18-0.063,0.371-0.108,0.559-0.134c0.275-0.041,0.406,0.142,0.307,0.398c-0.084,0.213-0.25,0.332-0.439,0.43
	c-0.752,0.383-1.508,0.766-2.258,1.151c-0.191,0.1-0.369,0.224-0.557,0.329c-0.609,0.347-0.904,0.929-1.168,1.533
	c-0.209,0.477-0.33,0.969-0.299,1.505c0.014,0.296-0.088,0.599-0.143,0.899c-0.01,0.05-0.043,0.099-0.072,0.144
	c-0.127,0.194-0.312,0.194-0.418-0.016c-0.074-0.15-0.127-0.315-0.15-0.479C287.609,323.47,287.59,323.134,287.57,322.926z"/>
<path fill="#FFFFFF" d="M313.939,317.473c0.027-0.11,0.033-0.233,0.088-0.326c0.039-0.069,0.143-0.136,0.221-0.14
	c1.453-0.077,2.666,0.394,3.545,1.599c0.371,0.507,0.752,1.009,1.096,1.536c0.209,0.317,0.146,0.56-0.119,0.824
	c-0.193,0.193-0.359,0.173-0.488-0.066c-0.189-0.349-0.359-0.707-0.559-1.045c-0.547-0.921-1.375-1.475-2.383-1.771
	c-0.367-0.109-0.748-0.175-1.121-0.263C313.998,317.77,313.945,317.7,313.939,317.473z"/>
<path fill="#FFFFFF" d="M288.568,334.26c0-0.044,0-0.085,0-0.128c0.002-0.32,0.061-0.369,0.385-0.326
	c0.072,0.008,0.146,0.016,0.215,0.034c0.127,0.03,0.197,0.1,0.223,0.245c0.053,0.325,0.107,0.654,0.211,0.965
	c0.061,0.184,0.199,0.35,0.33,0.499c0.172,0.199,0.389,0.36,0.551,0.565c0.227,0.289,0.064,0.631-0.301,0.684
	c-0.225,0.035-0.414-0.022-0.576-0.183c-0.363-0.358-0.627-0.781-0.793-1.255c-0.127-0.353-0.195-0.724-0.289-1.089
	C288.539,334.267,288.555,334.264,288.568,334.26z"/>
<path fill="#FFFFFF" d="M86.821,305.571c2.793,0.18,5.383,0.331,7.973,0.512c1.965,0.135,3.928,0.3,5.889,0.467
	c1.574,0.134,3.145,0.277,4.715,0.436c1.283,0.131,2.564,0.287,3.842,0.438c1.08,0.129,2.156,0.259,3.232,0.405
	c0.967,0.133,1.932,0.282,2.896,0.435c1.01,0.161,2.02,0.321,3.025,0.506c0.857,0.158,1.721,0.316,2.564,0.536
	c1.1,0.287,2.191,0.607,3.27,0.965c0.805,0.267,1.543,0.674,2.086,1.363c0.412,0.52,0.639,1.122,0.615,1.775
	c-0.027,0.811-0.121,1.617-0.207,2.424c-0.139,1.273-0.293,2.546-0.441,3.818c-0.096,0.838-0.195,1.676-0.283,2.515
	c-0.139,1.344-0.283,2.688-0.402,4.035c-0.072,0.84-0.078,1.687-0.152,2.526c-0.094,1.033-0.203,2.067-0.352,3.096
	c-0.236,1.646-0.471,3.293-0.592,4.953c-0.125,1.7-0.553,3.318-1.395,4.813c-0.09,0.161-0.205,0.312-0.326,0.455
	c-0.182,0.213-0.416,0.336-0.701,0.31c-0.754-0.067-1.512-0.117-2.26-0.225c-0.779-0.11-1.555-0.26-2.324-0.428
	c-0.625-0.137-1.242-0.309-1.852-0.498c-1.264-0.394-2.547-0.521-3.863-0.383c-0.887,0.093-1.777,0.176-2.666,0.194
	c-0.746,0.015-1.5-0.041-2.244-0.12c-2.342-0.25-4.678-0.438-7.041-0.276c-3.504,0.238-7.016,0.219-10.525,0.079
	c-1.104-0.043-2.201-0.038-3.301,0.11c-0.918,0.126-1.84,0.038-2.756-0.109c-0.758-0.122-1.498-0.304-2.172-0.686
	c-0.98-0.554-1.594-1.392-1.908-2.468c-0.299-1.024-0.33-2.069-0.242-3.113c0.105-1.253,0.295-2.498,0.422-3.749
	c0.207-2.053,0.398-4.104,0.443-6.172c0.029-1.318,0.18-2.634,0.229-3.952c0.062-1.704,0.072-3.409,0.117-5.112
	c0.041-1.551,0.227-3.085,0.561-4.599c0.191-0.875,0.338-1.792,0.832-2.544c0.652-0.989,1.4-1.93,2.492-2.485
	c0.283-0.144,0.623-0.221,0.941-0.236C85.647,305.548,86.335,305.571,86.821,305.571z M80.909,335.521
	c0.018,0.002,0.033,0.002,0.049,0.004c0,0.312-0.014,0.625,0.004,0.938c0.025,0.445,0.162,0.859,0.428,1.22
	c0.564,0.766,1.375,1.064,2.281,1.094c1.109,0.034,2.221-0.011,3.33,0.02c1,0.029,1.998,0.174,2.996,0.161
	c2.221-0.029,4.439-0.102,6.658-0.202c1.467-0.065,2.93-0.226,4.396-0.312c0.646-0.041,1.301-0.062,1.943,0
	c1.471,0.141,2.934,0.35,4.4,0.508c0.535,0.059,1.076,0.088,1.613,0.07c0.875-0.03,1.746-0.135,2.621-0.16
	c0.709-0.02,1.428-0.025,2.129,0.063c0.902,0.116,1.797,0.323,2.689,0.51c1.367,0.284,2.73,0.584,4.096,0.884
	c0.59,0.131,0.92,0.012,1.193-0.533c0.369-0.736,0.607-1.521,0.695-2.342c0.111-1.041,0.174-2.087,0.311-3.125
	c0.162-1.252,0.414-2.494,0.564-3.749c0.156-1.312,0.238-2.63,0.352-3.946c0.088-1.012,0.164-2.025,0.262-3.036
	c0.084-0.854,0.188-1.708,0.293-2.562c0.143-1.17,0.295-2.341,0.445-3.511c0.096-0.751,0.227-1.499,0.289-2.254
	c0.027-0.332-0.043-0.683-0.123-1.012c-0.062-0.264-0.127-0.266-0.365-0.142c-0.098,0.05-0.193,0.103-0.285,0.161
	c-0.756,0.481-1.49,1-2.271,1.437c-1.664,0.931-3.359,1.806-5.033,2.725c-1.48,0.813-2.938,1.671-4.42,2.482
	c-1.039,0.568-2.102,1.09-3.15,1.637c-0.234,0.121-0.271,0.25-0.127,0.473c0.123,0.188,0.268,0.365,0.41,0.539
	c0.895,1.075,1.82,2.125,2.68,3.228c1.998,2.561,3.875,5.207,5.449,8.058c0.346,0.625,0.688,1.257,0.998,1.902
	c0.162,0.338,0.012,0.62-0.346,0.801c-0.25,0.126-0.451,0.055-0.672-0.244c-0.055-0.074-0.105-0.155-0.148-0.235
	c-0.607-1.101-1.209-2.2-1.818-3.298c-0.867-1.565-1.904-3.02-2.949-4.471c-1.467-2.039-3.09-3.948-4.803-5.782
	c-0.264-0.28-0.398-0.305-0.699-0.166c-2.229,1.028-3.811,1.622-6.316,1.487c-1.303-0.071-2.887-0.812-3.996-1.476
	c-0.258-0.152-0.48-0.14-0.742-0.007c-1.043,0.532-2.029,1.162-2.961,1.869c-1.932,1.467-3.742,3.075-5.486,4.758
	c-1.223,1.182-2.207,2.543-2.92,4.095c-0.141,0.308-0.285,0.628-0.496,0.889c-0.264,0.327-0.646,0.252-0.867-0.11
	c-0.211-0.346-0.133-0.665,0.051-0.992c0.619-1.091,1.352-2.104,2.172-3.047c2.766-3.188,5.863-5.988,9.605-8.011
	c0.252-0.138,0.281-0.267,0.041-0.433c-0.297-0.205-0.639-0.344-0.957-0.518c-0.141-0.074-0.254-0.041-0.361,0.06
	c-0.338,0.313-0.674,0.627-1.016,0.938c-0.09,0.083-0.184,0.173-0.291,0.232c-0.256,0.14-0.475,0.103-0.576-0.091
	c-0.109-0.207-0.137-0.409,0.053-0.602c0.264-0.266,0.512-0.548,0.775-0.814c0.111-0.113,0.129-0.223,0.051-0.356
	c-0.309-0.519-0.68-0.577-1.121-0.172c-0.051,0.047-0.098,0.1-0.146,0.151c-0.441,0.45-0.879,0.907-1.332,1.348
	c-0.24,0.232-0.41,0.21-0.67-0.032c-0.178-0.167-0.174-0.27,0.027-0.548c0.031-0.045,0.064-0.088,0.1-0.129
	c0.49-0.548,0.975-1.1,1.473-1.639c0.125-0.135,0.145-0.23,0.002-0.347c-0.133-0.107-0.26-0.224-0.4-0.321
	c-0.309-0.213-0.334-0.201-0.605,0.068c-0.729,0.72-1.459,1.436-2.193,2.147c-0.141,0.136-0.299,0.251-0.461,0.36
	c-0.055,0.037-0.152,0.055-0.215,0.032c-0.275-0.101-0.377-0.385-0.23-0.642c0.049-0.088,0.115-0.169,0.18-0.245
	c0.637-0.698,1.273-1.396,1.914-2.093c0.141-0.154,0.312-0.287,0.438-0.453c0.045-0.059,0.039-0.225-0.01-0.273
	c-0.217-0.213-0.447-0.412-0.693-0.59c-0.072-0.051-0.236-0.051-0.311-0.004c-0.189,0.123-0.361,0.272-0.52,0.435
	c-0.654,0.684-1.297,1.378-1.947,2.063c-0.102,0.106-0.215,0.206-0.338,0.284c-0.201,0.128-0.373,0.037-0.527-0.104
	c-0.154-0.141-0.084-0.281,0.004-0.419c0.076-0.117,0.152-0.236,0.242-0.345c0.549-0.641,1.1-1.279,1.658-1.912
	c0.164-0.188,0.354-0.354,0.535-0.526c0.146-0.137,0.158-0.258-0.025-0.374c-0.131-0.083-0.25-0.196-0.393-0.251
	c-0.096-0.038-0.256-0.045-0.332,0.01c-0.26,0.195-0.514,0.41-0.744,0.64c-0.721,0.715-1.43,1.443-2.148,2.161
	c-0.102,0.104-0.219,0.208-0.35,0.269c-0.072,0.034-0.219,0.015-0.279-0.038c-0.271-0.245-0.275-0.378-0.07-0.688
	c0.033-0.053,0.066-0.108,0.109-0.152c0.938-1.005,1.875-2.01,2.818-3.01c0.105-0.113,0.227-0.194,0.098-0.367
	c-0.18-0.235-0.379-0.33-0.539-0.205c-0.262,0.208-0.518,0.428-0.748,0.668c-0.389,0.397-0.74,0.825-1.135,1.218
	c-0.146,0.147-0.35,0.261-0.549,0.325c-0.1,0.033-0.281-0.051-0.359-0.14c-0.049-0.057-0.01-0.242,0.047-0.331
	c0.131-0.194,0.297-0.361,0.441-0.545c0.506-0.635,1.008-1.273,1.514-1.907c0.1-0.125,0.1-0.245-0.002-0.359
	c-0.07-0.082-0.154-0.155-0.24-0.223c-0.498-0.392-0.4-0.442-0.883,0.054c-0.262,0.27-0.516,0.547-0.793,0.799
	c-0.201,0.182-0.414,0.148-0.598-0.048c-0.168-0.181-0.184-0.368-0.016-0.617c0.232-0.342,0.488-0.668,0.727-1.006
	c0.285-0.402,0.279-0.401-0.07-0.756c-0.125-0.128-0.236-0.27-0.355-0.404c-0.119-0.133-0.236-0.271-0.367-0.393
	c-0.057-0.054-0.148-0.098-0.221-0.091c-0.037,0.003-0.084,0.121-0.094,0.191c-0.082,0.668-0.189,1.333-0.232,2.002
	c-0.092,1.499-0.164,2.996-0.221,4.497c-0.098,2.335-0.203,4.671-0.25,7.008c-0.045,2.152-0.225,4.293-0.402,6.436
	C81.12,332.966,81.015,334.244,80.909,335.521z M88.94,307.608c-0.953,0.038-2.055,0.064-3.154,0.138
	c-0.605,0.04-1.203,0.176-1.756,0.453c-0.885,0.444-1.129,1.128-0.648,1.983c0.25,0.445,0.553,0.877,0.902,1.247
	c2.418,2.554,4.893,5.053,7.752,7.127c1.346,0.978,2.725,1.911,4.129,2.802c0.594,0.377,1.17,0.758,1.738,1.163
	c0.475,0.339,0.949,0.404,1.508,0.574c0.604,0.185,1,0.34,1.639,0.339c0.688-0.001,1.389,0.037,2.078,0.003
	c0.926-0.046,1.676-0.343,2.533-0.619c0.014-0.004,0.029-0.011,0.043-0.018c1.557-0.69,3.15-1.311,4.664-2.088
	c2.797-1.437,5.568-2.928,8.309-4.471c1.805-1.016,3.535-2.163,5.299-3.253c0.246-0.153,0.254-0.271,0.016-0.434
	c-0.232-0.157-0.479-0.297-0.732-0.408c-1.664-0.729-3.436-1.067-5.203-1.41c-0.949-0.183-1.904-0.342-2.859-0.507
	c-0.861-0.146-1.723-0.295-2.586-0.424c-1.262-0.188-2.521-0.361-3.783-0.528c-0.883-0.117-1.768-0.224-2.652-0.317
	c-1.135-0.121-2.27-0.228-3.406-0.333c-1.189-0.113-2.381-0.226-3.572-0.324c-1.416-0.116-2.834-0.227-4.254-0.32
	C92.993,307.852,91.044,307.737,88.94,307.608z"/>
<path fill="#FFFFFF" d="M110.069,310.548c0.295,0.056,0.734,0.128,1.168,0.221c0.945,0.201,1.891,0.41,2.832,0.621
	c0.754,0.167,1.506,0.337,2.258,0.513c0.576,0.134,1.152,0.273,1.725,0.423c0.158,0.041,0.387,0.083,0.338,0.307
	c-0.049,0.219-0.271,0.178-0.438,0.151c-1.158-0.171-2.312-0.362-3.473-0.524c-1.547-0.216-3.094-0.414-4.641-0.615
	c-0.453-0.058-0.58-0.164-0.559-0.545C109.304,310.685,109.476,310.537,110.069,310.548z"/>
<path fill-rule="evenodd" clip-rule="evenodd" fill="#0087BF" d="M78.562,129.943c2.27-0.044,4.541-0.106,6.812-0.129
	c1.449-0.013,2.898,0.019,4.346,0.062c0.781,0.022,1.547,0.173,2.268,0.498c0.717,0.323,1.146,0.894,1.221,1.662
	c0.105,1.113,0.15,2.232,0.207,3.351c0.082,1.696,0.156,3.393,0.23,5.089c0.051,1.173,0.094,2.345,0.145,3.517
	c0.057,1.215,0.123,2.427,0.172,3.642c0.035,0.848,0.078,1.696,0.068,2.545c-0.008,0.472-0.092,0.948-0.189,1.412
	c-0.072,0.352-0.254,0.672-0.648,0.749c-0.363,0.072-0.734,0.125-1.104,0.134c-2.111,0.056-4.223,0.094-6.334,0.141
	c-1.18,0.027-2.357,0.059-3.533,0.089c-0.102,0.003-0.201,0.019-0.303,0.027c-0.199,0.02-0.273,0.078-0.27,0.279
	c0.01,0.457,0.115,0.882,0.539,1.139c0.5,0.3,1.008,0.58,1.512,0.872c0.178,0.104,0.352,0.216,0.525,0.327
	c0.545,0.351,0.773,0.879,0.834,1.498c0.01,0.079,0.006,0.159,0.006,0.239c-0.002,0.37-0.076,0.457-0.434,0.553
	c-0.604,0.162-1.221,0.224-1.84,0.252c-1.605,0.075-3.213,0.143-4.82,0.207c-2.041,0.082-4.082,0.161-6.123,0.235
	c-0.217,0.01-0.436-0.014-0.65-0.035c-0.248-0.022-0.395-0.167-0.439-0.409c-0.08-0.444-0.08-0.886,0.062-1.32
	c0.09-0.276,0.295-0.417,0.555-0.525c0.607-0.259,1.211-0.527,1.807-0.811c0.781-0.37,0.9-0.774,0.877-1.74
	c0-0.047-0.012-0.095-0.02-0.142c-0.029-0.182-0.09-0.233-0.277-0.229c-1.979,0.055-3.955,0.122-5.936,0.162
	c-1.15,0.022-2.303,0.015-3.453-0.011c-0.355-0.008-0.719-0.081-1.061-0.188c-0.611-0.193-0.965-0.662-1.111-1.267
	c-0.102-0.426-0.168-0.867-0.186-1.303c-0.1-2.567-0.186-5.135-0.268-7.702c-0.072-2.28-0.131-4.562-0.203-6.844
	c-0.029-0.996-0.098-1.992-0.104-2.988c-0.002-0.396,0.092-0.8,0.191-1.187c0.131-0.5,0.539-0.736,0.994-0.901
	c0.754-0.273,1.541-0.416,2.336-0.523c2.609-0.35,5.238-0.354,7.865-0.387c1.91-0.024,3.82-0.047,5.73-0.069
	C78.56,129.924,78.56,129.934,78.562,129.943z M78.415,151.74c0.982-0.039,1.654-0.062,2.328-0.097
	c2.885-0.153,5.771-0.158,8.658-0.188c0.992-0.011,1.984-0.037,2.977-0.059c0.227-0.006,0.297-0.058,0.305-0.238
	c0.033-0.736,0.092-1.473,0.082-2.209c-0.01-0.922-0.064-1.845-0.117-2.767c-0.094-1.637-0.199-3.272-0.299-4.909
	c-0.059-0.921-0.117-1.844-0.172-2.765c-0.059-1.013-0.121-2.023-0.172-3.036c-0.049-0.991-0.078-1.983-0.131-2.974
	c-0.023-0.427-0.176-0.806-0.584-1.009c-0.234-0.116-0.484-0.219-0.738-0.281c-0.641-0.16-1.299-0.193-1.957-0.194
	c-0.504,0-1.01-0.007-1.514-0.022c-1.639-0.049-3.277-0.121-4.918-0.149c-1.941-0.033-3.885-0.038-5.826-0.035
	c-1.061,0.002-2.123,0.027-3.182,0.074c-0.773,0.035-1.545,0.118-2.316,0.188c-1.051,0.097-2.1,0.205-3.152,0.303
	c-0.602,0.056-1.203,0.104-1.807,0.152c-0.83,0.063-1.662,0.105-2.49,0.194c-0.402,0.043-0.523,0.079-0.568,0.523
	c-0.057,0.563-0.1,1.132-0.094,1.698c0.01,1.39,0.076,2.78,0.076,4.171c0.002,2.326,0.125,4.647,0.227,6.968
	c0.061,1.369,0.117,2.737,0.191,4.104c0.033,0.634,0.061,1.272,0.246,1.889c0.125,0.412,0.367,0.727,0.801,0.824
	c0.322,0.073,0.66,0.128,0.99,0.126c1.059-0.007,2.121-0.039,3.182-0.069c1.172-0.034,2.344-0.101,3.516-0.11
	C74.212,151.825,76.47,151.857,78.415,151.74z M78.794,152.793c-0.539,0.036-1.027,0.058-1.512,0.104
	c-0.633,0.062-1.264,0.142-1.896,0.217c-0.215,0.025-0.238,0.055-0.229,0.274c0.01,0.223,0.023,0.444,0.037,0.667
	c0.006,0.104,0.043,0.216,0.021,0.312c-0.176,0.73-0.508,1.347-1.184,1.747c-0.588,0.349-1.211,0.604-1.854,0.815
	c-0.082,0.027-0.209,0.054-0.166,0.166c0.033,0.087,0.133,0.174,0.225,0.208c0.092,0.035,0.209,0.013,0.314,0.004
	c0.756-0.062,1.512-0.136,2.266-0.191c1.133-0.086,2.264-0.18,3.398-0.235c1.686-0.082,3.373-0.133,5.057-0.199
	c0.059-0.002,0.117-0.006,0.174-0.021c0.148-0.044,0.195-0.12,0.109-0.246c-0.08-0.115-0.191-0.227-0.314-0.291
	c-0.641-0.337-1.291-0.659-1.938-0.985c-0.412-0.206-0.801-0.453-0.924-0.926c-0.09-0.344-0.121-0.708-0.148-1.063
	c-0.023-0.322-0.027-0.351-0.359-0.355C79.497,152.788,79.12,152.793,78.794,152.793z"/>
<path fill-rule="evenodd" clip-rule="evenodd" fill="#FFFFFF" d="M78.415,151.74c-1.945,0.117-4.203,0.085-6.459,0.104
	c-1.172,0.01-2.344,0.076-3.516,0.11c-1.061,0.03-2.123,0.062-3.182,0.069c-0.33,0.002-0.668-0.053-0.99-0.126
	c-0.434-0.098-0.676-0.412-0.801-0.824c-0.186-0.616-0.213-1.255-0.246-1.889c-0.074-1.367-0.131-2.735-0.191-4.104
	c-0.102-2.32-0.225-4.642-0.227-6.968c0-1.391-0.066-2.781-0.076-4.171c-0.006-0.566,0.037-1.135,0.094-1.698
	c0.045-0.444,0.166-0.48,0.568-0.523c0.828-0.089,1.66-0.131,2.49-0.194c0.604-0.048,1.205-0.097,1.807-0.152
	c1.053-0.098,2.102-0.206,3.152-0.303c0.771-0.07,1.543-0.153,2.316-0.188c1.059-0.047,2.121-0.072,3.182-0.074
	c1.941-0.003,3.885,0.002,5.826,0.035c1.641,0.028,3.279,0.101,4.918,0.149c0.504,0.016,1.01,0.022,1.514,0.022
	c0.658,0.001,1.316,0.034,1.957,0.194c0.254,0.062,0.504,0.165,0.738,0.281c0.408,0.203,0.561,0.582,0.584,1.009
	c0.053,0.99,0.082,1.982,0.131,2.974c0.051,1.013,0.113,2.023,0.172,3.036c0.055,0.921,0.113,1.844,0.172,2.765
	c0.1,1.637,0.205,3.272,0.299,4.909c0.053,0.922,0.107,1.845,0.117,2.767c0.01,0.736-0.049,1.473-0.082,2.209
	c-0.008,0.181-0.078,0.232-0.305,0.238c-0.992,0.021-1.984,0.048-2.977,0.059c-2.887,0.03-5.773,0.035-8.658,0.188
	C80.069,151.679,79.397,151.701,78.415,151.74z M78.96,150.634c0-0.006,0-0.01,0-0.016c1.484-0.056,2.971-0.108,4.455-0.169
	c2.094-0.084,4.189-0.17,6.283-0.262c0.51-0.023,0.928-0.252,1.236-0.656c0.32-0.42,0.508-0.893,0.496-1.429
	c-0.037-1.83-0.084-3.66-0.113-5.491c-0.033-2.103-0.049-4.204-0.08-6.306c-0.01-0.721-0.043-1.443-0.07-2.164
	c-0.025-0.621-0.238-1.151-0.775-1.508c-0.486-0.322-1.031-0.492-1.607-0.536c-1.158-0.088-2.312,0.014-3.469,0.078
	c-1.256,0.068-2.51,0.164-3.766,0.228c-1.568,0.081-3.139,0.154-4.707,0.208c-1.523,0.052-3.045,0.1-4.568,0.105
	c-1.852,0.004-3.703-0.043-5.557-0.052c-0.35-0.001-0.707,0.053-1.053,0.125c-0.506,0.104-0.9,0.401-1.234,0.791
	c-0.352,0.408-0.441,0.883-0.406,1.406c0.055,0.848,0.094,1.696,0.139,2.543c0.055,0.965,0.107,1.929,0.166,2.893
	c0.066,1.064,0.152,2.127,0.209,3.192c0.078,1.516,0.133,3.033,0.203,4.549c0.021,0.441,0.082,0.88,0.262,1.286
	c0.205,0.477,0.496,0.891,1.057,0.981c0.611,0.1,1.225,0.204,1.842,0.249c1.668,0.122,3.34,0.176,5.012,0.139
	C74.929,150.774,76.944,150.697,78.96,150.634z"/>
<path fill-rule="evenodd" clip-rule="evenodd" fill="#FFFFFF" d="M78.794,152.793c0.326,0,0.703-0.005,1.078,0.001
	c0.332,0.005,0.336,0.033,0.359,0.355c0.027,0.355,0.059,0.72,0.148,1.063c0.123,0.473,0.512,0.72,0.924,0.926
	c0.646,0.326,1.297,0.648,1.938,0.985c0.123,0.064,0.234,0.176,0.314,0.291c0.086,0.126,0.039,0.202-0.109,0.246
	c-0.057,0.016-0.115,0.02-0.174,0.021c-1.684,0.066-3.371,0.117-5.057,0.199c-1.135,0.056-2.266,0.149-3.398,0.235
	c-0.754,0.056-1.51,0.129-2.266,0.191c-0.105,0.009-0.223,0.031-0.314-0.004c-0.092-0.034-0.191-0.121-0.225-0.208
	c-0.043-0.112,0.084-0.139,0.166-0.166c0.643-0.212,1.266-0.467,1.854-0.815c0.676-0.4,1.008-1.017,1.184-1.747
	c0.021-0.097-0.016-0.208-0.021-0.312c-0.014-0.223-0.027-0.444-0.037-0.667c-0.01-0.22,0.014-0.249,0.229-0.274
	c0.633-0.075,1.264-0.155,1.896-0.217C77.767,152.851,78.255,152.829,78.794,152.793z"/>
<path fill-rule="evenodd" clip-rule="evenodd" fill="#0087BF" d="M78.96,150.634c-2.016,0.063-4.031,0.141-6.047,0.186
	c-1.672,0.037-3.344-0.017-5.012-0.139c-0.617-0.045-1.23-0.149-1.842-0.249c-0.561-0.091-0.852-0.505-1.057-0.981
	c-0.18-0.406-0.24-0.845-0.262-1.286c-0.07-1.516-0.125-3.033-0.203-4.549c-0.057-1.065-0.143-2.128-0.209-3.192
	c-0.059-0.964-0.111-1.928-0.166-2.893c-0.045-0.847-0.084-1.695-0.139-2.543c-0.035-0.523,0.055-0.998,0.406-1.406
	c0.334-0.39,0.729-0.687,1.234-0.791c0.346-0.072,0.703-0.126,1.053-0.125c1.854,0.009,3.705,0.056,5.557,0.052
	c1.523-0.006,3.045-0.054,4.568-0.105c1.568-0.054,3.139-0.127,4.707-0.208c1.256-0.063,2.51-0.159,3.766-0.228
	c1.156-0.064,2.311-0.166,3.469-0.078c0.576,0.044,1.121,0.214,1.607,0.536c0.537,0.356,0.75,0.887,0.775,1.508
	c0.027,0.721,0.061,1.443,0.07,2.164c0.031,2.102,0.047,4.203,0.08,6.306c0.029,1.831,0.076,3.661,0.113,5.491
	c0.012,0.536-0.176,1.009-0.496,1.429c-0.309,0.404-0.727,0.633-1.236,0.656c-2.094,0.092-4.189,0.178-6.283,0.262
	c-1.484,0.061-2.971,0.113-4.455,0.169C78.96,150.624,78.96,150.628,78.96,150.634z M85.198,149.167
	c-0.066-0.1-0.117-0.186-0.178-0.265c-1.031-1.328-2.062-2.654-3.096-3.98c-0.137-0.177-0.141-0.184,0.008-0.357
	c0.031-0.036,0.066-0.069,0.102-0.104c0.084-0.085,0.154-0.082,0.232,0.019c0.273,0.358,0.561,0.706,0.83,1.066
	c0.854,1.149,1.701,2.301,2.549,3.454c0.072,0.098,0.152,0.153,0.279,0.148c0.342-0.015,0.688-0.021,1.033-0.038
	c0.166-0.01,0.182-0.055,0.078-0.196c-0.529-0.715-1.053-1.436-1.594-2.143c-0.738-0.963-1.488-1.917-2.238-2.873
	c-0.062-0.079-0.074-0.148-0.016-0.229c0.049-0.067,0.096-0.141,0.156-0.198c0.135-0.126,0.199-0.13,0.316,0.008
	c0.234,0.275,0.473,0.547,0.686,0.839c1.135,1.546,2.262,3.1,3.387,4.652c0.066,0.09,0.141,0.141,0.252,0.132
	c0.412-0.032,0.826-0.053,1.236-0.097c0.354-0.036,0.369-0.077,0.135-0.361c-0.377-0.46-0.773-0.901-1.15-1.361
	c-1.215-1.491-2.426-2.988-3.641-4.481c-0.168-0.205-0.17-0.268-0.018-0.489c0.141-0.206,0.221-0.223,0.402-0.044
	c0.293,0.291,0.602,0.573,0.857,0.895c0.906,1.144,1.793,2.301,2.686,3.454c0.453,0.587,0.902,1.178,1.355,1.766
	c0.104,0.133,0.186,0.133,0.244-0.019c0.082-0.221,0.17-0.455,0.17-0.684c0.004-0.485-0.066-0.964-0.43-1.341
	c-0.018-0.019-0.033-0.041-0.049-0.062c-1.34-1.764-2.684-3.526-4.025-5.289c-0.107-0.145-0.074-0.261,0.1-0.416
	c0.15-0.131,0.215-0.017,0.289,0.081c0.637,0.865,1.277,1.73,1.914,2.599c0.666,0.911,1.328,1.825,1.99,2.739
	c0.035,0.049,0.053,0.111,0.08,0.166c0.025-0.02,0.053-0.041,0.078-0.06c0.004-0.066,0.014-0.133,0.01-0.199
	c-0.049-0.57-0.09-1.144-0.156-1.712c-0.018-0.148-0.088-0.304-0.174-0.432c-0.201-0.304-0.424-0.594-0.641-0.889
	c-0.65-0.885-1.297-1.771-1.953-2.648c-0.154-0.203-0.174-0.397-0.07-0.62c0.076-0.17,0.156-0.186,0.273-0.044
	c0.084,0.102,0.168,0.205,0.238,0.316c0.596,0.914,1.189,1.829,1.783,2.744c0.16,0.247,0.312,0.498,0.494,0.787
	c0.023-0.104,0.047-0.163,0.047-0.221c0.002-0.329,0.002-0.659-0.01-0.986c-0.002-0.072-0.047-0.153-0.094-0.212
	c-0.709-0.88-1.418-1.759-2.133-2.633c-0.279-0.341-0.285-0.354-0.02-0.713c0.01-0.017,0.027-0.032,0.037-0.05
	c0.074-0.104,0.143-0.109,0.221-0.002c0.137,0.189,0.281,0.372,0.416,0.563c0.473,0.679,0.939,1.36,1.412,2.04
	c0.029,0.043,0.074,0.08,0.146,0.158c0.02-0.129,0.047-0.211,0.043-0.289c-0.031-0.424-0.088-0.846-0.102-1.27
	c-0.008-0.275-0.113-0.488-0.285-0.684c-0.406-0.462-0.816-0.92-1.215-1.389c-0.105-0.126-0.174-0.289-0.242-0.44
	c-0.053-0.111-0.033-0.22,0.092-0.281c0.129-0.064,0.256-0.118,0.365,0.034c0.061,0.082,0.133,0.152,0.189,0.235
	c0.336,0.477,0.668,0.957,1,1.435c0.031,0.041,0.072,0.072,0.137,0.137c0.012-0.156,0.031-0.268,0.027-0.378
	c-0.008-0.327-0.025-0.656-0.039-0.984c-0.014-0.301-0.145-0.55-0.344-0.767c-0.199-0.22-0.4-0.439-0.6-0.659
	c-0.191-0.212-0.166-0.392,0.074-0.551c0.115-0.077,0.217-0.078,0.299,0.044c0.115,0.173,0.225,0.346,0.34,0.519
	c0.031,0.049,0.062,0.099,0.111,0.173c0.029-0.07,0.051-0.104,0.053-0.137c0.023-0.54,0.051-1.079,0.059-1.621
	c0.002-0.121-0.045-0.252-0.1-0.363c-0.234-0.476-0.578-0.821-1.148-0.812c-0.801,0.012-1.602,0.026-2.402,0.067
	c-1.541,0.081-3.082,0.184-4.623,0.271c-1.553,0.086-3.105,0.181-4.66,0.239c-1.346,0.049-2.693,0.062-4.041,0.073
	c-1.232,0.009-2.463,0.007-3.693-0.021c-0.838-0.019-1.678-0.058-2.51-0.153c-0.572-0.066-1.027,0.093-1.441,0.456
	c-0.186,0.163-0.293,0.356-0.285,0.609c0.016,0.548,0.006,1.095,0.045,1.64c0.084,1.196,0.195,2.39,0.291,3.584
	c0.123,1.524,0.262,3.047,0.359,4.571c0.086,1.345,0.133,2.691,0.348,4.024c0.076,0.469,0.24,0.721,0.65,0.817
	c0.295,0.067,0.596,0.122,0.896,0.131c0.879,0.024,1.762,0.042,2.643,0.028c1.93-0.031,3.861-0.084,5.793-0.13
	c0.076-0.002,0.15-0.019,0.26-0.034c-0.074-0.117-0.123-0.21-0.189-0.29c-0.186-0.231-0.379-0.456-0.57-0.685
	c-0.166-0.203-0.162-0.262,0.02-0.458c0.17-0.183,0.213-0.183,0.371,0.005c0.049,0.057,0.092,0.118,0.137,0.177
	c0.262,0.34,0.523,0.68,0.785,1.019c0.096,0.123,0.223,0.173,0.375,0.173c0.457,0,0.914,0.009,1.369,0.004
	c0.109-0.002,0.219-0.046,0.328-0.07c-0.049-0.102-0.078-0.22-0.146-0.303c-0.242-0.296-0.5-0.578-0.748-0.869
	c-0.129-0.149-0.076-0.339,0.131-0.499c0.137-0.107,0.186-0.101,0.328,0.096c0.357,0.499,0.711,1.002,1.061,1.508
	c0.066,0.097,0.139,0.148,0.26,0.142c0.436-0.023,0.869-0.042,1.305-0.062c0.012-0.001,0.025-0.015,0.057-0.034
	c-0.057-0.08-0.104-0.162-0.164-0.23c-0.549-0.605-1.098-1.21-1.652-1.811c-0.297-0.321-0.295-0.383,0.061-0.651
	c0.006-0.003,0.008-0.005,0.014-0.009c0.115-0.102,0.211-0.091,0.307,0.033c0.238,0.312,0.486,0.617,0.729,0.926
	c0.4,0.513,0.799,1.03,1.203,1.541c0.055,0.067,0.133,0.16,0.203,0.164c0.342,0.018,0.682,0.008,1.064,0.008
	c-0.053-0.098-0.072-0.15-0.104-0.195c-0.092-0.123-0.184-0.247-0.285-0.363c-0.615-0.723-1.234-1.441-1.852-2.165
	c-0.162-0.19-0.146-0.335,0.039-0.506c0.104-0.094,0.193-0.118,0.291,0.011c0.211,0.268,0.43,0.527,0.635,0.796
	c0.578,0.745,1.15,1.498,1.73,2.24c0.057,0.073,0.172,0.146,0.258,0.145c0.463-0.006,0.922-0.034,1.385-0.057
	C85.134,149.197,85.151,149.186,85.198,149.167z"/>
<path fill-rule="evenodd" clip-rule="evenodd" fill="#FFFFFF" d="M85.198,149.167c-0.047,0.019-0.064,0.03-0.084,0.031
	c-0.463,0.022-0.922,0.051-1.385,0.057c-0.086,0.002-0.201-0.071-0.258-0.145c-0.58-0.742-1.152-1.495-1.73-2.24
	c-0.205-0.269-0.424-0.528-0.635-0.796c-0.098-0.129-0.188-0.104-0.291-0.011c-0.186,0.171-0.201,0.315-0.039,0.506
	c0.617,0.724,1.236,1.442,1.852,2.165c0.102,0.116,0.193,0.24,0.285,0.363c0.031,0.045,0.051,0.098,0.104,0.195
	c-0.383,0-0.723,0.01-1.064-0.008c-0.07-0.004-0.148-0.097-0.203-0.164c-0.404-0.511-0.803-1.028-1.203-1.541
	c-0.242-0.309-0.49-0.614-0.729-0.926c-0.096-0.124-0.191-0.135-0.307-0.033c-0.006,0.004-0.008,0.006-0.014,0.009
	c-0.355,0.269-0.357,0.33-0.061,0.651c0.555,0.601,1.104,1.205,1.652,1.811c0.061,0.068,0.107,0.15,0.164,0.23
	c-0.031,0.02-0.045,0.033-0.057,0.034c-0.436,0.021-0.869,0.039-1.305,0.062c-0.121,0.007-0.193-0.045-0.26-0.142
	c-0.35-0.506-0.703-1.009-1.061-1.508c-0.143-0.196-0.191-0.203-0.328-0.096c-0.207,0.16-0.26,0.35-0.131,0.499
	c0.248,0.291,0.506,0.573,0.748,0.869c0.068,0.083,0.098,0.201,0.146,0.303c-0.109,0.024-0.219,0.068-0.328,0.07
	c-0.455,0.005-0.912-0.004-1.369-0.004c-0.152,0-0.279-0.05-0.375-0.173c-0.262-0.339-0.523-0.679-0.785-1.019
	c-0.045-0.059-0.088-0.12-0.137-0.177c-0.158-0.188-0.201-0.188-0.371-0.005c-0.182,0.196-0.186,0.255-0.02,0.458
	c0.191,0.229,0.385,0.453,0.57,0.685c0.066,0.08,0.115,0.173,0.189,0.29c-0.109,0.016-0.184,0.032-0.26,0.034
	c-1.932,0.046-3.863,0.099-5.793,0.13c-0.881,0.014-1.764-0.004-2.643-0.028c-0.301-0.009-0.602-0.063-0.896-0.131
	c-0.41-0.097-0.574-0.349-0.65-0.817c-0.215-1.333-0.262-2.68-0.348-4.024c-0.098-1.524-0.236-3.047-0.359-4.571
	c-0.096-1.194-0.207-2.388-0.291-3.584c-0.039-0.545-0.029-1.092-0.045-1.64c-0.008-0.253,0.1-0.446,0.285-0.609
	c0.414-0.363,0.869-0.522,1.441-0.456c0.832,0.096,1.672,0.135,2.51,0.153c1.23,0.027,2.461,0.029,3.693,0.021
	c1.348-0.011,2.695-0.024,4.041-0.073c1.555-0.059,3.107-0.153,4.66-0.239c1.541-0.087,3.082-0.189,4.623-0.271
	c0.801-0.041,1.602-0.056,2.402-0.067c0.57-0.009,0.914,0.337,1.148,0.812c0.055,0.111,0.102,0.242,0.1,0.363
	c-0.008,0.542-0.035,1.081-0.059,1.621c-0.002,0.033-0.023,0.066-0.053,0.137c-0.049-0.074-0.08-0.124-0.111-0.173
	c-0.115-0.173-0.225-0.346-0.34-0.519c-0.082-0.122-0.184-0.121-0.299-0.044c-0.24,0.159-0.266,0.339-0.074,0.551
	c0.199,0.22,0.4,0.439,0.6,0.659c0.199,0.217,0.33,0.466,0.344,0.767c0.014,0.328,0.031,0.657,0.039,0.984
	c0.004,0.11-0.016,0.222-0.027,0.378c-0.064-0.064-0.105-0.096-0.137-0.137c-0.332-0.478-0.664-0.958-1-1.435
	c-0.057-0.083-0.129-0.153-0.189-0.235c-0.109-0.152-0.236-0.099-0.365-0.034c-0.125,0.062-0.145,0.17-0.092,0.281
	c0.068,0.151,0.137,0.314,0.242,0.44c0.398,0.469,0.809,0.927,1.215,1.389c0.172,0.195,0.277,0.408,0.285,0.684
	c0.014,0.424,0.07,0.846,0.102,1.27c0.004,0.078-0.023,0.16-0.043,0.289c-0.072-0.078-0.117-0.115-0.146-0.158
	c-0.473-0.68-0.939-1.361-1.412-2.04c-0.135-0.191-0.279-0.374-0.416-0.563c-0.078-0.107-0.146-0.103-0.221,0.002
	c-0.01,0.018-0.027,0.033-0.037,0.05c-0.266,0.358-0.26,0.372,0.02,0.713c0.715,0.874,1.424,1.753,2.133,2.633
	c0.047,0.059,0.092,0.14,0.094,0.212c0.012,0.327,0.012,0.657,0.01,0.986c0,0.058-0.023,0.117-0.047,0.221
	c-0.182-0.289-0.334-0.54-0.494-0.787c-0.594-0.915-1.188-1.83-1.783-2.744c-0.07-0.111-0.154-0.215-0.238-0.316
	c-0.117-0.142-0.197-0.126-0.273,0.044c-0.104,0.223-0.084,0.417,0.07,0.62c0.656,0.877,1.303,1.764,1.953,2.648
	c0.217,0.295,0.439,0.585,0.641,0.889c0.086,0.128,0.156,0.283,0.174,0.432c0.066,0.568,0.107,1.142,0.156,1.712
	c0.004,0.066-0.006,0.133-0.01,0.199c-0.025,0.019-0.053,0.04-0.078,0.06c-0.027-0.055-0.045-0.117-0.08-0.166
	c-0.662-0.914-1.324-1.828-1.99-2.739c-0.637-0.868-1.277-1.733-1.914-2.599c-0.074-0.098-0.139-0.212-0.289-0.081
	c-0.174,0.155-0.207,0.271-0.1,0.416c1.342,1.763,2.686,3.525,4.025,5.289c0.016,0.021,0.031,0.044,0.049,0.062
	c0.363,0.377,0.434,0.855,0.43,1.341c0,0.229-0.088,0.463-0.17,0.684c-0.059,0.151-0.141,0.151-0.244,0.019
	c-0.453-0.588-0.902-1.179-1.355-1.766c-0.893-1.153-1.779-2.311-2.686-3.454c-0.256-0.321-0.564-0.604-0.857-0.895
	c-0.182-0.179-0.262-0.162-0.402,0.044c-0.152,0.222-0.15,0.284,0.018,0.489c1.215,1.493,2.426,2.99,3.641,4.481
	c0.377,0.46,0.773,0.901,1.15,1.361c0.234,0.284,0.219,0.325-0.135,0.361c-0.41,0.044-0.824,0.064-1.236,0.097
	c-0.111,0.009-0.186-0.042-0.252-0.132c-1.125-1.553-2.252-3.106-3.387-4.652c-0.213-0.292-0.451-0.563-0.686-0.839
	c-0.117-0.138-0.182-0.134-0.316-0.008c-0.061,0.058-0.107,0.131-0.156,0.198c-0.059,0.08-0.047,0.149,0.016,0.229
	c0.75,0.956,1.5,1.91,2.238,2.873c0.541,0.707,1.064,1.428,1.594,2.143c0.104,0.142,0.088,0.187-0.078,0.196
	c-0.346,0.018-0.691,0.023-1.033,0.038c-0.127,0.005-0.207-0.051-0.279-0.148c-0.848-1.153-1.695-2.305-2.549-3.454
	c-0.27-0.36-0.557-0.708-0.83-1.066c-0.078-0.101-0.148-0.104-0.232-0.019c-0.035,0.035-0.07,0.068-0.102,0.104
	c-0.148,0.174-0.145,0.181-0.008,0.357c1.033,1.326,2.064,2.652,3.096,3.98C85.081,148.981,85.132,149.067,85.198,149.167z
	 M67.472,134.882c-0.277,0.02-0.598,0.05-0.92,0.063c-0.213,0.01-0.307,0.128-0.338,0.354c-0.09,0.65-0.033,1.301,0.062,1.946
	c0.025,0.176,0.131,0.261,0.311,0.254c0.232-0.009,0.465-0.032,0.695-0.067c0.053-0.009,0.129-0.085,0.139-0.142
	c0.029-0.149,0.043-0.304,0.037-0.456c-0.012-0.308-0.029-0.615-0.066-0.92c-0.018-0.158,0.039-0.216,0.186-0.216
	c0.143,0.001,0.285,0.003,0.428-0.001c0.211-0.006,0.424-0.007,0.633-0.029c0.062-0.007,0.143-0.062,0.174-0.117
	c0.143-0.256-0.018-0.559-0.311-0.588C68.175,134.932,67.847,134.91,67.472,134.882z"/>
<path fill-rule="evenodd" clip-rule="evenodd" fill="#0087BF" d="M67.472,134.882c0.375,0.028,0.703,0.05,1.029,0.081
	c0.293,0.029,0.453,0.332,0.311,0.588c-0.031,0.056-0.111,0.11-0.174,0.117c-0.209,0.022-0.422,0.023-0.633,0.029
	c-0.143,0.004-0.285,0.002-0.428,0.001c-0.146,0-0.203,0.058-0.186,0.216c0.037,0.305,0.055,0.612,0.066,0.92
	c0.006,0.152-0.008,0.307-0.037,0.456c-0.01,0.057-0.086,0.133-0.139,0.142c-0.23,0.035-0.463,0.059-0.695,0.067
	c-0.18,0.007-0.285-0.078-0.311-0.254c-0.096-0.646-0.152-1.296-0.062-1.946c0.031-0.226,0.125-0.344,0.338-0.354
	C66.874,134.932,67.194,134.901,67.472,134.882z"/>
<path fill="#FFFFFF" d="M19.164,22.61c0.131-0.086,0.295-0.133,0.447-0.188c0.466-0.178,0.936-0.35,1.405-0.525
	c0.232-0.085,0.462-0.169,0.691-0.259c0.251-0.099,0.486-0.065,0.715,0.06c0.369,0.201,0.669,0.478,0.935,0.777
	c0.985,1.105,1.958,2.219,2.928,3.335c0.158,0.18,0.299,0.375,0.421,0.578c0.271,0.452-0.081,1.07-0.646,1.104
	c-0.791,0.048-1.587,0.057-2.378,0.098c-0.651,0.032-1.303,0.07-1.949,0.134c-0.923,0.091-1.845,0.188-2.762,0.313
	c-1.714,0.234-3.435,0.229-5.158,0.186c-1.042,0-2.082-0.016-3.121,0.005c-0.547,0.011-1.093,0.076-1.639,0.123
	c-0.592,0.054-1.18,0.128-1.771,0.166c-0.52,0.035-1.044,0.057-1.564,0.038c-0.614-0.02-1.232-0.055-1.822-0.232
	c-0.121-0.039-0.24-0.092-0.346-0.153c-0.334-0.191-0.394-0.372-0.235-0.701c0.389-0.808,0.811-1.598,1.31-2.355
	c0.564-0.863,1.148-1.713,1.822-2.51c0.307-0.363,0.637-0.708,1.113-0.891c0.185-0.071,0.391-0.117,0.59-0.136
	c0.532-0.047,1.051,0.052,1.562,0.169c0.56,0.132,1.118,0.271,1.672,0.421c0.224,0.06,0.441,0.151,0.654,0.239
	c0.101,0.043,0.201,0.116,0.174,0.233"/>
<path fill-rule="evenodd" clip-rule="evenodd" fill="#0087BF" d="M13.768,28.78c-1.066,0-2.131-0.017-3.197,0.007
	c-0.561,0.011-1.121,0.084-1.68,0.139c-0.605,0.06-1.209,0.144-1.815,0.188c-0.534,0.036-1.07,0.061-1.603,0.041
	c-0.629-0.022-1.262-0.061-1.868-0.264C3.481,28.85,3.359,28.79,3.25,28.72c-0.341-0.215-0.402-0.418-0.241-0.787
	c0.399-0.907,0.833-1.796,1.343-2.646c0.578-0.97,1.177-1.925,1.866-2.821c0.314-0.407,0.654-0.794,1.142-1
	c0.189-0.081,0.4-0.131,0.605-0.151c0.544-0.055,1.075,0.057,1.6,0.191c0.573,0.146,2.003,0.568,2.571,0.736
	c0.23,0.068,0.453,0.169,0.671,0.269c0.104,0.047,0.208,0.131,0.178,0.264c-0.03,0.136-0.12,0.233-0.27,0.261
	c-0.253,0.047-0.492-0.018-0.721-0.107c-0.584-0.229-2.051-0.606-2.668-0.685c-0.214-0.025-0.427-0.044-0.641-0.07
	c-0.611-0.074-1.116,0.122-1.473,0.624c-0.463,0.651-0.93,1.301-1.354,1.978c-0.585,0.931-1.133,1.887-1.695,2.832
	c-0.032,0.055-0.061,0.111-0.087,0.171c-0.065,0.149-0.029,0.25,0.129,0.288c0.205,0.049,0.414,0.102,0.621,0.104
	c1.006,0.011,2.015,0.022,3.019-0.005c0.487-0.014,0.972-0.106,1.455-0.179c0.721-0.106,1.442-0.191,2.172-0.15
	c1.08,0.061,2.156,0.128,3.233,0.192c0.774,0.047,1.548,0.03,2.318-0.056c1.086-0.122,2.168-0.27,3.252-0.406
	c0.807-0.103,1.61-0.24,2.422-0.295c0.828-0.057,1.663-0.033,2.494-0.039c0.235-0.002,0.467,0.014,0.702,0.017
	c0.153,0.001,0.202-0.07,0.126-0.208c-0.116-0.207-0.234-0.416-0.38-0.601c-0.962-1.238-1.932-2.47-2.903-3.7
	c-0.096-0.121-0.218-0.222-0.33-0.326c-0.151-0.143-0.33-0.165-0.511-0.087c-0.834,0.167-2.452,0.615-2.933,0.765
	c-0.27,0.122-0.565,0.179-0.84,0.287c-0.214,0.082-0.429,0.019-0.616-0.093c-0.247-0.146-0.244-0.493,0.016-0.676
	c0.134-0.095,0.3-0.147,0.455-0.21c0.48-0.198,2.693-0.528,3.174-0.725c0.237-0.096,0.473-0.19,0.709-0.291
	c0.256-0.11,0.497-0.073,0.731,0.066c0.378,0.228,0.685,0.539,0.958,0.874c1.009,1.243,2.006,2.493,3,3.746
	c0.162,0.203,0.307,0.423,0.432,0.65c0.278,0.509-0.082,1.202-0.66,1.24c-0.812,0.054-1.627,0.064-2.439,0.108
	c-0.666,0.037-1.334,0.08-1.996,0.151c-0.945,0.101-1.891,0.21-2.831,0.353C17.3,28.834,15.535,28.828,13.768,28.78z"/>
<path fill-rule="evenodd" clip-rule="evenodd" fill="#0087BF" d="M17.324,26.417c0.223-0.035,0.445-0.069,0.669-0.104
	c0.662-0.105,1.328-0.201,1.988-0.317c0.579-0.104,1.157-0.222,1.73-0.353c0.444-0.101,0.882-0.233,1.32-0.351
	c0.171-0.046,0.337-0.119,0.521-0.03c0.174,0.085,0.207,0.241,0.036,0.329c-0.226,0.119-0.473,0.214-0.723,0.273
	c-0.52,0.12-1.043,0.226-1.572,0.311c-0.604,0.096-1.21,0.18-1.82,0.236c-0.551,0.052-1.104,0.064-1.657,0.086
	c-0.16,0.006-0.323-0.015-0.486-0.021C17.328,26.455,17.325,26.438,17.324,26.417z"/>
<path fill-rule="evenodd" clip-rule="evenodd" fill="#0087BF" d="M9.416,26.695c-0.601-0.081-1.26,0.102-1.921,0.295
	c-0.331,0.098-0.672,0.171-1.014,0.219c-0.168,0.022-0.351-0.027-0.521-0.065c-0.103-0.023-0.176-0.11-0.16-0.227
	c0.015-0.118,0.117-0.145,0.215-0.156c0.462-0.06,0.924-0.116,1.386-0.174c0.468-0.06,0.933-0.124,1.399-0.185
	c0.628-0.084,1.255-0.125,1.886-0.035c0.052,0.009,0.098,0.053,0.146,0.079c-0.037,0.047-0.069,0.116-0.116,0.134
	c-0.142,0.049-0.289,0.1-0.435,0.11C10.026,26.707,9.77,26.695,9.416,26.695z"/>
<path fill-rule="evenodd" clip-rule="evenodd" fill="#0087BF" d="M18.655,25.009c-0.073-0.005-0.148-0.003-0.217-0.019
	c-0.04-0.008-0.084-0.041-0.1-0.076c-0.007-0.019,0.034-0.076,0.064-0.09c0.179-0.076,0.358-0.159,0.546-0.214
	c0.514-0.154,1.037-0.279,1.548-0.446c0.396-0.13,0.779-0.307,1.165-0.467c0.224-0.09,0.442-0.169,0.679-0.024
	c0.147,0.092,0.17,0.172,0.017,0.253c-0.217,0.113-0.442,0.22-0.676,0.29c-0.774,0.227-1.551,0.44-2.328,0.654
	c-0.229,0.061-0.464,0.101-0.694,0.15C18.658,25.016,18.655,25.012,18.655,25.009z"/>
<path fill-rule="evenodd" clip-rule="evenodd" fill="#0087BF" d="M10.056,25.054c-0.097,0.032-0.193,0.075-0.292,0.098
	c-0.604,0.144-1.206,0.292-1.813,0.423c-0.33,0.071-0.665,0.114-1,0.16c-0.088,0.012-0.183,0-0.271-0.019
	c-0.206-0.039-0.285-0.25-0.131-0.397c0.102-0.098,0.249-0.173,0.387-0.209c0.197-0.054,0.404-0.083,0.608-0.087
	c0.787-0.019,1.574-0.021,2.36-0.031c0.047,0,0.095,0.008,0.142,0.013C10.049,25.021,10.053,25.037,10.056,25.054z"/>
<path fill-rule="evenodd" clip-rule="evenodd" fill="#0087BF" d="M9.747,24.078c-0.384-0.052-0.768-0.099-1.151-0.157
	c-0.209-0.03-0.413-0.076-0.618-0.123c-0.09-0.021-0.2-0.044-0.181-0.177c0.015-0.104,0.155-0.218,0.26-0.206
	c0.68,0.079,1.37,0.075,2.034,0.259c0.066,0.019,0.134,0.035,0.191,0.07c0.045,0.027,0.105,0.083,0.102,0.122
	c-0.001,0.044-0.062,0.105-0.108,0.121c-0.108,0.034-0.223,0.05-0.335,0.065c-0.062,0.009-0.128,0.001-0.19,0.001
	C9.749,24.062,9.747,24.07,9.747,24.078z"/>
<path fill-rule="evenodd" clip-rule="evenodd" fill="#0087BF" d="M23.037,8.868c-0.001,0.827-0.12,1.625-0.276,2.421
	c-0.204,1.045-0.457,2.079-0.799,3.085c-0.265,0.779-0.582,1.548-0.948,2.285c-1.021,2.047-2.081,4.077-3.126,6.114
	c-0.297,0.574-0.588,1.154-0.907,1.717c-0.239,0.424-0.547,0.801-0.967,1.067c-0.477,0.302-0.948,0.282-1.401-0.055
	c-0.451-0.336-0.756-0.789-1.034-1.266c-0.733-1.273-1.363-2.601-1.975-3.936c-0.514-1.119-1.024-2.238-1.502-3.373
	c-0.558-1.327-1.093-2.664-1.608-4.009c-0.319-0.831-0.554-1.69-0.723-2.566C7.576,9.341,7.51,8.321,7.656,7.297
	c0.162-1.149,0.599-2.186,1.322-3.099c0.86-1.086,1.91-1.931,3.171-2.51c0.677-0.311,1.38-0.531,2.125-0.59
	c0.287-0.022,0.575-0.052,0.86-0.043c0.655,0.018,1.285,0.171,1.897,0.392c1.463,0.524,2.726,1.355,3.783,2.492
	c0.854,0.918,1.529,1.955,1.969,3.135C23.001,7.654,23.048,8.265,23.037,8.868z M18.822,18.439c0.075-0.082,0.125-0.119,0.151-0.169
	c0.108-0.209,0.209-0.423,0.317-0.635c0.09-0.178,0.061-0.34-0.054-0.5c-0.067-0.091-0.123-0.191-0.168-0.297
	c-0.267-0.619-0.528-1.24-0.791-1.862c-0.082-0.192-0.163-0.386-0.236-0.583c-0.038-0.101-0.052-0.205,0.057-0.284
	c0.112-0.084,0.218-0.05,0.297,0.03c0.093,0.096,0.188,0.208,0.238,0.33c0.313,0.767,0.616,1.54,0.922,2.312
	c0.054,0.138,0.1,0.152,0.194,0.035c0.095-0.116,0.169-0.249,0.254-0.372c0.081-0.113,0.084-0.23,0.024-0.35
	c-0.172-0.352-0.356-0.698-0.518-1.055c-0.278-0.615-0.542-1.235-0.809-1.854c-0.105-0.243-0.04-0.489,0.152-0.61
	c0.141-0.088,0.241-0.075,0.322,0.068c0.066,0.118,0.126,0.243,0.166,0.373c0.206,0.686,0.401,1.375,0.609,2.06
	c0.069,0.226,0.167,0.444,0.255,0.663c0.038,0.096,0.106,0.099,0.165,0.023c0.077-0.101,0.15-0.208,0.215-0.317
	c0.201-0.346,0.204-0.674-0.032-1.023c-0.188-0.277-0.329-0.59-0.456-0.901c-0.134-0.328-0.213-0.677-0.343-1.009
	c-0.151-0.386-0.329-0.761-0.494-1.141c-0.088-0.204-0.016-0.347,0.2-0.353c0.08-0.001,0.19,0.057,0.24,0.122
	c0.133,0.173,0.282,0.351,0.351,0.552c0.222,0.652,0.41,1.314,0.608,1.973c0.062,0.201,0.11,0.406,0.173,0.605
	c0.015,0.049,0.068,0.085,0.105,0.128c0.03-0.041,0.071-0.079,0.093-0.126c0.041-0.09,0.067-0.188,0.106-0.281
	c0.148-0.363,0.197-0.718,0.04-1.101c-0.209-0.5-0.372-1.02-0.573-1.523c-0.255-0.644-0.531-1.279-0.795-1.92
	c-0.032-0.079-0.057-0.165-0.065-0.249c-0.009-0.104,0.043-0.187,0.144-0.228c0.098-0.039,0.169,0.011,0.229,0.08
	c0.041,0.048,0.081,0.102,0.104,0.159c0.187,0.471,0.389,0.935,0.545,1.415c0.223,0.695,0.41,1.401,0.612,2.103
	c0.011,0.033,0.035,0.062,0.062,0.106c0.029-0.038,0.045-0.053,0.056-0.071c0.018-0.032,0.038-0.064,0.047-0.1
	c0.093-0.385,0.171-0.775,0.282-1.155c0.063-0.217-0.014-0.369-0.136-0.526c-0.113-0.148-0.23-0.295-0.337-0.45
	c-0.075-0.107-0.157-0.218-0.197-0.341c-0.136-0.425-0.243-0.861-0.384-1.284c-0.159-0.482-0.273-0.993-0.708-1.331
	c-0.007-0.006-0.011-0.014-0.015-0.022c-0.075-0.102-0.054-0.165,0.065-0.203c0.204-0.066,0.464,0.012,0.589,0.218
	c0.134,0.221,0.251,0.456,0.343,0.697c0.23,0.608,0.439,1.227,0.665,1.838c0.058,0.156,0.149,0.302,0.226,0.452
	c0.017-0.005,0.032-0.01,0.049-0.015c0.008-0.061,0.022-0.122,0.022-0.182c-0.009-0.338-0.021-0.677-0.029-1.016
	c-0.007-0.375-0.052-0.736-0.215-1.089c-0.369-0.803-0.674-1.636-1.141-2.393c-0.082-0.133-0.117-0.276,0.007-0.418
	c0.024-0.029,0.022-0.11,0-0.145c-0.162-0.242-0.312-0.495-0.502-0.714c-1.195-1.388-2.678-2.23-4.527-2.396
	c-1.234-0.112-2.416,0.055-3.544,0.565c-0.999,0.452-1.804,1.138-2.409,2.052c-0.635,0.958-0.95,2.03-1.059,3.162
	c-0.102,1.051-0.02,2.094,0.223,3.122c0.201,0.863,0.48,1.704,0.834,2.515c0.514,1.184,1.052,2.357,1.59,3.528
	c0.869,1.89,1.748,3.774,2.623,5.66c0.079,0.169,0.158,0.34,0.238,0.509c0.026-0.041,0.033-0.077,0.024-0.109
	c-0.134-0.488-0.274-0.975-0.404-1.465c-0.084-0.322-0.159-0.646-0.221-0.974c-0.02-0.106-0.007-0.231,0.028-0.335
	c0.052-0.16,0.222-0.177,0.314-0.037c0.052,0.08,0.099,0.168,0.122,0.26c0.102,0.421,0.206,0.842,0.291,1.267
	c0.113,0.56,0.2,1.124,0.32,1.683c0.064,0.292,0.152,0.584,0.271,0.858c0.088,0.21,0.273,0.341,0.526,0.321
	c0.171-0.014,0.22-0.096,0.149-0.248c-0.024-0.054-0.049-0.108-0.081-0.157c-0.263-0.402-0.392-0.855-0.483-1.316
	c-0.099-0.497-0.131-1.006-0.229-1.502c-0.09-0.451-0.226-0.892-0.348-1.335c-0.029-0.104,0.001-0.192,0.107-0.223
	c0.142-0.042,0.288,0.004,0.355,0.155c0.092,0.212,0.171,0.435,0.217,0.658c0.079,0.38,0.126,0.768,0.192,1.15
	c0.081,0.468,0.16,0.936,0.255,1.401c0.06,0.289,0.14,0.576,0.23,0.859c0.068,0.215,0.171,0.229,0.336,0.068
	c0.313-0.308,0.373-0.652,0.237-1.076c-0.202-0.639-0.355-1.293-0.532-1.939c-0.139-0.506-0.285-1.01-0.422-1.516
	c-0.047-0.176-0.09-0.354-0.111-0.533c-0.008-0.064,0.041-0.182,0.085-0.194c0.068-0.018,0.172,0.014,0.23,0.062
	c0.07,0.058,0.119,0.149,0.162,0.234c0.355,0.709,0.469,1.483,0.608,2.252c0.08,0.448,0.151,0.9,0.232,1.35
	c0.009,0.055,0.047,0.104,0.071,0.155c0.051-0.031,0.122-0.053,0.149-0.101c0.165-0.277,0.331-0.555,0.475-0.845
	c0.102-0.202,0.052-0.393-0.065-0.593c-0.236-0.402-0.421-0.831-0.531-1.287c-0.125-0.514-0.245-1.029-0.46-1.517
	c-0.086-0.192-0.107-0.396-0.037-0.602c0.064-0.186,0.25-0.231,0.388-0.091c0.043,0.046,0.085,0.101,0.105,0.158
	c0.077,0.229,0.16,0.458,0.215,0.69c0.139,0.602,0.256,1.206,0.397,1.806c0.045,0.189,0.13,0.369,0.212,0.546
	c0.052,0.111,0.103,0.108,0.177,0.008c0.046-0.062,0.091-0.127,0.135-0.192c0.14-0.209,0.185-0.442,0.114-0.68
	c-0.163-0.551-0.345-1.097-0.51-1.647c-0.174-0.582-0.361-1.155-0.633-1.703c-0.055-0.112-0.031-0.218,0.067-0.292
	c0.103-0.076,0.217-0.08,0.315,0.003c0.062,0.05,0.118,0.117,0.156,0.188c0.262,0.467,0.417,0.97,0.504,1.497
	c0.069,0.413,0.154,0.825,0.24,1.236c0.018,0.094,0.063,0.181,0.111,0.307c0.065-0.082,0.118-0.125,0.14-0.18
	c0.116-0.288,0.226-0.576,0.328-0.869c0.032-0.096,0.029-0.2-0.06-0.279c-0.391-0.343-0.499-0.82-0.587-1.296
	c-0.089-0.467-0.142-0.94-0.418-1.35c-0.032-0.045-0.041-0.111-0.054-0.167c-0.028-0.149,0.051-0.335,0.159-0.38
	c0.099-0.041,0.207,0.017,0.313,0.168c0.178,0.251,0.25,0.545,0.317,0.838c0.116,0.502,0.222,1.007,0.344,1.508
	C18.673,18.11,18.749,18.252,18.822,18.439z"/>
<path fill-rule="evenodd" clip-rule="evenodd" fill="#FFFFFF" d="M18.822,18.439c-0.073-0.188-0.149-0.329-0.184-0.48
	c-0.122-0.501-0.228-1.006-0.344-1.508c-0.067-0.293-0.14-0.587-0.317-0.838c-0.106-0.151-0.215-0.209-0.313-0.168
	c-0.108,0.044-0.188,0.23-0.159,0.38c0.013,0.057,0.021,0.122,0.054,0.167c0.276,0.409,0.329,0.883,0.418,1.35
	c0.088,0.476,0.196,0.953,0.587,1.296c0.089,0.079,0.092,0.184,0.06,0.279c-0.103,0.293-0.212,0.581-0.328,0.869
	c-0.021,0.055-0.074,0.098-0.14,0.18c-0.048-0.126-0.094-0.213-0.111-0.307c-0.086-0.411-0.171-0.823-0.24-1.236
	c-0.087-0.527-0.242-1.03-0.504-1.497c-0.038-0.07-0.094-0.138-0.156-0.188c-0.099-0.083-0.213-0.079-0.315-0.003
	c-0.099,0.074-0.122,0.18-0.067,0.292c0.271,0.548,0.459,1.121,0.633,1.703c0.165,0.551,0.347,1.097,0.51,1.647
	c0.07,0.237,0.025,0.471-0.114,0.68c-0.044,0.065-0.089,0.13-0.135,0.192c-0.074,0.101-0.125,0.104-0.177-0.008
	c-0.082-0.177-0.167-0.356-0.212-0.546c-0.142-0.6-0.259-1.204-0.397-1.806c-0.055-0.232-0.138-0.462-0.215-0.69
	c-0.021-0.058-0.062-0.112-0.105-0.158c-0.138-0.141-0.323-0.095-0.388,0.091c-0.07,0.206-0.049,0.409,0.037,0.602
	c0.215,0.487,0.335,1.003,0.46,1.517c0.11,0.456,0.295,0.885,0.531,1.287c0.117,0.2,0.167,0.391,0.065,0.593
	c-0.144,0.29-0.31,0.567-0.475,0.845c-0.027,0.048-0.099,0.069-0.149,0.101c-0.024-0.052-0.062-0.101-0.071-0.155
	c-0.081-0.449-0.152-0.901-0.232-1.35c-0.14-0.769-0.253-1.543-0.608-2.252c-0.042-0.085-0.091-0.177-0.162-0.234
	c-0.058-0.048-0.162-0.079-0.23-0.062c-0.044,0.013-0.093,0.13-0.085,0.194c0.021,0.18,0.064,0.357,0.111,0.533
	c0.137,0.506,0.284,1.01,0.422,1.516c0.177,0.646,0.33,1.301,0.532,1.939c0.136,0.424,0.076,0.769-0.237,1.076
	c-0.165,0.16-0.269,0.146-0.336-0.068c-0.09-0.283-0.17-0.57-0.23-0.859c-0.095-0.466-0.174-0.934-0.255-1.401
	c-0.065-0.383-0.113-0.771-0.192-1.15c-0.046-0.224-0.125-0.446-0.217-0.658c-0.067-0.151-0.213-0.197-0.355-0.155
	c-0.105,0.03-0.136,0.118-0.107,0.223c0.122,0.443,0.258,0.884,0.348,1.335c0.098,0.496,0.13,1.005,0.229,1.502
	c0.091,0.461,0.221,0.914,0.483,1.316c0.032,0.049,0.056,0.104,0.081,0.157c0.07,0.152,0.021,0.234-0.149,0.248
	c-0.253,0.02-0.438-0.111-0.526-0.321c-0.119-0.274-0.208-0.566-0.271-0.858c-0.121-0.559-0.208-1.123-0.32-1.683
	c-0.085-0.425-0.189-0.846-0.291-1.267c-0.023-0.092-0.07-0.18-0.122-0.26c-0.092-0.14-0.262-0.123-0.314,0.037
	c-0.035,0.104-0.047,0.229-0.028,0.335c0.062,0.327,0.137,0.651,0.221,0.974c0.13,0.49,0.27,0.977,0.404,1.465
	c0.009,0.032,0.001,0.068-0.024,0.109c-0.08-0.169-0.159-0.34-0.238-0.509c-0.875-1.886-1.754-3.771-2.623-5.66
	c-0.538-1.171-1.076-2.345-1.59-3.528c-0.354-0.811-0.633-1.652-0.834-2.515C8.57,10.062,8.487,9.019,8.589,7.968
	c0.108-1.132,0.424-2.204,1.059-3.162c0.605-0.914,1.41-1.6,2.409-2.052c1.128-0.51,2.31-0.677,3.544-0.565
	c1.85,0.166,3.332,1.008,4.527,2.396c0.189,0.22,0.34,0.472,0.502,0.714c0.022,0.035,0.024,0.116,0,0.145
	c-0.124,0.142-0.089,0.285-0.007,0.418c0.467,0.757,0.771,1.59,1.141,2.393c0.163,0.353,0.208,0.714,0.215,1.089
	c0.008,0.338,0.021,0.677,0.029,1.016c0,0.06-0.015,0.121-0.022,0.182c-0.017,0.004-0.032,0.01-0.049,0.015
	c-0.076-0.15-0.168-0.296-0.226-0.452c-0.226-0.611-0.435-1.23-0.665-1.838c-0.092-0.241-0.209-0.476-0.343-0.697
	c-0.125-0.206-0.385-0.284-0.589-0.218c-0.119,0.038-0.141,0.101-0.065,0.203c0.004,0.008,0.008,0.016,0.015,0.022
	c0.435,0.338,0.549,0.849,0.708,1.331c0.141,0.423,0.248,0.859,0.384,1.284c0.04,0.123,0.122,0.233,0.197,0.341
	c0.106,0.155,0.224,0.302,0.337,0.45c0.122,0.157,0.199,0.309,0.136,0.526c-0.111,0.38-0.189,0.77-0.282,1.155
	c-0.009,0.035-0.029,0.067-0.047,0.1c-0.011,0.018-0.026,0.033-0.056,0.071c-0.027-0.044-0.052-0.073-0.062-0.106
	c-0.202-0.701-0.39-1.408-0.612-2.103c-0.156-0.48-0.358-0.944-0.545-1.415c-0.022-0.058-0.062-0.111-0.104-0.159
	c-0.06-0.069-0.131-0.119-0.229-0.08c-0.101,0.041-0.152,0.125-0.144,0.228c0.009,0.084,0.033,0.17,0.065,0.249
	c0.264,0.641,0.54,1.276,0.795,1.92c0.201,0.503,0.364,1.022,0.573,1.523c0.157,0.383,0.108,0.738-0.04,1.101
	c-0.039,0.093-0.065,0.191-0.106,0.281c-0.021,0.047-0.062,0.085-0.093,0.126c-0.037-0.042-0.091-0.079-0.105-0.128
	c-0.062-0.2-0.111-0.404-0.173-0.605c-0.198-0.659-0.387-1.321-0.608-1.973c-0.068-0.201-0.218-0.379-0.351-0.552
	c-0.05-0.065-0.16-0.123-0.24-0.122c-0.216,0.006-0.288,0.149-0.2,0.353c0.165,0.38,0.343,0.755,0.494,1.141
	c0.13,0.332,0.209,0.681,0.343,1.009c0.127,0.311,0.269,0.624,0.456,0.901c0.236,0.349,0.233,0.677,0.032,1.023
	c-0.064,0.109-0.138,0.216-0.215,0.317c-0.059,0.076-0.127,0.073-0.165-0.023c-0.088-0.219-0.186-0.438-0.255-0.663
	c-0.208-0.685-0.403-1.374-0.609-2.06c-0.04-0.129-0.1-0.254-0.166-0.373c-0.081-0.143-0.182-0.156-0.322-0.068
	c-0.192,0.121-0.258,0.367-0.152,0.61c0.267,0.619,0.53,1.239,0.809,1.854c0.161,0.357,0.346,0.703,0.518,1.055
	c0.06,0.119,0.057,0.236-0.024,0.35c-0.085,0.123-0.159,0.256-0.254,0.372c-0.095,0.117-0.141,0.103-0.194-0.035
	c-0.306-0.771-0.608-1.544-0.922-2.312c-0.051-0.122-0.146-0.233-0.238-0.33c-0.079-0.081-0.185-0.114-0.297-0.03
	c-0.108,0.079-0.095,0.183-0.057,0.284c0.073,0.197,0.154,0.39,0.236,0.583c0.263,0.622,0.524,1.243,0.791,1.862
	c0.045,0.105,0.101,0.206,0.168,0.297c0.114,0.16,0.144,0.322,0.054,0.5c-0.108,0.212-0.209,0.426-0.317,0.635
	C18.947,18.32,18.897,18.357,18.822,18.439z M15.484,9.524c0.128-0.017,0.353-0.029,0.571-0.078c0.451-0.101,0.83-0.327,1.091-0.721
	c0.513-0.779,0.342-1.907-0.376-2.514c-0.472-0.399-1.023-0.597-1.63-0.637c-0.596-0.041-1.112,0.143-1.446,0.662
	c-0.341,0.527-0.557,1.11-0.578,1.746c-0.019,0.543,0.213,0.953,0.704,1.203C14.312,9.436,14.846,9.497,15.484,9.524z M9.655,6.991
	C9.64,6.992,9.626,6.993,9.613,6.994c0.04,0.343,0.067,0.688,0.128,1.029c0.018,0.1,0.114,0.212,0.208,0.264
	c0.067,0.039,0.204,0.02,0.276-0.027c0.122-0.079,0.137-0.227,0.098-0.36c-0.114-0.38-0.111-0.769-0.084-1.156
	c0.034-0.463,0.185-0.884,0.529-1.214c0.376-0.361,0.754-0.719,1.128-1.081c0.073-0.069,0.144-0.143,0.198-0.226
	c0.073-0.11,0.012-0.22-0.12-0.209c-0.103,0.009-0.206,0.041-0.297,0.088c-0.399,0.211-0.737,0.51-1.051,0.827
	c-0.239,0.237-0.46,0.496-0.66,0.767C9.684,6.078,9.643,6.532,9.655,6.991z"/>
<path fill-rule="evenodd" clip-rule="evenodd" fill="#0087BF" d="M15.484,9.524c-0.639-0.027-1.172-0.088-1.664-0.339
	c-0.491-0.25-0.723-0.66-0.704-1.203c0.021-0.636,0.236-1.219,0.578-1.746c0.334-0.519,0.85-0.702,1.446-0.662
	c0.607,0.04,1.159,0.238,1.63,0.637c0.718,0.607,0.889,1.735,0.376,2.514c-0.261,0.394-0.64,0.62-1.091,0.721
	C15.837,9.495,15.613,9.507,15.484,9.524z M15.392,8.639c0.341,0.014,0.649-0.089,0.896-0.344c0.39-0.403,0.358-0.972-0.083-1.284
	c-0.16-0.113-0.351-0.2-0.542-0.249c-0.27-0.068-0.543-0.11-0.761-0.302c-0.003-0.003-0.008-0.008-0.008-0.008
	c-0.076,0.006-0.159-0.007-0.217,0.024c-0.067,0.038-0.122,0.108-0.167,0.175c-0.215,0.314-0.308,0.669-0.325,1.043
	C14.173,8,14.312,8.232,14.555,8.405C14.801,8.58,15.083,8.642,15.392,8.639z"/>
<path fill-rule="evenodd" clip-rule="evenodd" fill="#0087BF" d="M9.655,6.991c-0.012-0.459,0.029-0.913,0.31-1.295
	c0.2-0.271,0.421-0.53,0.66-0.767c0.314-0.316,0.651-0.615,1.051-0.827c0.091-0.047,0.195-0.079,0.297-0.088
	c0.132-0.011,0.193,0.099,0.12,0.209c-0.055,0.083-0.125,0.157-0.198,0.226c-0.374,0.362-0.751,0.72-1.128,1.081
	c-0.345,0.33-0.496,0.751-0.529,1.214c-0.027,0.387-0.03,0.776,0.084,1.156c0.04,0.133,0.024,0.281-0.098,0.36
	c-0.072,0.047-0.209,0.066-0.276,0.027C9.855,8.235,9.759,8.123,9.741,8.023C9.68,7.683,9.652,7.337,9.613,6.994
	C9.626,6.993,9.64,6.992,9.655,6.991z"/>
</svg>
