<?xml version="1.0" encoding="utf-8"?>
<!-- Generator: Adobe Illustrator 16.0.0, SVG Export Plug-In . SVG Version: 6.00 Build 0)  -->
<!DOCTYPE svg PUBLIC "-//W3C//DTD SVG 1.1//EN" "http://www.w3.org/Graphics/SVG/1.1/DTD/svg11.dtd">
<svg version="1.1" id="Layer_1" xmlns="http://www.w3.org/2000/svg" xmlns:xlink="http://www.w3.org/1999/xlink" x="0px" y="0px"
	 width="10px" height="10px" viewBox="0 0 10 10" enable-background="new 0 0 10 10" xml:space="preserve">
<path fill="#081733" d="M5.221,6.123L5.79,6.3c0,0,0.258,0.112,0.258-0.139V5.476V5.438c0,0,0-1.547,0-1.798
	S5.797,3.498,5.797,3.498L5.226,3.675"/>
<path fill="#081733" d="M4.802,3.675L2.627,4.273H2.113c0,0-0.145-0.017-0.145,0.108c0,0.18,0,1.031,0,1.031s-0.005,0.08,0.086,0.08
	c0.08,0,0.49,0,0.583,0l0.016,0.005L2.609,5.534C2.48,5.942,2.729,6.35,3.199,6.498c0.47,0.147,1.018-0.057,1.146-0.466L4.34,5.988
	l0.462,0.134V3.675z M3.981,5.885c-0.075,0.24-0.36,0.364-0.636,0.278C3.07,6.076,2.911,5.843,2.986,5.602L2.984,5.593l0.999,0.291
	L3.981,5.885z"/>
<line fill="none" stroke="#081733" stroke-width="0.5" stroke-linecap="round" stroke-linejoin="round" stroke-miterlimit="10" x1="6.749" y1="4.838" x2="7.57" y2="4.838"/>
<line fill="none" stroke="#081733" stroke-width="0.5" stroke-linecap="round" stroke-linejoin="round" stroke-miterlimit="10" x1="6.76" y1="3.843" x2="7.525" y2="3.541"/>
<line fill="none" stroke="#081733" stroke-width="0.5" stroke-linecap="round" stroke-linejoin="round" stroke-miterlimit="10" x1="6.76" y1="5.903" x2="7.525" y2="6.204"/>
<g>
	<path fill="#0B1933" d="M5.001,0.333c2.573,0,4.666,2.094,4.666,4.667c0,2.574-2.093,4.666-4.666,4.666
		C2.427,9.666,0.334,7.574,0.334,5C0.334,2.426,2.427,0.333,5.001,0.333 M5.001,0C2.238,0,0,2.238,0,5s2.239,5,5.001,5s5-2.238,5-5
		S7.762,0,5.001,0L5.001,0z"/>
</g>
</svg>
