<?xml version="1.0" encoding="utf-8"?>
<!-- Generator: Adobe Illustrator 16.0.0, SVG Export Plug-In . SVG Version: 6.00 Build 0)  -->
<!DOCTYPE svg PUBLIC "-//W3C//DTD SVG 1.1//EN" "http://www.w3.org/Graphics/SVG/1.1/DTD/svg11.dtd">
<svg version="1.1" id="Layer_1" xmlns="http://www.w3.org/2000/svg" xmlns:xlink="http://www.w3.org/1999/xlink" x="0px" y="0px"
	 width="10px" height="10px" viewBox="10 10 10 10" enable-background="new 10 10 10 10" xml:space="preserve">
<g>
	<path fill="#081733" d="M15,10.333c2.573,0,4.666,2.094,4.666,4.667c0,2.574-2.093,4.666-4.666,4.666
		c-2.574,0-4.667-2.092-4.667-4.666C10.333,12.426,12.426,10.333,15,10.333 M15,10c-2.763,0-5.001,2.238-5.001,5s2.239,5,5.001,5
		s5-2.238,5-5S17.761,10,15,10L15,10z"/>
</g>
<path fill="#081733" d="M16.567,16.258c0,0-1.03-0.262-1.082-0.484c0,0-0.048-0.082-0.048-0.33h-0.026
	c0.405-0.163,0.696-0.597,0.696-1.107c0-0.65-0.471-1.177-1.052-1.177s-1.051,0.527-1.051,1.177c0,0.511,0.291,0.944,0.695,1.107
	h-0.078c0,0.248-0.047,0.33-0.047,0.33c-0.052,0.223-1.083,0.484-1.083,0.484c-0.405,0.144-0.363,0.467-0.363,0.467v0.37h0.342
	h3.461v-0.37C16.932,16.725,16.973,16.4,16.567,16.258z"/>
</svg>
