<?xml version="1.0" encoding="utf-8"?>
<!-- Generator: Adobe Illustrator 15.0.0, SVG Export Plug-In . SVG Version: 6.00 Build 0)  -->
<!DOCTYPE svg PUBLIC "-//W3C//DTD SVG 1.1 Basic//EN" "http://www.w3.org/Graphics/SVG/1.1/DTD/svg11-basic.dtd">
<svg version="1.1" baseProfile="basic" id="Capa_1" xmlns="http://www.w3.org/2000/svg" xmlns:xlink="http://www.w3.org/1999/xlink"
	 x="0px" y="0px" width="141.732px" height="141.732px" viewBox="0 0 141.732 141.732" xml:space="preserve">
<circle fill="none" stroke="#1C2A33" stroke-miterlimit="10" cx="71.306" cy="71.224" r="64.799"/>
<polygon fill="none" stroke="#3A91C4" stroke-width="1.5" stroke-miterlimit="10" points="44.048,61.829 72.232,54.062 
	72.232,85.795 44.048,77.585 "/>
<path fill="none" stroke="#3A91C4" stroke-width="1.5" stroke-miterlimit="10" d="M44.048,61.829h-6.656
	c0,0-1.887-0.221-1.887,1.406c0,2.33,0,13.351,0,13.351s-0.055,1.036,1.109,1.036s7.268,0,7.268,0"/>
<path fill="none" stroke="#3A91C4" stroke-width="1.5" stroke-miterlimit="10" d="M72.156,85.8l7.396,2.295
	c0,0,3.33,1.457,3.33-1.797v-8.88v-0.5c0,0,0-20.047,0-23.301s-3.254-1.85-3.254-1.85l-7.396,2.294"/>
<path fill="none" stroke="#3A91C4" stroke-width="1.5" stroke-miterlimit="10" d="M66.332,84.621
	c-1.67,5.31-8.77,7.966-14.871,6.049c-6.1-1.917-9.314-7.199-7.646-12.511"/>
<path fill="none" stroke="#3A91C4" stroke-width="1.5" stroke-miterlimit="10" d="M61.595,82.72
	c-0.977,3.109-4.664,4.72-8.242,3.598c-3.572-1.127-5.627-4.154-4.646-7.265"/>
<line fill="none" stroke="#3A91C4" stroke-width="1.5" stroke-miterlimit="10" x1="93.757" y1="69.152" x2="104.408" y2="69.152"/>
<line fill="none" stroke="#3A91C4" stroke-width="1.5" stroke-miterlimit="10" x1="93.906" y1="56.236" x2="103.816" y2="52.332"/>
<line fill="none" stroke="#3A91C4" stroke-width="1.5" stroke-miterlimit="10" x1="93.906" y1="82.956" x2="103.816" y2="86.86"/>
</svg>
