<?xml version="1.0" encoding="utf-8"?>
<!-- Generator: Adobe Illustrator 16.0.0, SVG Export Plug-In . SVG Version: 6.00 Build 0)  -->
<!DOCTYPE svg PUBLIC "-//W3C//DTD SVG 1.1//EN" "http://www.w3.org/Graphics/SVG/1.1/DTD/svg11.dtd">
<svg version="1.1" id="Capa_1" xmlns="http://www.w3.org/2000/svg" xmlns:xlink="http://www.w3.org/1999/xlink" x="0px" y="0px"
	 width="141.732px" height="141.732px" viewBox="0 0 141.732 141.732" enable-background="new 0 0 141.732 141.732"
	 xml:space="preserve">
<circle fill="none" stroke="#1C2A33" stroke-miterlimit="10" cx="70.933" cy="71.926" r="64.799"/>
<path fill="none" stroke="#D99053" stroke-width="1.5" stroke-miterlimit="10" d="M81.697,72.172
	c0,5.732-4.646,10.374-10.375,10.374c-5.73,0-10.375-4.642-10.375-10.374c0-5.727,4.645-10.373,10.375-10.373
	C77.052,61.799,81.697,66.446,81.697,72.172z"/>
<g>
	<path fill="none" stroke="#D99053" stroke-width="1.5" stroke-miterlimit="10" d="M61.076,55.279l-5.574-5.604
		c-4.773,3.193-6.637,6.679-6.637,6.679l5.494,5.525l0.25,0.244c-0.848,1.436-1.477,2.72-1.93,4.363l0,0l-8.418,0.046
		c-1.104,5.638,0.057,9.417,0.057,9.417h7.791l0.266,0.024c0.145,0.684,0.281,1.194,0.49,1.854c0.449,1.399,1.053,2.734,1.791,3.979
		l-0.404,0.317l-5.676,5.333c0,0,1.74,3.549,6.406,6.905l5.762-5.416l0.508-0.408c1.686,1.008,3.391,1.728,5.354,2.19l0.031,0.729
		v7.906c5.639,1.104,9.418-0.056,9.418-0.056l-0.102-8.573c1.902-0.472,3.699-1.216,5.334-2.2l0.104,0.003l5.979,6.324
		c4.773-3.193,6.637-6.683,6.637-6.683l-6.074-6.283c0.555-0.918,1.035-1.89,1.434-2.9c0.426-1.086,0.654-1.766,0.877-2.938
		l0.055-0.111l7.781,0.003c1.104-5.638-0.057-9.417-0.057-9.417H90.23l-0.354-0.198c-0.402-1.334-0.857-2.509-1.521-3.703
		l0.264-0.218l5.678-5.333c0,0-1.74-3.555-6.406-6.907l-5.76,5.413l-0.268,0.084c-0.896-0.595-1.703-1.022-2.695-1.467
		c-0.92-0.404-1.877-0.742-2.863-1.004l-0.068-0.123v-7.905c-5.639-1.103-9.414,0.06-9.414,0.06v7.792l0.01,0.065
		c-2.119,0.483-3.865,1.107-5.66,2.222L61.076,55.279z"/>
</g>
</svg>
