<?xml version="1.0" encoding="utf-8"?>
<!-- Generator: Adobe Illustrator 15.0.0, SVG Export Plug-In . SVG Version: 6.00 Build 0)  -->
<!DOCTYPE svg PUBLIC "-//W3C//DTD SVG 1.1 Basic//EN" "http://www.w3.org/Graphics/SVG/1.1/DTD/svg11-basic.dtd">
<svg version="1.1" baseProfile="basic" id="Capa_1" xmlns="http://www.w3.org/2000/svg" xmlns:xlink="http://www.w3.org/1999/xlink"
	 x="0px" y="0px" width="141.732px" height="141.732px" viewBox="0 0 141.732 141.732" xml:space="preserve">
<g>
	<path fill="#1C2A33" d="M70.798,7.746c35.178,0,63.799,28.62,63.799,63.799c0,35.178-28.621,63.797-63.799,63.797
		C35.62,135.342,7,106.723,7,71.545C7,36.366,35.62,7.746,70.798,7.746 M70.798,6.746C35.012,6.746,6,35.758,6,71.545
		c0,35.785,29.012,64.797,64.798,64.797c35.787,0,64.799-29.012,64.799-64.797C135.597,35.758,106.585,6.746,70.798,6.746
		L70.798,6.746z"/>
</g>
<circle fill="none" stroke="#1C2A33" stroke-miterlimit="10" cx="376.791" cy="246.312" r="64.799"/>
<path fill="none" stroke="#86B9A3" stroke-width="1.5" stroke-linecap="round" stroke-linejoin="round" stroke-miterlimit="10" d="
	M76.25,74.265c0,3.065,0.583,4.075,0.583,4.075c0.647,2.775,13.415,6.011,13.415,6.011c5.023,1.788,4.512,5.788,4.512,5.788v4.596
	H51.863h-4.239v-4.596c0,0-0.511-4,4.512-5.788c0,0,12.767-3.235,13.416-6.011c0,0,0.583-1.01,0.583-4.075"/>
<ellipse fill="none" stroke="#86B9A3" stroke-width="1.5" stroke-linecap="round" stroke-linejoin="round" stroke-miterlimit="10" cx="71.511" cy="60.544" rx="13.029" ry="14.596"/>
<path fill="none" stroke="#86B9A3" stroke-width="1.5" stroke-linecap="round" stroke-linejoin="round" stroke-miterlimit="10" d="
	M58.888,58.083c0,0,11.133,3.976,15.573-7.897c0,0,2.244,7.082,9.359,5.9"/>
<path fill="none" stroke="#E2947B" stroke-miterlimit="10" d="M387.554,246.558c0,5.732-4.645,10.374-10.375,10.374
	s-10.375-4.642-10.375-10.374c0-5.727,4.645-10.373,10.375-10.373S387.554,240.832,387.554,246.558z"/>
<g>
	<path fill="none" stroke="#E2947B" stroke-miterlimit="10" d="M366.933,229.665l-5.574-5.602c-4.775,3.193-6.637,6.677-6.637,6.677
		l5.494,5.527l0.25,0.244c-0.848,1.434-1.475,2.72-1.93,4.363l0,0l-8.418,0.046c-1.102,5.638,0.057,9.417,0.057,9.417h7.791
		l0.266,0.024c0.143,0.684,0.281,1.196,0.49,1.856c0.449,1.399,1.053,2.734,1.791,3.977l-0.404,0.319l-5.676,5.333
		c0,0,1.74,3.549,6.406,6.905l5.762-5.416l0.508-0.408c1.684,1.008,3.389,1.726,5.354,2.19l0.031,0.729v7.906
		c5.639,1.104,9.418-0.056,9.418-0.056l-0.1-8.573c1.902-0.472,3.699-1.216,5.334-2.2l0.102,0.003l5.979,6.324
		c4.773-3.193,6.637-6.683,6.637-6.683l-6.076-6.283c0.555-0.918,1.037-1.888,1.434-2.9c0.426-1.086,0.654-1.766,0.877-2.94
		l0.055-0.111l7.781,0.003c1.104-5.638-0.057-9.417-0.057-9.417h-7.791l-0.354-0.198c-0.404-1.334-0.859-2.509-1.521-3.703
		l0.264-0.218l5.678-5.333c0,0-1.742-3.555-6.408-6.907l-5.758,5.413l-0.268,0.084c-0.896-0.595-1.703-1.024-2.695-1.467
		c-0.92-0.404-1.877-0.742-2.865-1.004l-0.068-0.123v-7.905c-5.639-1.103-9.414,0.058-9.414,0.058v7.792l0.01,0.067
		c-2.119,0.483-3.865,1.107-5.66,2.22L366.933,229.665z"/>
</g>
<circle fill="none" stroke="#1C2A33" stroke-miterlimit="10" cx="511.306" cy="123.224" r="64.799"/>
<polygon fill="none" stroke="#3A91C4" stroke-miterlimit="10" points="484.048,113.829 512.232,106.062 512.232,137.795 
	484.048,129.585 "/>
<path fill="none" stroke="#3A91C4" stroke-miterlimit="10" d="M484.048,113.829h-6.656c0,0-1.887-0.221-1.887,1.406
	c0,2.33,0,13.351,0,13.351s-0.055,1.036,1.109,1.036s7.268,0,7.268,0"/>
<path fill="none" stroke="#3A91C4" stroke-miterlimit="10" d="M512.156,137.8l7.396,2.295c0,0,3.33,1.457,3.33-1.797v-8.88v-0.5
	c0,0,0-20.047,0-23.301s-3.254-1.85-3.254-1.85l-7.396,2.294"/>
<path fill="none" stroke="#3A91C4" stroke-miterlimit="10" d="M506.332,136.621c-1.67,5.31-8.77,7.966-14.871,6.049
	c-6.1-1.917-9.314-7.199-7.646-12.511"/>
<path fill="none" stroke="#3A91C4" stroke-miterlimit="10" d="M501.595,134.72c-0.977,3.109-4.664,4.72-8.242,3.598
	c-3.572-1.127-5.627-4.154-4.646-7.265"/>
<line fill="none" stroke="#3A91C4" stroke-miterlimit="10" x1="533.757" y1="121.152" x2="544.408" y2="121.152"/>
<line fill="none" stroke="#3A91C4" stroke-miterlimit="10" x1="533.906" y1="108.236" x2="543.816" y2="104.332"/>
<line fill="none" stroke="#3A91C4" stroke-miterlimit="10" x1="533.906" y1="134.956" x2="543.816" y2="138.86"/>
</svg>
