<?xml version="1.0" encoding="utf-8"?>
<!-- Generator: Adobe Illustrator 16.0.0, SVG Export Plug-In . SVG Version: 6.00 Build 0)  -->
<!DOCTYPE svg PUBLIC "-//W3C//DTD SVG 1.1//EN" "http://www.w3.org/Graphics/SVG/1.1/DTD/svg11.dtd">
<svg version="1.1" id="Layer_1" xmlns="http://www.w3.org/2000/svg" xmlns:xlink="http://www.w3.org/1999/xlink" x="0px" y="0px"
	 width="10px" height="10px" viewBox="10 10 10 10" enable-background="new 10 10 10 10" xml:space="preserve">
<g>
	<path fill="#081733" d="M15,10.333c2.573,0,4.666,2.094,4.666,4.667c0,2.574-2.093,4.666-4.666,4.666
		c-2.574,0-4.667-2.092-4.667-4.666C10.333,12.426,12.426,10.333,15,10.333 M15,10c-2.763,0-5.001,2.238-5.001,5s2.239,5,5.001,5
		s5-2.238,5-5S17.761,10,15,10L15,10z"/>
</g>
<path fill="#081733" d="M14.149,13.773c0.155-0.097,0.308-0.151,0.491-0.193l-0.001-0.006v-0.677c0,0,0.328-0.1,0.817-0.004v0.686
	l0.007,0.011c0.085,0.022,0.169,0.052,0.249,0.087c0.086,0.038,0.155,0.075,0.233,0.127l0.023-0.007l0.499-0.47
	c0.405,0.292,0.557,0.6,0.557,0.6l-0.492,0.463l-0.023,0.019c0.058,0.104,0.098,0.206,0.132,0.322l0.031,0.017h0.677
	c0,0,0.1,0.327,0.004,0.816h-0.675l-0.005,0.01c-0.02,0.102-0.039,0.16-0.076,0.256c-0.035,0.088-0.076,0.172-0.125,0.252L17,16.627
	c0,0-0.161,0.303-0.576,0.58l-0.519-0.549h-0.009c-0.143,0.084-0.299,0.15-0.464,0.189l0.009,0.746c0,0-0.328,0.1-0.817,0.004
	v-0.686l-0.003-0.064c-0.17-0.039-0.318-0.104-0.465-0.189l-0.044,0.035l-0.5,0.471c-0.405-0.292-0.557-0.6-0.557-0.6l0.493-0.463
	l0.034-0.027c-0.063-0.109-0.115-0.225-0.154-0.346c-0.019-0.059-0.031-0.103-0.043-0.162l-0.023-0.002h-0.676
	c0,0-0.102-0.328-0.005-0.817l0.731-0.004l0,0c0.039-0.143,0.093-0.254,0.167-0.379l-0.021-0.021l-0.478-0.48
	c0,0,0.162-0.303,0.576-0.58l0.484,0.487L14.149,13.773z M15.031,14.336c-0.498,0-0.901,0.403-0.901,0.901s0.404,0.901,0.901,0.901
	c0.497,0,0.9-0.403,0.9-0.901S15.528,14.336,15.031,14.336z"/>
</svg>
