<?xml version="1.0" encoding="utf-8"?>
<!-- Generator: Adobe Illustrator 16.0.0, SVG Export Plug-In . SVG Version: 6.00 Build 0)  -->
<!DOCTYPE svg PUBLIC "-//W3C//DTD SVG 1.1//EN" "http://www.w3.org/Graphics/SVG/1.1/DTD/svg11.dtd">
<svg version="1.1" id="Layer_1" xmlns="http://www.w3.org/2000/svg" xmlns:xlink="http://www.w3.org/1999/xlink" x="0px" y="0px"
	 width="30px" height="30px" viewBox="0 0 30 30" enable-background="new 0 0 30 30" xml:space="preserve">
<g>
	<g>
		<circle fill="none" stroke="#009EDB" stroke-miterlimit="10" cx="15.125" cy="15.155" r="13.875"/>
	</g>
</g>
<g>
	<g>
		<path fill="#009EDB" d="M22.922,14.201v3.378c0,2.133-0.427,3.219-2.482,3.219H9.419c-2.058,0-2.483-1.086-2.483-3.219v-3.378
			c0-2.133,0.425-3.218,2.483-3.218h1.754V10.35c0-1.001,0.2-1.513,1.167-1.513h5.18c0.967,0,1.166,0.511,1.166,1.513v0.633h1.754
			C22.495,10.983,22.922,12.068,22.922,14.201z M14.819,12.687c-1.755,0-3.177,1.421-3.177,3.177c0,1.754,1.422,3.178,3.177,3.178
			c1.754,0,3.177-1.424,3.177-3.178C17.996,14.107,16.573,12.687,14.819,12.687z"/>
		<path fill="#009EDB" d="M22.922,14.201v3.378c0,2.133-0.427,3.219-2.482,3.219H9.419c-2.058,0-2.483-1.086-2.483-3.219v-3.378
			c0-2.133,0.425-3.218,2.483-3.218h1.754V10.35c0-1.001,0.2-1.513,1.167-1.513h5.18c0.967,0,1.166,0.511,1.166,1.513v0.633h1.754
			C22.495,10.983,22.922,12.068,22.922,14.201z M14.819,12.687c-1.755,0-3.177,1.421-3.177,3.177c0,1.754,1.422,3.178,3.177,3.178
			c1.754,0,3.177-1.424,3.177-3.178C17.996,14.107,16.573,12.687,14.819,12.687z"/>
	</g>
</g>
<g>
	<g>
		
			<path fill="none" stroke="#009EDB" stroke-width="0.5" stroke-linecap="round" stroke-linejoin="round" stroke-miterlimit="10" d="
			M14.597,14.063c0.995-0.077,1.872,0.601,1.956,1.515"/>
	</g>
</g>
</svg>
