<?xml version="1.0" encoding="utf-8"?>
<!-- Generator: Adobe Illustrator 16.0.0, SVG Export Plug-In . SVG Version: 6.00 Build 0)  -->
<!DOCTYPE svg PUBLIC "-//W3C//DTD SVG 1.1//EN" "http://www.w3.org/Graphics/SVG/1.1/DTD/svg11.dtd">
<svg version="1.1" id="Layer_1" xmlns="http://www.w3.org/2000/svg" xmlns:xlink="http://www.w3.org/1999/xlink" x="0px" y="0px"
	 width="30px" height="30px" viewBox="0 0 30 30" enable-background="new 0 0 30 30" xml:space="preserve">
<g>
</g>
<g>
	<ellipse fill="#374776" cx="15.031" cy="14.872" rx="14.459" ry="14.616"/>
</g>
<g>
	<path fill="#FFFFFF" d="M11.973,9.909c0.354-0.212,0.651-0.519,0.853-0.938c0.16-0.334,0.291-0.558,0.602-0.73
		c0.521-0.288,1.118-0.295,1.688-0.422c1.601-0.357,3.979-0.376,4.868,1.268c0.183,0.333,0.264,0.706,0.324,1.077
		c0.031,0.188,0.008,0.899,0.297,0.566c0.285-0.329-0.109-0.43,0.504-0.388c0.464,0.031,0.93,0.064,1.393,0.106
		c0.148,0.013,0.289,0.062,0.405,0.157c0.138,0.109,0.163,0.3,0.278,0.405c0.271,0.249,0.741,0.02,1.051,0.205
		c0.271,0.163,0.404,0.5,0.394,0.831c-0.021,0.51-0.244,0.71-0.612,0.986c-0.219,0.162-0.52,0.53-0.58,0.803
		c-0.082,0.354,0.021,0.854,0.028,1.22c0.021,0.841,0.043,1.684,0.063,2.527c0.007,0.297-0.055,0.557-0.201,0.814
		c-0.271,0.476-0.543,0.949-0.739,1.463c-0.052,0.136-0.323,0.233-0.454,0.175c-0.051-0.022-0.054-0.058-0.027-0.106
		c0.133-0.248,0.263-0.5,0.392-0.748c0.187-0.359,0.373-0.716,0.556-1.074c0.061-0.117,0.01-0.186-0.121-0.18
		c-0.121,0.006-0.201,0.078-0.248,0.18c-0.149,0.322-0.295,0.646-0.44,0.973c-0.118,0.268-0.233,0.535-0.351,0.804
		c-0.049,0.108-0.215,0.168-0.32,0.113c-0.057-0.029-0.059-0.072-0.03-0.128c0.118-0.237,0.235-0.475,0.354-0.713
		c0.065-0.135,0.134-0.271,0.188-0.41c0.02-0.053,0.02-0.164,0.001-0.17c-0.067-0.021-0.151-0.032-0.218-0.01
		c-0.059,0.021-0.117,0.084-0.146,0.145c-0.138,0.286-0.274,0.573-0.397,0.867c-0.043,0.105-0.058,0.226-0.069,0.342
		c-0.01,0.091-0.05,0.148-0.138,0.156c-0.13,0.009-0.263,0.012-0.392,0.001c-0.108-0.009-0.123-0.058-0.055-0.144
		c0.152-0.187,0.307-0.373,0.458-0.561c0.005-0.006,0.009-0.012,0.013-0.018c0.041-0.068,0.107-0.147,0.049-0.221
		c-0.062-0.076-0.162-0.031-0.241-0.007c-0.043,0.013-0.087,0.044-0.116,0.076c-0.193,0.207-0.363,0.43-0.469,0.698
		c-0.069,0.18-0.279,0.26-0.446,0.172c-0.047-0.026-0.046-0.057-0.019-0.102c0.068-0.098,0.139-0.197,0.197-0.303
		c0.07-0.126,0.03-0.189-0.113-0.189c-0.129,0-0.238,0.037-0.295,0.176c-0.047,0.111-0.112,0.215-0.168,0.32
		c-0.039,0.075-0.095,0.109-0.182,0.112c-0.889,0.037-1.775,0.08-2.663,0.115c-0.93,0.034-1.861,0.063-2.792,0.099
		c-0.107,0.004-0.213,0.018-0.32,0.014c-0.103-0.004-0.114-0.039-0.068-0.135c0.05-0.099,0.095-0.199,0.138-0.301
		c0.008-0.021,0.009-0.068,0-0.074c-0.066-0.025-0.134-0.061-0.204-0.062c-0.04,0-0.096,0.045-0.12,0.085
		c-0.061,0.107-0.104,0.225-0.161,0.334c-0.052,0.104-0.142,0.16-0.259,0.156c-0.129-0.002-0.26,0.027-0.395-0.055
		c0.031-0.035,0.055-0.063,0.083-0.09c0.126-0.124,0.269-0.236,0.377-0.374c0.081-0.101,0.121-0.235,0.168-0.358
		c0.011-0.027-0.008-0.082-0.032-0.104c-0.019-0.019-0.069-0.013-0.099,0c-0.159,0.065-0.268,0.196-0.367,0.333
		c-0.103,0.141-0.209,0.28-0.304,0.426c-0.088,0.143-0.206,0.225-0.372,0.238c-0.096,0.01-0.192,0.023-0.288,0.029
		c-0.025,0.002-0.068-0.01-0.077-0.028c-0.008-0.021,0.005-0.06,0.022-0.081c0.096-0.132,0.197-0.264,0.299-0.391
		c0.22-0.272,0.442-0.541,0.66-0.813c0.03-0.039,0.072-0.104,0.059-0.135c-0.016-0.035-0.083-0.062-0.132-0.069
		c-0.129-0.019-0.242,0.027-0.316,0.133c-0.161,0.224-0.32,0.448-0.466,0.682c-0.104,0.167-0.194,0.345-0.281,0.521
		c-0.045,0.096-0.099,0.155-0.212,0.145c-0.069-0.006-0.139,0.001-0.21-0.002c-0.075-0.004-0.099-0.051-0.057-0.109
		c0.21-0.311,0.427-0.615,0.642-0.924c0.014-0.02,0.038-0.034,0.044-0.055c0.014-0.051,0.043-0.12,0.023-0.152
		c-0.04-0.061-0.124-0.086-0.188-0.038c-0.101,0.079-0.213,0.159-0.282,0.263c-0.176,0.268-0.33,0.547-0.492,0.821
		c-0.099,0.167-0.315,0.229-0.507,0.128c0.041-0.048,0.072-0.098,0.115-0.135c0.102-0.094,0.211-0.178,0.308-0.273
		c0.032-0.031,0.063-0.103,0.049-0.133c-0.028-0.064-0.098-0.082-0.172-0.061c-0.195,0.055-0.324,0.188-0.422,0.359
		c-0.186,0.33-0.135,0.286-0.5,0.278c-0.744-0.015-1.488-0.03-2.232-0.053c-0.31-0.011-0.618-0.043-0.915-0.147
		c-0.353-0.126-0.549-0.387-0.649-0.736c-0.16-0.556-0.208-1.125-0.239-1.698c-0.083-1.519-0.042-3.036,0.008-4.554
		C5.561,12.543,5.6,11.98,5.66,11.419c0.058-0.546,0.309-0.98,0.854-1.161c0.272-0.091,0.564-0.136,0.85-0.179
		c0.447-0.066,0.898-0.061,1.346-0.001c0.305,0.041,0.609,0.082,0.909,0.141C10.419,10.375,11.298,10.314,11.973,9.909z
		 M10.333,18.311c-0.029-0.238-0.063-0.463-0.083-0.688c-0.053-0.59-0.121-1.182-0.146-1.773c-0.042-1.042-0.056-2.084-0.09-3.126
		c-0.012-0.37-0.043-0.741-0.159-1.097c-0.032-0.103-0.089-0.203-0.158-0.286c-0.062-0.076-0.122-0.051-0.128,0.048
		c-0.01,0.14-0.01,0.283-0.005,0.423c0.027,0.617,0.063,1.233,0.083,1.851c0.023,0.73,0.028,1.463,0.053,2.195
		c0.01,0.268,0.05,0.537,0.075,0.805c0.042,0.467,0.076,0.936,0.127,1.398c0.019,0.184,0.08,0.355,0.223,0.485
		c0.071,0.065,0.138,0.05,0.168-0.042C10.314,18.439,10.321,18.367,10.333,18.311z M22.361,12.798
		c0.016,0.087,0.021,0.157,0.041,0.219c0.013,0.036,0.049,0.079,0.082,0.088c0.025,0.007,0.082-0.028,0.093-0.057
		c0.063-0.175,0.123-0.353,0.169-0.533c0.009-0.04-0.037-0.118-0.076-0.135s-0.105,0.01-0.15,0.035
		c-0.035,0.019-0.065,0.062-0.08,0.102C22.406,12.613,22.385,12.715,22.361,12.798z"/>
	<path fill="#2C3962" d="M24.711,11.763c-0.016-0.151-0.045-0.3-0.072-0.449c-0.029-0.17-0.099-0.239-0.267-0.264
		c-0.134-0.02-0.267-0.035-0.397-0.04c-0.203-0.008-0.203-0.003-0.267-0.197c-0.01-0.032-0.021-0.063-0.028-0.096
		c-0.099-0.375-0.322-0.638-0.699-0.727c-0.209-0.051-0.431-0.066-0.646-0.07c-0.577-0.011-1.153-0.007-1.731-0.006
		c-0.072,0-0.109-0.016-0.138-0.095c-0.125-0.357-0.261-0.712-0.391-1.069c-0.151-0.422-0.38-0.785-0.761-1.035
		c-0.207-0.135-0.414-0.28-0.666-0.309c-0.404-0.044-0.811-0.089-1.215-0.108c-1.27-0.06-2.527,0.029-3.771,0.309
		c-0.296,0.067-0.542,0.193-0.686,0.48c-0.207,0.412-0.421,0.818-0.634,1.225c-0.019,0.037-0.047,0.08-0.083,0.094
		c-0.153,0.066-0.304,0.147-0.464,0.177c-0.358,0.068-0.719,0.114-1.08,0.156C10.281,9.791,9.86,9.7,9.445,9.577
		c-0.067-0.02-0.102-0.06-0.112-0.136C9.315,9.315,9.288,9.189,9.255,9.067c-0.068-0.25-0.304-0.463-0.536-0.485
		C8.083,8.52,7.445,8.503,6.81,8.576C6.526,8.608,6.289,8.737,6.103,8.954c-0.025,0.028-0.05,0.067-0.055,0.104
		c-0.032,0.23-0.06,0.461-0.083,0.691C5.957,9.818,5.942,9.873,5.876,9.905c-0.227,0.111-0.409,0.28-0.528,0.494
		c-0.118,0.212-0.275,0.264-0.493,0.234c-0.152-0.021-0.203,0.014-0.248,0.158c-0.041,0.134-0.062,0.275-0.093,0.413
		c-0.087,0.38-0.175,0.76-0.26,1.142C4.228,12.46,4.257,12.57,4.356,12.63c0.126,0.078,0.261,0.147,0.402,0.196
		c0.162,0.057,0.17,0.045,0.164,0.221c-0.022,0.633-0.056,1.266-0.071,1.9c-0.027,1.188-0.011,2.375,0.118,3.559
		c0.051,0.483,0.143,0.957,0.322,1.413c0.174,0.442,0.478,0.713,0.953,0.765c0.398,0.043,0.797,0.096,1.196,0.109
		c1.279,0.039,2.556,0.082,3.834,0.089c1.271,0.007,2.545-0.028,3.815-0.045v-0.022c0.41-0.018,0.821-0.033,1.231-0.047
		c1.277-0.043,2.555-0.092,3.834-0.119c0.861-0.019,1.723,0,2.582-0.01c0.154,0,0.324-0.018,0.455-0.086
		c0.261-0.133,0.506-0.3,0.746-0.465c0.053-0.036,0.086-0.119,0.1-0.188c0.021-0.112,0.025-0.232,0.027-0.352
		c0.015-1.208,0.037-2.416,0.035-3.623c-0.004-0.878-0.039-1.755-0.062-2.632c-0.002-0.085,0.004-0.129,0.11-0.118
		c0.17,0.018,0.312-0.047,0.426-0.18c0.119-0.138,0.183-0.304,0.183-0.48C24.758,12.267,24.732,12.014,24.711,11.763z M4.986,11.452
		c-0.028,0.326-0.055,0.651-0.085,0.976c-0.004,0.04-0.029,0.078-0.045,0.116c-0.041-0.018-0.088-0.027-0.122-0.056
		c-0.125-0.102-0.125-0.161-0.065-0.311c0.046-0.114,0.071-0.238,0.091-0.36c0.034-0.206,0.056-0.414,0.084-0.621
		c0.007-0.041,0.022-0.084,0.042-0.12c0.013-0.021,0.047-0.03,0.071-0.044c0.015,0.025,0.04,0.051,0.04,0.076
		c0.004,0.114,0.002,0.229,0.002,0.343C4.996,11.452,4.991,11.452,4.986,11.452z M6.579,9.433c0.215-0.019,0.432-0.018,0.646-0.048
		c0.132-0.019,0.26-0.079,0.388-0.125c0.031-0.01,0.062-0.031,0.081-0.056c0.02-0.026,0.039-0.065,0.033-0.095
		C7.725,9.092,7.676,9.07,7.648,9.072c-0.132,0.01-0.266,0.034-0.397,0.039C7.11,9.116,6.972,9.106,6.833,9.098
		C6.81,9.097,6.773,9.07,6.773,9.057c0-0.024,0.018-0.062,0.04-0.07C6.879,8.958,6.949,8.922,7.02,8.921
		c0.416-0.012,0.833-0.025,1.25-0.013c0.161,0.004,0.323,0.065,0.48,0.114C8.838,9.051,8.892,9.13,8.909,9.229
		C8.934,9.373,8.854,9.473,8.71,9.474c-0.24,0-0.48,0-0.72,0c-0.001-0.01-0.002-0.018-0.002-0.026
		C7.648,9.468,7.31,9.485,6.97,9.511c-0.098,0.008-0.195,0.04-0.293,0.06C6.645,9.578,6.605,9.599,6.581,9.586
		C6.543,9.565,6.518,9.525,6.485,9.492C6.516,9.471,6.545,9.435,6.579,9.433z M22.587,19.859c-0.052,0.135-0.323,0.232-0.454,0.174
		c-0.051-0.022-0.054-0.059-0.027-0.106c0.133-0.249,0.263-0.5,0.392-0.749c0.187-0.357,0.373-0.715,0.556-1.074
		c0.061-0.117,0.01-0.185-0.121-0.179c-0.121,0.005-0.201,0.078-0.248,0.179c-0.149,0.323-0.295,0.647-0.44,0.974
		c-0.118,0.267-0.233,0.534-0.351,0.804c-0.05,0.108-0.215,0.168-0.32,0.113c-0.057-0.029-0.059-0.072-0.03-0.128
		c0.118-0.237,0.235-0.476,0.354-0.712c0.065-0.137,0.133-0.271,0.188-0.411c0.02-0.054,0.02-0.164,0.001-0.17
		c-0.067-0.021-0.151-0.032-0.218-0.009c-0.059,0.021-0.117,0.084-0.146,0.144c-0.138,0.286-0.275,0.573-0.397,0.867
		c-0.044,0.104-0.058,0.226-0.069,0.342c-0.01,0.091-0.05,0.149-0.138,0.156c-0.13,0.009-0.263,0.012-0.392,0.001
		c-0.108-0.008-0.123-0.059-0.055-0.143c0.152-0.188,0.307-0.375,0.458-0.562c0.005-0.006,0.009-0.013,0.013-0.019
		c0.041-0.067,0.107-0.146,0.049-0.22c-0.062-0.077-0.162-0.032-0.241-0.007c-0.044,0.014-0.087,0.044-0.116,0.076
		c-0.193,0.207-0.364,0.43-0.469,0.699c-0.069,0.179-0.279,0.259-0.446,0.17c-0.047-0.025-0.046-0.057-0.019-0.1
		c0.068-0.099,0.139-0.199,0.197-0.304c0.07-0.126,0.03-0.188-0.113-0.188c-0.129,0-0.238,0.035-0.295,0.174
		c-0.047,0.111-0.112,0.216-0.168,0.322c-0.039,0.074-0.095,0.108-0.182,0.111c-0.889,0.037-1.775,0.08-2.663,0.115
		c-0.93,0.035-1.861,0.064-2.792,0.099c-0.107,0.005-0.213,0.017-0.32,0.013c-0.103-0.002-0.114-0.037-0.068-0.133
		c0.05-0.1,0.095-0.201,0.138-0.302c0.008-0.022,0.009-0.069,0-0.073c-0.066-0.027-0.134-0.062-0.204-0.062
		c-0.04,0-0.096,0.045-0.12,0.085c-0.061,0.106-0.104,0.225-0.161,0.334c-0.052,0.104-0.142,0.159-0.259,0.157
		c-0.129-0.002-0.26,0.025-0.395-0.055c0.031-0.035,0.055-0.064,0.083-0.091c0.126-0.124,0.269-0.235,0.377-0.374
		c0.081-0.101,0.121-0.234,0.168-0.359c0.011-0.026-0.008-0.082-0.032-0.104c-0.019-0.018-0.069-0.013-0.099,0
		c-0.159,0.066-0.268,0.196-0.367,0.333c-0.103,0.142-0.209,0.28-0.304,0.427c-0.088,0.141-0.206,0.225-0.372,0.237
		c-0.096,0.01-0.192,0.022-0.288,0.028c-0.025,0.003-0.068-0.01-0.077-0.027c-0.008-0.021,0.005-0.059,0.022-0.081
		c0.096-0.132,0.197-0.264,0.299-0.392c0.22-0.271,0.442-0.541,0.66-0.812c0.03-0.039,0.072-0.104,0.059-0.135
		c-0.016-0.035-0.083-0.062-0.132-0.068c-0.129-0.02-0.242,0.026-0.316,0.131c-0.161,0.225-0.32,0.449-0.466,0.683
		c-0.104,0.167-0.194,0.345-0.281,0.522c-0.045,0.094-0.099,0.154-0.212,0.144c-0.069-0.007-0.139,0.001-0.21-0.002
		c-0.075-0.005-0.099-0.05-0.057-0.109c0.21-0.31,0.427-0.614,0.642-0.924c0.014-0.019,0.038-0.034,0.044-0.054
		c0.014-0.053,0.043-0.121,0.023-0.153c-0.04-0.062-0.124-0.086-0.188-0.038c-0.101,0.079-0.213,0.159-0.282,0.264
		c-0.176,0.267-0.33,0.547-0.492,0.82c-0.099,0.167-0.315,0.229-0.507,0.128c0.041-0.048,0.072-0.098,0.115-0.135
		c0.102-0.095,0.211-0.177,0.308-0.272c0.032-0.031,0.063-0.104,0.049-0.134c-0.028-0.063-0.098-0.082-0.172-0.062
		c-0.195,0.056-0.324,0.188-0.422,0.361c-0.186,0.33-0.135,0.285-0.5,0.277c-0.744-0.014-1.488-0.029-2.232-0.053
		c-0.31-0.01-0.618-0.043-0.915-0.147c-0.353-0.126-0.549-0.387-0.649-0.737c-0.16-0.555-0.208-1.125-0.239-1.697
		c-0.083-1.52-0.042-3.036,0.008-4.554c0.019-0.562,0.058-1.125,0.118-1.686c0.058-0.546,0.309-0.98,0.854-1.161
		c0.272-0.091,0.564-0.136,0.85-0.179c0.447-0.066,0.898-0.061,1.346-0.001c0.305,0.041,0.609,0.082,0.909,0.141
		c0.697,0.136,1.38,0.119,2.051-0.131c0.276-0.102,0.575-0.123,0.852-0.227c0.415-0.157,0.412-0.377,0.585-0.748
		c0.101-0.219,0.206-0.451,0.365-0.636c0.158-0.18,0.332-0.208,0.547-0.292c0.456-0.176,0.921-0.289,1.412-0.289
		c0.819,0,1.641-0.016,2.457,0.059c0.708,0.064,1.261,0.261,1.654,0.9c0.078,0.123,0.146,0.261,0.201,0.393
		c0.118,0.281,0.22,0.569,0.268,0.87c0.052,0.333,0.205,0.657,0.226,0.994c0.015,0.197-0.045,0.604,0.312,0.492
		c0.061-0.019,0.119-0.047,0.17-0.082c0.143-0.097,0.162-0.185,0.114-0.389c-0.052-0.219-0.101-0.439-0.146-0.66
		c-0.028-0.145-0.016-0.164,0.129-0.153c0.562,0.039,1.125,0.076,1.687,0.127c0.374,0.033,0.582,0.277,0.703,0.617
		c0.138,0.392,0.18,0.803,0.19,1.214c0.049,1.767,0.084,3.536,0.135,5.302c0.006,0.297-0.057,0.556-0.202,0.813
		C23.055,18.871,22.783,19.346,22.587,19.859z M22.945,19.953c-0.104,0.029-0.146-0.006-0.111-0.107
		c0.033-0.099,0.075-0.195,0.125-0.285c0.117-0.194,0.239-0.388,0.361-0.578c0.037-0.059,0.086-0.107,0.145-0.176
		c0.021,0.041,0.035,0.061,0.042,0.082C23.646,19.336,23.389,19.829,22.945,19.953z M24.404,12.187c0,0.128,0.006,0.256-0.002,0.384
		c-0.006,0.133-0.182,0.277-0.31,0.255c-0.021-0.004-0.051-0.049-0.055-0.078c-0.026-0.216-0.043-0.436-0.072-0.653
		c-0.03-0.22-0.065-0.439-0.104-0.658c-0.025-0.142-0.004-0.171,0.14-0.162c0.05,0.004,0.103,0.008,0.149,0.019
		c0.143,0.029,0.211,0.109,0.224,0.256c0.015,0.212,0.024,0.424,0.039,0.636L24.404,12.187L24.404,12.187z"/>
	<path fill="#FFFFFF" d="M7.988,9.448C7.648,9.468,7.31,9.485,6.97,9.511c-0.098,0.008-0.195,0.04-0.293,0.06
		C6.645,9.578,6.605,9.599,6.581,9.586C6.543,9.565,6.518,9.525,6.485,9.492c0.03-0.021,0.06-0.057,0.093-0.06
		C6.793,9.413,7.01,9.414,7.224,9.384c0.132-0.019,0.26-0.079,0.388-0.125c0.031-0.01,0.062-0.031,0.081-0.056
		c0.02-0.026,0.039-0.065,0.033-0.095C7.725,9.092,7.676,9.07,7.648,9.072c-0.132,0.01-0.266,0.034-0.397,0.039
		C7.11,9.116,6.972,9.106,6.833,9.098C6.81,9.097,6.773,9.07,6.773,9.057c0-0.024,0.018-0.062,0.04-0.07
		C6.879,8.958,6.949,8.922,7.02,8.921c0.416-0.012,0.833-0.025,1.25-0.013c0.161,0.004,0.323,0.065,0.48,0.114
		C8.838,9.051,8.892,9.13,8.909,9.229C8.934,9.373,8.854,9.473,8.71,9.474c-0.24,0-0.48,0-0.72,0
		C7.988,9.464,7.988,9.456,7.988,9.448z"/>
	<path fill="#FFFFFF" d="M19.089,12.187c0,0.128,0.007,0.256-0.001,0.384c-0.006,0.133-0.181,0.277-0.309,0.255
		c-0.023-0.004-0.051-0.049-0.055-0.078c-0.027-0.216-0.045-0.436-0.074-0.653c-0.03-0.22-0.064-0.439-0.104-0.658
		c-0.022-0.142-0.003-0.171,0.142-0.162c0.049,0.004,0.101,0.008,0.147,0.019c0.142,0.029,0.213,0.109,0.224,0.256
		c0.015,0.212,0.026,0.424,0.041,0.636C19.096,12.187,19.094,12.187,19.089,12.187z"/>
	<path fill="#FFFFFF" d="M23.465,18.807c0.021,0.041,0.035,0.061,0.042,0.082c0.142,0.447-0.118,0.94-0.562,1.064
		c-0.104,0.029-0.146-0.006-0.111-0.107c0.033-0.099,0.075-0.195,0.125-0.285c0.117-0.194,0.239-0.388,0.361-0.578
		C23.357,18.924,23.406,18.874,23.465,18.807z"/>
	<path fill="#FFFFFF" d="M4.986,11.452c-0.028,0.326-0.055,0.651-0.085,0.976c-0.004,0.04-0.029,0.078-0.045,0.116
		c-0.041-0.018-0.088-0.027-0.122-0.056c-0.125-0.102-0.125-0.161-0.065-0.311c0.046-0.114,0.071-0.238,0.091-0.36
		c0.034-0.206,0.056-0.414,0.084-0.621c0.007-0.041,0.022-0.084,0.042-0.12c0.013-0.021,0.047-0.03,0.071-0.044
		c0.015,0.025,0.04,0.051,0.04,0.076c0.004,0.114,0.002,0.229,0.002,0.343C4.996,11.452,4.991,11.452,4.986,11.452z"/>
	<path fill="#2C3962" d="M16.336,19.768c-0.49,0.008-0.975-0.039-1.453-0.139c-1.119-0.229-1.971-0.852-2.576-1.824
		c-0.287-0.461-0.464-0.963-0.576-1.496c-0.121-0.576-0.204-1.156-0.188-1.745c0.024-0.96,0.289-1.845,0.847-2.629
		c0.357-0.502,0.833-0.86,1.379-1.124c0.341-0.164,0.689-0.322,1.039-0.462c0.278-0.11,0.579-0.133,0.875-0.144
		c0.414-0.015,0.83-0.046,1.239,0.04c0.37,0.078,0.741,0.168,1.103,0.285c0.539,0.175,1.053,0.417,1.515,0.757
		c0.663,0.486,1.12,1.123,1.384,1.907c0.206,0.625,0.229,1.266,0.165,1.911c-0.038,0.384-0.098,0.767-0.172,1.147
		c-0.117,0.594-0.347,1.143-0.696,1.637c-0.268,0.37-0.543,0.729-0.892,1.023c-0.409,0.346-0.877,0.564-1.396,0.688
		C17.407,19.723,16.874,19.768,16.336,19.768z M16.438,19.105c0.19-0.01,0.455-0.019,0.717-0.049
		c0.244-0.027,0.492-0.057,0.728-0.123c0.675-0.195,1.202-0.61,1.634-1.162c0.437-0.551,0.687-1.185,0.808-1.875
		c0.116-0.649,0.188-1.299,0.118-1.96c-0.049-0.479-0.197-0.92-0.475-1.313c-0.633-0.9-1.529-1.366-2.574-1.572
		c-0.379-0.075-0.764-0.13-1.146-0.188c-0.312-0.047-0.618-0.068-0.924,0.052c-0.316,0.123-0.641,0.204-0.984,0.211
		c-0.117,0.003-0.24,0.056-0.345,0.114c-0.702,0.388-1.144,1.004-1.453,1.731c-0.191,0.452-0.299,0.926-0.342,1.416
		c-0.052,0.607-0.018,1.208,0.157,1.792c0.159,0.53,0.403,1.025,0.717,1.48c0.402,0.589,0.94,0.998,1.624,1.213
		C15.24,19.043,15.798,19.096,16.438,19.105z"/>
	<path fill="#384777" d="M10.333,18.311c-0.012,0.058-0.019,0.129-0.04,0.195c-0.03,0.092-0.097,0.107-0.168,0.042
		c-0.143-0.13-0.204-0.303-0.223-0.485c-0.051-0.465-0.085-0.933-0.127-1.398C9.75,16.395,9.71,16.126,9.7,15.857
		c-0.025-0.731-0.03-1.464-0.053-2.194c-0.02-0.617-0.056-1.233-0.083-1.851c-0.005-0.141-0.005-0.283,0.005-0.423
		c0.006-0.1,0.066-0.124,0.128-0.048c0.068,0.083,0.125,0.183,0.158,0.286c0.116,0.356,0.147,0.727,0.159,1.097
		c0.034,1.042,0.048,2.085,0.09,3.125c0.025,0.592,0.093,1.185,0.146,1.774C10.27,17.848,10.304,18.07,10.333,18.311z"/>
	<path fill="#384777" d="M22.361,12.798c0.022-0.083,0.045-0.185,0.078-0.281c0.014-0.04,0.043-0.083,0.078-0.102
		c0.047-0.025,0.112-0.052,0.151-0.035s0.085,0.096,0.076,0.135c-0.046,0.18-0.104,0.357-0.169,0.533
		c-0.01,0.029-0.066,0.063-0.094,0.057c-0.032-0.009-0.068-0.052-0.082-0.088C22.382,12.955,22.377,12.886,22.361,12.798z"/>
	<path fill="#FFFFFF" d="M16.438,19.105c-0.639-0.01-1.196-0.062-1.741-0.232c-0.683-0.215-1.221-0.624-1.624-1.213
		c-0.314-0.455-0.558-0.95-0.717-1.48c-0.175-0.584-0.209-1.186-0.157-1.792c0.043-0.489,0.151-0.964,0.342-1.416
		c0.309-0.727,0.75-1.343,1.453-1.731c0.104-0.058,0.228-0.111,0.345-0.114c0.343-0.007,0.668-0.088,0.984-0.211
		c0.306-0.12,0.612-0.099,0.924-0.052c0.382,0.058,0.767,0.113,1.146,0.188c1.045,0.206,1.941,0.671,2.574,1.572
		c0.276,0.393,0.426,0.834,0.475,1.313c0.068,0.661-0.002,1.311-0.118,1.96c-0.121,0.691-0.371,1.326-0.808,1.875
		c-0.432,0.552-0.959,0.967-1.634,1.162C17.646,19,17.4,19.029,17.154,19.057C16.893,19.088,16.628,19.096,16.438,19.105z
		 M16.354,17.646c0.778-0.013,1.433-0.234,1.979-0.73c0.414-0.376,0.681-0.852,0.854-1.381c0.076-0.235,0.131-0.478,0.104-0.726
		c-0.028-0.287-0.12-0.559-0.239-0.819c-0.291-0.621-0.758-1.085-1.301-1.48c-0.357-0.262-0.741-0.403-1.189-0.295
		c-0.133,0.031-0.268,0.005-0.398-0.047c-0.127-0.052-0.271-0.089-0.407-0.085c-0.34,0.009-0.656,0.116-0.932,0.321
		c-0.383,0.283-0.646,0.67-0.882,1.074c-0.264,0.447-0.384,0.946-0.428,1.46c-0.074,0.845,0.207,1.554,0.891,2.056
		C14.995,17.423,15.677,17.614,16.354,17.646z"/>
	<path fill="#2C3962" d="M16.354,17.646c-0.676-0.032-1.357-0.225-1.947-0.654c-0.684-0.502-0.964-1.211-0.891-2.056
		c0.044-0.514,0.165-1.013,0.428-1.46c0.236-0.404,0.5-0.791,0.882-1.074c0.276-0.205,0.592-0.312,0.932-0.321
		c0.136-0.004,0.28,0.034,0.407,0.085c0.132,0.053,0.266,0.078,0.398,0.047c0.448-0.107,0.832,0.034,1.189,0.295
		c0.543,0.396,1.01,0.86,1.301,1.48c0.119,0.26,0.211,0.532,0.239,0.819c0.024,0.249-0.028,0.491-0.104,0.726
		c-0.176,0.529-0.44,1.005-0.854,1.381C17.785,17.412,17.132,17.635,16.354,17.646z M13.854,15.092
		c-0.01,0.221,0.052,0.424,0.13,0.621c0.21,0.546,0.551,0.979,1.083,1.227c0.615,0.285,1.253,0.367,1.921,0.235
		c0.582-0.112,1.037-0.405,1.35-0.917c0.213-0.347,0.357-0.721,0.446-1.118c0.063-0.294,0.052-0.588-0.056-0.875
		c-0.189-0.508-0.535-0.902-0.929-1.258c-0.271-0.245-0.59-0.38-0.954-0.381c-0.231-0.001-0.466,0.016-0.697,0.033
		c-0.139,0.01-0.221-0.029-0.244-0.134c-0.031-0.143-0.12-0.197-0.254-0.131c-0.356,0.179-0.713,0.365-0.997,0.66
		C14.111,13.621,13.943,14.341,13.854,15.092z"/>
	<path fill="#2C3962" d="M16.307,15.832c-0.093-0.021-0.271-0.061-0.455-0.104c-0.09-0.021-0.184-0.041-0.268-0.074
		c-0.324-0.131-0.425-0.381-0.304-0.723c0.152-0.432,0.441-0.724,0.869-0.87c0.291-0.1,0.562-0.049,0.789,0.167
		c0.211,0.199,0.364,0.438,0.438,0.724c0.034,0.129,0.02,0.251-0.059,0.367C17.125,15.607,16.711,15.846,16.307,15.832z"/>
	<path fill="#2C3962" d="M16.592,13.147c0.321,0.028,0.579,0.074,0.821,0.188c0.301,0.143,0.474,0.404,0.627,0.683
		c0.168,0.309,0.263,0.636,0.179,0.99c-0.021,0.095-0.07,0.187-0.123,0.27c-0.018,0.031-0.088,0.042-0.131,0.036
		c-0.018-0.002-0.038-0.072-0.038-0.112c-0.001-0.09,0.009-0.181,0.017-0.272c0.019-0.216-0.041-0.412-0.146-0.598
		c-0.141-0.25-0.301-0.483-0.52-0.672c-0.109-0.093-0.235-0.135-0.375-0.144c-0.174-0.008-0.348-0.017-0.521-0.039
		c-0.046-0.006-0.116-0.052-0.122-0.087c-0.007-0.047,0.029-0.125,0.068-0.147C16.425,13.191,16.537,13.167,16.592,13.147z"/>
</g>
</svg>
