<?xml version="1.0" encoding="utf-8"?>
<!-- Generator: Adobe Illustrator 16.0.0, SVG Export Plug-In . SVG Version: 6.00 Build 0)  -->
<!DOCTYPE svg PUBLIC "-//W3C//DTD SVG 1.1//EN" "http://www.w3.org/Graphics/SVG/1.1/DTD/svg11.dtd">
<svg version="1.1" id="Layer_1" xmlns="http://www.w3.org/2000/svg" xmlns:xlink="http://www.w3.org/1999/xlink" x="0px" y="0px"
	 width="30px" height="30px" viewBox="0 0 30 30" enable-background="new 0 0 30 30" xml:space="preserve">
<ellipse fill="#3D9ED8" stroke="#3D9ED8" stroke-miterlimit="10" cx="15" cy="15" rx="14.021" ry="14.123"/>
<path fill="#FFFFFF" stroke="#FFFFFF" stroke-miterlimit="10" d="M22.88,14.029v3.439c0,2.173-0.431,3.277-2.51,3.277H9.234
	c-2.079,0-2.509-1.104-2.509-3.277v-3.439c0-2.171,0.43-3.276,2.509-3.276h1.773v-0.645c0-1.019,0.202-1.539,1.179-1.539h5.234
	c0.977,0,1.178,0.52,1.178,1.539v0.645h1.772C22.449,10.753,22.88,11.858,22.88,14.029z M14.691,12.488
	c-1.774,0-3.211,1.446-3.211,3.235c0,1.785,1.437,3.234,3.211,3.234s3.211-1.449,3.211-3.234
	C17.902,13.934,16.465,12.488,14.691,12.488z"/>
<path fill="none" stroke="#FFFFFF" stroke-width="0.5" stroke-linecap="round" stroke-linejoin="round" stroke-miterlimit="10" d="
	M14.555,13.778c1-0.084,1.88,0.707,1.968,1.765"/>
</svg>
