<?xml version="1.0" encoding="utf-8"?>
<!-- Generator: Adobe Illustrator 16.0.0, SVG Export Plug-In . SVG Version: 6.00 Build 0)  -->
<!DOCTYPE svg PUBLIC "-//W3C//DTD SVG 1.1//EN" "http://www.w3.org/Graphics/SVG/1.1/DTD/svg11.dtd">
<svg version="1.1" id="Layer_1" xmlns="http://www.w3.org/2000/svg" xmlns:xlink="http://www.w3.org/1999/xlink" x="0px" y="0px"
	 width="30px" height="30px" viewBox="0 0 30 30" enable-background="new 0 0 30 30" xml:space="preserve">
<g>
	
		<image overflow="visible" opacity="0.25" width="165" height="165" xlink:href="A1F559B8158DD7.png"  transform="matrix(0.24 0 0 0.24 -2.1597 -2.1279)">
	</image>
	<g>
		<circle fill="none" stroke="#ECECEC" stroke-width="1.2" stroke-miterlimit="10" cx="15.125" cy="15.155" r="13.875"/>
	</g>
</g>
<g>
	
		<image overflow="visible" opacity="0.25" width="115" height="98" xlink:href="A1F559B8158DD2.png"  transform="matrix(0.24 0 0 0.24 3.6265 5.5278)">
	</image>
	<g>
		<path fill="#ECECEC" d="M22.922,14.201v3.378c0,2.133-0.427,3.219-2.483,3.219H9.419c-2.058,0-2.483-1.086-2.483-3.219v-3.378
			c0-2.133,0.425-3.218,2.483-3.218h1.754V10.35c0-1.001,0.2-1.513,1.167-1.513h5.179c0.968,0,1.167,0.511,1.167,1.513v0.633h1.753
			C22.495,10.983,22.922,12.068,22.922,14.201z M14.819,12.687c-1.755,0-3.177,1.421-3.177,3.177c0,1.754,1.422,3.178,3.177,3.178
			c1.754,0,3.177-1.424,3.177-3.178C17.996,14.107,16.573,12.687,14.819,12.687z"/>
		<path fill="none" stroke="#ECECEC" stroke-miterlimit="10" d="M22.922,14.201v3.378c0,2.133-0.427,3.219-2.483,3.219H9.419
			c-2.058,0-2.483-1.086-2.483-3.219v-3.378c0-2.133,0.425-3.218,2.483-3.218h1.754V10.35c0-1.001,0.2-1.513,1.167-1.513h5.179
			c0.968,0,1.167,0.511,1.167,1.513v0.633h1.753C22.495,10.983,22.922,12.068,22.922,14.201z M14.819,12.687
			c-1.755,0-3.177,1.421-3.177,3.177c0,1.754,1.422,3.178,3.177,3.178c1.754,0,3.177-1.424,3.177-3.178
			C17.996,14.107,16.573,12.687,14.819,12.687z"/>
	</g>
</g>
<g>
	
		<image overflow="visible" opacity="0.25" width="54" height="53" xlink:href="A1F559B8158DD1.png"  transform="matrix(0.24 0 0 0.24 11.5278 10.9976)">
	</image>
	<g>
		
			<path fill="none" stroke="#ECECEC" stroke-width="0.5" stroke-linecap="round" stroke-linejoin="round" stroke-miterlimit="10" d="
			M14.587,14.063c0.912-0.077,1.715,0.601,1.792,1.515"/>
	</g>
</g>
</svg>
