<?xml version="1.0" encoding="utf-8"?>
<!-- Generator: Adobe Illustrator 16.0.0, SVG Export Plug-In . SVG Version: 6.00 Build 0)  -->
<!DOCTYPE svg PUBLIC "-//W3C//DTD SVG 1.1//EN" "http://www.w3.org/Graphics/SVG/1.1/DTD/svg11.dtd">
<svg version="1.1" id="Layer_1" xmlns="http://www.w3.org/2000/svg" xmlns:xlink="http://www.w3.org/1999/xlink" x="0px" y="0px"
	 width="30px" height="30px" viewBox="0 0 30 30" enable-background="new 0 0 30 30" xml:space="preserve">
<g>
	
		<image overflow="visible" width="309" height="308" xlink:href="E2BBF1DC941B7E33.png"  transform="matrix(0.24 0 0 0.24 -20.8579 -22.626)">
	</image>
</g>
<g>
	<ellipse fill="#384777" cx="15.031" cy="14.872" rx="14.459" ry="14.616"/>
</g>
<g>
	<path fill-rule="evenodd" clip-rule="evenodd" fill="#FFFFFF" d="M11.973,9.909c0.354-0.212,0.651-0.519,0.853-0.938
		c0.16-0.334,0.291-0.558,0.602-0.73c0.521-0.288,1.118-0.295,1.688-0.422c1.601-0.357,3.979-0.376,4.869,1.268
		c0.182,0.333,0.263,0.706,0.324,1.077c0.031,0.188,0.008,0.899,0.297,0.566c0.284-0.329-0.11-0.43,0.504-0.388
		c0.463,0.031,0.929,0.064,1.392,0.106c0.148,0.013,0.289,0.063,0.405,0.157c0.138,0.109,0.164,0.3,0.278,0.405
		c0.271,0.249,0.742,0.02,1.051,0.205c0.271,0.163,0.405,0.5,0.394,0.831c-0.021,0.51-0.244,0.71-0.613,0.986
		c-0.218,0.162-0.519,0.53-0.58,0.803c-0.082,0.354,0.021,0.854,0.029,1.22c0.021,0.842,0.043,1.684,0.064,2.527
		c0.006,0.297-0.056,0.556-0.202,0.814c-0.271,0.476-0.543,0.95-0.739,1.464c-0.052,0.135-0.323,0.233-0.454,0.174
		c-0.051-0.022-0.054-0.058-0.027-0.106c0.132-0.249,0.262-0.5,0.391-0.749c0.187-0.358,0.373-0.715,0.556-1.074
		c0.06-0.117,0.01-0.185-0.122-0.179c-0.121,0.005-0.201,0.078-0.248,0.179c-0.149,0.323-0.295,0.647-0.44,0.973
		c-0.118,0.267-0.233,0.535-0.351,0.804c-0.049,0.108-0.214,0.168-0.32,0.113c-0.056-0.029-0.059-0.072-0.03-0.128
		c0.118-0.237,0.236-0.475,0.354-0.712c0.066-0.136,0.134-0.271,0.188-0.411c0.019-0.053,0.019-0.164,0.001-0.17
		c-0.068-0.021-0.152-0.032-0.218-0.009c-0.059,0.021-0.117,0.084-0.146,0.144c-0.138,0.286-0.275,0.573-0.398,0.867
		c-0.043,0.105-0.057,0.226-0.069,0.342c-0.01,0.091-0.05,0.149-0.138,0.156c-0.13,0.009-0.262,0.012-0.391,0.001
		c-0.109-0.008-0.124-0.058-0.055-0.143c0.152-0.187,0.306-0.374,0.458-0.561c0.005-0.006,0.009-0.012,0.013-0.018
		c0.04-0.068,0.107-0.147,0.049-0.22c-0.063-0.077-0.162-0.032-0.242-0.007c-0.043,0.013-0.086,0.044-0.116,0.076
		c-0.194,0.207-0.364,0.43-0.469,0.699c-0.069,0.179-0.279,0.259-0.446,0.171c-0.047-0.026-0.046-0.057-0.018-0.101
		c0.068-0.098,0.138-0.198,0.197-0.303c0.07-0.126,0.03-0.189-0.113-0.189c-0.13,0-0.239,0.036-0.295,0.175
		c-0.048,0.111-0.113,0.215-0.168,0.321c-0.04,0.075-0.095,0.109-0.182,0.112c-0.889,0.037-1.776,0.08-2.663,0.115
		c-0.93,0.035-1.861,0.064-2.792,0.099c-0.107,0.004-0.213,0.017-0.32,0.013c-0.103-0.003-0.114-0.038-0.068-0.134
		c0.05-0.099,0.095-0.2,0.138-0.301c0.008-0.022,0.009-0.069,0-0.074c-0.066-0.026-0.134-0.061-0.204-0.062
		c-0.04,0-0.096,0.045-0.12,0.085c-0.061,0.107-0.104,0.225-0.161,0.334c-0.052,0.104-0.142,0.16-0.259,0.157
		c-0.129-0.002-0.26,0.026-0.395-0.055c0.031-0.035,0.055-0.064,0.083-0.09c0.126-0.124,0.269-0.236,0.377-0.374
		c0.081-0.101,0.121-0.235,0.168-0.359c0.011-0.027-0.008-0.082-0.032-0.104c-0.019-0.018-0.069-0.013-0.099,0
		c-0.159,0.066-0.268,0.196-0.367,0.333c-0.103,0.141-0.209,0.28-0.304,0.426c-0.088,0.142-0.206,0.225-0.372,0.238
		c-0.096,0.01-0.192,0.023-0.288,0.029c-0.025,0.002-0.068-0.01-0.077-0.028c-0.008-0.021,0.005-0.059,0.022-0.081
		c0.096-0.132,0.197-0.264,0.299-0.391c0.22-0.272,0.442-0.541,0.66-0.813c0.03-0.039,0.072-0.104,0.059-0.135
		c-0.016-0.035-0.083-0.062-0.132-0.069c-0.129-0.019-0.242,0.027-0.316,0.132c-0.161,0.224-0.32,0.449-0.466,0.682
		c-0.104,0.167-0.194,0.345-0.281,0.522c-0.045,0.095-0.099,0.155-0.212,0.144c-0.069-0.006-0.139,0.001-0.21-0.002
		c-0.075-0.004-0.099-0.05-0.057-0.109c0.21-0.31,0.427-0.615,0.642-0.924c0.014-0.019,0.038-0.034,0.044-0.054
		c0.014-0.052,0.043-0.121,0.023-0.153c-0.04-0.061-0.124-0.086-0.188-0.038c-0.101,0.079-0.213,0.159-0.282,0.263
		c-0.176,0.267-0.33,0.547-0.492,0.821c-0.099,0.167-0.315,0.229-0.507,0.128c0.041-0.048,0.072-0.098,0.115-0.135
		c0.102-0.094,0.211-0.177,0.308-0.273c0.032-0.031,0.063-0.103,0.049-0.133c-0.028-0.064-0.098-0.082-0.172-0.061
		c-0.195,0.055-0.324,0.188-0.422,0.36c-0.186,0.33-0.135,0.286-0.5,0.278c-0.744-0.014-1.488-0.03-2.232-0.053
		c-0.31-0.01-0.618-0.043-0.915-0.147c-0.353-0.126-0.549-0.387-0.649-0.737c-0.16-0.555-0.208-1.125-0.239-1.698
		c-0.083-1.519-0.042-3.036,0.008-4.554c0.019-0.562,0.058-1.125,0.118-1.686c0.058-0.546,0.309-0.98,0.854-1.161
		c0.272-0.091,0.564-0.136,0.85-0.179c0.447-0.066,0.898-0.061,1.346-0.001c0.305,0.041,0.609,0.082,0.909,0.141
		C10.419,10.375,11.298,10.314,11.973,9.909z M10.333,18.311c-0.029-0.239-0.063-0.463-0.083-0.688
		c-0.053-0.59-0.121-1.182-0.146-1.774c-0.042-1.041-0.056-2.084-0.09-3.126c-0.012-0.37-0.043-0.741-0.159-1.097
		c-0.032-0.103-0.089-0.203-0.158-0.286c-0.062-0.076-0.122-0.051-0.128,0.048c-0.01,0.14-0.01,0.283-0.005,0.423
		c0.027,0.617,0.063,1.233,0.083,1.851c0.023,0.73,0.028,1.463,0.053,2.195c0.01,0.268,0.05,0.537,0.075,0.805
		c0.042,0.467,0.076,0.935,0.127,1.399c0.019,0.183,0.08,0.355,0.223,0.485c0.071,0.065,0.138,0.049,0.168-0.042
		C10.314,18.439,10.321,18.367,10.333,18.311z M22.361,12.798c0.016,0.087,0.021,0.157,0.041,0.219
		c0.013,0.036,0.049,0.079,0.082,0.088c0.026,0.007,0.083-0.028,0.093-0.057c0.063-0.175,0.123-0.353,0.169-0.533
		c0.009-0.04-0.037-0.118-0.076-0.135s-0.105,0.01-0.151,0.035c-0.035,0.019-0.065,0.062-0.079,0.102
		C22.406,12.613,22.385,12.715,22.361,12.798z"/>
	<path fill-rule="evenodd" clip-rule="evenodd" fill="#2C3962" d="M24.711,11.763c-0.016-0.151-0.045-0.3-0.072-0.449
		c-0.03-0.17-0.099-0.239-0.267-0.264c-0.134-0.02-0.266-0.035-0.398-0.04c-0.203-0.008-0.203-0.003-0.266-0.197
		c-0.01-0.032-0.021-0.063-0.029-0.096c-0.098-0.375-0.322-0.638-0.698-0.727c-0.21-0.051-0.431-0.066-0.646-0.07
		c-0.577-0.011-1.154-0.007-1.732-0.006c-0.072,0-0.109-0.016-0.137-0.095c-0.125-0.357-0.261-0.712-0.391-1.069
		c-0.151-0.422-0.38-0.785-0.761-1.035c-0.207-0.135-0.413-0.28-0.666-0.309c-0.404-0.044-0.81-0.089-1.215-0.108
		c-1.269-0.06-2.527,0.029-3.771,0.309c-0.296,0.067-0.542,0.193-0.686,0.48c-0.207,0.412-0.421,0.818-0.634,1.225
		c-0.019,0.037-0.047,0.08-0.083,0.094c-0.153,0.066-0.304,0.147-0.464,0.177c-0.358,0.068-0.719,0.114-1.08,0.156
		C10.281,9.791,9.86,9.7,9.445,9.577c-0.067-0.02-0.102-0.06-0.112-0.136C9.315,9.315,9.288,9.189,9.255,9.067
		c-0.068-0.25-0.304-0.463-0.536-0.485C8.083,8.52,7.445,8.503,6.81,8.576C6.526,8.608,6.289,8.737,6.103,8.954
		c-0.025,0.028-0.05,0.067-0.055,0.104c-0.032,0.23-0.06,0.461-0.083,0.691C5.957,9.818,5.942,9.873,5.876,9.905
		c-0.227,0.111-0.409,0.28-0.528,0.494c-0.118,0.212-0.275,0.264-0.493,0.234c-0.152-0.021-0.203,0.014-0.248,0.158
		c-0.041,0.134-0.062,0.275-0.093,0.413c-0.087,0.38-0.175,0.76-0.26,1.142c-0.026,0.114,0.003,0.224,0.102,0.284
		c0.126,0.078,0.261,0.147,0.402,0.196c0.162,0.057,0.17,0.045,0.164,0.221C4.9,13.68,4.866,14.313,4.851,14.947
		c-0.027,1.188-0.011,2.375,0.118,3.559c0.051,0.483,0.143,0.957,0.322,1.413c0.174,0.443,0.478,0.713,0.953,0.765
		c0.398,0.043,0.797,0.096,1.196,0.109c1.279,0.039,2.556,0.082,3.834,0.089c1.271,0.007,2.545-0.028,3.815-0.045v-0.022
		c0.41-0.018,0.821-0.034,1.231-0.048c1.278-0.042,2.555-0.091,3.834-0.119c0.861-0.018,1.723,0,2.583-0.009
		c0.154,0,0.323-0.018,0.455-0.086c0.26-0.133,0.505-0.3,0.745-0.465c0.053-0.036,0.087-0.119,0.1-0.187
		c0.022-0.113,0.026-0.233,0.027-0.352c0.015-1.208,0.038-2.416,0.036-3.623c-0.004-0.878-0.04-1.755-0.062-2.632
		c-0.002-0.085,0.004-0.129,0.111-0.118c0.169,0.018,0.312-0.047,0.425-0.18c0.12-0.138,0.183-0.304,0.183-0.48
		C24.758,12.267,24.732,12.014,24.711,11.763z M4.986,11.452c-0.028,0.326-0.055,0.651-0.085,0.976
		c-0.004,0.04-0.029,0.078-0.045,0.116c-0.041-0.018-0.088-0.027-0.122-0.056c-0.125-0.102-0.125-0.161-0.065-0.311
		c0.046-0.114,0.071-0.238,0.091-0.36c0.034-0.206,0.056-0.414,0.084-0.621c0.007-0.041,0.022-0.084,0.042-0.12
		c0.013-0.021,0.047-0.03,0.071-0.044c0.015,0.025,0.04,0.051,0.04,0.076c0.004,0.114,0.002,0.229,0.002,0.343
		C4.996,11.452,4.991,11.452,4.986,11.452z M6.579,9.433c0.215-0.019,0.432-0.018,0.646-0.048c0.132-0.019,0.26-0.079,0.388-0.125
		c0.031-0.01,0.062-0.031,0.081-0.056c0.02-0.026,0.039-0.065,0.033-0.095C7.725,9.092,7.676,9.07,7.648,9.072
		C7.516,9.082,7.382,9.106,7.251,9.111C7.11,9.116,6.972,9.106,6.833,9.098C6.81,9.097,6.773,9.07,6.773,9.057
		c0-0.024,0.018-0.062,0.04-0.07C6.879,8.958,6.949,8.922,7.02,8.921c0.416-0.012,0.833-0.025,1.25-0.013
		C8.431,8.912,8.593,8.973,8.75,9.022C8.838,9.051,8.892,9.13,8.909,9.229C8.934,9.373,8.854,9.473,8.71,9.474
		c-0.24,0-0.48,0-0.72,0c-0.001-0.01-0.002-0.018-0.002-0.026C7.648,9.468,7.31,9.485,6.97,9.511
		c-0.098,0.008-0.195,0.04-0.293,0.06C6.645,9.578,6.605,9.599,6.581,9.586C6.543,9.565,6.518,9.525,6.485,9.492
		C6.516,9.471,6.545,9.435,6.579,9.433z M22.587,19.859c-0.052,0.135-0.323,0.233-0.454,0.174c-0.051-0.022-0.054-0.058-0.027-0.106
		c0.132-0.249,0.262-0.5,0.391-0.749c0.187-0.358,0.373-0.715,0.556-1.074c0.06-0.117,0.01-0.185-0.122-0.179
		c-0.121,0.005-0.201,0.078-0.248,0.179c-0.149,0.323-0.295,0.647-0.44,0.973c-0.118,0.267-0.233,0.535-0.351,0.804
		c-0.049,0.108-0.214,0.168-0.32,0.113c-0.056-0.029-0.059-0.072-0.03-0.128c0.118-0.237,0.236-0.475,0.354-0.712
		c0.066-0.136,0.134-0.271,0.188-0.411c0.019-0.053,0.019-0.164,0.001-0.17c-0.068-0.021-0.152-0.032-0.218-0.009
		c-0.059,0.021-0.117,0.084-0.146,0.144c-0.138,0.286-0.275,0.573-0.398,0.867c-0.043,0.105-0.057,0.226-0.069,0.342
		c-0.01,0.091-0.05,0.149-0.138,0.156c-0.13,0.009-0.262,0.012-0.391,0.001c-0.109-0.008-0.124-0.058-0.055-0.143
		c0.152-0.187,0.306-0.374,0.458-0.561c0.005-0.006,0.009-0.012,0.013-0.018c0.04-0.068,0.107-0.147,0.049-0.22
		c-0.063-0.077-0.162-0.032-0.242-0.007c-0.043,0.013-0.086,0.044-0.116,0.076c-0.194,0.207-0.364,0.43-0.469,0.699
		c-0.069,0.179-0.279,0.259-0.446,0.171c-0.047-0.026-0.046-0.057-0.018-0.101c0.068-0.098,0.138-0.198,0.197-0.303
		c0.07-0.126,0.03-0.189-0.113-0.189c-0.13,0-0.239,0.036-0.295,0.175c-0.048,0.111-0.113,0.215-0.168,0.321
		c-0.04,0.075-0.095,0.109-0.182,0.112c-0.889,0.037-1.776,0.08-2.663,0.115c-0.93,0.035-1.861,0.064-2.792,0.099
		c-0.107,0.004-0.213,0.017-0.32,0.013c-0.103-0.003-0.114-0.038-0.068-0.134c0.05-0.099,0.095-0.2,0.138-0.301
		c0.008-0.022,0.009-0.069,0-0.074c-0.066-0.026-0.134-0.061-0.204-0.062c-0.04,0-0.096,0.045-0.12,0.085
		c-0.061,0.107-0.104,0.225-0.161,0.334c-0.052,0.104-0.142,0.16-0.259,0.157c-0.129-0.002-0.26,0.026-0.395-0.055
		c0.031-0.035,0.055-0.064,0.083-0.09c0.126-0.124,0.269-0.236,0.377-0.374c0.081-0.101,0.121-0.235,0.168-0.359
		c0.011-0.027-0.008-0.082-0.032-0.104c-0.019-0.018-0.069-0.013-0.099,0c-0.159,0.066-0.268,0.196-0.367,0.333
		c-0.103,0.141-0.209,0.28-0.304,0.426c-0.088,0.142-0.206,0.225-0.372,0.238c-0.096,0.01-0.192,0.023-0.288,0.029
		c-0.025,0.002-0.068-0.01-0.077-0.028c-0.008-0.021,0.005-0.059,0.022-0.081c0.096-0.132,0.197-0.264,0.299-0.391
		c0.22-0.272,0.442-0.541,0.66-0.813c0.03-0.039,0.072-0.104,0.059-0.135c-0.016-0.035-0.083-0.062-0.132-0.069
		c-0.129-0.019-0.242,0.027-0.316,0.132c-0.161,0.224-0.32,0.449-0.466,0.682c-0.104,0.167-0.194,0.345-0.281,0.522
		c-0.045,0.095-0.099,0.155-0.212,0.144c-0.069-0.006-0.139,0.001-0.21-0.002c-0.075-0.004-0.099-0.05-0.057-0.109
		c0.21-0.31,0.427-0.615,0.642-0.924c0.014-0.019,0.038-0.034,0.044-0.054c0.014-0.052,0.043-0.121,0.023-0.153
		c-0.04-0.061-0.124-0.086-0.188-0.038c-0.101,0.079-0.213,0.159-0.282,0.263c-0.176,0.267-0.33,0.547-0.492,0.821
		c-0.099,0.167-0.315,0.229-0.507,0.128c0.041-0.048,0.072-0.098,0.115-0.135c0.102-0.094,0.211-0.177,0.308-0.273
		c0.032-0.031,0.063-0.103,0.049-0.133c-0.028-0.064-0.098-0.082-0.172-0.061c-0.195,0.055-0.324,0.188-0.422,0.36
		c-0.186,0.33-0.135,0.286-0.5,0.278c-0.744-0.014-1.488-0.03-2.232-0.053c-0.31-0.01-0.618-0.043-0.915-0.147
		c-0.353-0.126-0.549-0.387-0.649-0.737c-0.16-0.555-0.208-1.125-0.239-1.698c-0.083-1.519-0.042-3.036,0.008-4.554
		c0.019-0.562,0.058-1.125,0.118-1.686c0.058-0.546,0.309-0.98,0.854-1.161c0.272-0.091,0.564-0.136,0.85-0.179
		c0.447-0.066,0.898-0.061,1.346-0.001c0.305,0.041,0.609,0.082,0.909,0.141c0.697,0.136,1.38,0.119,2.051-0.131
		c0.276-0.102,0.575-0.123,0.852-0.227c0.415-0.157,0.412-0.377,0.585-0.748c0.101-0.219,0.206-0.451,0.365-0.636
		c0.158-0.18,0.332-0.208,0.547-0.292c0.456-0.176,0.921-0.289,1.412-0.289c0.819,0,1.641-0.016,2.457,0.059
		c0.708,0.064,1.261,0.261,1.654,0.9c0.078,0.123,0.145,0.261,0.201,0.393c0.118,0.281,0.22,0.569,0.268,0.87
		c0.052,0.333,0.205,0.657,0.226,0.994c0.014,0.197-0.045,0.604,0.312,0.492c0.061-0.019,0.119-0.047,0.17-0.082
		c0.142-0.097,0.162-0.185,0.114-0.389c-0.052-0.219-0.1-0.439-0.145-0.66c-0.029-0.145-0.016-0.164,0.128-0.153
		c0.562,0.039,1.125,0.076,1.687,0.127c0.374,0.033,0.582,0.277,0.703,0.617c0.138,0.392,0.18,0.803,0.191,1.214
		c0.049,1.767,0.084,3.535,0.134,5.302c0.006,0.297-0.056,0.556-0.202,0.814C23.055,18.871,22.783,19.346,22.587,19.859z
		 M22.946,19.953c-0.105,0.029-0.146-0.006-0.112-0.108c0.033-0.098,0.075-0.194,0.125-0.284c0.117-0.195,0.239-0.388,0.361-0.579
		c0.038-0.058,0.086-0.107,0.145-0.175c0.021,0.041,0.035,0.06,0.042,0.081C23.647,19.336,23.389,19.829,22.946,19.953z
		 M24.405,12.187c0,0.128,0.005,0.256-0.002,0.384c-0.006,0.133-0.182,0.277-0.31,0.255c-0.021-0.004-0.051-0.049-0.055-0.078
		c-0.026-0.216-0.043-0.436-0.072-0.653c-0.03-0.22-0.065-0.439-0.104-0.658c-0.026-0.142-0.004-0.171,0.139-0.162
		c0.05,0.004,0.102,0.008,0.149,0.019c0.143,0.029,0.212,0.109,0.224,0.256c0.014,0.212,0.025,0.424,0.039,0.636H24.405z"/>
	<path fill-rule="evenodd" clip-rule="evenodd" fill="#FFFFFF" d="M7.988,9.448C7.648,9.468,7.31,9.485,6.97,9.511
		c-0.098,0.008-0.195,0.04-0.293,0.06C6.645,9.578,6.605,9.599,6.581,9.586C6.543,9.565,6.518,9.525,6.485,9.492
		c0.03-0.021,0.06-0.057,0.093-0.06c0.215-0.019,0.432-0.018,0.646-0.048c0.132-0.019,0.26-0.079,0.388-0.125
		c0.031-0.01,0.062-0.031,0.081-0.056c0.02-0.026,0.039-0.065,0.033-0.095C7.725,9.092,7.676,9.07,7.648,9.072
		C7.516,9.082,7.382,9.106,7.251,9.111C7.11,9.116,6.972,9.106,6.833,9.098C6.81,9.097,6.773,9.07,6.773,9.057
		c0-0.024,0.018-0.062,0.04-0.07C6.879,8.958,6.949,8.922,7.02,8.921c0.416-0.012,0.833-0.025,1.25-0.013
		C8.431,8.912,8.593,8.973,8.75,9.022C8.838,9.051,8.892,9.13,8.909,9.229C8.934,9.373,8.854,9.473,8.71,9.474
		c-0.24,0-0.48,0-0.72,0C7.988,9.464,7.988,9.456,7.988,9.448z"/>
	<path fill-rule="evenodd" clip-rule="evenodd" fill="#FFFFFF" d="M19.089,12.187c0,0.128,0.007,0.256-0.001,0.384
		c-0.006,0.133-0.181,0.277-0.309,0.255c-0.023-0.004-0.051-0.049-0.055-0.078c-0.027-0.216-0.045-0.436-0.073-0.653
		c-0.031-0.22-0.065-0.439-0.105-0.658c-0.023-0.142-0.003-0.171,0.141-0.162c0.05,0.004,0.101,0.008,0.148,0.019
		c0.142,0.029,0.213,0.109,0.223,0.256c0.015,0.212,0.027,0.424,0.041,0.636C19.096,12.187,19.094,12.187,19.089,12.187z"/>
	<path fill-rule="evenodd" clip-rule="evenodd" fill="#FFFFFF" d="M23.465,18.807c0.021,0.041,0.035,0.06,0.042,0.081
		c0.141,0.448-0.118,0.941-0.561,1.065c-0.105,0.029-0.146-0.006-0.112-0.108c0.033-0.098,0.075-0.194,0.125-0.284
		c0.117-0.195,0.239-0.388,0.361-0.579C23.358,18.924,23.406,18.874,23.465,18.807z"/>
	<path fill-rule="evenodd" clip-rule="evenodd" fill="#FFFFFF" d="M4.986,11.452c-0.028,0.326-0.055,0.651-0.085,0.976
		c-0.004,0.04-0.029,0.078-0.045,0.116c-0.041-0.018-0.088-0.027-0.122-0.056c-0.125-0.102-0.125-0.161-0.065-0.311
		c0.046-0.114,0.071-0.238,0.091-0.36c0.034-0.206,0.056-0.414,0.084-0.621c0.007-0.041,0.022-0.084,0.042-0.12
		c0.013-0.021,0.047-0.03,0.071-0.044c0.015,0.025,0.04,0.051,0.04,0.076c0.004,0.114,0.002,0.229,0.002,0.343
		C4.996,11.452,4.991,11.452,4.986,11.452z"/>
	<path fill-rule="evenodd" clip-rule="evenodd" fill="#2C3962" d="M16.336,19.768c-0.49,0.007-0.975-0.04-1.453-0.139
		c-1.119-0.229-1.971-0.852-2.576-1.824c-0.287-0.461-0.464-0.963-0.576-1.496c-0.121-0.576-0.204-1.156-0.188-1.745
		c0.024-0.96,0.289-1.845,0.847-2.629c0.357-0.502,0.833-0.86,1.379-1.124c0.341-0.164,0.689-0.322,1.039-0.462
		c0.278-0.11,0.579-0.133,0.876-0.144c0.413-0.015,0.83-0.046,1.239,0.04c0.37,0.078,0.741,0.168,1.102,0.285
		c0.539,0.175,1.053,0.417,1.515,0.757c0.663,0.486,1.12,1.123,1.384,1.907c0.206,0.625,0.228,1.266,0.165,1.911
		c-0.038,0.384-0.098,0.767-0.172,1.147c-0.117,0.594-0.346,1.142-0.697,1.637c-0.267,0.37-0.542,0.729-0.891,1.023
		c-0.409,0.346-0.877,0.565-1.395,0.688C17.407,19.723,16.874,19.767,16.336,19.768z M16.438,19.106
		c0.19-0.011,0.455-0.019,0.717-0.049c0.244-0.027,0.491-0.057,0.727-0.124c0.675-0.195,1.202-0.61,1.634-1.161
		c0.436-0.551,0.686-1.185,0.807-1.876c0.117-0.649,0.188-1.299,0.119-1.96c-0.05-0.479-0.198-0.92-0.475-1.313
		c-0.633-0.9-1.529-1.366-2.575-1.572c-0.379-0.075-0.763-0.13-1.145-0.188c-0.312-0.047-0.618-0.068-0.924,0.052
		c-0.316,0.123-0.641,0.204-0.984,0.211c-0.117,0.003-0.24,0.056-0.345,0.114c-0.702,0.388-1.144,1.004-1.453,1.731
		c-0.191,0.452-0.299,0.926-0.342,1.416c-0.052,0.607-0.018,1.209,0.157,1.792c0.159,0.531,0.403,1.026,0.717,1.481
		c0.402,0.589,0.94,0.998,1.624,1.213C15.24,19.043,15.798,19.096,16.438,19.106z"/>
	<path fill-rule="evenodd" clip-rule="evenodd" fill="#384777" d="M10.333,18.311c-0.012,0.057-0.019,0.129-0.04,0.195
		c-0.03,0.091-0.097,0.107-0.168,0.042c-0.143-0.13-0.204-0.303-0.223-0.485c-0.051-0.465-0.085-0.933-0.127-1.399
		C9.75,16.395,9.71,16.126,9.7,15.858c-0.025-0.732-0.03-1.465-0.053-2.195c-0.02-0.617-0.056-1.233-0.083-1.851
		c-0.005-0.141-0.005-0.283,0.005-0.423c0.006-0.1,0.066-0.124,0.128-0.048c0.068,0.083,0.125,0.183,0.158,0.286
		c0.116,0.356,0.147,0.727,0.159,1.097c0.034,1.042,0.048,2.085,0.09,3.126c0.025,0.592,0.093,1.184,0.146,1.774
		C10.27,17.848,10.304,18.071,10.333,18.311z"/>
	<path fill-rule="evenodd" clip-rule="evenodd" fill="#384777" d="M22.361,12.798c0.023-0.083,0.045-0.185,0.078-0.281
		c0.014-0.04,0.044-0.083,0.079-0.102c0.046-0.025,0.112-0.052,0.151-0.035s0.085,0.096,0.076,0.135
		c-0.046,0.18-0.105,0.357-0.169,0.533c-0.01,0.029-0.066,0.063-0.093,0.057c-0.033-0.009-0.069-0.052-0.082-0.088
		C22.382,12.955,22.377,12.886,22.361,12.798z"/>
	<path fill-rule="evenodd" clip-rule="evenodd" fill="#FFFFFF" d="M16.438,19.106c-0.639-0.011-1.197-0.063-1.741-0.233
		c-0.683-0.215-1.221-0.624-1.624-1.213c-0.314-0.455-0.558-0.95-0.717-1.481c-0.175-0.583-0.209-1.185-0.157-1.792
		c0.043-0.489,0.151-0.964,0.342-1.416c0.309-0.727,0.75-1.343,1.453-1.731c0.104-0.058,0.228-0.111,0.345-0.114
		c0.343-0.007,0.668-0.088,0.984-0.211c0.306-0.12,0.612-0.099,0.924-0.052c0.382,0.058,0.766,0.113,1.145,0.188
		c1.046,0.206,1.942,0.671,2.575,1.572c0.276,0.393,0.425,0.834,0.475,1.313c0.068,0.661-0.002,1.311-0.119,1.96
		c-0.121,0.692-0.371,1.326-0.807,1.876c-0.432,0.551-0.959,0.966-1.634,1.161c-0.235,0.067-0.482,0.097-0.727,0.124
		C16.893,19.088,16.628,19.096,16.438,19.106z M16.353,17.647c0.779-0.013,1.433-0.235,1.98-0.731
		c0.414-0.376,0.68-0.852,0.855-1.381c0.075-0.235,0.13-0.478,0.104-0.726c-0.029-0.287-0.12-0.559-0.239-0.819
		c-0.291-0.621-0.758-1.085-1.301-1.48c-0.357-0.262-0.741-0.403-1.19-0.295c-0.133,0.031-0.267,0.005-0.398-0.047
		c-0.127-0.052-0.271-0.089-0.407-0.085c-0.34,0.009-0.656,0.116-0.932,0.321c-0.383,0.283-0.646,0.67-0.882,1.074
		c-0.264,0.447-0.384,0.946-0.428,1.46c-0.074,0.845,0.207,1.554,0.891,2.056C14.995,17.423,15.677,17.614,16.353,17.647z"/>
	<path fill-rule="evenodd" clip-rule="evenodd" fill="#2C3962" d="M16.353,17.647c-0.675-0.033-1.357-0.225-1.947-0.655
		c-0.684-0.502-0.964-1.211-0.891-2.056c0.044-0.514,0.165-1.013,0.428-1.46c0.236-0.404,0.5-0.791,0.882-1.074
		c0.276-0.205,0.592-0.312,0.932-0.321c0.136-0.004,0.28,0.034,0.407,0.085c0.132,0.053,0.266,0.078,0.398,0.047
		c0.449-0.107,0.833,0.034,1.19,0.295c0.543,0.396,1.01,0.86,1.301,1.48c0.119,0.26,0.21,0.532,0.239,0.819
		c0.025,0.249-0.029,0.491-0.104,0.726c-0.176,0.529-0.441,1.005-0.855,1.381C17.785,17.412,17.132,17.635,16.353,17.647z
		 M13.854,15.092c-0.01,0.221,0.052,0.424,0.13,0.621c0.21,0.546,0.551,0.979,1.083,1.227c0.614,0.284,1.254,0.366,1.921,0.235
		c0.582-0.113,1.037-0.405,1.35-0.917c0.213-0.347,0.358-0.721,0.446-1.118c0.064-0.294,0.052-0.588-0.056-0.875
		c-0.189-0.508-0.534-0.902-0.928-1.258c-0.271-0.245-0.59-0.38-0.954-0.381c-0.232-0.001-0.466,0.016-0.698,0.033
		c-0.138,0.01-0.22-0.029-0.244-0.134c-0.031-0.143-0.12-0.197-0.253-0.131c-0.357,0.179-0.714,0.365-0.997,0.66
		C14.111,13.621,13.943,14.341,13.854,15.092z"/>
	<path fill-rule="evenodd" clip-rule="evenodd" fill="#2C3962" d="M16.307,15.832c-0.093-0.021-0.272-0.061-0.456-0.103
		c-0.089-0.022-0.183-0.041-0.267-0.075c-0.324-0.131-0.425-0.381-0.304-0.723c0.152-0.432,0.44-0.724,0.868-0.87
		c0.292-0.1,0.563-0.049,0.79,0.167c0.21,0.199,0.364,0.438,0.437,0.724c0.034,0.129,0.019,0.251-0.058,0.367
		C17.125,15.608,16.711,15.845,16.307,15.832z"/>
	<path fill-rule="evenodd" clip-rule="evenodd" fill="#2C3962" d="M16.592,13.147c0.321,0.028,0.579,0.074,0.821,0.188
		c0.301,0.143,0.474,0.404,0.627,0.683c0.168,0.309,0.263,0.636,0.179,0.99c-0.022,0.095-0.07,0.187-0.123,0.27
		c-0.018,0.031-0.088,0.042-0.131,0.036c-0.018-0.002-0.038-0.072-0.038-0.112c-0.001-0.09,0.008-0.181,0.016-0.272
		c0.019-0.216-0.041-0.412-0.146-0.598c-0.141-0.25-0.301-0.483-0.52-0.672c-0.109-0.093-0.235-0.135-0.375-0.144
		c-0.173-0.008-0.348-0.017-0.52-0.039c-0.046-0.006-0.117-0.052-0.122-0.087c-0.007-0.047,0.029-0.125,0.068-0.147
		C16.425,13.191,16.537,13.167,16.592,13.147z"/>
</g>
</svg>
