<?xml version="1.0" encoding="utf-8"?>
<!-- Generator: Adobe Illustrator 16.0.0, SVG Export Plug-In . SVG Version: 6.00 Build 0)  -->
<!DOCTYPE svg PUBLIC "-//W3C//DTD SVG 1.1//EN" "http://www.w3.org/Graphics/SVG/1.1/DTD/svg11.dtd">
<svg version="1.1" id="Layer_1" xmlns="http://www.w3.org/2000/svg" xmlns:xlink="http://www.w3.org/1999/xlink" x="0px" y="0px"
	 width="30px" height="30px" viewBox="0 0 30 30" enable-background="new 0 0 30 30" xml:space="preserve">
<g>
</g>
<path fill="#374776" d="M15.004,0.339c8,0,14.487,6.505,14.487,14.528c0,8.021-6.486,14.527-14.487,14.527
	S0.516,22.889,0.516,14.867C0.517,6.844,7.003,0.339,15.004,0.339"/>
<g>
	<path fill="none" d="M11.939,9.934C12.293,9.722,12.592,9.418,12.794,9c0.16-0.332,0.291-0.554,0.604-0.725
		c0.521-0.286,1.119-0.294,1.689-0.419c1.604-0.356,3.986-0.375,4.879,1.26c0.181,0.331,0.263,0.701,0.324,1.07
		c0.032,0.186,0.008,0.894,0.298,0.562c0.284-0.327-0.111-0.427,0.505-0.386c0.464,0.031,0.929,0.064,1.394,0.106
		c0.149,0.013,0.289,0.062,0.406,0.156c0.139,0.109,0.164,0.298,0.278,0.403c0.271,0.247,0.744,0.019,1.054,0.204
		c0.272,0.161,0.405,0.496,0.395,0.826c-0.021,0.507-0.243,0.705-0.614,0.979c-0.219,0.161-0.519,0.526-0.581,0.798
		c-0.084,0.352,0.02,0.849,0.028,1.213c0.021,0.837,0.044,1.674,0.063,2.512c0.008,0.295-0.055,0.553-0.201,0.81
		c-0.271,0.473-0.545,0.944-0.739,1.454c-0.052,0.135-0.324,0.23-0.456,0.174c-0.051-0.021-0.053-0.059-0.027-0.105
		c0.133-0.248,0.264-0.496,0.393-0.746c0.187-0.354,0.375-0.707,0.557-1.065c0.061-0.116,0.01-0.185-0.122-0.179
		c-0.121,0.006-0.201,0.078-0.25,0.179c-0.147,0.319-0.295,0.644-0.438,0.967c-0.119,0.265-0.234,0.531-0.352,0.798
		c-0.049,0.108-0.216,0.167-0.322,0.112c-0.055-0.028-0.059-0.07-0.031-0.126c0.121-0.236,0.238-0.473,0.355-0.708
		c0.066-0.134,0.135-0.271,0.188-0.408c0.02-0.053,0.02-0.162,0.002-0.169c-0.068-0.021-0.152-0.031-0.219-0.009
		c-0.059,0.021-0.117,0.083-0.146,0.144c-0.139,0.283-0.273,0.569-0.398,0.861c-0.043,0.105-0.058,0.225-0.068,0.34
		c-0.012,0.09-0.051,0.148-0.139,0.154c-0.131,0.009-0.264,0.012-0.392,0.001c-0.11-0.007-0.125-0.058-0.056-0.142
		c0.152-0.186,0.307-0.371,0.459-0.557c0.004-0.008,0.008-0.012,0.013-0.02c0.041-0.067,0.108-0.146,0.049-0.219
		c-0.062-0.076-0.163-0.031-0.241-0.006c-0.043,0.014-0.088,0.042-0.117,0.075c-0.193,0.205-0.363,0.427-0.469,0.694
		c-0.07,0.178-0.281,0.258-0.447,0.17c-0.047-0.025-0.047-0.057-0.018-0.1c0.068-0.098,0.137-0.199,0.197-0.302
		c0.068-0.126,0.029-0.188-0.113-0.188c-0.131,0.002-0.24,0.037-0.296,0.175c-0.048,0.11-0.112,0.214-0.168,0.317
		c-0.04,0.078-0.097,0.11-0.185,0.113c-0.891,0.035-1.778,0.079-2.666,0.113c-0.934,0.036-1.865,0.064-2.797,0.097
		c-0.108,0.007-0.214,0.019-0.322,0.015c-0.104-0.004-0.114-0.037-0.068-0.133c0.05-0.099,0.096-0.199,0.138-0.3
		c0.008-0.021,0.01-0.067,0-0.073c-0.065-0.025-0.133-0.06-0.203-0.061c-0.04,0-0.097,0.044-0.121,0.084
		c-0.062,0.105-0.105,0.225-0.162,0.332c-0.052,0.104-0.141,0.158-0.259,0.156c-0.13-0.004-0.261,0.025-0.396-0.055
		c0.03-0.035,0.055-0.063,0.082-0.089c0.127-0.122,0.27-0.235,0.379-0.372c0.08-0.101,0.12-0.234,0.168-0.356
		c0.011-0.027-0.008-0.081-0.032-0.104c-0.02-0.018-0.07-0.013-0.099,0c-0.159,0.066-0.268,0.194-0.368,0.331
		c-0.103,0.14-0.209,0.278-0.304,0.423c-0.089,0.143-0.207,0.225-0.373,0.236c-0.096,0.012-0.192,0.023-0.289,0.031
		c-0.024,0.001-0.068-0.012-0.076-0.029c-0.008-0.021,0.005-0.059,0.022-0.081c0.096-0.131,0.198-0.263,0.3-0.389
		c0.22-0.271,0.443-0.537,0.661-0.808c0.03-0.039,0.072-0.104,0.059-0.135c-0.017-0.035-0.083-0.062-0.132-0.068
		c-0.129-0.021-0.243,0.025-0.317,0.131c-0.162,0.222-0.321,0.445-0.468,0.677c-0.104,0.167-0.193,0.343-0.281,0.521
		c-0.045,0.094-0.099,0.154-0.212,0.144c-0.069-0.007-0.14,0.001-0.21-0.002c-0.075-0.005-0.099-0.05-0.058-0.108
		c0.211-0.308,0.428-0.611,0.643-0.919c0.015-0.018,0.038-0.032,0.045-0.053c0.013-0.054,0.043-0.119,0.022-0.151
		c-0.04-0.062-0.124-0.088-0.187-0.039c-0.102,0.079-0.213,0.158-0.283,0.262c-0.176,0.266-0.33,0.543-0.493,0.814
		c-0.099,0.166-0.316,0.229-0.507,0.128c0.04-0.047,0.072-0.097,0.115-0.134c0.102-0.092,0.211-0.176,0.309-0.271
		c0.033-0.03,0.064-0.102,0.048-0.131c-0.028-0.064-0.097-0.082-0.172-0.062c-0.196,0.057-0.324,0.188-0.423,0.359
		c-0.186,0.326-0.134,0.282-0.501,0.275c-0.746-0.014-1.49-0.029-2.237-0.052c-0.31-0.011-0.619-0.042-0.916-0.147
		c-0.354-0.125-0.55-0.384-0.65-0.731c-0.161-0.552-0.209-1.118-0.24-1.688c-0.082-1.511-0.043-3.018,0.007-4.527
		c0.019-0.559,0.058-1.119,0.119-1.675c0.058-0.542,0.31-0.974,0.856-1.154c0.273-0.09,0.565-0.135,0.852-0.177
		c0.448-0.067,0.899-0.061,1.349-0.002c0.306,0.04,0.61,0.082,0.911,0.14C10.383,10.397,11.264,10.337,11.939,9.934z M10.297,18.285
		c-0.029-0.238-0.063-0.461-0.083-0.684c-0.053-0.588-0.121-1.176-0.146-1.764c-0.044-1.035-0.057-2.072-0.091-3.107
		c-0.013-0.368-0.044-0.736-0.16-1.091c-0.032-0.101-0.089-0.202-0.159-0.284c-0.062-0.075-0.121-0.05-0.128,0.048
		c-0.01,0.14-0.01,0.281-0.004,0.421c0.026,0.614,0.062,1.226,0.083,1.839c0.023,0.726,0.028,1.455,0.053,2.184
		c0.011,0.266,0.051,0.533,0.076,0.799c0.042,0.463,0.076,0.93,0.126,1.392c0.019,0.181,0.081,0.354,0.223,0.481
		c0.072,0.064,0.139,0.049,0.168-0.041C10.277,18.413,10.285,18.34,10.297,18.285z M22.35,12.806
		c0.015,0.087,0.02,0.156,0.041,0.218c0.012,0.036,0.047,0.079,0.082,0.087c0.024,0.007,0.082-0.028,0.092-0.056
		c0.064-0.175,0.125-0.351,0.17-0.53c0.01-0.039-0.036-0.117-0.076-0.134c-0.038-0.018-0.105,0.009-0.15,0.034
		c-0.035,0.019-0.066,0.062-0.081,0.101C22.395,12.622,22.372,12.723,22.35,12.806z"/>
	<path fill="#FFFFFF" d="M24.702,11.776c-0.015-0.149-0.045-0.297-0.071-0.446c-0.031-0.17-0.102-0.238-0.27-0.262
		c-0.133-0.02-0.266-0.035-0.399-0.04c-0.202-0.008-0.202-0.003-0.264-0.196c-0.011-0.032-0.021-0.063-0.03-0.095
		c-0.098-0.374-0.322-0.634-0.7-0.723c-0.209-0.051-0.433-0.065-0.646-0.069c-0.577-0.011-1.156-0.008-1.736-0.006
		c-0.07,0-0.109-0.016-0.137-0.094c-0.125-0.355-0.262-0.708-0.393-1.063c-0.149-0.419-0.379-0.78-0.763-1.028
		c-0.206-0.135-0.413-0.279-0.666-0.307c-0.405-0.044-0.812-0.089-1.218-0.107c-1.271-0.06-2.533,0.028-3.777,0.306
		c-0.298,0.067-0.544,0.192-0.688,0.478c-0.207,0.409-0.422,0.812-0.634,1.216c-0.02,0.037-0.048,0.08-0.083,0.094
		C12.074,9.5,11.922,9.58,11.762,9.61c-0.358,0.066-0.72,0.113-1.083,0.155c-0.435,0.05-0.856-0.039-1.273-0.161
		c-0.067-0.02-0.101-0.059-0.112-0.135C9.277,9.343,9.25,9.219,9.217,9.097c-0.069-0.249-0.305-0.46-0.538-0.482
		C8.042,8.553,7.403,8.537,6.767,8.608C6.483,8.64,6.245,8.768,6.058,8.984C6.033,9.012,6.008,9.05,6.004,9.088
		C5.971,9.317,5.944,9.546,5.92,9.775C5.913,9.844,5.897,9.897,5.831,9.93c-0.227,0.109-0.41,0.277-0.529,0.491
		c-0.118,0.211-0.275,0.261-0.493,0.232c-0.153-0.021-0.204,0.014-0.249,0.157c-0.042,0.133-0.063,0.273-0.093,0.41
		c-0.087,0.378-0.175,0.755-0.26,1.134c-0.026,0.113,0.003,0.223,0.102,0.283c0.126,0.078,0.262,0.147,0.402,0.194
		c0.164,0.057,0.171,0.045,0.165,0.22c-0.021,0.63-0.056,1.261-0.071,1.891c-0.027,1.18-0.011,2.361,0.119,3.537
		c0.051,0.479,0.144,0.951,0.323,1.404c0.173,0.44,0.479,0.709,0.955,0.76C6.6,20.686,7,20.736,7.4,20.75
		c1.281,0.039,2.562,0.082,3.842,0.089c1.274,0.007,2.55-0.026,3.822-0.044v-0.023c0.411-0.017,0.822-0.033,1.233-0.047
		c1.282-0.041,2.561-0.09,3.842-0.117c0.864-0.019,1.727,0,2.59-0.01c0.152,0,0.321-0.018,0.455-0.084
		c0.26-0.134,0.504-0.3,0.748-0.463c0.051-0.035,0.086-0.119,0.098-0.185c0.022-0.115,0.027-0.233,0.029-0.353
		c0.012-1.199,0.035-2.399,0.033-3.601c-0.003-0.872-0.037-1.744-0.062-2.615c-0.002-0.085,0.007-0.129,0.113-0.117
		c0.168,0.017,0.312-0.047,0.426-0.179c0.121-0.137,0.183-0.302,0.183-0.477C24.749,12.277,24.725,12.026,24.702,11.776z
		 M4.939,11.468c-0.028,0.324-0.055,0.646-0.085,0.97c-0.004,0.04-0.029,0.076-0.044,0.116c-0.042-0.019-0.089-0.027-0.123-0.055
		c-0.125-0.102-0.125-0.16-0.066-0.31c0.046-0.113,0.072-0.237,0.091-0.357c0.034-0.205,0.056-0.412,0.084-0.618
		c0.006-0.041,0.022-0.083,0.042-0.12c0.013-0.021,0.047-0.029,0.071-0.043c0.015,0.025,0.039,0.05,0.04,0.076
		c0.005,0.113,0.002,0.227,0.002,0.341C4.949,11.468,4.944,11.468,4.939,11.468z M6.535,9.46c0.216-0.019,0.433-0.018,0.646-0.048
		c0.133-0.02,0.261-0.079,0.39-0.124c0.032-0.01,0.062-0.031,0.082-0.056c0.02-0.026,0.038-0.065,0.033-0.094
		C7.683,9.122,7.634,9.101,7.607,9.102C7.474,9.112,7.34,9.136,7.208,9.141C7.067,9.146,6.929,9.136,6.789,9.128
		c-0.022-0.002-0.06-0.027-0.06-0.041C6.73,9.062,6.748,9.025,6.77,9.017c0.066-0.028,0.137-0.064,0.207-0.065
		C7.394,8.94,7.812,8.927,8.229,8.938c0.162,0.004,0.325,0.064,0.482,0.114C8.799,9.082,8.854,9.16,8.87,9.258
		c0.025,0.143-0.056,0.243-0.2,0.244c-0.24,0-0.481,0-0.722,0c-0.001-0.01-0.001-0.019-0.001-0.026
		c-0.339,0.02-0.679,0.037-1.02,0.063c-0.098,0.007-0.195,0.039-0.293,0.06C6.602,9.605,6.562,9.625,6.538,9.613
		C6.5,9.592,6.473,9.552,6.441,9.52C6.472,9.499,6.502,9.463,6.535,9.46z M22.575,19.823c-0.052,0.135-0.324,0.231-0.456,0.174
		c-0.051-0.022-0.053-0.06-0.027-0.104c0.133-0.248,0.264-0.498,0.393-0.746c0.187-0.355,0.375-0.709,0.557-1.066
		c0.061-0.116,0.01-0.186-0.122-0.18c-0.121,0.007-0.201,0.078-0.25,0.18c-0.147,0.32-0.295,0.645-0.438,0.967
		c-0.119,0.266-0.234,0.531-0.352,0.799c-0.049,0.107-0.216,0.166-0.322,0.111c-0.055-0.027-0.059-0.07-0.031-0.126
		c0.121-0.235,0.238-0.472,0.355-0.708c0.066-0.134,0.135-0.27,0.188-0.408c0.02-0.053,0.02-0.162,0.002-0.169
		c-0.068-0.021-0.152-0.032-0.219-0.009c-0.059,0.021-0.117,0.083-0.146,0.143c-0.139,0.284-0.273,0.57-0.398,0.862
		c-0.043,0.104-0.058,0.226-0.068,0.34c-0.012,0.091-0.051,0.147-0.139,0.154c-0.131,0.009-0.264,0.012-0.392,0.001
		c-0.11-0.008-0.125-0.059-0.056-0.141c0.152-0.187,0.307-0.373,0.459-0.558c0.004-0.008,0.008-0.012,0.013-0.019
		c0.041-0.068,0.108-0.146,0.049-0.219c-0.062-0.078-0.163-0.031-0.241-0.006c-0.043,0.012-0.088,0.041-0.117,0.074
		c-0.193,0.205-0.363,0.426-0.469,0.694c-0.07,0.178-0.281,0.258-0.447,0.17c-0.047-0.025-0.047-0.058-0.018-0.101
		c0.068-0.097,0.137-0.197,0.197-0.301c0.068-0.126,0.029-0.188-0.113-0.188c-0.131,0-0.24,0.035-0.296,0.174
		c-0.048,0.111-0.112,0.214-0.168,0.318c-0.04,0.076-0.097,0.109-0.185,0.112c-0.891,0.035-1.778,0.079-2.666,0.113
		c-0.934,0.036-1.865,0.063-2.797,0.097c-0.108,0.006-0.214,0.02-0.322,0.016c-0.104-0.004-0.114-0.039-0.068-0.133
		c0.05-0.1,0.096-0.201,0.138-0.301c0.008-0.021,0.01-0.068,0-0.072c-0.065-0.026-0.133-0.061-0.203-0.062
		c-0.04,0-0.097,0.044-0.121,0.084c-0.062,0.106-0.105,0.226-0.162,0.332c-0.052,0.104-0.141,0.158-0.259,0.155
		c-0.13-0.002-0.261,0.025-0.396-0.055c0.03-0.033,0.055-0.062,0.082-0.088c0.127-0.123,0.27-0.234,0.379-0.371
		c0.08-0.102,0.12-0.234,0.168-0.357c0.011-0.027-0.008-0.081-0.032-0.104c-0.02-0.019-0.07-0.014-0.099,0
		c-0.159,0.065-0.268,0.193-0.368,0.33c-0.103,0.141-0.209,0.278-0.304,0.424c-0.089,0.142-0.207,0.224-0.373,0.235
		c-0.096,0.011-0.192,0.022-0.289,0.031c-0.024,0.001-0.068-0.011-0.076-0.029c-0.008-0.021,0.005-0.06,0.022-0.081
		c0.096-0.131,0.198-0.263,0.3-0.389c0.22-0.27,0.443-0.537,0.661-0.809c0.03-0.039,0.072-0.104,0.059-0.134
		c-0.017-0.034-0.083-0.062-0.132-0.069c-0.129-0.02-0.243,0.026-0.317,0.131c-0.162,0.223-0.321,0.447-0.468,0.678
		c-0.104,0.167-0.193,0.343-0.281,0.52c-0.045,0.096-0.099,0.155-0.212,0.145c-0.069-0.006-0.14,0.001-0.21-0.002
		c-0.075-0.004-0.099-0.051-0.058-0.108c0.211-0.308,0.428-0.61,0.643-0.919c0.015-0.018,0.038-0.033,0.045-0.053
		c0.013-0.053,0.043-0.119,0.022-0.15c-0.04-0.062-0.124-0.089-0.187-0.041c-0.102,0.08-0.213,0.159-0.283,0.262
		c-0.176,0.267-0.33,0.543-0.493,0.815c-0.099,0.166-0.316,0.229-0.507,0.128c0.04-0.047,0.072-0.097,0.115-0.134
		c0.102-0.092,0.211-0.176,0.309-0.272c0.033-0.029,0.064-0.101,0.048-0.131c-0.028-0.063-0.097-0.082-0.172-0.062
		c-0.196,0.057-0.324,0.188-0.423,0.358c-0.186,0.328-0.134,0.283-0.501,0.276c-0.746-0.014-1.49-0.03-2.237-0.052
		c-0.31-0.01-0.619-0.042-0.916-0.148c-0.354-0.123-0.55-0.383-0.65-0.73c-0.161-0.551-0.209-1.118-0.24-1.688
		c-0.082-1.511-0.043-3.018,0.007-4.527c0.019-0.559,0.058-1.119,0.119-1.675c0.058-0.542,0.31-0.974,0.856-1.154
		c0.273-0.09,0.565-0.135,0.852-0.177c0.448-0.067,0.899-0.061,1.349-0.002c0.306,0.04,0.61,0.082,0.911,0.14
		c0.697,0.135,1.382,0.118,2.055-0.13c0.277-0.101,0.576-0.122,0.854-0.226c0.416-0.155,0.414-0.375,0.586-0.742
		c0.102-0.218,0.206-0.449,0.365-0.632c0.158-0.18,0.333-0.208,0.548-0.291c0.457-0.175,0.922-0.287,1.414-0.287
		c0.822,0,1.644-0.015,2.462,0.059c0.709,0.064,1.263,0.259,1.656,0.894c0.078,0.123,0.146,0.26,0.201,0.391
		c0.119,0.279,0.221,0.566,0.27,0.865c0.053,0.331,0.205,0.653,0.227,0.989c0.014,0.195-0.045,0.6,0.312,0.489
		c0.061-0.019,0.119-0.047,0.171-0.082c0.141-0.097,0.161-0.184,0.114-0.387c-0.053-0.218-0.102-0.437-0.146-0.656
		c-0.027-0.144-0.016-0.163,0.129-0.153c0.562,0.038,1.127,0.076,1.689,0.126c0.375,0.033,0.582,0.276,0.705,0.614
		c0.138,0.39,0.18,0.798,0.19,1.206c0.048,1.756,0.084,3.514,0.134,5.271c0.006,0.295-0.056,0.553-0.201,0.811
		C23.043,18.842,22.771,19.312,22.575,19.823z M22.934,19.917c-0.104,0.028-0.145-0.006-0.11-0.106
		c0.032-0.098,0.075-0.193,0.126-0.283c0.115-0.193,0.238-0.385,0.361-0.575c0.037-0.058,0.086-0.104,0.144-0.173
		c0.022,0.039,0.036,0.058,0.043,0.08C23.637,19.305,23.378,19.794,22.934,19.917z M24.396,12.198c0,0.127,0.004,0.255-0.002,0.382
		c-0.006,0.132-0.184,0.274-0.312,0.254c-0.021-0.003-0.051-0.048-0.054-0.077c-0.027-0.215-0.045-0.433-0.073-0.648
		c-0.03-0.22-0.065-0.437-0.106-0.655c-0.022-0.14-0.002-0.17,0.142-0.16c0.051,0.005,0.101,0.009,0.149,0.019
		c0.144,0.028,0.213,0.108,0.223,0.254c0.016,0.21,0.027,0.422,0.041,0.632L24.396,12.198L24.396,12.198z"/>
	<path fill="none" d="M7.947,9.476c-0.339,0.02-0.679,0.037-1.02,0.063c-0.098,0.007-0.195,0.039-0.293,0.06
		C6.602,9.605,6.562,9.625,6.538,9.613C6.5,9.592,6.473,9.552,6.441,9.52c0.031-0.021,0.061-0.057,0.094-0.06
		c0.216-0.019,0.433-0.018,0.646-0.048c0.133-0.02,0.261-0.079,0.39-0.124c0.032-0.01,0.062-0.031,0.082-0.056
		c0.02-0.026,0.038-0.065,0.033-0.094C7.683,9.122,7.634,9.101,7.607,9.102C7.474,9.112,7.34,9.136,7.208,9.141
		C7.067,9.146,6.929,9.136,6.789,9.128c-0.022-0.002-0.06-0.027-0.06-0.041C6.73,9.062,6.748,9.025,6.77,9.017
		c0.066-0.028,0.137-0.064,0.207-0.065C7.394,8.94,7.812,8.927,8.229,8.938c0.162,0.004,0.325,0.064,0.482,0.114
		C8.799,9.082,8.854,9.16,8.87,9.258c0.025,0.143-0.056,0.243-0.2,0.244c-0.24,0-0.481,0-0.722,0
		C7.947,9.492,7.947,9.483,7.947,9.476z"/>
	<path fill="#FFFFFF" d="M19.07,12.198c0,0.127,0.006,0.255-0.002,0.382c-0.006,0.132-0.182,0.274-0.31,0.254
		c-0.024-0.003-0.051-0.048-0.057-0.077c-0.026-0.215-0.043-0.433-0.073-0.648c-0.029-0.22-0.064-0.437-0.104-0.655
		c-0.025-0.14-0.004-0.17,0.141-0.16c0.049,0.005,0.1,0.009,0.148,0.019c0.142,0.028,0.213,0.108,0.222,0.254
		c0.017,0.21,0.028,0.422,0.041,0.632C19.076,12.198,19.073,12.198,19.07,12.198z"/>
	<path fill="none" d="M23.453,18.779c0.021,0.039,0.036,0.057,0.043,0.078c0.141,0.447-0.118,0.937-0.562,1.06
		c-0.104,0.028-0.145-0.006-0.11-0.106c0.032-0.098,0.075-0.193,0.126-0.283c0.115-0.193,0.238-0.385,0.361-0.575
		C23.348,18.895,23.396,18.846,23.453,18.779z"/>
	<path fill="none" d="M4.939,11.468c-0.028,0.324-0.055,0.646-0.085,0.97c-0.004,0.04-0.029,0.076-0.044,0.116
		c-0.042-0.019-0.089-0.027-0.123-0.055c-0.125-0.102-0.125-0.16-0.066-0.31c0.046-0.113,0.072-0.237,0.091-0.357
		c0.034-0.205,0.056-0.412,0.084-0.618c0.006-0.041,0.022-0.083,0.042-0.12c0.013-0.021,0.047-0.029,0.071-0.043
		c0.015,0.025,0.039,0.05,0.04,0.076c0.005,0.113,0.002,0.227,0.002,0.341C4.949,11.468,4.944,11.468,4.939,11.468z"/>
	<path fill="#FFFFFF" d="M16.312,19.732c-0.49,0.006-0.979-0.041-1.458-0.139c-1.121-0.229-1.975-0.846-2.581-1.812
		c-0.287-0.457-0.465-0.956-0.577-1.486c-0.121-0.572-0.204-1.149-0.188-1.735c0.025-0.954,0.29-1.833,0.849-2.613
		c0.357-0.5,0.835-0.855,1.382-1.116c0.341-0.164,0.69-0.32,1.041-0.46c0.278-0.11,0.58-0.132,0.878-0.143
		c0.413-0.015,0.832-0.045,1.241,0.04c0.371,0.078,0.742,0.167,1.103,0.283c0.542,0.174,1.058,0.415,1.519,0.752
		c0.666,0.482,1.123,1.116,1.387,1.895c0.207,0.621,0.229,1.258,0.166,1.899c-0.037,0.382-0.098,0.764-0.174,1.141
		c-0.115,0.591-0.344,1.136-0.697,1.627c-0.268,0.367-0.542,0.725-0.893,1.019c-0.408,0.343-0.879,0.562-1.396,0.683
		C17.385,19.689,16.85,19.732,16.312,19.732z M16.412,19.076c0.191-0.012,0.456-0.02,0.72-0.049
		c0.244-0.027,0.491-0.057,0.728-0.125c0.677-0.192,1.205-0.605,1.638-1.152c0.437-0.549,0.688-1.178,0.81-1.864
		c0.116-0.646,0.188-1.293,0.119-1.95c-0.052-0.476-0.199-0.914-0.476-1.305c-0.636-0.896-1.533-1.358-2.581-1.562
		c-0.38-0.075-0.766-0.13-1.146-0.188c-0.312-0.046-0.619-0.068-0.927,0.051c-0.315,0.123-0.641,0.204-0.985,0.211
		c-0.117,0.003-0.24,0.055-0.345,0.113c-0.704,0.386-1.146,0.998-1.455,1.72c-0.191,0.449-0.3,0.92-0.343,1.407
		c-0.052,0.604-0.017,1.202,0.158,1.782c0.161,0.528,0.403,1.021,0.718,1.474c0.404,0.584,0.942,0.991,1.627,1.204
		C15.214,19.012,15.773,19.064,16.412,19.076z"/>
	<path fill="#384777" d="M10.297,18.285c-0.012,0.055-0.02,0.128-0.041,0.193c-0.029,0.09-0.097,0.105-0.168,0.041
		c-0.143-0.129-0.204-0.302-0.223-0.481c-0.051-0.462-0.085-0.929-0.126-1.392c-0.025-0.267-0.065-0.533-0.076-0.799
		c-0.024-0.729-0.029-1.458-0.053-2.184c-0.02-0.613-0.056-1.226-0.083-1.839c-0.006-0.14-0.006-0.281,0.004-0.421
		c0.007-0.098,0.066-0.123,0.128-0.048c0.069,0.082,0.126,0.183,0.159,0.284c0.116,0.355,0.147,0.723,0.16,1.091
		c0.034,1.036,0.047,2.072,0.091,3.107c0.025,0.588,0.093,1.176,0.146,1.764C10.234,17.824,10.268,18.047,10.297,18.285z"/>
	<path fill="#384777" d="M22.35,12.806c0.022-0.083,0.045-0.184,0.076-0.28c0.014-0.039,0.045-0.082,0.081-0.101
		c0.045-0.025,0.112-0.052,0.15-0.034c0.04,0.017,0.086,0.095,0.075,0.134c-0.045,0.179-0.104,0.355-0.168,0.53
		c-0.01,0.028-0.067,0.063-0.094,0.056c-0.033-0.009-0.068-0.051-0.082-0.087C22.368,12.962,22.363,12.893,22.35,12.806z"/>
	<path fill="none" d="M16.412,19.076c-0.639-0.012-1.198-0.064-1.743-0.232c-0.685-0.213-1.224-0.619-1.627-1.205
		c-0.315-0.453-0.558-0.943-0.718-1.473c-0.174-0.58-0.209-1.178-0.158-1.782c0.043-0.486,0.152-0.958,0.343-1.407
		c0.309-0.723,0.751-1.334,1.455-1.72c0.105-0.058,0.229-0.11,0.345-0.113c0.344-0.007,0.67-0.088,0.985-0.211
		c0.308-0.119,0.615-0.097,0.927-0.051c0.383,0.057,0.768,0.112,1.146,0.188c1.048,0.204,1.945,0.667,2.581,1.562
		c0.276,0.391,0.424,0.829,0.476,1.305c0.067,0.657-0.003,1.303-0.119,1.95c-0.121,0.688-0.373,1.315-0.81,1.864
		c-0.433,0.547-0.961,0.96-1.638,1.153c-0.235,0.066-0.482,0.097-0.728,0.123C16.868,19.057,16.604,19.064,16.412,19.076z
		 M16.328,17.627c0.779-0.014,1.436-0.234,1.984-0.729c0.414-0.373,0.681-0.846,0.855-1.373c0.076-0.232,0.13-0.474,0.104-0.72
		c-0.027-0.286-0.119-0.556-0.238-0.814c-0.292-0.617-0.76-1.079-1.303-1.472c-0.357-0.26-0.744-0.4-1.193-0.293
		c-0.135,0.03-0.266,0.005-0.398-0.048c-0.128-0.051-0.271-0.088-0.408-0.084c-0.34,0.009-0.656,0.115-0.935,0.319
		c-0.384,0.281-0.647,0.665-0.885,1.066c-0.263,0.446-0.384,0.942-0.428,1.452c-0.074,0.84,0.206,1.545,0.892,2.043
		C14.968,17.402,15.652,17.593,16.328,17.627z"/>
	<path fill="#FFFFFF" d="M16.328,17.627c-0.676-0.034-1.36-0.225-1.951-0.652c-0.686-0.498-0.966-1.203-0.892-2.043
		c0.044-0.51,0.165-1.006,0.428-1.452c0.238-0.401,0.501-0.785,0.885-1.066c0.277-0.204,0.593-0.31,0.935-0.319
		c0.137-0.004,0.281,0.033,0.408,0.084c0.133,0.053,0.266,0.078,0.398,0.048c0.45-0.107,0.836,0.033,1.193,0.293
		c0.543,0.393,1.011,0.854,1.303,1.472c0.119,0.259,0.211,0.529,0.238,0.814c0.025,0.247-0.027,0.488-0.104,0.72
		c-0.176,0.527-0.441,1-0.855,1.373C17.764,17.393,17.107,17.613,16.328,17.627z M13.825,15.086c-0.01,0.22,0.052,0.421,0.13,0.617
		c0.21,0.541,0.551,0.972,1.086,1.22c0.613,0.281,1.255,0.363,1.924,0.233c0.582-0.112,1.04-0.403,1.354-0.913
		c0.211-0.345,0.357-0.716,0.447-1.11c0.063-0.293,0.051-0.584-0.058-0.87c-0.188-0.505-0.535-0.897-0.929-1.251
		c-0.272-0.243-0.592-0.377-0.955-0.379c-0.233-0.001-0.469,0.017-0.701,0.033c-0.139,0.009-0.221-0.029-0.243-0.133
		c-0.032-0.142-0.122-0.196-0.255-0.13c-0.358,0.178-0.715,0.363-0.998,0.657C14.082,13.624,13.913,14.339,13.825,15.086z"/>
	<path fill="#FFFFFF" d="M16.282,15.82c-0.093-0.02-0.273-0.06-0.457-0.102c-0.091-0.021-0.183-0.039-0.269-0.074
		c-0.325-0.129-0.426-0.377-0.305-0.719c0.152-0.428,0.441-0.72,0.869-0.865c0.293-0.099,0.564-0.048,0.792,0.166
		c0.211,0.199,0.362,0.436,0.438,0.72c0.032,0.128,0.019,0.25-0.06,0.364C17.104,15.6,16.688,15.833,16.282,15.82z"/>
	<path fill="#FFFFFF" d="M16.566,13.153c0.322,0.028,0.58,0.074,0.822,0.187c0.303,0.141,0.478,0.402,0.631,0.679
		c0.168,0.307,0.263,0.631,0.179,0.983c-0.022,0.094-0.071,0.185-0.123,0.269c-0.021,0.03-0.089,0.041-0.132,0.035
		c-0.018-0.001-0.039-0.071-0.039-0.111c0-0.09,0.01-0.18,0.018-0.27c0.018-0.215-0.042-0.409-0.146-0.595
		c-0.142-0.248-0.301-0.48-0.521-0.668c-0.109-0.092-0.234-0.134-0.377-0.142c-0.173-0.009-0.35-0.018-0.52-0.04
		c-0.047-0.005-0.117-0.052-0.123-0.086c-0.008-0.047,0.029-0.125,0.067-0.146C16.4,13.197,16.512,13.171,16.566,13.153z"/>
</g>
</svg>
