<?xml version="1.0" encoding="utf-8"?>
<!-- Generator: Adobe Illustrator 16.0.0, SVG Export Plug-In . SVG Version: 6.00 Build 0)  -->
<!DOCTYPE svg PUBLIC "-//W3C//DTD SVG 1.1//EN" "http://www.w3.org/Graphics/SVG/1.1/DTD/svg11.dtd">
<svg version="1.1" id="Capa_1" xmlns="http://www.w3.org/2000/svg" xmlns:xlink="http://www.w3.org/1999/xlink" x="0px" y="0px"
	 width="141.732px" height="141.732px" viewBox="0 0 141.732 141.732" enable-background="new 0 0 141.732 141.732"
	 xml:space="preserve">
<path fill="none" stroke="#9197A3" stroke-width="4" stroke-miterlimit="10" d="M79.011,47.902c0,5.2-4.212,9.414-9.416,9.414
	c-5.2,0-9.415-4.214-9.415-9.414s4.215-9.415,9.415-9.415C74.802,38.487,79.011,42.702,79.011,47.902z"/>
<path fill="none" stroke="#9197A3" stroke-width="4" stroke-miterlimit="10" d="M71.264,82c0,0-12.558,2.039-24.385-10.245
	c0,0-3.562-3.968-0.414-7.112c2.622-2.623,7.322-0.622,8.795,0.415c1.464,1.043,9.198,7.112,15.694,7.112h-1.142
	c6.48,0,14.218-6.069,15.69-7.112c1.459-1.036,6.171-3.037,8.78-0.415c3.15,3.146-0.415,7.112-0.415,7.112
	C82.045,84.039,69.49,82,69.49,82"/>
<line fill="none" stroke="#9197A3" stroke-width="4" stroke-miterlimit="10" x1="59.258" y1="67.3" x2="65.255" y2="56.27"/>
<line fill="none" stroke="#9197A3" stroke-width="4" stroke-miterlimit="10" x1="40.937" y1="100.994" x2="53.581" y2="77.731"/>
<line fill="none" stroke="#9197A3" stroke-width="4" stroke-miterlimit="10" x1="80.763" y1="67.737" x2="74.519" y2="56.27"/>
<line fill="none" stroke="#9197A3" stroke-width="4" stroke-miterlimit="10" x1="98.832" y1="100.994" x2="86.501" y2="78.31"/>
<line fill="none" stroke="#9197A3" stroke-width="4" stroke-miterlimit="10" x1="69.49" y1="33.866" x2="69.49" y2="38.576"/>
<g>
	<path fill="#9197A3" stroke="#9197A3" stroke-width="2" stroke-miterlimit="10" d="M71.366,9.366
		c34.469,0,62.512,28.042,62.512,62.512c0,34.471-28.043,62.514-62.512,62.514S8.854,106.348,8.854,71.878
		C8.854,37.408,36.897,9.366,71.366,9.366 M71.366,7.366c-35.629,0-64.512,28.883-64.512,64.512s28.883,64.514,64.512,64.514
		s64.512-28.885,64.512-64.514S106.995,7.366,71.366,7.366L71.366,7.366z"/>
</g>
</svg>
