<?xml version="1.0" encoding="utf-8"?>
<!-- Generator: Adobe Illustrator 15.0.0, SVG Export Plug-In . SVG Version: 6.00 Build 0)  -->
<!DOCTYPE svg PUBLIC "-//W3C//DTD SVG 1.1//EN" "http://www.w3.org/Graphics/SVG/1.1/DTD/svg11.dtd">
<svg version="1.1" id="Capa_1" xmlns="http://www.w3.org/2000/svg" xmlns:xlink="http://www.w3.org/1999/xlink" x="0px" y="0px"
	 width="141.732px" height="141.732px" viewBox="0 0 141.732 141.732" enable-background="new 0 0 141.732 141.732"
	 xml:space="preserve">
<g>
	<g>
		<path fill="#D68E78" d="M71.366,8.366c34.469,0,62.512,28.043,62.512,62.512s-28.043,62.512-62.512,62.512
			c-34.469,0-62.512-28.043-62.512-62.512S36.897,8.366,71.366,8.366 M71.366,6.366c-35.629,0-64.512,28.883-64.512,64.512
			c0,35.628,28.883,64.512,64.512,64.512s64.512-28.884,64.512-64.512C135.878,35.249,106.995,6.366,71.366,6.366L71.366,6.366z"/>
	</g>
</g>
<path fill="none" stroke="#D68E78" stroke-width="2" stroke-miterlimit="10" d="M79.011,47.902c0,5.2-4.211,9.414-9.416,9.414
	c-5.2,0-9.415-4.214-9.415-9.414s4.215-9.415,9.415-9.415C74.802,38.487,79.011,42.702,79.011,47.902z"/>
<path fill="none" stroke="#D68E78" stroke-width="2" stroke-miterlimit="10" d="M71.264,82c0,0-12.557,2.039-24.384-10.245
	c0,0-3.562-3.968-0.414-7.113c2.622-2.623,7.322-0.622,8.795,0.415c1.463,1.043,9.198,7.113,15.694,7.113h-1.142
	c6.481,0,14.218-6.07,15.691-7.113c1.459-1.036,6.171-3.037,8.78-0.415c3.15,3.146-0.415,7.113-0.415,7.113
	C82.045,84.039,69.49,82,69.49,82"/>
<line fill="none" stroke="#D68E78" stroke-width="2" stroke-miterlimit="10" x1="59.258" y1="67.3" x2="65.255" y2="56.27"/>
<line fill="none" stroke="#D68E78" stroke-width="2" stroke-miterlimit="10" x1="40.937" y1="100.994" x2="53.581" y2="77.731"/>
<line fill="none" stroke="#D68E78" stroke-width="2" stroke-miterlimit="10" x1="80.763" y1="67.737" x2="74.519" y2="56.27"/>
<line fill="none" stroke="#D68E78" stroke-width="2" stroke-miterlimit="10" x1="98.832" y1="100.994" x2="86.501" y2="78.31"/>
<line fill="none" stroke="#D68E78" stroke-width="2" stroke-miterlimit="10" x1="69.49" y1="33.866" x2="69.49" y2="38.576"/>
</svg>
