<?xml version="1.0" encoding="utf-8"?>
<!-- Generator: Adobe Illustrator 15.0.0, SVG Export Plug-In . SVG Version: 6.00 Build 0)  -->
<!DOCTYPE svg PUBLIC "-//W3C//DTD SVG 1.1//EN" "http://www.w3.org/Graphics/SVG/1.1/DTD/svg11.dtd">
<svg version="1.1" id="Capa_1" xmlns="http://www.w3.org/2000/svg" xmlns:xlink="http://www.w3.org/1999/xlink" x="0px" y="0px"
	 width="141.732px" height="141.732px" viewBox="0 0 141.732 141.732" enable-background="new 0 0 141.732 141.732"
	 xml:space="preserve">
<g>
	<path fill="#FFFFFF" d="M70.798,7.746c35.18,0,63.801,28.62,63.801,63.799c0,35.18-28.621,63.797-63.801,63.797
		C35.62,135.342,7,106.723,7,71.545C7,36.367,35.62,7.746,70.798,7.746 M70.798,6.746C35.012,6.746,6,35.758,6,71.545
		c0,35.785,29.014,64.797,64.798,64.797c35.787,0,64.801-29.012,64.801-64.797C135.597,35.758,106.585,6.746,70.798,6.746
		L70.798,6.746z"/>
</g>
<path fill="none" stroke="#FFFFFF" stroke-width="2" stroke-miterlimit="10" d="M79.011,47.902c0,5.2-4.21,9.414-9.416,9.414
	c-5.2,0-9.415-4.214-9.415-9.414c0-5.2,4.215-9.415,9.415-9.415C74.802,38.487,79.011,42.702,79.011,47.902z"/>
<path fill="none" stroke="#FFFFFF" stroke-width="2" stroke-miterlimit="10" d="M71.264,82c0,0-12.556,2.039-24.383-10.245
	c0,0-3.562-3.968-0.414-7.114c2.622-2.623,7.322-0.622,8.794,0.415c1.463,1.043,9.199,7.114,15.695,7.114h-1.142
	c6.482,0,14.218-6.071,15.692-7.114c1.459-1.036,6.171-3.037,8.78-0.415c3.15,3.146-0.415,7.114-0.415,7.114
	C82.045,84.039,69.49,82,69.49,82"/>
<line fill="none" stroke="#FFFFFF" stroke-width="2" stroke-miterlimit="10" x1="59.258" y1="67.3" x2="65.255" y2="56.27"/>
<line fill="none" stroke="#FFFFFF" stroke-width="2" stroke-miterlimit="10" x1="40.937" y1="100.994" x2="53.581" y2="77.731"/>
<line fill="none" stroke="#FFFFFF" stroke-width="2" stroke-miterlimit="10" x1="80.763" y1="67.737" x2="74.519" y2="56.27"/>
<line fill="none" stroke="#FFFFFF" stroke-width="2" stroke-miterlimit="10" x1="98.832" y1="100.994" x2="86.501" y2="78.31"/>
<line fill="none" stroke="#FFFFFF" stroke-width="2" stroke-miterlimit="10" x1="69.49" y1="33.866" x2="69.49" y2="38.576"/>
</svg>
