<?xml version="1.0" encoding="utf-8"?>
<!-- Generator: Adobe Illustrator 16.0.0, SVG Export Plug-In . SVG Version: 6.00 Build 0)  -->
<!DOCTYPE svg PUBLIC "-//W3C//DTD SVG 1.1//EN" "http://www.w3.org/Graphics/SVG/1.1/DTD/svg11.dtd">
<svg version="1.1" id="Layer_1" xmlns="http://www.w3.org/2000/svg" xmlns:xlink="http://www.w3.org/1999/xlink" x="0px" y="0px"
	 width="30px" height="30px" viewBox="0 0 30 30" enable-background="new 0 0 30 30" xml:space="preserve">
<g>
	<circle fill="#A0C9EC" cx="15.023" cy="14.905" r="14.422"/>
	<path fill-rule="evenodd" clip-rule="evenodd" fill="#8CB0CE" d="M16.221,24.325c0.021,0.1,0.045,0.189,0.061,0.277
		c0.023,0.135-0.012,0.193-0.142,0.235c-0.44,0.145-0.881,0.156-1.324,0.016c-0.176-0.058-0.348-0.138-0.519-0.214
		c-0.091-0.039-0.155-0.104-0.163-0.215c-0.001-0.021-0.043-0.059-0.068-0.061c-0.369-0.021-0.617-0.249-0.86-0.487
		c-0.144-0.144-0.168-0.309-0.082-0.493c0.04-0.087,0.073-0.178,0.109-0.27c0.028-0.068,0.003-0.12-0.06-0.155
		c-0.029-0.02-0.061-0.037-0.09-0.057c-0.105-0.072-0.16-0.166-0.1-0.301c0.048-0.108,0.076-0.226,0.109-0.343
		c0.022-0.079-0.009-0.137-0.068-0.197c-0.093-0.099-0.186-0.202-0.253-0.317c-0.092-0.159-0.056-0.317,0.07-0.446
		c0.062-0.064,0.142-0.114,0.208-0.175c0.023-0.021,0.048-0.068,0.042-0.094c-0.083-0.27-0.146-0.551-0.27-0.802
		c-0.153-0.315-0.241-0.647-0.333-0.982c-0.118-0.422-0.234-0.844-0.366-1.262c-0.165-0.519-0.348-1.033-0.62-1.511
		c-0.209-0.364-0.45-0.712-0.675-1.069c-0.272-0.434-0.503-0.887-0.636-1.384c-0.114-0.418-0.159-0.844-0.123-1.275
		c0.114-1.311,0.668-2.428,1.494-3.429c0.534-0.646,1.229-1.013,2.028-1.211c0.806-0.199,1.628-0.283,2.451-0.184
		c1.153,0.14,2.152,0.603,2.867,1.563c0.231,0.309,0.378,0.663,0.526,1.018c0.186,0.444,0.327,0.903,0.415,1.377
		c0.1,0.527,0.13,1.057,0.067,1.594c-0.12,1.021-0.536,1.925-1.097,2.77c-0.227,0.344-0.464,0.684-0.672,1.039
		c-0.363,0.625-0.478,1.312-0.43,2.029c0.018,0.247,0.026,0.495,0.028,0.741c0,0.167-0.018,0.337-0.035,0.506
		c-0.004,0.042-0.021,0.099-0.053,0.119c-0.071,0.052-0.072,0.117-0.061,0.19c0.042,0.247,0,0.48-0.095,0.715
		c-0.05,0.121-0.04,0.241,0.036,0.368c0.062,0.098,0.09,0.229,0.09,0.343c0.003,0.199-0.03,0.4-0.043,0.601
		c-0.007,0.102-0.006,0.205,0.002,0.308c0.017,0.232,0.01,0.455-0.2,0.617c-0.142,0.114-0.275,0.237-0.414,0.355
		c-0.133,0.11-0.284,0.163-0.461,0.152C16.421,24.321,16.326,24.325,16.221,24.325z M13.683,20.893
		c0.137,0.179,0.318,0.208,0.493,0.225c0.278,0.03,0.56,0.036,0.836,0.056c0.683,0.051,1.3-0.134,1.86-0.518
		c0.12-0.081,0.124-0.083,0.031-0.185c-0.122-0.134-0.118-0.204-0.002-0.349c0.018-0.02,0.032-0.045,0.053-0.06
		c0.132-0.101,0.158-0.241,0.156-0.396c-0.003-0.36,0.007-0.717,0.005-1.074c-0.005-0.649,0.195-1.233,0.557-1.768
		c0.235-0.35,0.474-0.699,0.692-1.058c0.462-0.758,0.79-1.572,0.924-2.454c0.086-0.557,0.017-1.102-0.145-1.639
		c-0.159-0.534-0.399-1.033-0.653-1.527c-0.341-0.663-0.861-1.122-1.559-1.38c-0.726-0.268-1.472-0.315-2.23-0.213
		c-0.578,0.078-1.142,0.222-1.677,0.457c-0.433,0.19-0.833,0.432-1.111,0.83c-0.164,0.231-0.326,0.462-0.468,0.706
		c-0.362,0.62-0.631,1.273-0.675,2.002c-0.023,0.399,0.01,0.794,0.079,1.187c0.069,0.395,0.186,0.776,0.393,1.124
		c0.274,0.472,0.55,0.943,0.822,1.414c0.326,0.566,0.602,1.15,0.759,1.786c0.127,0.521,0.254,1.041,0.403,1.555
		c0.101,0.357,0.286,0.668,0.642,0.842c0.079,0.04,0.171,0.085,0.166,0.185c-0.002,0.1-0.105,0.129-0.181,0.168
		C13.802,20.836,13.748,20.863,13.683,20.893z M15.243,23.269c0.002,0.008,0.002,0.017,0.002,0.024
		c0.218-0.017,0.437-0.021,0.651-0.056c0.352-0.059,0.701-0.133,1.05-0.208c0.281-0.061,0.303-0.104,0.271-0.388
		c-0.013-0.105-0.013-0.205,0.049-0.301c0.05-0.078,0.037-0.158-0.041-0.215c-0.032-0.024-0.062-0.047-0.094-0.072
		c-0.065-0.051-0.091-0.114-0.062-0.198c0.012-0.033,0.001-0.077,0.001-0.117c-0.038,0.012-0.079,0.021-0.114,0.039
		c-0.037,0.016-0.068,0.049-0.105,0.068c-0.187,0.098-0.362,0.22-0.561,0.286c-0.374,0.129-0.768,0.168-1.16,0.193
		c-0.109,0.006-0.221-0.012-0.33-0.029c-0.09-0.018-0.155-0.078-0.189-0.168c-0.031-0.081,0.002-0.137,0.09-0.141
		c0.078-0.003,0.156,0.004,0.233,0.004c0.157,0,0.315,0.019,0.468-0.004c0.413-0.064,0.814-0.175,1.178-0.384
		c0.193-0.11,0.371-0.249,0.551-0.382c0.058-0.042,0.064-0.112,0.025-0.177c-0.039-0.061-0.101-0.076-0.162-0.049
		c-0.13,0.059-0.26,0.117-0.383,0.188c-0.306,0.169-0.614,0.342-0.975,0.333c-0.478-0.012-0.956-0.039-1.433-0.072
		c-0.242-0.02-0.481-0.074-0.724-0.105c-0.062-0.006-0.148,0-0.191,0.039c-0.096,0.081-0.125,0.205-0.098,0.328
		c0.023,0.106,0.093,0.173,0.204,0.198c0.136,0.031,0.197,0.131,0.161,0.264c-0.028,0.099-0.067,0.198-0.116,0.288
		c-0.101,0.19-0.102,0.218,0.073,0.343c0.108,0.08,0.17,0.177,0.143,0.306c-0.026,0.114-0.075,0.223-0.103,0.334
		c-0.017,0.067-0.039,0.158-0.009,0.212c0.128,0.227,0.303,0.406,0.58,0.446c0.094,0.013,0.169,0.054,0.22,0.143
		c0.056,0.101,0.143,0.168,0.263,0.177c0.283,0.019,0.565,0.032,0.848,0.054c0.161,0.013,0.308,0,0.459-0.076
		c0.096-0.05,0.136-0.094,0.148-0.196c0.019-0.176,0.037-0.189,0.214-0.188c0.34,0.002,0.607-0.146,0.837-0.38
		c0.123-0.126,0.121-0.195,0.027-0.347c-0.046-0.074-0.085-0.079-0.164-0.046c-0.219,0.096-0.439,0.195-0.668,0.263
		c-0.4,0.116-0.816,0.114-1.232,0.106c-0.111-0.002-0.227-0.02-0.335-0.047c-0.086-0.021-0.126-0.094-0.107-0.184
		c0.019-0.081,0.079-0.111,0.162-0.109C14.943,23.271,15.094,23.269,15.243,23.269z"/>
	<path fill-rule="evenodd" clip-rule="evenodd" fill="#8CB0CE" d="M20.962,13.816c-0.06-0.014-0.146-0.015-0.216-0.049
		c-0.055-0.029-0.111-0.088-0.127-0.145c-0.018-0.072,0.031-0.138,0.106-0.165c0.076-0.027,0.153-0.055,0.234-0.066
		c0.367-0.044,0.736-0.082,1.103-0.119c0.259-0.027,0.517-0.052,0.777-0.077c0.148-0.016,0.183,0.034,0.123,0.174
		c-0.049,0.113-0.137,0.185-0.255,0.205c-0.336,0.06-0.671,0.112-1.008,0.16C21.462,13.767,21.22,13.788,20.962,13.816z"/>
	<path fill-rule="evenodd" clip-rule="evenodd" fill="#8CB0CE" d="M9.902,9.224C9.9,9.382,9.832,9.432,9.742,9.375
		c-0.196-0.122-0.387-0.25-0.57-0.388C8.948,8.819,8.732,8.64,8.519,8.46C8.46,8.41,8.414,8.345,8.369,8.281
		C8.313,8.199,8.319,8.115,8.385,8.04c0.066-0.073,0.143-0.106,0.233-0.052c0.079,0.047,0.16,0.091,0.226,0.151
		c0.311,0.292,0.619,0.588,0.922,0.887C9.832,9.091,9.873,9.18,9.902,9.224z"/>
	<path fill-rule="evenodd" clip-rule="evenodd" fill="#8CB0CE" d="M14.746,5.967c-0.01,0.134-0.024,0.346-0.041,0.556
		c-0.002,0.02-0.006,0.038-0.014,0.057c-0.024,0.069-0.05,0.141-0.142,0.132c-0.088-0.009-0.102-0.088-0.113-0.152
		c-0.063-0.359-0.127-0.717-0.177-1.076c-0.018-0.126,0.004-0.257,0.016-0.386c0.009-0.088,0.075-0.134,0.158-0.148
		c0.089-0.018,0.165,0.015,0.2,0.097c0.034,0.083,0.065,0.172,0.072,0.26C14.724,5.501,14.73,5.696,14.746,5.967z"/>
	<path fill-rule="evenodd" clip-rule="evenodd" fill="#8CB0CE" d="M19.327,8.644C19.2,8.639,19.14,8.593,19.102,8.512
		c-0.032-0.074,0.007-0.132,0.057-0.171c0.141-0.114,0.283-0.229,0.433-0.328c0.331-0.222,0.667-0.438,1.003-0.652
		c0.057-0.037,0.133-0.097,0.19-0.02c0.049,0.07-0.028,0.126-0.076,0.168c-0.389,0.344-0.777,0.688-1.173,1.026
		C19.47,8.591,19.38,8.618,19.327,8.644z"/>
	<path fill-rule="evenodd" clip-rule="evenodd" fill="#8CB0CE" d="M8.007,13.949c-0.36-0.031-0.719-0.06-1.078-0.094
		c-0.082-0.008-0.168-0.022-0.188-0.122c-0.016-0.069,0.073-0.16,0.174-0.182c0.044-0.009,0.091-0.012,0.136-0.008
		c0.467,0.034,0.934,0.072,1.401,0.109c0.019,0.001,0.039,0.002,0.057,0.008c0.076,0.023,0.127,0.072,0.123,0.153
		c-0.003,0.082-0.067,0.11-0.136,0.114c-0.163,0.003-0.326,0.001-0.486,0.001C8.007,13.936,8.007,13.943,8.007,13.949z"/>
	<path fill-rule="evenodd" clip-rule="evenodd" fill="#FFFFFF" d="M13.683,20.893c0.064-0.029,0.119-0.057,0.171-0.086
		c0.076-0.039,0.179-0.068,0.181-0.168c0.005-0.1-0.087-0.145-0.166-0.185c-0.356-0.174-0.541-0.484-0.642-0.842
		c-0.148-0.514-0.276-1.034-0.403-1.555c-0.158-0.636-0.434-1.22-0.759-1.786c-0.272-0.471-0.548-0.942-0.822-1.414
		c-0.207-0.347-0.323-0.729-0.393-1.124c-0.069-0.393-0.103-0.788-0.079-1.187c0.043-0.729,0.313-1.382,0.675-2.002
		c0.142-0.244,0.305-0.475,0.468-0.706c0.278-0.398,0.678-0.639,1.111-0.83c0.536-0.235,1.099-0.379,1.677-0.457
		c0.758-0.102,1.504-0.055,2.23,0.213c0.697,0.259,1.218,0.717,1.559,1.38c0.254,0.494,0.494,0.993,0.653,1.527
		c0.161,0.537,0.23,1.082,0.145,1.639c-0.134,0.882-0.462,1.696-0.924,2.454c-0.219,0.358-0.457,0.708-0.692,1.058
		c-0.361,0.534-0.562,1.118-0.557,1.768c0.002,0.357-0.008,0.714-0.005,1.074c0.002,0.155-0.024,0.296-0.156,0.396
		c-0.021,0.015-0.035,0.04-0.053,0.06c-0.116,0.145-0.12,0.215,0.002,0.349c0.093,0.102,0.089,0.104-0.031,0.185
		c-0.561,0.384-1.178,0.568-1.86,0.518c-0.277-0.02-0.559-0.025-0.836-0.056C14.001,21.101,13.82,21.071,13.683,20.893z
		 M14.363,18.101c-0.005,0.012-0.007,0.025-0.012,0.037c-0.171,0.084-0.182,0.237-0.186,0.394c-0.015,0.616-0.031,1.229-0.043,1.845
		c-0.005,0.213,0.112,0.304,0.327,0.276c0.07-0.01,0.113-0.039,0.113-0.117c0-0.138,0.013-0.272,0.011-0.409
		c-0.006-0.485-0.018-0.971-0.022-1.456c0-0.092,0.018-0.187,0.04-0.277c0.023-0.099,0.09-0.156,0.196-0.162
		c0.256-0.009,0.513-0.028,0.77-0.032c0.244-0.002,0.264,0.027,0.268,0.272c0.004,0.702,0.011,1.406,0.02,2.108
		c0,0.088,0,0.177,0.013,0.263c0.005,0.03,0.045,0.078,0.072,0.08c0.106,0.013,0.218-0.094,0.223-0.199
		c0.014-0.385,0.022-0.771,0.039-1.152c0.023-0.452,0.049-0.902,0.081-1.354c0.017-0.23,0.052-0.46,0.087-0.687
		c0.021-0.148,0.058-0.294,0.098-0.437c0.049-0.178,0.133-0.35,0.162-0.53c0.054-0.354,0.078-0.71,0.12-1.064
		c0.012-0.099,0.023-0.205,0.065-0.291c0.131-0.258,0.279-0.506,0.414-0.761c0.028-0.055,0.058-0.124,0.053-0.182
		c-0.016-0.142-0.09-0.262-0.194-0.362c-0.044-0.042-0.09-0.05-0.15-0.021c-0.155,0.08-0.314,0.151-0.475,0.222
		c-0.03,0.014-0.067,0.011-0.101,0.014c-0.003-0.036-0.015-0.075-0.006-0.109c0.022-0.091,0.065-0.176,0.079-0.269
		c0.018-0.113,0.021-0.235-0.091-0.309c-0.114-0.07-0.212,0.002-0.296,0.062c-0.25,0.176-0.494,0.361-0.739,0.541
		c-0.105,0.076-0.111,0.071-0.166-0.042c-0.056-0.12-0.11-0.244-0.188-0.351c-0.137-0.184-0.357-0.201-0.527-0.046
		c-0.114,0.104-0.176,0.242-0.212,0.387c-0.023,0.085-0.056,0.083-0.116,0.043c-0.034-0.025-0.074-0.04-0.108-0.062
		c-0.258-0.183-0.555-0.235-0.857-0.258c-0.112-0.009-0.166,0.036-0.175,0.148c-0.031,0.346-0.007,0.683,0.189,0.985
		c0.428,0.662,0.606,1.408,0.752,2.166c0.051,0.271,0.122,0.538,0.189,0.806c0.028,0.106,0.07,0.21,0.2,0.239
		C14.311,18.058,14.335,18.083,14.363,18.101z M18.235,12.155c-0.052-0.328-0.106-0.638-0.227-0.932
		c-0.157-0.388-0.393-0.731-0.646-1.061c-0.139-0.177-0.302-0.338-0.463-0.497c-0.075-0.075-0.18-0.105-0.289-0.071
		c-0.084,0.026-0.113,0.095-0.064,0.166c0.037,0.057,0.09,0.104,0.14,0.151c0.554,0.507,0.928,1.127,1.148,1.843
		c0.058,0.186,0.108,0.374,0.166,0.559c0.012,0.036,0.05,0.093,0.069,0.09c0.04-0.006,0.094-0.034,0.114-0.071
		C18.214,12.276,18.221,12.207,18.235,12.155z"/>
	<path fill-rule="evenodd" clip-rule="evenodd" fill="#FFFFFF" d="M15.243,23.269c-0.149,0-0.299,0.002-0.448-0.002
		c-0.083-0.002-0.143,0.028-0.162,0.109c-0.019,0.09,0.021,0.162,0.107,0.184c0.108,0.027,0.224,0.045,0.335,0.047
		c0.416,0.008,0.832,0.01,1.232-0.106c0.229-0.067,0.449-0.167,0.668-0.263c0.079-0.033,0.118-0.028,0.164,0.046
		c0.094,0.151,0.096,0.221-0.027,0.347c-0.229,0.233-0.497,0.382-0.837,0.38c-0.177-0.002-0.195,0.012-0.214,0.188
		c-0.013,0.103-0.053,0.146-0.148,0.196c-0.151,0.076-0.298,0.089-0.459,0.076c-0.282-0.021-0.564-0.035-0.848-0.054
		c-0.12-0.009-0.207-0.076-0.263-0.177c-0.051-0.089-0.126-0.13-0.22-0.143c-0.276-0.04-0.451-0.22-0.58-0.446
		c-0.03-0.054-0.008-0.145,0.009-0.212c0.027-0.111,0.077-0.22,0.103-0.334c0.028-0.129-0.034-0.226-0.143-0.306
		c-0.175-0.125-0.174-0.152-0.073-0.343c0.049-0.09,0.088-0.189,0.116-0.288c0.036-0.133-0.025-0.232-0.161-0.264
		c-0.111-0.025-0.18-0.092-0.204-0.198c-0.027-0.123,0.002-0.247,0.098-0.328c0.042-0.039,0.129-0.045,0.191-0.039
		c0.243,0.031,0.482,0.086,0.724,0.105c0.477,0.033,0.955,0.061,1.433,0.072c0.361,0.009,0.669-0.164,0.975-0.333
		c0.123-0.07,0.253-0.129,0.383-0.188c0.062-0.027,0.123-0.012,0.162,0.049c0.039,0.064,0.032,0.135-0.025,0.177
		c-0.18,0.133-0.357,0.271-0.551,0.382c-0.363,0.209-0.765,0.319-1.178,0.384c-0.153,0.022-0.312,0.004-0.468,0.004
		c-0.077,0-0.156-0.007-0.233-0.004c-0.088,0.004-0.121,0.06-0.09,0.141c0.034,0.09,0.099,0.15,0.189,0.168
		c0.109,0.018,0.22,0.035,0.33,0.029c0.393-0.025,0.786-0.064,1.16-0.193c0.198-0.066,0.374-0.188,0.561-0.286
		c0.037-0.02,0.068-0.053,0.105-0.068c0.035-0.018,0.076-0.027,0.114-0.039c0,0.04,0.011,0.084-0.001,0.117
		c-0.028,0.084-0.003,0.147,0.062,0.198c0.031,0.025,0.062,0.048,0.094,0.072c0.078,0.057,0.091,0.137,0.041,0.215
		c-0.062,0.096-0.062,0.195-0.049,0.301c0.032,0.284,0.011,0.327-0.271,0.388c-0.349,0.075-0.698,0.149-1.05,0.208
		c-0.214,0.035-0.433,0.039-0.651,0.056C15.245,23.285,15.245,23.276,15.243,23.269z M14.653,22.92c0,0.004,0,0.008,0,0.012
		c0.024,0,0.051,0.002,0.077,0c0.35-0.01,0.703-0.01,1.039-0.129c0.059-0.023,0.117-0.059,0.163-0.099
		c0.021-0.021,0.031-0.076,0.021-0.108c-0.008-0.02-0.06-0.04-0.089-0.036c-0.075,0.01-0.15,0.036-0.227,0.045
		c-0.455,0.06-0.907,0.056-1.357-0.024c-0.124-0.021-0.252-0.03-0.375-0.019c-0.05,0.006-0.106,0.08-0.128,0.137
		c-0.029,0.068,0.026,0.124,0.09,0.149c0.073,0.031,0.152,0.064,0.229,0.068C14.282,22.926,14.468,22.92,14.653,22.92z
		 M14.755,24.053c0.152-0.016,0.305-0.021,0.456-0.045c0.091-0.016,0.183-0.049,0.266-0.09c0.038-0.02,0.058-0.076,0.088-0.115
		c-0.044-0.021-0.085-0.05-0.13-0.056c-0.056-0.01-0.115-0.004-0.173,0c-0.322,0.021-0.635-0.01-0.943-0.112
		c-0.132-0.046-0.271-0.087-0.407-0.019c-0.085,0.041-0.094,0.117-0.027,0.181c0.025,0.024,0.055,0.045,0.086,0.062
		C14.215,23.994,14.473,24.076,14.755,24.053z"/>
	<path fill-rule="evenodd" clip-rule="evenodd" fill="#8CB0CE" d="M14.363,18.101c-0.028-0.018-0.052-0.043-0.083-0.051
		c-0.129-0.029-0.171-0.133-0.2-0.239c-0.067-0.268-0.139-0.534-0.189-0.806c-0.146-0.758-0.325-1.504-0.752-2.166
		c-0.196-0.302-0.22-0.64-0.189-0.985c0.01-0.112,0.063-0.158,0.175-0.148c0.302,0.023,0.599,0.075,0.857,0.258
		c0.034,0.023,0.074,0.038,0.108,0.062c0.06,0.039,0.093,0.042,0.116-0.043c0.036-0.145,0.099-0.283,0.212-0.387
		c0.17-0.154,0.391-0.138,0.527,0.046c0.077,0.106,0.131,0.231,0.188,0.351c0.054,0.114,0.061,0.119,0.166,0.042
		c0.245-0.18,0.489-0.365,0.739-0.541c0.084-0.06,0.182-0.132,0.296-0.062c0.111,0.073,0.108,0.196,0.091,0.309
		c-0.014,0.093-0.057,0.178-0.079,0.269c-0.009,0.034,0.003,0.073,0.006,0.109c0.033-0.003,0.07,0,0.101-0.014
		c0.16-0.071,0.319-0.142,0.475-0.222c0.061-0.029,0.106-0.021,0.15,0.021c0.104,0.1,0.179,0.22,0.194,0.362
		c0.005,0.058-0.024,0.127-0.053,0.182c-0.135,0.254-0.283,0.502-0.414,0.761c-0.042,0.085-0.054,0.192-0.065,0.291
		c-0.042,0.354-0.066,0.709-0.12,1.064c-0.029,0.181-0.113,0.353-0.162,0.53c-0.04,0.143-0.076,0.288-0.098,0.437
		c-0.035,0.227-0.07,0.456-0.087,0.687c-0.032,0.452-0.058,0.902-0.081,1.354c-0.017,0.382-0.025,0.768-0.039,1.152
		c-0.005,0.105-0.116,0.212-0.223,0.199c-0.027-0.002-0.067-0.05-0.072-0.08c-0.013-0.086-0.013-0.175-0.013-0.263
		c-0.009-0.702-0.016-1.406-0.02-2.108c-0.004-0.245-0.023-0.274-0.268-0.272c-0.257,0.004-0.514,0.023-0.77,0.032
		c-0.105,0.006-0.173,0.063-0.196,0.162c-0.021,0.091-0.04,0.186-0.04,0.277c0.004,0.485,0.016,0.971,0.022,1.456
		c0.002,0.137-0.011,0.271-0.011,0.409c0,0.078-0.043,0.107-0.113,0.117c-0.214,0.027-0.332-0.063-0.327-0.276
		c0.012-0.616,0.028-1.229,0.043-1.845c0.004-0.156,0.015-0.31,0.186-0.394C14.356,18.126,14.358,18.112,14.363,18.101z
		 M16.784,14.303c-0.01-0.006-0.019-0.01-0.028-0.016c-0.049,0.038-0.101,0.071-0.142,0.114c-0.142,0.147-0.316,0.182-0.509,0.164
		c-0.179-0.017-0.241-0.074-0.262-0.253c-0.02-0.18-0.02-0.18-0.167-0.074c-0.044,0.029-0.086,0.059-0.13,0.087
		c-0.153,0.103-0.327,0.138-0.506,0.154c-0.08,0.007-0.139-0.023-0.18-0.091c-0.044-0.073-0.084-0.147-0.13-0.218
		c-0.047-0.076-0.094-0.073-0.132,0.008c-0.035,0.07-0.056,0.146-0.086,0.217c-0.068,0.156-0.209,0.214-0.36,0.134
		c-0.085-0.044-0.161-0.106-0.236-0.167c-0.11-0.09-0.24-0.129-0.377-0.141c-0.094-0.008-0.135,0.041-0.116,0.133
		c0.013,0.056,0.032,0.112,0.056,0.165c0.069,0.151,0.156,0.293,0.208,0.45c0.109,0.315,0.208,0.635,0.298,0.958
		c0.117,0.422,0.22,0.848,0.332,1.271c0.059,0.229,0.123,0.456,0.191,0.685c0.026,0.091,0.059,0.091,0.144,0.056
		c0.093-0.04,0.194-0.086,0.292-0.088c0.257-0.012,0.514-0.008,0.771,0.002c0.198,0.006,0.243-0.019,0.243-0.218
		c0-0.32,0.071-0.618,0.183-0.913c0.09-0.237,0.153-0.48,0.178-0.734c0.025-0.281,0.036-0.567,0.143-0.834
		c0.091-0.228,0.124-0.477,0.269-0.686C16.763,14.421,16.768,14.357,16.784,14.303z"/>
	<path fill-rule="evenodd" clip-rule="evenodd" fill="#8CB0CE" d="M18.235,12.155c-0.015,0.052-0.021,0.122-0.052,0.178
		c-0.021,0.037-0.074,0.065-0.114,0.071c-0.02,0.003-0.058-0.054-0.069-0.09c-0.058-0.185-0.108-0.373-0.166-0.559
		c-0.221-0.716-0.595-1.336-1.148-1.843c-0.05-0.046-0.103-0.094-0.14-0.151c-0.049-0.071-0.02-0.14,0.064-0.166
		c0.109-0.034,0.214-0.003,0.289,0.071c0.161,0.159,0.324,0.319,0.463,0.497c0.254,0.329,0.489,0.672,0.646,1.061
		C18.129,11.517,18.184,11.827,18.235,12.155z"/>
	<path fill-rule="evenodd" clip-rule="evenodd" fill="#8CB0CE" d="M14.653,22.92c-0.185,0-0.371,0.006-0.557-0.004
		c-0.077-0.004-0.156-0.037-0.229-0.068c-0.064-0.025-0.12-0.081-0.09-0.149c0.022-0.057,0.079-0.131,0.128-0.137
		c0.122-0.012,0.25-0.002,0.375,0.019c0.45,0.08,0.902,0.084,1.357,0.024c0.077-0.009,0.152-0.035,0.227-0.045
		c0.029-0.004,0.081,0.017,0.089,0.036c0.01,0.032,0,0.087-0.021,0.108c-0.046,0.04-0.104,0.075-0.163,0.099
		c-0.336,0.119-0.689,0.119-1.039,0.129c-0.026,0.002-0.053,0-0.077,0C14.653,22.928,14.653,22.924,14.653,22.92z"/>
	<path fill-rule="evenodd" clip-rule="evenodd" fill="#8CB0CE" d="M14.755,24.053c-0.283,0.023-0.54-0.059-0.784-0.193
		c-0.031-0.018-0.062-0.038-0.086-0.062c-0.067-0.063-0.058-0.14,0.027-0.181c0.137-0.068,0.275-0.027,0.407,0.019
		c0.308,0.103,0.621,0.133,0.943,0.112c0.059-0.004,0.117-0.01,0.173,0c0.045,0.006,0.086,0.034,0.13,0.056
		c-0.03,0.039-0.05,0.096-0.088,0.115c-0.083,0.041-0.175,0.074-0.266,0.09C15.061,24.031,14.907,24.037,14.755,24.053z"/>
	<path fill-rule="evenodd" clip-rule="evenodd" fill="#FFFFFF" d="M16.784,14.303c-0.017,0.055-0.021,0.118-0.054,0.163
		c-0.145,0.209-0.178,0.458-0.269,0.686c-0.106,0.268-0.117,0.553-0.143,0.834c-0.024,0.254-0.088,0.497-0.178,0.734
		c-0.111,0.295-0.183,0.593-0.183,0.913c0,0.199-0.045,0.224-0.243,0.218c-0.257-0.01-0.514-0.014-0.771-0.002
		c-0.099,0.002-0.2,0.048-0.292,0.088c-0.085,0.035-0.118,0.035-0.144-0.056c-0.068-0.229-0.132-0.456-0.191-0.685
		c-0.112-0.423-0.215-0.849-0.332-1.271c-0.09-0.323-0.189-0.642-0.298-0.958c-0.053-0.156-0.139-0.299-0.208-0.45
		c-0.023-0.053-0.043-0.109-0.056-0.165c-0.02-0.092,0.021-0.141,0.116-0.133c0.137,0.012,0.267,0.051,0.377,0.141
		c0.076,0.062,0.151,0.123,0.236,0.167c0.15,0.08,0.292,0.022,0.36-0.134c0.03-0.071,0.051-0.147,0.086-0.217
		c0.038-0.081,0.085-0.084,0.132-0.008c0.046,0.07,0.086,0.145,0.13,0.218c0.041,0.067,0.1,0.098,0.18,0.091
		c0.18-0.016,0.354-0.051,0.506-0.154c0.044-0.028,0.086-0.058,0.13-0.087c0.148-0.106,0.148-0.106,0.167,0.074
		c0.021,0.18,0.083,0.237,0.262,0.253c0.192,0.019,0.367-0.017,0.509-0.164c0.041-0.043,0.093-0.076,0.142-0.114
		C16.766,14.292,16.774,14.297,16.784,14.303z"/>
</g>
</svg>
