<?xml version="1.0" encoding="utf-8"?>
<!-- Generator: Adobe Illustrator 16.0.0, SVG Export Plug-In . SVG Version: 6.00 Build 0)  -->
<!DOCTYPE svg PUBLIC "-//W3C//DTD SVG 1.1//EN" "http://www.w3.org/Graphics/SVG/1.1/DTD/svg11.dtd">
<svg version="1.1" id="Layer_1" xmlns="http://www.w3.org/2000/svg" xmlns:xlink="http://www.w3.org/1999/xlink" x="0px" y="0px"
	 width="30px" height="30px" viewBox="0 0 30 30" enable-background="new 0 0 30 30" xml:space="preserve">
<ellipse fill="none" stroke="#00A5E5" stroke-miterlimit="10" cx="14.932" cy="15.044" rx="13.443" ry="13.668"/>
<path fill="#00A5E5" d="M14.898,21.282c0,0-4.535-4.146-4.535-7.874c0-3.587,2.291-4.868,4.65-4.892
	c1.671-0.016,4.329,1.072,4.329,4.566C19.342,16.764,16.135,20.023,14.898,21.282z M14.853,10.94c-1.239,0-2.245,1.022-2.245,2.282
	c0,1.261,1.006,2.283,2.245,2.283c1.24,0,2.245-1.022,2.245-2.283C17.098,11.962,16.093,10.94,14.853,10.94z"/>
</svg>
