<?xml version="1.0" encoding="utf-8"?>
<!-- Generator: Adobe Illustrator 16.0.0, SVG Export Plug-In . SVG Version: 6.00 Build 0)  -->
<!DOCTYPE svg PUBLIC "-//W3C//DTD SVG 1.1//EN" "http://www.w3.org/Graphics/SVG/1.1/DTD/svg11.dtd">
<svg version="1.1" id="Layer_1" xmlns="http://www.w3.org/2000/svg" xmlns:xlink="http://www.w3.org/1999/xlink" x="0px" y="0px"
	 width="64px" height="64px" viewBox="0 0 64 64" enable-background="new 0 0 64 64" xml:space="preserve">
<g>
	<path fill="#FFFFFF" d="M47.311,23.636h-1.162v-8.077c0-6.099-4.961-11.062-11.062-11.062h-6.174
		c-6.1,0-11.061,4.963-11.061,11.062v8.077h-1.163c-2.172,0-3.941,1.768-3.941,3.94V55.57c0,2.173,1.77,3.939,3.941,3.939h30.622
		c2.172,0,3.94-1.768,3.94-3.939V27.576C51.252,25.404,49.482,23.636,47.311,23.636z M20.48,15.559c0-4.65,3.781-8.434,8.433-8.434
		h6.174c4.651,0,8.433,3.784,8.433,8.434v8.077H20.48V15.559z M48.624,55.57c0,0.724-0.591,1.313-1.313,1.313H16.689
		c-0.723,0-1.313-0.59-1.313-1.313V27.576c0-0.724,0.59-1.313,1.313-1.313h30.622c0.723,0,1.312,0.59,1.312,1.313L48.624,55.57
		L48.624,55.57z"/>
	<path fill="#FFFFFF" d="M31.999,35.833c-2.731,0-4.955,2.224-4.955,4.954c0,1.686,0.866,3.24,2.285,4.148v5.53
		c0,1.476,1.2,2.673,2.67,2.673c1.476,0,2.673-1.197,2.673-2.673v-5.528c1.418-0.91,2.284-2.467,2.284-4.15
		C36.956,38.057,34.732,35.833,31.999,35.833z M33.706,43.982l-0.347,0.187v6.298c0,0.75-0.61,1.358-1.36,1.358
		c-0.747,0-1.357-0.608-1.357-1.358v-6.298l-0.345-0.188c-1.196-0.638-1.937-1.86-1.937-3.193c0-2.007,1.634-3.641,3.639-3.641
		c2.008,0,3.642,1.634,3.642,3.641C35.641,42.12,34.898,43.344,33.706,43.982z"/>
</g>
</svg>
