<?xml version="1.0" encoding="utf-8"?>
<!-- Generator: Adobe Illustrator 15.0.0, SVG Export Plug-In . SVG Version: 6.00 Build 0)  -->
<!DOCTYPE svg PUBLIC "-//W3C//DTD SVG 1.1//EN" "http://www.w3.org/Graphics/SVG/1.1/DTD/svg11.dtd">
<svg version="1.1" id="Capa_1" xmlns="http://www.w3.org/2000/svg" xmlns:xlink="http://www.w3.org/1999/xlink" x="0px" y="0px"
	 width="841.89px" height="215.674px" viewBox="0 0 841.89 215.674" enable-background="new 0 0 841.89 215.674"
	 xml:space="preserve">
<g>
	<path fill="#FFFFFF" d="M168.678,34.223c0,0-11.766-4.861-27.272-4.955c-15.477-0.084-27.504,4.846-27.504,4.846
		s8.038,17.06,27.269,17.101C159.754,51.245,167.464,36.919,168.678,34.223z"/>
	<path fill="#3D9ED8" d="M330.018,148.551v-47.41c0-11.114-2.944-17.976-13.562-17.976c-9.156,0-15.702,8.175-18.477,15.706v49.681
		h-14.554v-47.41c0-13.065-4.406-17.976-13.886-17.976c-8.335,0-15.043,9.158-17.333,14.718v50.668h-14.551V91.018
		c0-6.217-1.307-11.62-1.796-17.171h13.244l2.772,10.628c2.944-4.246,10.631-12.743,20.111-12.743
		c13.079,0,18.471,4.899,23.538,13.557c4.254-6.86,12.103-13.557,22.89-13.557c17.333,0,26.155,9.141,26.155,29.088v47.731H330.018z
		"/>
	<path fill="#3D9ED8" d="M378.645,116.841c0.969,13.898,6.857,22.716,19.774,22.716c7.519,0,14.881-2.448,22.724-6.371l4.74,11.451
		c-8.822,4.085-18.967,5.881-28.774,5.881c-23.376,0-34-17.819-34-38.58c0-17.331,7.033-40.059,33.19-40.059
		c26.485,0,33.683,16.684,33.683,44.96H378.645z M396.463,83.165c-8.832,0-17.164,6.379-17.984,22.726h37.265
		C415.255,89.866,408.388,83.165,396.463,83.165z"/>
	<path fill="#FFFFFF" d="M487.896,150.354c-9.642,0-16.337-4.74-20.426-10.3v37.92h-10.634V96.244
		c0-8.168-0.483-14.391-1.473-22.397h9.321l2.62,11.276c3.596-5.726,11.458-13.071,20.756-13.071
		c22.728,0,29.919,18.302,29.919,39.556C517.98,132.531,508.669,150.354,487.896,150.354z M485.938,80.385
		c-8.98,0-16.02,8.502-18.633,15.859v34.495c3.758,5.067,8.332,11.272,19.946,11.272c11.272,0,19.614-8.825,19.614-30.727
		C506.866,91.993,501.145,80.385,485.938,80.385z"/>
	<path fill="#FFFFFF" d="M544.84,114.879c0.486,15.859,6.208,27.304,21.738,27.304c8.18,0,15.523-2.296,23.211-6.377l3.277,8.832
		c-8.676,4.085-18.474,5.716-27.798,5.716c-22.56,0-31.874-17.653-31.874-38.415c0-17.331,6.864-39.887,31.226-39.887
		c24.686,0,31.708,17.492,31.708,42.827H544.84z M564.775,80.385c-11.613,0-19.287,8.99-20.104,26.153h41.036
		C585.376,88.729,578.837,80.385,564.775,80.385z"/>
	<path fill="#FFFFFF" d="M665.52,148.551l-2.451-8.822c-3.437,5.227-10.29,10.625-19.456,10.625
		c-23.531,0-31.549-18.145-31.549-39.561c0-20.927,10.303-38.741,29.918-38.741c9.973,0,17.161,6.859,20.595,12.583V41.142h10.641
		v84.523c0,9.492,0.635,13.575,1.614,22.886H665.52z M662.903,96.409c-2.451-5.235-7.521-16.024-19.449-16.024
		c-10.949,0-20.273,8.827-20.273,30.74c0,19.774,6.208,30.886,21.411,30.886c7.687,0,13.899-3.751,18.312-11.443V96.409z"/>
	<path fill="#FFFFFF" d="M695.799,55.537V42.782h11.775v12.754H695.799z M696.46,148.551V73.847h10.628v74.704H696.46z"/>
	<path fill="#FFFFFF" d="M777.246,148.551c-0.166-1.138-2.62-7.198-2.785-8.822c-3.758,5.392-11.448,10.625-20.919,10.625
		c-15.043,0-27.149-6.377-27.149-21.417c0-15.199,8.342-25.829,40.057-25.829h7.201v-5.714c0-9.973-3.44-17.008-14.889-17.008
		c-10.287,0-18.474,3.104-25.499,6.544l-3.758-9.156c8.666-3.273,18.153-5.721,29.423-5.721c15.354,0,25.509,7.681,25.509,24.02
		v29.593c0,5.889,1.311,13.737,2.286,22.886H777.246z M773.815,111.125h-5.08c-23.542,0-31.061,5.4-31.061,17.48
		c0,8.339,6.209,13.406,17.021,13.406c8.653,0,15.676-3.916,19.119-9.968V111.125z"/>
	<path fill="#3D9ED8" d="M154.204,150.135c0,7.343-5.941,13.297-13.297,13.297c-7.343,0-13.291-5.954-13.291-13.297
		c0-7.336,5.947-13.294,13.291-13.294C148.263,136.841,154.204,142.799,154.204,150.135z"/>
	<path fill="#FFFFFF" d="M154.101,66.857c0,7.343-5.951,13.297-13.297,13.297c-7.333,0-13.297-5.954-13.297-13.297
		c0-7.341,5.964-13.292,13.297-13.292C148.15,53.565,154.101,59.516,154.101,66.857z"/>
	<g>
		<defs>
			<path id="SVGID_1_" d="M220.891,108.697c0,43.981-35.939,79.629-80.269,79.629c-44.317,0-80.243-35.648-80.243-79.629
				c0-43.985,35.926-79.636,80.243-79.636C184.952,29.062,220.891,64.712,220.891,108.697z"/>
		</defs>
		<clipPath id="SVGID_2_">
			<use xlink:href="#SVGID_1_"  overflow="visible"/>
		</clipPath>
		<g clip-path="url(#SVGID_2_)">
			<defs>
				<path id="SVGID_3_" d="M219.948,108.586c0,44.053-35.598,79.74-79.545,79.74c-43.934,0-79.545-35.688-79.545-79.74
					c0-44.029,35.611-79.725,79.545-79.725C184.351,28.861,219.948,64.557,219.948,108.586z"/>
			</defs>
			<clipPath id="SVGID_4_">
				<use xlink:href="#SVGID_3_"  overflow="visible"/>
			</clipPath>
			<path clip-path="url(#SVGID_4_)" fill="#3D9ED8" d="M172.045,197.667c0,17.617-13.893,31.894-31.017,31.894
				c-17.144,0-31.023-14.276-31.023-31.894c0-17.607,13.879-31.874,31.023-31.874C158.153,165.794,172.045,180.06,172.045,197.667z"
				/>
		</g>
	</g>
	<path fill="#FFFFFF" d="M182.379,121.517c-7.343,0-13.277-5.954-13.277-13.304c0-7.342,5.934-13.294,13.277-13.294
		c7.353,0,13.297,5.952,13.297,13.294C195.676,115.563,189.732,121.517,182.379,121.517z"/>
	<path fill="#FFFFFF" d="M215.013,136.097c0,0,4.869-11.775,4.955-27.269c0.089-15.497-4.839-27.521-4.839-27.521
		s-17.055,8.058-17.091,27.275C197.992,127.173,212.327,134.88,215.013,136.097z"/>
	<path fill="#FFFFFF" d="M99.298,95.886c7.34,0,13.297,5.958,13.297,13.304c0,7.338-5.957,13.291-13.297,13.291
		c-7.35,0-13.297-5.953-13.297-13.291C86.001,101.844,91.948,95.886,99.298,95.886z"/>
	<path fill="#FFFFFF" d="M66.664,81.308c0,0-4.872,11.769-4.961,27.261c-0.076,15.497,4.859,27.529,4.859,27.529
		s17.055-8.061,17.088-27.271C83.682,90.232,69.359,82.518,66.664,81.308z"/>
	<path fill="#FFFFFF" d="M120.709,69.856c5.173,5.218,5.144,13.633-0.066,18.811c-5.226,5.18-13.635,5.144-18.811-0.074
		c-5.177-5.215-5.144-13.638,0.069-18.806C107.111,64.62,115.536,64.653,120.709,69.856z"/>
	<path fill="#FFFFFF" d="M108.074,36.43c0,0-11.792,4.833-22.85,15.692c-11.061,10.849-16.122,22.83-16.122,22.83
		s17.736,6.422,31.407-7.085C113.73,54.797,109.105,39.2,108.074,36.43z"/>
	<path fill="#FFFFFF" d="M179.31,88.287c-5.167,5.228-13.582,5.288-18.808,0.134c-5.233-5.164-5.296-13.573-0.129-18.806
		c5.16-5.223,13.568-5.294,18.805-0.124C184.41,74.65,184.469,83.057,179.31,88.287z"/>
	<path fill="#FFFFFF" d="M212.605,75.299c0,0-4.975-11.734-15.937-22.681c-10.982-10.937-23.002-15.877-23.002-15.877
		s-6.239,17.803,7.419,31.33C194.293,81.15,209.853,76.354,212.605,75.299z"/>
	<path fill="#FFFFFF" d="M161.087,147.076c-5.229-5.167-5.286-13.588-0.129-18.805c5.173-5.238,13.591-5.291,18.808-0.124
		c5.23,5.158,5.289,13.573,0.132,18.806C174.738,152.173,166.323,152.232,161.087,147.076z"/>
	<path fill="#FFFFFF" d="M174.077,180.368c0,0,11.729-4.954,22.665-15.923c10.962-10.976,15.897-22.982,15.897-22.982
		s-17.789-6.258-31.328,7.396C168.222,162.063,172.998,177.61,174.077,180.368z"/>
	<path fill="#FFFFFF" d="M102.312,128.757c5.167-5.213,13.585-5.248,18.805-0.078c5.216,5.173,5.249,13.583,0.073,18.816
		c-5.167,5.207-13.582,5.24-18.801,0.063C97.168,142.389,97.138,133.982,102.312,128.757z"/>
	<path fill="#FFFFFF" d="M68.989,141.661c0,0,4.925,11.75,15.877,22.728c10.936,10.966,22.943,15.937,22.943,15.937
		s6.281-17.782-7.33-31.347C87.301,135.859,71.741,140.609,68.989,141.661z"/>
</g>
<rect x="-373.737" y="243.979" fill="none" width="144.549" height="19.723"/>
<text transform="matrix(1 0 0 1 -334.7705 260.0532)" font-family="'Existence-Light'" font-size="18">#122028</text>
<rect x="-383.737" y="275.979" fill="none" width="166.549" height="19.723"/>
<text transform="matrix(1 0 0 1 -366.6738 292.0532)" font-family="'Existence-Light'" font-size="18">R:18 - G:32 - B:40</text>
<g>
	<g>
		<path fill="#122028" d="M-301.53,100.901c-34.347,0-62.192,27.847-62.192,62.194c0,34.346,27.846,62.192,62.192,62.192
			c34.348,0,62.193-27.846,62.193-62.192C-239.336,128.748-267.182,100.901-301.53,100.901z M-301.53,200.517
			c-20.873,0-37.796-16.922-37.796-37.797s16.923-37.797,37.796-37.797c20.875,0,37.797,16.922,37.797,37.797
			S-280.655,200.517-301.53,200.517z"/>
	</g>
</g>
<rect x="-165.736" y="243.979" fill="none" width="144.549" height="19.723"/>
<text transform="matrix(1 0 0 1 -127.0859 260.0532)" font-family="'Existence-Light'" font-size="18">#3D9ED8</text>
<rect x="-175.736" y="275.979" fill="none" width="171.549" height="19.723"/>
<text transform="matrix(1 0 0 1 -165.5513 292.0532)" font-family="'Existence-Light'" font-size="18">R:61 - G:158 - B:216</text>
<g>
	<g>
		<path fill="#3D9ED8" d="M-93.529,100.901c-34.348,0-62.193,27.847-62.193,62.194c0,34.346,27.846,62.192,62.193,62.192
			s62.193-27.846,62.193-62.192C-31.336,128.748-59.182,100.901-93.529,100.901z M-93.529,200.517
			c-20.873,0-37.797-16.922-37.797-37.797s16.924-37.797,37.797-37.797c20.875,0,37.797,16.922,37.797,37.797
			S-72.654,200.517-93.529,200.517z"/>
	</g>
</g>
</svg>
