<?xml version="1.0" encoding="utf-8"?>
<!-- Generator: Adobe Illustrator 15.0.0, SVG Export Plug-In . SVG Version: 6.00 Build 0)  -->
<!DOCTYPE svg PUBLIC "-//W3C//DTD SVG 1.1//EN" "http://www.w3.org/Graphics/SVG/1.1/DTD/svg11.dtd">
<svg version="1.1" id="Capa_1" xmlns="http://www.w3.org/2000/svg" xmlns:xlink="http://www.w3.org/1999/xlink" x="0px" y="0px"
	 width="549px" height="128px" viewBox="40.5 32.64 549 128" enable-background="new 40.5 32.64 549 128" xml:space="preserve">
<path fill="#3D9ED8" stroke="#3D9ED8" stroke-width="2.5" stroke-miterlimit="10" d="M251.633,126.171V90.992
	c0-8.249-2.182-13.347-10.07-13.347c-6.792,0-11.646,6.064-13.706,11.646v36.88H217.06V90.992c0-9.707-3.273-13.347-10.312-13.347
	c-6.188,0-11.162,6.795-12.86,10.92v37.604h-10.797v-42.7c0-4.608-0.969-8.614-1.333-12.737h9.828l2.059,7.882
	c2.185-3.149,7.889-9.456,14.921-9.456c9.705,0,13.709,3.64,17.47,10.063c3.155-5.092,8.978-10.063,16.984-10.063
	c12.861,0,19.41,6.789,19.41,21.591v35.423L251.633,126.171L251.633,126.171z"/>
<path fill="#3D9ED8" stroke="#3D9ED8" stroke-width="2.5" stroke-miterlimit="10" d="M287.717,102.637
	c0.725,10.313,5.091,16.86,14.678,16.86c5.582,0,11.038-1.818,16.861-4.731l3.517,8.498c-6.549,3.032-14.07,4.364-21.35,4.364
	c-17.345,0-25.233-13.229-25.233-28.63c0-12.861,5.215-29.724,24.625-29.724c19.656,0,24.991,12.377,24.991,33.361L287.717,102.637
	L287.717,102.637z M300.937,77.646c-6.548,0-12.736,4.731-13.344,16.861h27.657C314.89,82.619,309.793,77.646,300.937,77.646z"/>
<path fill="#1C2A33" stroke="#1C2A33" stroke-width="1.5" stroke-miterlimit="10" d="M363.079,127.507
	c-7.157,0-12.13-3.521-15.163-7.646v28.143h-7.889V87.351c0-6.064-0.36-10.673-1.092-16.618h6.914l1.94,8.371
	c2.671-4.248,8.496-9.705,15.41-9.705c16.862,0,22.197,13.586,22.197,29.355C385.399,114.281,378.485,127.507,363.079,127.507z
	 M361.618,75.582c-6.663,0-11.888,6.313-13.827,11.769v25.599c2.789,3.76,6.189,8.367,14.802,8.367
	c8.374,0,14.558-6.551,14.558-22.804C377.15,84.194,372.907,75.582,361.618,75.582z"/>
<path fill="#1C2A33" stroke="#1C2A33" stroke-width="1.5" stroke-miterlimit="10" d="M405.329,101.18
	c0.365,11.77,4.608,20.262,16.135,20.262c6.063,0,11.523-1.7,17.222-4.732l2.431,6.556c-6.431,3.032-13.709,4.243-20.626,4.243
	c-16.742,0-23.656-13.106-23.656-28.509c0-12.861,5.1-29.601,23.177-29.601c18.313,0,23.529,12.979,23.529,31.781H405.329z
	 M420.128,75.582c-8.614,0-14.314,6.672-14.919,19.409h30.442C435.412,81.771,430.562,75.582,420.128,75.582z"/>
<path fill="#1C2A33" stroke="#1C2A33" stroke-width="1.5" stroke-miterlimit="10" d="M494.886,126.171l-1.815-6.552
	c-2.553,3.885-7.645,7.888-14.438,7.888c-17.467,0-23.412-13.466-23.412-29.359c0-15.527,7.644-28.749,22.198-28.749
	c7.403,0,12.738,5.092,15.283,9.34v-32.27h7.889v62.717c0,7.039,0.486,10.071,1.21,16.985H494.886z M492.945,87.475
	c-1.814-3.882-5.582-11.893-14.437-11.893c-8.124,0-15.041,6.554-15.041,22.807c0,14.678,4.61,22.928,15.89,22.928
	c5.707,0,10.313-2.786,13.588-8.49V87.475z"/>
<path fill="#1C2A33" stroke="#1C2A33" stroke-width="1.5" stroke-miterlimit="10" d="M517.362,57.145v-9.463h8.739v9.463H517.362z
	 M517.846,126.171V70.732h7.888v55.438L517.846,126.171L517.846,126.171z"/>
<path fill="#1C2A33" stroke="#1C2A33" stroke-width="1.5" stroke-miterlimit="10" d="M577.787,126.171
	c-0.117-0.85-1.939-5.342-2.059-6.552c-2.79,4.003-8.493,7.888-15.525,7.888c-11.163,0-20.143-4.733-20.143-15.893
	c0-11.284,6.189-19.168,29.721-19.168h5.342v-4.245c0-7.399-2.553-12.619-11.037-12.619c-7.647,0-13.714,2.306-18.927,4.854
	l-2.793-6.795c6.432-2.426,13.469-4.243,21.837-4.243c11.399,0,18.926,5.7,18.926,17.829v21.958c0,4.366,0.975,10.193,1.697,16.985
	L577.787,126.171L577.787,126.171z M575.245,98.389h-3.764c-17.469,0-23.05,4.007-23.05,12.979c0,6.188,4.614,9.947,12.62,9.947
	c6.427,0,11.644-2.907,14.192-7.398L575.245,98.389L575.245,98.389z"/>
<path fill="#3D9ED8" d="M115.452,127.347c0,5.449-4.417,9.866-9.868,9.866c-5.452,0-9.868-4.417-9.868-9.866
	c0-5.453,4.417-9.87,9.868-9.87S115.452,121.894,115.452,127.347z"/>
<circle fill="#1C2A33" cx="105.507" cy="65.544" r="9.868"/>
<path fill="#3D9ED8" d="M126.161,151.84c-3.815-7.646-11.555-12.878-20.49-12.878c-9.052,0-16.877,5.369-20.638,13.175
	c0.826,0.301,1.662,0.585,2.507,0.85c0.042,0.014,0.082,0.029,0.124,0.042c0.019,0.007,0.038,0.012,0.057,0.018
	c5.554,1.708,11.456,2.631,17.573,2.639C112.645,155.674,119.673,154.309,126.161,151.84z"/>
<path fill="#1C2A33" d="M126.195,41.33c0,0-8.733-3.611-20.232-3.678c-11.5-0.065-20.423,3.593-20.423,3.593
	s5.977,12.657,20.238,12.687C119.575,53.961,125.292,43.328,126.195,41.33z"/>
<circle fill="#1C2A33" cx="136.362" cy="96.236" r="9.868"/>
<path fill="#1C2A33" d="M160.576,116.924c0,0,3.611-8.734,3.678-20.233c0.065-11.499-3.593-20.423-3.593-20.423
	s-12.657,5.978-12.688,20.238C147.944,110.304,158.578,116.021,160.576,116.924z"/>
<circle fill="#1C2A33" cx="74.703" cy="96.954" r="9.868"/>
<path fill="#1C2A33" d="M50.49,76.268c0,0-3.612,8.734-3.679,20.233c-0.065,11.499,3.592,20.423,3.592,20.423
	s12.657-5.978,12.688-20.239C63.121,82.887,52.487,77.17,50.49,76.268z"/>
<path fill="#1C2A33" d="M90.591,67.771c3.841,3.87,3.819,10.116-0.052,13.956c-3.869,3.843-10.115,3.816-13.954-0.055
	c-3.84-3.867-3.817-10.114,0.052-13.956C80.508,63.881,86.752,63.904,90.591,67.771z"/>
<path fill="#1C2A33" d="M81.215,42.965c0,0-8.745,3.588-16.951,11.645c-8.209,8.054-11.968,16.936-11.968,16.936
	s13.161,4.771,23.304-5.253C85.413,56.594,81.982,45.018,81.215,42.965z"/>
<path fill="#1C2A33" d="M134.077,81.448c-3.831,3.882-10.077,3.926-13.956,0.097c-3.884-3.829-3.926-10.073-0.095-13.955
	c3.827-3.879,10.073-3.924,13.956-0.096C137.861,71.323,137.904,77.566,134.077,81.448z"/>
<path fill="#1C2A33" d="M158.785,71.807c0,0-3.686-8.704-11.828-16.825c-8.141-8.12-17.061-11.788-17.061-11.788
	s-4.629,13.213,5.5,23.247C145.197,76.15,156.738,72.597,158.785,71.807z"/>
<path fill="#1C2A33" d="M120.561,125.072c-3.881-3.833-3.923-10.076-0.092-13.955c3.829-3.884,10.075-3.923,13.954-0.09
	c3.88,3.827,3.921,10.073,0.092,13.954C130.685,128.855,124.44,128.897,120.561,125.072z"/>
<path fill="#1C2A33" d="M130.19,149.781c0,0,8.708-3.68,16.831-11.819c8.126-8.14,11.793-17.057,11.793-17.057
	s-13.208-4.639-23.249,5.492C125.854,136.193,129.403,147.733,130.19,149.781z"/>
<path fill="#1C2A33" d="M76.938,111.481c3.841-3.871,10.087-3.898,13.956-0.06c3.874,3.838,3.898,10.082,0.06,13.956
	c-3.838,3.867-10.084,3.896-13.956,0.056C73.128,121.595,73.102,115.354,76.938,111.481z"/>
<path fill="#1C2A33" d="M52.206,121.059c0,0,3.662,8.716,11.784,16.856c8.118,8.142,17.028,11.832,17.028,11.832
	s4.664-13.198-5.438-23.264C65.804,116.75,54.254,120.272,52.206,121.059z"/>
</svg>
