<?xml version="1.0" encoding="utf-8"?>
<!-- Generator: Adobe Illustrator 16.0.0, SVG Export Plug-In . SVG Version: 6.00 Build 0)  -->
<!DOCTYPE svg PUBLIC "-//W3C//DTD SVG 1.1//EN" "http://www.w3.org/Graphics/SVG/1.1/DTD/svg11.dtd">
<svg version="1.1" id="Capa_1" xmlns="http://www.w3.org/2000/svg" xmlns:xlink="http://www.w3.org/1999/xlink" x="0px" y="0px"
	 width="141.732px" height="141.732px" viewBox="0 0 141.732 141.732" enable-background="new 0 0 141.732 141.732"
	 xml:space="preserve">
<g>
	<path fill="none" stroke="#3D9ED8" stroke-width="4" stroke-miterlimit="10" d="M95.389,49.88
		c4.044,11.729-2.188,24.518-13.912,28.562c-11.727,4.043-24.518-2.187-28.562-13.912C48.87,52.8,55.103,40.008,66.828,35.965
		C78.554,31.92,91.344,38.151,95.389,49.88z"/>
	<path fill="none" stroke="#3D9ED8" stroke-width="4" stroke-miterlimit="10" d="M64.866,77.116l-17.75,27.75
		c0,0-3.917,1.5-4.25-2.5l17.75-27.75"/>
	<path fill="none" stroke="#3D9ED8" stroke-width="4" stroke-miterlimit="10" d="M62.331,61.952c0,0-5.469-12.084,8.607-16.938"/>
</g>
<g>
	<path fill="none" stroke="#3D9ED8" stroke-width="2" stroke-miterlimit="10" d="M71.366,8.366
		c34.469,0,62.512,28.043,62.512,62.512c0,34.47-28.043,62.513-62.512,62.513S8.854,105.347,8.854,70.878
		C8.854,36.409,36.897,8.366,71.366,8.366 M71.366,6.366c-35.629,0-64.512,28.883-64.512,64.512
		c0,35.628,28.883,64.513,64.512,64.513s64.512-28.885,64.512-64.513C135.878,35.249,106.995,6.366,71.366,6.366L71.366,6.366z"/>
</g>
</svg>
