<?xml version="1.0" encoding="utf-8"?>
<!-- Generator: Adobe Illustrator 15.0.0, SVG Export Plug-In . SVG Version: 6.00 Build 0)  -->
<!DOCTYPE svg PUBLIC "-//W3C//DTD SVG 1.1//EN" "http://www.w3.org/Graphics/SVG/1.1/DTD/svg11.dtd">
<svg version="1.1" id="Capa_1" xmlns="http://www.w3.org/2000/svg" xmlns:xlink="http://www.w3.org/1999/xlink" x="0px" y="0px"
	 width="141.732px" height="141.732px" viewBox="0 0 141.732 141.732" enable-background="new 0 0 141.732 141.732"
	 xml:space="preserve">
<g>
	<path fill="#D68E78" d="M70.798,7.746c35.18,0,63.801,28.62,63.801,63.799c0,35.18-28.621,63.797-63.801,63.797
		C35.62,135.342,7,106.723,7,71.545C7,36.367,35.62,7.746,70.798,7.746 M70.798,6.746C35.012,6.746,6,35.758,6,71.545
		c0,35.785,29.014,64.797,64.798,64.797c35.787,0,64.801-29.012,64.801-64.797C135.597,35.758,106.585,6.746,70.798,6.746
		L70.798,6.746z"/>
</g>
<g>
	<path fill="none" stroke="#D68E78" stroke-width="2" stroke-miterlimit="10" d="M95.389,49.88
		c4.044,11.728-2.187,24.516-13.912,28.56c-11.725,4.043-24.516-2.185-28.56-13.912c-4.046-11.729,2.186-24.521,13.912-28.564
		C78.554,31.92,91.344,38.151,95.389,49.88z"/>
	<path fill="none" stroke="#D68E78" stroke-width="2" stroke-miterlimit="10" d="M64.866,77.116l-17.75,27.75
		c0,0-3.917,1.5-4.25-2.5l17.75-27.75"/>
	<path fill="none" stroke="#D68E78" stroke-width="2" stroke-miterlimit="10" d="M62.331,61.952c0,0-5.469-12.084,8.607-16.938"/>
</g>
</svg>
