<?xml version="1.0" encoding="utf-8"?>
<!-- Generator: Adobe Illustrator 15.0.0, SVG Export Plug-In . SVG Version: 6.00 Build 0)  -->
<!DOCTYPE svg PUBLIC "-//W3C//DTD SVG 1.1//EN" "http://www.w3.org/Graphics/SVG/1.1/DTD/svg11.dtd">
<svg version="1.1" id="Capa_1" xmlns="http://www.w3.org/2000/svg" xmlns:xlink="http://www.w3.org/1999/xlink" x="0px" y="0px"
	 width="141.732px" height="141.732px" viewBox="0 0 141.732 141.732" enable-background="new 0 0 141.732 141.732"
	 xml:space="preserve">
<g>
	<path fill="none" stroke="#85B8A1" stroke-width="2" stroke-miterlimit="10" d="M96.389,51.88
		c4.044,11.729-2.188,24.517-13.912,28.561c-11.726,4.043-24.517-2.186-28.561-13.912c-4.046-11.729,2.187-24.521,13.912-28.564
		C79.554,33.92,92.344,40.151,96.389,51.88z"/>
	<path fill="none" stroke="#85B8A1" stroke-width="2" stroke-miterlimit="10" d="M65.866,79.116l-17.75,27.75
		c0,0-3.917,1.5-4.25-2.5l17.75-27.75"/>
	<path fill="none" stroke="#85B8A1" stroke-width="2" stroke-miterlimit="10" d="M63.331,63.952c0,0-5.469-12.084,8.607-16.938"/>
</g>
<g>
	<path fill="#85B8A1" d="M70.366,9.366c34.469,0,62.512,28.043,62.512,62.512c0,34.47-28.043,62.513-62.512,62.513
		c-34.469,0-62.512-28.043-62.512-62.513C7.854,37.409,35.897,9.366,70.366,9.366 M70.366,7.366
		c-35.629,0-64.512,28.883-64.512,64.512c0,35.629,28.883,64.513,64.512,64.513s64.512-28.884,64.512-64.513
		C134.878,36.249,105.995,7.366,70.366,7.366L70.366,7.366z"/>
</g>
</svg>
