<?xml version="1.0" encoding="utf-8"?>
<!-- Generator: Adobe Illustrator 16.0.0, SVG Export Plug-In . SVG Version: 6.00 Build 0)  -->
<!DOCTYPE svg PUBLIC "-//W3C//DTD SVG 1.1//EN" "http://www.w3.org/Graphics/SVG/1.1/DTD/svg11.dtd">
<svg version="1.1" id="Layer_1" xmlns="http://www.w3.org/2000/svg" xmlns:xlink="http://www.w3.org/1999/xlink" x="0px" y="0px"
	 width="30px" height="30px" viewBox="0 0 30 30" enable-background="new 0 0 30 30" xml:space="preserve">
<ellipse fill="none" stroke="#00A5E5" stroke-miterlimit="10" cx="15" cy="15" rx="13.562" ry="13.75"/>
<path fill="#00A5E5" d="M16.113,18.629l1.567,0.492c0,0,0.704,0.314,0.704-0.387v-1.906v-0.107c0,0,0-4.304,0-5.002
	s-0.688-0.397-0.688-0.397l-1.566,0.492"/>
<path fill="#00A5E5" d="M15.37,11.813l-5.969,1.668h-1.41c0,0-0.399-0.048-0.399,0.302c0,0.501,0,2.867,0,2.867
	s-0.013,0.221,0.234,0.221c0.22,0,1.349,0,1.602,0l0.042,0.014l-0.119,0.104c-0.354,1.139,0.328,2.275,1.62,2.686
	c1.292,0.412,2.795-0.158,3.149-1.299l-0.017-0.121l1.267,0.373V11.813z M13.118,17.967c-0.206,0.668-0.989,1.014-1.746,0.773
	c-0.756-0.242-1.192-0.893-0.983-1.561l-0.008-0.025l2.744,0.809L13.118,17.967z"/>
<line fill="none" stroke="#00A5E5" stroke-linecap="round" stroke-linejoin="round" stroke-miterlimit="10" x1="20.312" y1="15.053" x2="22.568" y2="15.053"/>
<line fill="none" stroke="#00A5E5" stroke-linecap="round" stroke-linejoin="round" stroke-miterlimit="10" x1="20.344" y1="12.281" x2="22.442" y2="11.442"/>
<line fill="none" stroke="#00A5E5" stroke-linecap="round" stroke-linejoin="round" stroke-miterlimit="10" x1="20.344" y1="18.018" x2="22.442" y2="18.855"/>
</svg>
