<?xml version="1.0" encoding="utf-8"?>
<!-- Generator: Adobe Illustrator 16.0.0, SVG Export Plug-In . SVG Version: 6.00 Build 0)  -->
<!DOCTYPE svg PUBLIC "-//W3C//DTD SVG 1.1//EN" "http://www.w3.org/Graphics/SVG/1.1/DTD/svg11.dtd">
<svg version="1.1" id="Layer_1" xmlns="http://www.w3.org/2000/svg" xmlns:xlink="http://www.w3.org/1999/xlink" x="0px" y="0px"
	 width="100px" height="100px" viewBox="0 0 100 100" enable-background="new 0 0 100 100" xml:space="preserve">
<path fill="#C8D5E4" d="M218.219,49.527c0-26.509-21.487-47.994-47.99-47.994c-26.507,0-47.992,21.485-47.992,47.994
	c0,26.502,21.485,47.992,47.992,47.992C196.731,97.519,218.219,76.029,218.219,49.527z"/>
<g>
	<defs>
		<path id="SVGID_1_" d="M218.219,49.705c0-26.511-21.487-47.996-47.99-47.996c-26.507,0-47.992,21.485-47.992,47.996
			c0,26.501,21.485,47.99,47.992,47.99C196.731,97.695,218.219,76.206,218.219,49.705z"/>
	</defs>
	<clipPath id="SVGID_2_">
		<use xlink:href="#SVGID_1_"  overflow="visible"/>
	</clipPath>
	<g clip-path="url(#SVGID_2_)">
		<g>
			<g>
				<path fill="#FFFFFF" d="M191.312,32.832c0-11.601-9.396-21.003-21.002-21.003c-11.609,0-21.005,9.402-21.005,21.003
					c0,11.6,9.396,21.008,21.005,21.008C181.917,53.84,191.312,44.432,191.312,32.832z"/>
				<polygon fill="#FFFFFF" points="177.335,77.815 170.229,97.777 163.286,77.815 163.286,62.402 177.335,62.402 				"/>
				<g>
					<path fill="#FFFFFF" d="M170.311,19.689c-6.818,0-17.616,3.884-17.616,22.053c0,10.503,4.087,15.448,5.581,17.349
						c1.375,1.748,8.427,7.412,12.035,7.412C170.311,48.134,170.311,19.689,170.311,19.689z"/>
				</g>
				<g>
					<g>
						<g>
							<path fill="#FFFFFF" d="M170.258,19.689c6.812,0,17.614,3.884,17.614,22.053c0,10.503-4.088,15.448-5.582,17.349
								c-1.374,1.748-8.413,7.412-12.032,7.412C170.258,48.134,170.258,19.689,170.258,19.689z"/>
						</g>
					</g>
				</g>
				<path fill="#FFFFFF" d="M170.229,97.777V78.583c0,0-5.254-1.307-6.408-5.554c-0.551-2.032-0.534-3.675-0.534-3.675
					s-11.473,3.869-14.022,7.868c-2.127,6.347-2.717,20.555-2.717,20.555H170.229z"/>
				<path fill="#FFFFFF" d="M170.229,97.777V78.583c0,0,5.238-1.307,6.392-5.554c0.552-2.032,0.552-3.675,0.552-3.675
					s11.452,3.869,14.004,7.868c2.142,6.347,2.719,20.555,2.719,20.555H170.229z"/>
				<path fill="#FFFFFF" d="M170.311,60.101c2.66,0,4.815-1.628,4.815-3.647h-9.632C165.494,58.473,167.648,60.101,170.311,60.101z"
					/>
			</g>
			<path fill="#FFFFFF" d="M169.32,14.463c-12.471,0-16.273,10.916-16.273,15.955c-4.51,6.285,0.426,11.903,3.902,13.886
				c0-1.174,0-1.599,0-3.095c0-4.068,3.867-7.824,9.684-7.204c5.199,0.563,8.477-2.381,11.236-7.384
				C181.283,19.936,177.036,14.463,169.32,14.463z"/>
			<path fill="#FFFFFF" d="M177.335,24.572c0,0,2.921,11.827,10.892,15.752c1.427-10.632,2.265-8.389,0-13.986
				c-2.26-5.595-10.892-9.761-10.892-9.761V24.572z"/>
		</g>
		<path fill="#FFFFFF" d="M164.98,97.777V81.635l-6.941-12.28c0,0-11.473,3.869-14.021,7.868
			c-2.128,6.347-2.719,20.555-2.719,20.555H164.98z"/>
		<path fill="#FFFFFF" d="M175.475,97.777V81.635l6.943-12.28c0,0,11.454,3.869,14.006,7.868c2.142,6.347,2.719,20.555,2.719,20.555
			H175.475z"/>
		<polygon fill="#FFFFFF" points="168.806,76.642 163.286,66.145 157.273,67.773 161.979,78.315 		"/>
		<polygon fill="#FFFFFF" points="171.171,76.642 176.691,66.145 182.701,67.773 177.996,78.315 		"/>
		<polygon fill="#FFFFFF" points="171.578,76.642 177.335,66.014 183.095,67.773 178.405,78.315 		"/>
		<path fill="none" d="M218.219,49.705c0-26.517-21.487-47.996-47.99-47.996c-26.507,0-47.992,21.479-47.992,47.996
			c0,26.501,21.485,47.99,47.992,47.99C196.731,97.695,218.219,76.206,218.219,49.705z"/>
		<path fill="#FFFFFF" d="M170.311,23.048c0,0,5.639,3.718,21.002,9.784c-1.684,16.87,2.582,24.866,2.582,24.866h-48.551
			c0,0,5.082-5.026,3.962-24.866l21.725-9.784"/>
	</g>
</g>
<g>
	<g>
		<path fill="#C8D5E4" d="M97.942,49.658c0-26.491-21.461-47.949-47.94-47.949c-26.485,0-47.946,21.458-47.946,47.949
			c0,26.476,21.461,47.943,47.946,47.943C76.481,97.602,97.942,76.134,97.942,49.658z"/>
	</g>
	<g>
		<defs>
			<path id="SVGID_3_" d="M97.942,49.834c0-26.493-21.461-47.949-47.94-47.949c-26.485,0-47.946,21.456-47.946,47.949
				c0,26.478,21.461,47.943,47.946,47.943C76.481,97.777,97.942,76.312,97.942,49.834z"/>
		</defs>
		<clipPath id="SVGID_4_">
			<use xlink:href="#SVGID_3_"  overflow="visible"/>
		</clipPath>
		<g clip-path="url(#SVGID_4_)">
			<g>
				<rect x="42.984" y="61.919" fill="#FFFFFF" width="14.036" height="15.392"/>
				<path fill="#FFFFFF" d="M58.718,71.097c0,0,13.347,1.95,15.326,4.003c1.724,1.793,5.283,18.914,6.109,22.678
					c-23.439,0-30.151,0-30.151,0V71.823L58.718,71.097z"/>
				<g>
					<path fill="#FFFFFF" d="M50.002,17.867c6.813,0,17.601,3.876,17.601,22.035c0,10.486-3.417,17.351-4.912,19.258
						c-1.371,1.744-9.072,5.468-12.688,5.468C50.002,46.274,50.002,17.867,50.002,17.867z"/>
					<path fill="#FFFFFF" d="M70.988,44.231c0.296-2.897-1.091-5.482-3.085-5.758c-2.015-0.273-3.882,1.856-4.183,4.758
						c-0.285,2.902,1.081,5.482,3.096,5.758C68.821,49.263,70.683,47.133,70.988,44.231z"/>
				</g>
				<g>
					<path fill="#FFFFFF" d="M50.002,17.867c-6.814,0-17.601,3.876-17.601,22.035c0,10.486,3.412,17.351,4.911,19.258
						c1.367,1.744,9.068,5.468,12.689,5.468C50.002,46.274,50.002,17.867,50.002,17.867z"/>
					<path fill="#FFFFFF" d="M29.005,44.231c-0.301-2.897,1.081-5.482,3.09-5.758c2.004-0.273,3.881,1.856,4.182,4.758
						s-1.081,5.482-3.091,5.758C31.183,49.263,29.306,47.133,29.005,44.231z"/>
				</g>
				<path fill="#FFFFFF" d="M41.271,71.097c0,0-13.352,1.95-15.311,4.003c-1.729,1.793-5.294,18.914-6.125,22.678
					c23.45,0,30.167,0,30.167,0V71.823L41.271,71.097z"/>
				<polygon fill="#FFFFFF" points="50.002,71.354 42.382,68.289 40.505,70.125 44.29,78.606 				"/>
				<polygon fill="#FFFFFF" points="50.002,71.354 57.616,68.289 59.493,70.125 55.698,78.606 				"/>
			</g>
			<path fill="#FFFFFF" d="M67.984,38.907c0,0,5.759-23.693-18.105-23.693c-24.001,0-17.973,22.974-17.973,22.974
				s3.279-1.882,3.279,6.513c1.3,0,0.602,0,0.602,0s1.153-5.63,1.505-10.672c8.44,0,15.913-1.084,22.19-6.278
				c3.55,0,4.045,4.439,4.045,7.834l-1.561,0.604c0,0,1.51,2.958,1.616,8.512c1.081,0,1.081,0,1.081,0S64.512,35.439,67.984,38.907z
				"/>
			<path fill="#FFFFFF" d="M50.002,57.782c3.177,0,5.753-1.056,5.753-2.346H44.244C44.244,56.727,46.824,57.782,50.002,57.782z"/>
			<path fill="none" d="M97.942,49.834c0-26.493-21.461-47.949-47.94-47.949c-26.485,0-47.946,21.456-47.946,47.949
				c0,26.478,21.461,47.943,47.946,47.943C76.481,97.777,97.942,76.312,97.942,49.834z"/>
			<path fill="#FFFFFF" d="M38.894,41.248h-6.492c0,0-2.841-7.931-0.24-15.463c2.601-7.533,6.023-8.237,6.676-11.067
				c0,0,1.922,1.321,4.59,0.887c6.773-1.104,11.623,0.418,11.623,0.418L38.894,41.248z"/>
		</g>
	</g>
</g>
</svg>
