<?xml version="1.0" encoding="utf-8"?>
<!-- Generator: Adobe Illustrator 16.0.0, SVG Export Plug-In . SVG Version: 6.00 Build 0)  -->
<!DOCTYPE svg PUBLIC "-//W3C//DTD SVG 1.1//EN" "http://www.w3.org/Graphics/SVG/1.1/DTD/svg11.dtd">
<svg version="1.1" id="Layer_1" xmlns="http://www.w3.org/2000/svg" xmlns:xlink="http://www.w3.org/1999/xlink" x="0px" y="0px"
	 width="30px" height="30px" viewBox="0 0 30 30" enable-background="new 0 0 30 30" xml:space="preserve">
<path fill-rule="evenodd" clip-rule="evenodd" fill="#2C3962" d="M24.358,9.934c0,0.944-0.146,1.857-0.333,2.766
	c-0.249,1.195-0.556,2.378-0.969,3.528c-0.319,0.891-0.705,1.767-1.148,2.609c-1.236,2.344-2.519,4.664-3.785,6.99
	c-0.36,0.659-0.713,1.322-1.099,1.965c-0.29,0.484-0.66,0.915-1.169,1.219c-0.582,0.346-1.149,0.321-1.698-0.063
	c-0.547-0.382-0.917-0.9-1.25-1.446c-0.892-1.454-1.653-2.972-2.394-4.497c-0.622-1.279-1.241-2.56-1.817-3.856
	c-0.677-1.517-1.325-3.045-1.949-4.582c-0.387-0.95-0.671-1.933-0.874-2.934c-0.239-1.158-0.315-2.325-0.139-3.495
	c0.195-1.314,0.725-2.499,1.6-3.543c1.042-1.241,2.316-2.207,3.84-2.87c0.819-0.354,1.671-0.605,2.575-0.674
	C14.098,1.023,14.444,0.991,14.792,1c0.79,0.02,1.551,0.196,2.294,0.447c1.771,0.601,3.3,1.55,4.58,2.851
	c1.036,1.05,1.854,2.234,2.384,3.582C24.314,8.544,24.372,9.245,24.358,9.934z M19.255,20.874c0.092-0.093,0.152-0.134,0.182-0.193
	c0.133-0.238,0.257-0.481,0.385-0.725c0.11-0.204,0.075-0.39-0.064-0.57c-0.082-0.105-0.148-0.222-0.201-0.341
	c-0.324-0.708-0.644-1.417-0.961-2.128c-0.1-0.22-0.199-0.441-0.285-0.666c-0.044-0.115-0.062-0.232,0.069-0.326
	c0.138-0.095,0.265-0.056,0.359,0.036c0.112,0.109,0.229,0.236,0.288,0.376c0.381,0.878,0.746,1.761,1.115,2.643
	c0.068,0.157,0.122,0.175,0.237,0.042c0.112-0.132,0.201-0.284,0.308-0.427c0.097-0.128,0.1-0.261,0.029-0.397
	c-0.205-0.405-0.434-0.799-0.626-1.208c-0.338-0.702-0.656-1.411-0.98-2.118c-0.125-0.278-0.049-0.56,0.184-0.698
	c0.171-0.1,0.291-0.086,0.392,0.078c0.082,0.135,0.151,0.28,0.199,0.427c0.25,0.785,0.486,1.571,0.739,2.355
	c0.083,0.258,0.201,0.506,0.31,0.755c0.045,0.11,0.129,0.117,0.199,0.027c0.093-0.114,0.181-0.237,0.259-0.36
	c0.243-0.397,0.248-0.771-0.038-1.174c-0.226-0.314-0.397-0.671-0.553-1.027c-0.162-0.375-0.26-0.776-0.416-1.155
	c-0.183-0.439-0.398-0.87-0.598-1.304c-0.105-0.231-0.019-0.397,0.241-0.403c0.098-0.003,0.231,0.063,0.294,0.14
	c0.159,0.196,0.342,0.4,0.424,0.629c0.269,0.745,0.497,1.503,0.738,2.256c0.072,0.23,0.131,0.463,0.21,0.691
	c0.017,0.057,0.083,0.099,0.125,0.146c0.039-0.047,0.086-0.09,0.112-0.144c0.048-0.104,0.082-0.215,0.129-0.321
	c0.179-0.414,0.238-0.82,0.047-1.258c-0.249-0.574-0.449-1.165-0.692-1.742c-0.31-0.735-0.643-1.462-0.961-2.192
	c-0.042-0.092-0.071-0.191-0.081-0.285c-0.01-0.119,0.05-0.216,0.174-0.261c0.117-0.046,0.204,0.011,0.276,0.089
	c0.05,0.056,0.101,0.118,0.127,0.184c0.225,0.539,0.47,1.068,0.657,1.618c0.271,0.794,0.496,1.601,0.744,2.401
	c0.012,0.039,0.041,0.073,0.075,0.125c0.034-0.044,0.055-0.061,0.066-0.082c0.021-0.036,0.047-0.074,0.056-0.114
	c0.113-0.441,0.207-0.886,0.343-1.32c0.079-0.248-0.018-0.422-0.163-0.602c-0.138-0.169-0.277-0.336-0.41-0.514
	c-0.091-0.124-0.19-0.25-0.237-0.39c-0.166-0.487-0.295-0.983-0.463-1.468c-0.194-0.552-0.333-1.136-0.858-1.523
	c-0.009-0.005-0.014-0.016-0.02-0.024c-0.091-0.118-0.065-0.188,0.082-0.232c0.246-0.075,0.56,0.015,0.71,0.25
	c0.163,0.252,0.305,0.521,0.417,0.797c0.277,0.696,0.53,1.401,0.804,2.099c0.07,0.181,0.181,0.347,0.273,0.519
	c0.019-0.006,0.04-0.011,0.058-0.016c0.01-0.069,0.031-0.14,0.029-0.208c-0.009-0.387-0.025-0.774-0.034-1.16
	c-0.011-0.43-0.065-0.842-0.262-1.247c-0.446-0.918-0.815-1.869-1.38-2.735c-0.1-0.152-0.144-0.317,0.006-0.479
	c0.031-0.033,0.031-0.127,0.002-0.166c-0.196-0.278-0.381-0.567-0.609-0.818c-1.445-1.587-3.241-2.548-5.48-2.738
	c-1.495-0.128-2.924,0.063-4.292,0.647c-1.21,0.514-2.186,1.299-2.917,2.344C7.38,6.383,6.995,7.609,6.863,8.904
	c-0.122,1.202-0.022,2.393,0.27,3.568c0.247,0.986,0.583,1.949,1.01,2.877c0.624,1.351,1.273,2.693,1.928,4.034
	c1.052,2.158,2.116,4.312,3.173,6.467c0.095,0.195,0.193,0.393,0.29,0.584c0.031-0.047,0.041-0.089,0.031-0.125
	c-0.164-0.558-0.334-1.115-0.489-1.674c-0.104-0.368-0.194-0.742-0.268-1.113c-0.026-0.124-0.008-0.265,0.03-0.384
	c0.064-0.184,0.271-0.202,0.383-0.042c0.063,0.09,0.119,0.192,0.146,0.297c0.124,0.48,0.248,0.963,0.354,1.449
	c0.138,0.638,0.242,1.285,0.389,1.922c0.077,0.334,0.184,0.668,0.325,0.981c0.108,0.239,0.333,0.391,0.638,0.367
	c0.208-0.016,0.267-0.11,0.18-0.284c-0.029-0.063-0.059-0.123-0.096-0.18c-0.318-0.459-0.475-0.979-0.587-1.505
	c-0.118-0.567-0.158-1.149-0.277-1.716c-0.107-0.516-0.273-1.021-0.42-1.527c-0.036-0.119,0-0.218,0.13-0.255
	c0.17-0.048,0.349,0.006,0.428,0.18c0.112,0.241,0.208,0.494,0.265,0.753c0.095,0.433,0.152,0.875,0.232,1.312
	c0.096,0.534,0.191,1.073,0.308,1.604c0.073,0.329,0.169,0.658,0.276,0.981c0.083,0.245,0.208,0.263,0.408,0.077
	c0.381-0.35,0.451-0.743,0.288-1.229c-0.247-0.73-0.428-1.478-0.643-2.217c-0.169-0.58-0.346-1.153-0.511-1.731
	c-0.061-0.202-0.11-0.405-0.136-0.611c-0.008-0.073,0.05-0.208,0.104-0.223c0.081-0.02,0.207,0.017,0.279,0.071
	c0.085,0.064,0.143,0.17,0.194,0.268c0.43,0.81,0.567,1.694,0.735,2.573c0.098,0.515,0.187,1.031,0.281,1.546
	c0.014,0.059,0.06,0.117,0.089,0.176c0.062-0.037,0.146-0.062,0.18-0.117c0.2-0.315,0.401-0.635,0.575-0.964
	c0.123-0.231,0.062-0.449-0.082-0.679c-0.283-0.46-0.506-0.948-0.641-1.471c-0.152-0.588-0.296-1.176-0.558-1.735
	c-0.105-0.22-0.129-0.449-0.042-0.686c0.077-0.213,0.302-0.267,0.466-0.104c0.056,0.051,0.104,0.114,0.129,0.182
	c0.094,0.259,0.193,0.521,0.261,0.789c0.168,0.685,0.31,1.379,0.481,2.062c0.055,0.217,0.159,0.423,0.255,0.625
	c0.063,0.127,0.128,0.123,0.216,0.009c0.054-0.072,0.109-0.145,0.163-0.219c0.168-0.24,0.224-0.506,0.139-0.778
	c-0.198-0.63-0.418-1.255-0.617-1.884c-0.212-0.664-0.438-1.322-0.766-1.945c-0.067-0.131-0.04-0.251,0.081-0.336
	c0.122-0.089,0.261-0.09,0.385,0.003c0.073,0.06,0.138,0.135,0.187,0.216c0.316,0.533,0.504,1.107,0.609,1.711
	c0.084,0.473,0.186,0.943,0.29,1.412c0.022,0.108,0.078,0.208,0.136,0.352c0.08-0.094,0.144-0.143,0.169-0.205
	c0.14-0.327,0.273-0.659,0.396-0.993c0.042-0.109,0.035-0.229-0.073-0.319c-0.472-0.392-0.602-0.938-0.708-1.48
	c-0.107-0.536-0.172-1.077-0.507-1.542c-0.036-0.056-0.049-0.128-0.063-0.193c-0.038-0.172,0.06-0.384,0.191-0.436
	c0.118-0.047,0.253,0.021,0.38,0.191c0.213,0.29,0.303,0.624,0.384,0.963c0.142,0.572,0.269,1.148,0.416,1.723
	C19.077,20.499,19.165,20.66,19.255,20.874z"/>
<path fill-rule="evenodd" clip-rule="evenodd" fill="#FFFFFF" d="M19.255,20.874c-0.09-0.214-0.178-0.375-0.223-0.547
	c-0.147-0.574-0.274-1.15-0.416-1.723c-0.081-0.339-0.171-0.673-0.384-0.963c-0.127-0.171-0.262-0.238-0.38-0.191
	c-0.132,0.052-0.229,0.264-0.191,0.436c0.015,0.065,0.027,0.138,0.063,0.193c0.335,0.465,0.399,1.006,0.507,1.542
	c0.106,0.543,0.236,1.089,0.708,1.48c0.108,0.09,0.115,0.21,0.073,0.319c-0.123,0.334-0.257,0.666-0.396,0.993
	c-0.025,0.062-0.089,0.111-0.169,0.205c-0.058-0.144-0.113-0.243-0.136-0.352c-0.104-0.469-0.206-0.939-0.29-1.412
	c-0.105-0.604-0.293-1.178-0.609-1.711c-0.049-0.081-0.113-0.156-0.187-0.216c-0.124-0.093-0.263-0.092-0.385-0.003
	c-0.121,0.085-0.148,0.205-0.081,0.336c0.327,0.623,0.554,1.281,0.766,1.945c0.199,0.629,0.419,1.254,0.617,1.884
	c0.085,0.272,0.029,0.538-0.139,0.778c-0.054,0.074-0.109,0.146-0.163,0.219c-0.088,0.114-0.152,0.118-0.216-0.009
	c-0.096-0.202-0.2-0.408-0.255-0.625c-0.172-0.684-0.313-1.378-0.481-2.062c-0.067-0.269-0.167-0.53-0.261-0.789
	c-0.024-0.067-0.073-0.131-0.129-0.182c-0.164-0.163-0.389-0.109-0.466,0.104c-0.087,0.236-0.063,0.466,0.042,0.686
	c0.262,0.56,0.405,1.147,0.558,1.735c0.135,0.522,0.357,1.011,0.641,1.471c0.145,0.229,0.205,0.447,0.082,0.679
	c-0.174,0.329-0.375,0.648-0.575,0.964c-0.033,0.056-0.118,0.08-0.18,0.117c-0.029-0.059-0.075-0.117-0.089-0.176
	c-0.095-0.515-0.184-1.031-0.281-1.546c-0.168-0.879-0.305-1.764-0.735-2.573c-0.051-0.098-0.109-0.203-0.194-0.268
	c-0.072-0.055-0.198-0.091-0.279-0.071c-0.055,0.015-0.112,0.149-0.104,0.223c0.026,0.206,0.075,0.409,0.136,0.611
	c0.165,0.578,0.342,1.151,0.511,1.731c0.215,0.739,0.396,1.486,0.643,2.217c0.163,0.485,0.094,0.879-0.288,1.229
	c-0.2,0.186-0.325,0.168-0.408-0.077c-0.107-0.323-0.204-0.652-0.276-0.981c-0.117-0.531-0.211-1.07-0.308-1.604
	c-0.081-0.437-0.138-0.879-0.232-1.312c-0.057-0.259-0.152-0.512-0.265-0.753c-0.079-0.174-0.257-0.228-0.428-0.18
	c-0.13,0.037-0.166,0.136-0.13,0.255c0.146,0.507,0.313,1.012,0.42,1.527c0.119,0.566,0.159,1.148,0.277,1.716
	c0.112,0.526,0.269,1.046,0.587,1.505c0.038,0.057,0.067,0.116,0.096,0.18c0.086,0.174,0.027,0.269-0.18,0.284
	c-0.306,0.023-0.53-0.128-0.638-0.367c-0.142-0.313-0.249-0.647-0.325-0.981c-0.146-0.637-0.251-1.284-0.389-1.922
	c-0.107-0.486-0.231-0.969-0.354-1.449c-0.027-0.104-0.083-0.207-0.146-0.297c-0.112-0.16-0.319-0.142-0.383,0.042
	c-0.039,0.119-0.056,0.26-0.03,0.384c0.074,0.371,0.165,0.745,0.268,1.113c0.155,0.559,0.325,1.116,0.489,1.674
	c0.009,0.036,0,0.078-0.031,0.125c-0.097-0.191-0.194-0.389-0.29-0.584c-1.058-2.155-2.122-4.309-3.173-6.467
	c-0.655-1.341-1.304-2.683-1.928-4.034c-0.427-0.928-0.763-1.891-1.01-2.877c-0.292-1.175-0.392-2.366-0.27-3.568
	C6.995,7.609,7.38,6.383,8.146,5.289c0.731-1.045,1.706-1.83,2.917-2.344c1.368-0.584,2.797-0.775,4.292-0.647
	c2.239,0.19,4.035,1.151,5.48,2.738c0.229,0.251,0.413,0.54,0.609,0.818c0.029,0.039,0.029,0.132-0.002,0.166
	c-0.149,0.162-0.105,0.327-0.006,0.479c0.564,0.866,0.934,1.816,1.38,2.735c0.196,0.404,0.251,0.817,0.262,1.247
	c0.009,0.386,0.025,0.773,0.034,1.16c0.002,0.068-0.02,0.139-0.029,0.208c-0.018,0.005-0.039,0.01-0.058,0.016
	c-0.093-0.172-0.203-0.337-0.273-0.519c-0.273-0.698-0.526-1.403-0.804-2.099c-0.112-0.276-0.254-0.545-0.417-0.797
	c-0.15-0.235-0.464-0.325-0.71-0.25c-0.147,0.044-0.173,0.114-0.082,0.232c0.006,0.008,0.011,0.019,0.02,0.024
	c0.525,0.388,0.664,0.972,0.858,1.523c0.168,0.484,0.297,0.98,0.463,1.468c0.047,0.14,0.146,0.266,0.237,0.39
	c0.133,0.178,0.272,0.344,0.41,0.514c0.146,0.18,0.242,0.354,0.163,0.602c-0.136,0.435-0.229,0.879-0.343,1.32
	c-0.009,0.04-0.035,0.078-0.056,0.114c-0.012,0.021-0.032,0.038-0.066,0.082c-0.034-0.051-0.063-0.086-0.075-0.125
	c-0.248-0.8-0.474-1.606-0.744-2.401c-0.188-0.549-0.433-1.079-0.657-1.618c-0.026-0.066-0.077-0.128-0.127-0.184
	c-0.072-0.078-0.159-0.135-0.276-0.089c-0.124,0.045-0.184,0.142-0.174,0.261c0.01,0.094,0.039,0.193,0.081,0.285
	c0.318,0.73,0.651,1.457,0.961,2.192c0.243,0.577,0.443,1.168,0.692,1.742c0.191,0.438,0.132,0.845-0.047,1.258
	c-0.047,0.106-0.081,0.218-0.129,0.321c-0.026,0.054-0.073,0.097-0.112,0.144c-0.042-0.048-0.108-0.09-0.125-0.146
	c-0.079-0.228-0.138-0.461-0.21-0.691c-0.241-0.752-0.47-1.511-0.738-2.256c-0.082-0.229-0.265-0.433-0.424-0.629
	c-0.062-0.076-0.196-0.143-0.294-0.14c-0.26,0.006-0.347,0.172-0.241,0.403c0.199,0.435,0.415,0.865,0.598,1.304
	c0.156,0.378,0.254,0.78,0.416,1.155c0.155,0.356,0.327,0.712,0.553,1.027c0.286,0.403,0.281,0.776,0.038,1.174
	c-0.078,0.123-0.166,0.246-0.259,0.36c-0.07,0.09-0.154,0.083-0.199-0.027c-0.108-0.249-0.227-0.497-0.31-0.755
	c-0.253-0.784-0.489-1.57-0.739-2.355c-0.048-0.147-0.117-0.292-0.199-0.427c-0.101-0.164-0.221-0.178-0.392-0.078
	c-0.232,0.139-0.309,0.42-0.184,0.698c0.324,0.708,0.643,1.416,0.98,2.118c0.192,0.409,0.421,0.803,0.626,1.208
	c0.07,0.137,0.067,0.27-0.029,0.397c-0.106,0.143-0.195,0.295-0.308,0.427c-0.115,0.133-0.169,0.115-0.237-0.042
	c-0.369-0.882-0.734-1.765-1.115-2.643c-0.059-0.14-0.176-0.267-0.288-0.376c-0.095-0.092-0.222-0.131-0.359-0.036
	c-0.131,0.094-0.113,0.211-0.069,0.326c0.086,0.225,0.186,0.446,0.285,0.666c0.317,0.711,0.637,1.42,0.961,2.128
	c0.053,0.119,0.119,0.235,0.201,0.341c0.14,0.181,0.175,0.366,0.064,0.57c-0.128,0.243-0.252,0.486-0.385,0.725
	C19.407,20.74,19.347,20.781,19.255,20.874z M15.214,10.681c0.155-0.017,0.426-0.032,0.69-0.088
	c0.549-0.114,1.008-0.371,1.323-0.823c0.621-0.892,0.413-2.18-0.457-2.874c-0.571-0.456-1.239-0.683-1.975-0.729
	c-0.72-0.046-1.346,0.165-1.75,0.756c-0.413,0.603-0.672,1.269-0.698,1.997c-0.023,0.62,0.257,1.087,0.852,1.375
	C13.795,10.583,14.44,10.65,15.214,10.681z M8.152,7.787C8.138,7.788,8.121,7.788,8.102,7.79c0.05,0.392,0.083,0.789,0.157,1.176
	C8.28,9.081,8.397,9.208,8.511,9.269C8.592,9.314,8.756,9.29,8.844,9.237C8.99,9.146,9.01,8.976,8.961,8.826
	C8.825,8.391,8.827,7.947,8.862,7.503c0.037-0.529,0.222-1.009,0.639-1.387c0.456-0.412,0.912-0.822,1.366-1.236
	c0.087-0.08,0.175-0.163,0.238-0.258c0.089-0.126,0.017-0.252-0.146-0.238c-0.12,0.01-0.249,0.048-0.357,0.101
	C10.118,4.726,9.71,5.069,9.33,5.43C9.042,5.702,8.772,5.997,8.532,6.306C8.191,6.742,8.142,7.261,8.152,7.787z"/>
<path fill-rule="evenodd" clip-rule="evenodd" fill="#2C3962" d="M15.214,10.681c-0.774-0.031-1.418-0.097-2.016-0.386
	c-0.595-0.288-0.875-0.754-0.852-1.375c0.026-0.728,0.285-1.395,0.698-1.997c0.404-0.592,1.031-0.803,1.75-0.756
	c0.735,0.047,1.403,0.274,1.975,0.729c0.87,0.694,1.078,1.982,0.457,2.874c-0.314,0.452-0.773,0.709-1.323,0.823
	C15.64,10.649,15.369,10.664,15.214,10.681z M15.1,9.671c0.415,0.015,0.788-0.101,1.086-0.393c0.471-0.462,0.437-1.113-0.103-1.469
	c-0.193-0.128-0.425-0.229-0.653-0.284c-0.328-0.078-0.659-0.126-0.923-0.346c-0.002-0.002-0.01-0.008-0.01-0.008
	c-0.091,0.007-0.191-0.008-0.262,0.027c-0.08,0.043-0.148,0.125-0.203,0.2c-0.26,0.36-0.373,0.766-0.392,1.196
	c-0.015,0.345,0.154,0.614,0.445,0.809C14.387,9.604,14.729,9.675,15.1,9.671z"/>
<path fill-rule="evenodd" clip-rule="evenodd" fill="#2C3962" d="M8.152,7.787c-0.011-0.525,0.039-1.045,0.379-1.48
	c0.24-0.31,0.51-0.604,0.798-0.876c0.38-0.361,0.788-0.705,1.273-0.944c0.109-0.053,0.237-0.091,0.357-0.101
	c0.162-0.014,0.235,0.112,0.146,0.238c-0.063,0.095-0.151,0.178-0.238,0.258c-0.454,0.414-0.911,0.824-1.366,1.236
	C9.084,6.495,8.899,6.974,8.862,7.503C8.827,7.947,8.825,8.391,8.961,8.826c0.048,0.15,0.029,0.32-0.117,0.411
	C8.756,9.29,8.592,9.314,8.511,9.269C8.397,9.208,8.28,9.081,8.259,8.966C8.184,8.579,8.151,8.182,8.102,7.79
	C8.121,7.788,8.138,7.788,8.152,7.787z"/>
</svg>
