<?xml version="1.0" encoding="utf-8"?>
<!-- Generator: Adobe Illustrator 16.0.0, SVG Export Plug-In . SVG Version: 6.00 Build 0)  -->
<!DOCTYPE svg PUBLIC "-//W3C//DTD SVG 1.1//EN" "http://www.w3.org/Graphics/SVG/1.1/DTD/svg11.dtd">
<svg version="1.1" id="Layer_1" xmlns="http://www.w3.org/2000/svg" xmlns:xlink="http://www.w3.org/1999/xlink" x="0px" y="0px"
	 width="30px" height="30px" viewBox="0 0 30 30" enable-background="new 0 0 30 30" xml:space="preserve">
<g>
	<circle fill="#91CD94" cx="15" cy="14.877" r="14.448"/>
	<path fill-rule="evenodd" clip-rule="evenodd" fill="#7EB381" d="M4.688,15.095c0.042-1.81,0.689-3.375,1.903-4.713
		c0.847-0.933,1.881-1.604,3.024-2.109c0.705-0.312,1.414-0.624,2.144-0.873c1.245-0.424,2.53-0.593,3.85-0.498
		c0.7,0.051,1.396,0.125,2.078,0.292c0.843,0.207,1.639,0.535,2.372,1.008c1.208,0.781,2.308,1.692,3.278,2.753
		c0.501,0.546,0.835,1.186,0.973,1.918c0.101,0.528,0.138,1.057,0.047,1.59c-0.098,0.569-0.161,1.143-0.278,1.708
		c-0.169,0.816-0.373,1.633-0.905,2.301c-0.298,0.372-0.665,0.692-1.009,1.028c-0.176,0.17-0.368,0.325-0.548,0.491
		c-0.042,0.039-0.09,0.09-0.097,0.142c-0.111,0.857-0.218,1.715-0.324,2.573c-0.015,0.105-0.025,0.212-0.054,0.313
		c-0.067,0.241-0.241,0.341-0.465,0.226c-0.245-0.124-0.484-0.271-0.694-0.446c-0.253-0.212-0.475-0.462-0.708-0.696
		c-0.076-0.075-0.15-0.152-0.226-0.23c-0.258-0.263-0.547-0.36-0.939-0.349c-1.164,0.028-2.331,0.021-3.495-0.031
		c-0.764-0.035-1.537-0.124-2.285-0.283c-0.848-0.177-1.684-0.429-2.508-0.705c-0.965-0.323-1.883-0.768-2.739-1.329
		c-0.81-0.532-1.519-1.161-1.957-2.048C4.81,16.489,4.671,15.81,4.688,15.095z M20.243,21.53c0.018-0.004,0.036-0.006,0.057-0.009
		c0.021-0.07,0.054-0.137,0.061-0.205c0.046-0.5,0.068-1.004,0.134-1.501c0.07-0.553,0.175-0.778,0.806-0.754
		c0.224,0.009,0.381-0.058,0.517-0.217c0.045-0.054,0.097-0.1,0.139-0.155c0.936-1.221,1.504-2.577,1.479-4.138
		c-0.008-0.452-0.072-0.904-0.118-1.355c-0.061-0.587-0.245-1.133-0.561-1.635c-0.663-1.056-1.601-1.81-2.683-2.393
		c-0.878-0.476-1.807-0.836-2.758-1.136c-0.658-0.208-1.332-0.365-2.029-0.339C14.84,7.71,14.392,7.76,13.948,7.815
		c-0.838,0.107-1.656,0.316-2.45,0.599c-1.243,0.44-2.38,1.072-3.397,1.913c-0.493,0.408-0.998,0.805-1.358,1.35
		c-0.621,0.938-0.956,1.974-1.065,3.084c-0.086,0.877,0.112,1.689,0.649,2.4c0.386,0.511,0.902,0.872,1.433,1.219
		c1.051,0.684,2.179,1.189,3.393,1.492c0.734,0.187,1.475,0.354,2.221,0.474c0.854,0.135,1.716,0.238,2.576,0.301
		c0.98,0.066,1.961,0.02,2.897-0.316c0.254-0.093,0.405-0.016,0.551,0.164c0.213,0.268,0.426,0.537,0.64,0.802
		C20.102,21.378,20.172,21.453,20.243,21.53z"/>
	<path fill-rule="evenodd" clip-rule="evenodd" fill="#FFFFFF" d="M20.243,21.53c-0.071-0.077-0.142-0.152-0.208-0.234
		c-0.214-0.265-0.427-0.534-0.64-0.802c-0.146-0.18-0.297-0.257-0.551-0.164c-0.937,0.336-1.917,0.383-2.897,0.316
		c-0.86-0.062-1.721-0.166-2.576-0.301c-0.746-0.119-1.487-0.287-2.221-0.474c-1.213-0.303-2.341-0.809-3.393-1.492
		c-0.531-0.347-1.046-0.708-1.433-1.219c-0.537-0.711-0.735-1.523-0.649-2.4c0.109-1.11,0.444-2.146,1.065-3.084
		c0.36-0.544,0.866-0.941,1.358-1.35c1.018-0.841,2.155-1.473,3.397-1.913c0.794-0.283,1.612-0.492,2.45-0.599
		c0.444-0.056,0.892-0.105,1.338-0.123c0.698-0.026,1.371,0.131,2.029,0.339c0.951,0.299,1.88,0.66,2.758,1.136
		c1.082,0.583,2.02,1.337,2.683,2.393c0.315,0.502,0.5,1.048,0.561,1.635c0.046,0.451,0.11,0.903,0.118,1.355
		c0.024,1.561-0.544,2.917-1.479,4.138c-0.042,0.056-0.094,0.102-0.139,0.155c-0.136,0.159-0.293,0.226-0.517,0.217
		c-0.631-0.024-0.735,0.201-0.806,0.754c-0.065,0.497-0.088,1.001-0.134,1.501c-0.007,0.068-0.04,0.135-0.061,0.205
		C20.279,21.524,20.261,21.526,20.243,21.53z M9.399,15.585c-0.606,0-1.017-0.001-1.428,0.002c-0.096,0.001-0.194,0.011-0.284,0.04
		c-0.185,0.059-0.26,0.18-0.236,0.365c0.021,0.17,0.148,0.24,0.293,0.238c0.31-0.007,0.617-0.026,0.924-0.063
		c0.743-0.088,1.481-0.193,2.225-0.286c0.642-0.08,1.284-0.158,1.926-0.223c0.847-0.084,1.693-0.154,2.541-0.222
		c0.826-0.064,1.652-0.118,2.479-0.172c0.668-0.045,1.335-0.077,2.002-0.127c0.09-0.008,0.191-0.067,0.255-0.134
		c0.044-0.045,0.062-0.158,0.034-0.216c-0.025-0.054-0.12-0.096-0.188-0.103c-0.122-0.012-0.247,0.001-0.368,0.014
		c-0.776,0.078-1.551,0.164-2.329,0.237c-1.255,0.119-2.511,0.236-3.769,0.339C12.054,15.392,10.631,15.492,9.399,15.585z
		 M16.045,12.721c-0.752,0-1.326-0.026-1.896,0.005c-1.12,0.063-2.238,0.152-3.357,0.239c-0.275,0.021-0.55,0.07-0.821,0.125
		c-0.185,0.038-0.238,0.15-0.21,0.316c0.03,0.187,0.161,0.151,0.281,0.137c0.552-0.065,1.101-0.147,1.653-0.198
		c0.804-0.073,1.61-0.122,2.414-0.181c0.66-0.049,1.32-0.104,1.982-0.146c0.875-0.058,1.75-0.097,2.625-0.159
		c0.573-0.04,1.146-0.108,1.72-0.161c0.104-0.009,0.178-0.041,0.18-0.159c0.003-0.125-0.071-0.178-0.182-0.169
		c-0.19,0.016-0.382,0.052-0.572,0.066C18.531,12.537,17.198,12.636,16.045,12.721z M14.289,17.644c0-0.015,0-0.03-0.001-0.045
		c-0.64,0-1.283-0.002-1.923,0c-0.101,0.002-0.203,0.011-0.303,0.017c-0.183,0.014-0.286,0.124-0.342,0.29
		c-0.065,0.189,0.008,0.317,0.206,0.313c0.211-0.007,0.424-0.04,0.636-0.06c0.812-0.082,1.623-0.193,2.438-0.237
		c0.691-0.039,1.388-0.002,2.081,0.007c0.288,0.003,0.575,0.032,0.862,0.031c0.181-0.003,0.343-0.229,0.323-0.414
		c-0.016-0.149-0.089-0.188-0.337-0.159c-0.303,0.034-0.603,0.098-0.905,0.116C16.113,17.559,15.202,17.597,14.289,17.644z
		 M17.242,10.594c-0.004-0.025-0.005-0.05-0.007-0.075c-0.173-0.02-0.344-0.053-0.516-0.055c-1.838-0.025-3.675-0.045-5.513-0.062
		c-0.197-0.002-0.395,0.02-0.59,0.049c-0.247,0.036-0.304,0.203-0.145,0.397c0.115,0.142,0.276,0.187,0.443,0.175
		c0.441-0.032,0.88-0.091,1.322-0.117c0.906-0.054,1.813-0.091,2.721-0.14c0.692-0.037,1.385-0.082,2.078-0.125
		C17.107,10.638,17.172,10.61,17.242,10.594z M22.595,13.411c-0.013-0.001-0.024-0.003-0.038-0.004c0-0.07-0.001-0.141,0.002-0.209
		c0.022-0.687-0.17-1.307-0.597-1.848c-0.142-0.18-0.321-0.317-0.549-0.362c-0.072-0.013-0.18,0.008-0.229,0.057
		c-0.038,0.041-0.045,0.159-0.016,0.215c0.079,0.149,0.175,0.292,0.283,0.421c0.31,0.369,0.502,0.79,0.585,1.262
		c0.106,0.598,0.052,1.19-0.05,1.783c-0.016,0.086-0.014,0.186,0.017,0.265c0.061,0.158,0.19,0.172,0.29,0.037
		c0.055-0.075,0.106-0.167,0.12-0.256C22.48,14.319,22.535,13.865,22.595,13.411z"/>
	<path fill-rule="evenodd" clip-rule="evenodd" fill="#7EB381" d="M9.399,15.585c1.231-0.093,2.654-0.193,4.076-0.311
		c1.258-0.103,2.514-0.22,3.769-0.339c0.778-0.073,1.553-0.159,2.329-0.237c0.121-0.013,0.246-0.026,0.368-0.014
		c0.068,0.007,0.163,0.049,0.188,0.103c0.027,0.058,0.01,0.17-0.034,0.216c-0.063,0.066-0.165,0.126-0.255,0.134
		c-0.667,0.05-1.334,0.082-2.002,0.127c-0.826,0.054-1.652,0.108-2.479,0.172c-0.848,0.068-1.693,0.138-2.541,0.222
		c-0.643,0.064-1.284,0.143-1.926,0.223c-0.743,0.093-1.482,0.198-2.225,0.286c-0.307,0.037-0.614,0.057-0.924,0.063
		c-0.145,0.002-0.272-0.067-0.293-0.238c-0.024-0.185,0.051-0.306,0.236-0.365c0.09-0.029,0.188-0.039,0.284-0.04
		C8.382,15.584,8.793,15.585,9.399,15.585z"/>
	<path fill-rule="evenodd" clip-rule="evenodd" fill="#7EB381" d="M16.045,12.721c1.153-0.085,2.486-0.184,3.816-0.285
		c0.19-0.014,0.382-0.051,0.572-0.066c0.11-0.009,0.185,0.044,0.182,0.169c-0.002,0.118-0.076,0.15-0.18,0.159
		c-0.574,0.053-1.146,0.122-1.72,0.161c-0.875,0.062-1.75,0.102-2.625,0.159c-0.662,0.042-1.322,0.097-1.982,0.146
		c-0.804,0.06-1.609,0.108-2.414,0.181c-0.553,0.051-1.102,0.133-1.653,0.198c-0.121,0.014-0.251,0.049-0.281-0.137
		c-0.028-0.166,0.025-0.279,0.21-0.316c0.271-0.055,0.546-0.104,0.821-0.125c1.119-0.087,2.237-0.175,3.357-0.239
		C14.719,12.694,15.293,12.721,16.045,12.721z"/>
	<path fill-rule="evenodd" clip-rule="evenodd" fill="#7EB381" d="M14.289,17.644c0.913-0.047,1.824-0.085,2.735-0.141
		c0.303-0.019,0.603-0.082,0.905-0.116c0.248-0.028,0.321,0.01,0.337,0.159c0.02,0.185-0.143,0.411-0.323,0.414
		c-0.287,0.001-0.574-0.028-0.862-0.031c-0.693-0.009-1.39-0.046-2.081-0.007c-0.815,0.044-1.626,0.155-2.438,0.237
		c-0.212,0.02-0.425,0.053-0.636,0.06c-0.198,0.004-0.271-0.124-0.206-0.313c0.056-0.166,0.159-0.276,0.342-0.29
		c0.101-0.006,0.203-0.015,0.303-0.017c0.64-0.002,1.283,0,1.923,0C14.289,17.613,14.289,17.629,14.289,17.644z"/>
	<path fill-rule="evenodd" clip-rule="evenodd" fill="#7EB381" d="M17.242,10.594c-0.07,0.017-0.135,0.044-0.205,0.049
		c-0.693,0.043-1.386,0.087-2.078,0.125c-0.908,0.049-1.815,0.085-2.721,0.14c-0.442,0.026-0.881,0.085-1.322,0.117
		c-0.167,0.012-0.329-0.033-0.443-0.175c-0.159-0.195-0.102-0.361,0.145-0.397c0.195-0.029,0.393-0.052,0.59-0.049
		c1.837,0.016,3.675,0.037,5.513,0.062c0.172,0.002,0.343,0.036,0.516,0.055C17.237,10.543,17.238,10.568,17.242,10.594z"/>
	<path fill-rule="evenodd" clip-rule="evenodd" fill="#7EB381" d="M22.595,13.411c-0.06,0.454-0.114,0.909-0.182,1.361
		c-0.014,0.089-0.065,0.181-0.12,0.256c-0.1,0.136-0.229,0.122-0.29-0.037c-0.03-0.08-0.032-0.179-0.017-0.265
		c0.102-0.593,0.156-1.185,0.05-1.783c-0.083-0.472-0.275-0.893-0.585-1.262c-0.108-0.129-0.204-0.272-0.283-0.421
		c-0.029-0.056-0.022-0.174,0.016-0.215c0.05-0.049,0.157-0.07,0.229-0.057c0.228,0.044,0.407,0.182,0.549,0.362
		c0.427,0.541,0.619,1.161,0.597,1.848c-0.003,0.068-0.002,0.139-0.002,0.209C22.57,13.407,22.582,13.41,22.595,13.411z"/>
</g>
</svg>
