<?xml version="1.0" encoding="utf-8"?>
<!-- Generator: Adobe Illustrator 16.0.0, SVG Export Plug-In . SVG Version: 6.00 Build 0)  -->
<!DOCTYPE svg PUBLIC "-//W3C//DTD SVG 1.1//EN" "http://www.w3.org/Graphics/SVG/1.1/DTD/svg11.dtd">
<svg version="1.1" id="Layer_1" xmlns="http://www.w3.org/2000/svg" xmlns:xlink="http://www.w3.org/1999/xlink" x="0px" y="0px"
	 width="30px" height="30px" viewBox="0 0 30 30" enable-background="new 0 0 30 30" xml:space="preserve">
<ellipse fill="#F26722" cx="14.951" cy="14.945" rx="14.299" ry="14.26"/>
<path fill="#FFFFFF" d="M12.117,13.266c0,0-0.16-2.007,2.081-2.007c0.706,0,1.602,0,2.52,0c0-0.025,0-0.04,0-0.04
	s0.144-1.765-1.866-1.765c-2.2,0-6.458,0-6.458,0s-2.033-0.095-2.033,2.219c0,2.123,0,4.03,0,4.03s-0.153,2.041,2.044,2.041v2.254
	l2.524-2.243h1.187C12.117,15.74,12.117,13.266,12.117,13.266z"/>
<path fill="#FFFFFF" d="M18.654,20.046h-4.162c0,0-1.626,0.189-1.626-1.622c0-1.813,0-4.915,0-4.915s-0.143-1.765,1.866-1.765
	c2.2,0,6.458,0,6.458,0s2.033-0.095,2.033,2.219c0,2.122,0,4.031,0,4.031s0.151,2.039-2.045,2.039v2.254L18.654,20.046z"/>
</svg>
