<?xml version="1.0" encoding="utf-8"?>
<!-- Generator: Adobe Illustrator 16.0.0, SVG Export Plug-In . SVG Version: 6.00 Build 0)  -->
<!DOCTYPE svg PUBLIC "-//W3C//DTD SVG 1.1//EN" "http://www.w3.org/Graphics/SVG/1.1/DTD/svg11.dtd">
<svg version="1.1" id="Layer_1" xmlns="http://www.w3.org/2000/svg" xmlns:xlink="http://www.w3.org/1999/xlink" x="0px" y="0px"
	 width="100px" height="100px" viewBox="0 0 100 100" enable-background="new 0 0 100 100" xml:space="preserve">
<g>
	<path fill="#C8D5E4" d="M97.943,49.658c0-26.491-21.461-47.949-47.94-47.949c-26.485,0-47.946,21.458-47.946,47.949
		c0,26.476,21.461,47.943,47.946,47.943C76.482,97.602,97.943,76.134,97.943,49.658z"/>
</g>
<path fill="none" d="M94.02,49.375C94.02,24.727,74.04,4.75,49.398,4.75c-24.646,0-44.623,19.977-44.623,44.625
	c0,24.641,19.977,44.623,44.623,44.623C74.039,93.997,94.02,74.016,94.02,49.375z"/>
<path fill="none" d="M97.943,49.834c0-26.493-21.461-47.949-47.94-47.949c-26.485,0-47.946,21.456-47.946,47.949
	c0,26.479,21.461,47.943,47.946,47.943C76.482,97.777,97.943,76.312,97.943,49.834z"/>
<g>
	<rect x="42.985" y="61.919" fill="#FFFFFF" width="14.037" height="15.392"/>
	<path fill="#FFFFFF" d="M58.719,71.098c0,0,13.348,1.949,15.326,4.002c1.725,1.793,5.283,18.914,6.109,22.678
		c-23.439,0-30.151,0-30.151,0V71.823L58.719,71.098z"/>
	<g>
		<path fill="#FFFFFF" d="M50.003,17.867c6.813,0,17.601,3.876,17.601,22.035c0,10.486-3.416,17.351-4.912,19.258
			c-1.371,1.744-9.071,5.468-12.688,5.468C50.003,46.274,50.003,17.867,50.003,17.867z"/>
		<path fill="#FFFFFF" d="M70.988,44.231c0.297-2.897-1.09-5.482-3.084-5.758c-2.016-0.273-3.883,1.856-4.184,4.758
			c-0.285,2.902,1.081,5.482,3.096,5.758C68.822,49.263,70.684,47.133,70.988,44.231z"/>
	</g>
	<g>
		<path fill="#FFFFFF" d="M50.003,17.867c-6.814,0-17.601,3.876-17.601,22.035c0,10.486,3.412,17.351,4.911,19.258
			c1.367,1.744,9.068,5.468,12.689,5.468C50.003,46.274,50.003,17.867,50.003,17.867z"/>
		<path fill="#FFFFFF" d="M29.006,44.231c-0.301-2.897,1.081-5.482,3.09-5.758c2.004-0.273,3.881,1.856,4.182,4.758
			c0.301,2.902-1.081,5.482-3.091,5.758C31.184,49.263,29.307,47.133,29.006,44.231z"/>
	</g>
	<path fill="#FFFFFF" d="M41.271,71.098c0,0-13.352,1.949-15.311,4.002c-1.729,1.793-5.294,18.914-6.125,22.678
		c23.45,0,30.167,0,30.167,0V71.823L41.271,71.098z"/>
	<polygon fill="#FFFFFF" points="50.003,71.354 42.383,68.289 40.506,70.125 44.291,78.605 	"/>
	<polygon fill="#FFFFFF" points="50.003,71.354 57.617,68.289 59.494,70.125 55.699,78.605 	"/>
</g>
<path fill="#FFFFFF" d="M67.984,38.907c0,0,5.76-23.693-18.104-23.693C25.879,15.214,32,38.938,32,38.938s3.186-2.631,3.186,5.764
	c1.3,0,0.602,0,0.602,0s1.153-5.63,1.505-10.672c8.44,0,15.913-1.084,22.189-6.278c3.551,0,4.045,4.439,4.045,7.834l-1.561,0.604
	c0,0,1.51,2.958,1.616,8.512c1.081,0,1.081,0,1.081,0S64.514,35.439,67.984,38.907z"/>
<path fill="#FFFFFF" d="M50.003,57.782c3.177,0,5.753-1.056,5.753-2.347H44.245C44.245,56.727,46.825,57.782,50.003,57.782z"/>
<path fill="none" d="M97.943,49.834c0-26.493-21.461-47.949-47.94-47.949c-26.485,0-47.946,21.456-47.946,47.949
	c0,26.479,21.461,47.943,47.946,47.943C76.482,97.777,97.943,76.312,97.943,49.834z"/>
</svg>
