<?xml version="1.0" encoding="utf-8"?>
<!-- Generator: Adobe Illustrator 16.0.0, SVG Export Plug-In . SVG Version: 6.00 Build 0)  -->
<!DOCTYPE svg PUBLIC "-//W3C//DTD SVG 1.1//EN" "http://www.w3.org/Graphics/SVG/1.1/DTD/svg11.dtd">
<svg version="1.1" id="Layer_1" xmlns="http://www.w3.org/2000/svg" xmlns:xlink="http://www.w3.org/1999/xlink" x="0px" y="0px"
	 width="30px" height="30px" viewBox="0 0 30 30" enable-background="new 0 0 30 30" xml:space="preserve">
<path fill="#486799" stroke="#486799" stroke-miterlimit="10" d="M11.678,10.576c2.379-2.456,4.267-4.407,6.156-6.354
	c0.891-0.916,1.781-1.827,2.665-2.75c0.178-0.179,0.399-0.232,0.62-0.29c0.566-0.147,1.145-0.227,1.716-0.221
	c0.444,0,0.888,0.025,1.323,0.073c0.252,0.025,0.494,0.104,0.73,0.183c0.231,0.08,0.449,0.193,0.678,0.286
	c0.271,0.106,0.521,0.245,0.754,0.415c0.158,0.121,0.318,0.249,0.494,0.348c0.369,0.193,0.629,0.504,0.916,0.792
	c0.195,0.195,0.34,0.445,0.509,0.672c0.044,0.059,0.103,0.119,0.133,0.187c0.16,0.309,0.342,0.612,0.444,0.94
	c0.113,0.369,0.149,0.769,0.213,1.156c0.068,0.423,0.045,0.857,0.003,1.293c-0.093,0.968-0.354,1.916-0.755,2.834
	c-0.274,0.614-0.65,1.157-1.113,1.644c-1.881,1.967-3.76,3.933-5.641,5.893c-1.553,1.623-3.097,3.25-4.66,4.861
	c-1.286,1.328-2.594,2.627-3.896,3.94c-0.198,0.195-0.404,0.391-0.611,0.573c-0.184,0.171-0.421,0.231-0.646,0.276
	c-0.488,0.109-0.982,0.189-1.478,0.292c-0.407,0.084-0.81,0.198-1.216,0.276c-0.566,0.117-1.138,0.221-1.708,0.32
	c-0.437,0.077-0.877,0.149-1.318,0.211C5.495,28.5,5,28.564,4.508,28.619c-0.419,0.048-0.841,0.098-1.257,0.104
	c-0.355,0.004-0.719,0.008-1.041-0.147c-0.324-0.152-0.489-0.41-0.475-0.808c0.023-0.69,0.125-1.385,0.25-2.07
	c0.153-0.881,0.314-1.758,0.461-2.631c0.12-0.736,0.226-1.469,0.338-2.199c0.076-0.51,0.157-1.016,0.341-1.506
	c0.144-0.372,0.352-0.704,0.631-0.99c0.435-0.458,0.867-0.913,1.316-1.354c0.909-0.891,1.823-1.775,2.731-2.666
	C9.263,12.929,10.724,11.508,11.678,10.576z"/>
<path fill="#FFFFFF" d="M24.677,13.099c0.021-0.007,0.032-0.005,0.044-0.015c0.028-0.022,0.062-0.049,0.09-0.076
	c0.777-0.808,1.524-1.64,2.164-2.562c0.327-0.475,0.58-0.979,0.703-1.528c0.106-0.468,0.188-0.94,0.288-1.408
	c0.113-0.512,0.113-1.015-0.017-1.494c-0.096-0.344-0.241-0.681-0.402-0.997c-0.148-0.282-0.329-0.559-0.529-0.796
	c-0.312-0.355-0.649-0.699-0.996-1.015c-0.236-0.214-0.506-0.392-0.787-0.543c-0.238-0.135-0.512-0.216-0.774-0.309
	c-0.177-0.062-0.356-0.117-0.539-0.15c-0.235-0.058-0.479-0.1-0.719-0.138c-0.216-0.036-0.429-0.07-0.649-0.078
	c-0.285-0.01-0.57-0.002-0.861,0.035c-0.375,0.044-0.733,0.144-1.025,0.453c-0.246,0.256-0.514,0.495-0.762,0.755
	c-0.658,0.669-1.312,1.345-1.967,2.025c-0.052,0.056-0.092,0.119-0.127,0.186C17.8,5.467,17.833,5.538,17.855,5.54
	c0.355,0.081,0.709,0.144,1.066,0.22c0.258,0.056,0.518,0.113,0.771,0.173c0.171,0.047,0.334,0.093,0.502,0.146
	c0.203,0.06,0.406,0.116,0.599,0.196c0.201,0.083,0.396,0.189,0.589,0.289c0.19,0.103,0.391,0.205,0.57,0.335
	c0.214,0.149,0.413,0.323,0.611,0.493c0.199,0.165,0.416,0.316,0.578,0.514c0.254,0.294,0.51,0.592,0.66,0.964
	c0.116,0.283,0.252,0.551,0.374,0.829c0.029,0.061,0.065,0.118,0.104,0.188c0.039-0.04,0.07-0.065,0.099-0.094
	c0.466-0.454,0.927-0.919,1.394-1.371c0.252-0.244,0.517-0.481,0.774-0.715c0.124-0.113,0.205-0.092,0.286,0.04
	c0.152,0.229,0.18,0.502,0.207,0.772c0.029,0.268-0.036,0.501-0.258,0.714c-0.379,0.356-0.737,0.736-1.104,1.11
	c-0.318,0.321-0.632,0.639-0.953,0.962c-0.084,0.087-0.115,0.167-0.08,0.287c0.033,0.123,0.043,0.255,0.043,0.392
	C24.686,12.351,24.684,12.724,24.677,13.099z"/>
<path fill="#FFFFFF" d="M9.445,22.867c0.109-0.1,0.198-0.18,0.28-0.258c0.441-0.435,0.883-0.866,1.328-1.305
	c1.058-1.053,2.123-2.099,3.171-3.164c1.195-1.211,2.369-2.438,3.555-3.658c0.75-0.774,1.51-1.544,2.262-2.313
	c0.042-0.042,0.084-0.131,0.066-0.165c-0.099-0.189-0.188-0.395-0.334-0.543c-0.49-0.536-1.015-1.052-1.521-1.572
	c-0.086-0.092-0.135-0.089-0.238,0.007c-1.279,1.312-2.567,2.621-3.849,3.929c-2.159,2.193-4.316,4.391-6.474,6.588
	c-0.035,0.037-0.068,0.072-0.119,0.121c0.053,0.012,0.077,0.021,0.098,0.018c0.246-0.021,0.485-0.006,0.704,0.08
	c0.163,0.062,0.323,0.131,0.475,0.215c0.074,0.043,0.146,0.11,0.191,0.187c0.072,0.114,0.144,0.243,0.181,0.378
	c0.068,0.25,0.126,0.499,0.166,0.754C9.421,22.382,9.424,22.604,9.445,22.867z"/>
<path fill="#FFFFFF" d="M17.057,20.961c0.012,0.007,0.022,0.018,0.035,0.018c0.012-0.011,0.025-0.021,0.036-0.033
	c0.358-0.367,0.708-0.74,1.063-1.109c0.027-0.029,0.055-0.072,0.067-0.111c0.095-0.271,0.19-0.539,0.274-0.812
	c0.299-0.985,0.593-1.969,0.893-2.951c0.018-0.061,0.079-0.126,0.131-0.15c0.094-0.043,0.197-0.063,0.297-0.078
	c0.162-0.021,0.176,0.004,0.121,0.162c-0.295,0.861-0.594,1.726-0.896,2.586c-0.063,0.168-0.127,0.34-0.196,0.539
	c0.044-0.021,0.066-0.026,0.083-0.043c0.278-0.276,0.556-0.553,0.833-0.836c0.021-0.023,0.045-0.068,0.051-0.101
	c0.233-0.853,0.465-1.7,0.697-2.54c0.075-0.298,0.079-0.31,0.369-0.372c0.033-0.009,0.068-0.003,0.102-0.009
	c0.108-0.02,0.152,0.015,0.119,0.126c-0.135,0.476-0.262,0.954-0.396,1.428c-0.058,0.206-0.116,0.407-0.179,0.613
	c0.062-0.017,0.09-0.044,0.121-0.077c0.189-0.201,0.377-0.402,0.57-0.6c0.1-0.099,0.139-0.203,0.132-0.324
	c-0.011-0.25-0.024-0.493-0.032-0.738c-0.021-0.413-0.094-0.813-0.197-1.2c-0.049-0.16-0.094-0.314-0.143-0.467
	c-0.066-0.197-0.135-0.392-0.211-0.581c-0.062-0.159-0.143-0.311-0.209-0.466c-0.062-0.15-0.148-0.176-0.275-0.051
	c-0.245,0.229-0.495,0.459-0.735,0.699c-1.255,1.257-2.515,2.507-3.765,3.768c-1.047,1.063-2.077,2.138-3.122,3.202
	c-0.966,0.984-1.938,1.964-2.905,2.945c-0.042,0.037-0.079,0.08-0.123,0.129c0.173,0.026,0.328,0.035,0.471,0.072
	c0.147,0.043,0.287,0.111,0.423,0.182c0.068,0.031,0.12,0.102,0.191,0.127c0.291,0.107,0.386,0.383,0.516,0.615
	c0.099,0.189,0.143,0.405,0.192,0.617c0.043,0.209,0.064,0.43,0.099,0.644c0.006,0.036,0.027,0.077,0.05,0.088
	c0.021,0.011,0.072-0.021,0.092-0.046c0.032-0.03,0.054-0.071,0.069-0.112c0.064-0.219,0.13-0.44,0.184-0.662
	c0.182-0.739,0.363-1.475,0.536-2.213c0.042-0.174,0.089-0.335,0.294-0.389c0.112-0.034,0.218-0.069,0.331-0.101
	c0.113-0.041,0.147-0.005,0.11,0.106c-0.137,0.467-0.264,0.94-0.414,1.407c-0.226,0.693-0.468,1.383-0.7,2.072
	C12.1,25.971,12.1,26.011,12.09,26.05c0.01,0.002,0.021,0.009,0.03,0.013c0.035-0.024,0.075-0.052,0.105-0.084
	c0.116-0.115,0.235-0.231,0.341-0.354c0.051-0.058,0.098-0.133,0.123-0.202c0.144-0.436,0.28-0.874,0.417-1.312
	c0.273-0.873,0.547-1.736,0.82-2.605c0.078-0.248,0.393-0.453,0.663-0.434c-0.332,1.267-0.778,2.51-1.192,3.783
	c0.042-0.025,0.055-0.025,0.061-0.037c0.365-0.385,0.734-0.77,1.095-1.159c0.032-0.026,0.052-0.07,0.066-0.109
	c0.126-0.409,0.252-0.813,0.376-1.221c0.29-0.935,0.583-1.871,0.858-2.808c0.059-0.207,0.172-0.266,0.338-0.303
	c0.025-0.002,0.056-0.002,0.078-0.004c0.156-0.029,0.166-0.023,0.123,0.129c-0.336,1.104-0.679,2.205-1.013,3.307
	c-0.007,0.022-0.004,0.05-0.01,0.096c0.038-0.023,0.058-0.031,0.075-0.049c0.27-0.264,0.543-0.527,0.811-0.797
	c0.037-0.039,0.069-0.092,0.09-0.144c0.17-0.481,0.346-0.976,0.514-1.461c0.305-0.905,0.602-1.813,0.908-2.724
	c0.021-0.062,0.082-0.141,0.133-0.161c0.158-0.058,0.317-0.086,0.479-0.123c0.013,0.014,0.022,0.026,0.031,0.037
	C18.027,18.561,17.509,19.751,17.057,20.961z"/>
<path fill="#FFFFFF" d="M17.628,9.47c-0.171-0.092-0.313-0.183-0.467-0.25c-0.341-0.144-0.683-0.27-1.019-0.419
	c-0.314-0.14-0.658-0.205-1.001-0.264c-0.178-0.028-0.327,0.007-0.481,0.165c-0.754,0.796-1.53,1.576-2.292,2.363
	c-1.84,1.909-3.772,3.721-5.661,5.582c-0.738,0.724-1.468,1.465-2.199,2.195c-0.034,0.032-0.062,0.074-0.113,0.133
	c0.072,0,0.11,0,0.147-0.007c0.296-0.043,0.597-0.104,0.89-0.122c0.208-0.009,0.417,0.028,0.622,0.066
	c0.198,0.039,0.338,0.166,0.481,0.297c0.246,0.223,0.426,0.491,0.545,0.802c0.031,0.073,0.076,0.063,0.13,0.019
	c0.163-0.154,0.335-0.295,0.492-0.456c1.541-1.569,3.076-3.142,4.615-4.712c1.731-1.764,3.464-3.517,5.195-5.274
	C17.548,9.555,17.575,9.527,17.628,9.47z"/>
<path fill="#FFFFFF" d="M5.887,19.788c-0.184-0.171-0.349-0.296-0.562-0.358c-0.299-0.095-0.6-0.104-0.918,0.004
	c-0.137,0.047-0.214,0.123-0.246,0.262c-0.116,0.504-0.252,1.012-0.351,1.521c-0.13,0.656-0.24,1.312-0.338,1.972
	c-0.1,0.66-0.167,1.319-0.259,1.975c-0.024,0.146,0.067,0.152,0.147,0.184c0.205,0.081,0.437,0.121,0.617,0.234
	c0.227,0.139,0.424,0.329,0.618,0.516c0.188,0.192,0.294,0.437,0.294,0.725c0,0.22-0.033,0.436-0.047,0.654
	c0,0.031,0.031,0.09,0.055,0.09c0.065,0.01,0.14,0.006,0.212-0.008c0.388-0.057,0.779-0.115,1.167-0.18
	c0.615-0.104,1.229-0.203,1.844-0.312c0.479-0.084,0.957-0.179,1.435-0.273c0.393-0.081,0.788-0.174,1.185-0.264
	c0.105-0.024,0.173-0.076,0.167-0.193c0-0.078-0.003-0.158-0.014-0.236c-0.04-0.269-0.071-0.537-0.133-0.8
	c-0.042-0.182-0.103-0.368-0.201-0.516c-0.134-0.197-0.308-0.368-0.478-0.531c-0.123-0.119-0.292-0.161-0.468-0.175
	c-0.227-0.016-0.455-0.032-0.68-0.049c-0.161-0.014-0.267-0.133-0.253-0.303c0.028-0.257,0.062-0.519,0.103-0.772
	c0.041-0.283,0.044-0.572-0.042-0.828c-0.102-0.31-0.242-0.608-0.512-0.808c-0.178-0.131-0.386-0.209-0.614-0.207
	c-0.239,0.006-0.481,0.041-0.728,0.074c-0.225,0.03-0.32,0-0.382-0.151c-0.042-0.099-0.075-0.2-0.103-0.298
	C6.3,20.357,6.146,20.014,5.887,19.788z"/>
<path fill="#FFFFFF" d="M22.15,15.768c0.053-0.041,0.099-0.064,0.133-0.099c0.467-0.474,0.935-0.946,1.408-1.417
	c0.107-0.104,0.16-0.224,0.185-0.362c0.117-0.64,0.046-1.26-0.028-1.874c-0.053-0.381-0.123-0.754-0.17-1.132
	c-0.07-0.538-0.236-1.039-0.506-1.485c-0.154-0.254-0.304-0.514-0.497-0.731c-0.44-0.475-0.903-0.918-1.491-1.211
	c-0.197-0.101-0.388-0.226-0.588-0.319c-0.242-0.111-0.492-0.201-0.74-0.301c-0.203-0.076-0.401-0.16-0.604-0.242
	c-0.123-0.045-0.244-0.1-0.369-0.133c-0.262-0.08-0.528-0.146-0.799-0.21c-0.231-0.052-0.466-0.105-0.705-0.143
	c-0.103-0.018-0.207-0.016-0.3,0.091c-0.496,0.536-0.998,1.068-1.5,1.603c-0.027,0.031-0.051,0.065-0.085,0.11
	c0.088,0.022,0.159,0.038,0.228,0.053c0.254,0.046,0.506,0.087,0.752,0.148c0.262,0.062,0.514,0.132,0.758,0.218
	c0.235,0.085,0.484,0.16,0.69,0.294c0.345,0.215,0.66,0.481,0.985,0.724c0.023,0.021,0.041,0.04,0.064,0.059
	c0.631,0.512,1.219,1.064,1.661,1.761c0.126,0.199,0.245,0.411,0.361,0.615c0.067,0.114,0.134,0.23,0.188,0.353
	c0.143,0.315,0.295,0.626,0.424,0.952c0.096,0.249,0.189,0.502,0.246,0.764c0.084,0.364,0.145,0.732,0.203,1.098
	C22.092,15.213,22.111,15.478,22.15,15.768z"/>
<path fill="#486799" d="M19.225,5.021c-0.106-0.1-0.11-0.156-0.013-0.282c0.524-0.648,1.106-1.247,1.726-1.808
	c0.123-0.116,0.27-0.128,0.392-0.101c0.276,0.062,0.542,0.14,0.804,0.24c0.174,0.065,0.188,0.166,0.094,0.402
	c-0.072,0.171-0.25,0.234-0.416,0.185c-0.227-0.063-0.451-0.116-0.668-0.178c-0.095-0.027-0.146,0.017-0.203,0.08
	c-0.334,0.343-0.66,0.693-0.989,1.036c-0.142,0.143-0.284,0.284-0.435,0.416C19.395,5.129,19.333,5.127,19.225,5.021z"/>
<path fill="#486799" d="M22.736,12.558c-0.234,0.222-0.43,0.412-0.627,0.603c-0.139,0.126-0.146,0.105-0.225-0.045
	c-0.094-0.194-0.018-0.328,0.131-0.47c0.364-0.359,0.729-0.724,1.094-1.078c0.146-0.137,0.158-0.122,0.231,0.055
	c0.074,0.171,0.005,0.289-0.11,0.41C23.055,12.222,22.877,12.408,22.736,12.558z"/>
</svg>
