<?xml version="1.0" encoding="utf-8"?>
<!-- Generator: Adobe Illustrator 16.0.0, SVG Export Plug-In . SVG Version: 6.00 Build 0)  -->
<!DOCTYPE svg PUBLIC "-//W3C//DTD SVG 1.1//EN" "http://www.w3.org/Graphics/SVG/1.1/DTD/svg11.dtd">
<svg version="1.1" id="Layer_1" xmlns="http://www.w3.org/2000/svg" xmlns:xlink="http://www.w3.org/1999/xlink" x="0px" y="0px"
	 width="30px" height="30px" viewBox="0 0 30 30" enable-background="new 0 0 30 30" xml:space="preserve">
<g>
	<path fill-rule="evenodd" clip-rule="evenodd" fill="#58595B" d="M11.771,11.17c2.176-2.245,3.902-4.03,5.629-5.811
		c0.815-0.837,1.63-1.67,2.439-2.514c0.162-0.164,0.365-0.212,0.567-0.265c0.519-0.134,1.046-0.207,1.571-0.202
		c0.406,0,0.808,0.023,1.208,0.067c0.231,0.023,0.453,0.095,0.668,0.167c0.213,0.073,0.413,0.176,0.621,0.261
		c0.247,0.097,0.476,0.224,0.688,0.379c0.146,0.111,0.291,0.228,0.453,0.319c0.337,0.176,0.577,0.46,0.836,0.724
		c0.181,0.178,0.312,0.406,0.465,0.614c0.041,0.054,0.095,0.109,0.122,0.171c0.145,0.283,0.312,0.56,0.407,0.86
		c0.103,0.337,0.137,0.703,0.196,1.057c0.062,0.387,0.04,0.784,0.002,1.182c-0.084,0.886-0.324,1.752-0.691,2.592
		c-0.251,0.562-0.594,1.058-1.019,1.503c-1.718,1.799-3.438,3.596-5.156,5.388c-1.42,1.484-2.831,2.972-4.262,4.446
		c-1.176,1.214-2.372,2.403-3.564,3.603c-0.181,0.18-0.369,0.357-0.559,0.526c-0.168,0.156-0.385,0.21-0.59,0.252
		c-0.447,0.101-0.899,0.173-1.352,0.268c-0.372,0.076-0.74,0.181-1.112,0.253c-0.518,0.106-1.04,0.201-1.561,0.292
		c-0.4,0.071-0.803,0.138-1.206,0.193c-0.453,0.065-0.906,0.125-1.355,0.174c-0.384,0.045-0.769,0.09-1.149,0.094
		c-0.325,0.005-0.658,0.008-0.952-0.134c-0.296-0.14-0.447-0.376-0.434-0.739c0.021-0.631,0.115-1.266,0.228-1.893
		c0.14-0.805,0.288-1.606,0.422-2.405c0.109-0.674,0.206-1.344,0.309-2.012c0.069-0.466,0.144-0.928,0.312-1.377
		c0.131-0.339,0.322-0.645,0.577-0.905c0.397-0.419,0.793-0.835,1.203-1.238c0.831-0.815,1.667-1.624,2.498-2.438
		C9.563,13.322,10.899,12.022,11.771,11.17z"/>
	<path fill="#D5D8DA" d="M23.657,13.477c0.021-0.007,0.03-0.005,0.04-0.014c0.028-0.02,0.057-0.045,0.082-0.07
		c0.712-0.738,1.396-1.499,1.979-2.343c0.301-0.434,0.531-0.895,0.644-1.397c0.097-0.428,0.17-0.86,0.263-1.288
		c0.103-0.468,0.105-0.928-0.015-1.366c-0.088-0.315-0.22-0.623-0.369-0.912c-0.134-0.258-0.298-0.511-0.484-0.728
		c-0.287-0.325-0.594-0.639-0.912-0.928c-0.215-0.195-0.461-0.358-0.718-0.496c-0.219-0.124-0.469-0.197-0.709-0.283
		c-0.162-0.056-0.327-0.106-0.493-0.137c-0.216-0.053-0.438-0.091-0.658-0.126c-0.197-0.033-0.391-0.064-0.593-0.071
		c-0.261-0.009-0.522-0.002-0.788,0.032c-0.343,0.04-0.671,0.132-0.939,0.414c-0.225,0.234-0.469,0.453-0.697,0.69
		c-0.602,0.612-1.198,1.23-1.798,1.852c-0.047,0.051-0.084,0.109-0.116,0.17c-0.009,0.021,0.02,0.086,0.042,0.088
		c0.324,0.074,0.649,0.132,0.974,0.201c0.237,0.051,0.472,0.103,0.706,0.159c0.156,0.043,0.305,0.085,0.459,0.132
		c0.184,0.055,0.371,0.106,0.547,0.18c0.183,0.076,0.361,0.173,0.539,0.264C20.819,7.594,21,7.687,21.166,7.806
		c0.196,0.137,0.377,0.295,0.559,0.451c0.181,0.151,0.381,0.289,0.53,0.47c0.231,0.269,0.466,0.542,0.603,0.882
		c0.106,0.258,0.229,0.504,0.341,0.757c0.028,0.056,0.06,0.108,0.094,0.172c0.037-0.036,0.066-0.06,0.091-0.086
		c0.425-0.415,0.846-0.84,1.274-1.253c0.23-0.223,0.471-0.44,0.708-0.654c0.115-0.103,0.188-0.084,0.262,0.036
		c0.139,0.209,0.163,0.46,0.19,0.706c0.028,0.245-0.034,0.458-0.237,0.653c-0.344,0.326-0.674,0.673-1.009,1.015
		c-0.29,0.293-0.577,0.584-0.87,0.88c-0.078,0.08-0.106,0.153-0.074,0.262c0.03,0.113,0.039,0.234,0.039,0.359
		C23.666,12.793,23.663,13.134,23.657,13.477z"/>
	<path fill="#D5D8DA" d="M9.729,22.41c0.1-0.091,0.181-0.164,0.256-0.236c0.403-0.397,0.808-0.792,1.214-1.192
		c0.968-0.962,1.942-1.92,2.9-2.894c1.093-1.107,2.166-2.23,3.25-3.345c0.688-0.708,1.381-1.412,2.07-2.115
		c0.038-0.039,0.076-0.12,0.059-0.151c-0.09-0.173-0.171-0.361-0.303-0.496c-0.451-0.491-0.927-0.962-1.392-1.438
		c-0.078-0.084-0.124-0.082-0.216,0.006c-1.173,1.199-2.348,2.397-3.521,3.593c-1.974,2.006-3.947,4.015-5.92,6.024
		c-0.032,0.034-0.062,0.066-0.109,0.112c0.049,0.01,0.071,0.021,0.09,0.015c0.225-0.019,0.444-0.005,0.644,0.074
		c0.149,0.057,0.296,0.119,0.434,0.195c0.068,0.039,0.134,0.102,0.175,0.171c0.066,0.105,0.131,0.223,0.166,0.345
		c0.062,0.228,0.115,0.456,0.152,0.69C9.707,21.966,9.71,22.168,9.729,22.41z"/>
	<path fill="#D5D8DA" d="M16.69,20.667c0.01,0.006,0.02,0.014,0.032,0.015c0.01-0.009,0.024-0.019,0.034-0.029
		c0.328-0.336,0.649-0.678,0.972-1.016c0.027-0.027,0.049-0.066,0.062-0.103c0.087-0.248,0.175-0.493,0.251-0.742
		c0.273-0.901,0.542-1.8,0.817-2.698c0.015-0.055,0.071-0.115,0.118-0.138c0.087-0.04,0.181-0.06,0.271-0.072
		c0.15-0.018,0.162,0.003,0.113,0.149c-0.272,0.788-0.544,1.577-0.821,2.363c-0.058,0.156-0.116,0.313-0.179,0.495
		c0.041-0.021,0.061-0.026,0.075-0.042c0.254-0.252,0.509-0.503,0.762-0.762c0.021-0.022,0.041-0.062,0.047-0.092
		c0.213-0.779,0.424-1.553,0.637-2.322c0.069-0.273,0.073-0.284,0.338-0.34c0.03-0.008,0.062-0.003,0.094-0.008
		c0.097-0.018,0.137,0.014,0.108,0.115c-0.124,0.435-0.24,0.871-0.362,1.307c-0.053,0.186-0.108,0.371-0.165,0.56
		c0.057-0.016,0.085-0.042,0.112-0.071c0.173-0.183,0.344-0.369,0.521-0.549c0.091-0.089,0.128-0.184,0.122-0.297
		c-0.01-0.227-0.021-0.45-0.031-0.673c-0.019-0.378-0.085-0.744-0.181-1.098c-0.042-0.146-0.085-0.287-0.129-0.427
		c-0.062-0.18-0.122-0.359-0.193-0.531c-0.057-0.146-0.131-0.284-0.19-0.426c-0.057-0.138-0.137-0.161-0.253-0.047
		c-0.225,0.209-0.453,0.42-0.672,0.639c-1.148,1.149-2.301,2.292-3.443,3.447c-0.958,0.972-1.901,1.955-2.854,2.926
		c-0.883,0.901-1.773,1.797-2.657,2.695c-0.038,0.034-0.072,0.073-0.112,0.118c0.159,0.024,0.3,0.032,0.431,0.067
		c0.134,0.039,0.262,0.102,0.387,0.165c0.062,0.029,0.109,0.093,0.175,0.117c0.266,0.098,0.353,0.349,0.472,0.563
		c0.09,0.172,0.131,0.371,0.175,0.565c0.04,0.191,0.059,0.393,0.09,0.588c0.006,0.033,0.025,0.073,0.046,0.08
		c0.019,0.01,0.066-0.019,0.084-0.042c0.029-0.028,0.05-0.065,0.063-0.102c0.059-0.2,0.119-0.403,0.168-0.607
		c0.166-0.674,0.332-1.346,0.49-2.022c0.038-0.161,0.082-0.307,0.269-0.358c0.103-0.03,0.2-0.061,0.303-0.091
		c0.103-0.037,0.134-0.005,0.1,0.098c-0.125,0.427-0.241,0.86-0.378,1.287c-0.206,0.634-0.428,1.265-0.64,1.897
		c-0.012,0.033-0.012,0.069-0.021,0.106c0.009,0.001,0.019,0.006,0.028,0.011c0.031-0.025,0.068-0.048,0.096-0.077
		c0.106-0.108,0.215-0.212,0.312-0.327c0.047-0.051,0.09-0.121,0.112-0.183c0.131-0.398,0.256-0.799,0.381-1.199
		c0.25-0.798,0.5-1.589,0.75-2.384c0.071-0.225,0.359-0.414,0.606-0.397c-0.303,1.159-0.712,2.294-1.09,3.459
		c0.038-0.023,0.05-0.023,0.056-0.034c0.334-0.351,0.671-0.703,1.002-1.058c0.028-0.026,0.047-0.066,0.06-0.101
		c0.115-0.374,0.23-0.744,0.343-1.116c0.266-0.853,0.534-1.711,0.785-2.568c0.053-0.188,0.158-0.242,0.309-0.276
		c0.024-0.002,0.05-0.002,0.072-0.004c0.143-0.027,0.152-0.022,0.112,0.117c-0.307,1.01-0.619,2.017-0.925,3.025
		c-0.006,0.021-0.003,0.046-0.009,0.087c0.034-0.021,0.053-0.03,0.069-0.044c0.246-0.241,0.496-0.483,0.74-0.729
		c0.034-0.036,0.065-0.085,0.083-0.131c0.156-0.441,0.316-0.891,0.469-1.337c0.278-0.828,0.55-1.658,0.83-2.49
		c0.02-0.057,0.076-0.129,0.122-0.147c0.145-0.053,0.291-0.078,0.438-0.113c0.01,0.012,0.021,0.024,0.029,0.035
		C17.578,18.47,17.104,19.56,16.69,20.667z"/>
	<path fill="#D5D8DA" d="M17.213,10.158c-0.156-0.084-0.288-0.167-0.428-0.228c-0.31-0.131-0.624-0.247-0.931-0.383
		c-0.287-0.128-0.599-0.188-0.915-0.242c-0.162-0.025-0.299,0.007-0.44,0.151c-0.69,0.728-1.399,1.441-2.095,2.161
		c-1.683,1.746-3.45,3.403-5.177,5.104c-0.674,0.661-1.342,1.339-2.01,2.007c-0.031,0.031-0.057,0.068-0.103,0.122
		c0.065-0.001,0.1,0,0.134-0.006c0.271-0.039,0.546-0.096,0.814-0.111c0.19-0.009,0.381,0.026,0.569,0.059
		c0.181,0.036,0.309,0.153,0.44,0.271c0.225,0.203,0.39,0.449,0.499,0.734c0.028,0.066,0.069,0.057,0.119,0.015
		c0.149-0.141,0.306-0.269,0.449-0.417c1.409-1.434,2.813-2.874,4.221-4.308c1.583-1.613,3.166-3.216,4.753-4.823
		C17.138,10.236,17.163,10.211,17.213,10.158z"/>
	<path fill="#D5D8DA" d="M6.475,19.594c-0.168-0.156-0.319-0.272-0.513-0.329c-0.274-0.086-0.549-0.095-0.84,0.005
		c-0.125,0.042-0.196,0.112-0.225,0.239c-0.106,0.46-0.231,0.925-0.321,1.39c-0.119,0.599-0.219,1.201-0.309,1.801
		c-0.091,0.604-0.153,1.207-0.237,1.806c-0.022,0.132,0.062,0.139,0.134,0.168c0.188,0.073,0.4,0.11,0.564,0.213
		c0.207,0.127,0.388,0.3,0.565,0.471c0.172,0.176,0.269,0.4,0.269,0.663c0,0.199-0.031,0.399-0.043,0.598
		c0,0.029,0.028,0.082,0.05,0.082c0.06,0.008,0.128,0.004,0.194-0.007c0.355-0.052,0.712-0.106,1.068-0.164
		c0.562-0.095,1.124-0.186,1.686-0.285c0.438-0.077,0.875-0.163,1.312-0.251c0.359-0.074,0.721-0.159,1.083-0.241
		c0.097-0.022,0.159-0.069,0.153-0.177c0-0.071-0.003-0.144-0.013-0.217c-0.037-0.245-0.065-0.491-0.122-0.73
		c-0.038-0.166-0.094-0.337-0.184-0.472c-0.122-0.18-0.281-0.336-0.437-0.485c-0.112-0.109-0.266-0.148-0.428-0.161
		c-0.207-0.014-0.416-0.029-0.622-0.044c-0.147-0.013-0.244-0.122-0.231-0.277c0.025-0.235,0.056-0.473,0.094-0.706
		c0.037-0.26,0.04-0.524-0.038-0.758c-0.093-0.283-0.221-0.557-0.468-0.739c-0.163-0.12-0.353-0.19-0.562-0.187
		c-0.218,0.005-0.44,0.037-0.665,0.066c-0.206,0.029-0.293,0-0.349-0.137c-0.038-0.09-0.069-0.183-0.094-0.273
		C6.853,20.114,6.712,19.8,6.475,19.594z"/>
	<path fill="#D5D8DA" d="M21.347,15.917c0.05-0.038,0.09-0.06,0.122-0.09c0.427-0.433,0.855-0.865,1.289-1.296
		c0.098-0.095,0.146-0.204,0.168-0.331c0.107-0.585,0.042-1.152-0.026-1.713c-0.048-0.349-0.114-0.689-0.156-1.036
		c-0.066-0.492-0.217-0.949-0.463-1.358c-0.141-0.232-0.278-0.47-0.455-0.668C21.425,8.99,21,8.585,20.463,8.317
		c-0.181-0.092-0.354-0.206-0.537-0.292c-0.222-0.102-0.452-0.183-0.678-0.275c-0.185-0.07-0.367-0.146-0.553-0.221
		c-0.112-0.041-0.222-0.091-0.337-0.122c-0.239-0.072-0.483-0.133-0.73-0.192c-0.212-0.047-0.427-0.097-0.646-0.131
		c-0.093-0.016-0.187-0.014-0.274,0.084c-0.453,0.49-0.912,0.976-1.371,1.465c-0.025,0.028-0.047,0.06-0.078,0.101
		c0.081,0.02,0.146,0.034,0.208,0.048c0.231,0.042,0.462,0.08,0.687,0.136c0.238,0.056,0.469,0.121,0.693,0.199
		c0.216,0.078,0.444,0.146,0.631,0.269c0.316,0.197,0.605,0.44,0.902,0.662c0.022,0.019,0.038,0.036,0.06,0.053
		c0.578,0.469,1.115,0.973,1.518,1.61c0.115,0.182,0.223,0.376,0.331,0.563c0.06,0.104,0.122,0.211,0.172,0.322
		c0.131,0.289,0.269,0.573,0.387,0.871c0.087,0.227,0.173,0.459,0.225,0.698c0.078,0.333,0.131,0.67,0.185,1.004
		C21.294,15.41,21.312,15.652,21.347,15.917z"/>
	<path fill-rule="evenodd" clip-rule="evenodd" fill="#58595B" d="M18.671,6.091c-0.097-0.092-0.101-0.143-0.01-0.258
		c0.48-0.593,1.012-1.14,1.577-1.653c0.112-0.106,0.246-0.117,0.358-0.092c0.254,0.056,0.497,0.128,0.735,0.219
		c0.158,0.059,0.173,0.151,0.086,0.368c-0.068,0.156-0.228,0.214-0.381,0.169c-0.206-0.058-0.412-0.106-0.611-0.163
		c-0.085-0.025-0.132,0.016-0.185,0.073c-0.304,0.314-0.603,0.634-0.905,0.947c-0.128,0.131-0.26,0.26-0.396,0.381
		C18.827,6.189,18.771,6.187,18.671,6.091z"/>
	<path fill-rule="evenodd" clip-rule="evenodd" fill="#58595B" d="M21.884,12.982c-0.215,0.203-0.394,0.377-0.574,0.551
		c-0.126,0.116-0.134,0.097-0.204-0.041c-0.086-0.178-0.016-0.3,0.119-0.43c0.334-0.328,0.665-0.662,0.999-0.986
		c0.135-0.125,0.144-0.111,0.213,0.05c0.068,0.156,0.004,0.264-0.101,0.375C22.174,12.675,22.012,12.845,21.884,12.982z"/>
</g>
</svg>
