<?xml version="1.0" encoding="utf-8"?>
<!-- Generator: Adobe Illustrator 16.0.0, SVG Export Plug-In . SVG Version: 6.00 Build 0)  -->
<!DOCTYPE svg PUBLIC "-//W3C//DTD SVG 1.1//EN" "http://www.w3.org/Graphics/SVG/1.1/DTD/svg11.dtd">
<svg version="1.1" id="Layer_1" xmlns="http://www.w3.org/2000/svg" xmlns:xlink="http://www.w3.org/1999/xlink" x="0px" y="0px"
	 width="30px" height="30px" viewBox="0 0 30 30" enable-background="new 0 0 30 30" xml:space="preserve">
<path fill="#AAAAAA" stroke="#AAAAAA" stroke-miterlimit="10" d="M11.676,10.998c2.221-2.298,3.983-4.125,5.746-5.948
	c0.83-0.856,1.665-1.709,2.489-2.572c0.166-0.167,0.372-0.216,0.579-0.272C21.02,2.067,21.559,1.995,22.094,2
	c0.413,0,0.825,0.022,1.232,0.068c0.234,0.024,0.463,0.099,0.683,0.171c0.218,0.077,0.423,0.182,0.636,0.268
	c0.252,0.098,0.483,0.228,0.703,0.387c0.147,0.113,0.293,0.233,0.459,0.325C26.15,3.4,26.396,3.69,26.66,3.961
	c0.186,0.182,0.318,0.416,0.475,0.628c0.043,0.055,0.1,0.112,0.123,0.176c0.148,0.289,0.32,0.574,0.417,0.88
	c0.104,0.345,0.14,0.719,0.2,1.081c0.062,0.396,0.041,0.803,0.004,1.208c-0.088,0.909-0.334,1.793-0.708,2.654
	c-0.256,0.575-0.604,1.083-1.04,1.54c-1.753,1.842-3.509,3.679-5.262,5.513c-1.449,1.521-2.891,3.043-4.35,4.549
	c-1.204,1.244-2.422,2.461-3.642,3.688c-0.185,0.187-0.376,0.368-0.571,0.54c-0.173,0.158-0.392,0.214-0.603,0.259
	c-0.457,0.103-0.918,0.177-1.381,0.271c-0.378,0.079-0.755,0.185-1.134,0.258c-0.53,0.108-1.062,0.207-1.595,0.299
	c-0.407,0.073-0.818,0.142-1.229,0.199c-0.463,0.065-0.924,0.127-1.383,0.176C4.591,27.927,4.2,27.975,3.81,27.977
	c-0.332,0.008-0.672,0.01-0.972-0.138c-0.301-0.141-0.455-0.384-0.443-0.755c0.022-0.646,0.118-1.298,0.233-1.939
	c0.142-0.821,0.293-1.643,0.43-2.459c0.112-0.689,0.21-1.375,0.316-2.059c0.07-0.479,0.146-0.949,0.318-1.409
	c0.134-0.35,0.329-0.659,0.591-0.928c0.404-0.429,0.809-0.854,1.227-1.271c0.848-0.832,1.701-1.66,2.55-2.492
	C9.423,13.199,10.787,11.87,11.676,10.998z"/>
<path fill="#FFFFFF" d="M23.809,13.36c0.022-0.011,0.031-0.008,0.043-0.017c0.027-0.02,0.059-0.045,0.082-0.069
	c0.729-0.758,1.426-1.535,2.02-2.401c0.307-0.445,0.542-0.915,0.658-1.429c0.1-0.438,0.173-0.881,0.269-1.32
	c0.104-0.475,0.106-0.947-0.017-1.397c-0.092-0.322-0.225-0.637-0.375-0.933c-0.139-0.263-0.303-0.523-0.493-0.746
	c-0.294-0.333-0.608-0.654-0.933-0.949c-0.217-0.2-0.471-0.365-0.731-0.508c-0.224-0.126-0.479-0.201-0.726-0.29
	c-0.164-0.058-0.334-0.108-0.502-0.141c-0.221-0.055-0.447-0.093-0.672-0.13c-0.201-0.034-0.399-0.065-0.606-0.071
	c-0.267-0.011-0.53-0.003-0.804,0.032c-0.353,0.043-0.685,0.137-0.957,0.425c-0.231,0.239-0.48,0.462-0.713,0.706
	c-0.615,0.627-1.226,1.26-1.834,1.895C17.467,6.07,17.43,6.13,17.396,6.192c-0.01,0.021,0.021,0.088,0.043,0.089
	c0.332,0.077,0.662,0.136,0.994,0.206c0.243,0.052,0.483,0.104,0.721,0.163c0.16,0.042,0.312,0.086,0.468,0.134
	c0.19,0.056,0.381,0.108,0.562,0.183c0.188,0.079,0.371,0.177,0.551,0.271c0.183,0.098,0.367,0.192,0.533,0.314
	c0.201,0.14,0.387,0.303,0.57,0.464c0.186,0.153,0.391,0.293,0.543,0.479c0.234,0.275,0.475,0.556,0.615,0.905
	c0.107,0.261,0.232,0.514,0.347,0.773c0.027,0.057,0.062,0.111,0.099,0.176c0.035-0.036,0.063-0.061,0.091-0.086
	c0.434-0.425,0.864-0.859,1.301-1.285c0.233-0.227,0.481-0.45,0.726-0.668c0.114-0.104,0.188-0.083,0.262,0.037
	c0.142,0.214,0.166,0.473,0.195,0.723c0.029,0.252-0.035,0.47-0.242,0.667c-0.352,0.335-0.688,0.691-1.029,1.04
	c-0.297,0.3-0.59,0.597-0.889,0.901c-0.08,0.083-0.106,0.157-0.076,0.268c0.031,0.117,0.039,0.24,0.039,0.369
	C23.816,12.659,23.814,13.006,23.809,13.36z"/>
<path fill="#FFFFFF" d="M9.592,22.501c0.103-0.092,0.185-0.169,0.262-0.242c0.41-0.405,0.826-0.812,1.24-1.221
	c0.988-0.983,1.98-1.965,2.96-2.964c1.115-1.131,2.211-2.279,3.317-3.42c0.703-0.726,1.406-1.444,2.113-2.164
	c0.035-0.041,0.076-0.124,0.061-0.155c-0.095-0.177-0.177-0.369-0.309-0.51c-0.465-0.502-0.948-0.984-1.422-1.471
	c-0.08-0.085-0.129-0.082-0.222,0.007c-1.198,1.228-2.396,2.453-3.596,3.674c-2.014,2.056-4.028,4.105-6.043,6.167
	c-0.032,0.036-0.063,0.067-0.11,0.114c0.051,0.01,0.072,0.02,0.091,0.014c0.23-0.02,0.453-0.004,0.657,0.074
	c0.152,0.06,0.304,0.123,0.443,0.203c0.071,0.037,0.138,0.102,0.179,0.172c0.068,0.109,0.135,0.229,0.17,0.356
	c0.062,0.232,0.117,0.464,0.155,0.706C9.568,22.045,9.571,22.252,9.592,22.501z"/>
<path fill="#FFFFFF" d="M16.699,20.715c0.011,0.008,0.02,0.018,0.031,0.018c0.009-0.01,0.023-0.021,0.035-0.029
	c0.332-0.344,0.661-0.693,0.99-1.042c0.028-0.026,0.051-0.065,0.062-0.103c0.091-0.256,0.179-0.506,0.257-0.76
	c0.278-0.924,0.553-1.842,0.834-2.762c0.015-0.059,0.071-0.119,0.12-0.141c0.089-0.041,0.187-0.062,0.277-0.072
	c0.153-0.021,0.164,0,0.114,0.148c-0.276,0.81-0.556,1.614-0.839,2.422c-0.059,0.155-0.117,0.319-0.182,0.506
	c0.041-0.021,0.061-0.029,0.074-0.047c0.26-0.256,0.521-0.515,0.778-0.779c0.021-0.02,0.042-0.062,0.05-0.092
	c0.215-0.797,0.434-1.592,0.649-2.379c0.069-0.277,0.071-0.291,0.343-0.349c0.031-0.006,0.064-0.002,0.098-0.006
	c0.1-0.021,0.14,0.012,0.111,0.118c-0.13,0.443-0.246,0.889-0.372,1.335c-0.054,0.192-0.11,0.383-0.169,0.575
	c0.059-0.02,0.087-0.043,0.115-0.074c0.176-0.188,0.352-0.379,0.531-0.562c0.094-0.092,0.132-0.188,0.125-0.302
	c-0.01-0.233-0.023-0.461-0.031-0.69c-0.021-0.386-0.087-0.761-0.188-1.122c-0.041-0.15-0.086-0.295-0.131-0.438
	c-0.062-0.185-0.125-0.368-0.197-0.543c-0.059-0.151-0.133-0.291-0.192-0.439c-0.06-0.141-0.142-0.163-0.257-0.047
	c-0.231,0.214-0.463,0.431-0.687,0.654c-1.175,1.176-2.35,2.345-3.517,3.528c-0.978,0.994-1.94,2-2.914,2.994
	c-0.901,0.92-1.809,1.836-2.711,2.757c-0.039,0.036-0.074,0.073-0.114,0.122c0.162,0.023,0.308,0.029,0.44,0.064
	c0.137,0.041,0.268,0.105,0.394,0.17c0.064,0.029,0.112,0.096,0.179,0.123c0.272,0.098,0.362,0.353,0.482,0.573
	c0.094,0.177,0.134,0.38,0.179,0.577c0.042,0.197,0.061,0.4,0.092,0.604c0.007,0.032,0.025,0.074,0.048,0.082
	c0.019,0.008,0.066-0.02,0.085-0.045c0.029-0.024,0.051-0.063,0.062-0.104c0.062-0.204,0.122-0.412,0.174-0.62
	c0.168-0.688,0.338-1.377,0.499-2.069c0.039-0.166,0.083-0.312,0.275-0.365c0.104-0.031,0.203-0.062,0.31-0.094
	c0.104-0.039,0.136-0.01,0.102,0.1c-0.128,0.437-0.246,0.882-0.386,1.32c-0.21,0.647-0.436,1.293-0.653,1.938
	c-0.013,0.034-0.013,0.071-0.021,0.106c0.009,0.002,0.02,0.006,0.028,0.013c0.031-0.022,0.07-0.048,0.098-0.08
	c0.109-0.109,0.22-0.216,0.318-0.336c0.049-0.05,0.094-0.117,0.115-0.183c0.134-0.41,0.26-0.818,0.389-1.228
	c0.255-0.817,0.511-1.629,0.766-2.44c0.072-0.232,0.366-0.424,0.617-0.408c-0.31,1.188-0.727,2.351-1.112,3.543
	c0.039-0.026,0.05-0.026,0.059-0.035c0.34-0.359,0.684-0.719,1.022-1.084c0.028-0.024,0.047-0.064,0.061-0.104
	c0.118-0.384,0.235-0.76,0.35-1.14c0.271-0.874,0.545-1.753,0.8-2.626c0.055-0.194,0.162-0.251,0.313-0.288
	c0.026,0,0.056,0,0.074-0.002c0.147-0.028,0.155-0.021,0.114,0.123c-0.312,1.031-0.632,2.06-0.943,3.095
	c-0.008,0.021-0.004,0.043-0.01,0.085c0.036-0.02,0.054-0.025,0.07-0.046c0.251-0.245,0.506-0.489,0.754-0.744
	c0.037-0.036,0.065-0.085,0.088-0.134c0.156-0.454,0.322-0.914,0.479-1.367c0.283-0.85,0.562-1.701,0.848-2.551
	c0.021-0.059,0.076-0.131,0.123-0.148c0.146-0.057,0.297-0.08,0.446-0.115c0.013,0.012,0.021,0.021,0.03,0.035
	C17.604,18.471,17.12,19.584,16.699,20.715z"/>
<path fill="#FFFFFF" d="M17.229,9.962c-0.158-0.086-0.293-0.172-0.437-0.233c-0.315-0.134-0.638-0.252-0.949-0.393
	c-0.294-0.132-0.611-0.193-0.935-0.247c-0.164-0.025-0.306,0.007-0.448,0.155c-0.706,0.744-1.428,1.476-2.139,2.21
	c-1.719,1.788-3.521,3.483-5.285,5.228c-0.688,0.678-1.37,1.367-2.052,2.055c-0.032,0.031-0.059,0.064-0.105,0.123
	c0.066-0.004,0.102,0,0.136-0.006c0.277-0.043,0.557-0.101,0.831-0.115c0.194-0.012,0.39,0.029,0.581,0.062
	c0.185,0.037,0.315,0.153,0.449,0.277c0.229,0.208,0.397,0.458,0.509,0.749c0.029,0.066,0.07,0.059,0.121,0.015
	c0.152-0.146,0.312-0.276,0.458-0.425c1.438-1.471,2.872-2.941,4.31-4.411c1.615-1.647,3.23-3.291,4.849-4.933
	C17.154,10.042,17.18,10.016,17.229,9.962z"/>
<path fill="#FFFFFF" d="M6.27,19.619c-0.171-0.161-0.324-0.279-0.522-0.338c-0.279-0.088-0.56-0.098-0.856,0.006
	c-0.128,0.041-0.201,0.113-0.23,0.242c-0.108,0.472-0.235,0.949-0.329,1.427c-0.122,0.61-0.222,1.229-0.315,1.838
	c-0.091,0.623-0.156,1.237-0.242,1.853c-0.022,0.135,0.063,0.143,0.137,0.17c0.192,0.076,0.409,0.113,0.576,0.222
	c0.21,0.128,0.395,0.31,0.577,0.479c0.176,0.183,0.275,0.41,0.275,0.681c0,0.2-0.032,0.409-0.045,0.608
	c0,0.034,0.029,0.088,0.051,0.088c0.059,0.006,0.13,0.002,0.196-0.01c0.362-0.051,0.727-0.109,1.089-0.166
	c0.574-0.1,1.148-0.193,1.721-0.296c0.447-0.073,0.892-0.166,1.339-0.256c0.366-0.074,0.737-0.161,1.105-0.245
	c0.1-0.021,0.162-0.072,0.156-0.18c0-0.074-0.003-0.149-0.013-0.223c-0.038-0.252-0.066-0.506-0.123-0.748
	c-0.039-0.172-0.096-0.345-0.189-0.482c-0.125-0.186-0.288-0.344-0.447-0.496c-0.115-0.111-0.271-0.152-0.437-0.165
	c-0.21-0.017-0.423-0.03-0.634-0.048c-0.149-0.01-0.248-0.123-0.236-0.281c0.025-0.242,0.058-0.486,0.096-0.723
	c0.039-0.268,0.042-0.535-0.038-0.774c-0.096-0.292-0.226-0.571-0.478-0.758c-0.166-0.122-0.361-0.194-0.573-0.192
	c-0.224,0.008-0.449,0.037-0.679,0.069c-0.21,0.027-0.3,0-0.358-0.139c-0.039-0.097-0.071-0.19-0.095-0.283
	C6.656,20.15,6.513,19.829,6.27,19.619z"/>
<path fill="#FFFFFF" d="M21.45,15.855c0.051-0.039,0.092-0.062,0.124-0.095c0.436-0.441,0.874-0.884,1.316-1.326
	c0.1-0.096,0.148-0.207,0.172-0.339c0.108-0.596,0.043-1.177-0.027-1.751c-0.049-0.358-0.114-0.704-0.159-1.06
	c-0.065-0.505-0.22-0.972-0.472-1.39c-0.145-0.24-0.282-0.483-0.465-0.685c-0.406-0.444-0.84-0.859-1.389-1.134
	c-0.186-0.093-0.361-0.211-0.55-0.297c-0.228-0.105-0.461-0.188-0.688-0.282c-0.191-0.074-0.377-0.15-0.566-0.227
	c-0.116-0.042-0.229-0.094-0.344-0.125c-0.245-0.073-0.494-0.136-0.746-0.196c-0.217-0.048-0.436-0.099-0.659-0.135
	c-0.097-0.017-0.19-0.015-0.28,0.086c-0.462,0.5-0.931,1-1.399,1.498c-0.025,0.028-0.047,0.063-0.079,0.105
	c0.082,0.021,0.15,0.036,0.213,0.048c0.235,0.044,0.472,0.083,0.702,0.141c0.242,0.058,0.477,0.125,0.707,0.205
	c0.219,0.079,0.451,0.147,0.644,0.275c0.321,0.203,0.617,0.451,0.921,0.678c0.022,0.021,0.039,0.035,0.062,0.053
	c0.588,0.48,1.136,0.994,1.549,1.647c0.117,0.189,0.227,0.387,0.339,0.578c0.06,0.105,0.122,0.214,0.177,0.328
	c0.133,0.294,0.272,0.585,0.393,0.891c0.093,0.231,0.178,0.47,0.23,0.713c0.08,0.341,0.137,0.688,0.188,1.029
	C21.395,15.337,21.415,15.583,21.45,15.855z"/>
<path fill="#AAAAAA" d="M18.719,5.799c-0.098-0.094-0.101-0.146-0.008-0.262c0.488-0.608,1.031-1.167,1.607-1.692
	c0.113-0.108,0.25-0.119,0.365-0.095c0.258,0.058,0.508,0.132,0.75,0.223c0.164,0.061,0.178,0.156,0.09,0.377
	c-0.07,0.16-0.232,0.219-0.391,0.172c-0.21-0.058-0.42-0.108-0.624-0.165c-0.086-0.026-0.135,0.016-0.188,0.074
	c-0.31,0.322-0.613,0.65-0.924,0.971c-0.131,0.135-0.265,0.265-0.403,0.39C18.878,5.9,18.82,5.897,18.719,5.799z"/>
<path fill="#AAAAAA" d="M22,12.85c-0.223,0.208-0.404,0.387-0.589,0.565c-0.128,0.119-0.138,0.1-0.207-0.04
	c-0.089-0.183-0.017-0.309,0.121-0.441c0.342-0.336,0.68-0.678,1.021-1.011c0.139-0.129,0.147-0.111,0.217,0.051
	c0.069,0.159,0.002,0.272-0.104,0.384C22.296,12.537,22.13,12.711,22,12.85z"/>
</svg>
