<?xml version="1.0" encoding="utf-8"?>
<!-- Generator: Adobe Illustrator 16.0.0, SVG Export Plug-In . SVG Version: 6.00 Build 0)  -->
<!DOCTYPE svg PUBLIC "-//W3C//DTD SVG 1.1//EN" "http://www.w3.org/Graphics/SVG/1.1/DTD/svg11.dtd">
<svg version="1.1" id="Layer_1" xmlns="http://www.w3.org/2000/svg" xmlns:xlink="http://www.w3.org/1999/xlink" x="0px" y="0px"
	 width="30px" height="30px" viewBox="0 0 30 30" enable-background="new 0 0 30 30" xml:space="preserve">
<path fill="#5D5D5D" stroke="#58595B" stroke-miterlimit="10" d="M11.817,10.417c2.35-2.431,4.214-4.364,6.079-6.294
	c0.88-0.905,1.762-1.808,2.634-2.721c0.176-0.177,0.394-0.229,0.612-0.288c0.561-0.146,1.131-0.223,1.698-0.218
	c0.438,0,0.873,0.024,1.305,0.072c0.247,0.025,0.488,0.104,0.721,0.181c0.23,0.081,0.446,0.192,0.671,0.283
	c0.267,0.104,0.514,0.241,0.744,0.41c0.157,0.12,0.312,0.247,0.487,0.344c0.365,0.192,0.624,0.499,0.904,0.785
	c0.196,0.193,0.337,0.44,0.502,0.665c0.045,0.058,0.104,0.118,0.131,0.186c0.156,0.306,0.338,0.607,0.439,0.931
	c0.111,0.365,0.149,0.761,0.212,1.144c0.066,0.419,0.044,0.85,0.004,1.279c-0.092,0.961-0.352,1.897-0.748,2.807
	c-0.27,0.609-0.642,1.147-1.101,1.63c-1.854,1.948-3.713,3.892-5.567,5.832c-1.533,1.61-3.058,3.22-4.603,4.814
	c-1.271,1.315-2.562,2.603-3.851,3.902c-0.196,0.196-0.398,0.389-0.604,0.571c-0.183,0.169-0.415,0.226-0.638,0.275
	c-0.483,0.107-0.971,0.186-1.461,0.287c-0.4,0.084-0.799,0.194-1.199,0.272c-0.561,0.116-1.124,0.22-1.688,0.317
	c-0.431,0.078-0.866,0.149-1.301,0.211c-0.49,0.07-0.978,0.134-1.463,0.185c-0.415,0.05-0.83,0.1-1.242,0.102
	c-0.351,0.008-0.711,0.01-1.028-0.144c-0.319-0.15-0.482-0.406-0.469-0.8c0.023-0.684,0.125-1.373,0.246-2.052
	c0.151-0.869,0.31-1.738,0.455-2.603c0.118-0.729,0.223-1.454,0.334-2.177c0.074-0.506,0.155-1.005,0.337-1.491
	c0.142-0.37,0.348-0.698,0.625-0.981c0.428-0.453,0.856-0.903,1.298-1.344c0.897-0.88,1.8-1.756,2.698-2.636
	C9.433,12.746,10.876,11.34,11.817,10.417z"/>
<path fill="#FFFFFF" d="M24.654,12.916c0.024-0.011,0.034-0.008,0.045-0.018c0.029-0.021,0.062-0.048,0.086-0.073
	c0.771-0.802,1.509-1.624,2.138-2.541c0.324-0.471,0.573-0.968,0.695-1.512c0.106-0.463,0.184-0.932,0.285-1.397
	c0.11-0.503,0.112-1.002-0.018-1.478c-0.096-0.341-0.236-0.674-0.397-0.987c-0.146-0.278-0.321-0.553-0.522-0.789
	c-0.31-0.352-0.643-0.691-0.985-1.004c-0.231-0.211-0.499-0.386-0.775-0.538c-0.236-0.133-0.506-0.213-0.766-0.306
	c-0.175-0.061-0.354-0.115-0.532-0.149c-0.233-0.058-0.474-0.098-0.712-0.137c-0.211-0.036-0.422-0.069-0.641-0.076
	c-0.281-0.011-0.562-0.003-0.851,0.034C21.332,1.99,20.98,2.09,20.691,2.394c-0.244,0.253-0.508,0.49-0.753,0.747
	c-0.651,0.663-1.295,1.333-1.942,2.005c-0.052,0.056-0.092,0.119-0.126,0.185c-0.01,0.022,0.021,0.093,0.046,0.094
	c0.349,0.081,0.699,0.144,1.052,0.218c0.257,0.055,0.511,0.111,0.761,0.172c0.17,0.045,0.332,0.091,0.496,0.142
	c0.201,0.059,0.402,0.115,0.591,0.194c0.2,0.083,0.392,0.187,0.584,0.286c0.193,0.104,0.387,0.203,0.565,0.332
	c0.213,0.148,0.408,0.321,0.604,0.491c0.195,0.162,0.412,0.311,0.573,0.507c0.248,0.291,0.502,0.588,0.651,0.957
	c0.114,0.277,0.247,0.544,0.367,0.818c0.029,0.061,0.064,0.118,0.103,0.187c0.039-0.038,0.07-0.065,0.097-0.092
	c0.459-0.45,0.915-0.909,1.376-1.359c0.249-0.24,0.51-0.476,0.767-0.707c0.121-0.11,0.198-0.089,0.278,0.039
	c0.149,0.227,0.175,0.5,0.205,0.765c0.031,0.267-0.037,0.497-0.256,0.706c-0.371,0.355-0.728,0.731-1.089,1.1
	c-0.314,0.318-0.624,0.632-0.94,0.954c-0.085,0.088-0.114,0.166-0.08,0.284c0.033,0.123,0.042,0.253,0.042,0.389
	C24.663,12.175,24.661,12.542,24.654,12.916z"/>
<path fill="#FFFFFF" d="M9.612,22.588c0.108-0.098,0.195-0.178,0.277-0.256c0.434-0.43,0.873-0.859,1.312-1.292
	c1.045-1.041,2.096-2.079,3.132-3.135c1.18-1.197,2.34-2.413,3.51-3.62c0.744-0.768,1.489-1.528,2.235-2.29
	c0.039-0.043,0.081-0.131,0.064-0.164c-0.099-0.187-0.186-0.39-0.326-0.539c-0.49-0.531-1.003-1.042-1.504-1.556
	c-0.085-0.091-0.136-0.087-0.234,0.007c-1.268,1.299-2.535,2.596-3.804,3.889c-2.131,2.174-4.262,4.345-6.394,6.525
	c-0.034,0.038-0.067,0.071-0.117,0.122c0.054,0.01,0.077,0.02,0.097,0.014c0.243-0.022,0.479-0.004,0.695,0.079
	c0.161,0.062,0.321,0.129,0.468,0.214c0.075,0.04,0.146,0.108,0.19,0.182c0.071,0.116,0.142,0.244,0.179,0.378
	c0.066,0.245,0.124,0.491,0.164,0.746C9.587,22.105,9.59,22.325,9.612,22.588z"/>
<path fill="#FFFFFF" d="M17.132,20.698c0.01,0.007,0.02,0.018,0.034,0.018c0.009-0.011,0.025-0.021,0.037-0.031
	c0.351-0.364,0.699-0.734,1.048-1.103c0.03-0.027,0.054-0.069,0.067-0.107c0.095-0.271,0.189-0.535,0.271-0.804
	c0.295-0.978,0.585-1.948,0.881-2.923c0.017-0.06,0.078-0.126,0.129-0.147c0.094-0.045,0.196-0.068,0.294-0.078
	c0.161-0.021,0.174,0,0.12,0.158c-0.293,0.856-0.587,1.709-0.887,2.562c-0.061,0.165-0.124,0.339-0.192,0.537
	c0.045-0.024,0.064-0.032,0.08-0.051c0.273-0.271,0.551-0.543,0.823-0.825c0.023-0.021,0.044-0.066,0.051-0.097
	c0.229-0.842,0.46-1.683,0.688-2.516c0.075-0.294,0.077-0.308,0.364-0.369c0.033-0.007,0.067-0.003,0.102-0.007
	c0.104-0.022,0.148,0.013,0.118,0.125c-0.136,0.47-0.26,0.94-0.392,1.413c-0.058,0.203-0.117,0.404-0.179,0.607
	c0.062-0.018,0.091-0.045,0.121-0.077c0.186-0.198,0.372-0.401,0.562-0.594c0.099-0.098,0.139-0.199,0.132-0.321
	c-0.01-0.246-0.024-0.487-0.033-0.73c-0.021-0.409-0.092-0.805-0.197-1.186c-0.043-0.159-0.09-0.312-0.138-0.464
	c-0.067-0.196-0.132-0.389-0.209-0.574c-0.061-0.16-0.141-0.308-0.204-0.465c-0.062-0.149-0.15-0.172-0.273-0.05
	c-0.244,0.227-0.489,0.456-0.725,0.693c-1.242,1.244-2.487,2.482-3.72,3.733c-1.036,1.052-2.053,2.115-3.083,3.168
	c-0.955,0.973-1.915,1.944-2.87,2.917c-0.041,0.038-0.078,0.078-0.121,0.128c0.172,0.028,0.325,0.034,0.466,0.07
	c0.145,0.044,0.283,0.112,0.417,0.18c0.067,0.032,0.118,0.102,0.19,0.13c0.287,0.105,0.382,0.373,0.509,0.607
	c0.099,0.187,0.142,0.402,0.189,0.61c0.044,0.21,0.065,0.426,0.098,0.64c0.007,0.033,0.027,0.077,0.051,0.083
	c0.02,0.012,0.07-0.018,0.09-0.044c0.031-0.028,0.054-0.068,0.066-0.109c0.065-0.218,0.129-0.438,0.184-0.658
	c0.178-0.729,0.357-1.457,0.528-2.188c0.041-0.178,0.088-0.332,0.291-0.388c0.111-0.032,0.215-0.066,0.328-0.099
	c0.11-0.041,0.144-0.009,0.107,0.105c-0.135,0.462-0.259,0.933-0.408,1.396c-0.223,0.688-0.462,1.37-0.691,2.053
	c-0.014,0.036-0.014,0.076-0.023,0.113c0.01,0.002,0.021,0.007,0.03,0.013c0.033-0.023,0.075-0.05,0.104-0.084
	c0.115-0.117,0.233-0.229,0.337-0.355c0.051-0.053,0.099-0.125,0.121-0.194c0.143-0.434,0.276-0.865,0.412-1.299
	c0.27-0.865,0.54-1.722,0.81-2.582c0.077-0.247,0.387-0.448,0.653-0.431c-0.327,1.255-0.769,2.485-1.177,3.748
	c0.041-0.028,0.054-0.028,0.062-0.038c0.36-0.38,0.724-0.759,1.082-1.147c0.03-0.026,0.05-0.068,0.065-0.108
	c0.124-0.407,0.248-0.804,0.37-1.207c0.287-0.926,0.577-1.855,0.847-2.78c0.057-0.204,0.172-0.265,0.333-0.303
	c0.027,0,0.057,0,0.078-0.002c0.155-0.031,0.165-0.023,0.121,0.13c-0.331,1.091-0.668,2.18-0.998,3.274
	c-0.008,0.021-0.004,0.046-0.011,0.091c0.038-0.022,0.058-0.03,0.075-0.049c0.266-0.26,0.536-0.519,0.798-0.788
	c0.038-0.04,0.069-0.09,0.093-0.142c0.166-0.479,0.339-0.967,0.505-1.446c0.3-0.9,0.594-1.8,0.897-2.699
	c0.021-0.061,0.081-0.139,0.131-0.157c0.155-0.059,0.314-0.084,0.473-0.124c0.011,0.014,0.022,0.024,0.031,0.04
	C18.088,18.322,17.577,19.502,17.132,20.698z"/>
<path fill="#FFFFFF" d="M17.693,9.321c-0.167-0.091-0.31-0.182-0.462-0.247c-0.334-0.142-0.675-0.267-1.005-0.416
	c-0.31-0.139-0.646-0.204-0.988-0.26c-0.174-0.027-0.324,0.007-0.475,0.163c-0.746,0.787-1.51,1.562-2.263,2.339
	c-1.819,1.891-3.726,3.685-5.592,5.529c-0.728,0.717-1.45,1.448-2.171,2.175c-0.034,0.033-0.061,0.069-0.111,0.13
	c0.07-0.004,0.108,0,0.144-0.006c0.293-0.044,0.59-0.105,0.88-0.122c0.205-0.012,0.412,0.031,0.614,0.066
	c0.195,0.04,0.333,0.163,0.475,0.293c0.243,0.22,0.421,0.485,0.539,0.793c0.03,0.072,0.074,0.062,0.128,0.015
	c0.161-0.152,0.33-0.292,0.485-0.45c1.521-1.553,3.038-3.113,4.56-4.666c1.709-1.743,3.418-3.482,5.131-5.219
	C17.613,9.405,17.64,9.378,17.693,9.321z"/>
<path fill="#FFFFFF" d="M6.097,19.538c-0.181-0.17-0.343-0.294-0.553-0.357c-0.296-0.092-0.593-0.102-0.907,0.006
	c-0.135,0.044-0.212,0.122-0.243,0.258c-0.114,0.499-0.249,1.003-0.347,1.508c-0.129,0.646-0.236,1.3-0.334,1.946
	c-0.097,0.657-0.165,1.309-0.256,1.959c-0.023,0.142,0.067,0.15,0.145,0.18c0.203,0.081,0.432,0.12,0.61,0.233
	c0.222,0.136,0.418,0.326,0.61,0.509c0.186,0.192,0.291,0.434,0.291,0.719c0,0.213-0.034,0.433-0.048,0.646
	c0,0.034,0.031,0.092,0.054,0.092c0.063,0.006,0.138,0.002,0.208-0.01c0.384-0.054,0.769-0.115,1.153-0.176
	c0.607-0.106,1.215-0.205,1.821-0.312c0.473-0.08,0.944-0.176,1.417-0.271c0.387-0.08,0.779-0.172,1.169-0.26
	c0.106-0.022,0.171-0.078,0.165-0.191c0-0.078-0.003-0.158-0.014-0.235c-0.04-0.267-0.07-0.533-0.13-0.791
	c-0.041-0.182-0.102-0.364-0.2-0.51c-0.132-0.197-0.304-0.365-0.473-0.526c-0.121-0.118-0.287-0.161-0.462-0.174
	c-0.222-0.017-0.448-0.034-0.671-0.051c-0.158-0.01-0.262-0.131-0.249-0.298c0.027-0.256,0.061-0.515,0.101-0.764
	c0.041-0.284,0.044-0.566-0.04-0.821c-0.101-0.308-0.239-0.603-0.506-0.801c-0.175-0.129-0.381-0.206-0.606-0.203
	c-0.237,0.006-0.475,0.04-0.719,0.073c-0.222,0.03-0.317,0-0.378-0.147c-0.041-0.101-0.075-0.201-0.101-0.298
	C6.506,20.101,6.354,19.762,6.097,19.538z"/>
<path fill="#FFFFFF" d="M22.159,15.556c0.054-0.041,0.097-0.063,0.131-0.098c0.462-0.467,0.925-0.936,1.394-1.404
	c0.104-0.101,0.157-0.218,0.181-0.358c0.115-0.631,0.045-1.246-0.029-1.853c-0.051-0.379-0.121-0.746-0.168-1.122
	c-0.07-0.534-0.233-1.028-0.5-1.471c-0.15-0.253-0.299-0.511-0.491-0.724c-0.431-0.47-0.89-0.909-1.47-1.2
	c-0.196-0.098-0.382-0.223-0.58-0.314c-0.24-0.112-0.489-0.199-0.731-0.298c-0.2-0.078-0.397-0.159-0.598-0.241
	c-0.123-0.044-0.241-0.099-0.365-0.132c-0.259-0.078-0.522-0.144-0.788-0.208c-0.229-0.051-0.462-0.104-0.698-0.143
	c-0.102-0.018-0.202-0.016-0.296,0.091c-0.489,0.529-0.985,1.058-1.48,1.584c-0.027,0.03-0.05,0.067-0.084,0.112
	c0.087,0.021,0.158,0.038,0.225,0.05c0.25,0.048,0.499,0.089,0.743,0.15c0.257,0.061,0.506,0.132,0.748,0.217
	c0.232,0.084,0.478,0.156,0.681,0.291c0.341,0.214,0.655,0.477,0.975,0.717c0.024,0.021,0.041,0.037,0.065,0.057
	c0.623,0.507,1.202,1.051,1.638,1.742c0.125,0.2,0.241,0.409,0.359,0.612c0.064,0.111,0.13,0.226,0.186,0.347
	c0.141,0.311,0.29,0.619,0.417,0.943c0.096,0.244,0.186,0.497,0.243,0.754c0.085,0.361,0.144,0.728,0.2,1.089
	C22.1,15.009,22.122,15.268,22.159,15.556z"/>
<path fill="#58595B" d="M19.27,4.916c-0.104-0.1-0.107-0.154-0.01-0.278c0.518-0.643,1.092-1.234,1.702-1.79
	c0.121-0.115,0.265-0.126,0.386-0.1c0.273,0.061,0.537,0.139,0.792,0.236c0.174,0.064,0.19,0.165,0.096,0.399
	c-0.074,0.169-0.246,0.231-0.412,0.182c-0.223-0.062-0.444-0.115-0.66-0.175c-0.092-0.027-0.143,0.017-0.199,0.079
	c-0.328,0.34-0.651,0.687-0.978,1.027c-0.14,0.142-0.28,0.28-0.428,0.412C19.438,5.023,19.378,5.02,19.27,4.916z"/>
<path fill="#58595B" d="M22.74,12.377c-0.234,0.22-0.427,0.409-0.622,0.598c-0.135,0.126-0.145,0.106-0.22-0.042
	c-0.094-0.193-0.016-0.326,0.13-0.467c0.36-0.355,0.718-0.717,1.078-1.069c0.146-0.136,0.156-0.118,0.23,0.054
	c0.073,0.168,0.003,0.288-0.11,0.406C23.053,12.045,22.878,12.229,22.74,12.377z"/>
</svg>
