<?xml version="1.0" encoding="utf-8"?>
<!-- Generator: Adobe Illustrator 16.0.0, SVG Export Plug-In . SVG Version: 6.00 Build 0)  -->
<!DOCTYPE svg PUBLIC "-//W3C//DTD SVG 1.1//EN" "http://www.w3.org/Graphics/SVG/1.1/DTD/svg11.dtd">
<svg version="1.1" id="Layer_1" xmlns="http://www.w3.org/2000/svg" xmlns:xlink="http://www.w3.org/1999/xlink" x="0px" y="0px"
	 width="30px" height="30px" viewBox="0 0 30 30" enable-background="new 0 0 30 30" xml:space="preserve">
<g>
	<g>
		
			<rect x="6.94" y="12.167" transform="matrix(0.7071 -0.7071 0.7071 0.7071 -6.0699 14.9045)" fill="#9197A3" width="16.032" height="5.225"/>
		<path fill="#9197A3" d="M19.685,6.356l1.297-1.299c0,0,0.715-0.82,1.375-0.162c0.658,0.659,2.524,2.526,2.524,2.526
			s0.619,0.508-0.268,1.395c-0.889,0.888-1.235,1.235-1.235,1.235L19.685,6.356z"/>
		<path fill="#9197A3" d="M10.789,22.643"/>
		<path fill="#9197A3" d="M10.271,23.238l-3.734-3.734l-1.088,4.371c0,0-0.163,0.557,0.411,0.412
			C6.436,24.145,10.271,23.238,10.271,23.238z"/>
	</g>
</g>
</svg>
