<?xml version="1.0" encoding="utf-8"?>
<!-- Generator: Adobe Illustrator 16.0.0, SVG Export Plug-In . SVG Version: 6.00 Build 0)  -->
<!DOCTYPE svg PUBLIC "-//W3C//DTD SVG 1.1//EN" "http://www.w3.org/Graphics/SVG/1.1/DTD/svg11.dtd">
<svg version="1.1" id="Layer_1" xmlns="http://www.w3.org/2000/svg" xmlns:xlink="http://www.w3.org/1999/xlink" x="0px" y="0px"
	 width="30px" height="30px" viewBox="0 0 30 30" enable-background="new 0 0 30 30" xml:space="preserve">
<g>
	<path fill-rule="evenodd" clip-rule="evenodd" fill="#58595B" d="M12.09,10.792c2.176-2.245,3.902-4.03,5.629-5.812
		c0.815-0.836,1.63-1.67,2.438-2.513c0.163-0.164,0.365-0.212,0.568-0.266C21.244,2.067,21.771,1.995,22.297,2
		c0.405,0,0.809,0.023,1.208,0.067c0.23,0.023,0.452,0.095,0.668,0.167c0.213,0.074,0.412,0.177,0.621,0.261
		c0.247,0.097,0.475,0.223,0.688,0.379c0.146,0.111,0.29,0.228,0.452,0.318c0.338,0.177,0.578,0.461,0.837,0.725
		c0.182,0.178,0.312,0.406,0.466,0.614c0.04,0.054,0.094,0.109,0.121,0.171c0.144,0.283,0.312,0.561,0.406,0.86
		c0.103,0.337,0.138,0.703,0.196,1.057c0.062,0.387,0.041,0.785,0.004,1.181c-0.085,0.887-0.325,1.752-0.693,2.592
		c-0.25,0.562-0.594,1.059-1.019,1.505c-1.717,1.799-3.438,3.594-5.154,5.386c-1.421,1.486-2.832,2.973-4.262,4.445
		c-1.178,1.215-2.373,2.404-3.566,3.604c-0.181,0.182-0.368,0.359-0.559,0.527c-0.169,0.156-0.384,0.209-0.59,0.254
		c-0.447,0.1-0.899,0.172-1.353,0.266c-0.371,0.078-0.74,0.18-1.111,0.252c-0.519,0.107-1.04,0.203-1.562,0.293
		c-0.399,0.072-0.802,0.139-1.205,0.195c-0.453,0.064-0.905,0.123-1.355,0.17c-0.384,0.047-0.768,0.092-1.149,0.094
		c-0.325,0.008-0.659,0.01-0.952-0.133C3.138,27.111,2.988,26.875,3,26.512c0.022-0.631,0.115-1.268,0.228-1.895
		c0.14-0.803,0.287-1.605,0.421-2.404c0.109-0.672,0.206-1.342,0.309-2.01c0.069-0.467,0.144-0.928,0.312-1.377
		c0.131-0.342,0.322-0.645,0.578-0.906c0.396-0.418,0.793-0.834,1.202-1.24c0.831-0.814,1.667-1.623,2.498-2.435
		C9.882,12.943,11.219,11.644,12.09,10.792z"/>
	<path fill="#FFFFFF" d="M23.977,13.099c0.021-0.01,0.031-0.007,0.04-0.016c0.028-0.019,0.057-0.044,0.081-0.068
		c0.712-0.74,1.396-1.499,1.979-2.346c0.3-0.434,0.531-0.893,0.644-1.396c0.097-0.428,0.169-0.861,0.263-1.29
		c0.103-0.465,0.105-0.926-0.016-1.365c-0.088-0.315-0.219-0.623-0.369-0.912c-0.134-0.257-0.296-0.51-0.483-0.728
		c-0.287-0.325-0.594-0.638-0.912-0.927c-0.215-0.195-0.462-0.357-0.718-0.497c-0.219-0.123-0.469-0.196-0.709-0.282
		c-0.162-0.056-0.328-0.106-0.493-0.138c-0.216-0.053-0.438-0.09-0.659-0.126c-0.196-0.033-0.39-0.064-0.593-0.07
		c-0.26-0.01-0.521-0.003-0.787,0.031c-0.344,0.041-0.671,0.133-0.939,0.414c-0.226,0.234-0.469,0.453-0.696,0.69
		c-0.603,0.612-1.199,1.23-1.799,1.852c-0.047,0.051-0.084,0.109-0.115,0.17c-0.01,0.021,0.019,0.086,0.04,0.087
		c0.325,0.075,0.649,0.133,0.975,0.202c0.237,0.051,0.472,0.103,0.705,0.159c0.156,0.042,0.307,0.084,0.459,0.131
		c0.185,0.054,0.372,0.106,0.547,0.179c0.185,0.077,0.362,0.173,0.54,0.264c0.178,0.097,0.359,0.188,0.524,0.307
		c0.197,0.137,0.378,0.296,0.56,0.453c0.181,0.15,0.381,0.287,0.53,0.468c0.231,0.269,0.465,0.543,0.603,0.884
		c0.106,0.256,0.229,0.502,0.341,0.755c0.027,0.056,0.059,0.109,0.094,0.172c0.037-0.034,0.065-0.06,0.09-0.084
		c0.425-0.416,0.847-0.84,1.274-1.255c0.23-0.222,0.472-0.44,0.709-0.653C25.8,8.062,25.871,8.082,25.946,8.2
		c0.138,0.209,0.162,0.462,0.19,0.706c0.028,0.247-0.034,0.459-0.237,0.652c-0.344,0.328-0.674,0.675-1.009,1.015
		c-0.29,0.294-0.577,0.584-0.871,0.881c-0.078,0.081-0.105,0.153-0.074,0.262c0.031,0.113,0.04,0.234,0.04,0.359
		C23.985,12.416,23.982,12.755,23.977,13.099z"/>
	<path fill="#FFFFFF" d="M10.048,22.031c0.1-0.09,0.181-0.164,0.256-0.236c0.402-0.396,0.809-0.793,1.215-1.193
		c0.968-0.961,1.941-1.92,2.9-2.895c1.093-1.105,2.167-2.229,3.25-3.343c0.688-0.709,1.38-1.411,2.07-2.114
		c0.037-0.04,0.075-0.121,0.06-0.152c-0.091-0.172-0.172-0.359-0.303-0.497c-0.453-0.49-0.928-0.962-1.393-1.437
		c-0.078-0.084-0.125-0.081-0.216,0.007c-1.174,1.199-2.348,2.397-3.522,3.591c-1.973,2.008-3.946,4.014-5.92,6.026
		c-0.031,0.035-0.062,0.066-0.108,0.113c0.05,0.008,0.071,0.018,0.09,0.012c0.225-0.02,0.443-0.004,0.644,0.074
		c0.149,0.057,0.297,0.119,0.434,0.197c0.069,0.037,0.135,0.1,0.175,0.168c0.066,0.107,0.132,0.225,0.166,0.348
		c0.062,0.227,0.115,0.455,0.152,0.689C10.025,21.586,10.028,21.789,10.048,22.031z"/>
	<path fill="#FFFFFF" d="M17.011,20.287c0.009,0.006,0.019,0.016,0.031,0.016c0.009-0.01,0.024-0.02,0.034-0.029
		c0.327-0.336,0.649-0.678,0.971-1.018c0.028-0.025,0.05-0.064,0.062-0.1c0.088-0.25,0.175-0.494,0.25-0.742
		c0.274-0.902,0.543-1.799,0.817-2.699c0.016-0.055,0.072-0.115,0.119-0.137c0.087-0.041,0.181-0.062,0.271-0.072
		c0.15-0.018,0.162,0,0.112,0.146c-0.271,0.791-0.543,1.578-0.821,2.365c-0.056,0.154-0.115,0.314-0.178,0.496
		c0.041-0.021,0.06-0.029,0.075-0.045c0.253-0.25,0.509-0.502,0.762-0.762c0.021-0.021,0.041-0.062,0.047-0.09
		c0.212-0.777,0.425-1.553,0.637-2.323c0.069-0.272,0.072-0.284,0.337-0.341c0.031-0.006,0.062-0.003,0.094-0.006
		c0.098-0.02,0.138,0.012,0.109,0.115c-0.125,0.434-0.24,0.869-0.362,1.304c-0.053,0.188-0.108,0.373-0.165,0.561
		c0.057-0.016,0.084-0.041,0.112-0.07c0.172-0.184,0.344-0.371,0.521-0.549c0.091-0.09,0.128-0.184,0.122-0.297
		c-0.01-0.227-0.022-0.449-0.031-0.674c-0.019-0.378-0.085-0.743-0.182-1.096c-0.04-0.146-0.084-0.287-0.128-0.428
		c-0.062-0.181-0.122-0.359-0.193-0.53c-0.057-0.147-0.131-0.284-0.19-0.429c-0.057-0.137-0.138-0.159-0.253-0.046
		c-0.225,0.209-0.453,0.421-0.671,0.64c-1.149,1.149-2.302,2.292-3.444,3.448c-0.959,0.971-1.901,1.953-2.854,2.926
		c-0.884,0.898-1.773,1.795-2.657,2.693c-0.038,0.035-0.072,0.072-0.112,0.119c0.159,0.025,0.3,0.031,0.431,0.064
		c0.134,0.041,0.262,0.104,0.387,0.166c0.062,0.029,0.109,0.094,0.175,0.119c0.266,0.098,0.354,0.346,0.472,0.562
		c0.091,0.172,0.131,0.371,0.175,0.564c0.041,0.193,0.06,0.393,0.091,0.59c0.006,0.031,0.025,0.072,0.047,0.078
		c0.019,0.01,0.065-0.018,0.084-0.041c0.028-0.027,0.05-0.064,0.062-0.102c0.06-0.201,0.119-0.404,0.169-0.607
		c0.165-0.674,0.331-1.346,0.49-2.021c0.037-0.164,0.081-0.307,0.269-0.359c0.103-0.029,0.199-0.061,0.303-0.092
		c0.103-0.037,0.134-0.006,0.1,0.098c-0.125,0.428-0.24,0.861-0.378,1.289c-0.206,0.635-0.428,1.266-0.64,1.896
		c-0.013,0.033-0.013,0.07-0.021,0.105c0.009,0.002,0.019,0.006,0.027,0.012c0.031-0.023,0.069-0.047,0.097-0.078
		c0.106-0.109,0.216-0.211,0.312-0.328c0.047-0.049,0.091-0.117,0.112-0.18c0.132-0.4,0.256-0.799,0.381-1.199
		c0.25-0.799,0.5-1.59,0.75-2.385c0.071-0.227,0.358-0.414,0.605-0.398c-0.303,1.16-0.712,2.295-1.09,3.461
		c0.037-0.025,0.05-0.025,0.057-0.035c0.334-0.35,0.671-0.701,1.002-1.059c0.028-0.025,0.047-0.064,0.06-0.1
		c0.115-0.375,0.23-0.742,0.343-1.115c0.266-0.855,0.534-1.713,0.784-2.568c0.053-0.188,0.159-0.244,0.309-0.279
		c0.025,0,0.051,0,0.072-0.002c0.144-0.029,0.153-0.021,0.112,0.119c-0.306,1.008-0.618,2.014-0.924,3.025
		c-0.007,0.018-0.004,0.043-0.01,0.084c0.034-0.02,0.053-0.029,0.068-0.045c0.247-0.24,0.497-0.48,0.74-0.727
		c0.034-0.037,0.065-0.084,0.085-0.131c0.155-0.443,0.314-0.893,0.468-1.336c0.278-0.832,0.55-1.662,0.831-2.492
		c0.019-0.057,0.074-0.129,0.121-0.146c0.144-0.053,0.291-0.078,0.438-0.115c0.009,0.012,0.021,0.023,0.028,0.037
		C17.897,18.092,17.423,19.182,17.011,20.287z"/>
	<path fill="#FFFFFF" d="M17.531,9.78c-0.155-0.084-0.287-0.168-0.428-0.228c-0.309-0.131-0.624-0.247-0.93-0.384
		c-0.287-0.128-0.6-0.188-0.915-0.24c-0.162-0.025-0.3,0.006-0.44,0.15c-0.69,0.727-1.398,1.442-2.095,2.16
		c-1.684,1.746-3.45,3.403-5.177,5.106c-0.675,0.662-1.343,1.338-2.011,2.008c-0.031,0.031-0.056,0.064-0.103,0.121
		c0.065-0.004,0.1,0,0.134-0.006c0.271-0.041,0.546-0.098,0.815-0.113c0.19-0.01,0.381,0.029,0.568,0.061
		c0.181,0.037,0.309,0.152,0.44,0.271c0.225,0.203,0.39,0.449,0.499,0.732c0.028,0.066,0.069,0.057,0.119,0.014
		c0.149-0.141,0.306-0.27,0.449-0.416c1.408-1.434,2.813-2.875,4.222-4.309c1.583-1.61,3.166-3.216,4.752-4.82
		C17.457,9.858,17.481,9.833,17.531,9.78z"/>
	<path fill="#FFFFFF" d="M6.794,19.215c-0.168-0.156-0.318-0.271-0.512-0.33c-0.274-0.084-0.549-0.094-0.84,0.006
		c-0.125,0.041-0.197,0.113-0.225,0.238c-0.106,0.461-0.231,0.926-0.322,1.393c-0.119,0.596-0.218,1.199-0.309,1.797
		c-0.09,0.607-0.153,1.209-0.237,1.809c-0.022,0.131,0.062,0.137,0.134,0.166c0.188,0.074,0.4,0.111,0.565,0.215
		c0.206,0.125,0.387,0.301,0.565,0.469c0.172,0.178,0.269,0.402,0.269,0.664c0,0.197-0.031,0.4-0.044,0.598
		c0,0.031,0.028,0.084,0.05,0.084c0.059,0.006,0.128,0.002,0.193-0.01c0.356-0.049,0.712-0.105,1.068-0.162
		c0.562-0.098,1.125-0.188,1.686-0.287c0.438-0.074,0.874-0.162,1.312-0.25c0.359-0.074,0.722-0.16,1.083-0.24
		c0.098-0.021,0.159-0.072,0.153-0.178c0-0.072-0.003-0.145-0.013-0.217c-0.037-0.246-0.065-0.492-0.121-0.73
		c-0.038-0.168-0.094-0.336-0.185-0.471c-0.122-0.182-0.281-0.338-0.438-0.486c-0.112-0.109-0.265-0.148-0.428-0.16
		c-0.206-0.016-0.415-0.031-0.621-0.047c-0.146-0.01-0.243-0.121-0.231-0.275c0.025-0.236,0.057-0.475,0.094-0.705
		c0.038-0.262,0.041-0.523-0.037-0.758c-0.094-0.285-0.222-0.557-0.469-0.74c-0.162-0.119-0.353-0.191-0.562-0.188
		c-0.219,0.006-0.44,0.037-0.665,0.068c-0.206,0.027-0.294,0-0.35-0.137c-0.038-0.092-0.069-0.186-0.094-0.275
		C7.172,19.734,7.031,19.422,6.794,19.215z"/>
	<path fill="#FFFFFF" d="M21.666,15.537c0.05-0.037,0.09-0.059,0.121-0.09c0.428-0.431,0.855-0.864,1.29-1.296
		c0.097-0.094,0.146-0.202,0.168-0.331c0.106-0.583,0.041-1.151-0.027-1.711c-0.047-0.35-0.112-0.689-0.156-1.036
		c-0.065-0.493-0.216-0.949-0.462-1.358c-0.141-0.234-0.278-0.472-0.456-0.668c-0.399-0.434-0.824-0.84-1.361-1.108
		c-0.182-0.091-0.353-0.206-0.537-0.291c-0.222-0.103-0.453-0.184-0.678-0.275c-0.185-0.072-0.368-0.147-0.553-0.222
		c-0.112-0.041-0.222-0.091-0.337-0.122c-0.24-0.072-0.484-0.133-0.73-0.192C17.734,6.79,17.52,6.74,17.301,6.705
		c-0.094-0.016-0.188-0.014-0.274,0.084c-0.453,0.489-0.912,0.977-1.371,1.463c-0.025,0.028-0.047,0.062-0.078,0.103
		c0.081,0.019,0.146,0.035,0.209,0.047c0.231,0.044,0.462,0.082,0.688,0.138c0.237,0.056,0.468,0.122,0.692,0.2
		c0.216,0.078,0.443,0.144,0.631,0.269c0.315,0.197,0.606,0.44,0.902,0.662c0.022,0.019,0.038,0.034,0.06,0.053
		c0.578,0.468,1.114,0.971,1.518,1.608c0.115,0.185,0.222,0.378,0.331,0.565c0.06,0.103,0.122,0.209,0.172,0.321
		c0.131,0.287,0.269,0.571,0.387,0.871c0.088,0.225,0.172,0.459,0.225,0.696c0.078,0.334,0.132,0.672,0.185,1.006
		C21.612,15.032,21.632,15.272,21.666,15.537z"/>
	<path fill-rule="evenodd" clip-rule="evenodd" fill="#58595B" d="M18.99,5.712C18.894,5.62,18.89,5.57,18.98,5.455
		c0.48-0.593,1.012-1.14,1.577-1.653c0.112-0.106,0.246-0.117,0.358-0.092c0.253,0.056,0.497,0.128,0.734,0.218
		c0.159,0.06,0.175,0.152,0.087,0.369c-0.068,0.156-0.228,0.214-0.381,0.168c-0.206-0.058-0.412-0.106-0.612-0.162
		c-0.084-0.025-0.131,0.016-0.184,0.073c-0.303,0.314-0.603,0.634-0.905,0.948c-0.128,0.131-0.26,0.259-0.396,0.381
		C19.146,5.811,19.09,5.808,18.99,5.712z"/>
	<path fill-rule="evenodd" clip-rule="evenodd" fill="#58595B" d="M22.203,12.602c-0.216,0.203-0.394,0.378-0.575,0.553
		c-0.125,0.116-0.134,0.098-0.203-0.04c-0.087-0.178-0.015-0.3,0.119-0.431c0.334-0.328,0.665-0.662,0.999-0.987
		c0.135-0.125,0.144-0.109,0.213,0.05c0.068,0.156,0.003,0.266-0.101,0.375C22.493,12.296,22.331,12.465,22.203,12.602z"/>
</g>
</svg>
