<?xml version="1.0" encoding="utf-8"?>
<!-- Generator: Adobe Illustrator 15.0.0, SVG Export Plug-In . SVG Version: 6.00 Build 0)  -->
<!DOCTYPE svg PUBLIC "-//W3C//DTD SVG 1.1//EN" "http://www.w3.org/Graphics/SVG/1.1/DTD/svg11.dtd">
<svg version="1.1" id="Capa_1" xmlns="http://www.w3.org/2000/svg" xmlns:xlink="http://www.w3.org/1999/xlink" x="0px" y="0px"
	 width="141.732px" height="141.732px" viewBox="0 0 141.732 141.732" enable-background="new 0 0 141.732 141.732"
	 xml:space="preserve">
<g>
	<path fill="#FFFFFF" d="M70.798,7.746c35.179,0,63.8,28.62,63.8,63.799s-28.621,63.797-63.8,63.797
		C35.62,135.342,7,106.723,7,71.545S35.62,7.746,70.798,7.746 M70.798,6.746C35.012,6.746,6,35.758,6,71.545
		c0,35.785,29.013,64.797,64.798,64.797c35.787,0,64.8-29.012,64.8-64.797C135.597,35.758,106.585,6.746,70.798,6.746L70.798,6.746z
		"/>
</g>
<path fill="none" stroke="#FFFFFF" stroke-width="2" stroke-miterlimit="10" d="M74.812,72.602c0,3.724,0.711,4.952,0.711,4.952
	c0.78,3.368,16.271,7.294,16.271,7.294c6.094,2.167,5.478,7.019,5.478,7.019v5.582H45.22h-5.149v-5.582c0,0-0.625-4.852,5.474-7.019
	c0,0,15.491-3.927,16.289-7.294c0,0,0.696-1.229,0.696-4.952"/>
<path fill="none" stroke="#FFFFFF" stroke-width="2" stroke-miterlimit="10" d="M84.869,55.954c0,9.783-7.079,17.714-15.813,17.714
	c-8.729,0-15.808-7.932-15.808-17.714c0-9.779,7.077-17.711,15.808-17.711C77.79,38.243,84.869,46.175,84.869,55.954z"/>
<path fill="none" stroke="#FFFFFF" stroke-width="2" stroke-miterlimit="10" d="M53.738,52.967c0,0,13.516,4.829,18.898-9.582
	c0,0,2.726,8.598,11.354,7.157"/>
</svg>
