<?xml version="1.0" encoding="utf-8"?>
<!-- Generator: Adobe Illustrator 16.0.0, SVG Export Plug-In . SVG Version: 6.00 Build 0)  -->
<!DOCTYPE svg PUBLIC "-//W3C//DTD SVG 1.1//EN" "http://www.w3.org/Graphics/SVG/1.1/DTD/svg11.dtd">
<svg version="1.1" id="Capa_1" xmlns="http://www.w3.org/2000/svg" xmlns:xlink="http://www.w3.org/1999/xlink" x="0px" y="0px"
	 width="141.732px" height="141.732px" viewBox="0 0 141.732 141.732" enable-background="new 0 0 141.732 141.732"
	 xml:space="preserve">
<g>
	<path fill="#EB8964" stroke="#9197A3" stroke-width="2" stroke-miterlimit="10" d="M71.366,8.366
		c34.469,0,62.512,28.043,62.512,62.512c0,34.47-28.043,62.513-62.512,62.513S8.854,105.347,8.854,70.878
		C8.854,36.409,36.897,8.366,71.366,8.366 M71.366,6.366c-35.629,0-64.512,28.883-64.512,64.512
		c0,35.628,28.883,64.513,64.512,64.513s64.512-28.885,64.512-64.513C135.878,35.249,106.995,6.366,71.366,6.366L71.366,6.366z"/>
</g>
<path fill="none" stroke="#9197A3" stroke-width="4" stroke-miterlimit="10" d="M74.812,72.602c0,3.724,0.711,4.952,0.711,4.952
	c0.78,3.366,16.271,7.294,16.271,7.294c6.096,2.167,5.479,7.019,5.479,7.019v5.582H45.22h-5.149v-5.582c0,0-0.625-4.852,5.474-7.019
	c0,0,15.491-3.929,16.289-7.294c0,0,0.696-1.229,0.696-4.952"/>
<path fill="none" stroke="#9197A3" stroke-width="4" stroke-miterlimit="10" d="M84.869,55.954c0,9.783-7.079,17.714-15.812,17.714
	c-8.729,0-15.81-7.932-15.81-17.714c0-9.779,7.077-17.711,15.81-17.711C77.79,38.243,84.869,46.175,84.869,55.954z"/>
<path fill="none" stroke="#9197A3" stroke-width="4" stroke-miterlimit="10" d="M53.738,52.967c0,0,13.516,4.829,18.898-9.582
	c0,0,2.726,8.6,11.354,7.157"/>
</svg>
