<?xml version="1.0" encoding="utf-8"?>
<!-- Generator: Adobe Illustrator 15.0.0, SVG Export Plug-In . SVG Version: 6.00 Build 0)  -->
<!DOCTYPE svg PUBLIC "-//W3C//DTD SVG 1.1//EN" "http://www.w3.org/Graphics/SVG/1.1/DTD/svg11.dtd">
<svg version="1.1" id="Capa_1" xmlns="http://www.w3.org/2000/svg" xmlns:xlink="http://www.w3.org/1999/xlink" x="0px" y="0px"
	 width="141.732px" height="141.732px" viewBox="0 0 141.732 141.732" enable-background="new 0 0 141.732 141.732"
	 xml:space="preserve">
<path fill="none" stroke="#85B8A1" stroke-width="2" stroke-miterlimit="10" d="M74.812,72.602c0,3.724,0.711,4.952,0.711,4.952
	c0.78,3.366,16.271,7.294,16.271,7.294c6.096,2.167,5.479,7.019,5.479,7.019v5.582H45.22h-5.149v-5.582c0,0-0.625-4.852,5.474-7.019
	c0,0,15.491-3.929,16.289-7.294c0,0,0.696-1.229,0.696-4.952"/>
<path fill="none" stroke="#85B8A1" stroke-width="2" stroke-miterlimit="10" d="M84.869,55.954c0,9.783-7.079,17.714-15.813,17.714
	c-8.729,0-15.81-7.932-15.81-17.714c0-9.779,7.077-17.711,15.81-17.711C77.79,38.243,84.869,46.175,84.869,55.954z"/>
<path fill="none" stroke="#85B8A1" stroke-width="2" stroke-miterlimit="10" d="M53.738,52.967c0,0,13.516,4.829,18.898-9.581
	c0,0,2.726,8.599,11.354,7.156"/>
<g>
	<path fill="#85B8A1" d="M70.366,8.866c34.469,0,62.512,28.042,62.512,62.512c0,34.47-28.043,62.513-62.512,62.513
		S7.854,105.847,7.854,71.378C7.854,36.908,35.897,8.866,70.366,8.866 M70.366,6.866c-35.629,0-64.512,28.883-64.512,64.512
		c0,35.629,28.883,64.513,64.512,64.513s64.512-28.884,64.512-64.513C134.878,35.749,105.995,6.866,70.366,6.866L70.366,6.866z"/>
</g>
</svg>
