<?xml version="1.0" encoding="utf-8"?>
<!-- Generator: Adobe Illustrator 16.0.0, SVG Export Plug-In . SVG Version: 6.00 Build 0)  -->
<!DOCTYPE svg PUBLIC "-//W3C//DTD SVG 1.1//EN" "http://www.w3.org/Graphics/SVG/1.1/DTD/svg11.dtd">
<svg version="1.1" id="Layer_1" xmlns="http://www.w3.org/2000/svg" xmlns:xlink="http://www.w3.org/1999/xlink" x="0px" y="0px"
	 width="30px" height="30px" viewBox="0 0 30 30" enable-background="new 0 0 30 30" xml:space="preserve">
<g>
	<g>
		<circle fill="#96D5D2" cx="15" cy="14.906" r="14.56"/>
	</g>
	<path fill-rule="evenodd" clip-rule="evenodd" fill="#96D5D2" d="M19.618,19.562c0.028,0.873,0.057,1.747,0.083,2.62
		c0.002,0.134-0.006,0.269-0.008,0.404c-0.002,0.11-0.063,0.168-0.169,0.184c-0.182,0.023-0.359-0.019-0.368-0.278
		c-0.025-0.496-0.066-0.992-0.088-1.488c-0.028-0.64-0.046-1.278-0.066-1.917c-0.002-0.078,0.002-0.158-0.003-0.235
		c-0.006-0.072,0.029-0.102,0.096-0.115c0.136-0.023,0.265,0,0.378,0.068c0.044,0.025,0.081,0.09,0.09,0.142
		c0.03,0.203,0.047,0.409,0.068,0.614C19.631,19.561,19.622,19.562,19.618,19.562z"/>
	<path fill="#FFFFFF" d="M15.047,5.475c0,0,1.506-0.111,3.057,1.678c1.213,1.398,1.063,2.954,1.014,3.397
		c-0.049,0.443-0.345,1.728-0.895,2.35c-0.397,0.449-0.716,1.071-1.729,1.314c-1.015,0.244-1.301,0.257-2.228,0.143
		c-0.925-0.116-2-0.509-2.422-0.881c-0.422-0.372-1.619-1.248-1.477-3.524c0.144-2.276,1.455-3.11,1.656-3.26
		C12.226,6.541,13.541,5.431,15.047,5.475z"/>
	<path fill="#FFFFFF" d="M15.117,24.869c-1.328,0.027-2.66-0.21-3.889-0.723c-0.455-0.188-0.894-0.415-1.31-0.68
		c-0.125-0.081-0.246-0.167-0.366-0.254c-0.254-0.181-0.218-0.385-0.224-0.674c-0.005-0.283-0.045-0.565-0.077-0.843
		c-0.096-0.806-0.191-1.899-0.08-2.673c0.111-0.772,0.614-1.804,1.153-2.3c0.255-0.233,0.806-0.763,1.086-0.966
		c0.232-0.169,0.471-0.284,0.704-0.452c0.071-0.052,0.044-0.076,0.138-0.061c0.023,0.003,0.222,0.094,0.287,0.137
		c0.033,0.022,0.068,0.041,0.103,0.058c0.135,0.067,0.309,0.12,0.449,0.168c0.263,0.087,0.357,0.104,0.657,0.15
		c0.319,0.052,0.643,0.035,0.962,0.074c2.388,0.283,3.296-0.821,3.414-0.989c0.118-0.169,0.829,0.362,1.459,0.749
		c0.628,0.385,1.172,0.965,1.646,1.794c0.474,0.828,0.591,3.321,0.614,3.948c0.011,0.289,0.024,0.578,0.037,0.866
		c0.011,0.193,0.069,0.399,0.038,0.594c-0.022,0.147-0.104,0.176-0.217,0.258c-0.119,0.085-0.237,0.168-0.362,0.243
		c-0.393,0.237-0.81,0.434-1.234,0.606c-1.38,0.556-2.862,0.846-4.343,0.938C15.548,24.854,15.332,24.863,15.117,24.869z"/>
	<path fill="#96D5D2" d="M13.687,6.852c0.105,0.005,0.159,0.056,0.191,0.128c0.032,0.079,0.017,0.157-0.034,0.225
		c-0.023,0.035-0.056,0.063-0.09,0.088c-0.453,0.334-0.746,0.778-0.836,1.353c-0.05,0.306-0.082,0.614-0.122,0.921
		c-0.019,0.152-0.101,0.261-0.219,0.292c-0.194,0.053-0.329-0.033-0.375-0.255c-0.217-1.033,0.169-2.024,1.056-2.592
		C13.396,6.923,13.546,6.857,13.687,6.852z"/>
	<path fill="#83BAB8" d="M20.348,18.421c0.029,0.91,0.06,1.823,0.087,2.736c0.003,0.141-0.006,0.281-0.007,0.422
		c-0.004,0.117-0.067,0.177-0.179,0.19c-0.188,0.025-0.373-0.019-0.385-0.288c-0.025-0.521-0.067-1.037-0.091-1.558
		c-0.029-0.667-0.046-1.335-0.069-2.001c-0.003-0.082,0.003-0.165-0.003-0.245c-0.005-0.078,0.031-0.108,0.1-0.12
		c0.143-0.025,0.277,0,0.396,0.069c0.047,0.026,0.084,0.094,0.093,0.148c0.031,0.214,0.05,0.428,0.071,0.642
		C20.361,18.417,20.353,18.419,20.348,18.421z"/>
	<path fill="#83BAB8" d="M13.713,6.813c0.102,0.006,0.154,0.056,0.185,0.13c0.032,0.078,0.015,0.158-0.031,0.227
		c-0.025,0.034-0.056,0.063-0.088,0.088c-0.438,0.338-0.722,0.786-0.808,1.365c-0.048,0.309-0.079,0.62-0.119,0.929
		c-0.017,0.154-0.097,0.264-0.211,0.295c-0.188,0.054-0.318-0.033-0.363-0.257c-0.209-1.043,0.165-2.043,1.021-2.616
		C13.433,6.886,13.576,6.819,13.713,6.813z"/>
	<path fill="#83BAB8" d="M12.177,17.486c0.081-0.044,0.167-0.085,0.255-0.104c0.064-0.014,0.099-0.122,0.094-0.285
		c-0.001-0.068-0.041-0.112-0.071-0.162c-0.027-0.03-0.058-0.058-0.093-0.065c-0.024-0.002-0.049,0.006-0.07,0.011
		c-0.017,0.004-0.034,0.008-0.049,0.016c-0.007,0.002-0.015,0.007-0.022,0.009c-0.011,0.005-0.023,0.004-0.034,0.007
		c-0.006,0.005-0.011,0.007-0.018,0.008c-0.011,0.004-0.022,0.006-0.034,0.009c-0.083,0.024-0.16,0.06-0.236,0.096
		c-0.114,0.053-0.222,0.112-0.329,0.173c-0.129,0.075-0.231,0.188-0.361,0.287c-0.592,0.456-0.574,1.475-0.583,1.577
		c-0.009,0.104-0.025,0.437,0.032,0.52c0.058,0.082,0.211,0.07,0.251,0.043c0.039-0.027,0.191-0.054,0.182-0.347
		c-0.011-0.294,0.052-0.651,0.117-0.914c0.063-0.264,0.299-0.493,0.508-0.617c0.1-0.062,0.316-0.2,0.425-0.244
		C12.151,17.494,12.164,17.491,12.177,17.486z"/>
	<path fill="#83BAB8" d="M15.036,4.776c0,0,1.731-0.147,2.956,1.383c1.227,1.529,1.276,3.629,1.227,4.109
		c-0.054,0.479-0.397,2.053-0.736,2.588c-0.391,0.62-0.763,1.061-1.803,1.326c-1.042,0.265-1.496,0.332-2.445,0.207
		c-0.952-0.125-1.852-0.289-2.285-0.692c-0.434-0.404-1.867-1.635-1.721-4.099s1.523-3.47,1.729-3.633
		C12.164,5.802,13.488,4.728,15.036,4.776z M12.303,6.561c-0.18,0.14-1.353,0.918-1.481,3.043c-0.128,2.125,0.942,2.944,1.321,3.292
		c0.377,0.348,1.339,0.714,2.166,0.821c0.827,0.108,1.085,0.096,1.992-0.131c0.906-0.229,1.192-0.81,1.546-1.228
		c0.494-0.582,0.757-1.782,0.802-2.195c0.046-0.415,0.178-1.867-0.907-3.172c-1.388-1.67-2.734-1.565-2.734-1.565
		C13.659,5.383,12.482,6.419,12.303,6.561z"/>
	<path fill="#83BAB8" d="M22.241,21.406c-0.029-0.619-0.151-1.612-0.375-2.43c-0.223-0.819-0.281-1.234-0.563-1.694
		c-0.473-0.777-0.802-1.114-1.381-1.603c-0.58-0.491-1.738-0.848-1.895-0.899c-0.157-0.051-0.191-0.052-1.242,0.675
		c-0.495,0.343-1.582,0.409-1.582,0.409s-0.058-0.003-0.083-0.003c-0.248,0.013-0.452-0.015-0.695-0.059
		c-0.285-0.052-0.566-0.128-0.842-0.213c-0.233-0.074-0.465-0.155-0.688-0.253c-0.069-0.031-0.141-0.065-0.207-0.106
		c-0.1-0.063-0.213-0.18-0.342-0.169c-0.061,0.004-0.124,0.043-0.174,0.07c-0.042,0.021-0.087,0.04-0.124,0.066
		c-0.017,0.014-0.034,0.03-0.052,0.042c-0.026,0.017-0.058,0.023-0.085,0.041c-0.015,0.011-0.026,0.021-0.042,0.028
		c-0.03,0.015-0.059,0.03-0.085,0.044c-0.203,0.113-0.394,0.254-0.58,0.393c-0.272,0.207-0.536,0.427-0.792,0.653
		c-0.309,0.274-0.542,0.623-0.848,0.96c-1.147,1.269-0.795,4.04-0.795,4.307c0,0.468,0.014,0.939,0.122,1.392
		c0.061,0.254,0.26,0.525,0.442,0.714c0.146,0.154,0.313,0.29,0.489,0.411c0.455,0.317,0.969,0.553,1.493,0.735
		c1.209,0.427,2.516,0.599,3.796,0.594c1.057-0.008,2.12-0.086,3.158-0.291c0.962-0.195,1.924-0.498,2.761-1.021
		c0.259-0.163,0.507-0.347,0.729-0.558c0.098-0.092,0.181-0.19,0.266-0.294c0.104-0.128,0.229-0.22,0.282-0.384
		c0.05-0.155,0.041-0.326,0.016-0.486C22.265,22.132,22.255,21.756,22.241,21.406z M15.11,24.715
		c-1.25,0.028-2.502-0.192-3.657-0.667c-0.428-0.175-0.842-0.382-1.231-0.628c-0.118-0.073-0.233-0.153-0.347-0.233
		c-0.237-0.166-0.203-0.355-0.209-0.623c-0.005-0.26-0.042-0.521-0.073-0.778c-0.089-0.743-0.178-1.754-0.073-2.467
		c0.104-0.713,0.578-1.667,1.084-2.124c0.24-0.217,0.757-0.706,1.02-0.893c0.219-0.155,0.444-0.261,0.664-0.418
		c0.065-0.047,0.042-0.071,0.128-0.056c0.021,0.003,0.208,0.089,0.271,0.127c0.03,0.019,0.063,0.035,0.096,0.053
		c0.127,0.061,0.29,0.11,0.422,0.155c0.247,0.079,0.335,0.096,0.619,0.139c0.3,0.046,0.604,0.031,0.905,0.068
		c2.245,0.261,3.097-0.759,3.21-0.915c0.11-0.155,0.778,0.333,1.37,0.691c0.592,0.355,1.103,0.893,1.548,1.657
		c0.445,0.767,0.559,3.066,0.58,3.648c0.011,0.265,0.022,0.531,0.035,0.798c0.009,0.179,0.063,0.369,0.036,0.548
		c-0.021,0.138-0.099,0.163-0.206,0.237c-0.111,0.08-0.224,0.155-0.34,0.227c-0.37,0.22-0.762,0.399-1.161,0.559
		c-1.298,0.513-2.692,0.783-4.083,0.868C15.516,24.702,15.312,24.709,15.11,24.715z"/>
</g>
</svg>
