<?xml version="1.0" encoding="utf-8"?>
<!-- Generator: Adobe Illustrator 16.0.0, SVG Export Plug-In . SVG Version: 6.00 Build 0)  -->
<!DOCTYPE svg PUBLIC "-//W3C//DTD SVG 1.1//EN" "http://www.w3.org/Graphics/SVG/1.1/DTD/svg11.dtd">
<svg version="1.1" id="Layer_1" xmlns="http://www.w3.org/2000/svg" xmlns:xlink="http://www.w3.org/1999/xlink" x="0px" y="0px"
	 width="30px" height="30px" viewBox="0 0 30 30" enable-background="new 0 0 30 30" xml:space="preserve">
<path fill-rule="evenodd" clip-rule="evenodd" fill="#FFFFFF" d="M27.829,11.672c-0.189-0.233-0.378-0.464-0.564-0.698
	c-0.393-0.485-0.784-0.971-1.177-1.458c-0.02-0.025-0.042-0.068-0.035-0.093c0.009-0.023,0.054-0.045,0.085-0.047
	c0.291-0.02,0.583-0.046,0.875-0.045c0.096,0,0.229,0.045,0.284,0.117c0.2,0.252,0.381,0.521,0.555,0.792
	c0.048,0.075,0.06,0.183,0.062,0.276c0.007,0.287,0.003,0.573-0.004,0.86c-0.001,0.098-0.023,0.195-0.039,0.292
	C27.856,11.668,27.843,11.67,27.829,11.672z"/>
<g>
	<path fill-rule="evenodd" clip-rule="evenodd" fill="#2C3962" d="M29.037,10.691c-0.055,0.638-0.109,1.329-0.175,2.017
		c-0.054,0.595-0.117,1.189-0.183,1.782c-0.062,0.557-0.13,1.114-0.194,1.67c-0.062,0.529-0.124,1.059-0.188,1.588
		c-0.062,0.516-0.129,1.029-0.193,1.545c-0.063,0.471-0.119,0.941-0.188,1.41c-0.106,0.715-0.193,1.434-0.438,2.122
		c-0.03,0.084-0.073,0.166-0.121,0.243c-0.087,0.14-0.211,0.216-0.383,0.223c-0.693,0.028-1.386,0.057-2.078,0.093
		c-0.846,0.046-1.692,0.095-2.539,0.149c-0.905,0.058-1.812,0.118-2.715,0.186c-0.773,0.057-1.545,0.124-2.317,0.188
		c-0.769,0.063-1.535,0.125-2.302,0.194c-0.648,0.058-1.298,0.123-1.946,0.188c-0.626,0.063-1.252,0.123-1.877,0.196
		c-0.637,0.074-1.275,0.156-1.911,0.249c-0.496,0.07-0.991,0.148-1.483,0.244c-0.427,0.084-0.85,0.2-1.277,0.295
		c-0.454,0.103-0.906,0.203-1.375,0.191c-0.782-0.022-1.412-0.468-1.642-1.213c-0.175-0.572-0.32-1.156-0.444-1.742
		c-0.142-0.672-0.255-1.351-0.365-2.029c-0.092-0.558-0.163-1.118-0.239-1.678c-0.084-0.607-0.167-1.219-0.248-1.827
		c-0.082-0.639-0.162-1.274-0.245-1.912c-0.059-0.452-0.125-0.903-0.184-1.354c-0.085-0.613-0.169-1.227-0.254-1.841
		c-0.061-0.446-0.126-0.893-0.187-1.34C1.242,9.765,1.142,9.002,1.042,8.24C1.02,8.082,0.994,7.924,0.991,7.766
		C0.983,6.913,1.389,6.469,2.08,6.263c0.792-0.235,1.589-0.46,2.395-0.65c1.16-0.274,2.347-0.312,3.534-0.28
		C8.185,5.339,8.36,5.381,8.533,5.42c0.239,0.054,0.395,0.213,0.5,0.428C9.189,6.164,9.374,6.46,9.624,6.711
		c0.19,0.191,0.408,0.298,0.684,0.274c0.65-0.054,1.3-0.098,1.949-0.159c0.604-0.056,1.206-0.126,1.807-0.193
		c0.526-0.058,1.051-0.122,1.577-0.181c0.601-0.069,1.206-0.134,1.806-0.201c0.58-0.065,1.16-0.131,1.739-0.193
		c0.588-0.062,1.178-0.123,1.769-0.179c1.035-0.098,2.074-0.167,3.113-0.115c0.418,0.021,0.835,0.08,1.242,0.164
		c0.404,0.083,0.665,0.356,0.8,0.747c0.154,0.456,0.183,0.928,0.178,1.403c-0.002,0.118,0.036,0.141,0.148,0.144
		c0.404,0.009,0.812,0.009,1.212,0.057c0.823,0.095,1.178,0.51,1.301,1.336C28.999,9.952,29.007,10.295,29.037,10.691z M4.88,24.45
		c0.029,0.005,0.048,0.014,0.063,0.01c0.337-0.053,0.674-0.106,1.011-0.161c0.513-0.084,1.024-0.173,1.537-0.254
		c0.545-0.083,1.092-0.16,1.636-0.238c0.582-0.084,1.163-0.172,1.745-0.253c0.596-0.083,1.193-0.159,1.788-0.239
		c0.642-0.084,1.283-0.174,1.926-0.25c0.703-0.088,1.41-0.164,2.117-0.238c0.654-0.07,1.306-0.141,1.959-0.201
		c0.809-0.073,1.616-0.142,2.427-0.199c0.981-0.07,1.964-0.129,2.946-0.194c0.051-0.004,0.1-0.031,0.148-0.046
		c-0.019-0.049-0.023-0.109-0.061-0.142c-0.17-0.156-0.349-0.308-0.521-0.459c-0.101-0.09-0.211-0.175-0.301-0.275
		c-0.106-0.117-0.08-0.361,0.037-0.476c0.103-0.102,0.22-0.095,0.375,0.035c0.11,0.092,0.212,0.188,0.307,0.292
		c0.28,0.312,0.554,0.629,0.829,0.946c0.112,0.13,0.249,0.193,0.422,0.184c0.223-0.013,0.445-0.016,0.669-0.029
		c0.065-0.003,0.13-0.019,0.229-0.034c-0.081-0.097-0.134-0.172-0.2-0.239c-0.644-0.65-1.29-1.299-1.936-1.947
		c-0.146-0.147-0.292-0.289-0.426-0.444c-0.104-0.122-0.102-0.254-0.022-0.35c0.076-0.091,0.225-0.125,0.351-0.051
		c0.132,0.076,0.271,0.16,0.368,0.275c0.681,0.788,1.354,1.587,2.028,2.382c0.041,0.046,0.08,0.092,0.14,0.159
		c0.042-0.096,0.07-0.166,0.1-0.234c0.159-0.374,0.128-0.699-0.147-1.032c-0.765-0.915-1.505-1.854-2.254-2.783
		c-0.153-0.191-0.315-0.378-0.464-0.574c-0.092-0.12-0.097-0.27-0.019-0.338c0.122-0.107,0.23-0.02,0.312,0.055
		c0.148,0.129,0.29,0.268,0.408,0.421c0.703,0.902,1.398,1.811,2.097,2.716c0.11,0.144,0.226,0.28,0.364,0.453
		c0.023-0.104,0.046-0.165,0.052-0.229c0.021-0.374,0.036-0.746,0.06-1.119c0.009-0.117-0.04-0.197-0.13-0.268
		c-0.088-0.065-0.168-0.144-0.237-0.225c-0.717-0.833-1.399-1.695-2.187-2.465c-0.137-0.135-0.248-0.302-0.354-0.465
		c-0.035-0.054-0.042-0.177-0.008-0.207c0.05-0.048,0.175-0.083,0.227-0.053c0.162,0.098,0.332,0.206,0.458,0.347
		c0.755,0.836,1.5,1.682,2.247,2.521c0.03,0.034,0.07,0.062,0.12,0.104c0.016-0.056,0.028-0.084,0.032-0.112
		c0.055-0.6,0.109-1.199,0.166-1.797c0.011-0.104-0.02-0.182-0.087-0.26c-0.58-0.68-1.155-1.365-1.734-2.044
		c-0.295-0.345-0.573-0.708-0.951-0.977c-0.076-0.057-0.133-0.148-0.189-0.229c-0.074-0.101-0.075-0.206,0.017-0.298
		c0.095-0.094,0.172-0.005,0.241,0.039c0.294,0.192,0.564,0.413,0.791,0.688c0.616,0.744,1.234,1.486,1.852,2.229
		c0.045,0.055,0.091,0.109,0.155,0.187c0.03-0.082,0.057-0.135,0.063-0.189c0.04-0.412,0.07-0.827,0.115-1.239
		c0.023-0.208-0.047-0.373-0.18-0.523c-0.254-0.286-0.5-0.581-0.758-0.861c-0.534-0.572-1.024-1.19-1.678-1.642
		c-0.036-0.026-0.067-0.06-0.099-0.093c-0.119-0.116-0.104-0.259-0.063-0.396c0.01-0.034,0.108-0.074,0.148-0.061
		c0.092,0.032,0.188,0.082,0.257,0.148c0.355,0.333,0.726,0.656,1.048,1.019c0.438,0.493,0.839,1.021,1.254,1.534
		c0.047,0.058,0.099,0.11,0.166,0.184c0.016-0.075,0.032-0.118,0.036-0.161c0.032-0.451,0.057-0.901,0.095-1.35
		c0.019-0.175-0.033-0.31-0.148-0.432c-0.212-0.227-0.434-0.445-0.631-0.684c-0.457-0.543-0.912-1.09-1.351-1.65
		c-0.164-0.208-0.349-0.252-0.596-0.232c-0.563,0.047-1.128,0.073-1.691,0.107c-0.979,0.058-1.959,0.107-2.936,0.171
		c-0.832,0.056-1.665,0.123-2.496,0.19c-0.691,0.057-1.381,0.117-2.07,0.182c-0.585,0.054-1.171,0.113-1.754,0.179
		c-0.534,0.061-1.068,0.13-1.602,0.2c-0.731,0.095-1.464,0.186-2.194,0.292c-0.635,0.092-1.269,0.193-1.9,0.31
		c-0.644,0.119-1.286,0.256-1.926,0.395c-0.325,0.07-0.547,0.266-0.614,0.602c-0.052,0.257-0.111,0.518-0.125,0.78
		c-0.057,1.042-0.114,2.084-0.139,3.129c-0.048,1.979-0.08,3.957-0.102,5.938c-0.007,0.713-0.15,1.39-0.432,2.04
		C5.036,24.114,4.959,24.277,4.88,24.45z M4.502,20.312c0.011-0.001,0.022-0.002,0.032-0.004c0.002-0.023,0.006-0.045,0.006-0.067
		c0.038-1.176,0.062-2.353,0.112-3.528c0.065-1.553,0.141-3.106,0.229-4.658c0.04-0.692,0.344-1.229,1.048-1.441
		c0.374-0.114,0.756-0.197,1.14-0.269c0.633-0.115,1.267-0.212,1.902-0.309c0.559-0.085,1.117-0.161,1.677-0.241
		c0.595-0.085,1.191-0.175,1.787-0.253c0.781-0.101,1.564-0.196,2.347-0.289c0.746-0.089,1.492-0.182,2.242-0.254
		c0.811-0.08,1.625-0.141,2.44-0.204c0.703-0.054,1.408-0.098,2.113-0.151c0.603-0.046,1.208-0.096,1.811-0.149
		c0.541-0.048,1.082-0.103,1.621-0.159c0.04-0.004,0.105-0.043,0.107-0.073c0.033-0.242,0.083-0.488,0.072-0.73
		c-0.02-0.381-0.183-0.524-0.56-0.507c-0.466,0.021-0.93,0.06-1.392,0.103C22.441,7.2,21.649,7.28,20.855,7.364
		c-0.757,0.08-1.514,0.17-2.269,0.253c-0.806,0.09-1.611,0.177-2.418,0.264c-0.708,0.078-1.416,0.153-2.123,0.229
		c-0.529,0.056-1.06,0.111-1.591,0.168c-0.552,0.059-1.106,0.116-1.657,0.182c-0.656,0.08-1.311,0.167-1.967,0.253
		C8.11,8.808,7.388,8.91,6.665,9.002C6.077,9.078,5.489,9.141,4.903,9.216C4.7,9.241,4.496,9.273,4.299,9.329
		c-0.332,0.092-0.508,0.343-0.51,0.691c0,0.104,0.004,0.209,0.008,0.313c0.03,0.542,0.057,1.084,0.089,1.626
		c0.066,1.078,0.127,2.157,0.204,3.235c0.112,1.551,0.233,3.101,0.352,4.65C4.454,20.002,4.48,20.155,4.502,20.312z M8.736,8.029
		c-0.029-0.045-0.051-0.084-0.077-0.12C8.406,7.558,8.154,7.207,7.896,6.859c-0.153-0.207-0.157-0.203,0.04-0.376
		c0.028-0.023,0.065-0.08,0.058-0.095C7.972,6.356,7.926,6.326,7.886,6.319C7.775,6.3,7.66,6.288,7.547,6.279
		C6.8,6.225,6.052,6.224,5.311,6.346c-0.38,0.062-0.76,0.143-1.133,0.242C3.682,6.719,3.187,6.86,2.702,7.026
		c-0.288,0.1-0.571,0.239-0.6,0.611c-0.019,0.227-0.05,0.453-0.061,0.68c-0.007,0.151,0.04,0.277,0.184,0.368
		c0.144,0.093,0.266,0.219,0.402,0.327C2.8,9.148,2.973,9.282,3.146,9.413c0.088,0.066,0.167,0.066,0.218-0.049
		C3.413,9.258,3.468,9.153,3.52,9.047c0.082-0.169,0.048-0.303-0.084-0.443c-0.222-0.233-0.43-0.483-0.63-0.735
		C2.707,7.746,2.723,7.622,2.82,7.523c0.099-0.102,0.224-0.099,0.324-0.03C3.258,7.57,3.362,7.67,3.442,7.78
		c0.177,0.244,0.334,0.5,0.5,0.75c0.063,0.098,0.151,0.154,0.272,0.151c0.263-0.007,0.528-0.012,0.791-0.025
		C5.053,8.654,5.098,8.616,5.154,8.59C5.129,8.556,5.116,8.538,5.103,8.521C4.76,8.106,4.418,7.691,4.078,7.275
		C3.963,7.134,3.971,6.985,4.087,6.858c0.062-0.067,0.13-0.085,0.203-0.023c0.076,0.065,0.154,0.129,0.217,0.207
		c0.292,0.374,0.591,0.742,0.86,1.13c0.199,0.286,0.423,0.44,0.777,0.333C6.183,8.493,6.228,8.503,6.266,8.49
		c0.099-0.029,0.196-0.065,0.322-0.109C6.501,8.286,6.446,8.221,6.385,8.159c-0.311-0.326-0.626-0.648-0.933-0.98
		C5.378,7.098,5.323,6.994,5.28,6.89C5.235,6.778,5.282,6.687,5.398,6.637c0.218-0.093,0.342-0.074,0.5,0.108
		c0.108,0.123,0.2,0.259,0.292,0.394c0.225,0.326,0.442,0.657,0.672,0.98c0.041,0.057,0.121,0.12,0.182,0.122
		c0.135,0.004,0.275-0.016,0.403-0.053C7.582,8.149,7.58,8.118,7.485,8.012C7.157,7.633,6.829,7.254,6.504,6.874
		c-0.04-0.046-0.071-0.101-0.123-0.176C6.508,6.66,6.609,6.627,6.712,6.602c0.235-0.058,0.274-0.043,0.413,0.155
		c0.275,0.385,0.542,0.776,0.819,1.16C8.103,8.133,8.489,8.187,8.736,8.029z M27.829,11.672c0.014-0.002,0.027-0.003,0.041-0.004
		c0.016-0.097,0.038-0.194,0.039-0.292c0.007-0.287,0.011-0.574,0.004-0.86c-0.002-0.093-0.014-0.201-0.062-0.276
		c-0.174-0.271-0.354-0.54-0.555-0.792c-0.055-0.072-0.188-0.117-0.284-0.117c-0.292-0.001-0.584,0.025-0.875,0.045
		c-0.031,0.001-0.076,0.024-0.085,0.047c-0.007,0.025,0.016,0.068,0.035,0.093c0.393,0.487,0.784,0.973,1.177,1.458
		C27.451,11.208,27.64,11.438,27.829,11.672z M3.694,20.735c0.016,0,0.03,0,0.046,0c0.002-0.053,0.009-0.104,0.009-0.156
		c0.004-1.28,0.007-2.561,0.008-3.844c0-0.046-0.015-0.104-0.044-0.138c-0.163-0.173-0.328-0.341-0.498-0.505
		c-0.023-0.024-0.071-0.021-0.107-0.031c-0.006,0.035-0.019,0.069-0.013,0.104c0.025,0.212,0.054,0.424,0.08,0.636
		c0.083,0.675,0.156,1.35,0.243,2.021c0.077,0.601,0.167,1.199,0.253,1.8C3.676,20.66,3.686,20.698,3.694,20.735z M2.126,9.436
		C2.125,9.437,2.124,9.437,2.12,9.437C2.139,9.582,2.168,9.725,2.173,9.87c0.009,0.311,0.168,0.51,0.437,0.648
		c0.171,0.088,0.332,0.2,0.503,0.294c0.028,0.016,0.104,0.003,0.117-0.021c0.109-0.169,0.075-0.685-0.062-0.83
		c-0.244-0.257-0.498-0.504-0.75-0.753c-0.04-0.04-0.092-0.074-0.145-0.098C2.163,9.06,2.108,9.098,2.111,9.218
		C2.112,9.291,2.122,9.363,2.126,9.436z M3.478,13.44c-0.021-0.256-0.029-0.452-0.059-0.645c-0.011-0.066-0.066-0.138-0.122-0.181
		c-0.151-0.117-0.308-0.223-0.468-0.326c-0.048-0.031-0.113-0.041-0.169-0.059c-0.018,0.053-0.055,0.109-0.05,0.16
		c0.021,0.309,0.05,0.616,0.086,0.924c0.007,0.062,0.04,0.141,0.086,0.177c0.184,0.14,0.379,0.267,0.57,0.396
		c0.084,0.058,0.125,0.029,0.125-0.071C3.478,13.67,3.478,13.525,3.478,13.44z M3.63,15.677c0.021-0.009,0.04-0.017,0.061-0.027
		c-0.04-0.308-0.08-0.618-0.123-0.925c-0.005-0.029-0.024-0.062-0.049-0.079c-0.159-0.118-0.322-0.235-0.49-0.344
		c-0.033-0.021-0.105-0.026-0.134-0.004c-0.029,0.022-0.042,0.087-0.037,0.131c0.012,0.117,0.029,0.235,0.057,0.349
		c0.021,0.092,0.042,0.195,0.097,0.264c0.156,0.193,0.332,0.374,0.503,0.556C3.548,15.631,3.592,15.649,3.63,15.677z M2.386,11.106
		c0.048,0.155,0.065,0.317,0.142,0.444c0.153,0.255,0.422,0.373,0.676,0.501c0.019,0.009,0.084-0.024,0.084-0.037
		c-0.003-0.124,0.033-0.28-0.031-0.366c-0.172-0.237-0.381-0.449-0.585-0.662c-0.042-0.045-0.14-0.082-0.189-0.062
		C2.438,10.941,2.42,11.037,2.386,11.106z"/>
	<path fill-rule="evenodd" clip-rule="evenodd" fill="#FFFFFF" d="M4.88,24.45c0.079-0.173,0.156-0.336,0.227-0.5
		c0.282-0.65,0.424-1.327,0.432-2.04c0.022-1.98,0.054-3.959,0.102-5.938c0.025-1.044,0.083-2.087,0.139-3.129
		c0.014-0.262,0.073-0.523,0.125-0.78c0.067-0.336,0.289-0.532,0.614-0.602c0.64-0.138,1.283-0.276,1.926-0.395
		c0.632-0.117,1.266-0.218,1.9-0.31c0.73-0.106,1.463-0.197,2.194-0.292c0.534-0.07,1.068-0.14,1.602-0.2
		c0.583-0.066,1.169-0.125,1.754-0.179c0.689-0.065,1.379-0.125,2.07-0.182c0.831-0.068,1.664-0.135,2.496-0.19
		c0.977-0.064,1.957-0.114,2.936-0.171c0.563-0.034,1.128-0.06,1.691-0.107c0.247-0.021,0.432,0.024,0.596,0.232
		c0.438,0.56,0.894,1.106,1.351,1.65c0.197,0.238,0.419,0.457,0.631,0.684c0.115,0.122,0.167,0.256,0.148,0.432
		c-0.038,0.449-0.062,0.899-0.095,1.35c-0.004,0.043-0.021,0.086-0.036,0.161c-0.067-0.074-0.119-0.126-0.166-0.184
		c-0.415-0.513-0.815-1.041-1.254-1.534c-0.322-0.363-0.692-0.685-1.048-1.019c-0.068-0.066-0.165-0.116-0.257-0.148
		c-0.04-0.013-0.139,0.026-0.148,0.061c-0.04,0.137-0.056,0.28,0.063,0.396c0.031,0.033,0.062,0.067,0.099,0.093
		c0.653,0.452,1.144,1.07,1.678,1.642c0.258,0.28,0.504,0.575,0.758,0.861c0.133,0.15,0.203,0.315,0.18,0.523
		c-0.045,0.412-0.075,0.827-0.115,1.239c-0.007,0.055-0.033,0.107-0.063,0.189c-0.064-0.077-0.11-0.132-0.155-0.187
		c-0.617-0.743-1.235-1.484-1.852-2.229c-0.227-0.275-0.497-0.496-0.791-0.688c-0.069-0.044-0.146-0.133-0.241-0.039
		c-0.092,0.092-0.091,0.197-0.017,0.298c0.057,0.081,0.113,0.172,0.189,0.229c0.378,0.269,0.656,0.632,0.951,0.977
		c0.579,0.679,1.154,1.364,1.734,2.044c0.067,0.078,0.098,0.156,0.087,0.26c-0.057,0.598-0.111,1.197-0.166,1.797
		c-0.004,0.028-0.017,0.057-0.032,0.112c-0.05-0.042-0.09-0.069-0.12-0.104c-0.747-0.84-1.492-1.686-2.247-2.521
		c-0.126-0.141-0.296-0.249-0.458-0.347c-0.052-0.03-0.177,0.005-0.227,0.053c-0.034,0.03-0.027,0.153,0.008,0.207
		c0.105,0.163,0.217,0.33,0.354,0.465c0.787,0.77,1.47,1.632,2.187,2.465c0.069,0.081,0.149,0.159,0.237,0.225
		c0.09,0.07,0.139,0.15,0.13,0.268c-0.023,0.373-0.038,0.745-0.06,1.119c-0.006,0.064-0.028,0.126-0.052,0.229
		c-0.139-0.173-0.254-0.31-0.364-0.453c-0.698-0.905-1.394-1.813-2.097-2.716c-0.118-0.153-0.26-0.292-0.408-0.421
		c-0.082-0.074-0.19-0.162-0.312-0.055c-0.078,0.068-0.073,0.218,0.019,0.338c0.148,0.196,0.311,0.383,0.464,0.574
		c0.749,0.93,1.489,1.868,2.254,2.783c0.275,0.333,0.307,0.658,0.147,1.032c-0.029,0.068-0.058,0.139-0.1,0.234
		c-0.06-0.067-0.099-0.113-0.14-0.159c-0.675-0.795-1.348-1.594-2.028-2.382c-0.098-0.115-0.236-0.199-0.368-0.275
		c-0.126-0.074-0.274-0.04-0.351,0.051c-0.079,0.096-0.082,0.228,0.022,0.35c0.134,0.155,0.28,0.297,0.426,0.444
		c0.646,0.648,1.292,1.297,1.936,1.947c0.066,0.067,0.119,0.143,0.2,0.239c-0.1,0.016-0.164,0.031-0.229,0.034
		c-0.224,0.014-0.446,0.017-0.669,0.029c-0.173,0.01-0.31-0.054-0.422-0.184c-0.275-0.317-0.549-0.634-0.829-0.946
		c-0.095-0.104-0.196-0.2-0.307-0.292c-0.155-0.13-0.272-0.137-0.375-0.035c-0.117,0.114-0.144,0.358-0.037,0.476
		c0.09,0.101,0.2,0.186,0.301,0.275c0.173,0.151,0.352,0.303,0.521,0.459c0.037,0.032,0.042,0.093,0.061,0.142
		c-0.049,0.015-0.098,0.042-0.148,0.046c-0.982,0.065-1.965,0.124-2.946,0.194c-0.811,0.058-1.618,0.126-2.427,0.199
		c-0.653,0.061-1.305,0.131-1.959,0.201c-0.707,0.074-1.414,0.15-2.117,0.238c-0.643,0.076-1.285,0.166-1.926,0.25
		c-0.595,0.08-1.192,0.156-1.788,0.239c-0.582,0.081-1.163,0.169-1.745,0.253c-0.544,0.078-1.09,0.155-1.636,0.238
		c-0.512,0.081-1.024,0.17-1.537,0.254c-0.337,0.055-0.674,0.108-1.011,0.161C4.928,24.464,4.909,24.455,4.88,24.45z M6.817,15.71
		h0.004c0,0.568-0.001,1.139,0.002,1.709c0.001,0.264,0,0.529,0.026,0.791c0.009,0.109,0.074,0.221,0.131,0.319
		c0.019,0.032,0.096,0.045,0.144,0.04c0.021-0.002,0.036-0.073,0.047-0.113c0.007-0.025,0.004-0.055,0.006-0.082
		c0.023-0.647,0.037-1.293,0.074-1.938c0.056-0.971,0.131-1.938,0.193-2.907c0.008-0.116,0.044-0.201,0.133-0.269
		c0.22-0.169,0.469-0.287,0.742-0.326c0.377-0.053,0.76-0.075,1.139-0.118c0.059-0.007,0.142-0.042,0.166-0.086
		c0.079-0.153-0.009-0.315-0.178-0.343c-0.8-0.13-1.564-0.04-2.283,0.37c-0.237,0.135-0.357,0.302-0.353,0.587
		C6.825,14.131,6.817,14.92,6.817,15.71z"/>
	<path fill-rule="evenodd" clip-rule="evenodd" fill="#FFFFFF" d="M4.502,20.312c-0.021-0.157-0.048-0.311-0.06-0.468
		c-0.119-1.55-0.24-3.1-0.352-4.65c-0.077-1.078-0.138-2.157-0.204-3.235c-0.032-0.542-0.059-1.084-0.089-1.626
		c-0.004-0.104-0.008-0.209-0.008-0.313c0.002-0.348,0.179-0.599,0.51-0.691C4.496,9.273,4.7,9.241,4.903,9.216
		c0.586-0.075,1.174-0.138,1.761-0.213C7.388,8.91,8.11,8.808,8.832,8.712c0.656-0.086,1.311-0.173,1.967-0.253
		c0.55-0.066,1.105-0.123,1.657-0.182c0.531-0.057,1.062-0.112,1.591-0.168c0.707-0.076,1.415-0.151,2.123-0.229
		c0.807-0.087,1.612-0.174,2.418-0.264c0.755-0.083,1.512-0.173,2.269-0.253c0.794-0.084,1.586-0.164,2.382-0.236
		c0.462-0.043,0.926-0.082,1.392-0.103c0.377-0.017,0.54,0.126,0.56,0.507c0.011,0.242-0.039,0.488-0.072,0.73
		c-0.002,0.03-0.067,0.069-0.107,0.073c-0.539,0.056-1.08,0.111-1.621,0.159c-0.603,0.053-1.208,0.103-1.811,0.149
		c-0.705,0.054-1.41,0.097-2.113,0.151c-0.815,0.063-1.63,0.124-2.44,0.204c-0.75,0.073-1.496,0.166-2.242,0.254
		c-0.783,0.093-1.566,0.188-2.347,0.289c-0.596,0.079-1.192,0.168-1.787,0.253c-0.56,0.08-1.118,0.156-1.677,0.241
		c-0.635,0.097-1.269,0.194-1.902,0.309c-0.383,0.071-0.766,0.154-1.14,0.269c-0.704,0.212-1.008,0.749-1.048,1.441
		c-0.088,1.552-0.164,3.105-0.229,4.658c-0.049,1.176-0.074,2.353-0.112,3.528c0,0.022-0.004,0.044-0.006,0.067
		C4.524,20.311,4.513,20.312,4.502,20.312z"/>
	<path fill-rule="evenodd" clip-rule="evenodd" fill="#FFFFFF" d="M8.736,8.029C8.489,8.187,8.103,8.133,7.943,7.917
		c-0.277-0.383-0.544-0.774-0.819-1.16C6.986,6.559,6.947,6.544,6.712,6.602C6.609,6.627,6.508,6.66,6.381,6.698
		c0.052,0.075,0.083,0.129,0.123,0.176c0.325,0.38,0.653,0.76,0.981,1.138C7.58,8.118,7.582,8.149,7.447,8.188
		C7.319,8.224,7.179,8.244,7.044,8.24C6.982,8.239,6.902,8.176,6.862,8.119C6.632,7.796,6.415,7.465,6.19,7.139
		C6.098,7.004,6.006,6.868,5.897,6.745c-0.158-0.182-0.281-0.201-0.5-0.108C5.282,6.687,5.235,6.778,5.28,6.89
		c0.042,0.104,0.098,0.208,0.172,0.288c0.306,0.333,0.622,0.654,0.933,0.98c0.061,0.062,0.116,0.127,0.203,0.223
		C6.462,8.425,6.365,8.461,6.266,8.49C6.228,8.503,6.183,8.493,6.144,8.505C5.79,8.612,5.565,8.458,5.367,8.172
		c-0.269-0.388-0.568-0.756-0.86-1.13C4.444,6.965,4.366,6.901,4.29,6.835C4.218,6.773,4.149,6.792,4.087,6.858
		C3.971,6.985,3.963,7.134,4.078,7.275c0.34,0.416,0.682,0.831,1.024,1.246C5.116,8.538,5.129,8.556,5.154,8.59
		C5.098,8.616,5.053,8.654,5.005,8.656C4.742,8.669,4.477,8.674,4.214,8.682C4.093,8.685,4.005,8.628,3.942,8.531
		c-0.166-0.251-0.324-0.507-0.5-0.75c-0.08-0.11-0.184-0.21-0.297-0.287c-0.1-0.069-0.226-0.072-0.324,0.03
		C2.723,7.622,2.707,7.746,2.806,7.869c0.2,0.252,0.408,0.502,0.63,0.735c0.132,0.14,0.166,0.274,0.084,0.443
		c-0.052,0.105-0.107,0.21-0.155,0.317c-0.052,0.115-0.13,0.115-0.218,0.049C2.973,9.282,2.8,9.148,2.628,9.012
		C2.492,8.905,2.369,8.778,2.226,8.686C2.082,8.594,2.034,8.469,2.042,8.317c0.011-0.228,0.042-0.453,0.061-0.68
		c0.029-0.372,0.312-0.512,0.6-0.611c0.484-0.166,0.98-0.307,1.476-0.438c0.374-0.099,0.753-0.18,1.133-0.242
		C6.052,6.224,6.8,6.225,7.547,6.279C7.66,6.288,7.775,6.3,7.886,6.319c0.041,0.007,0.086,0.037,0.107,0.069
		c0.008,0.015-0.029,0.071-0.058,0.095c-0.197,0.174-0.193,0.169-0.04,0.376c0.259,0.347,0.511,0.699,0.763,1.049
		C8.685,7.945,8.707,7.984,8.736,8.029z"/>
	<path fill-rule="evenodd" clip-rule="evenodd" fill="#FFFFFF" d="M3.694,20.735c-0.008-0.037-0.018-0.075-0.023-0.113
		c-0.086-0.601-0.176-1.199-0.253-1.8c-0.087-0.672-0.161-1.347-0.243-2.021c-0.026-0.212-0.055-0.424-0.08-0.636
		c-0.005-0.034,0.007-0.068,0.013-0.104c0.036,0.011,0.084,0.007,0.107,0.031c0.17,0.164,0.335,0.332,0.498,0.505
		c0.029,0.033,0.044,0.092,0.044,0.138c-0.001,1.283-0.004,2.563-0.008,3.844c0,0.053-0.007,0.104-0.009,0.156
		C3.724,20.735,3.709,20.735,3.694,20.735z"/>
	<path fill-rule="evenodd" clip-rule="evenodd" fill="#FFFFFF" d="M2.126,9.436C2.122,9.363,2.112,9.291,2.111,9.218
		C2.108,9.098,2.163,9.06,2.272,9.11c0.053,0.024,0.105,0.058,0.145,0.098c0.252,0.25,0.507,0.497,0.75,0.753
		c0.138,0.145,0.172,0.66,0.062,0.83c-0.013,0.024-0.088,0.037-0.117,0.021c-0.172-0.094-0.333-0.206-0.503-0.294
		C2.342,10.38,2.183,10.181,2.173,9.87C2.168,9.725,2.139,9.582,2.12,9.437C2.124,9.437,2.125,9.437,2.126,9.436z"/>
	<path fill-rule="evenodd" clip-rule="evenodd" fill="#FFFFFF" d="M3.478,13.44c0,0.085,0,0.23,0,0.375
		c0,0.1-0.041,0.129-0.125,0.071c-0.191-0.129-0.386-0.256-0.57-0.396c-0.046-0.036-0.079-0.114-0.086-0.177
		C2.66,13.006,2.631,12.698,2.61,12.39c-0.005-0.051,0.032-0.107,0.05-0.16c0.056,0.019,0.121,0.028,0.169,0.059
		c0.16,0.104,0.317,0.209,0.468,0.326c0.056,0.043,0.111,0.115,0.122,0.181C3.449,12.988,3.456,13.184,3.478,13.44z"/>
	<path fill-rule="evenodd" clip-rule="evenodd" fill="#FFFFFF" d="M3.63,15.677c-0.038-0.027-0.083-0.046-0.114-0.08
		c-0.171-0.182-0.347-0.362-0.503-0.556c-0.055-0.069-0.076-0.172-0.097-0.264c-0.028-0.114-0.045-0.232-0.057-0.349
		c-0.005-0.043,0.007-0.108,0.037-0.131c0.028-0.021,0.101-0.017,0.134,0.004c0.168,0.109,0.331,0.226,0.49,0.344
		c0.025,0.017,0.044,0.05,0.049,0.079c0.042,0.308,0.083,0.617,0.123,0.925C3.67,15.66,3.651,15.668,3.63,15.677z"/>
	<path fill-rule="evenodd" clip-rule="evenodd" fill="#FFFFFF" d="M2.386,11.106c0.034-0.07,0.052-0.165,0.096-0.182
		c0.05-0.019,0.147,0.017,0.189,0.062c0.204,0.213,0.414,0.425,0.585,0.662c0.063,0.086,0.027,0.243,0.031,0.366
		c0,0.013-0.065,0.046-0.084,0.037c-0.254-0.128-0.523-0.247-0.676-0.501C2.451,11.424,2.435,11.262,2.386,11.106z"/>
	<path fill-rule="evenodd" clip-rule="evenodd" fill="#2C3962" d="M6.817,15.71c0-0.79,0.007-1.579-0.005-2.367
		c-0.004-0.285,0.116-0.452,0.353-0.587c0.718-0.41,1.483-0.5,2.283-0.37c0.168,0.028,0.257,0.19,0.178,0.343
		c-0.024,0.045-0.107,0.08-0.166,0.086c-0.379,0.043-0.762,0.065-1.139,0.118c-0.273,0.039-0.522,0.156-0.742,0.326
		c-0.088,0.068-0.125,0.152-0.133,0.269c-0.062,0.969-0.138,1.937-0.193,2.907c-0.038,0.646-0.051,1.291-0.074,1.938
		c-0.002,0.027,0.001,0.057-0.006,0.082c-0.012,0.04-0.027,0.111-0.047,0.113C7.077,18.574,7,18.562,6.981,18.529
		c-0.058-0.099-0.123-0.21-0.131-0.319c-0.026-0.262-0.025-0.527-0.026-0.791c-0.003-0.57-0.002-1.141-0.002-1.709H6.817z"/>
</g>
<path fill-rule="evenodd" clip-rule="evenodd" fill="#2C3962" d="M81.895,71.898c-0.041,0.037,0.024-0.098,0.027-0.134
	c0.013-0.094,0.028-0.193,0.021-0.288c-0.002-0.038-0.007-0.076-0.009-0.115c-0.777,0.49-1.383,1.134-1.764,1.993
	c-0.389,0.875-0.698,1.773-0.919,2.705c-0.203,0.858-0.306,1.729-0.344,2.607c-0.015,0.316,0.009,0.635,0.029,0.953
	c0.009,0.173,0.124,0.277,0.29,0.325c0.345,0.1,0.687-0.148,0.703-0.522c0.012-0.306-0.004-0.611,0.012-0.917
	c0.054-1.019,0.246-2.013,0.576-2.977c0.228-0.661,0.45-1.327,0.828-1.927c0.164-0.262,0.354-0.496,0.568-0.711
	C81.657,72.653,81.559,72.207,81.895,71.898z"/>
<path fill-rule="evenodd" clip-rule="evenodd" fill="#2C3962" d="M84.178,75.086c-0.336-0.983-0.867-1.825-1.759-2.404
	c-0.062-0.04-0.119-0.142-0.119-0.214c-0.005-1.449-0.035-2.902,0.009-4.351c0.034-1.124,0.176-2.242,0.246-3.364
	c0.057-0.885,0.046-1.77-0.264-2.618c-0.051-0.142-0.037-0.186,0.1-0.24c0.483-0.19,0.962-0.389,1.436-0.599
	c0.448-0.198,0.531-0.564,0.225-0.931c-0.606-0.721-1.356-1.236-2.226-1.592c-1.252-0.511-2.591-0.696-3.894-1.007
	c-0.738-0.176-1.482-0.335-2.222-0.504c-0.74-0.168-1.48-0.342-2.22-0.512c-0.74-0.168-1.48-0.333-2.221-0.5
	c-0.754-0.17-1.506-0.344-2.26-0.509c-0.818-0.179-1.636-0.368-2.457-0.518c-0.516-0.092-1.043-0.172-1.564-0.158
	c-1.031,0.027-1.992,0.386-2.932,0.785c-1.245,0.528-2.444,1.169-3.745,1.559c-0.727,0.218-1.446,0.457-2.18,0.651
	c-0.732,0.193-1.475,0.356-2.22,0.503c-0.841,0.166-1.685,0.317-2.532,0.437c-0.843,0.119-1.69,0.214-2.54,0.278
	c-0.913,0.066-1.829,0.09-2.742,0.123c-0.231,0.01-0.445,0.146-0.485,0.346c-0.057,0.281,0.083,0.599,0.311,0.663
	c0.161,0.046,0.328,0.066,0.496,0.084c0.367,0.038,0.74,0.047,1.105,0.106c0.806,0.133,1.616,0.258,2.412,0.441
	c1.035,0.24,2.058,0.534,3.086,0.806c0.146,0.039,0.213,0.114,0.217,0.286c0.074,3.579-0.02,7.154-0.152,10.729
	c-0.014,0.371-0.036,0.742-0.084,1.109c-0.106,0.778-0.247,1.553-0.341,2.333c-0.085,0.703-0.12,1.414,0.053,2.113
	c0.085,0.343,0.207,0.678,0.503,0.9c0.096,0.072,0.237,0.14,0.349,0.126c0.229-0.028,0.471-0.076,0.673-0.184
	c0.335-0.175,0.653-0.392,0.962-0.612c1.197-0.857,2.525-1.412,3.967-1.665c0.798-0.14,1.61-0.22,2.419-0.264
	c1.734-0.095,3.469-0.171,5.204-0.215c1.446-0.035,2.884,0.102,4.303,0.396c1.235,0.256,2.421,0.67,3.549,1.243
	c0.465,0.238,0.788,0.05,0.823-0.474c0.03-0.445,0.039-0.896,0.092-1.342c0.127-1.109,0.269-2.218,0.413-3.326
	c0.069-0.528,0.161-1.054,0.235-1.58c0.118-0.837,0.242-1.671,0.341-2.511c0.086-0.742,0.175-1.487,0.205-2.232
	c0.035-0.854,0.009-1.712,0.009-2.571c0.07-0.031,0.136-0.062,0.199-0.089c1.077-0.411,2.154-0.82,3.231-1.233
	c0.129-0.05,0.229-0.047,0.29,0.089c0.138,0.32,0.304,0.633,0.4,0.966c0.283,0.958,0.242,2.129,0.279,3.121
	c0.069,1.819,0.103,3.483,0.127,5.304c0,0.044-0.021,0.096-0.049,0.141c0.141,0.53,0.275,1.119,0.162,1.651
	c-0.059,1.352-0.118,2.702-0.175,4.054c-0.013,0.305-0.018,0.61-0.02,0.915c0,0.21,0.129,0.38,0.318,0.444
	c0.434,0.149,0.77-0.091,0.77-0.554c0.002-1.6,0-3.2,0-4.801v-0.25c0.069,0.063,0.097,0.085,0.122,0.111
	c0.529,0.587,0.8,1.301,0.964,2.055c0.203,0.933,0.255,1.879,0.21,2.831c-0.016,0.352-0.038,0.702-0.047,1.054
	c-0.008,0.215,0.116,0.366,0.313,0.406c0.43,0.089,0.755-0.154,0.773-0.59c0.019-0.333,0.02-0.664,0.025-0.996
	C84.676,77.498,84.578,76.271,84.178,75.086z M75.639,65.189c-0.12,1.033-0.24,2.066-0.369,3.1c-0.111,0.891-0.231,1.781-0.35,2.673
	c-0.111,0.84-0.219,1.68-0.341,2.519c-0.143,0.958-0.306,1.914-0.455,2.87c-0.023,0.137-0.083,0.152-0.2,0.097
	c-1.266-0.596-2.608-0.901-3.991-1.056c-1.825-0.202-3.649-0.135-5.478-0.007c-1.268,0.089-2.536,0.158-3.802,0.256
	c-0.696,0.055-1.397,0.11-2.083,0.236c-0.459,0.085-0.9,0.283-1.342,0.451c-0.915,0.349-1.82,0.718-2.661,1.227
	c-0.182,0.11-0.348,0.249-0.531,0.384c-0.008-0.046-0.017-0.093-0.018-0.141c-0.083-1.78-0.025-3.559,0.058-5.338
	c0.146-3.124,0.428-6.244,0.441-9.375c0.002-0.256,0.002-0.511,0.002-0.818c0.192,0.067,0.356,0.118,0.518,0.183
	c0.858,0.346,1.743,0.642,2.567,1.057c0.837,0.419,1.621,0.949,2.42,1.446c0.813,0.506,1.621,1.025,2.517,1.385
	c0.651,0.26,1.328,0.324,2.017,0.318c1.315-0.011,2.624-0.124,3.926-0.333c1.449-0.232,2.878-0.562,4.289-0.963
	c0.952-0.271,1.89-0.593,2.837-0.89c0.016-0.006,0.037-0.002,0.084-0.002C75.676,64.713,75.667,64.953,75.639,65.189z
	 M81.415,61.169c-0.185,0.035-0.394-0.06-0.593-0.067c-0.524-0.018-1.055-0.06-1.577-0.02c-0.662,0.051-1.312-0.007-1.966-0.07
	c-1.025-0.101-2.05-0.219-3.074-0.346c-0.728-0.092-1.452-0.207-2.174-0.326c-0.896-0.146-1.789-0.301-2.681-0.468
	c-0.756-0.143-1.507-0.308-2.261-0.465c-0.36-0.076-0.719-0.165-1.079-0.238c-0.28-0.057-0.575,0.136-0.645,0.405
	c-0.065,0.265,0.07,0.677,0.394,0.744c0.943,0.194,1.887,0.391,2.833,0.571c0.902,0.171,1.809,0.34,2.716,0.482
	c1.062,0.169,2.128,0.316,3.196,0.46c0.867,0.115,1.74,0.213,2.608,0.314c0.401,0.047,0.802,0.08,1.203,0.12
	c0.12,0.012-0.007-0.046,0.12,0.012c0,0-0.179,0.081-0.214,0.092c-1.105,0.33-1.84,0.494-2.949,0.808
	c-0.795,0.225-1.599,0.419-2.401,0.611c-0.797,0.193-1.595,0.383-2.398,0.55c-1.038,0.217-2.08,0.419-3.124,0.607
	c-0.528,0.094-1.065,0.173-1.602,0.205c-1.371,0.089-2.651-0.249-3.86-0.822c-1.085-0.514-2.145-1.069-3.227-1.584
	c-1.528-0.72-3.106-1.329-4.747-1.788c-1.048-0.292-2.11-0.539-3.168-0.807c-0.063-0.018-0.128-0.042-0.186-0.094
	c0.201-0.03,0.404-0.058,0.605-0.092c1.383-0.248,2.778-0.447,4.143-0.759c1.496-0.341,2.978-0.749,4.441-1.196
	c1.42-0.434,2.807-0.964,4.216-1.425c0.387-0.128,0.807-0.218,1.215-0.226c0.668-0.015,1.346-0.002,2.001,0.098
	c1.042,0.16,2.075,0.378,3.1,0.619c0.922,0.217,1.824,0.509,2.74,0.749c0.836,0.22,1.676,0.423,2.519,0.615
	c0.959,0.216,1.922,0.42,2.884,0.617c0.57,0.118,1.145,0.215,1.719,0.318c0.759,0.14,1.363,0.511,1.833,1.074
	c0.105,0.127,0.197,0.265,0.314,0.422C81.98,60.981,81.707,61.113,81.415,61.169z"/>
<path fill-rule="evenodd" clip-rule="evenodd" fill="#FFFFFF" d="M53.742,78.129c-0.005-0.046-0.016-0.095-0.018-0.143
	c-0.084-1.802-0.024-3.603,0.061-5.401c0.148-3.164,0.435-6.32,0.448-9.49c0-0.258,0-0.518,0-0.828
	c0.194,0.068,0.362,0.119,0.526,0.184c0.869,0.351,1.766,0.651,2.602,1.07c0.85,0.425,1.643,0.962,2.451,1.464
	c0.824,0.514,1.643,1.037,2.552,1.4c0.66,0.265,1.344,0.33,2.043,0.324c1.335-0.011,2.66-0.127,3.979-0.338
	c1.47-0.235,2.918-0.567,4.347-0.974c0.966-0.275,1.916-0.6,2.875-0.902c0.018-0.006,0.037,0,0.086,0
	c-0.02,0.248-0.028,0.489-0.057,0.73c-0.119,1.045-0.243,2.091-0.372,3.137c-0.113,0.901-0.236,1.803-0.355,2.705
	c-0.114,0.85-0.221,1.702-0.346,2.551c-0.145,0.968-0.308,1.936-0.463,2.903c-0.021,0.139-0.081,0.154-0.201,0.099
	c-1.282-0.604-2.642-0.912-4.044-1.069c-1.851-0.205-3.7-0.136-5.553-0.007c-1.283,0.09-2.569,0.161-3.853,0.26
	c-0.705,0.054-1.415,0.11-2.11,0.239c-0.465,0.086-0.913,0.285-1.362,0.456c-0.925,0.354-1.844,0.727-2.694,1.241
	C54.098,77.853,53.93,77.993,53.742,78.129z"/>
<path fill-rule="evenodd" clip-rule="evenodd" fill="#FFFFFF" d="M82.29,60.943c-0.31,0.116-0.583,0.259-0.875,0.319
	c-0.185,0.037-0.394-0.065-0.593-0.072c-0.524-0.02-1.055-0.064-1.577-0.021c-0.662,0.055-1.312-0.009-1.966-0.076
	c-1.025-0.108-2.05-0.234-3.074-0.374c-0.728-0.098-1.452-0.223-2.174-0.351c-0.896-0.158-1.789-0.324-2.681-0.505
	c-0.756-0.153-1.507-0.332-2.261-0.502c-0.36-0.082-0.719-0.177-1.079-0.257c-0.28-0.061-0.575,0.147-0.645,0.438
	c-0.065,0.286,0.079,0.505,0.402,0.577c0.943,0.211,1.888,0.423,2.835,0.617c0.902,0.185,1.807,0.366,2.714,0.521
	c1.063,0.181,2.13,0.341,3.196,0.495c0.869,0.125,1.74,0.231,2.61,0.34c0.399,0.05,0.8,0.086,1.201,0.13
	c0.12,0.014,0.24,0.03,0.363,0.092c-0.033,0.02-0.065,0.044-0.103,0.055c-1.104,0.357-2.203,0.724-3.312,1.061
	c-0.795,0.242-1.599,0.451-2.401,0.661c-0.797,0.208-1.595,0.412-2.398,0.592c-1.038,0.232-2.08,0.452-3.124,0.654
	c-0.528,0.103-1.065,0.187-1.602,0.224c-1.371,0.095-2.651-0.271-3.86-0.889c-1.085-0.554-2.145-1.153-3.227-1.707
	c-1.528-0.779-3.106-1.436-4.747-1.929c-1.048-0.316-2.11-0.583-3.168-0.872c-0.063-0.018-0.128-0.045-0.186-0.101
	c0.201-0.033,0.404-0.062,0.605-0.1c1.383-0.268,2.778-0.481,4.143-0.817c1.496-0.368,2.978-0.81,4.441-1.291
	c1.42-0.467,2.807-1.039,4.216-1.538c0.387-0.137,0.807-0.234,1.215-0.243c0.668-0.015,1.346-0.001,2.001,0.106
	c1.042,0.173,2.075,0.407,3.1,0.667c0.922,0.234,1.824,0.55,2.74,0.81c0.836,0.235,1.676,0.455,2.519,0.662
	c0.959,0.234,1.922,0.453,2.884,0.666c0.57,0.127,1.145,0.231,1.719,0.345c0.759,0.148,1.363,0.55,1.833,1.157
	C82.081,60.625,82.173,60.772,82.29,60.943z"/>
<path fill-rule="evenodd" clip-rule="evenodd" fill="#2C3962" d="M76.519,64.351c-0.032-0.224-0.085-0.415-0.161-0.575
	c-0.492,0.132-0.99,0.242-1.49,0.345c0.044,0.019,0.081,0.043,0.106,0.073c0.187,0.237,0.354,0.486,0.517,0.742
	c0.045,0.069,0.059,0.17,0.061,0.257c0.005,0.27,0.002,0.538-0.004,0.808c-0.003,0.091-0.024,0.182-0.037,0.272
	c-0.014,0.001-0.028,0.002-0.04,0.003c-0.177-0.217-0.354-0.435-0.528-0.653c-0.354-0.436-0.705-0.87-1.053-1.308
	c-0.143,0.027-0.284,0.058-0.426,0.085c0.412,0.523,0.836,1.036,1.263,1.546c0.188,0.221,0.393,0.427,0.592,0.639
	c0.107,0.114,0.157,0.24,0.142,0.404c-0.039,0.42-0.061,0.843-0.09,1.265c-0.004,0.04-0.02,0.08-0.036,0.15
	c-0.062-0.069-0.11-0.118-0.153-0.172c-0.392-0.48-0.765-0.975-1.176-1.438c-0.302-0.341-0.648-0.641-0.98-0.953
	c-0.065-0.063-0.155-0.109-0.24-0.14c-0.039-0.013-0.131,0.025-0.14,0.056c-0.038,0.129-0.051,0.264,0.059,0.372
	c0.03,0.03,0.059,0.063,0.092,0.087c0.613,0.423,1.072,1.001,1.57,1.537c0.245,0.263,0.473,0.539,0.711,0.807
	c0.126,0.141,0.191,0.295,0.17,0.49c-0.042,0.386-0.07,0.773-0.109,1.159c-0.004,0.053-0.032,0.102-0.059,0.179
	c-0.06-0.071-0.104-0.123-0.145-0.175c-0.579-0.695-1.16-1.391-1.734-2.089c-0.214-0.256-0.466-0.462-0.741-0.643
	c-0.065-0.041-0.138-0.124-0.227-0.036c-0.086,0.087-0.085,0.185-0.016,0.279c0.055,0.075,0.105,0.16,0.18,0.213
	c0.352,0.253,0.611,0.593,0.889,0.917c0.544,0.636,1.081,1.277,1.625,1.913c0.062,0.074,0.092,0.147,0.081,0.243
	c-0.053,0.562-0.104,1.122-0.155,1.683c-0.004,0.029-0.017,0.054-0.032,0.105c-0.046-0.039-0.081-0.063-0.111-0.096
	c-0.699-0.788-1.396-1.58-2.104-2.361c-0.12-0.133-0.276-0.234-0.433-0.326c-0.047-0.028-0.162,0.005-0.21,0.05
	c-0.031,0.03-0.024,0.144,0.007,0.193c0.1,0.153,0.203,0.31,0.332,0.437c0.738,0.721,1.376,1.528,2.049,2.308
	c0.065,0.077,0.14,0.149,0.221,0.211c0.087,0.065,0.129,0.141,0.124,0.251c-0.021,0.349-0.037,0.699-0.059,1.048
	c-0.004,0.06-0.026,0.119-0.048,0.215c-0.129-0.161-0.238-0.291-0.341-0.424c-0.655-0.849-1.305-1.698-1.964-2.543
	c-0.111-0.144-0.243-0.274-0.379-0.396c-0.08-0.068-0.181-0.151-0.295-0.05c-0.074,0.064-0.071,0.203,0.018,0.316
	c0.141,0.184,0.289,0.358,0.434,0.538c0.701,0.869,1.394,1.749,2.11,2.607c0.258,0.312,0.288,0.615,0.14,0.966
	c-0.028,0.064-0.057,0.13-0.094,0.219c-0.056-0.062-0.093-0.104-0.13-0.148c-0.633-0.745-1.263-1.492-1.902-2.231
	c-0.09-0.106-0.221-0.187-0.345-0.258c-0.116-0.068-0.256-0.036-0.326,0.049c-0.074,0.09-0.076,0.211,0.021,0.326
	c0.123,0.146,0.261,0.28,0.396,0.415c0.604,0.61,1.21,1.217,1.814,1.827c0.062,0.062,0.112,0.133,0.188,0.222
	c-0.096,0.015-0.155,0.03-0.215,0.032c-0.212,0.013-0.421,0.017-0.629,0.028c-0.163,0.01-0.288-0.051-0.395-0.173
	c-0.258-0.296-0.514-0.594-0.776-0.885c-0.087-0.099-0.186-0.189-0.286-0.274c-0.146-0.121-0.256-0.128-0.354-0.032
	c-0.109,0.105-0.134,0.336-0.033,0.445c0.085,0.094,0.186,0.173,0.282,0.258c0.163,0.143,0.33,0.282,0.487,0.43
	c0.034,0.031,0.039,0.088,0.059,0.133c-0.048,0.014-0.094,0.039-0.142,0.042c-0.205,0.014-0.411,0.027-0.618,0.041l0.002,0.001
	c0.101,0.021,0.201,0.069,0.297,0.149c0.579,0.479,0.972,0.521,1.699,0.594c0.656,0.065,1.379,0.163,1.857-0.382
	c0.02-0.021,0.037-0.039,0.057-0.058c0.177-0.58,0.252-1.18,0.341-1.777c0.065-0.438,0.118-0.88,0.175-1.318
	c0.063-0.483,0.125-0.966,0.184-1.448c0.062-0.496,0.116-0.993,0.175-1.489c0.06-0.52,0.125-1.042,0.182-1.562
	c0.062-0.557,0.122-1.112,0.173-1.669c0.061-0.646,0.111-1.292,0.163-1.889C76.573,64.986,76.566,64.665,76.519,64.351z"/>
<path fill-rule="evenodd" clip-rule="evenodd" fill="#2C3962" d="M74.786,125.545c0,0.97-0.15,1.907-0.343,2.84
	c-0.256,1.228-0.57,2.442-0.994,3.622c-0.328,0.914-0.725,1.814-1.18,2.68c-1.27,2.405-2.586,4.788-3.887,7.177
	c-0.369,0.676-0.731,1.356-1.127,2.018c-0.299,0.497-0.678,0.939-1.201,1.252c-0.597,0.354-1.18,0.33-1.743-0.065
	c-0.562-0.393-0.94-0.925-1.283-1.485c-0.915-1.493-1.697-3.052-2.457-4.617c-0.639-1.313-1.274-2.628-1.866-3.959
	c-0.694-1.559-1.36-3.127-2.001-4.705c-0.397-0.975-0.688-1.984-0.897-3.013c-0.245-1.188-0.324-2.387-0.143-3.588
	c0.201-1.35,0.745-2.566,1.643-3.639c1.07-1.274,2.379-2.267,3.943-2.947c0.841-0.363,1.716-0.621,2.644-0.691
	c0.356-0.027,0.713-0.061,1.07-0.051c0.811,0.021,1.593,0.201,2.355,0.459c1.819,0.617,3.389,1.592,4.703,2.927
	c1.062,1.078,1.903,2.294,2.447,3.678C74.74,124.118,74.799,124.837,74.786,125.545z M69.546,136.777
	c0.094-0.095,0.156-0.138,0.186-0.197c0.137-0.245,0.264-0.495,0.396-0.744c0.113-0.211,0.078-0.4-0.066-0.586
	c-0.083-0.108-0.152-0.228-0.207-0.35c-0.332-0.728-0.66-1.456-0.985-2.185c-0.103-0.227-0.205-0.455-0.293-0.685
	c-0.046-0.118-0.063-0.239,0.07-0.335c0.142-0.097,0.272-0.058,0.369,0.037c0.116,0.112,0.235,0.242,0.297,0.386
	c0.391,0.901,0.765,1.808,1.145,2.714c0.07,0.161,0.125,0.179,0.243,0.042c0.115-0.136,0.207-0.292,0.316-0.437
	c0.099-0.132,0.103-0.269,0.03-0.409c-0.212-0.416-0.445-0.82-0.643-1.239c-0.347-0.722-0.675-1.449-1.007-2.176
	c-0.129-0.285-0.05-0.574,0.188-0.717c0.175-0.104,0.299-0.088,0.401,0.08c0.085,0.138,0.155,0.287,0.205,0.438
	c0.256,0.806,0.499,1.613,0.759,2.418c0.085,0.265,0.207,0.52,0.318,0.776c0.046,0.113,0.132,0.118,0.204,0.027
	c0.096-0.118,0.186-0.243,0.266-0.371c0.25-0.407,0.256-0.791-0.039-1.204c-0.231-0.323-0.408-0.689-0.567-1.055
	c-0.167-0.385-0.267-0.797-0.427-1.186c-0.188-0.451-0.41-0.893-0.613-1.339c-0.109-0.237-0.02-0.408,0.247-0.414
	c0.101-0.003,0.237,0.065,0.301,0.144c0.164,0.201,0.352,0.411,0.436,0.646c0.276,0.765,0.511,1.543,0.758,2.315
	c0.074,0.236,0.135,0.476,0.216,0.71c0.018,0.058,0.085,0.102,0.129,0.15c0.039-0.048,0.088-0.093,0.114-0.147
	c0.05-0.106,0.085-0.221,0.133-0.33c0.184-0.425,0.245-0.842,0.048-1.292c-0.256-0.589-0.461-1.196-0.71-1.788
	c-0.318-0.755-0.659-1.501-0.987-2.251c-0.042-0.095-0.072-0.196-0.083-0.293c-0.011-0.122,0.052-0.222,0.179-0.268
	c0.12-0.047,0.21,0.012,0.284,0.092c0.051,0.058,0.103,0.12,0.129,0.188c0.231,0.553,0.483,1.097,0.676,1.661
	c0.277,0.815,0.509,1.644,0.764,2.465c0.012,0.04,0.042,0.075,0.077,0.128c0.035-0.046,0.057-0.062,0.069-0.085
	c0.021-0.036,0.048-0.075,0.058-0.116c0.115-0.453,0.212-0.909,0.351-1.355c0.081-0.255-0.019-0.434-0.168-0.618
	c-0.142-0.174-0.284-0.346-0.421-0.527c-0.092-0.127-0.194-0.256-0.243-0.4c-0.17-0.5-0.304-1.01-0.476-1.507
	c-0.199-0.566-0.342-1.166-0.881-1.564c-0.009-0.005-0.015-0.016-0.021-0.024c-0.092-0.121-0.066-0.192,0.085-0.238
	c0.253-0.077,0.574,0.015,0.729,0.257c0.168,0.259,0.312,0.534,0.428,0.818c0.285,0.715,0.545,1.438,0.826,2.155
	c0.072,0.186,0.186,0.355,0.28,0.532c0.018-0.006,0.041-0.012,0.059-0.017c0.011-0.071,0.032-0.144,0.03-0.214
	c-0.009-0.397-0.026-0.795-0.035-1.191c-0.011-0.441-0.067-0.864-0.269-1.279c-0.458-0.943-0.837-1.92-1.418-2.809
	c-0.101-0.156-0.146-0.325,0.007-0.491c0.031-0.034,0.031-0.131,0.002-0.17c-0.201-0.285-0.391-0.582-0.625-0.84
	c-1.484-1.63-3.327-2.616-5.627-2.812c-1.534-0.132-3.002,0.064-4.406,0.664c-1.243,0.528-2.244,1.334-2.995,2.407
	c-0.787,1.124-1.182,2.383-1.317,3.712c-0.125,1.234-0.022,2.457,0.277,3.664c0.253,1.013,0.599,2.001,1.037,2.953
	c0.641,1.388,1.307,2.765,1.979,4.142c1.079,2.216,2.172,4.427,3.258,6.641c0.098,0.2,0.198,0.402,0.297,0.6
	c0.032-0.049,0.042-0.092,0.032-0.129c-0.168-0.573-0.343-1.145-0.502-1.72c-0.106-0.377-0.199-0.76-0.275-1.143
	c-0.026-0.126-0.009-0.271,0.031-0.394c0.065-0.188,0.277-0.208,0.393-0.042c0.065,0.092,0.122,0.197,0.15,0.304
	c0.127,0.494,0.254,0.988,0.363,1.487c0.142,0.656,0.249,1.32,0.399,1.975c0.079,0.343,0.188,0.685,0.334,1.007
	c0.111,0.246,0.342,0.401,0.655,0.377c0.213-0.016,0.273-0.112,0.185-0.291c-0.029-0.064-0.06-0.127-0.099-0.185
	c-0.326-0.472-0.487-1.005-0.603-1.545c-0.121-0.583-0.162-1.181-0.284-1.763c-0.109-0.528-0.28-1.047-0.431-1.567
	c-0.037-0.122,0-0.224,0.133-0.262c0.175-0.049,0.358,0.005,0.439,0.184c0.115,0.248,0.214,0.508,0.271,0.773
	c0.098,0.444,0.156,0.899,0.239,1.347c0.099,0.55,0.195,1.102,0.315,1.647c0.074,0.339,0.174,0.676,0.284,1.008
	c0.085,0.252,0.214,0.27,0.419,0.08c0.392-0.36,0.463-0.765,0.295-1.262c-0.253-0.75-0.439-1.518-0.66-2.276
	c-0.174-0.596-0.355-1.185-0.524-1.778c-0.062-0.206-0.113-0.416-0.14-0.627c-0.009-0.075,0.051-0.214,0.107-0.229
	c0.083-0.021,0.212,0.017,0.286,0.072c0.087,0.066,0.146,0.175,0.199,0.274c0.441,0.832,0.583,1.74,0.755,2.644
	c0.101,0.528,0.19,1.058,0.289,1.586c0.013,0.062,0.061,0.121,0.09,0.182c0.063-0.038,0.152-0.063,0.186-0.12
	c0.205-0.323,0.412-0.651,0.59-0.99c0.127-0.238,0.065-0.461-0.083-0.696c-0.291-0.473-0.521-0.975-0.658-1.51
	c-0.155-0.604-0.304-1.208-0.572-1.781c-0.108-0.227-0.133-0.464-0.044-0.705c0.079-0.219,0.311-0.273,0.479-0.107
	c0.056,0.054,0.106,0.118,0.131,0.188c0.098,0.267,0.2,0.534,0.269,0.81c0.172,0.704,0.318,1.416,0.494,2.118
	c0.056,0.222,0.163,0.434,0.262,0.642c0.065,0.131,0.131,0.126,0.223,0.009c0.055-0.074,0.111-0.148,0.166-0.225
	c0.173-0.246,0.229-0.519,0.143-0.799c-0.203-0.646-0.429-1.288-0.634-1.934c-0.217-0.682-0.45-1.357-0.785-1.998
	c-0.071-0.134-0.041-0.257,0.083-0.345c0.125-0.091,0.268-0.092,0.394,0.003c0.076,0.061,0.143,0.139,0.192,0.222
	c0.325,0.548,0.518,1.137,0.625,1.757c0.087,0.484,0.19,0.969,0.299,1.45c0.022,0.11,0.081,0.213,0.14,0.36
	c0.081-0.096,0.146-0.146,0.173-0.21c0.143-0.337,0.28-0.677,0.407-1.021c0.043-0.112,0.036-0.235-0.075-0.327
	c-0.484-0.402-0.618-0.962-0.728-1.521c-0.109-0.55-0.177-1.105-0.52-1.584c-0.037-0.057-0.051-0.131-0.065-0.198
	c-0.039-0.175,0.062-0.394,0.196-0.446c0.122-0.048,0.26,0.021,0.39,0.196c0.22,0.298,0.312,0.641,0.395,0.987
	c0.145,0.589,0.275,1.181,0.427,1.77C69.362,136.393,69.454,136.559,69.546,136.777z"/>
<path fill-rule="evenodd" clip-rule="evenodd" fill="#FFFFFF" d="M69.546,136.777c-0.092-0.219-0.184-0.385-0.229-0.562
	c-0.151-0.589-0.282-1.181-0.427-1.77c-0.083-0.347-0.175-0.689-0.395-0.987c-0.13-0.176-0.268-0.244-0.39-0.196
	c-0.135,0.053-0.235,0.271-0.196,0.446c0.015,0.067,0.028,0.142,0.065,0.198c0.343,0.479,0.41,1.034,0.52,1.584
	c0.109,0.559,0.243,1.118,0.728,1.521c0.111,0.092,0.118,0.215,0.075,0.327c-0.127,0.344-0.265,0.684-0.407,1.021
	c-0.026,0.064-0.092,0.114-0.173,0.21c-0.059-0.147-0.117-0.25-0.14-0.36c-0.108-0.481-0.212-0.966-0.299-1.45
	c-0.107-0.62-0.3-1.209-0.625-1.757c-0.05-0.083-0.116-0.161-0.192-0.222c-0.126-0.095-0.269-0.094-0.394-0.003
	c-0.124,0.088-0.154,0.211-0.083,0.345c0.335,0.641,0.568,1.316,0.785,1.998c0.205,0.646,0.431,1.287,0.634,1.934
	c0.087,0.28,0.03,0.553-0.143,0.799c-0.055,0.076-0.111,0.15-0.166,0.225c-0.092,0.117-0.157,0.122-0.223-0.009
	c-0.099-0.208-0.206-0.42-0.262-0.642c-0.176-0.702-0.322-1.414-0.494-2.118c-0.068-0.275-0.171-0.543-0.269-0.81
	c-0.024-0.069-0.075-0.134-0.131-0.188c-0.169-0.166-0.4-0.111-0.479,0.107c-0.089,0.241-0.064,0.479,0.044,0.705
	c0.269,0.573,0.417,1.177,0.572,1.781c0.138,0.535,0.367,1.037,0.658,1.51c0.148,0.235,0.21,0.458,0.083,0.696
	c-0.178,0.339-0.385,0.667-0.59,0.99c-0.033,0.057-0.122,0.082-0.186,0.12c-0.029-0.061-0.077-0.12-0.09-0.182
	c-0.099-0.528-0.188-1.058-0.289-1.586c-0.172-0.903-0.313-1.812-0.755-2.644c-0.053-0.1-0.112-0.208-0.199-0.274
	c-0.074-0.056-0.203-0.093-0.286-0.072c-0.057,0.015-0.116,0.153-0.107,0.229c0.026,0.211,0.077,0.421,0.14,0.627
	c0.169,0.594,0.351,1.183,0.524,1.778c0.221,0.759,0.407,1.526,0.66,2.276c0.168,0.497,0.097,0.901-0.295,1.262
	c-0.205,0.189-0.334,0.172-0.419-0.08c-0.11-0.332-0.21-0.669-0.284-1.008c-0.12-0.546-0.217-1.098-0.315-1.647
	c-0.083-0.447-0.142-0.902-0.239-1.347c-0.058-0.266-0.156-0.525-0.271-0.773c-0.081-0.179-0.265-0.232-0.439-0.184
	c-0.133,0.038-0.17,0.14-0.133,0.262c0.15,0.521,0.321,1.039,0.431,1.567c0.122,0.582,0.163,1.18,0.284,1.763
	c0.115,0.54,0.276,1.073,0.603,1.545c0.039,0.058,0.069,0.12,0.099,0.185c0.089,0.179,0.028,0.275-0.185,0.291
	c-0.313,0.024-0.544-0.131-0.655-0.377c-0.146-0.322-0.255-0.664-0.334-1.007c-0.15-0.654-0.258-1.318-0.399-1.975
	c-0.109-0.499-0.236-0.993-0.363-1.487c-0.028-0.106-0.085-0.212-0.15-0.304c-0.115-0.166-0.327-0.146-0.393,0.042
	c-0.04,0.122-0.058,0.268-0.031,0.394c0.076,0.383,0.169,0.766,0.275,1.143c0.159,0.575,0.334,1.146,0.502,1.72
	c0.01,0.037,0,0.08-0.032,0.129c-0.099-0.197-0.199-0.399-0.297-0.6c-1.086-2.214-2.179-4.425-3.258-6.641
	c-0.673-1.377-1.339-2.754-1.979-4.142c-0.438-0.952-0.784-1.94-1.037-2.953c-0.3-1.207-0.402-2.43-0.277-3.664
	c0.136-1.329,0.53-2.588,1.317-3.712c0.751-1.073,1.752-1.879,2.995-2.407c1.404-0.6,2.872-0.796,4.406-0.664
	c2.3,0.195,4.143,1.182,5.627,2.812c0.234,0.258,0.424,0.555,0.625,0.84c0.029,0.039,0.029,0.136-0.002,0.17
	c-0.152,0.166-0.107,0.335-0.007,0.491c0.581,0.889,0.96,1.865,1.418,2.809c0.201,0.415,0.258,0.838,0.269,1.279
	c0.009,0.396,0.026,0.794,0.035,1.191c0.002,0.07-0.02,0.143-0.03,0.214c-0.018,0.005-0.041,0.011-0.059,0.017
	c-0.095-0.177-0.208-0.347-0.28-0.532c-0.281-0.717-0.541-1.44-0.826-2.155c-0.115-0.284-0.26-0.56-0.428-0.818
	c-0.155-0.242-0.477-0.334-0.729-0.257c-0.151,0.046-0.177,0.117-0.085,0.238c0.007,0.009,0.013,0.02,0.021,0.024
	c0.539,0.398,0.682,0.998,0.881,1.564c0.172,0.497,0.306,1.007,0.476,1.507c0.049,0.145,0.151,0.273,0.243,0.4
	c0.137,0.182,0.279,0.354,0.421,0.527c0.149,0.185,0.249,0.363,0.168,0.618c-0.139,0.446-0.235,0.902-0.351,1.355
	c-0.01,0.041-0.037,0.08-0.058,0.116c-0.013,0.022-0.034,0.039-0.069,0.085c-0.035-0.053-0.065-0.088-0.077-0.128
	c-0.255-0.821-0.486-1.649-0.764-2.465c-0.192-0.564-0.444-1.108-0.676-1.661c-0.026-0.068-0.078-0.131-0.129-0.188
	c-0.074-0.08-0.164-0.139-0.284-0.092c-0.127,0.046-0.189,0.146-0.179,0.268c0.011,0.097,0.041,0.198,0.083,0.293
	c0.328,0.75,0.669,1.496,0.987,2.251c0.249,0.592,0.454,1.199,0.71,1.788c0.197,0.45,0.136,0.867-0.048,1.292
	c-0.048,0.109-0.083,0.224-0.133,0.33c-0.026,0.055-0.075,0.1-0.114,0.147c-0.044-0.049-0.111-0.093-0.129-0.15
	c-0.081-0.234-0.142-0.474-0.216-0.71c-0.247-0.772-0.481-1.551-0.758-2.315c-0.084-0.235-0.271-0.445-0.436-0.646
	c-0.063-0.078-0.2-0.146-0.301-0.144c-0.267,0.006-0.356,0.177-0.247,0.414c0.203,0.446,0.426,0.888,0.613,1.339
	c0.16,0.389,0.26,0.801,0.427,1.186c0.159,0.365,0.336,0.731,0.567,1.055c0.295,0.413,0.289,0.797,0.039,1.204
	c-0.08,0.128-0.17,0.253-0.266,0.371c-0.072,0.091-0.158,0.086-0.204-0.027c-0.111-0.257-0.233-0.512-0.318-0.776
	c-0.26-0.805-0.503-1.612-0.759-2.418c-0.05-0.151-0.12-0.301-0.205-0.438c-0.103-0.168-0.227-0.184-0.401-0.08
	c-0.238,0.143-0.317,0.432-0.188,0.717c0.332,0.727,0.66,1.454,1.007,2.176c0.197,0.419,0.431,0.823,0.643,1.239
	c0.072,0.141,0.068,0.277-0.03,0.409c-0.109,0.145-0.201,0.301-0.316,0.437c-0.118,0.137-0.173,0.119-0.243-0.042
	c-0.38-0.906-0.754-1.812-1.145-2.714c-0.062-0.144-0.181-0.273-0.297-0.386c-0.097-0.095-0.228-0.134-0.369-0.037
	c-0.134,0.096-0.116,0.217-0.07,0.335c0.088,0.229,0.19,0.458,0.293,0.685c0.325,0.729,0.653,1.457,0.985,2.185
	c0.055,0.122,0.124,0.241,0.207,0.35c0.145,0.186,0.18,0.375,0.066,0.586c-0.132,0.249-0.259,0.499-0.396,0.744
	C69.702,136.64,69.64,136.683,69.546,136.777z M65.396,126.312c0.159-0.018,0.438-0.032,0.708-0.09
	c0.563-0.117,1.035-0.381,1.358-0.845c0.637-0.916,0.424-2.238-0.47-2.951c-0.585-0.468-1.271-0.701-2.026-0.749
	c-0.739-0.048-1.383,0.169-1.798,0.776c-0.424,0.619-0.69,1.304-0.717,2.051c-0.024,0.637,0.264,1.116,0.874,1.411
	C63.939,126.212,64.602,126.28,65.396,126.312z M58.146,123.341c-0.016,0.001-0.033,0.001-0.053,0.003
	c0.052,0.402,0.085,0.81,0.161,1.207c0.022,0.118,0.143,0.249,0.26,0.312c0.083,0.046,0.252,0.021,0.342-0.033
	c0.15-0.093,0.17-0.268,0.12-0.422c-0.141-0.446-0.138-0.901-0.102-1.357c0.038-0.544,0.228-1.036,0.656-1.424
	c0.468-0.423,0.937-0.845,1.402-1.27c0.09-0.081,0.181-0.167,0.245-0.265c0.092-0.129,0.017-0.259-0.149-0.244
	c-0.124,0.01-0.255,0.049-0.367,0.104c-0.498,0.246-0.917,0.599-1.308,0.97c-0.295,0.278-0.572,0.581-0.819,0.899
	C58.186,122.268,58.135,122.801,58.146,123.341z"/>
<path fill-rule="evenodd" clip-rule="evenodd" fill="#2C3962" d="M65.396,126.312c-0.795-0.031-1.457-0.1-2.07-0.396
	c-0.61-0.295-0.898-0.774-0.874-1.411c0.026-0.747,0.293-1.432,0.717-2.051c0.415-0.607,1.059-0.824,1.798-0.776
	c0.755,0.048,1.441,0.281,2.026,0.749c0.894,0.713,1.106,2.035,0.47,2.951c-0.323,0.464-0.795,0.728-1.358,0.845
	C65.834,126.279,65.556,126.294,65.396,126.312z M65.279,125.275c0.426,0.016,0.81-0.104,1.115-0.403
	c0.483-0.475,0.448-1.143-0.104-1.509c-0.198-0.132-0.437-0.234-0.671-0.292c-0.336-0.08-0.677-0.129-0.947-0.354
	c-0.003-0.002-0.01-0.009-0.01-0.009c-0.094,0.008-0.196-0.008-0.269,0.028c-0.083,0.044-0.152,0.128-0.209,0.205
	c-0.267,0.369-0.383,0.786-0.402,1.228c-0.016,0.354,0.157,0.63,0.457,0.831C64.547,125.206,64.898,125.279,65.279,125.275z"/>
<path fill-rule="evenodd" clip-rule="evenodd" fill="#2C3962" d="M58.146,123.341c-0.012-0.54,0.039-1.073,0.389-1.521
	c0.247-0.318,0.524-0.621,0.819-0.899c0.391-0.371,0.81-0.724,1.308-0.97c0.112-0.055,0.243-0.094,0.367-0.104
	c0.166-0.015,0.241,0.115,0.149,0.244c-0.064,0.098-0.155,0.184-0.245,0.265c-0.466,0.425-0.935,0.847-1.402,1.27
	c-0.429,0.388-0.618,0.88-0.656,1.424c-0.036,0.456-0.039,0.911,0.102,1.357c0.05,0.154,0.03,0.329-0.12,0.422
	c-0.09,0.055-0.259,0.079-0.342,0.033c-0.117-0.062-0.237-0.193-0.26-0.312c-0.076-0.397-0.109-0.805-0.161-1.207
	C58.113,123.342,58.131,123.342,58.146,123.341z"/>
</svg>
