<?xml version="1.0" encoding="utf-8"?>
<!-- Generator: Adobe Illustrator 16.0.0, SVG Export Plug-In . SVG Version: 6.00 Build 0)  -->
<!DOCTYPE svg PUBLIC "-//W3C//DTD SVG 1.1//EN" "http://www.w3.org/Graphics/SVG/1.1/DTD/svg11.dtd">
<svg version="1.1" id="Layer_1" xmlns="http://www.w3.org/2000/svg" xmlns:xlink="http://www.w3.org/1999/xlink" x="0px" y="0px"
	 width="233px" height="233px" viewBox="26.23 24.23 233 233" enable-background="new 26.23 24.23 233 233" xml:space="preserve">
<circle fill="#D4EFFC" cx="142.201" cy="141.665" r="111.202"/>
<path fill="#FFFFFF" d="M207.304,215.316c0,0-45.233-11.707-47.545-21.744c0,0-1.774-3.175-2.02-12.562
	c17.738-7.422,30.365-26.473,30.365-48.813c0-28.794-20.969-52.136-46.834-52.136c-25.865,0-46.833,23.342-46.833,52.136
	c0,21.093,11.257,39.244,27.44,47.455c-0.101,10.435-2.048,13.922-2.048,13.922c-2.303,10.037-47.528,21.744-47.528,21.744
	c-3.379,1.228-6.047,3.229-8.157,4.879c20.116,20.487,47.875,32.671,78.533,32.671c29.256,0,55.866-11.539,75.72-30.398
	C216.016,219.776,212.501,217.205,207.304,215.316z"/>
</svg>
