<?xml version="1.0" encoding="utf-8"?>
<!-- Generator: Adobe Illustrator 16.0.0, SVG Export Plug-In . SVG Version: 6.00 Build 0)  -->
<!DOCTYPE svg PUBLIC "-//W3C//DTD SVG 1.1//EN" "http://www.w3.org/Graphics/SVG/1.1/DTD/svg11.dtd">
<svg version="1.1" id="Layer_1" xmlns="http://www.w3.org/2000/svg" xmlns:xlink="http://www.w3.org/1999/xlink" x="0px" y="0px"
	 width="30px" height="30px" viewBox="0 0 30 30" enable-background="new 0 0 30 30" xml:space="preserve">
<circle fill="#C8D5E4" cx="15" cy="15" r="14.5"/>
<circle fill="#FFFFFF" cx="14.994" cy="14.85" r="13.523"/>
<path fill="#C8D5E4" d="M22.839,24.915c0,0-5.359-1.387-5.634-2.576c0,0-0.21-0.376-0.239-1.488c2.102-0.88,3.598-3.137,3.598-5.784
	c0-3.412-2.483-6.177-5.548-6.177c-3.064,0-5.549,2.766-5.549,6.177c0,2.5,1.333,4.651,3.251,5.623
	c-0.012,1.237-0.243,1.649-0.243,1.649c-0.272,1.189-5.631,2.576-5.631,2.576c-0.4,0.146-0.774,0.418-1.023,0.614
	c2.384,2.428,5.749,3.89,9.382,3.89c3.467,0,6.651-1.426,9.012-3.691C23.932,25.409,23.455,25.139,22.839,24.915z"/>
</svg>
