<?xml version="1.0" encoding="utf-8"?>
<!-- Generator: Adobe Illustrator 16.0.0, SVG Export Plug-In . SVG Version: 6.00 Build 0)  -->
<!DOCTYPE svg PUBLIC "-//W3C//DTD SVG 1.1//EN" "http://www.w3.org/Graphics/SVG/1.1/DTD/svg11.dtd">
<svg version="1.1" id="Layer_1" xmlns="http://www.w3.org/2000/svg" xmlns:xlink="http://www.w3.org/1999/xlink" x="0px" y="0px"
	 width="30px" height="30px" viewBox="0 0 30 30" enable-background="new 0 0 30 30" xml:space="preserve">
<circle fill="#4362AE" cx="15.038" cy="14.956" r="14.509"/>
<path fill-rule="evenodd" clip-rule="evenodd" fill="#375192" d="M10.092,16.232c-0.178,0.198-0.355,0.376-0.511,0.572
	c-0.192,0.246-0.357,0.512-0.552,0.754c-0.097,0.121-0.22,0.236-0.355,0.311c-0.245,0.135-0.549,0.021-0.71-0.241
	c-0.117-0.188-0.175-0.399-0.217-0.613c-0.119-0.594-0.08-1.187,0.029-1.777c0.089-0.491,0.221-0.968,0.505-1.381
	c0.465-0.678,1.026-1.269,1.728-1.707c0.305-0.191,0.647-0.309,1.023-0.283c0.031,0.001,0.078-0.032,0.092-0.06
	c0.327-0.642,0.708-1.25,1.125-1.836c0.733-1.028,1.594-1.939,2.564-2.747c0.627-0.521,1.283-1,2.008-1.383
	c0.429-0.227,0.881-0.384,1.349-0.497c0.461-0.111,0.925-0.193,1.396-0.171c0.237,0.011,0.47,0.057,0.688,0.153
	c0.366,0.164,0.524,0.472,0.598,0.843c0.107,0.576,0.092,1.154,0.006,1.729c-0.073,0.487-0.153,0.976-0.269,1.456
	c-0.105,0.441-0.245,0.876-0.403,1.301c-0.255,0.684-0.527,1.361-0.811,2.032c-0.278,0.658-0.58,1.307-0.978,1.904
	c-0.047,0.07-0.047,0.142,0.004,0.208c0.216,0.286,0.271,0.613,0.267,0.96c-0.01,0.484-0.13,0.948-0.284,1.403
	c-0.333,0.978-0.895,1.821-1.559,2.603c-0.329,0.386-0.662,0.767-1.056,1.091c-0.151,0.125-0.305,0.246-0.496,0.298
	c-0.401,0.108-0.865-0.105-1.039-0.482c-0.064-0.138-0.104-0.286-0.133-0.437c-0.034-0.177,0.046-0.341,0.105-0.503
	c0.107-0.302,0.222-0.6,0.331-0.901c0.052-0.141,0.019-0.188-0.131-0.192c-0.243-0.005-0.485-0.006-0.729-0.011
	c-0.054-0.003-0.084,0.016-0.113,0.064c-0.112,0.186-0.253,0.34-0.46,0.424c-0.155,0.065-0.311,0.058-0.468,0.019
	c-0.732-0.188-1.419-0.485-2.054-0.894c-0.107-0.067-0.206-0.157-0.295-0.248c-0.122-0.129-0.16-0.282-0.102-0.456
	c0.083-0.254,0.16-0.507,0.238-0.762c0.007-0.023,0.007-0.065-0.006-0.079c-0.13-0.109-0.214-0.249-0.28-0.401
	C10.131,16.28,10.12,16.271,10.092,16.232z M13.701,17.992c0.01-0.009,0.021-0.015,0.03-0.023c-0.009-0.031-0.013-0.065-0.027-0.095
	c-0.151-0.29-0.302-0.579-0.453-0.866c-0.063-0.12-0.042-0.189,0.083-0.267c0.117-0.072,0.17-0.069,0.241,0.059
	c0.087,0.154,0.153,0.323,0.219,0.488c0.1,0.244,0.187,0.493,0.288,0.736c0.018,0.042,0.073,0.092,0.115,0.097
	c0.086,0.011,0.177-0.004,0.266-0.018c0.019-0.004,0.048-0.049,0.044-0.068c-0.024-0.112-0.047-0.223-0.084-0.33
	c-0.104-0.309-0.215-0.615-0.317-0.925c-0.012-0.039,0-0.106,0.028-0.134c0.145-0.145,0.246-0.121,0.326,0.062
	c0.008,0.019,0.013,0.04,0.019,0.06c0.073,0.314,0.144,0.63,0.222,0.942c0.022,0.09,0.059,0.175,0.098,0.258
	c0.032,0.065,0.089,0.075,0.153,0.043c0.033-0.016,0.063-0.031,0.094-0.05c0.103-0.061,0.105-0.086,0.062-0.197
	c-0.084-0.211-0.172-0.422-0.241-0.637c-0.066-0.207-0.115-0.421-0.167-0.634c-0.027-0.105,0.045-0.214,0.159-0.244
	c0.117-0.033,0.188,0.017,0.196,0.136c0.022,0.375,0.12,0.733,0.232,1.086c0.02,0.064,0.07,0.118,0.107,0.178
	c0.066-0.048,0.138-0.091,0.197-0.145c0.023-0.022,0.038-0.085,0.023-0.112c-0.146-0.282-0.219-0.588-0.289-0.894
	c-0.039-0.169-0.084-0.337-0.12-0.506c-0.027-0.125,0.027-0.216,0.138-0.244c0.09-0.024,0.147,0.013,0.18,0.149
	c0.053,0.229,0.101,0.462,0.145,0.692c0.036,0.188,0.059,0.38,0.095,0.567c0.016,0.083,0.063,0.104,0.137,0.059
	c0.065-0.037,0.123-0.084,0.182-0.13c0.082-0.066,0.105-0.146,0.07-0.248c-0.047-0.144-0.083-0.294-0.129-0.438
	c-0.076-0.246-0.156-0.49-0.239-0.732c-0.036-0.109-0.002-0.243,0.093-0.304c0.094-0.062,0.15-0.051,0.187,0.054
	c0.055,0.171,0.1,0.345,0.141,0.52c0.043,0.182,0.074,0.369,0.117,0.552c0.008,0.038,0.04,0.071,0.062,0.106
	c0.033-0.024,0.078-0.043,0.102-0.074c0.07-0.097,0.129-0.202,0.197-0.3c0.054-0.072,0.05-0.143,0.018-0.219
	c-0.064-0.145-0.129-0.29-0.188-0.436c-0.062-0.149-0.123-0.299-0.177-0.45c-0.033-0.09,0.028-0.193,0.118-0.223
	c0.092-0.031,0.139-0.011,0.182,0.098c0.077,0.194,0.149,0.392,0.222,0.587c0.031,0.082,0.057,0.164,0.088,0.25
	c0.107-0.074,0.187-0.263,0.155-0.357c-0.052-0.158-0.11-0.312-0.155-0.47c-0.035-0.128-0.068-0.259-0.086-0.391
	c-0.01-0.077,0.025-0.15,0.113-0.173c0.088-0.024,0.14,0.032,0.167,0.102c0.055,0.138,0.1,0.279,0.148,0.421
	c0.021,0.068,0.039,0.137,0.068,0.23c0.051-0.055,0.084-0.088,0.114-0.123c0.188-0.22,0.277-0.488,0.384-0.747
	c0.021-0.056-0.002-0.075-0.058-0.08c-0.15-0.015-0.279-0.063-0.326-0.23c-0.004-0.019-0.012-0.038-0.021-0.062
	c-0.023,0.016-0.039,0.022-0.051,0.034c-0.25,0.23-0.542,0.393-0.846,0.534c-0.411,0.189-0.836,0.307-1.296,0.272
	c-0.098-0.007-0.198,0-0.296-0.009c-0.305-0.028-0.611-0.053-0.9-0.162c-0.584-0.221-1.052-0.599-1.426-1.095
	c-0.184-0.245-0.284-0.521-0.322-0.826c-0.034-0.267-0.024-0.531,0.002-0.798c0.055-0.548,0.206-1.057,0.541-1.508
	c0.404-0.546,0.919-0.858,1.609-0.872c0.224-0.003,0.448-0.039,0.669-0.069c0.148-0.02,0.293-0.059,0.442-0.083
	c0.182-0.03,0.367-0.036,0.539,0.041c0.263,0.116,0.522,0.234,0.775,0.372c0.388,0.215,0.75,0.468,1.089,0.759
	c0.152,0.134,0.267,0.292,0.312,0.492c0.082,0.366,0.066,0.736-0.016,1.097c-0.079,0.357,0.01,0.664,0.203,0.953
	c0.047,0.069,0.076,0.069,0.112-0.007c0.072-0.164,0.135-0.332,0.209-0.495c0.066-0.146,0.031-0.26-0.061-0.389
	c-0.092-0.132-0.152-0.29-0.216-0.44c-0.035-0.083,0.041-0.189,0.151-0.23c0.07-0.026,0.117,0.003,0.158,0.104
	c0.027,0.068,0.053,0.14,0.076,0.209c0.027,0.074,0.054,0.148,0.079,0.222c0.012,0.001,0.023,0.002,0.035,0.003
	c0.047-0.116,0.096-0.229,0.137-0.345c0.037-0.11,0.014-0.217-0.033-0.323c-0.096-0.212-0.188-0.427-0.28-0.641
	c-0.045-0.105,0.004-0.204,0.12-0.251c0.107-0.044,0.17-0.017,0.217,0.103c0.033,0.093,0.059,0.189,0.084,0.283
	c0.023,0.083,0.045,0.168,0.067,0.252c0.012,0.002,0.023,0.002,0.033,0.004c0.057-0.096,0.115-0.192,0.164-0.293
	c0.02-0.037,0.02-0.097,0-0.133c-0.062-0.136-0.141-0.264-0.207-0.396c-0.065-0.122-0.132-0.243-0.181-0.372
	c-0.033-0.085,0.023-0.171,0.113-0.204c0.142-0.051,0.185-0.042,0.237,0.07c0.037,0.077,0.066,0.159,0.098,0.24
	c0.027,0.079,0.055,0.159,0.082,0.238c0.012,0,0.022,0,0.032,0.001c0.029-0.086,0.061-0.172,0.09-0.257
	c0.059-0.178,0.072-0.352-0.02-0.529C19.691,9.342,19.62,9.17,19.55,9c-0.061-0.144-0.031-0.269,0.084-0.374
	c0.081-0.075,0.124-0.07,0.167,0.032c0.055,0.125,0.1,0.255,0.15,0.383c0.02,0.052,0.041,0.105,0.062,0.158
	c0.029-0.019,0.041-0.031,0.043-0.044c0.048-0.204,0.095-0.408,0.142-0.612c0.02-0.084,0.002-0.16-0.047-0.23
	c-0.086-0.125-0.177-0.25-0.261-0.377c-0.064-0.095-0.107-0.202-0.045-0.31c0.031-0.055,0.09-0.107,0.148-0.125
	c0.031-0.01,0.095,0.049,0.128,0.089c0.039,0.045,0.061,0.104,0.088,0.156c0.012,0.027,0.029,0.053,0.043,0.078
	c0.061-0.388,0.115-0.769,0.074-1.152c-0.018-0.178-0.045-0.358-0.092-0.529c-0.057-0.21-0.19-0.357-0.419-0.396
	c-0.38-0.064-0.754-0.017-1.126,0.054c-0.286,0.053-0.568,0.124-0.848,0.2c-0.306,0.084-0.611,0.186-0.892,0.344
	c-0.548,0.308-1.05,0.679-1.543,1.064c-0.69,0.54-1.359,1.107-1.911,1.792c-0.373,0.461-0.717,0.944-1.078,1.415
	c-0.311,0.406-0.598,0.824-0.811,1.29c-0.186,0.402-0.364,0.806-0.556,1.205c-0.154,0.322-0.301,0.646-0.383,0.993
	c-0.135,0.585-0.143,1.169-0.003,1.756c0.043,0.185,0.131,0.318,0.296,0.423c0.75,0.468,1.492,0.942,2.238,1.413
	C13.364,17.802,13.533,17.896,13.701,17.992z M12.951,12.045c-0.007,0-0.015,0.002-0.022,0.003c0.036,0.25,0.048,0.503,0.111,0.745
	c0.136,0.52,0.453,0.894,0.963,1.091c0.326,0.126,0.666,0.197,1.01,0.242c0.254,0.032,0.51,0.019,0.761-0.038
	c0.373-0.084,0.7-0.258,0.99-0.505c0.223-0.193,0.454-0.386,0.601-0.65c0.259-0.469,0.312-0.982,0.269-1.507
	c-0.021-0.279-0.156-0.506-0.37-0.687c-0.104-0.09-0.218-0.178-0.333-0.256c-0.312-0.209-0.635-0.4-1.004-0.482
	c-0.402-0.088-0.806-0.055-1.195,0.084c-0.226,0.08-0.448,0.143-0.689,0.056c-0.048-0.018-0.123-0.014-0.163,0.013
	c-0.307,0.205-0.576,0.45-0.733,0.794C12.986,11.296,12.96,11.669,12.951,12.045z M8.323,16.123c0,0.101-0.006,0.204,0.001,0.305
	c0.019,0.211,0.038,0.419,0.134,0.612c0.052,0.103,0.101,0.111,0.174,0.023c0.069-0.086,0.136-0.176,0.189-0.272
	c0.15-0.272,0.347-0.508,0.587-0.707c0.159-0.132,0.318-0.264,0.471-0.404c0.045-0.041,0.082-0.106,0.091-0.166
	c0.033-0.194,0.042-0.393,0.078-0.586c0.072-0.382,0.149-0.765,0.233-1.143c0.09-0.405,0.252-0.785,0.441-1.154
	c0.037-0.073,0.065-0.153,0.082-0.234c0.013-0.069-0.033-0.103-0.1-0.081c-0.062,0.021-0.125,0.044-0.179,0.079
	c-0.72,0.452-1.319,1.021-1.739,1.768C8.447,14.772,8.32,15.433,8.323,16.123z M15.127,18.899c-0.014,0-0.027-0.002-0.042-0.005
	c-0.021,0.061-0.048,0.118-0.066,0.178c-0.07,0.242-0.148,0.48-0.206,0.725c-0.034,0.144-0.064,0.299-0.044,0.44
	c0.039,0.284,0.296,0.385,0.517,0.213c0.73-0.573,1.365-1.231,1.853-2.027c0.092-0.152,0.184-0.306,0.273-0.461
	c0.058-0.103,0.046-0.112-0.055-0.162c-0.047-0.024-0.096-0.081-0.104-0.131c-0.023-0.138-0.023-0.279-0.041-0.421
	c-0.014-0.143-0.033-0.284-0.061-0.426c-0.004-0.032-0.039-0.085-0.061-0.084c-0.044,0.001-0.095,0.022-0.122,0.054
	c-0.027,0.029-0.039,0.083-0.039,0.124c0.014,0.216,0.027,0.431,0.045,0.646c0.02,0.249,0.041,0.496,0.061,0.743
	c0.004,0.071-0.031,0.134-0.1,0.14c-0.072,0.007-0.105-0.057-0.115-0.124c-0.027-0.207-0.047-0.417-0.078-0.625
	c-0.018-0.129-0.048-0.258-0.073-0.394c-0.154,0.068-0.217,0.159-0.211,0.294c0.002,0.066,0.01,0.131,0.012,0.197
	c0.02,0.339,0.043,0.677,0.053,1.015c0.002,0.074-0.041,0.153-0.072,0.224c-0.012,0.022-0.061,0.04-0.088,0.037
	c-0.021-0.002-0.048-0.044-0.052-0.07c-0.025-0.23-0.047-0.459-0.07-0.689c-0.01-0.103-0.025-0.208-0.051-0.309
	c-0.008-0.033-0.057-0.058-0.086-0.087c-0.025,0.034-0.068,0.064-0.073,0.1c-0.014,0.108-0.02,0.216-0.014,0.323
	c0.01,0.273,0.033,0.55,0.044,0.825c0.004,0.105-0.064,0.144-0.161,0.103c-0.106-0.046-0.163-0.125-0.165-0.241
	c-0.006-0.203-0.01-0.403-0.022-0.603c-0.003-0.039-0.039-0.104-0.061-0.104c-0.048,0-0.107,0.021-0.14,0.054
	c-0.035,0.033-0.059,0.093-0.062,0.143c-0.005,0.112,0.003,0.227,0.012,0.341c0.014,0.154,0.036,0.309,0.047,0.466
	c0.007,0.098-0.08,0.158-0.169,0.114c-0.042-0.019-0.08-0.062-0.102-0.104c-0.025-0.05-0.029-0.11-0.043-0.165
	C15.174,19.076,15.152,18.986,15.127,18.899z M11.384,17.307c-0.004,0.038-0.01,0.076-0.012,0.113
	c-0.009,0.142-0.014,0.286-0.025,0.43c0,0.022-0.017,0.057-0.034,0.063c-0.124,0.049-0.304-0.102-0.286-0.231
	c0.021-0.133,0.041-0.267,0.055-0.4c0.018-0.153-0.057-0.274-0.196-0.338c-0.068-0.03-0.119-0.021-0.159,0.047
	c-0.083,0.138-0.127,0.288-0.149,0.448c-0.02,0.15,0.012,0.273,0.143,0.37c0.377,0.278,0.753,0.562,1.192,0.738
	c0.295,0.117,0.598,0.217,0.918,0.235c0.168,0.008,0.306-0.077,0.425-0.185c0.022-0.019,0.034-0.087,0.018-0.107
	c-0.057-0.065-0.132-0.107-0.234-0.111c0,0.053-0.003,0.098,0.002,0.142c0.004,0.063-0.024,0.082-0.084,0.084
	c-0.208,0.009-0.213,0.005-0.219-0.2c0-0.005,0-0.012,0-0.017c-0.006-0.172-0.13-0.328-0.312-0.383c0,0.112,0,0.222-0.001,0.332
	c-0.001,0.129-0.019,0.145-0.146,0.142c-0.024,0-0.047-0.003-0.072-0.006c-0.09-0.007-0.125-0.055-0.114-0.142
	c0.014-0.127,0.019-0.255,0.041-0.376c0.021-0.12-0.026-0.196-0.124-0.254c-0.084-0.048-0.11-0.035-0.113,0.065
	c-0.003,0.114-0.003,0.228-0.012,0.341c-0.002,0.028-0.032,0.072-0.057,0.076c-0.124,0.024-0.303-0.132-0.3-0.26
	c0.004-0.146,0.017-0.293,0.019-0.439C11.547,17.38,11.507,17.338,11.384,17.307z M17.354,16.539
	c0.014,0.197,0.023,0.395,0.047,0.592c0.014,0.117,0.041,0.236,0.075,0.352c0.008,0.034,0.051,0.061,0.076,0.091
	c0.027-0.024,0.062-0.045,0.08-0.074c0.104-0.181,0.182-0.372,0.154-0.581c-0.035-0.285-0.09-0.567-0.139-0.85
	c-0.008-0.039-0.033-0.072-0.049-0.111c-0.035,0.027-0.074,0.046-0.104,0.079C17.374,16.18,17.329,16.351,17.354,16.539z
	 M18.048,13.011c-0.031,0.048-0.055,0.085-0.076,0.124c-0.105,0.198-0.21,0.395-0.31,0.594c-0.014,0.024-0.016,0.073,0,0.087
	c0.082,0.076,0.171,0.15,0.261,0.213c0.02,0.016,0.084,0,0.096-0.02c0.129-0.205,0.253-0.413,0.372-0.623
	c0.031-0.051,0.023-0.098-0.051-0.124c-0.102-0.033-0.187-0.091-0.235-0.192C18.093,13.053,18.075,13.041,18.048,13.011z
	 M18.007,16.18c0.014,0,0.027,0,0.039,0c0.008-0.111,0.021-0.226,0.016-0.335c-0.008-0.149-0.031-0.297-0.057-0.443
	c-0.006-0.038-0.047-0.069-0.072-0.103c-0.012,0.005-0.021,0.01-0.033,0.016C17.872,15.612,17.964,15.894,18.007,16.18z"/>
<path fill-rule="evenodd" clip-rule="evenodd" fill="#375192" d="M12.821,20.119c-0.001,0.617-0.233,1.14-0.625,1.612
	c-0.283,0.336-0.623,0.538-1.049,0.618c-0.452,0.087-0.903,0.185-1.353,0.286c-0.379,0.085-0.708,0.251-0.93,0.589
	c-0.069,0.104-0.157,0.199-0.252,0.279c-0.202,0.172-0.486,0.118-0.593-0.104c-0.037-0.078-0.043-0.164,0.007-0.24
	c0.323-0.496,0.454-1.046,0.469-1.628c0.014-0.531,0.063-1.06,0.159-1.582c0.045-0.245,0.105-0.492,0.19-0.729
	c0.107-0.296,0.348-0.483,0.624-0.616c0.162-0.076,0.34-0.126,0.517-0.168c0.201-0.046,0.39,0.026,0.573,0.104
	c0.444,0.188,0.858,0.424,1.199,0.773c0.053,0.052,0.114,0.097,0.171,0.143c0.128,0.105,0.268,0.166,0.438,0.154
	c0.085-0.006,0.174,0.005,0.258,0.024c0.131,0.028,0.186,0.096,0.195,0.232C12.826,19.951,12.821,20.037,12.821,20.119z
	 M9.001,22.117c0,0.033,0.002,0.073,0.004,0.111c0.012,0.146,0.047,0.168,0.179,0.116c0.014-0.007,0.027-0.013,0.041-0.019
	c0.226-0.104,0.444-0.228,0.678-0.302c0.326-0.104,0.666-0.17,0.999-0.257c0.268-0.07,0.519-0.179,0.737-0.354
	c0.377-0.302,0.497-0.718,0.516-1.177c0.003-0.06-0.038-0.078-0.089-0.092c-0.177-0.052-0.37-0.064-0.517-0.192
	c-0.166-0.143-0.323-0.294-0.489-0.438c-0.224-0.192-0.448-0.386-0.68-0.569c-0.1-0.078-0.228-0.118-0.357-0.084
	c-0.184,0.05-0.346,0.145-0.438,0.319c-0.086,0.162-0.176,0.325-0.236,0.501c-0.09,0.262-0.184,0.528-0.226,0.801
	c-0.052,0.346-0.054,0.698-0.078,1.048C9.032,21.724,9.016,21.919,9.001,22.117z"/>
<path fill-rule="evenodd" clip-rule="evenodd" fill="#FFFFFF" d="M13.701,17.992c-0.168-0.097-0.336-0.19-0.5-0.294
	c-0.746-0.471-1.489-0.945-2.238-1.413c-0.165-0.105-0.252-0.238-0.296-0.423c-0.14-0.586-0.132-1.171,0.003-1.756
	c0.082-0.348,0.229-0.671,0.383-0.993c0.192-0.399,0.37-0.803,0.556-1.205c0.213-0.466,0.5-0.884,0.811-1.29
	c0.361-0.471,0.706-0.954,1.078-1.415c0.552-0.686,1.221-1.252,1.911-1.792c0.493-0.386,0.996-0.757,1.543-1.064
	c0.28-0.158,0.586-0.26,0.892-0.344c0.279-0.077,0.562-0.147,0.848-0.2c0.372-0.071,0.746-0.119,1.126-0.054
	c0.229,0.039,0.362,0.186,0.419,0.396c0.047,0.171,0.074,0.351,0.092,0.529c0.041,0.383-0.014,0.764-0.074,1.152
	c-0.014-0.025-0.031-0.051-0.043-0.078c-0.027-0.053-0.049-0.111-0.088-0.156c-0.033-0.041-0.097-0.1-0.128-0.089
	c-0.059,0.018-0.117,0.069-0.148,0.125c-0.062,0.108-0.02,0.215,0.045,0.31c0.084,0.127,0.175,0.252,0.261,0.377
	c0.049,0.07,0.066,0.146,0.047,0.23c-0.047,0.204-0.094,0.408-0.142,0.612c-0.002,0.013-0.014,0.025-0.043,0.044
	c-0.021-0.053-0.043-0.106-0.062-0.158c-0.051-0.127-0.096-0.257-0.15-0.383c-0.043-0.102-0.086-0.107-0.167-0.032
	C19.519,8.731,19.489,8.856,19.55,9c0.07,0.17,0.142,0.343,0.228,0.507c0.092,0.177,0.078,0.351,0.02,0.529
	c-0.029,0.085-0.061,0.171-0.09,0.257c-0.01-0.001-0.021-0.001-0.032-0.001c-0.027-0.079-0.055-0.159-0.082-0.238
	c-0.031-0.082-0.061-0.164-0.098-0.24c-0.053-0.111-0.096-0.121-0.237-0.07c-0.09,0.032-0.146,0.118-0.113,0.204
	c0.049,0.128,0.115,0.25,0.181,0.372c0.066,0.132,0.145,0.261,0.207,0.396c0.02,0.036,0.02,0.096,0,0.133
	c-0.049,0.101-0.107,0.197-0.164,0.293c-0.01-0.002-0.021-0.002-0.033-0.004c-0.022-0.084-0.044-0.169-0.067-0.252
	c-0.025-0.094-0.051-0.19-0.084-0.283c-0.047-0.12-0.109-0.147-0.217-0.103c-0.116,0.047-0.165,0.146-0.12,0.251
	c0.092,0.214,0.185,0.429,0.28,0.641c0.047,0.105,0.07,0.213,0.033,0.323c-0.041,0.117-0.09,0.229-0.137,0.345
	c-0.012-0.001-0.023-0.002-0.035-0.003c-0.025-0.074-0.052-0.148-0.079-0.222c-0.023-0.07-0.049-0.141-0.076-0.209
	c-0.041-0.101-0.088-0.13-0.158-0.104c-0.11,0.041-0.187,0.147-0.151,0.23c0.063,0.15,0.124,0.308,0.216,0.44
	c0.092,0.129,0.127,0.243,0.061,0.389c-0.074,0.163-0.137,0.331-0.209,0.495c-0.036,0.076-0.065,0.076-0.112,0.007
	c-0.193-0.289-0.282-0.595-0.203-0.953c0.082-0.361,0.098-0.731,0.016-1.097c-0.045-0.2-0.159-0.358-0.312-0.492
	c-0.339-0.291-0.701-0.544-1.089-0.759c-0.253-0.138-0.513-0.256-0.775-0.372c-0.172-0.076-0.357-0.07-0.539-0.041
	c-0.149,0.024-0.294,0.063-0.442,0.083c-0.221,0.03-0.445,0.065-0.669,0.069c-0.69,0.013-1.206,0.326-1.609,0.872
	c-0.335,0.452-0.486,0.96-0.541,1.508c-0.026,0.267-0.036,0.532-0.002,0.798c0.038,0.304,0.138,0.581,0.322,0.826
	c0.375,0.496,0.842,0.874,1.426,1.095c0.289,0.109,0.595,0.134,0.9,0.162c0.098,0.009,0.198,0.002,0.296,0.009
	c0.459,0.034,0.885-0.083,1.296-0.272c0.304-0.142,0.596-0.304,0.846-0.534c0.012-0.012,0.027-0.018,0.051-0.034
	c0.009,0.025,0.017,0.043,0.021,0.062c0.047,0.167,0.176,0.215,0.326,0.23c0.056,0.005,0.079,0.023,0.058,0.08
	c-0.106,0.259-0.196,0.527-0.384,0.747c-0.03,0.035-0.063,0.068-0.114,0.123c-0.029-0.093-0.047-0.162-0.068-0.23
	c-0.049-0.142-0.094-0.283-0.148-0.421c-0.027-0.07-0.079-0.126-0.167-0.102c-0.088,0.023-0.123,0.097-0.113,0.173
	c0.018,0.132,0.051,0.263,0.086,0.391c0.045,0.158,0.104,0.312,0.155,0.47c0.031,0.095-0.048,0.284-0.155,0.357
	c-0.031-0.086-0.057-0.168-0.088-0.25c-0.072-0.195-0.145-0.393-0.222-0.587c-0.043-0.108-0.09-0.129-0.182-0.098
	c-0.09,0.03-0.151,0.133-0.118,0.223c0.054,0.151,0.114,0.301,0.177,0.45c0.059,0.146,0.123,0.292,0.188,0.436
	c0.032,0.076,0.036,0.146-0.018,0.219c-0.068,0.098-0.127,0.203-0.197,0.3c-0.023,0.031-0.068,0.05-0.102,0.074
	c-0.021-0.035-0.054-0.068-0.062-0.106c-0.043-0.183-0.074-0.37-0.117-0.552c-0.041-0.175-0.086-0.349-0.141-0.52
	c-0.036-0.105-0.092-0.116-0.187-0.054c-0.095,0.061-0.129,0.195-0.093,0.304c0.083,0.242,0.163,0.486,0.239,0.732
	c0.046,0.144,0.082,0.294,0.129,0.438c0.035,0.102,0.012,0.182-0.07,0.248c-0.06,0.046-0.117,0.093-0.182,0.13
	c-0.074,0.045-0.121,0.024-0.137-0.059c-0.037-0.188-0.059-0.379-0.095-0.567c-0.043-0.23-0.091-0.463-0.145-0.692
	c-0.032-0.136-0.09-0.173-0.18-0.149c-0.111,0.028-0.166,0.119-0.138,0.244c0.036,0.169,0.081,0.337,0.12,0.506
	c0.07,0.306,0.143,0.611,0.289,0.894c0.014,0.027,0,0.09-0.023,0.112c-0.059,0.054-0.13,0.097-0.197,0.145
	c-0.037-0.06-0.087-0.113-0.107-0.178c-0.113-0.353-0.21-0.711-0.232-1.086c-0.008-0.119-0.079-0.169-0.196-0.136
	c-0.113,0.03-0.186,0.139-0.159,0.244c0.051,0.213,0.101,0.427,0.167,0.634c0.069,0.215,0.157,0.426,0.241,0.637
	c0.044,0.111,0.041,0.137-0.062,0.197c-0.031,0.019-0.061,0.034-0.094,0.05c-0.064,0.032-0.121,0.022-0.153-0.043
	c-0.039-0.083-0.076-0.168-0.098-0.258c-0.078-0.312-0.149-0.628-0.222-0.942c-0.006-0.02-0.011-0.041-0.019-0.06
	c-0.081-0.184-0.182-0.207-0.326-0.062c-0.028,0.027-0.041,0.095-0.028,0.134c0.102,0.31,0.212,0.616,0.317,0.925
	c0.037,0.107,0.06,0.218,0.084,0.33c0.004,0.02-0.026,0.064-0.044,0.068c-0.089,0.014-0.18,0.028-0.266,0.018
	c-0.042-0.005-0.098-0.055-0.115-0.097c-0.101-0.243-0.188-0.492-0.288-0.736c-0.066-0.165-0.132-0.334-0.219-0.488
	c-0.071-0.128-0.124-0.131-0.241-0.059c-0.125,0.077-0.146,0.146-0.083,0.267c0.151,0.287,0.302,0.576,0.453,0.866
	c0.014,0.029,0.019,0.063,0.027,0.095C13.721,17.978,13.71,17.983,13.701,17.992z"/>
<path fill-rule="evenodd" clip-rule="evenodd" fill="#FFFFFF" d="M12.951,12.045c0.009-0.376,0.035-0.75,0.194-1.097
	c0.157-0.344,0.426-0.59,0.733-0.794c0.04-0.027,0.115-0.031,0.163-0.013c0.241,0.087,0.463,0.024,0.689-0.056
	c0.39-0.139,0.793-0.172,1.195-0.084c0.37,0.082,0.693,0.273,1.004,0.482c0.115,0.078,0.229,0.166,0.333,0.256
	c0.214,0.181,0.349,0.407,0.37,0.687c0.043,0.525-0.01,1.038-0.269,1.507c-0.146,0.264-0.378,0.457-0.601,0.65
	c-0.29,0.247-0.617,0.421-0.99,0.505c-0.25,0.056-0.507,0.07-0.761,0.038c-0.344-0.044-0.685-0.115-1.01-0.242
	c-0.51-0.197-0.827-0.571-0.963-1.091c-0.062-0.241-0.075-0.495-0.111-0.745C12.937,12.047,12.944,12.046,12.951,12.045z
	 M15.573,10.223c-0.001,0.008-0.002,0.018-0.003,0.026c-0.024,0-0.047,0-0.073,0c-0.401,0.004-0.793,0.059-1.155,0.251
	c-0.145,0.077-0.292,0.164-0.361,0.322c-0.17,0.39-0.237,0.794-0.155,1.218c0.122,0.635,0.469,0.936,1.013,1.08
	c0.393,0.105,0.795,0.122,1.197,0.106c0.55-0.022,0.91-0.26,1.146-0.907c0.084-0.228,0.074-0.472,0.066-0.712
	c-0.002-0.074-0.002-0.126,0.086-0.161c0.1-0.038,0.128-0.131,0.082-0.202c-0.049-0.076-0.135-0.105-0.227-0.088
	c-0.021,0.005-0.061-0.011-0.074-0.03c-0.101-0.13-0.181-0.276-0.29-0.395c-0.173-0.18-0.356-0.357-0.607-0.418
	C16.008,10.263,15.789,10.251,15.573,10.223z M14.634,13.833c0.129-0.017,0.264-0.041,0.354-0.167
	c0.05-0.073,0.042-0.146-0.006-0.217c-0.046-0.072-0.113-0.123-0.194-0.094c-0.103,0.035-0.204,0.084-0.293,0.144
	c-0.073,0.049-0.111,0.132-0.077,0.222C14.451,13.813,14.537,13.827,14.634,13.833z M15.771,13.802
	c0.004-0.007,0.006-0.015,0.009-0.024c0.112,0.009,0.221-0.01,0.29-0.105c0.036-0.051,0.046-0.123,0.069-0.185
	c-0.057-0.02-0.112-0.041-0.169-0.057c-0.029-0.007-0.061,0.004-0.089,0.002c-0.08-0.006-0.16-0.011-0.238-0.027
	c-0.09-0.02-0.157,0.005-0.204,0.094c-0.04,0.073-0.03,0.151,0.048,0.194C15.574,13.744,15.675,13.769,15.771,13.802z
	 M13.377,11.904c-0.132,0-0.251,0.112-0.248,0.234c0.004,0.11,0.155,0.225,0.297,0.222c0.108-0.001,0.184-0.093,0.186-0.222
	C13.614,12.013,13.504,11.904,13.377,11.904z M13.786,12.795c-0.12,0.001-0.243,0.111-0.244,0.219
	c-0.002,0.101,0.174,0.24,0.301,0.238c0.101-0.002,0.186-0.115,0.185-0.249C14.026,12.88,13.926,12.793,13.786,12.795z
	 M13.443,10.857c-0.102-0.002-0.227,0.106-0.226,0.194c0.001,0.073,0.101,0.167,0.183,0.169c0.095,0.002,0.193-0.096,0.196-0.197
	C13.598,10.933,13.53,10.858,13.443,10.857z"/>
<path fill-rule="evenodd" clip-rule="evenodd" fill="#FFFFFF" d="M8.323,16.123c-0.003-0.69,0.124-1.351,0.465-1.96
	c0.42-0.746,1.02-1.315,1.739-1.768c0.054-0.035,0.117-0.057,0.179-0.079c0.067-0.021,0.113,0.012,0.1,0.081
	c-0.017,0.081-0.045,0.161-0.082,0.234c-0.189,0.369-0.351,0.749-0.441,1.154c-0.084,0.378-0.162,0.761-0.233,1.143
	c-0.035,0.193-0.044,0.392-0.078,0.586c-0.009,0.059-0.046,0.125-0.091,0.166c-0.153,0.14-0.312,0.271-0.471,0.404
	c-0.241,0.199-0.437,0.435-0.587,0.707c-0.054,0.097-0.12,0.187-0.189,0.272c-0.073,0.088-0.122,0.079-0.174-0.023
	c-0.096-0.193-0.116-0.401-0.134-0.612C8.317,16.327,8.323,16.224,8.323,16.123z"/>
<path fill-rule="evenodd" clip-rule="evenodd" fill="#FFFFFF" d="M15.127,18.899c0.024,0.087,0.046,0.177,0.07,0.265
	c0.014,0.055,0.018,0.115,0.043,0.165c0.022,0.041,0.06,0.085,0.102,0.104c0.089,0.044,0.176-0.017,0.169-0.114
	c-0.012-0.157-0.033-0.312-0.047-0.466c-0.009-0.114-0.017-0.229-0.012-0.341c0.003-0.05,0.027-0.109,0.062-0.143
	c0.033-0.033,0.092-0.054,0.14-0.054c0.022,0.001,0.058,0.065,0.061,0.104c0.012,0.199,0.016,0.399,0.022,0.603
	c0.002,0.116,0.058,0.195,0.165,0.241c0.097,0.041,0.165,0.003,0.161-0.103c-0.011-0.275-0.034-0.552-0.044-0.825
	c-0.006-0.107,0-0.215,0.014-0.323c0.005-0.035,0.048-0.065,0.073-0.1c0.029,0.029,0.078,0.054,0.086,0.087
	c0.025,0.101,0.041,0.206,0.051,0.309c0.023,0.23,0.045,0.459,0.07,0.689c0.004,0.026,0.03,0.068,0.052,0.07
	c0.027,0.003,0.076-0.015,0.088-0.037c0.031-0.07,0.074-0.149,0.072-0.224c-0.01-0.338-0.033-0.676-0.053-1.015
	c-0.002-0.066-0.01-0.131-0.012-0.197c-0.006-0.135,0.057-0.226,0.211-0.294c0.025,0.136,0.056,0.265,0.073,0.394
	c0.031,0.208,0.051,0.418,0.078,0.625c0.01,0.067,0.043,0.131,0.115,0.124c0.068-0.006,0.104-0.068,0.1-0.14
	c-0.02-0.247-0.041-0.494-0.061-0.743c-0.018-0.215-0.031-0.43-0.045-0.646c0-0.041,0.012-0.095,0.039-0.124
	c0.027-0.031,0.078-0.053,0.122-0.054c0.021-0.001,0.057,0.052,0.061,0.084c0.027,0.142,0.047,0.283,0.061,0.426
	c0.018,0.142,0.018,0.283,0.041,0.421c0.008,0.05,0.057,0.106,0.104,0.131c0.101,0.05,0.112,0.06,0.055,0.162
	c-0.09,0.155-0.182,0.309-0.273,0.461c-0.488,0.796-1.123,1.454-1.853,2.027c-0.22,0.172-0.478,0.071-0.517-0.213
	c-0.02-0.142,0.011-0.297,0.044-0.44c0.058-0.244,0.135-0.482,0.206-0.725c0.018-0.06,0.044-0.117,0.066-0.178
	C15.1,18.897,15.114,18.899,15.127,18.899z"/>
<path fill-rule="evenodd" clip-rule="evenodd" fill="#FFFFFF" d="M11.384,17.307c0.124,0.031,0.164,0.073,0.162,0.178
	c-0.001,0.146-0.015,0.294-0.019,0.439c-0.003,0.128,0.176,0.284,0.3,0.26c0.025-0.004,0.055-0.048,0.057-0.076
	c0.009-0.113,0.009-0.227,0.012-0.341c0.003-0.101,0.028-0.113,0.113-0.065c0.097,0.058,0.145,0.134,0.124,0.254
	c-0.022,0.121-0.026,0.249-0.041,0.376c-0.01,0.087,0.024,0.135,0.114,0.142c0.025,0.003,0.048,0.006,0.072,0.006
	c0.128,0.003,0.146-0.013,0.146-0.142c0.001-0.11,0.001-0.22,0.001-0.332c0.182,0.055,0.306,0.211,0.312,0.383
	c0,0.005,0,0.012,0,0.017c0.006,0.205,0.012,0.209,0.219,0.2c0.061-0.002,0.088-0.021,0.084-0.084
	c-0.005-0.044-0.002-0.089-0.002-0.142c0.103,0.004,0.178,0.046,0.234,0.111c0.016,0.021,0.004,0.089-0.018,0.107
	c-0.12,0.107-0.257,0.192-0.425,0.185c-0.32-0.019-0.623-0.118-0.918-0.235c-0.439-0.177-0.815-0.46-1.192-0.738
	c-0.13-0.097-0.163-0.22-0.143-0.37c0.021-0.16,0.065-0.311,0.149-0.448c0.04-0.068,0.091-0.077,0.159-0.047
	c0.139,0.063,0.214,0.185,0.196,0.338c-0.014,0.134-0.034,0.268-0.055,0.4c-0.019,0.13,0.162,0.28,0.286,0.231
	c0.018-0.007,0.034-0.041,0.034-0.063c0.011-0.144,0.016-0.288,0.025-0.43C11.374,17.383,11.379,17.345,11.384,17.307z"/>
<path fill-rule="evenodd" clip-rule="evenodd" fill="#FFFFFF" d="M17.354,16.539c-0.025-0.188,0.02-0.359,0.142-0.503
	c0.029-0.032,0.068-0.052,0.104-0.079c0.016,0.039,0.041,0.072,0.049,0.111c0.049,0.282,0.104,0.564,0.139,0.85
	c0.027,0.209-0.051,0.4-0.154,0.581c-0.018,0.029-0.053,0.05-0.08,0.074c-0.025-0.03-0.068-0.057-0.076-0.091
	c-0.034-0.115-0.062-0.234-0.075-0.352C17.378,16.934,17.368,16.736,17.354,16.539z"/>
<path fill-rule="evenodd" clip-rule="evenodd" fill="#FFFFFF" d="M18.048,13.011c0.027,0.03,0.045,0.042,0.057,0.06
	c0.049,0.101,0.134,0.16,0.235,0.192c0.074,0.026,0.082,0.073,0.051,0.124c-0.119,0.21-0.243,0.418-0.372,0.623
	c-0.012,0.02-0.076,0.035-0.096,0.02c-0.09-0.063-0.179-0.137-0.261-0.213c-0.016-0.015-0.014-0.063,0-0.087
	c0.1-0.2,0.204-0.396,0.31-0.594C17.993,13.096,18.017,13.059,18.048,13.011z"/>
<path fill-rule="evenodd" clip-rule="evenodd" fill="#FFFFFF" d="M18.007,16.18c-0.043-0.286-0.135-0.568-0.107-0.865
	c0.012-0.006,0.021-0.011,0.033-0.016c0.025,0.034,0.066,0.065,0.072,0.103c0.025,0.146,0.049,0.294,0.057,0.443
	c0.006,0.11-0.008,0.224-0.016,0.335C18.034,16.18,18.021,16.18,18.007,16.18z"/>
<path fill-rule="evenodd" clip-rule="evenodd" fill="#FFFFFF" d="M9.001,22.117c0.014-0.198,0.03-0.394,0.043-0.587
	c0.024-0.35,0.026-0.702,0.078-1.048c0.042-0.272,0.135-0.539,0.226-0.801c0.06-0.176,0.15-0.339,0.236-0.501
	c0.092-0.175,0.254-0.27,0.438-0.319c0.129-0.034,0.257,0.006,0.357,0.084c0.232,0.184,0.456,0.377,0.68,0.569
	c0.166,0.144,0.323,0.295,0.489,0.438c0.147,0.128,0.339,0.141,0.517,0.192c0.051,0.014,0.092,0.032,0.089,0.092
	c-0.019,0.459-0.138,0.875-0.516,1.177c-0.218,0.176-0.469,0.284-0.737,0.354c-0.333,0.087-0.673,0.152-0.999,0.257
	c-0.234,0.074-0.452,0.198-0.678,0.302c-0.014,0.006-0.027,0.012-0.041,0.019c-0.131,0.052-0.167,0.03-0.179-0.116
	C9.003,22.19,9.002,22.15,9.001,22.117z M10.425,21.397c0.106-0.032,0.194-0.047,0.274-0.086c0.322-0.15,0.594-0.378,0.861-0.608
	c0.051-0.042,0.092-0.1,0.047-0.173c-0.044-0.07-0.116-0.1-0.186-0.066c-0.087,0.038-0.177,0.091-0.242,0.158
	c-0.227,0.237-0.482,0.428-0.791,0.547c-0.058,0.022-0.155,0.051-0.12,0.136C10.287,21.352,10.373,21.369,10.425,21.397z"/>
<path fill-rule="evenodd" clip-rule="evenodd" fill="#375192" d="M15.573,10.223c0.215,0.029,0.435,0.041,0.644,0.092
	c0.251,0.061,0.435,0.238,0.607,0.418c0.109,0.119,0.189,0.265,0.29,0.395c0.014,0.019,0.053,0.035,0.074,0.03
	c0.092-0.018,0.178,0.012,0.227,0.088c0.046,0.071,0.018,0.164-0.082,0.202c-0.088,0.035-0.088,0.087-0.086,0.161
	c0.008,0.24,0.018,0.484-0.066,0.712c-0.235,0.647-0.596,0.885-1.146,0.907c-0.401,0.016-0.804-0.001-1.197-0.106
	c-0.544-0.145-0.891-0.445-1.013-1.08c-0.082-0.424-0.015-0.828,0.155-1.218c0.069-0.158,0.216-0.245,0.361-0.322
	c0.362-0.193,0.754-0.248,1.155-0.251c0.025,0,0.049,0,0.073,0C15.571,10.24,15.572,10.231,15.573,10.223z M15.653,12.938
	c0.188-0.034,0.379-0.057,0.562-0.105c0.282-0.075,0.491-0.244,0.562-0.536c0.043-0.188,0.062-0.384,0.072-0.578
	c0.027-0.548-0.562-1.233-1.313-1.062c-0.133,0.03-0.256,0.02-0.359-0.058c-0.105-0.079-0.199-0.057-0.302-0.019
	c-0.024,0.008-0.044,0.016-0.067,0.026c-0.351,0.142-0.577,0.391-0.662,0.767c-0.049,0.222-0.03,0.442,0.016,0.66
	c0.054,0.25,0.179,0.46,0.41,0.584C14.908,12.8,15.261,12.926,15.653,12.938z"/>
<path fill-rule="evenodd" clip-rule="evenodd" fill="#375192" d="M14.634,13.833c-0.097-0.006-0.183-0.019-0.218-0.112
	c-0.034-0.09,0.004-0.173,0.077-0.222c0.089-0.06,0.19-0.109,0.293-0.144c0.082-0.028,0.148,0.022,0.194,0.094
	c0.048,0.071,0.057,0.145,0.006,0.217C14.897,13.792,14.763,13.816,14.634,13.833z"/>
<path fill-rule="evenodd" clip-rule="evenodd" fill="#375192" d="M15.771,13.802c-0.095-0.033-0.196-0.058-0.285-0.108
	c-0.078-0.043-0.088-0.122-0.048-0.194c0.047-0.089,0.114-0.114,0.204-0.094c0.079,0.016,0.159,0.021,0.238,0.027
	c0.029,0.002,0.061-0.009,0.089-0.002c0.057,0.016,0.113,0.037,0.169,0.057c-0.023,0.062-0.033,0.134-0.069,0.185
	c-0.068,0.095-0.177,0.114-0.29,0.105C15.777,13.788,15.775,13.795,15.771,13.802z"/>
<path fill-rule="evenodd" clip-rule="evenodd" fill="#375192" d="M13.377,11.904c0.126,0,0.237,0.109,0.235,0.234
	c-0.001,0.129-0.077,0.221-0.186,0.222c-0.143,0.003-0.293-0.112-0.297-0.222C13.126,12.017,13.246,11.904,13.377,11.904z"/>
<path fill-rule="evenodd" clip-rule="evenodd" fill="#375192" d="M13.786,12.795c0.141-0.002,0.24,0.085,0.242,0.208
	c0.001,0.134-0.083,0.247-0.185,0.249c-0.127,0.002-0.303-0.137-0.301-0.238C13.543,12.906,13.666,12.796,13.786,12.795z"/>
<path fill-rule="evenodd" clip-rule="evenodd" fill="#375192" d="M13.443,10.857c0.087,0.001,0.155,0.076,0.152,0.166
	c-0.003,0.101-0.101,0.2-0.196,0.197c-0.082-0.003-0.181-0.096-0.183-0.169C13.216,10.963,13.342,10.854,13.443,10.857z"/>
<path fill-rule="evenodd" clip-rule="evenodd" fill="#375192" d="M10.425,21.397c-0.052-0.028-0.139-0.046-0.156-0.093
	c-0.036-0.085,0.062-0.113,0.12-0.136c0.308-0.119,0.563-0.31,0.791-0.547c0.065-0.067,0.155-0.12,0.242-0.158
	c0.07-0.033,0.142-0.004,0.186,0.066c0.045,0.073,0.004,0.131-0.047,0.173c-0.267,0.23-0.539,0.458-0.861,0.608
	C10.62,21.351,10.531,21.365,10.425,21.397z"/>
<path fill-rule="evenodd" clip-rule="evenodd" fill="#FFFFFF" d="M15.653,12.938c-0.393-0.013-0.746-0.139-1.081-0.319
	c-0.231-0.125-0.356-0.335-0.41-0.584c-0.046-0.218-0.065-0.438-0.016-0.66c0.084-0.376,0.311-0.625,0.662-0.767
	c0.023-0.011,0.043-0.018,0.067-0.026c0.103-0.038,0.196-0.06,0.302,0.019c0.103,0.078,0.226,0.088,0.359,0.058
	c0.75-0.172,1.34,0.513,1.313,1.062c-0.01,0.194-0.029,0.39-0.072,0.578c-0.071,0.292-0.28,0.461-0.562,0.536
	C16.032,12.881,15.841,12.905,15.653,12.938z"/>
</svg>
