<?xml version="1.0" encoding="utf-8"?>
<!-- Generator: Adobe Illustrator 16.0.0, SVG Export Plug-In . SVG Version: 6.00 Build 0)  -->
<!DOCTYPE svg PUBLIC "-//W3C//DTD SVG 1.1//EN" "http://www.w3.org/Graphics/SVG/1.1/DTD/svg11.dtd">
<svg version="1.1" id="Layer_1" xmlns="http://www.w3.org/2000/svg" xmlns:xlink="http://www.w3.org/1999/xlink" x="0px" y="0px"
	 width="30px" height="30px" viewBox="0 0 30 30" enable-background="new 0 0 30 30" xml:space="preserve">
<g>
	<ellipse fill="none" stroke="#4362AE" stroke-miterlimit="10" cx="14.937" cy="14.75" rx="13.571" ry="13.375"/>
	<ellipse fill="#4362AE" cx="14.989" cy="9.506" rx="2.21" ry="2.179"/>
	<path fill="#4362AE" d="M15.403,17.235c0,0-3.26,0.523-6.332-2.621c0,0-0.926-1.015-0.108-1.82c0.68-0.672,1.902-0.159,2.284,0.106
		c0.379,0.268,2.388,1.821,4.075,1.821h-0.295c1.684,0,3.691-1.553,4.074-1.821c0.381-0.265,1.604-0.778,2.281-0.106
		c0.817,0.805-0.106,1.82-0.106,1.82c-3.073,3.145-6.332,2.621-6.332,2.621"/>
	<path fill="#4362AE" d="M15.383,7.923c0,0.275-0.176,0.499-0.394,0.499l0,0c-0.217,0-0.393-0.224-0.393-0.499V6.735
		c0-0.274,0.176-0.498,0.393-0.498l0,0c0.218,0,0.394,0.223,0.394,0.498V7.923z"/>
	<path fill="#4362AE" d="M9.15,21.515c-0.331,0.602-0.642,0.679-0.919,0.531l0,0c-0.28-0.148-0.37-0.48-0.037-1.082l5.449-9.943
		c0.331-0.602,0.824-0.968,1.104-0.82l0,0c0.279,0.149,0.235,0.757-0.094,1.358L9.15,21.515z"/>
	<path fill="#4362AE" d="M21.893,21.162c0.332,0.601,0.227,0.903-0.054,1.053l0,0c-0.283,0.15-0.615,0.044-0.946-0.558l-5.466-9.937
		c-0.33-0.602-0.368-1.211-0.084-1.361l0,0c0.282-0.15,0.777,0.216,1.107,0.816L21.893,21.162z"/>
</g>
</svg>
