<?xml version="1.0" encoding="utf-8"?>
<!-- Generator: Adobe Illustrator 16.0.0, SVG Export Plug-In . SVG Version: 6.00 Build 0)  -->
<!DOCTYPE svg PUBLIC "-//W3C//DTD SVG 1.1//EN" "http://www.w3.org/Graphics/SVG/1.1/DTD/svg11.dtd">
<svg version="1.1" id="Layer_1" xmlns="http://www.w3.org/2000/svg" xmlns:xlink="http://www.w3.org/1999/xlink" x="0px" y="0px"
	 width="30px" height="30px" viewBox="0 0 30 30" enable-background="new 0 0 30 30" xml:space="preserve">
<g>
	<ellipse fill="#D4EFFA" cx="14.97" cy="14.871" rx="13.553" ry="13.371"/>
	<path fill="#FFFFFF" d="M22.905,23.727c0,0-5.514-1.407-5.795-2.615c0,0-0.217-0.382-0.246-1.51
		c2.162-0.893,3.702-3.183,3.702-5.87c0-3.462-2.557-6.269-5.709-6.269s-5.708,2.806-5.708,6.269c0,2.537,1.372,4.719,3.344,5.707
		c-0.012,1.254-0.249,1.673-0.249,1.673c-0.281,1.208-5.792,2.616-5.792,2.616c-0.412,0.146-0.796,0.424-1.053,0.622
		c2.452,2.464,5.915,3.948,9.651,3.948c3.565,0,6.842-1.447,9.271-3.748C24.029,24.228,23.539,23.954,22.905,23.727z"/>
</g>
</svg>
