<?xml version="1.0" encoding="utf-8"?>
<!-- Generator: Adobe Illustrator 15.0.0, SVG Export Plug-In . SVG Version: 6.00 Build 0)  -->
<!DOCTYPE svg PUBLIC "-//W3C//DTD SVG 1.1//EN" "http://www.w3.org/Graphics/SVG/1.1/DTD/svg11.dtd">
<svg version="1.1" id="Capa_1" xmlns="http://www.w3.org/2000/svg" xmlns:xlink="http://www.w3.org/1999/xlink" x="0px" y="0px"
	 width="141.732px" height="141.732px" viewBox="0 0 141.732 141.732" enable-background="new 0 0 141.732 141.732"
	 xml:space="preserve">
<polygon fill="none" stroke="#3D9ED8" stroke-width="3" stroke-miterlimit="10" points="73.303,9.495 27.708,9.495 27.708,134.116 
	114.842,134.116 114.842,53.568 "/>
<polyline fill="none" stroke="#3D9ED8" stroke-width="3" stroke-miterlimit="10" points="73.303,9.495 73.303,54.076 
	114.842,54.076 "/>
<path fill="none" stroke="#3D9ED8" stroke-width="1.5" stroke-miterlimit="10" d="M26.044,585.032
	c4.054-2.963,26.234-8.785,38.026-42.328c4.641-13.176,6.442-17.304,12.007-17.423c4.325-0.096,12.652,1.773,10.053,24.536
	c-2.18,19.146-5.664,24.877-5.664,24.877s24.648-2.09,30.822-2.612c7.152-0.604,13.542,8.271,7.704,19.297
	c0,0,10.815,10.252,0.181,22.109c0,0,10.081,10.655,0,21.911c0,0,5.46,14.362-11.406,15.428
	c-16.868,1.067-39.567,2.646-66.668-6.615c-22.914-7.828-22.443-5.864-22.443-18.667c0-12.808-0.512-28.396-0.396-30.202
	C18.393,593.291,20.457,587.916,26.044,585.032z"/>
<polygon fill="none" stroke="#3D9ED8" stroke-width="1.5" stroke-miterlimit="10" points="9.16,880.393 47.529,921.873 
	133.214,833.596 116.4,815.02 45.727,885.839 26.777,862.531 "/>
</svg>
