<?xml version="1.0" encoding="utf-8"?>
<!-- Generator: Adobe Illustrator 15.0.0, SVG Export Plug-In . SVG Version: 6.00 Build 0)  -->
<!DOCTYPE svg PUBLIC "-//W3C//DTD SVG 1.1//EN" "http://www.w3.org/Graphics/SVG/1.1/DTD/svg11.dtd">
<svg version="1.1" id="Capa_1" xmlns="http://www.w3.org/2000/svg" xmlns:xlink="http://www.w3.org/1999/xlink" x="0px" y="0px"
	 width="141.732px" height="141.732px" viewBox="0 0 141.732 141.732" enable-background="new 0 0 141.732 141.732"
	 xml:space="preserve">
<path fill="none" stroke="#3D9ED8" stroke-width="3" stroke-miterlimit="10" d="M84.828,79.299c0,7.575,1.438,10.072,1.438,10.072
	c1.61,6.855,33.152,14.849,33.152,14.849c12.407,4.419,11.146,14.301,11.146,14.301v11.354H24.579H14.102V118.52
	c0,0-1.263-9.882,11.146-14.301c0,0,31.549-7.992,33.154-14.849c0,0,1.442-2.497,1.442-10.072"/>
<path fill="none" stroke="#3D9ED8" stroke-width="3" stroke-miterlimit="10" d="M105.318,45.398
	c0,19.925-14.414,36.063-32.194,36.063c-17.779,0-32.193-16.138-32.193-36.063c0-19.915,14.414-36.059,32.193-36.059
	C90.904,9.34,105.318,25.484,105.318,45.398z"/>
<path fill="none" stroke="#3D9ED8" stroke-width="3" stroke-miterlimit="10" d="M42.308,37.557c0,0,26.896,9.604,37.625-19.083
	c0,0,5.425,17.113,22.611,14.26"/>
<path fill="none" stroke="#3D9ED8" stroke-width="1.5" stroke-miterlimit="10" d="M26.044,585.032
	c4.054-2.963,26.234-8.785,38.026-42.328c4.641-13.176,6.442-17.304,12.007-17.423c4.325-0.096,12.652,1.773,10.053,24.536
	c-2.18,19.146-5.664,24.877-5.664,24.877s24.648-2.09,30.822-2.612c7.152-0.604,13.542,8.271,7.704,19.297
	c0,0,10.815,10.252,0.181,22.109c0,0,10.081,10.655,0,21.911c0,0,5.46,14.362-11.406,15.428
	c-16.868,1.067-39.567,2.646-66.668-6.615c-22.914-7.828-22.443-5.864-22.443-18.667c0-12.808-0.512-28.396-0.396-30.202
	C18.393,593.291,20.457,587.916,26.044,585.032z"/>
<polygon fill="none" stroke="#3D9ED8" stroke-width="1.5" stroke-miterlimit="10" points="9.16,880.393 47.529,921.873 
	133.214,833.596 116.4,815.02 45.727,885.839 26.777,862.531 "/>
<path fill="#70AE98" d="M1170.679-1102.829c0,17.01-13.79,30.801-30.801,30.801s-30.801-13.791-30.801-30.801
	c0-17.012,13.79-30.801,30.801-30.801S1170.679-1119.841,1170.679-1102.829z M1139.879-1119.386c-9.355,0-16.94,7.586-16.94,16.941
	s7.585,16.939,16.94,16.939c9.356,0,16.94-7.584,16.94-16.939S1149.235-1119.386,1139.879-1119.386z"/>
<path fill="#E2CFA4" d="M1092.362-1105.286c0,17.012-13.79,30.801-30.801,30.801c-17.01,0-30.801-13.789-30.801-30.801
	c0-17.01,13.791-30.801,30.801-30.801C1078.572-1136.087,1092.362-1122.296,1092.362-1105.286z M1061.561-1121.841
	c-9.355,0-16.94,7.584-16.94,16.941c0,9.355,7.585,16.939,16.94,16.939c9.356,0,16.94-7.584,16.94-16.939
	C1078.502-1114.257,1070.918-1121.841,1061.561-1121.841z"/>
<path fill="#ECC64D" d="M870.741-1105.179c0,17.012-13.79,30.801-30.801,30.801c-17.01,0-30.801-13.789-30.801-30.801
	c0-17.01,13.791-30.801,30.801-30.801C856.951-1135.98,870.741-1122.189,870.741-1105.179z M839.94-1121.734
	c-9.355,0-16.94,7.584-16.94,16.939c0,9.357,7.585,16.941,16.94,16.941s16.94-7.584,16.94-16.941
	C856.881-1114.15,849.296-1121.734,839.94-1121.734z"/>
<path fill="#9A332D" d="M945.065-1105.178c0,17.011-13.79,30.8-30.801,30.8s-30.801-13.789-30.801-30.8s13.79-30.801,30.801-30.801
	S945.065-1122.189,945.065-1105.178z M914.264-1121.734c-9.356,0-16.94,7.585-16.94,16.94c0,9.356,7.584,16.94,16.94,16.94
	s16.94-7.584,16.94-16.94C931.205-1114.149,923.621-1121.734,914.264-1121.734z"/>
<path fill="#CF7644" d="M797.572-1106.968c0,17.011-13.79,30.801-30.801,30.801s-30.801-13.79-30.801-30.801
	s13.79-30.801,30.801-30.801S797.572-1123.979,797.572-1106.968z M766.771-1123.524c-9.356,0-16.94,7.585-16.94,16.941
	c0,9.355,7.584,16.94,16.94,16.94s16.94-7.585,16.94-16.94C783.712-1115.939,776.128-1123.524,766.771-1123.524z"/>
<path fill="#D4D958" d="M1019.119-1106.23c0,17.012-13.79,30.803-30.801,30.803s-30.802-13.791-30.802-30.803
	c0-17.01,13.791-30.801,30.802-30.801S1019.119-1123.24,1019.119-1106.23z M988.318-1122.784c-9.356,0-16.94,7.584-16.94,16.941
	c0,9.355,7.584,16.939,16.94,16.939s16.94-7.584,16.94-16.939C1005.259-1115.2,997.675-1122.784,988.318-1122.784z"/>
</svg>
