<?xml version="1.0" encoding="utf-8"?>
<!-- Generator: Adobe Illustrator 15.0.0, SVG Export Plug-In . SVG Version: 6.00 Build 0)  -->
<!DOCTYPE svg PUBLIC "-//W3C//DTD SVG 1.1//EN" "http://www.w3.org/Graphics/SVG/1.1/DTD/svg11.dtd">
<svg version="1.1" id="Capa_1" xmlns="http://www.w3.org/2000/svg" xmlns:xlink="http://www.w3.org/1999/xlink" x="0px" y="0px"
	 width="141.732px" height="141.732px" viewBox="0 0 141.732 141.732" enable-background="new 0 0 141.732 141.732"
	 xml:space="preserve">
<path fill="none" stroke="#3D9ED8" stroke-width="3" stroke-miterlimit="10" d="M26.044,68.032
	c4.054-2.963,26.234-8.785,38.026-42.328C68.711,12.528,70.512,8.4,76.078,8.281c4.325-0.096,12.652,1.773,10.053,24.536
	c-2.18,19.145-5.664,24.877-5.664,24.877s24.648-2.09,30.822-2.613c7.152-0.603,13.542,8.271,7.704,19.297
	c0,0,10.815,10.252,0.181,22.11c0,0,10.081,10.655,0,21.911c0,0,5.46,14.362-11.406,15.428c-16.868,1.067-39.567,2.646-66.668-6.616
	c-22.914-7.828-22.443-5.863-22.443-18.667c0-12.807-0.512-28.396-0.396-30.202C18.393,76.291,20.457,70.916,26.044,68.032z"/>
</svg>
