<?xml version="1.0" encoding="utf-8"?>
<!-- Generator: Adobe Illustrator 16.0.0, SVG Export Plug-In . SVG Version: 6.00 Build 0)  -->
<!DOCTYPE svg PUBLIC "-//W3C//DTD SVG 1.1//EN" "http://www.w3.org/Graphics/SVG/1.1/DTD/svg11.dtd">
<svg version="1.1" id="Layer_1" xmlns="http://www.w3.org/2000/svg" xmlns:xlink="http://www.w3.org/1999/xlink" x="0px" y="0px"
	 width="30px" height="30px" viewBox="0 0 30 30" enable-background="new 0 0 30 30" xml:space="preserve">
<g>
	<ellipse fill="#F26722" cx="14.967" cy="15.042" rx="14.033" ry="14.232"/>
	<path fill="#FFFFFF" d="M17.085,19.643l1.458,2.563H14.88h0.066h-3.734l1.527-2.563C12.74,19.643,14.986,20.618,17.085,19.643z"/>
	<path fill="#FFFFFF" d="M20.724,13.409c0,3.21-2.564,5.808-5.728,5.808c-3.163,0-5.729-2.598-5.729-5.808
		c0-3.209,2.566-5.809,5.729-5.809C18.159,7.601,20.724,10.2,20.724,13.409z M14.996,11.39c-1.512,0-2.738,1.243-2.738,2.779
		c0,1.531,1.226,2.775,2.738,2.775c1.513,0,2.739-1.244,2.739-2.775C17.734,12.633,16.509,11.39,14.996,11.39z"/>
</g>
</svg>
