<?xml version="1.0" encoding="utf-8"?>
<!-- Generator: Adobe Illustrator 16.0.0, SVG Export Plug-In . SVG Version: 6.00 Build 0)  -->
<!DOCTYPE svg PUBLIC "-//W3C//DTD SVG 1.1//EN" "http://www.w3.org/Graphics/SVG/1.1/DTD/svg11.dtd">
<svg version="1.1" id="Layer_1" xmlns="http://www.w3.org/2000/svg" xmlns:xlink="http://www.w3.org/1999/xlink" x="0px" y="0px"
	 width="30px" height="30px" viewBox="0 0 30 30" enable-background="new 0 0 30 30" xml:space="preserve">
<g>
	<path fill-rule="evenodd" clip-rule="evenodd" fill="#FFFFFF" d="M15.729,15.401c0.052-0.107,0.428-0.219,0.441-0.339
		c0.01-0.089,0.398,0.268,0.473,0.235c0.363-0.166,0.727-0.332,1.087-0.5c0.182-0.083,0.265-0.069,0.423,0.101
		c1.034,1.107,2.013,2.26,2.898,3.49c0.63,0.875,1.256,1.752,1.779,2.698c0.367,0.662,0.731,1.327,1.098,1.99
		c0.027,0.048,0.058,0.096,0.089,0.143c0.134,0.179,0.255,0.223,0.407,0.146c0.214-0.109,0.305-0.279,0.208-0.483
		c-0.188-0.39-0.394-0.769-0.603-1.147c-0.949-1.72-2.083-3.317-3.289-4.864c-0.52-0.663-1.077-1.298-1.617-1.946
		c-0.086-0.104-0.174-0.211-0.247-0.325c-0.087-0.134-0.065-0.211,0.075-0.286c0.635-0.33,1.275-0.644,1.903-0.987
		c0.895-0.49,1.773-1.008,2.667-1.5c1.009-0.554,2.033-1.083,3.038-1.644c0.471-0.262,0.914-0.576,1.37-0.867
		c0.056-0.035,0.113-0.068,0.171-0.098c0.145-0.075,0.184-0.073,0.222,0.086c0.048,0.199,0.092,0.41,0.074,0.611
		c-0.038,0.456-0.115,0.906-0.174,1.36c-0.092,0.706-0.184,1.412-0.27,2.119c-0.062,0.515-0.126,1.029-0.176,1.545
		c-0.06,0.61-0.106,1.223-0.158,1.832c-0.068,0.795-0.118,1.592-0.213,2.383c-0.09,0.756-0.243,1.506-0.341,2.262
		c-0.081,0.627-0.119,1.259-0.187,1.888c-0.055,0.495-0.198,0.968-0.421,1.412c-0.164,0.33-0.363,0.401-0.719,0.322
		c-0.824-0.182-1.648-0.36-2.473-0.534c-0.539-0.111-1.078-0.236-1.624-0.307c-0.422-0.054-0.855-0.052-1.283-0.04
		c-0.529,0.017-1.055,0.08-1.583,0.098c-0.323,0.012-0.651-0.008-0.974-0.042c-0.885-0.096-1.769-0.223-2.654-0.309
		c-0.388-0.037-0.784-0.023-1.174,0c-0.885,0.055-1.769,0.15-2.654,0.189c-1.339,0.062-2.678,0.104-4.017,0.121
		c-0.602,0.009-1.206-0.079-1.809-0.096c-0.669-0.02-1.34,0.009-2.011-0.013c-0.546-0.017-1.035-0.198-1.376-0.658
		c-0.161-0.22-0.243-0.469-0.258-0.736c-0.011-0.188-0.002-0.378-0.002-0.566c-0.009-0.001-0.02-0.001-0.029-0.002
		c0.063-0.772,0.127-1.542,0.19-2.313c0.107-1.292,0.216-2.584,0.243-3.883c0.028-1.411,0.092-2.821,0.148-4.23
		c0.036-0.905,0.079-1.81,0.136-2.713c0.025-0.404,0.09-0.806,0.14-1.208C2.682,7.752,2.71,7.681,2.732,7.678
		c0.044-0.004,0.1,0.022,0.134,0.055C2.945,7.806,3.015,7.89,3.087,7.97C3.16,8.051,3.227,8.136,3.302,8.214
		c0.211,0.213,0.215,0.213,0.042,0.457C3.2,8.874,3.046,9.071,2.906,9.278c-0.102,0.15-0.093,0.263,0.01,0.373
		c0.11,0.118,0.239,0.138,0.361,0.028c0.167-0.152,0.32-0.32,0.477-0.481c0.291-0.3,0.233-0.27,0.533-0.033
		c0.052,0.04,0.102,0.084,0.146,0.133c0.061,0.069,0.062,0.142,0.001,0.217c-0.305,0.383-0.608,0.769-0.913,1.152
		c-0.088,0.11-0.189,0.211-0.267,0.329c-0.035,0.054-0.059,0.166-0.029,0.199c0.047,0.055,0.157,0.104,0.217,0.084
		c0.12-0.039,0.243-0.107,0.332-0.196c0.236-0.237,0.451-0.496,0.684-0.736c0.14-0.145,0.295-0.276,0.453-0.402
		c0.097-0.077,0.217-0.019,0.324,0.123c0.08,0.105,0.006,0.154-0.058,0.222c-0.569,0.604-1.135,1.21-1.701,1.816
		c-0.025,0.027-0.044,0.061-0.066,0.092c-0.124,0.188-0.121,0.268,0.043,0.415c0.036,0.033,0.124,0.044,0.168,0.023
		c0.079-0.037,0.148-0.099,0.211-0.162c0.434-0.434,0.862-0.873,1.296-1.305c0.14-0.139,0.291-0.268,0.449-0.386
		c0.046-0.033,0.142-0.03,0.201-0.007c0.085,0.034,0.157,0.103,0.235,0.152C6.125,11,6.118,11.073,6.03,11.157
		c-0.11,0.104-0.224,0.204-0.324,0.317c-0.336,0.382-0.668,0.768-0.999,1.155c-0.055,0.064-0.101,0.136-0.147,0.207
		c-0.053,0.083-0.097,0.168-0.002,0.253c0.093,0.085,0.197,0.14,0.318,0.062c0.075-0.047,0.143-0.107,0.204-0.172
		c0.394-0.413,0.781-0.832,1.175-1.244c0.095-0.098,0.2-0.188,0.313-0.262c0.045-0.03,0.145-0.03,0.188,0.002
		c0.149,0.106,0.289,0.227,0.418,0.355c0.03,0.029,0.033,0.129,0.006,0.165c-0.077,0.101-0.179,0.18-0.264,0.273
		c-0.387,0.42-0.771,0.841-1.155,1.264c-0.041,0.044-0.079,0.094-0.109,0.147c-0.087,0.155-0.027,0.327,0.14,0.388
		c0.037,0.014,0.096,0.002,0.129-0.02c0.097-0.065,0.193-0.136,0.276-0.217c0.445-0.429,0.886-0.861,1.326-1.295
		c0.164-0.163,0.179-0.171,0.365-0.042c0.085,0.059,0.163,0.128,0.242,0.194c0.086,0.069,0.075,0.127-0.001,0.208
		c-0.301,0.325-0.593,0.659-0.888,0.988c-0.022,0.025-0.042,0.051-0.061,0.079c-0.121,0.168-0.124,0.23-0.016,0.331
		c0.157,0.146,0.259,0.16,0.404,0.019c0.273-0.265,0.538-0.541,0.804-0.813c0.03-0.03,0.058-0.063,0.089-0.092
		c0.265-0.244,0.49-0.208,0.675,0.105c0.048,0.08,0.038,0.146-0.03,0.214c-0.159,0.161-0.309,0.332-0.468,0.493
		c-0.114,0.116-0.097,0.237-0.031,0.362c0.062,0.117,0.193,0.139,0.348,0.054c0.064-0.035,0.121-0.088,0.176-0.139
		c0.205-0.188,0.408-0.376,0.612-0.566c0.065-0.061,0.134-0.081,0.218-0.035c0.193,0.103,0.399,0.188,0.578,0.312
		c0.146,0.1,0.127,0.178-0.024,0.261c-2.259,1.22-4.127,2.909-5.798,4.834c-0.494,0.569-0.937,1.182-1.309,1.839
		c-0.112,0.198-0.158,0.391-0.031,0.599c0.133,0.22,0.364,0.264,0.523,0.067c0.128-0.157,0.214-0.352,0.299-0.537
		c0.43-0.937,1.024-1.758,1.762-2.469c1.051-1.018,2.145-1.988,3.31-2.873c0.563-0.427,1.158-0.806,1.789-1.128
		c0.157-0.081,0.292-0.088,0.447,0.004c0.274,0.164,0.562,0.304,0.834,0.471c0.069,0.042,0.294-0.092,0.317-0.01 M26.182,17.188
		c0.021,0.195,0.043,0.432,0.075,0.669c0.007,0.038,0.052,0.092,0.084,0.097c0.03,0.004,0.075-0.042,0.103-0.074
		c0.022-0.027,0.036-0.067,0.042-0.104c0.057-0.319,0.112-0.64,0.169-0.957c0.107-0.604,0.214-1.206,0.319-1.808
		c0.054-0.314,0.11-0.63,0.155-0.946c0.016-0.125,0.015-0.263-0.1-0.353c-0.153-0.122-0.32-0.075-0.482-0.014
		c-0.128,0.049-0.166,0.158-0.174,0.282C26.309,15.036,26.248,16.088,26.182,17.188z"/>
	<path fill-rule="evenodd" clip-rule="evenodd" fill="#FFFFFF" d="M12.384,14.417c-1.317-0.778-2.597-1.614-3.835-2.514
		c-1.726-1.251-3.218-2.759-4.677-4.301C3.661,7.378,3.478,7.119,3.327,6.85C3.036,6.333,3.184,5.92,3.717,5.653
		c0.334-0.167,0.694-0.25,1.061-0.274c0.663-0.044,1.328-0.06,1.903-0.083c1.269,0.079,2.446,0.147,3.622,0.226
		c0.857,0.058,1.712,0.124,2.568,0.193c0.719,0.06,1.438,0.128,2.155,0.195c0.686,0.065,1.371,0.128,2.055,0.201
		c0.536,0.056,1.071,0.122,1.603,0.192c0.762,0.102,1.522,0.207,2.282,0.319c0.521,0.077,1.042,0.168,1.562,0.256
		c0.576,0.099,1.15,0.195,1.726,0.306c1.066,0.206,2.137,0.412,3.138,0.85c0.155,0.068,0.305,0.152,0.444,0.247
		c0.145,0.099,0.14,0.169-0.01,0.262c-1.064,0.658-2.109,1.35-3.198,1.963c-1.653,0.931-3.326,1.831-5.015,2.697
		c-0.913,0.469-1.875,0.844-2.814,1.261c-0.008,0.004-0.018,0.008-0.026,0.011C14.593,15.62,12.384,14.417,12.384,14.417z
		 M19.433,7.07c-0.357-0.007-0.46,0.083-0.475,0.332c-0.013,0.229,0.062,0.294,0.334,0.33c0.935,0.12,1.869,0.241,2.802,0.372
		c0.701,0.097,1.397,0.212,2.097,0.316c0.101,0.015,0.234,0.04,0.264-0.092c0.03-0.135-0.107-0.16-0.202-0.186
		c-0.347-0.089-0.693-0.173-1.042-0.255c-0.453-0.105-0.908-0.208-1.362-0.308c-0.569-0.127-1.14-0.254-1.71-0.377
		C19.876,7.146,19.611,7.103,19.433,7.07z"/>
	<path fill-rule="evenodd" clip-rule="evenodd" d="M26.196,17.188c0.067-1.101,0.13-2.153,0.194-3.207
		c0.005-0.125,0.043-0.234,0.173-0.282c0.162-0.061,0.33-0.109,0.482,0.014c0.113,0.088,0.114,0.227,0.098,0.352
		c-0.043,0.316-0.099,0.632-0.154,0.946c-0.104,0.602-0.212,1.204-0.319,1.807c-0.056,0.318-0.109,0.639-0.167,0.958
		c-0.007,0.036-0.021,0.076-0.043,0.104c-0.027,0.032-0.072,0.078-0.102,0.074c-0.033-0.005-0.078-0.059-0.085-0.097
		C26.241,17.62,26.22,17.384,26.196,17.188z"/>
	<path fill-rule="evenodd" clip-rule="evenodd" d="M19.433,7.07c0.179,0.033,0.443,0.076,0.705,0.131
		c0.57,0.123,1.141,0.25,1.71,0.377c0.454,0.101,0.909,0.203,1.362,0.308c0.349,0.082,0.695,0.166,1.042,0.255
		c0.095,0.025,0.232,0.05,0.202,0.186c-0.029,0.132-0.163,0.106-0.264,0.092c-0.699-0.104-1.396-0.219-2.097-0.316
		c-0.933-0.131-1.867-0.251-2.802-0.372c-0.272-0.035-0.347-0.1-0.334-0.33C18.973,7.153,19.075,7.063,19.433,7.07z"/>
	<path fill-rule="evenodd" clip-rule="evenodd" d="M5.402,4.067c1.686,0.107,3.249,0.199,4.812,0.308
		c1.185,0.083,2.369,0.182,3.554,0.282c0.95,0.081,1.898,0.167,2.846,0.264c0.774,0.078,1.546,0.172,2.318,0.265
		c0.651,0.076,1.302,0.155,1.951,0.244c0.583,0.08,1.165,0.17,1.746,0.262c0.61,0.097,1.22,0.193,1.826,0.306
		c0.52,0.095,1.038,0.191,1.548,0.324c0.664,0.172,1.324,0.366,1.976,0.581c0.483,0.161,0.931,0.407,1.258,0.822
		c0.247,0.315,0.385,0.678,0.371,1.072c-0.017,0.488-0.072,0.976-0.126,1.462c-0.083,0.769-0.176,1.536-0.265,2.305
		c-0.059,0.506-0.118,1.012-0.171,1.518c-0.086,0.811-0.172,1.622-0.243,2.434c-0.045,0.508-0.047,1.019-0.094,1.526
		c-0.055,0.624-0.122,1.248-0.21,1.867c-0.146,0.994-0.284,1.987-0.358,2.99c-0.075,1.027-0.333,2.004-0.841,2.904
		c-0.055,0.099-0.125,0.189-0.197,0.275c-0.109,0.129-0.251,0.202-0.424,0.187c-0.455-0.041-0.911-0.071-1.362-0.136
		c-0.472-0.065-0.938-0.156-1.404-0.258c-0.377-0.083-0.748-0.187-1.116-0.301c-0.764-0.237-1.538-0.314-2.333-0.23
		c-0.534,0.057-1.071,0.106-1.607,0.117c-0.451,0.008-0.905-0.025-1.354-0.073c-1.414-0.149-2.824-0.264-4.25-0.166
		c-2.115,0.145-4.234,0.132-6.353,0.047c-0.666-0.024-1.328-0.021-1.992,0.068c-0.554,0.074-1.111,0.022-1.663-0.066
		c-0.458-0.074-0.903-0.185-1.311-0.414c-0.592-0.334-0.962-0.84-1.152-1.49c-0.18-0.618-0.199-1.248-0.146-1.879
		c0.063-0.755,0.179-1.507,0.254-2.263c0.126-1.238,0.242-2.477,0.268-3.724c0.017-0.795,0.109-1.59,0.139-2.386
		c0.038-1.027,0.044-2.057,0.071-3.085C1.392,9.09,1.502,8.164,1.705,7.251C1.82,6.724,1.908,6.17,2.207,5.715
		c0.394-0.596,0.845-1.164,1.504-1.5c0.17-0.087,0.376-0.133,0.568-0.142C4.694,4.053,5.109,4.067,5.402,4.067z M12.356,15.275
		c-0.272-0.166-0.56-0.307-0.834-0.47c-0.155-0.093-0.29-0.085-0.447-0.004c-0.631,0.321-1.226,0.701-1.789,1.128
		c-1.165,0.885-2.258,1.855-3.31,2.871c-0.738,0.713-1.332,1.534-1.762,2.471c-0.085,0.186-0.172,0.38-0.3,0.536
		c-0.16,0.197-0.39,0.153-0.523-0.066c-0.127-0.208-0.08-0.402,0.03-0.599c0.374-0.657,0.816-1.27,1.311-1.839
		c1.669-1.925,3.539-3.614,5.797-4.835c0.153-0.083,0.17-0.16,0.025-0.261c-0.179-0.124-0.386-0.208-0.578-0.312
		c-0.084-0.045-0.152-0.025-0.218,0.036c-0.203,0.188-0.407,0.378-0.612,0.566c-0.056,0.05-0.112,0.104-0.176,0.139
		c-0.155,0.084-0.286,0.063-0.348-0.054c-0.066-0.125-0.084-0.246,0.031-0.361c0.159-0.162,0.309-0.332,0.468-0.493
		c0.068-0.069,0.078-0.135,0.031-0.214c-0.186-0.314-0.411-0.349-0.677-0.105c-0.03,0.029-0.058,0.062-0.087,0.092
		c-0.268,0.271-0.532,0.548-0.805,0.813c-0.145,0.141-0.247,0.128-0.404-0.019c-0.108-0.101-0.105-0.164,0.016-0.331
		c0.02-0.027,0.039-0.053,0.061-0.079c0.295-0.33,0.587-0.663,0.888-0.988c0.076-0.081,0.087-0.139,0.001-0.209
		c-0.08-0.065-0.157-0.135-0.242-0.193c-0.186-0.129-0.201-0.122-0.365,0.04c-0.439,0.435-0.88,0.868-1.325,1.297
		c-0.084,0.082-0.18,0.151-0.277,0.217c-0.033,0.022-0.092,0.034-0.13,0.02c-0.167-0.061-0.228-0.232-0.139-0.387
		c0.029-0.053,0.068-0.103,0.108-0.147c0.384-0.422,0.769-0.844,1.155-1.264c0.085-0.094,0.188-0.173,0.264-0.274
		c0.027-0.035,0.024-0.135-0.005-0.164c-0.13-0.129-0.271-0.25-0.418-0.356c-0.043-0.031-0.143-0.031-0.189-0.001
		c-0.113,0.073-0.218,0.164-0.312,0.261c-0.395,0.413-0.782,0.832-1.175,1.245c-0.061,0.064-0.131,0.125-0.205,0.172
		c-0.121,0.076-0.225,0.023-0.318-0.062c-0.093-0.085-0.049-0.171,0.003-0.253c0.046-0.071,0.091-0.143,0.146-0.208
		c0.331-0.387,0.664-0.772,0.999-1.154c0.1-0.113,0.214-0.214,0.324-0.317C6.135,11.073,6.141,11,6.031,10.93
		c-0.08-0.049-0.15-0.119-0.237-0.152c-0.059-0.023-0.155-0.026-0.201,0.007c-0.158,0.117-0.31,0.248-0.449,0.386
		c-0.435,0.432-0.862,0.871-1.297,1.304c-0.062,0.063-0.131,0.126-0.21,0.163c-0.044,0.021-0.132,0.009-0.169-0.023
		c-0.164-0.147-0.167-0.228-0.042-0.416c0.021-0.031,0.041-0.064,0.066-0.091c0.566-0.606,1.132-1.212,1.701-1.816
		c0.064-0.068,0.138-0.117,0.059-0.222C5.143,9.926,5.022,9.869,4.926,9.945c-0.158,0.125-0.312,0.257-0.452,0.402
		c-0.233,0.24-0.447,0.5-0.684,0.736c-0.089,0.089-0.212,0.157-0.332,0.196c-0.06,0.02-0.169-0.03-0.216-0.085
		c-0.03-0.033-0.006-0.146,0.029-0.199c0.077-0.117,0.178-0.219,0.266-0.329c0.305-0.384,0.607-0.769,0.913-1.151
		c0.06-0.076,0.06-0.148-0.001-0.217C4.405,9.249,4.355,9.205,4.304,9.164C4.003,8.928,4.062,8.897,3.771,9.197
		c-0.158,0.162-0.31,0.33-0.478,0.481c-0.122,0.11-0.25,0.09-0.361-0.028C2.83,9.54,2.82,9.428,2.922,9.278
		c0.14-0.207,0.294-0.404,0.438-0.607C3.533,8.427,3.53,8.427,3.319,8.214C3.243,8.136,3.176,8.051,3.104,7.97
		C3.031,7.89,2.961,7.806,2.883,7.732c-0.034-0.032-0.09-0.059-0.134-0.054C2.727,7.68,2.698,7.752,2.692,7.794
		c-0.05,0.402-0.114,0.804-0.139,1.208c-0.057,0.903-0.1,1.809-0.136,2.713c-0.057,1.409-0.121,2.819-0.149,4.23
		c-0.026,1.299-0.136,2.59-0.243,3.883c-0.063,0.771-0.126,1.541-0.19,2.312c0.01,0.002,0.02,0.002,0.029,0.003
		c0,0.188-0.009,0.378,0.002,0.566c0.015,0.268,0.097,0.517,0.258,0.735c0.341,0.461,0.83,0.642,1.378,0.659
		c0.669,0.021,1.339-0.007,2.009,0.013c0.604,0.017,1.207,0.104,1.809,0.096c1.34-0.017,2.679-0.061,4.018-0.121
		c0.885-0.04,1.768-0.136,2.653-0.189c0.39-0.023,0.786-0.037,1.174,0c0.887,0.086,1.77,0.213,2.654,0.309
		c0.323,0.034,0.65,0.054,0.975,0.042c0.527-0.018,1.055-0.081,1.582-0.098c0.428-0.012,0.862-0.014,1.285,0.04
		c0.544,0.069,1.083,0.192,1.622,0.307c0.824,0.172,1.649,0.353,2.473,0.534c0.355,0.079,0.555,0.007,0.722-0.322
		c0.221-0.444,0.364-0.918,0.419-1.412c0.066-0.629,0.104-1.261,0.186-1.888c0.099-0.756,0.251-1.506,0.342-2.262
		c0.094-0.791,0.144-1.588,0.213-2.383c0.052-0.609,0.099-1.222,0.158-1.832c0.05-0.517,0.112-1.031,0.176-1.546
		c0.086-0.707,0.178-1.413,0.269-2.119c0.059-0.454,0.137-0.904,0.174-1.36c0.019-0.201-0.025-0.413-0.073-0.611
		c-0.038-0.159-0.077-0.161-0.221-0.086c-0.058,0.031-0.116,0.063-0.171,0.099c-0.458,0.291-0.9,0.604-1.372,0.867
		c-1.004,0.561-2.028,1.089-3.038,1.644c-0.893,0.492-1.772,1.009-2.666,1.499c-0.627,0.344-1.27,0.658-1.901,0.988
		c-0.142,0.074-0.164,0.152-0.078,0.286c0.074,0.114,0.163,0.22,0.249,0.325c0.539,0.649,1.097,1.282,1.616,1.947
		c1.206,1.547,2.339,3.145,3.288,4.864c0.21,0.379,0.416,0.758,0.604,1.147c0.097,0.204,0.007,0.374-0.209,0.483
		c-0.151,0.077-0.272,0.033-0.405-0.146c-0.034-0.047-0.063-0.095-0.091-0.143c-0.366-0.665-0.729-1.328-1.097-1.99
		c-0.524-0.946-1.15-1.823-1.779-2.698c-0.885-1.23-1.865-2.384-2.898-3.49c-0.158-0.169-0.242-0.184-0.423-0.101
		c-0.36,0.167-0.725,0.333-1.088,0.5C14.213,16.481,12.356,15.275,12.356,15.275z M16.772,14.476
		c0.009-0.002,0.019-0.006,0.026-0.011c0.939-0.417,1.901-0.792,2.814-1.261c1.688-0.867,3.361-1.767,5.015-2.697
		c1.089-0.613,2.134-1.305,3.198-1.963c0.149-0.093,0.154-0.164,0.01-0.262c-0.14-0.095-0.289-0.178-0.444-0.247
		c-1.001-0.438-2.071-0.644-3.138-0.85c-0.575-0.111-1.149-0.207-1.726-0.306c-0.521-0.088-1.041-0.18-1.562-0.256
		c-0.76-0.113-1.521-0.218-2.282-0.319c-0.531-0.07-1.066-0.136-1.603-0.192c-0.684-0.073-1.369-0.136-2.055-0.201
		c-0.718-0.067-1.437-0.136-2.155-0.195c-0.855-0.069-1.711-0.136-2.568-0.193C9.127,5.443,7.95,5.374,6.681,5.295
		c-0.575,0.023-1.24,0.039-1.903,0.083C4.412,5.403,4.051,5.485,3.717,5.653C3.184,5.92,3.036,6.333,3.327,6.85
		c0.151,0.269,0.334,0.529,0.545,0.752c1.459,1.542,2.951,3.049,4.677,4.301c1.238,0.9,2.519,1.736,3.835,2.514
		C12.384,14.417,14.504,15.467,16.772,14.476z"/>
</g>
</svg>
