<?xml version="1.0" encoding="utf-8"?>
<!-- Generator: Adobe Illustrator 16.0.0, SVG Export Plug-In . SVG Version: 6.00 Build 0)  -->
<!DOCTYPE svg PUBLIC "-//W3C//DTD SVG 1.1//EN" "http://www.w3.org/Graphics/SVG/1.1/DTD/svg11.dtd">
<svg version="1.1" id="Layer_1" xmlns="http://www.w3.org/2000/svg" xmlns:xlink="http://www.w3.org/1999/xlink" x="0px" y="0px"
	 width="30px" height="30px" viewBox="0 0 30 30" enable-background="new 0 0 30 30" xml:space="preserve">
<path fill-rule="evenodd" clip-rule="evenodd" d="M26.515,21.008c0.05,1.169,0.101,2.34,0.146,3.509
	c0.012,0.278-0.003,0.557,0.007,0.835c0.025,0.809-0.533,1.452-1.283,1.677c-0.914,0.274-1.853,0.38-2.8,0.459
	c-0.354,0.029-0.706,0.114-1.057,0.187c-0.57,0.119-1.138,0.256-1.711,0.375c-0.447,0.094-0.896,0.18-1.347,0.26
	c-0.486,0.087-0.977,0.158-1.465,0.245c-0.445,0.077-0.889,0.167-1.333,0.253c-0.647,0.125-1.294,0.254-1.943,0.376
	c-0.491,0.09-0.983,0.18-1.478,0.251c-0.541,0.078-1.084,0.147-1.628,0.194c-0.446,0.039-0.896,0.067-1.343,0.05
	c-0.57-0.02-1.142-0.102-1.643-0.405c-0.365-0.221-0.724-0.464-1.056-0.731c-0.759-0.613-1.502-1.247-2.25-1.874
	c-0.586-0.492-0.843-1.115-0.77-1.879c0.094-0.991,0.175-1.984,0.265-2.976c0.117-1.292,0.234-2.585,0.356-3.876
	c0.088-0.93,0.173-1.861,0.284-2.789c0.061-0.505,0.171-1.001,0.377-1.474c0.212-0.489,0.57-0.799,1.083-0.927
	c0.689-0.171,1.382-0.335,2.073-0.497c0.088-0.021,0.111-0.054,0.115-0.14c0.026-0.934,0.031-1.87,0.093-2.802
	c0.049-0.732,0.15-1.464,0.264-2.19c0.152-0.976,0.459-1.91,0.849-2.818c0.519-1.204,1.362-2.113,2.492-2.765
	c0.469-0.271,0.948-0.524,1.478-0.658c0.242-0.061,0.487-0.111,0.734-0.139c0.309-0.035,0.622-0.068,0.93-0.053
	c1.185,0.058,2.292,0.369,3.27,1.067c0.427,0.305,0.706,0.722,0.953,1.173c0.39,0.706,0.765,1.419,0.993,2.194
	c0.151,0.514,0.284,1.037,0.376,1.564c0.115,0.664,0.192,1.335,0.26,2.006c0.045,0.454,0.05,0.913,0.066,1.371
	c0.008,0.188-0.002,0.191,0.193,0.187c0.692-0.011,1.374,0.068,2.055,0.185c1.132,0.196,1.889,0.858,2.38,1.865
	c0.396,0.809,0.61,1.668,0.715,2.558c0.178,1.503,0.202,3.014,0.242,4.523c0.015,0.542,0.035,1.086,0.053,1.628
	C26.514,21.008,26.514,21.008,26.515,21.008z M22.58,26.446c-0.064-0.079-0.095-0.127-0.135-0.162
	c-0.18-0.153-0.354-0.31-0.542-0.454c-0.242-0.186-0.497-0.356-0.741-0.542c-0.127-0.098-0.146-0.221-0.071-0.333
	c0.095-0.142,0.183-0.173,0.338-0.097c0.129,0.062,0.263,0.132,0.377,0.22c0.45,0.349,0.896,0.705,1.34,1.063
	c0.188,0.152,0.388,0.246,0.636,0.199c0.121-0.024,0.247-0.026,0.361-0.062c0.091-0.027,0.167-0.093,0.25-0.142
	c-0.055-0.072-0.098-0.158-0.168-0.213c-0.431-0.337-0.868-0.663-1.299-1c-0.264-0.207-0.521-0.421-0.771-0.642
	c-0.098-0.086-0.127-0.212-0.061-0.336c0.051-0.095,0.216-0.151,0.34-0.117c0.055,0.013,0.107,0.036,0.153,0.066
	c0.095,0.063,0.188,0.128,0.271,0.202c0.6,0.534,1.199,1.069,1.791,1.609c0.054,0.049,0.086,0.145,0.089,0.221
	c0.004,0.125,0.059,0.178,0.164,0.136c0.179-0.075,0.359-0.159,0.519-0.271c0.066-0.045,0.113-0.167,0.11-0.253
	c-0.006-0.157-0.044-0.315-0.09-0.468c-0.019-0.063-0.081-0.121-0.136-0.164c-0.138-0.105-0.291-0.191-0.423-0.303
	c-0.202-0.169-0.394-0.352-0.588-0.53c-0.371-0.335-0.743-0.667-1.208-0.876c-0.08-0.036-0.155-0.092-0.22-0.151
	c-0.04-0.036-0.088-0.107-0.077-0.147c0.012-0.045,0.083-0.094,0.136-0.104c0.081-0.016,0.174-0.021,0.25,0.004
	c0.136,0.047,0.281,0.097,0.393,0.183c0.419,0.328,0.825,0.674,1.237,1.012c0.201,0.164,0.402,0.328,0.607,0.486
	c0.137,0.104,0.184,0.082,0.194-0.093c0.009-0.103,0.005-0.209-0.003-0.311c-0.015-0.208-0.045-0.413-0.052-0.621
	c-0.003-0.153-0.085-0.223-0.211-0.281c-0.114-0.052-0.223-0.119-0.324-0.193c-0.133-0.098-0.255-0.211-0.385-0.313
	c-0.304-0.246-0.613-0.486-0.915-0.734c-0.157-0.13-0.198-0.341-0.114-0.511c0.048-0.096,0.12-0.136,0.218-0.08
	c0.086,0.048,0.174,0.1,0.246,0.166c0.436,0.396,0.868,0.798,1.302,1.196c0.042,0.039,0.091,0.072,0.152,0.123
	c0.01-0.063,0.022-0.099,0.022-0.133c-0.002-0.421-0.001-0.841-0.018-1.261c-0.002-0.07-0.066-0.158-0.128-0.203
	c-0.118-0.085-0.251-0.147-0.381-0.214c-0.357-0.184-0.696-0.396-0.99-0.673c-0.069-0.064-0.136-0.132-0.1-0.246
	c0.075-0.232,0.198-0.282,0.402-0.144c0.311,0.215,0.615,0.437,0.926,0.65c0.153,0.105,0.223,0.072,0.219-0.115
	c-0.004-0.24-0.027-0.479-0.039-0.72c-0.007-0.128-0.087-0.19-0.186-0.261c-0.318-0.227-0.632-0.458-0.929-0.709
	c-0.078-0.064-0.121-0.204-0.131-0.315c-0.017-0.188,0.143-0.277,0.309-0.185c0.068,0.04,0.135,0.089,0.193,0.141
	c0.192,0.176,0.378,0.356,0.57,0.53c0.034,0.033,0.086,0.051,0.13,0.074c0.02-0.051,0.05-0.099,0.06-0.15
	c0.011-0.054,0.004-0.112,0.001-0.168c-0.019-0.477-0.034-0.953-0.062-1.429c-0.003-0.067-0.049-0.159-0.104-0.194
	c-0.165-0.104-0.349-0.183-0.52-0.282c-0.078-0.046-0.157-0.105-0.209-0.178c-0.082-0.115-0.051-0.316,0.05-0.405
	c0.119-0.105,0.229-0.034,0.334,0.032c0.084,0.051,0.16,0.115,0.245,0.166c0.108,0.066,0.169,0.037,0.168-0.091
	c-0.002-0.116-0.032-0.232-0.04-0.35c-0.02-0.278-0.113-0.482-0.423-0.543c-0.145-0.028-0.214-0.183-0.212-0.347
	c0.001-0.15,0.122-0.155,0.217-0.174c0.104-0.021,0.132-0.073,0.138-0.172c0.02-0.408-0.071-0.796-0.176-1.185
	c-0.146-0.543-0.377-1.046-0.749-1.473c-0.233-0.268-0.495-0.503-0.85-0.61c-0.5-0.152-1.015-0.204-1.532-0.251
	c-0.442-0.04-0.479-0.013-0.489,0.433c-0.01,0.354-0.006,0.708-0.012,1.062c-0.007,0.401-0.162,0.596-0.549,0.696
	c-0.54,0.14-1.076,0.105-1.602-0.069c-0.433-0.144-0.626-0.413-0.624-0.869c0.002-0.302,0.034-0.603,0.049-0.904
	c0.01-0.189-0.045-0.256-0.233-0.255c-0.246,0-0.492,0.003-0.735,0.031c-0.473,0.056-0.943,0.123-1.415,0.199
	c-0.469,0.076-0.937,0.162-1.403,0.261c-0.52,0.11-1.038,0.233-1.553,0.361c-0.39,0.097-0.773,0.212-1.16,0.314
	c-0.09,0.024-0.115,0.073-0.117,0.161c-0.014,0.387-0.046,0.773-0.05,1.16c-0.001,0.232-0.117,0.368-0.309,0.441
	c-0.548,0.208-1.113,0.323-1.703,0.272c-0.368-0.032-0.716-0.132-0.998-0.384c-0.271-0.242-0.418-0.552-0.464-0.913
	c-0.024-0.194-0.027-0.202-0.215-0.162c-0.452,0.095-0.905,0.185-1.35,0.3c-0.382,0.099-0.721,0.274-0.923,0.646
	c-0.19,0.348-0.258,0.725-0.274,1.114c-0.011,0.271,0.091,0.491,0.293,0.677c0.197,0.182,0.386,0.373,0.565,0.574
	c0.147,0.164,0.283,0.342,0.403,0.526c0.039,0.058,0.043,0.184,0.004,0.231c-0.038,0.047-0.152,0.058-0.227,0.045
	c-0.075-0.011-0.151-0.06-0.208-0.111c-0.229-0.205-0.449-0.417-0.674-0.625c-0.074-0.068-0.155-0.131-0.244-0.204
	c-0.026,0.051-0.053,0.08-0.053,0.106c0.008,0.326-0.025,0.653,0.29,0.897c0.413,0.321,0.799,0.676,1.194,1.019
	c0.053,0.046,0.104,0.099,0.138,0.158c0.062,0.111,0.066,0.235-0.025,0.329c-0.096,0.099-0.179-0.008-0.263-0.046
	c-0.013-0.006-0.026-0.013-0.036-0.021c-0.378-0.306-0.758-0.607-1.13-0.919c-0.16-0.136-0.263-0.117-0.323,0.089
	c-0.02,0.07-0.025,0.15-0.014,0.223c0.031,0.202,0.128,0.373,0.294,0.498c0.379,0.287,0.761,0.573,1.144,0.854
	c0.125,0.093,0.238,0.183,0.229,0.36c-0.005,0.108-0.046,0.155-0.151,0.114c-0.091-0.034-0.184-0.071-0.269-0.122
	c-0.407-0.234-0.811-0.478-1.219-0.712c-0.132-0.077-0.191-0.041-0.234,0.105c-0.102,0.351-0.053,0.651,0.26,0.879
	c0.069,0.049,0.126,0.116,0.196,0.162c0.28,0.189,0.566,0.372,0.844,0.566c0.109,0.077,0.21,0.173,0.3,0.272
	c0.03,0.035,0.036,0.128,0.011,0.164c-0.027,0.038-0.106,0.062-0.16,0.058c-0.072-0.008-0.148-0.037-0.209-0.077
	c-0.317-0.202-0.631-0.411-0.946-0.618c-0.295-0.195-0.315-0.192-0.392,0.151C4.942,20.94,4.855,21.16,5.037,21.34
	c0.15,0.151,0.313,0.295,0.487,0.42c0.156,0.111,0.342,0.18,0.502,0.285c0.346,0.229,0.687,0.464,1.025,0.704
	c0.141,0.099,0.147,0.21,0.04,0.368c-0.088,0.131-0.183,0.054-0.269,0.003c-0.239-0.142-0.471-0.295-0.712-0.432
	c-0.333-0.192-0.673-0.378-1.012-0.562c-0.077-0.042-0.157-0.073-0.212,0.039c-0.092,0.191-0.024,0.452,0.156,0.559
	c0.507,0.295,1.02,0.585,1.524,0.89c0.072,0.044,0.126,0.146,0.151,0.231c0.02,0.067-0.021,0.149-0.035,0.226
	c-0.072-0.021-0.157-0.026-0.216-0.067C6.05,23.712,5.584,23.52,5.12,23.327c-0.27-0.112-0.351-0.056-0.316,0.232
	c0.039,0.317,0.14,0.59,0.462,0.757c0.438,0.224,0.855,0.491,1.282,0.74c0.258,0.149,0.291,0.384,0.077,0.612
	c-0.114-0.069-0.233-0.134-0.346-0.21c-0.427-0.285-0.852-0.572-1.278-0.858c-0.13-0.087-0.168-0.066-0.211,0.084
	c-0.05,0.174,0.001,0.308,0.146,0.404c0.18,0.122,0.363,0.239,0.547,0.352c0.382,0.234,0.707,0.532,0.995,0.873
	c0.082,0.097,0.104,0.191,0.015,0.304c-0.085,0.107-0.174,0.136-0.293,0.065c-0.022-0.014-0.048-0.021-0.072-0.033
	c0.095,0.127,0.204,0.231,0.316,0.335c0.402,0.37,0.796,0.752,1.288,1.007c1.15,0.598,2.375,0.727,3.644,0.596
	c0.121-0.013,0.142-0.058,0.057-0.153c-0.137-0.154-0.292-0.294-0.434-0.444c-0.081-0.086-0.167-0.17-0.226-0.269
	c-0.082-0.136-0.015-0.268,0.139-0.301c0.202-0.041,0.377-0.005,0.529,0.152c0.184,0.188,0.389,0.355,0.579,0.539
	c0.194,0.187,0.417,0.267,0.683,0.215c0.244-0.048,0.49-0.089,0.729-0.154c0.123-0.034,0.13-0.109,0.032-0.197
	c-0.086-0.078-0.184-0.146-0.283-0.209c-0.179-0.113-0.366-0.214-0.542-0.329c-0.145-0.098-0.157-0.262-0.043-0.424
	c0.098-0.14,0.185-0.151,0.346-0.048c0.06,0.041,0.117,0.08,0.171,0.125c0.312,0.26,0.625,0.518,0.934,0.78
	c0.127,0.107,0.263,0.133,0.422,0.093c0.151-0.037,0.305-0.06,0.458-0.092c0.158-0.034,0.314-0.069,0.472-0.105
	c0.003-0.018,0.008-0.036,0.012-0.054c-0.079-0.061-0.153-0.128-0.238-0.18c-0.228-0.142-0.462-0.271-0.688-0.416
	c-0.148-0.096-0.17-0.209-0.088-0.336c0.097-0.15,0.253-0.212,0.387-0.125c0.455,0.294,0.901,0.6,1.354,0.895
	c0.051,0.034,0.121,0.064,0.177,0.057c0.276-0.038,0.549-0.085,0.821-0.14c0.097-0.019,0.19-0.055,0.279-0.094
	c0.079-0.037,0.085-0.104,0.019-0.158c-0.087-0.069-0.181-0.134-0.276-0.194c-0.191-0.119-0.393-0.224-0.574-0.355
	c-0.136-0.101-0.146-0.213-0.066-0.316c0.105-0.136,0.25-0.166,0.384-0.07c0.159,0.115,0.322,0.231,0.47,0.364
	c0.161,0.143,0.319,0.3,0.361,0.525c0.027,0.142,0.108,0.193,0.245,0.201c0.377,0.024,0.741-0.058,1.104-0.147
	c0.1-0.024,0.199-0.063,0.336-0.106c-0.08-0.069-0.128-0.111-0.177-0.153c-0.197-0.166-0.404-0.323-0.59-0.503
	c-0.091-0.088-0.158-0.211-0.208-0.33c-0.059-0.148,0.032-0.284,0.19-0.287c0.085-0.001,0.192,0.032,0.252,0.089
	c0.285,0.274,0.562,0.559,0.834,0.845c0.127,0.132,0.271,0.187,0.448,0.149c0.164-0.038,0.327-0.08,0.49-0.128
	c0.081-0.025,0.159-0.069,0.237-0.106c-0.061-0.06-0.114-0.128-0.182-0.178c-0.267-0.193-0.541-0.379-0.808-0.572
	c-0.114-0.082-0.111-0.145-0.01-0.239c0.115-0.105,0.297-0.145,0.432-0.051c0.394,0.266,0.775,0.551,1.165,0.822
	c0.06,0.043,0.14,0.082,0.209,0.079c0.197-0.01,0.394-0.04,0.59-0.065C22.372,26.478,22.454,26.465,22.58,26.446z M11.469,9.066
	c0.068,0.901,0.129,1.714,0.188,2.528c0.018,0.259,0.074,0.318,0.337,0.323c0.043,0,0.087,0.003,0.127-0.007
	c0.295-0.074,0.592-0.146,0.885-0.231c0.9-0.262,1.806-0.495,2.733-0.645c0.848-0.138,1.698-0.261,2.559-0.243
	c0.138,0.003,0.19-0.053,0.185-0.184c-0.008-0.183-0.021-0.367-0.019-0.551c0.009-0.827-0.014-1.649-0.174-2.465
	c-0.146-0.737-0.397-1.424-0.872-2.014c-0.601-0.742-1.366-1.153-2.336-1.087c-0.642,0.044-1.247,0.245-1.803,0.57
	c-0.97,0.568-1.559,1.413-1.721,2.523C11.483,8.1,11.493,8.628,11.469,9.066z M20.652,12.425c-0.024-0.005-0.051-0.011-0.077-0.017
	c-0.485-0.102-0.599-0.251-0.593-0.643c0.01-0.651,0.003-1.301-0.104-1.947c-0.111-0.674-0.195-1.353-0.31-2.026
	c-0.092-0.539-0.209-1.073-0.317-1.608c-0.133-0.651-0.274-1.299-0.518-1.92c-0.267-0.683-0.636-1.294-1.234-1.74
	c-0.554-0.413-1.175-0.664-1.856-0.775c-0.599-0.098-1.196-0.09-1.787,0.025c-0.687,0.134-1.317,0.42-1.905,0.792
	c-0.542,0.343-1.037,0.745-1.378,1.298c-0.434,0.707-0.654,1.499-0.836,2.298c-0.13,0.572-0.228,1.155-0.307,1.739
	c-0.088,0.654-0.16,1.312-0.201,1.97c-0.068,1.102-0.106,2.206-0.158,3.309c-0.021,0.436,0.271,0.789,0.694,0.768
	c0.367-0.018,0.734-0.04,1.101-0.066c0.164-0.012,0.255-0.089,0.277-0.252c0.025-0.186,0.053-0.377,0.036-0.562
	c-0.059-0.6-0.14-1.198-0.21-1.797c-0.127-1.084-0.181-2.172-0.16-3.264c0.01-0.527,0.079-1.044,0.289-1.531
	c0.424-0.983,1.126-1.709,2.085-2.177c0.413-0.201,0.866-0.287,1.32-0.351c0.5-0.069,1.001-0.083,1.49,0.037
	c1.069,0.261,1.867,0.891,2.352,1.874c0.456,0.921,0.687,1.912,0.768,2.935c0.061,0.751,0.011,1.5-0.067,2.247
	c-0.028,0.258-0.069,0.514-0.085,0.773c-0.019,0.296-0.024,0.599,0.112,0.874c0.037,0.074,0.128,0.161,0.201,0.169
	c0.327,0.035,0.657,0.043,0.985,0.063C20.479,12.929,20.681,12.676,20.652,12.425z"/>
<path fill-rule="evenodd" clip-rule="evenodd" fill="#FFFFFF" d="M22.58,26.446c-0.126,0.019-0.208,0.031-0.29,0.04
	c-0.196,0.025-0.393,0.056-0.59,0.065c-0.069,0.003-0.149-0.036-0.209-0.079c-0.39-0.271-0.771-0.557-1.165-0.822
	c-0.135-0.094-0.316-0.055-0.432,0.051c-0.102,0.095-0.104,0.157,0.01,0.239c0.267,0.193,0.541,0.379,0.808,0.572
	c0.067,0.05,0.121,0.118,0.182,0.178c-0.078,0.037-0.156,0.081-0.237,0.106c-0.163,0.048-0.326,0.09-0.49,0.128
	c-0.177,0.037-0.321-0.018-0.448-0.149c-0.272-0.286-0.549-0.57-0.834-0.845c-0.06-0.057-0.167-0.09-0.252-0.089
	c-0.158,0.003-0.249,0.139-0.19,0.287c0.05,0.119,0.117,0.242,0.208,0.33c0.186,0.18,0.393,0.337,0.59,0.503
	c0.049,0.042,0.097,0.084,0.177,0.153c-0.137,0.043-0.236,0.082-0.336,0.106c-0.362,0.09-0.727,0.172-1.104,0.147
	c-0.137-0.008-0.218-0.06-0.245-0.201c-0.042-0.226-0.2-0.383-0.361-0.525c-0.147-0.133-0.311-0.249-0.47-0.364
	c-0.134-0.096-0.278-0.065-0.384,0.07c-0.079,0.104-0.069,0.216,0.066,0.316c0.182,0.132,0.383,0.236,0.574,0.355
	c0.096,0.061,0.189,0.125,0.276,0.194c0.066,0.054,0.061,0.121-0.019,0.158c-0.089,0.039-0.183,0.075-0.279,0.094
	c-0.272,0.055-0.545,0.102-0.821,0.14c-0.056,0.008-0.126-0.022-0.177-0.057c-0.453-0.295-0.899-0.601-1.354-0.895
	c-0.134-0.087-0.29-0.025-0.387,0.125c-0.082,0.127-0.06,0.24,0.088,0.336c0.226,0.145,0.461,0.274,0.688,0.416
	c0.084,0.052,0.159,0.119,0.238,0.18c-0.004,0.018-0.009,0.036-0.012,0.054c-0.158,0.036-0.314,0.071-0.472,0.105
	c-0.152,0.032-0.307,0.055-0.458,0.092c-0.159,0.04-0.294,0.015-0.422-0.093c-0.309-0.263-0.622-0.521-0.934-0.78
	c-0.054-0.045-0.112-0.084-0.171-0.125c-0.162-0.104-0.248-0.092-0.346,0.048c-0.114,0.162-0.102,0.326,0.043,0.424
	c0.176,0.115,0.364,0.216,0.542,0.329c0.099,0.063,0.197,0.131,0.283,0.209c0.098,0.088,0.091,0.163-0.032,0.197
	c-0.239,0.065-0.486,0.106-0.729,0.154c-0.266,0.052-0.489-0.028-0.683-0.215c-0.189-0.184-0.395-0.351-0.579-0.539
	c-0.152-0.157-0.327-0.193-0.529-0.152c-0.154,0.033-0.221,0.165-0.139,0.301c0.06,0.099,0.145,0.183,0.226,0.269
	c0.142,0.15,0.296,0.29,0.434,0.444c0.085,0.096,0.064,0.141-0.057,0.153c-1.268,0.131-2.494,0.002-3.644-0.596
	c-0.492-0.255-0.886-0.637-1.288-1.007c-0.112-0.104-0.222-0.208-0.316-0.335c0.024,0.012,0.05,0.02,0.072,0.033
	c0.119,0.07,0.208,0.042,0.293-0.065c0.089-0.112,0.067-0.207-0.015-0.304c-0.289-0.341-0.613-0.639-0.995-0.873
	c-0.185-0.112-0.367-0.229-0.547-0.352c-0.145-0.097-0.196-0.23-0.146-0.404c0.043-0.15,0.081-0.171,0.211-0.084
	c0.426,0.286,0.851,0.573,1.278,0.858c0.113,0.076,0.232,0.141,0.346,0.21c0.214-0.229,0.181-0.463-0.077-0.612
	c-0.427-0.249-0.844-0.517-1.282-0.74c-0.323-0.167-0.423-0.439-0.462-0.757c-0.035-0.288,0.047-0.345,0.316-0.232
	c0.464,0.192,0.93,0.385,1.346,0.677c0.059,0.041,0.144,0.046,0.216,0.067c0.014-0.076,0.054-0.158,0.035-0.226
	c-0.024-0.086-0.079-0.188-0.151-0.231c-0.504-0.305-1.017-0.595-1.524-0.89c-0.18-0.106-0.248-0.367-0.156-0.559
	c0.055-0.112,0.136-0.081,0.212-0.039c0.339,0.184,0.679,0.369,1.012,0.562c0.241,0.137,0.473,0.29,0.712,0.432
	c0.085,0.051,0.181,0.128,0.269-0.003c0.107-0.158,0.101-0.27-0.04-0.368c-0.338-0.24-0.679-0.476-1.025-0.704
	c-0.161-0.105-0.347-0.174-0.502-0.285c-0.174-0.125-0.337-0.269-0.487-0.42c-0.182-0.18-0.094-0.399-0.049-0.601
	c0.077-0.344,0.097-0.347,0.392-0.151c0.314,0.207,0.628,0.416,0.946,0.618c0.062,0.04,0.138,0.069,0.209,0.077
	c0.053,0.005,0.132-0.02,0.16-0.058c0.025-0.036,0.019-0.129-0.011-0.164c-0.09-0.1-0.191-0.195-0.3-0.272
	c-0.278-0.194-0.564-0.377-0.844-0.566c-0.07-0.046-0.127-0.113-0.196-0.162c-0.312-0.228-0.362-0.528-0.26-0.879
	c0.043-0.146,0.102-0.183,0.234-0.105c0.408,0.234,0.812,0.478,1.219,0.712c0.085,0.051,0.178,0.088,0.269,0.122
	c0.105,0.041,0.146-0.006,0.151-0.114c0.009-0.178-0.104-0.268-0.229-0.36c-0.383-0.281-0.765-0.567-1.144-0.854
	c-0.166-0.125-0.263-0.296-0.294-0.498c-0.011-0.072-0.006-0.152,0.014-0.223c0.06-0.206,0.163-0.225,0.323-0.089
	c0.373,0.312,0.752,0.613,1.13,0.919c0.01,0.009,0.023,0.016,0.036,0.021c0.084,0.038,0.167,0.145,0.263,0.046
	c0.091-0.094,0.086-0.218,0.025-0.329c-0.033-0.06-0.084-0.112-0.138-0.158c-0.396-0.343-0.782-0.697-1.194-1.019
	c-0.315-0.244-0.281-0.571-0.29-0.897c0-0.026,0.027-0.056,0.053-0.106c0.089,0.073,0.17,0.136,0.244,0.204
	c0.225,0.208,0.445,0.42,0.674,0.625c0.058,0.052,0.134,0.101,0.208,0.111c0.075,0.013,0.189,0.002,0.227-0.045
	c0.039-0.048,0.034-0.174-0.004-0.231c-0.12-0.185-0.255-0.362-0.403-0.526c-0.179-0.201-0.368-0.392-0.565-0.574
	c-0.202-0.186-0.304-0.405-0.293-0.677c0.016-0.389,0.084-0.766,0.274-1.114c0.202-0.371,0.541-0.546,0.923-0.646
	c0.445-0.115,0.898-0.205,1.35-0.3c0.188-0.04,0.191-0.033,0.215,0.162c0.045,0.36,0.192,0.67,0.464,0.913
	c0.282,0.252,0.63,0.353,0.998,0.384c0.589,0.05,1.155-0.064,1.703-0.272c0.191-0.073,0.307-0.209,0.309-0.441
	c0.004-0.387,0.036-0.773,0.05-1.16c0.002-0.088,0.026-0.137,0.117-0.161c0.387-0.103,0.77-0.218,1.16-0.314
	c0.515-0.128,1.033-0.251,1.553-0.361c0.466-0.099,0.934-0.185,1.403-0.261c0.472-0.076,0.942-0.143,1.415-0.199
	c0.243-0.028,0.489-0.031,0.735-0.031c0.188,0,0.243,0.066,0.233,0.255c-0.015,0.301-0.047,0.602-0.049,0.904
	c-0.002,0.456,0.191,0.725,0.624,0.869c0.525,0.174,1.062,0.209,1.602,0.069c0.387-0.1,0.542-0.295,0.549-0.696
	c0.006-0.354,0.002-0.708,0.012-1.062c0.011-0.446,0.047-0.473,0.489-0.433c0.518,0.047,1.032,0.099,1.532,0.251
	c0.354,0.107,0.616,0.343,0.85,0.61c0.372,0.426,0.603,0.929,0.749,1.473c0.104,0.388,0.195,0.777,0.176,1.185
	c-0.006,0.1-0.033,0.151-0.138,0.172c-0.095,0.019-0.216,0.024-0.217,0.174c-0.002,0.164,0.067,0.319,0.212,0.347
	c0.31,0.062,0.403,0.265,0.423,0.543c0.008,0.118,0.038,0.234,0.04,0.35c0.001,0.128-0.06,0.157-0.168,0.091
	c-0.085-0.051-0.161-0.115-0.245-0.166c-0.104-0.066-0.215-0.138-0.334-0.032c-0.101,0.089-0.132,0.29-0.05,0.405
	c0.052,0.072,0.131,0.132,0.209,0.178c0.171,0.1,0.354,0.178,0.52,0.282c0.055,0.035,0.101,0.127,0.104,0.194
	c0.028,0.476,0.044,0.952,0.062,1.429c0.003,0.056,0.01,0.114-0.001,0.168c-0.01,0.052-0.04,0.1-0.06,0.15
	c-0.044-0.023-0.096-0.041-0.13-0.074c-0.192-0.174-0.378-0.354-0.57-0.53c-0.059-0.052-0.125-0.101-0.193-0.141
	c-0.166-0.093-0.325-0.004-0.309,0.185c0.01,0.111,0.053,0.251,0.131,0.315c0.297,0.251,0.61,0.482,0.929,0.709
	c0.099,0.07,0.179,0.133,0.186,0.261c0.012,0.24,0.035,0.479,0.039,0.72c0.004,0.188-0.065,0.221-0.219,0.115
	c-0.311-0.214-0.615-0.436-0.926-0.65c-0.204-0.139-0.327-0.089-0.402,0.144c-0.036,0.114,0.03,0.182,0.1,0.246
	c0.294,0.276,0.633,0.489,0.99,0.673c0.13,0.066,0.263,0.129,0.381,0.214c0.062,0.045,0.126,0.133,0.128,0.203
	c0.017,0.42,0.016,0.84,0.018,1.261c0,0.034-0.013,0.069-0.022,0.133c-0.062-0.051-0.11-0.084-0.152-0.123
	c-0.434-0.398-0.866-0.8-1.302-1.196c-0.072-0.066-0.16-0.118-0.246-0.166c-0.098-0.056-0.17-0.016-0.218,0.08
	c-0.084,0.17-0.043,0.381,0.114,0.511c0.302,0.248,0.611,0.488,0.915,0.734c0.13,0.103,0.252,0.216,0.385,0.313
	c0.102,0.074,0.21,0.142,0.324,0.193c0.126,0.059,0.208,0.128,0.211,0.281c0.007,0.208,0.037,0.413,0.052,0.621
	c0.008,0.102,0.012,0.208,0.003,0.311c-0.011,0.175-0.058,0.196-0.194,0.093c-0.205-0.158-0.406-0.322-0.607-0.486
	c-0.412-0.338-0.818-0.684-1.237-1.012c-0.111-0.086-0.257-0.136-0.393-0.183c-0.076-0.024-0.169-0.02-0.25-0.004
	c-0.053,0.011-0.124,0.06-0.136,0.104c-0.011,0.04,0.037,0.111,0.077,0.147c0.064,0.06,0.14,0.115,0.22,0.151
	c0.465,0.209,0.837,0.541,1.208,0.876c0.194,0.179,0.386,0.361,0.588,0.53c0.132,0.111,0.285,0.197,0.423,0.303
	c0.055,0.043,0.117,0.101,0.136,0.164c0.046,0.152,0.084,0.311,0.09,0.468c0.003,0.086-0.044,0.208-0.11,0.253
	c-0.159,0.111-0.34,0.195-0.519,0.271c-0.105,0.042-0.16-0.011-0.164-0.136c-0.003-0.076-0.035-0.172-0.089-0.221
	c-0.592-0.54-1.191-1.075-1.791-1.609c-0.084-0.074-0.177-0.139-0.271-0.202c-0.046-0.03-0.099-0.054-0.153-0.066
	c-0.124-0.034-0.289,0.022-0.34,0.117c-0.066,0.124-0.037,0.25,0.061,0.336c0.251,0.221,0.508,0.435,0.771,0.642
	c0.431,0.337,0.868,0.663,1.299,1c0.07,0.055,0.113,0.141,0.168,0.213c-0.083,0.049-0.159,0.114-0.25,0.142
	c-0.114,0.036-0.24,0.038-0.361,0.062c-0.248,0.047-0.447-0.047-0.636-0.199c-0.444-0.358-0.89-0.715-1.34-1.063
	c-0.114-0.088-0.248-0.157-0.377-0.22c-0.155-0.076-0.243-0.045-0.338,0.097c-0.074,0.112-0.056,0.235,0.071,0.333
	c0.244,0.186,0.499,0.356,0.741,0.542c0.188,0.145,0.362,0.301,0.542,0.454C22.485,26.319,22.516,26.367,22.58,26.446z
	 M15.55,24.362c0.004,0.001,0.009,0.002,0.014,0.003c0,0.052-0.001,0.103,0,0.155c0.011,0.379,0.173,0.619,0.542,0.714
	c0.211,0.055,0.438,0.072,0.657,0.062c0.68-0.029,1.351-0.122,2.007-0.312c0.473-0.14,0.617-0.357,0.519-0.856
	C19.21,23.745,19.12,23.363,19,22.992c-0.335-1.027-0.69-2.051-1.039-3.074c-0.025-0.075-0.027-0.13,0.052-0.179
	c0.62-0.379,0.723-1.315,0.336-1.869c-0.433-0.617-1.366-1.001-2.256-0.561c-0.395,0.196-0.683,0.49-0.782,0.928
	c-0.081,0.356-0.049,0.713,0.061,1.062c0.089,0.28,0.224,0.533,0.479,0.695c0.087,0.057,0.118,0.114,0.111,0.217
	c-0.044,0.55-0.079,1.102-0.128,1.65c-0.041,0.466-0.098,0.929-0.151,1.393C15.641,23.624,15.595,23.994,15.55,24.362z
	 M8.807,24.632c-0.011,0-0.022,0-0.034,0.001c-0.011,0.226-0.025,0.452-0.031,0.679c-0.016,0.522-0.035,1.048-0.037,1.571
	c-0.001,0.251,0.173,0.379,0.422,0.343c0.162-0.022,0.211-0.072,0.217-0.238c0.026-0.727,0.058-1.452,0.075-2.18
	c0.035-1.529,0.023-3.057-0.136-4.582c-0.085-0.815-0.153-1.634-0.217-2.451c-0.036-0.448-0.052-0.896-0.068-1.344
	c-0.006-0.196,0.017-0.211,0.207-0.219c0.532-0.023,1.066-0.038,1.598-0.069c0.282-0.017,0.563-0.056,0.844-0.094
	c0.555-0.076,1.109-0.165,1.664-0.237c0.683-0.089,1.369-0.153,2.051-0.25c0.783-0.111,1.564-0.249,2.345-0.371
	c0.914-0.141,1.827-0.286,2.742-0.412c0.737-0.102,1.478-0.181,2.218-0.264c0.242-0.027,0.243-0.018,0.298-0.249
	c0.067-0.284-0.059-0.435-0.349-0.399c-0.261,0.033-0.521,0.077-0.78,0.124c-0.58,0.104-1.158,0.216-1.738,0.318
	c-0.39,0.069-0.78,0.133-1.173,0.191c-0.597,0.088-1.194,0.167-1.792,0.254c-0.573,0.083-1.147,0.173-1.721,0.255
	c-0.639,0.092-1.278,0.183-1.919,0.267c-0.523,0.069-1.047,0.137-1.573,0.188c-0.859,0.081-1.719,0.159-2.58,0.216
	c-0.298,0.02-0.601-0.008-0.897-0.046c-0.193-0.025-0.379-0.107-0.567-0.169c-0.424-0.141-0.855-0.268-1.202-0.573
	c-0.133-0.116-0.28-0.09-0.425-0.029c-0.168,0.072-0.219,0.225-0.101,0.365c0.099,0.115,0.218,0.232,0.354,0.291
	c0.314,0.134,0.647,0.227,0.969,0.347c0.517,0.196,0.807,0.423,0.842,0.999c0.044,0.72,0.129,1.438,0.189,2.157
	c0.071,0.832,0.154,1.663,0.197,2.497C8.752,22.556,8.771,23.594,8.807,24.632z"/>
<path fill-rule="evenodd" clip-rule="evenodd" fill="#FFFFFF" d="M20.652,12.425c0.028,0.251-0.174,0.504-0.396,0.492
	c-0.328-0.02-0.658-0.028-0.985-0.063c-0.073-0.008-0.164-0.095-0.201-0.169c-0.137-0.275-0.131-0.577-0.112-0.874
	c0.016-0.259,0.057-0.515,0.085-0.773c0.078-0.748,0.128-1.496,0.067-2.247c-0.081-1.023-0.312-2.014-0.768-2.935
	c-0.484-0.983-1.282-1.612-2.352-1.874C15.501,3.863,15,3.877,14.5,3.946c-0.454,0.063-0.907,0.15-1.32,0.351
	c-0.959,0.467-1.661,1.194-2.085,2.177c-0.209,0.487-0.278,1.004-0.289,1.531c-0.021,1.092,0.032,2.18,0.16,3.264
	c0.07,0.599,0.151,1.197,0.21,1.797c0.018,0.185-0.01,0.377-0.036,0.562c-0.022,0.164-0.113,0.24-0.277,0.252
	c-0.367,0.026-0.734,0.048-1.101,0.066c-0.424,0.021-0.715-0.332-0.694-0.768c0.052-1.103,0.09-2.207,0.158-3.309
	c0.041-0.658,0.113-1.316,0.201-1.97c0.079-0.584,0.177-1.167,0.307-1.739c0.182-0.799,0.403-1.591,0.836-2.298
	c0.341-0.553,0.835-0.956,1.378-1.298c0.588-0.373,1.218-0.659,1.905-0.792c0.591-0.115,1.188-0.123,1.787-0.025
	c0.682,0.111,1.303,0.362,1.856,0.775c0.599,0.445,0.968,1.057,1.234,1.74c0.243,0.621,0.385,1.269,0.518,1.92
	c0.108,0.536,0.226,1.069,0.317,1.608c0.114,0.674,0.198,1.353,0.31,2.026c0.107,0.646,0.114,1.296,0.104,1.947
	c-0.006,0.392,0.107,0.542,0.593,0.643C20.602,12.414,20.628,12.42,20.652,12.425z"/>
<path fill-rule="evenodd" clip-rule="evenodd" d="M15.55,24.362c0.045-0.368,0.091-0.738,0.133-1.108
	c0.053-0.464,0.11-0.927,0.151-1.393c0.049-0.549,0.083-1.101,0.128-1.65c0.007-0.103-0.023-0.16-0.111-0.217
	c-0.254-0.162-0.39-0.415-0.479-0.695c-0.11-0.349-0.142-0.705-0.061-1.062c0.099-0.438,0.387-0.731,0.782-0.928
	c0.89-0.44,1.823-0.057,2.256,0.561c0.387,0.554,0.284,1.49-0.336,1.869c-0.079,0.049-0.077,0.104-0.052,0.179
	c0.349,1.023,0.704,2.047,1.039,3.074c0.12,0.371,0.21,0.753,0.288,1.135c0.099,0.499-0.046,0.717-0.519,0.856
	c-0.656,0.19-1.327,0.283-2.007,0.312c-0.22,0.011-0.446-0.007-0.657-0.062c-0.369-0.095-0.531-0.335-0.542-0.714
	c-0.001-0.053,0-0.104,0-0.155C15.559,24.364,15.554,24.363,15.55,24.362z M17.037,18.899c0.025-0.003,0.073-0.005,0.118-0.011
	c0.07-0.008,0.142-0.013,0.21-0.027c0.18-0.037,0.243-0.162,0.148-0.321c-0.06-0.099-0.148-0.179-0.229-0.261
	c-0.065-0.067-0.138-0.056-0.192,0.021c-0.08,0.114-0.166,0.227-0.233,0.35C16.747,18.851,16.784,18.903,17.037,18.899z"/>
<path fill-rule="evenodd" clip-rule="evenodd" d="M8.807,24.632c-0.035-1.038-0.054-2.076-0.108-3.112
	c-0.043-0.834-0.126-1.665-0.197-2.497c-0.061-0.719-0.146-1.438-0.189-2.157c-0.035-0.575-0.326-0.803-0.842-0.999
	c-0.322-0.121-0.654-0.213-0.969-0.347c-0.136-0.059-0.255-0.176-0.354-0.291c-0.119-0.14-0.068-0.293,0.101-0.365
	c0.145-0.062,0.292-0.087,0.425,0.029c0.347,0.305,0.778,0.432,1.202,0.573c0.188,0.062,0.374,0.144,0.567,0.169
	c0.297,0.039,0.6,0.066,0.897,0.046c0.861-0.058,1.721-0.135,2.58-0.216c0.526-0.051,1.05-0.119,1.573-0.188
	c0.641-0.084,1.28-0.175,1.919-0.267c0.574-0.082,1.148-0.173,1.721-0.255c0.598-0.087,1.195-0.166,1.792-0.254
	c0.393-0.058,0.783-0.122,1.173-0.191c0.58-0.102,1.158-0.214,1.738-0.318c0.26-0.047,0.52-0.091,0.78-0.124
	c0.29-0.036,0.416,0.115,0.349,0.399c-0.055,0.23-0.056,0.222-0.298,0.249c-0.74,0.083-1.48,0.162-2.218,0.264
	c-0.915,0.126-1.828,0.271-2.742,0.412c-0.781,0.122-1.562,0.26-2.345,0.371c-0.682,0.096-1.368,0.161-2.051,0.25
	c-0.555,0.072-1.109,0.161-1.664,0.237c-0.281,0.038-0.562,0.077-0.844,0.094c-0.532,0.031-1.066,0.046-1.598,0.069
	c-0.19,0.008-0.213,0.022-0.207,0.219c0.017,0.448,0.032,0.896,0.068,1.344c0.064,0.817,0.132,1.636,0.217,2.451
	c0.159,1.525,0.171,3.053,0.136,4.582c-0.017,0.728-0.048,1.453-0.075,2.18c-0.006,0.166-0.055,0.216-0.217,0.238
	c-0.249,0.036-0.424-0.092-0.422-0.343c0.002-0.523,0.021-1.049,0.037-1.571c0.006-0.227,0.021-0.453,0.031-0.679
	C8.784,24.632,8.795,24.632,8.807,24.632z"/>
<path fill-rule="evenodd" clip-rule="evenodd" fill="#FFFFFF" d="M17.415,20.255c0.105,0.254,0.348,1.06,0.444,1.317
	c0.209,0.558,0.494,2.051,0.695,2.611c0.057,0.153-0.018,0.387-0.173,0.434c-0.108,0.033-1.187,0.122-1.299,0.137
	c-0.122,0.017-0.798-0.079-0.823-0.188c-0.029-0.118,0.139-1.116,0.126-1.238c-0.065-0.602,0.062-1.059,0.001-1.661
	c-0.017-0.158,0.102-1.171,0.096-1.33C16.499,20.333,17.521,20.255,17.415,20.255z"/>
<path fill-rule="evenodd" clip-rule="evenodd" fill="#FFFFFF" d="M16.691,19.408c-0.572,0.011-0.917-0.296-0.891-0.816
	c0.018-0.324,0.087-0.633,0.408-0.781c0.292-0.121,1.006-0.203,1.155-0.051c0.277,0.069,0.393,0.136,0.523,0.355
	c0.217,0.361-0.046,1.124-0.45,1.206c-0.156,0.032-0.316,0.044-0.475,0.063C16.856,19.397,16.749,19.403,16.691,19.408z"/>
</svg>
