<?xml version="1.0" encoding="utf-8"?>
<!-- Generator: Adobe Illustrator 16.0.0, SVG Export Plug-In . SVG Version: 6.00 Build 0)  -->
<!DOCTYPE svg PUBLIC "-//W3C//DTD SVG 1.1//EN" "http://www.w3.org/Graphics/SVG/1.1/DTD/svg11.dtd">
<svg version="1.1" id="Layer_1" xmlns="http://www.w3.org/2000/svg" xmlns:xlink="http://www.w3.org/1999/xlink" x="0px" y="0px"
	 width="36.586px" height="44.752px" viewBox="0 0 36.586 44.752" enable-background="new 0 0 36.586 44.752" xml:space="preserve">
<g>
	<path fill="#009FDB" d="M26.34,27.099h-5.164c-0.626,0-1.077-0.246-1.351-0.734c-0.274-0.491-0.41-1.268-0.41-2.332v-1.96
		c0-1.062,0.136-1.838,0.41-2.33c0.273-0.49,0.725-0.734,1.351-0.734h11.913c0.821,0,1.418,0.195,1.791,0.58
		c0.37,0.391,0.557,1.014,0.557,1.871v15.998C35.437,37.456,33.896,27.099,26.34,27.099z"/>
	<path fill="#FFFFFF" d="M25.036,28.077v7.789c-1.487,0.285-3.015,0.428-4.578,0.428c-6.69,0-10.034-4.658-10.034-13.979
		c0-4.617,0.828-8.074,2.493-10.361c1.662-2.289,4.216-3.436,7.659-3.436c1.644,0,3.08,0.145,4.312,0.432
		c1.231,0.283,2.279,0.611,3.139,0.979c0.86,0.367,1.352,0.553,1.47,0.553c0.469,0,1.006-0.355,1.612-1.074
		c0.604-0.713,1.125-1.533,1.557-2.451c0.429-0.92,0.645-1.664,0.645-2.238c0-0.816-0.666-1.555-1.994-2.205
		c-1.332-0.656-2.976-1.166-4.931-1.533c-1.956-0.367-3.835-0.555-5.634-0.555C7.683,0.425,1.149,7.7,1.149,22.253
		c0,7.562,1.575,13.131,4.726,16.709c3.148,3.576,8.009,5.363,14.582,5.363c3.249,0,6.337-0.347,9.272-1.041
		c2.935-0.695,4.401-1.963,4.401-3.801v-1.05C34.131,38.435,32.588,28.077,25.036,28.077z"/>
</g>
</svg>
