<?xml version="1.0" encoding="utf-8"?>
<!-- Generator: Adobe Illustrator 16.0.0, SVG Export Plug-In . SVG Version: 6.00 Build 0)  -->
<!DOCTYPE svg PUBLIC "-//W3C//DTD SVG 1.1//EN" "http://www.w3.org/Graphics/SVG/1.1/DTD/svg11.dtd">
<svg version="1.1" id="Layer_1" xmlns="http://www.w3.org/2000/svg" xmlns:xlink="http://www.w3.org/1999/xlink" x="0px" y="0px"
	 width="36.587px" height="44.752px" viewBox="0 0 36.587 44.752" enable-background="new 0 0 36.587 44.752" xml:space="preserve">
<g>
	<path fill="#00A0DC" d="M26.491,27.1h-5.164c-0.626,0-1.077-0.246-1.35-0.734c-0.275-0.491-0.411-1.267-0.411-2.331v-1.962
		c0-1.062,0.136-1.838,0.411-2.329c0.272-0.49,0.724-0.735,1.35-0.735H33.24c0.821,0,1.418,0.195,1.791,0.581
		c0.37,0.391,0.556,1.014,0.556,1.87v15.998C35.587,37.457,34.046,27.1,26.491,27.1z"/>
	<path fill="#48689A" d="M25.186,28.079v7.788c-1.487,0.286-3.014,0.429-4.578,0.429c-6.69,0-10.034-4.658-10.034-13.979
		c0-4.617,0.828-8.073,2.493-10.361c1.662-2.289,4.216-3.436,7.659-3.436c1.644,0,3.08,0.146,4.313,0.432
		c1.231,0.284,2.279,0.612,3.139,0.979c0.86,0.367,1.351,0.553,1.469,0.553c0.469,0,1.006-0.356,1.612-1.074
		c0.605-0.713,1.125-1.533,1.557-2.451c0.429-0.92,0.644-1.665,0.644-2.238c0-0.816-0.666-1.555-1.994-2.205
		c-1.332-0.656-2.975-1.166-4.93-1.534c-1.956-0.367-3.835-0.554-5.634-0.554C7.833,0.427,1.3,7.702,1.3,22.255
		c0,7.562,1.575,13.131,4.726,16.708c3.148,3.577,8.009,5.363,14.582,5.363c3.249,0,6.337-0.346,9.272-1.04
		c2.936-0.695,4.402-1.963,4.402-3.802v-1.048C34.282,38.437,32.739,28.079,25.186,28.079z"/>
</g>
</svg>
