<?xml version="1.0" encoding="utf-8"?>
<!-- Generator: Adobe Illustrator 16.0.0, SVG Export Plug-In . SVG Version: 6.00 Build 0)  -->
<!DOCTYPE svg PUBLIC "-//W3C//DTD SVG 1.1//EN" "http://www.w3.org/Graphics/SVG/1.1/DTD/svg11.dtd">
<svg version="1.1" id="Layer_1" xmlns="http://www.w3.org/2000/svg" xmlns:xlink="http://www.w3.org/1999/xlink" x="0px" y="0px"
	 width="36.586px" height="44.752px" viewBox="0 0 36.586 44.752" enable-background="new 0 0 36.586 44.752" xml:space="preserve">
<g>
	<g>
		<path fill="#FFFFFF" d="M26.645,27.059h-5.118c-0.619,0-1.066-0.244-1.337-0.728c-0.274-0.487-0.409-1.256-0.409-2.312v-1.944
			c0-1.052,0.135-1.821,0.409-2.309c0.271-0.486,0.718-0.729,1.337-0.729h11.809c0.812,0,1.405,0.193,1.775,0.575
			c0.365,0.388,0.551,1.005,0.551,1.853v15.858C35.662,37.324,34.134,27.059,26.645,27.059z"/>
		<path fill="#FFFFFF" d="M25.351,28.696v7.053c-1.475,0.285-2.986,0.425-4.54,0.425c-6.631,0-9.945-4.617-9.945-13.857
			c0-4.576,0.822-8.003,2.472-10.27c1.648-2.269,4.178-3.406,7.591-3.406c1.63,0,3.055,0.145,4.275,0.428
			c1.221,0.282,2.26,0.606,3.112,0.971c0.853,0.364,1.339,0.549,1.454,0.549c0.468,0,1-0.354,1.6-1.066
			c0.6-0.707,1.115-1.52,1.545-2.429c0.422-0.913,0.637-1.651,0.637-2.219c0-0.809-0.662-1.541-1.977-2.186
			c-1.32-0.65-2.949-1.156-4.887-1.521c-1.938-0.364-3.8-0.548-5.587-0.548C8.15,0.62,1.675,7.83,1.675,22.256
			c0,7.497,1.562,13.019,4.683,16.562c3.122,3.547,7.939,5.318,14.453,5.318c3.223,0,6.284-0.344,9.192-1.032
			c2.912-0.689,4.363-1.945,4.363-3.769v-1.04C34.367,38.295,32.837,28.696,25.351,28.696z"/>
	</g>
</g>
</svg>
