<?xml version="1.0" encoding="utf-8"?>
<!-- Generator: Adobe Illustrator 16.0.0, SVG Export Plug-In . SVG Version: 6.00 Build 0)  -->
<!DOCTYPE svg PUBLIC "-//W3C//DTD SVG 1.1//EN" "http://www.w3.org/Graphics/SVG/1.1/DTD/svg11.dtd">
<svg version="1.1" id="Layer_1" xmlns="http://www.w3.org/2000/svg" xmlns:xlink="http://www.w3.org/1999/xlink" x="0px" y="0px"
	 width="247px" height="48.25px" viewBox="0 0 247 48.25" enable-background="new 0 0 247 48.25" xml:space="preserve">
<g>
	<path fill="#FFFFFF" d="M56.052,14.35c0.5,0.674,0.749,1.439,0.749,2.293c0,0.861-0.179,1.932-0.539,3.215
		c-0.358,1.287-0.8,1.93-1.316,1.93c-0.24,0-0.659-0.08-1.257-0.242c-0.599-0.164-1.117-0.248-1.557-0.248
		c-1.078,0-2.025,0.318-2.844,0.951c-0.818,0.631-1.466,1.338-1.945,2.111v19.652c0,1.309-1.196,1.961-3.592,1.961h-1.676
		c-2.394,0-3.592-0.652-3.592-1.961V24.604c0-1.795-0.051-3.172-0.149-4.135c-0.1-0.957-0.231-2.027-0.39-3.213
		c-0.119-0.568-0.18-1-0.18-1.285c0-0.652,0.809-1.143,2.426-1.469c1.615-0.326,3.042-0.49,4.28-0.49
		c0.718,0,1.216,0.275,1.495,0.826c0.28,0.551,0.489,1.154,0.628,1.805c0.141,0.656,0.229,1.104,0.271,1.35
		c0.758-1.43,1.646-2.562,2.664-3.398c1.017-0.836,2.305-1.256,3.861-1.256C54.666,13.338,55.553,13.676,56.052,14.35z"/>
	<path fill="#FFFFFF" d="M80.776,16.344c2.034,1.801,3.053,4.275,3.053,7.428v11.4c0,1.861,0.048,3.277,0.149,4.246
		c0.099,0.969,0.229,2.043,0.389,3.215c0.119,0.525,0.18,0.969,0.18,1.332c0,0.648-0.809,1.133-2.425,1.457s-3.044,0.484-4.28,0.484
		c-0.718,0-1.218-0.293-1.496-0.879c-0.28-0.584-0.49-1.221-0.628-1.91c-0.142-0.686-0.23-1.152-0.271-1.395
		c-0.238,0.445-0.717,1.021-1.436,1.729c-0.717,0.707-1.716,1.363-2.992,1.971c-1.279,0.605-2.735,0.908-4.369,0.908
		c-3.074,0-5.32-0.807-6.735-2.424c-1.418-1.617-2.125-3.76-2.125-6.428c0-3.236,1.167-5.926,3.501-8.068
		c2.335-2.143,6.894-3.213,13.68-3.213v-2c0-1.172-0.37-2.043-1.108-2.609c-0.738-0.564-1.926-0.848-3.562-0.848
		c-1.356,0-2.545,0.141-3.562,0.424c-1.017,0.285-1.926,0.607-2.725,0.973c-0.798,0.361-1.258,0.545-1.377,0.545
		c-0.399,0-0.837-0.305-1.315-0.91c-0.479-0.607-0.898-1.305-1.259-2.094c-0.358-0.785-0.538-1.402-0.538-1.848
		c0-0.688,0.499-1.355,1.497-2.002c0.997-0.646,2.373-1.172,4.13-1.578c1.756-0.404,3.69-0.605,5.807-0.605
		C75.468,13.645,78.74,14.545,80.776,16.344z M74.97,35.414v-3.336c-5.588,0-8.382,0.652-8.382,3.643
		c0,0.811,0.26,1.457,0.778,1.943c0.518,0.484,1.258,0.727,2.216,0.727C69.582,38.391,73.259,38.404,74.97,35.414z"/>
	<path fill="#FFFFFF" d="M115.705,3.527v32.014c0,1.801,0.049,3.168,0.149,4.105c0.1,0.938,0.229,1.977,0.39,3.107
		c0.119,0.51,0.18,0.939,0.18,1.291c0,0.627-0.809,1.094-2.426,1.406c-1.615,0.314-3.042,0.469-4.28,0.469
		c-0.718,0-1.218-0.281-1.495-0.85c-0.28-0.564-0.489-1.174-0.628-1.816c-0.142-0.645-0.231-1.086-0.271-1.32
		c-0.719,1.291-1.786,2.346-3.203,3.166s-3.023,1.23-4.818,1.23c-2.155,0-4.081-0.613-5.777-1.846
		c-1.696-1.23-3.023-3.039-3.979-5.426c-0.958-2.381-1.438-5.236-1.438-8.559c0-4.848,1.107-9.77,3.322-12.605
		c2.215-2.832,5.317-4.25,9.31-4.25c2.353,0,4.389,0.605,6.104,1.816V3.527c0-1.248,1.197-1.875,3.592-1.875h1.676
		C114.507,1.652,115.705,2.279,115.705,3.527z M97.088,30.5c0,5.824,1.616,7.49,4.848,7.49c1.918,0,3.552-1.152,4.909-3.459V22.703
		c-1.357-0.742-2.753-1.115-4.19-1.115C98.943,21.588,97.088,24.559,97.088,30.5z"/>
	<path fill="#FFFFFF" d="M226.313,2.916v13.291c1.715-1.236,3.75-1.855,6.105-1.855c3.99,0,7.094,1.445,9.307,4.34
		c2.217,2.893,3.324,6.812,3.324,11.762c0,3.393-0.479,6.307-1.438,8.74c-0.957,2.434-2.285,4.279-3.98,5.537
		c-1.697,1.256-3.621,1.885-5.777,1.885c-1.795,0-3.402-0.42-4.817-1.256c-1.418-0.84-2.485-1.916-3.204-3.232
		c-0.279,1.277-0.479,2.135-0.598,2.574c-0.159,0.6-0.52,1.008-1.078,1.227s-1.356,0.33-2.394,0.33h-0.719
		c-2.395,0-3.591-0.639-3.591-1.918V2.916c0-1.275,1.196-1.916,3.591-1.916h1.677C225.115,1,226.313,1.641,226.313,2.916z
		 M236.069,30.5c0-5.941-1.855-8.912-5.566-8.912c-1.438,0-2.833,0.373-4.19,1.115v13.139
		C226.312,35.842,236.069,42.902,236.069,30.5z"/>
	<path fill="#FFFFFF" d="M138.521,14.006c1.992,0.615,2.988,1.502,2.988,2.652c0,0.781-0.308,1.789-0.925,3.021
		c-0.616,1.236-1.191,1.852-1.725,1.852c-0.165,0-0.761-0.217-1.787-0.648c-1.026-0.43-2.198-0.646-3.511-0.646
		c-2.179,0-3.268,0.721-3.268,2.16c0,0.945,0.358,1.664,1.077,2.156c0.72,0.494,1.901,1.07,3.543,1.729
		c1.068,0.41,1.852,0.74,2.342,0.986c1.644,0.781,2.949,1.842,3.915,3.178c0.964,1.338,1.446,3.115,1.446,5.336
		c0,3.209-1.068,5.77-3.203,7.682c-2.137,1.912-5.093,2.867-8.873,2.867c-2.549,0-4.891-0.389-7.025-1.172
		c-2.136-0.779-3.204-1.787-3.204-3.021c0-0.822,0.39-1.82,1.17-2.992c0.781-1.172,1.479-1.758,2.097-1.758
		c0.326,0,0.779,0.164,1.354,0.492c0.863,0.371,1.653,0.67,2.372,0.895c0.72,0.227,1.55,0.34,2.496,0.34
		c1.149,0,2.033-0.225,2.649-0.678s0.924-1.088,0.924-1.914c0-0.904-0.338-1.604-1.017-2.098c-0.677-0.492-1.469-0.914-2.372-1.266
		c-0.902-0.348-1.54-0.586-1.909-0.707c-2.096-0.824-3.791-1.893-5.084-3.209c-1.294-1.316-1.941-3.332-1.941-6.045
		c0-3.166,1.006-5.643,3.02-7.434c2.012-1.787,4.743-2.684,8.194-2.684C134.443,13.08,136.527,13.389,138.521,14.006z"/>
	<path fill="#FFFFFF" d="M180.216,3.662v40.295c0,1.346-1.15,2.016-3.454,2.016h-2.018c-2.302,0-3.454-0.67-3.454-2.016V27.521
		h-15.554v16.436c0,1.346-1.151,2.016-3.454,2.016h-2.016c-2.305,0-3.458-0.67-3.458-2.016V3.662c0-1.346,1.153-2.018,3.458-2.018
		h2.016c2.303,0,3.454,0.672,3.454,2.018v15.551h15.554V3.662c0-1.346,1.152-2.018,3.454-2.018h2.018
		C179.065,1.645,180.216,2.316,180.216,3.662z"/>
	<path fill="#FFFFFF" d="M203.228,35.381V15.852c0-1.297,1.229-1.947,3.683-1.947h1.718c2.455,0,3.683,0.65,3.683,1.947v19.285
		c0,1.867,0.051,3.285,0.153,4.258c0.102,0.975,0.234,2.051,0.398,3.227c0.124,0.525,0.185,0.971,0.185,1.336
		c0,0.65-0.828,1.139-2.485,1.463c-1.656,0.326-1.691,0.486-2.961,0.486c-0.736,0-1.248-0.295-1.534-0.883s-0.501-1.227-0.644-1.916
		l-0.35-1.418c0,0-3,4.641-10.499,4.641c-3.069,0-5.339-0.799-6.812-2.4s-2.209-4.086-2.209-7.455V15.852
		c0-1.297,1.227-1.947,3.682-1.947h1.719c2.455,0,3.682,0.65,3.682,1.947v17.705c0,0-0.181,4.002,3.119,4.158
		C197.755,37.715,201.089,37.998,203.228,35.381z"/>
</g>
<g>
	<path fill="#009FDB" d="M25.191,28.715h-5.164c-0.626,0-1.077-0.246-1.35-0.734c-0.275-0.492-0.411-1.268-0.411-2.332v-1.961
		c0-1.062,0.136-1.838,0.411-2.33c0.272-0.49,0.724-0.734,1.35-0.734H31.94c0.821,0,1.418,0.195,1.791,0.58
		c0.37,0.391,0.556,1.014,0.556,1.871v15.998C34.287,39.072,32.746,28.715,25.191,28.715z"/>
	<path fill="#FFFFFF" d="M23.886,29.693v7.789c-1.487,0.285-3.014,0.428-4.578,0.428c-6.69,0-10.034-4.658-10.034-13.979
		c0-4.617,0.828-8.074,2.493-10.361c1.662-2.289,4.216-3.436,7.659-3.436c1.644,0,3.08,0.145,4.313,0.432
		c1.231,0.283,2.279,0.611,3.139,0.979c0.86,0.367,1.351,0.553,1.469,0.553c0.469,0,1.006-0.355,1.612-1.074
		c0.605-0.713,1.125-1.533,1.557-2.451c0.429-0.92,0.644-1.664,0.644-2.238c0-0.816-0.666-1.555-1.994-2.205
		c-1.332-0.656-2.975-1.166-4.93-1.533c-1.956-0.367-3.835-0.555-5.634-0.555C6.533,2.041,0,9.316,0,23.869
		C0,31.432,1.575,37,4.726,40.578c3.148,3.576,8.009,5.363,14.582,5.363c3.249,0,6.337-0.346,9.272-1.041s4.402-1.963,4.402-3.801
		v-1.049C32.982,40.051,31.439,29.693,23.886,29.693z"/>
</g>
</svg>
