<?xml version="1.0" encoding="utf-8"?>
<!-- Generator: Adobe Illustrator 16.0.0, SVG Export Plug-In . SVG Version: 6.00 Build 0)  -->
<!DOCTYPE svg PUBLIC "-//W3C//DTD SVG 1.1//EN" "http://www.w3.org/Graphics/SVG/1.1/DTD/svg11.dtd">
<svg version="1.1" id="Layer_1" xmlns="http://www.w3.org/2000/svg" xmlns:xlink="http://www.w3.org/1999/xlink" x="0px" y="0px"
	 width="247px" height="48.25px" viewBox="0 0 247 48.25" enable-background="new 0 0 247 48.25" xml:space="preserve">
<g>
	<g>
		<path fill="#FFFFFF" d="M57.027,14.667c0.5,0.674,0.749,1.439,0.749,2.293c0,0.861-0.179,1.932-0.539,3.215
			c-0.358,1.287-0.8,1.93-1.316,1.93c-0.24,0-0.659-0.08-1.257-0.242c-0.599-0.164-1.117-0.248-1.557-0.248
			c-1.078,0-2.025,0.318-2.844,0.951c-0.818,0.631-1.466,1.338-1.945,2.112v19.651c0,1.309-1.196,1.961-3.592,1.961H43.05
			c-2.394,0-3.592-0.652-3.592-1.961V24.922c0-1.796-0.051-3.173-0.149-4.136c-0.1-0.957-0.231-2.027-0.39-3.213
			c-0.119-0.568-0.18-1-0.18-1.285c0-0.652,0.809-1.143,2.426-1.469c1.615-0.326,3.042-0.49,4.28-0.49
			c0.718,0,1.216,0.275,1.495,0.826c0.28,0.551,0.489,1.154,0.628,1.805c0.141,0.656,0.229,1.104,0.271,1.35
			c0.758-1.43,1.646-2.562,2.664-3.398c1.017-0.836,2.305-1.256,3.861-1.256C55.641,13.655,56.528,13.993,57.027,14.667z"/>
		<path fill="#FFFFFF" d="M81.751,16.661c2.034,1.801,3.053,4.275,3.053,7.428V35.49c0,1.86,0.048,3.276,0.149,4.245
			c0.099,0.969,0.229,2.043,0.389,3.215c0.119,0.525,0.18,0.969,0.18,1.332c0,0.648-0.809,1.133-2.425,1.457
			s-3.044,0.484-4.28,0.484c-0.718,0-1.218-0.293-1.496-0.879c-0.28-0.584-0.49-1.221-0.628-1.91
			c-0.142-0.686-0.23-1.152-0.271-1.395c-0.238,0.445-0.717,1.021-1.436,1.729c-0.717,0.707-1.716,1.363-2.992,1.971
			c-1.279,0.605-2.735,0.908-4.369,0.908c-3.074,0-5.32-0.807-6.735-2.424c-1.418-1.617-2.125-3.76-2.125-6.428
			c0-3.235,1.167-5.925,3.501-8.067c2.335-2.143,6.894-3.213,13.68-3.213v-2.001c0-1.172-0.37-2.043-1.108-2.609
			c-0.738-0.564-1.926-0.848-3.562-0.848c-1.356,0-2.545,0.141-3.562,0.424c-1.017,0.285-1.926,0.607-2.725,0.973
			c-0.798,0.361-1.258,0.545-1.377,0.545c-0.399,0-0.837-0.305-1.315-0.91c-0.479-0.607-0.898-1.305-1.259-2.094
			c-0.358-0.785-0.538-1.402-0.538-1.848c0-0.688,0.499-1.355,1.497-2.002c0.997-0.646,2.373-1.172,4.13-1.578
			c1.756-0.404,3.69-0.605,5.807-0.605C76.443,13.962,79.715,14.862,81.751,16.661z M75.945,35.732v-3.336
			c-5.588,0-8.382,0.652-8.382,3.643c0,0.81,0.26,1.456,0.778,1.942c0.518,0.484,1.258,0.727,2.216,0.727
			C70.557,38.708,74.234,38.722,75.945,35.732z"/>
		<path fill="#FFFFFF" d="M116.68,3.846v32.014c0,1.8,0.049,3.167,0.15,4.104c0.1,0.938,0.229,1.977,0.389,3.107
			c0.119,0.51,0.18,0.939,0.18,1.291c0,0.627-0.809,1.094-2.426,1.406c-1.615,0.314-3.042,0.469-4.28,0.469
			c-0.718,0-1.218-0.281-1.495-0.85c-0.28-0.564-0.489-1.174-0.628-1.816c-0.142-0.645-0.231-1.086-0.271-1.32
			c-0.719,1.291-1.786,2.346-3.203,3.166s-3.023,1.23-4.818,1.23c-2.155,0-4.081-0.613-5.777-1.846
			c-1.696-1.23-3.023-3.039-3.979-5.426c-0.958-2.381-1.438-5.235-1.438-8.558c0-4.848,1.107-9.771,3.322-12.606
			c2.215-2.832,5.317-4.25,9.31-4.25c2.353,0,4.389,0.605,6.104,1.816V3.846c0-1.248,1.197-1.875,3.592-1.875h1.676
			C115.482,1.971,116.68,2.598,116.68,3.846z M98.063,30.818c0,5.823,1.616,7.489,4.848,7.489c1.918,0,3.552-1.152,4.909-3.458
			V23.021c-1.357-0.742-2.753-1.115-4.19-1.115C99.918,21.905,98.063,24.877,98.063,30.818z"/>
		<path fill="#00A0DC" d="M227.289,3.234v13.29c1.715-1.236,3.75-1.855,6.105-1.855c3.99,0,7.094,1.445,9.307,4.34
			c2.217,2.893,3.324,6.813,3.324,11.763c0,3.393-0.479,6.306-1.438,8.739c-0.957,2.434-2.285,4.279-3.98,5.537
			c-1.697,1.256-3.621,1.885-5.777,1.885c-1.795,0-3.402-0.42-4.818-1.256c-1.418-0.84-2.484-1.916-3.203-3.232
			c-0.279,1.277-0.479,2.135-0.598,2.574c-0.16,0.6-0.52,1.008-1.078,1.227s-1.357,0.33-2.395,0.33h-0.719
			c-2.395,0-3.59-0.639-3.59-1.918V3.234c0-1.275,1.195-1.916,3.59-1.916h1.678C226.09,1.318,227.289,1.959,227.289,3.234z
			 M237.045,30.818c0-5.941-1.855-8.913-5.566-8.913c-1.438,0-2.834,0.373-4.191,1.115v13.139
			C227.287,36.159,237.045,43.22,237.045,30.818z"/>
		<path fill="#FFFFFF" d="M139.496,14.323c1.992,0.615,2.988,1.502,2.988,2.652c0,0.781-0.307,1.789-0.924,3.021
			c-0.617,1.236-1.191,1.852-1.725,1.852c-0.166,0-0.762-0.217-1.787-0.648c-1.027-0.43-2.199-0.646-3.512-0.646
			c-2.178,0-3.268,0.721-3.268,2.16c0,0.945,0.359,1.664,1.078,2.157c0.719,0.494,1.9,1.07,3.543,1.729
			c1.068,0.41,1.852,0.74,2.342,0.986c1.643,0.781,2.949,1.842,3.914,3.178c0.965,1.338,1.447,3.115,1.447,5.335
			c0,3.209-1.068,5.77-3.203,7.682c-2.137,1.912-5.094,2.867-8.873,2.867c-2.549,0-4.891-0.389-7.025-1.172
			c-2.137-0.779-3.205-1.787-3.205-3.021c0-0.822,0.391-1.82,1.17-2.992c0.781-1.172,1.479-1.758,2.098-1.758
			c0.326,0,0.779,0.164,1.354,0.492c0.863,0.371,1.654,0.67,2.373,0.895c0.719,0.227,1.549,0.34,2.496,0.34
			c1.148,0,2.033-0.225,2.648-0.678c0.617-0.453,0.924-1.088,0.924-1.914c0-0.903-0.338-1.603-1.016-2.097
			c-0.678-0.492-1.469-0.914-2.373-1.266c-0.902-0.348-1.539-0.586-1.908-0.707c-2.096-0.824-3.791-1.893-5.084-3.209
			c-1.295-1.316-1.941-3.332-1.941-6.046c0-3.166,1.006-5.643,3.02-7.434c2.012-1.787,4.742-2.684,8.193-2.684
			C135.418,13.397,137.502,13.706,139.496,14.323z"/>
		<path fill="#00A0DC" d="M181.191,3.98v40.294c0,1.346-1.15,2.016-3.455,2.016h-2.018c-2.301,0-3.453-0.67-3.453-2.016V27.84
			h-15.555v16.435c0,1.346-1.15,2.016-3.453,2.016h-2.016c-2.305,0-3.459-0.67-3.459-2.016V3.98c0-1.346,1.154-2.018,3.459-2.018
			h2.016c2.303,0,3.453,0.672,3.453,2.018v15.55h15.555V3.98c0-1.346,1.152-2.018,3.453-2.018h2.018
			C180.041,1.963,181.191,2.635,181.191,3.98z"/>
		<path fill="#00A0DC" d="M204.203,35.699v-19.53c0-1.297,1.229-1.947,3.682-1.947h1.719c2.455,0,3.682,0.65,3.682,1.947v19.286
			c0,1.866,0.051,3.284,0.154,4.257c0.102,0.975,0.234,2.051,0.398,3.227c0.123,0.525,0.184,0.971,0.184,1.336
			c0,0.65-0.828,1.139-2.484,1.463c-1.656,0.326-1.691,0.486-2.961,0.486c-0.736,0-1.248-0.295-1.535-0.883
			c-0.285-0.588-0.5-1.227-0.643-1.916l-0.35-1.418c0,0-3,4.641-10.5,4.641c-3.068,0-5.338-0.799-6.811-2.4
			s-2.209-4.086-2.209-7.455V16.169c0-1.297,1.227-1.947,3.682-1.947h1.719c2.455,0,3.682,0.65,3.682,1.947v17.706
			c0,0-0.182,4.001,3.119,4.157C198.73,38.032,202.064,38.315,204.203,35.699z"/>
	</g>
	<g>
		<path fill="#00A0DC" d="M26.167,29.032h-5.164c-0.626,0-1.077-0.246-1.35-0.734c-0.275-0.491-0.411-1.267-0.411-2.331v-1.962
			c0-1.062,0.136-1.838,0.411-2.329c0.272-0.49,0.724-0.735,1.35-0.735h11.913c0.821,0,1.418,0.195,1.791,0.581
			c0.37,0.391,0.556,1.014,0.556,1.87V39.39C35.262,39.39,33.721,29.032,26.167,29.032z"/>
		<path fill="#FFFFFF" d="M24.861,30.012V37.8c-1.487,0.286-3.014,0.429-4.578,0.429c-6.69,0-10.034-4.658-10.034-13.979
			c0-4.617,0.828-8.073,2.493-10.361c1.662-2.289,4.216-3.436,7.659-3.436c1.644,0,3.08,0.146,4.313,0.432
			c1.231,0.284,2.279,0.612,3.139,0.979c0.86,0.367,1.351,0.553,1.469,0.553c0.469,0,1.006-0.356,1.612-1.074
			c0.605-0.713,1.125-1.533,1.557-2.451c0.429-0.92,0.644-1.665,0.644-2.238c0-0.816-0.666-1.555-1.994-2.205
			c-1.332-0.656-2.975-1.166-4.93-1.534c-1.956-0.367-3.835-0.554-5.634-0.554c-13.068,0-19.602,7.275-19.602,21.828
			c0,7.562,1.575,13.131,4.726,16.708c3.148,3.577,8.009,5.363,14.582,5.363c3.249,0,6.337-0.346,9.272-1.04
			c2.936-0.695,4.402-1.963,4.402-3.802v-1.048C33.958,40.369,32.415,30.012,24.861,30.012z"/>
	</g>
</g>
</svg>
