<?xml version="1.0" encoding="utf-8"?>
<!-- Generator: Adobe Illustrator 16.0.0, SVG Export Plug-In . SVG Version: 6.00 Build 0)  -->
<!DOCTYPE svg PUBLIC "-//W3C//DTD SVG 1.1//EN" "http://www.w3.org/Graphics/SVG/1.1/DTD/svg11.dtd">
<svg version="1.1" id="Layer_1" xmlns="http://www.w3.org/2000/svg" xmlns:xlink="http://www.w3.org/1999/xlink" x="0px" y="0px"
	 width="247px" height="48.25px" viewBox="0 0 247 48.25" enable-background="new 0 0 247 48.25" xml:space="preserve">
<g>
	<g>
		<path fill="#FFFFFF" d="M57.251,14.232c0.495,0.669,0.741,1.427,0.741,2.273c0,0.854-0.177,1.916-0.535,3.187
			c-0.355,1.275-0.792,1.913-1.305,1.913c-0.238,0-0.655-0.08-1.247-0.241c-0.592-0.163-1.104-0.244-1.542-0.244
			c-1.07,0-2.007,0.313-2.819,0.942c-0.811,0.625-1.452,1.327-1.929,2.094v19.479c0,1.297-1.185,1.944-3.559,1.944h-1.662
			c-2.372,0-3.559-0.647-3.559-1.944V24.398c0-1.78-0.052-3.146-0.15-4.1c-0.098-0.948-0.23-2.009-0.385-3.185
			c-0.119-0.563-0.18-0.991-0.18-1.273c0-0.647,0.802-1.133,2.405-1.456c1.601-0.323,3.015-0.487,4.245-0.487
			c0.71,0,1.202,0.275,1.479,0.82c0.28,0.547,0.485,1.145,0.622,1.789c0.14,0.652,0.228,1.094,0.27,1.338
			c0.75-1.417,1.629-2.54,2.64-3.369c1.008-0.83,2.283-1.244,3.828-1.244C55.875,13.231,56.755,13.565,57.251,14.232z"/>
		<path fill="#FFFFFF" d="M81.758,16.21c2.017,1.785,3.025,4.238,3.025,7.363v11.302c0,1.843,0.048,3.246,0.148,4.207
			c0.1,0.96,0.228,2.024,0.386,3.188c0.119,0.52,0.179,0.96,0.179,1.319c0,0.644-0.802,1.124-2.404,1.443
			c-1.602,0.322-3.018,0.482-4.245,0.482c-0.711,0-1.206-0.291-1.482-0.872c-0.276-0.58-0.486-1.211-0.621-1.893
			c-0.14-0.681-0.23-1.144-0.27-1.383c-0.236,0.441-0.712,1.012-1.424,1.714c-0.708,0.699-1.7,1.351-2.967,1.951
			c-1.266,0.603-2.708,0.901-4.328,0.901c-3.049,0-5.275-0.799-6.677-2.403c-1.406-1.602-2.107-3.726-2.107-6.37
			c0-3.208,1.159-5.874,3.471-7.998c2.314-2.124,6.833-3.185,13.56-3.185v-1.982c0-1.163-0.368-2.025-1.097-2.587
			c-0.735-0.56-1.909-0.841-3.533-0.841c-1.343,0-2.521,0.141-3.53,0.42c-1.009,0.284-1.909,0.604-2.701,0.966
			c-0.79,0.358-1.247,0.54-1.365,0.54c-0.397,0-0.83-0.303-1.303-0.902c-0.476-0.604-0.892-1.293-1.25-2.075
			c-0.354-0.779-0.531-1.391-0.531-1.832c0-0.682,0.492-1.344,1.482-1.985c0.988-0.64,2.354-1.161,4.093-1.563
			c1.742-0.401,3.659-0.601,5.758-0.601C76.495,13.534,79.74,14.428,81.758,16.21z M76.003,35.113v-3.306
			c-5.538,0-8.308,0.647-8.308,3.611c0,0.802,0.256,1.441,0.771,1.924c0.512,0.481,1.247,0.721,2.195,0.721
			C70.661,38.063,74.306,38.077,76.003,35.113z"/>
		<path fill="#FFFFFF" d="M116.382,3.507V35.24c0,1.783,0.05,3.14,0.147,4.066c0.1,0.93,0.228,1.962,0.386,3.082
			c0.119,0.506,0.178,0.932,0.178,1.28c0,0.621-0.801,1.084-2.404,1.394c-1.602,0.312-3.016,0.465-4.243,0.465
			c-0.712,0-1.207-0.279-1.482-0.843c-0.277-0.56-0.485-1.164-0.624-1.8c-0.139-0.639-0.229-1.076-0.268-1.309
			c-0.711,1.279-1.771,2.324-3.175,3.139c-1.405,0.812-2.997,1.219-4.776,1.219c-2.137,0-4.046-0.607-5.727-1.83
			c-1.68-1.219-2.998-3.011-3.944-5.379c-0.951-2.358-1.427-5.189-1.427-8.481c0-4.806,1.1-9.685,3.294-12.496
			c2.197-2.807,5.273-4.213,9.229-4.213c2.334,0,4.349,0.601,6.05,1.8V3.507c0-1.238,1.187-1.858,3.561-1.858h1.66
			C115.195,1.648,116.382,2.269,116.382,3.507z M97.929,30.243c0,5.772,1.601,7.422,4.803,7.422c1.899,0,3.521-1.141,4.866-3.426
			V22.513c-1.344-0.736-2.729-1.105-4.153-1.105C99.766,21.408,97.929,24.354,97.929,30.243z"/>
		<path fill="#009FDB" d="M226.023,2.9v13.175c1.698-1.226,3.718-1.84,6.051-1.84c3.955,0,7.031,1.433,9.226,4.301
			c2.197,2.868,3.294,6.754,3.294,11.661c0,3.362-0.474,6.251-1.423,8.662c-0.948,2.412-2.266,4.241-3.946,5.489
			c-1.684,1.243-3.591,1.868-5.727,1.868c-1.779,0-3.374-0.416-4.775-1.246c-1.404-0.83-2.464-1.898-3.179-3.202
			c-0.275,1.265-0.473,2.115-0.59,2.551c-0.157,0.595-0.515,0.999-1.069,1.216c-0.554,0.217-1.346,0.327-2.373,0.327h-0.711
			c-2.374,0-3.562-0.634-3.562-1.9V2.9c0-1.265,1.188-1.899,3.562-1.899h1.662C224.835,1.001,226.023,1.636,226.023,2.9z
			 M235.692,30.243c0-5.89-1.839-8.835-5.517-8.835c-1.426,0-2.809,0.37-4.154,1.105v13.024
			C226.021,35.537,235.692,42.537,235.692,30.243z"/>
		<path fill="#FFFFFF" d="M138.998,13.894c1.974,0.609,2.962,1.488,2.962,2.628c0,0.775-0.305,1.773-0.917,2.995
			c-0.61,1.226-1.182,1.834-1.71,1.834c-0.163,0-0.753-0.213-1.77-0.642c-1.018-0.427-2.179-0.641-3.481-0.641
			c-2.16,0-3.238,0.713-3.238,2.142c0,0.937,0.354,1.649,1.067,2.138c0.713,0.491,1.887,1.061,3.512,1.714
			c1.06,0.407,1.836,0.733,2.321,0.977c1.631,0.774,2.926,1.827,3.882,3.152c0.955,1.325,1.436,3.087,1.436,5.287
			c0,3.18-1.062,5.719-3.178,7.614c-2.118,1.896-5.049,2.842-8.795,2.842c-2.527,0-4.849-0.384-6.965-1.161
			c-2.117-0.772-3.177-1.771-3.177-2.996c0-0.814,0.388-1.805,1.162-2.965c0.773-1.162,1.466-1.742,2.077-1.742
			c0.322,0,0.773,0.161,1.342,0.487c0.854,0.367,1.64,0.665,2.353,0.886c0.711,0.227,1.536,0.338,2.473,0.338
			c1.141,0,2.017-0.223,2.627-0.672c0.61-0.448,0.916-1.078,0.916-1.897c0-0.895-0.334-1.588-1.009-2.079
			c-0.67-0.487-1.454-0.905-2.351-1.252c-0.893-0.348-1.525-0.582-1.893-0.702c-2.078-0.817-3.756-1.876-5.038-3.181
			c-1.285-1.305-1.925-3.304-1.925-5.994c0-3.138,0.998-5.592,2.995-7.368c1.992-1.772,4.699-2.661,8.122-2.661
			C134.956,12.975,137.021,13.28,138.998,13.894z"/>
		<path fill="#009FDB" d="M180.328,3.641v39.941c0,1.333-1.141,1.998-3.424,1.998h-2.001c-2.281,0-3.423-0.665-3.423-1.998V27.291
			h-15.417v16.291c0,1.333-1.144,1.998-3.426,1.998h-1.997c-2.286,0-3.429-0.665-3.429-1.998V3.641c0-1.335,1.143-2.001,3.429-2.001
			h1.997c2.282,0,3.426,0.666,3.426,2.001v15.413h15.417V3.641c0-1.335,1.142-2.001,3.423-2.001h2.001
			C179.188,1.64,180.328,2.306,180.328,3.641z"/>
		<path fill="#009FDB" d="M203.139,35.081v-19.36c0-1.286,1.217-1.929,3.65-1.929h1.701c2.435,0,3.651,0.644,3.651,1.929v19.118
			c0,1.85,0.05,3.256,0.152,4.221c0.1,0.965,0.232,2.033,0.395,3.196c0.124,0.522,0.183,0.964,0.183,1.326
			c0,0.645-0.82,1.128-2.464,1.45c-1.642,0.322-1.675,0.482-2.934,0.482c-0.731,0-1.237-0.292-1.522-0.876
			c-0.282-0.583-0.494-1.216-0.637-1.9l-0.348-1.404c0,0-2.972,4.6-10.406,4.6c-3.043,0-5.293-0.791-6.752-2.378
			c-1.462-1.59-2.19-4.051-2.19-7.39V15.721c0-1.286,1.216-1.929,3.649-1.929h1.705c2.434,0,3.648,0.644,3.648,1.929v17.552
			c0,0-0.18,3.966,3.094,4.119C197.715,37.393,201.019,37.675,203.139,35.081z"/>
	</g>
	<g>
		<path fill="#FFFFFF" d="M26.66,28.473h-5.118c-0.62,0-1.067-0.244-1.337-0.728c-0.275-0.487-0.409-1.256-0.409-2.312V23.49
			c0-1.052,0.134-1.822,0.409-2.309c0.27-0.486,0.717-0.729,1.337-0.729H33.35c0.813,0,1.406,0.193,1.775,0.575
			c0.366,0.388,0.551,1.005,0.551,1.853v15.858C35.676,38.738,34.149,28.473,26.66,28.473z"/>
		<path fill="#FFFFFF" d="M25.365,30.11v7.053c-1.475,0.285-2.986,0.425-4.54,0.425c-6.631,0-9.945-4.617-9.945-13.857
			c0-4.576,0.822-8.003,2.472-10.27c1.648-2.269,4.178-3.406,7.592-3.406c1.629,0,3.054,0.145,4.274,0.428
			c1.221,0.282,2.261,0.606,3.113,0.971c0.852,0.364,1.338,0.549,1.455,0.549c0.467,0,1-0.354,1.599-1.066
			c0.6-0.707,1.116-1.52,1.544-2.429c0.422-0.913,0.637-1.651,0.637-2.219c0-0.809-0.662-1.541-1.977-2.186
			c-1.32-0.65-2.949-1.156-4.887-1.521c-1.938-0.364-3.799-0.548-5.586-0.548c-12.952,0-19.427,7.21-19.427,21.636
			c0,7.497,1.562,13.019,4.683,16.562c3.122,3.547,7.939,5.318,14.453,5.318c3.223,0,6.284-0.344,9.193-1.032
			c2.911-0.689,4.363-1.945,4.363-3.769v-1.04C34.382,39.709,32.852,30.11,25.365,30.11z"/>
	</g>
</g>
</svg>
