<?xml version="1.0" encoding="utf-8"?>
<!-- Generator: Adobe Illustrator 16.0.0, SVG Export Plug-In . SVG Version: 6.00 Build 0)  -->
<!DOCTYPE svg PUBLIC "-//W3C//DTD SVG 1.1//EN" "http://www.w3.org/Graphics/SVG/1.1/DTD/svg11.dtd">
<svg version="1.1" id="Layer_1" xmlns="http://www.w3.org/2000/svg" xmlns:xlink="http://www.w3.org/1999/xlink" x="0px" y="0px"
	 width="30px" height="30px" viewBox="0 0 30 30" enable-background="new 0 0 30 30" xml:space="preserve">
<path fill-rule="evenodd" clip-rule="evenodd" fill="#48689A" d="M3.333,4.443C3.484,4.424,3.635,4.4,3.789,4.385
	c0.598-0.067,1.061-0.399,1.515-0.753c0.297-0.232,0.602-0.456,0.911-0.673C6.29,2.904,6.391,2.882,6.48,2.846
	c0.014,0.021,0.029,0.042,0.042,0.06C6.268,3.223,6.016,3.538,5.744,3.877C5.803,3.886,5.839,3.902,5.87,3.896
	c0.057-0.009,0.109-0.042,0.164-0.047c0.351-0.03,0.581-0.261,0.824-0.474c0.28-0.248,0.568-0.483,0.857-0.716
	c0.084-0.068,0.18-0.13,0.282-0.166c0.07-0.028,0.161-0.023,0.234-0.003c0.129,0.036,0.137,0.09,0.047,0.192
	c-0.202,0.229-0.404,0.458-0.604,0.69C7.627,3.43,7.592,3.498,7.529,3.599C7.768,3.61,7.976,3.641,8.18,3.623
	c0.086-0.007,0.172-0.104,0.249-0.173C8.671,3.226,8.907,2.995,9.15,2.773c0.072-0.068,0.153-0.137,0.244-0.172
	C9.445,2.581,9.536,2.61,9.582,2.648c0.036,0.029,0.048,0.113,0.033,0.163C9.598,2.872,9.542,2.92,9.5,2.971
	C9.34,3.16,9.17,3.341,9.023,3.54C8.91,3.691,8.942,3.748,9.119,3.792C9.303,3.838,9.489,3.88,9.675,3.929
	C9.801,3.963,9.886,3.936,9.96,3.815c0.324-0.521,0.659-1.04,0.991-1.557c0.188-0.292,0.459-0.498,0.742-0.685
	c0.227-0.148,0.473-0.016,0.494,0.257c0.001,0.019,0.002,0.037,0.002,0.056c0.007,0.267-0.024,0.307-0.281,0.37
	c0.242,0.099,0.506,0.158,0.657,0.419c0.038-0.043,0.061-0.063,0.077-0.092c0.152-0.24,0.293-0.49,0.459-0.722
	c0.05-0.071,0.158-0.131,0.246-0.139c0.203-0.018,0.288,0.132,0.189,0.308c-0.092,0.163-0.193,0.319-0.283,0.481
	c-0.032,0.056-0.041,0.122-0.061,0.185c0.067,0.011,0.134,0.025,0.202,0.035c0.018,0.002,0.039-0.001,0.057-0.004
	c0.553-0.072,0.481-0.038,0.589-0.457c0.041-0.164,0.116-0.323,0.205-0.468c0.112-0.188,0.401-0.2,0.558-0.045
	c0.095,0.092,0.064,0.174,0,0.265c-0.084,0.121-0.172,0.241-0.24,0.372c-0.053,0.102,0,0.173,0.117,0.181
	c0.22,0.016,0.439,0.028,0.66,0.039c0.046,0.002,0.095,0,0.14-0.011c0.089-0.017,0.133-0.056,0.101-0.16
	c-0.056-0.176-0.104-0.356-0.144-0.538c-0.049-0.211,0.068-0.367,0.301-0.416c0.125-0.026,0.248,0.086,0.282,0.28
	c0.032,0.179,0.053,0.359,0.058,0.539c0.009,0.25,0,0.247,0.26,0.26c0.157,0.008,0.314,0.028,0.472,0.041
	c0.061,0.004,0.12,0.001,0.209,0.001c-0.03-0.06-0.05-0.098-0.072-0.132c-0.103-0.165-0.209-0.33-0.31-0.495
	c-0.062-0.102-0.006-0.168,0.088-0.197c0.092-0.026,0.187-0.045,0.281-0.049c0.139-0.007,0.248,0.043,0.296,0.194
	c0.044,0.14,0.102,0.275,0.153,0.414c0.104,0.289,0.251,0.373,0.592,0.325c-0.016-0.04-0.025-0.078-0.047-0.112
	c-0.094-0.154-0.195-0.305-0.284-0.463c-0.079-0.146-0.039-0.208,0.13-0.219c0.199-0.014,0.375,0.002,0.487,0.212
	c0.035,0.063,0.144,0.114,0.226,0.123c0.438,0.042,0.701,0.292,0.853,0.684c0.039,0.102,0.099,0.165,0.21,0.209
	c0.476,0.19,0.762,0.527,0.754,1.066c-0.004,0.239,0.01,0.479,0.007,0.718c-0.005,0.133,0.055,0.18,0.179,0.174
	c0.21-0.01,0.421-0.011,0.63-0.027c0.056-0.003,0.111-0.045,0.164-0.072c-0.022-0.048-0.039-0.101-0.071-0.146
	c-0.186-0.275-0.388-0.542-0.562-0.824c-0.111-0.174-0.067-0.276,0.097-0.369c0.152-0.088,0.317-0.065,0.4,0.084
	c0.084,0.147,0.135,0.314,0.199,0.472c0.076,0.184,0.147,0.372,0.23,0.553c0.057,0.12,0.156,0.186,0.293,0.195
	c0.199,0.015,0.398,0.043,0.597,0.055c0.043,0.002,0.108-0.021,0.123-0.05c0.014-0.027-0.017-0.088-0.044-0.122
	c-0.254-0.328-0.513-0.653-0.768-0.981c-0.047-0.06-0.094-0.125-0.123-0.192c-0.039-0.086-0.129-0.168-0.044-0.275
	c0.08-0.105,0.255-0.181,0.37-0.122c0.106,0.056,0.217,0.141,0.283,0.241c0.184,0.284,0.346,0.583,0.518,0.872
	c0.094,0.157,0.186,0.314,0.297,0.457c0.046,0.061,0.133,0.113,0.207,0.119c0.281,0.025,0.562,0.037,0.846,0.035
	c0.084-0.001,0.167-0.068,0.251-0.104c-0.051-0.066-0.093-0.142-0.151-0.196c-0.384-0.352-0.771-0.699-1.156-1.05
	c-0.069-0.065-0.132-0.139-0.189-0.214c-0.082-0.104-0.065-0.178,0.046-0.247c0.181-0.109,0.362-0.064,0.538,0.119
	c0.275,0.292,0.556,0.578,0.835,0.866c0.111,0.111,0.229,0.217,0.334,0.333c0.063,0.07,0.102,0.16,0.169,0.229
	c0.061,0.063,0.138,0.151,0.216,0.156c0.297,0.02,0.6,0.013,0.901,0.011c0.039-0.002,0.079-0.036,0.117-0.054
	c-0.023-0.034-0.04-0.076-0.07-0.099c-0.524-0.413-1.054-0.82-1.576-1.235c-0.08-0.064-0.151-0.147-0.203-0.235
	c-0.073-0.124,0.007-0.238,0.149-0.219c0.091,0.013,0.186,0.049,0.266,0.098c0.589,0.376,1.145,0.792,1.548,1.381
	c0.175,0.254,0.501,0.401,0.8,0.373c-0.042-0.052-0.066-0.099-0.106-0.13C26.662,4.53,26.401,4.312,26.135,4.1
	c-0.149-0.117-0.239-0.261-0.267-0.454c-0.018-0.105-0.067-0.204-0.108-0.305c-0.022-0.062-0.062-0.12-0.079-0.183
	c-0.033-0.138-0.053-0.286,0.067-0.388c0.116-0.097,0.253-0.057,0.36,0.021c0.203,0.146,0.398,0.31,0.59,0.471
	c0.615,0.517,1.229,1.029,1.837,1.555c0.22,0.189,0.453,0.382,0.545,0.67c0.065,0.212,0.108,0.437,0.129,0.659
	c0.067,0.796,0.168,1.591,0.173,2.386c0.034,4.57,0.044,9.142,0.062,13.712c0.004,0.923,0.021,1.846-0.004,2.768
	c-0.013,0.507-0.086,1.016-0.147,1.521c-0.064,0.522-0.373,0.819-0.884,0.934c-0.706,0.163-1.405,0.363-2.114,0.503
	c-0.846,0.164-1.704,0.235-2.565,0.239c-1.166,0.002-2.332-0.013-3.499-0.023c-0.096-0.001-0.145,0.006-0.145,0.127
	c0,0.338-0.203,0.601-0.537,0.643c-0.324,0.041-0.657,0.057-0.983,0.039c-1.46-0.077-2.918-0.182-4.379-0.258
	c-0.495-0.024-0.994,0.002-1.49,0.013c-0.646,0.013-1.292,0.008-1.925-0.139c-0.197-0.044-0.386-0.13-0.571-0.215
	c-0.129-0.06-0.188-0.178-0.199-0.324c-0.028-0.394-0.06-0.79-0.101-1.185c-0.007-0.059-0.07-0.161-0.103-0.16
	c-0.103,0.006-0.206,0.048-0.305,0.087c-0.007,0.002,0.012,0.1,0.035,0.143c0.063,0.116,0.157,0.218,0.198,0.341
	c0.067,0.195-0.043,0.367-0.249,0.399c-0.189,0.029-0.38,0.054-0.57,0.059c-1.056,0.023-2.113,0.025-3.168,0.065
	c-0.625,0.022-1.247,0.1-1.871,0.146c-0.162,0.013-0.326,0.015-0.487-0.002c-0.571-0.06-0.667-0.271-0.771-0.728
	c-0.173-0.761-0.162-1.538-0.202-2.311c-0.069-1.284-0.128-2.567-0.213-3.85c-0.07-1.044-0.169-2.087-0.264-3.129
	c-0.075-0.811-0.156-1.617-0.25-2.423c-0.075-0.631-0.17-1.26-0.261-1.887c-0.081-0.563-0.166-1.125-0.253-1.686
	c-0.082-0.527-0.171-1.056-0.255-1.583c-0.106-0.67-0.204-1.34-0.317-2.008C0.495,7.8,0.386,7.244,0.271,6.688
	C0.226,6.464,0.144,6.251,0.088,6.029C0.075,5.982,0.094,5.917,0.114,5.869c0.139-0.305,0.373-0.531,0.651-0.707
	C1.526,4.679,2.289,4.2,3.054,3.726c0.546-0.339,1.1-0.669,1.648-1.004c0.208-0.126,0.419-0.228,0.67-0.219
	C5.481,2.508,5.59,2.532,5.61,2.644c0.014,0.076-0.014,0.193-0.067,0.244c-0.15,0.137-0.312,0.264-0.485,0.372
	c-0.495,0.312-1,0.613-1.497,0.923C3.47,4.241,3.392,4.319,3.307,4.389C3.316,4.407,3.323,4.425,3.333,4.443z M19.562,15.97
	c0.009-1.707,0.032-4.05,0.028-6.39c-0.003-1.64-0.041-3.279-0.233-4.911c-0.076-0.646-0.422-1.078-1.034-1.292
	c-0.488-0.173-0.993-0.234-1.507-0.243c-1.225-0.02-2.446-0.01-3.646,0.293c-0.736,0.184-1.44,0.458-2.123,0.789
	c-0.204,0.099-0.281,0.231-0.269,0.449c0.036,0.71,0.058,1.423,0.096,2.134c0.066,1.182,0.152,2.364,0.205,3.548
	c0.1,2.264,0.098,4.53,0.068,6.796c-0.046,3.389-0.105,6.776-0.159,10.164c-0.007,0.483,0.004,0.502,0.494,0.503
	c0.501,0.001,1.003,0,1.505-0.026c1.864-0.088,3.712,0.102,5.565,0.275c0.278,0.026,0.379-0.048,0.465-0.322
	c0.12-0.379,0.135-0.77,0.154-1.161c0.071-1.359,0.137-2.719,0.188-4.081C19.429,20.531,19.482,18.568,19.562,15.97z M20.244,22.91
	c0.054-0.02,0.108-0.033,0.156-0.062c0.245-0.145,0.494-0.29,0.732-0.443c0.095-0.06,0.137-0.03,0.178,0.054
	c0.091,0.182,0.066,0.303-0.104,0.416c-0.265,0.177-0.539,0.345-0.8,0.527c-0.062,0.042-0.103,0.128-0.128,0.201
	c-0.026,0.086-0.032,0.181-0.034,0.271c0,0.059,0.021,0.119,0.032,0.179c0.059-0.016,0.12-0.019,0.169-0.048
	c0.234-0.145,0.464-0.299,0.701-0.44c0.062-0.037,0.141-0.057,0.214-0.059c0.038-0.002,0.101,0.042,0.113,0.08
	c0.018,0.038,0.002,0.104-0.023,0.141c-0.034,0.049-0.09,0.084-0.14,0.12c-0.275,0.19-0.537,0.402-0.829,0.563
	c-0.293,0.161-0.368,0.401-0.361,0.701c0.002,0.062,0.002,0.123,0.008,0.187c0.011,0.135,0.038,0.155,0.156,0.095
	c0.201-0.1,0.396-0.207,0.599-0.304c0.238-0.114,0.483-0.221,0.729-0.322c0.036-0.017,0.129,0.002,0.137,0.025
	c0.018,0.045,0.007,0.118-0.021,0.156c-0.051,0.065-0.117,0.128-0.19,0.168c-0.41,0.23-0.829,0.45-1.237,0.684
	c-0.088,0.049-0.18,0.142-0.209,0.234c-0.043,0.136-0.038,0.29-0.043,0.436c-0.004,0.155,0.033,0.19,0.178,0.142
	c0.213-0.074,0.42-0.173,0.632-0.259c0.282-0.115,0.562-0.233,0.848-0.34c0.042-0.017,0.107,0.026,0.163,0.045
	c-0.019,0.054-0.026,0.12-0.059,0.164c-0.035,0.049-0.097,0.077-0.149,0.109c-0.357,0.207-0.719,0.413-1.074,0.626
	c-0.098,0.058-0.189,0.128-0.27,0.207c-0.079,0.079-0.055,0.149,0.06,0.17c0.093,0.017,0.189,0.019,0.285,0.015
	c1.236-0.036,2.474-0.052,3.711-0.121c0.593-0.03,1.183-0.15,1.771-0.241c0.516-0.079,1.026-0.177,1.54-0.264
	c0.252-0.041,0.481-0.112,0.557-0.394c0.047-0.165,0.103-0.332,0.112-0.501c0.067-0.996,0.167-1.993,0.168-2.99
	c0.01-4.316-0.007-8.633-0.029-12.949c-0.004-1.218-0.028-2.437-0.185-3.649c-0.043-0.342-0.139-0.442-0.485-0.449
	c-0.291-0.006-0.584,0.004-0.875,0.012c-0.668,0.019-1.338,0.043-2.006,0.06c-1.408,0.033-2.818,0.06-4.228,0.093
	c-0.188,0.004-0.237,0.055-0.237,0.243c0,0.163,0.021,0.325,0.023,0.487c0.019,0.995,0.037,1.988,0.055,2.983
	c0.006,0.156,0.062,0.202,0.212,0.146c0.22-0.085,0.433-0.19,0.653-0.282c0.054-0.022,0.154-0.056,0.162-0.044
	c0.037,0.062,0.072,0.144,0.062,0.209c-0.009,0.059-0.063,0.129-0.116,0.162c-0.277,0.158-0.56,0.309-0.84,0.456
	c-0.103,0.052-0.151,0.121-0.149,0.235c0.01,0.309,0.012,0.62,0.021,0.931c0.005,0.25,0.011,0.248,0.234,0.125
	c0.291-0.157,0.58-0.309,0.876-0.454c0.044-0.023,0.15-0.023,0.164,0c0.027,0.055,0.039,0.142,0.015,0.196
	c-0.032,0.069-0.093,0.134-0.16,0.174c-0.363,0.226-0.731,0.445-1.104,0.659c-0.097,0.056-0.155,0.115-0.155,0.233
	c0.005,0.319,0,0.64-0.003,0.96c0,0.089,0.042,0.127,0.124,0.102c0.146-0.046,0.29-0.089,0.431-0.147
	c0.234-0.093,0.461-0.202,0.7-0.292c0.058-0.023,0.165-0.026,0.191,0.008c0.038,0.045,0.052,0.157,0.022,0.206
	c-0.055,0.085-0.137,0.168-0.226,0.215c-0.364,0.184-0.731,0.349-1.098,0.523c-0.084,0.038-0.138,0.097-0.138,0.195
	c-0.005,0.287-0.013,0.572-0.011,0.86c0,0.204,0.046,0.228,0.229,0.118c0.276-0.167,0.552-0.339,0.826-0.509
	c0.171-0.104,0.34-0.213,0.516-0.311c0.117-0.067,0.158-0.039,0.176,0.093c0.025,0.192-0.066,0.301-0.221,0.392
	c-0.485,0.294-0.964,0.598-1.448,0.893c-0.12,0.072-0.171,0.172-0.171,0.306c0,0.243,0,0.487,0.004,0.732
	c0.002,0.161,0.053,0.198,0.202,0.141c0.143-0.053,0.281-0.117,0.417-0.184c0.237-0.114,0.472-0.232,0.708-0.345
	c0.133-0.062,0.209-0.008,0.184,0.135c-0.01,0.059-0.037,0.124-0.075,0.163c-0.075,0.074-0.158,0.144-0.25,0.192
	c-0.315,0.179-0.632,0.353-0.955,0.517c-0.155,0.08-0.228,0.192-0.211,0.366c0.013,0.132,0.023,0.268,0.03,0.398
	c0.008,0.155,0.07,0.196,0.209,0.135c0.05-0.021,0.093-0.05,0.138-0.077c0.314-0.187,0.629-0.376,0.947-0.559
	c0.13-0.073,0.254-0.051,0.306,0.043c0.079,0.125-0.011,0.198-0.097,0.258c-0.354,0.23-0.712,0.46-1.072,0.683
	c-0.501,0.311-0.411,0.203-0.434,0.763c-0.002,0.012-0.002,0.027,0,0.042c0.006,0.121,0.054,0.159,0.163,0.107
	c0.108-0.05,0.207-0.117,0.309-0.181c0.264-0.164,0.521-0.334,0.789-0.488c0.051-0.029,0.169-0.02,0.197,0.017
	c0.034,0.043,0.032,0.158-0.002,0.205c-0.08,0.106-0.18,0.207-0.292,0.284c-0.363,0.253-0.738,0.488-1.101,0.745
	c-0.078,0.057-0.159,0.172-0.163,0.264c-0.019,0.408-0.014,0.821-0.016,1.231c0,0.024,0.019,0.051,0.033,0.097
	c0.085-0.045,0.164-0.076,0.23-0.127c0.307-0.216,0.632-0.39,0.988-0.503c0.094-0.031,0.181-0.053,0.234,0.053
	c0.054,0.102,0.012,0.25-0.082,0.305c-0.408,0.237-0.813,0.477-1.222,0.714C20.188,22.301,20.101,22.62,20.244,22.91z
	 M10.173,23.185c-0.016-0.013-0.032-0.024-0.048-0.037c-0.225,0.164-0.45,0.329-0.674,0.492c-0.088,0.065-0.171,0.146-0.268,0.187
	c-0.062,0.024-0.167,0.008-0.219-0.032c-0.046-0.035-0.07-0.138-0.056-0.199c0.021-0.087,0.079-0.171,0.136-0.244
	c0.256-0.332,0.625-0.494,1-0.64c0.169-0.065,0.246-0.177,0.232-0.348c-0.021-0.233-0.061-0.465-0.084-0.696
	c-0.013-0.114-0.076-0.121-0.16-0.097c-0.14,0.043-0.28,0.091-0.42,0.136c-0.167,0.058-0.332,0.125-0.5,0.172
	c-0.128,0.036-0.209-0.041-0.255-0.155c-0.046-0.12,0.06-0.133,0.126-0.165c0.373-0.167,0.744-0.339,1.125-0.493
	c0.119-0.047,0.152-0.118,0.141-0.227c-0.018-0.179-0.045-0.356-0.07-0.538c-0.027-0.199-0.072-0.232-0.253-0.138
	c-0.313,0.158-0.618,0.338-0.93,0.502c-0.102,0.054-0.218,0.097-0.332,0.119c-0.111,0.021-0.205-0.03-0.248-0.146
	c-0.043-0.118,0.016-0.193,0.104-0.256c0.036-0.021,0.074-0.042,0.111-0.062c0.47-0.254,0.939-0.509,1.411-0.758
	c0.09-0.048,0.136-0.104,0.139-0.209c0.002-0.244,0.017-0.488,0.021-0.731c0.003-0.183-0.038-0.215-0.2-0.131
	c-0.375,0.193-0.744,0.4-1.116,0.602c-0.063,0.034-0.12,0.079-0.186,0.105c-0.077,0.03-0.141,0.002-0.14-0.085
	c0-0.072,0.01-0.16,0.05-0.215c0.083-0.107,0.179-0.214,0.289-0.294c0.277-0.204,0.565-0.392,0.849-0.583
	c0.553-0.368,0.44-0.174,0.518-0.852c0.029-0.25,0.004-0.509,0.004-0.781c-0.054,0.013-0.112,0.016-0.161,0.041
	c-0.379,0.187-0.756,0.383-1.134,0.57c-0.07,0.036-0.148,0.077-0.223,0.082c-0.055,0.002-0.134-0.037-0.163-0.085
	c-0.021-0.034,0.006-0.12,0.038-0.161c0.047-0.063,0.115-0.114,0.182-0.158c0.453-0.314,0.913-0.626,1.367-0.941
	c0.061-0.042,0.142-0.1,0.152-0.16c0.05-0.28-0.01-0.553-0.068-0.863c-0.179,0.124-0.341,0.224-0.491,0.339
	c-0.169,0.132-0.328,0.275-0.493,0.414c-0.115,0.096-0.229,0.076-0.354-0.046c-0.107-0.103-0.036-0.183,0.032-0.256
	c0.137-0.146,0.272-0.295,0.424-0.424c0.245-0.207,0.504-0.393,0.752-0.598c0.062-0.05,0.145-0.134,0.142-0.199
	c-0.016-0.335-0.058-0.67-0.091-1.03c-0.086,0.037-0.138,0.048-0.18,0.076C9.75,13.155,9.5,13.328,9.246,13.498
	c-0.057,0.037-0.11,0.081-0.172,0.101c-0.13,0.035-0.212-0.037-0.282-0.141c-0.073-0.109-0.009-0.178,0.066-0.23
	c0.369-0.252,0.74-0.503,1.118-0.742c0.1-0.065,0.158-0.128,0.147-0.248c-0.017-0.191-0.021-0.383-0.047-0.57
	c-0.021-0.168-0.071-0.194-0.227-0.121c-0.228,0.108-0.451,0.225-0.676,0.342c-0.149,0.078-0.246,0.021-0.263-0.149
	c-0.013-0.134,0.072-0.206,0.162-0.267c0.264-0.179,0.533-0.352,0.803-0.52c0.09-0.057,0.136-0.12,0.135-0.23
	c-0.011-0.658,0.006-1.318-0.023-1.977C9.925,7.41,9.841,6.073,9.766,4.737c-0.01-0.206-0.032-0.246-0.232-0.272
	C9.14,4.417,8.747,4.364,8.352,4.342C7.196,4.284,6.05,4.391,4.924,4.653C4.372,4.784,3.821,4.926,3.283,5.099
	C2.634,5.307,2,5.554,1.36,5.785C1.137,5.866,1.032,6.033,1.059,6.264c0.037,0.309,0.087,0.615,0.14,0.919
	C1.279,7.663,1.377,8.14,1.456,8.622c0.089,0.539,0.168,1.084,0.249,1.627c0.071,0.476,0.141,0.954,0.206,1.432
	c0.086,0.648,0.169,1.297,0.251,1.946c0.073,0.564,0.146,1.127,0.212,1.693c0.086,0.743,0.17,1.488,0.25,2.234
	c0.072,0.686,0.144,1.367,0.205,2.053c0.07,0.796,0.131,1.59,0.194,2.386c0.054,0.683,0.104,1.364,0.149,2.044
	c0.06,0.846,0.112,1.688,0.169,2.532c0.014,0.196,0.1,0.303,0.296,0.327c0.268,0.03,0.54,0.051,0.812,0.047
	c0.563-0.006,1.127-0.035,1.689-0.044c0.828-0.016,1.654-0.021,2.482-0.029c0.189-0.004,0.363-0.044,0.513-0.18
	c0.19-0.17,0.375-0.369,0.599-0.477c0.291-0.138,0.371-0.327,0.325-0.619c-0.02-0.129-0.018-0.259-0.027-0.413
	c-0.08,0.037-0.126,0.061-0.172,0.083c-0.228,0.11-0.459,0.223-0.722,0.197c-0.079-0.009-0.15-0.071-0.227-0.107
	c0.045-0.073,0.084-0.152,0.139-0.217c0.03-0.038,0.088-0.056,0.134-0.078c0.277-0.148,0.553-0.299,0.835-0.438
	c0.15-0.075,0.186-0.188,0.177-0.341c-0.012-0.232-0.016-0.465-0.021-0.699C10.171,23.448,10.173,23.315,10.173,23.185z"/>
<path fill-rule="evenodd" clip-rule="evenodd" fill="#48689A" d="M17.386,8.877c-0.021,0.629-0.021,1.262-0.065,1.89
	c-0.092,1.329-0.211,2.658-0.31,3.986c-0.052,0.724-0.078,1.45-0.127,2.174c-0.029,0.44-0.066,0.878-0.113,1.313
	c-0.021,0.192-0.119,0.354-0.275,0.469c-0.053,0.039-0.134,0.049-0.201,0.049c-0.244,0.001-0.487-0.006-0.731-0.014
	c-0.389-0.018-0.77,0.034-1.153,0.092c-0.239,0.037-0.485,0.029-0.728,0.028c-0.138,0-0.236-0.074-0.252-0.224
	c-0.034-0.341-0.078-0.682-0.095-1.024c-0.066-1.317-0.116-2.636-0.188-3.953c-0.052-0.979-0.152-1.955-0.184-2.933
	c-0.03-0.906,0.002-1.814,0.008-2.722c0.002-0.296,0.005-0.593,0.017-0.889c0.007-0.138,0.025-0.276,0.054-0.409
	c0.032-0.147,0.14-0.231,0.288-0.237c0.922-0.041,1.842-0.104,2.764-0.104c0.362,0,0.724,0.136,1.085,0.229
	c0.19,0.05,0.261,0.207,0.255,0.4c-0.016,0.531-0.03,1.061-0.047,1.593c-0.002,0.094-0.01,0.189-0.017,0.284L17.386,8.877z
	 M13.766,12.622c0.037,0.859,0.071,1.719,0.11,2.577c0.041,0.927,0.087,1.854,0.125,2.779c0.006,0.143,0.071,0.196,0.204,0.191
	c0.042,0,0.085,0,0.128,0c0.545-0.018,1.087-0.034,1.634-0.047c0.181-0.004,0.219-0.023,0.239-0.208
	c0.041-0.39,0.075-0.779,0.1-1.17c0.086-1.347,0.168-2.689,0.244-4.035c0.069-1.241,0.137-2.481,0.19-3.722
	c0.025-0.567,0.022-1.137,0.028-1.705c0.002-0.196-0.059-0.269-0.243-0.315c-0.068-0.015-0.142-0.031-0.214-0.029
	C15.469,6.968,14.625,7,13.78,7.036c-0.184,0.008-0.209,0.042-0.211,0.229c-0.003,0.201,0.01,0.4,0.018,0.601
	C13.646,9.451,13.707,11.036,13.766,12.622z"/>
<path fill-rule="evenodd" clip-rule="evenodd" fill="#48689A" d="M15.166,24.429c-0.407,0.014-0.809,0-1.208-0.112
	c-0.846-0.233-1.341-1.141-1.043-1.972c0.231-0.648,0.602-1.203,1.253-1.49c0.593-0.262,1.217-0.33,1.839-0.094
	c0.444,0.168,0.728,0.522,0.918,0.94c0.146,0.321,0.253,0.667,0.343,1.011c0.064,0.245-0.043,0.479-0.151,0.699
	c-0.172,0.352-0.378,0.686-0.746,0.859c-0.181,0.086-0.39,0.128-0.587,0.151C15.578,24.447,15.371,24.429,15.166,24.429z
	 M15.04,22.51c-0.01-0.002-0.019-0.002-0.028-0.002c0-0.134,0.009-0.267-0.001-0.402c-0.011-0.153-0.036-0.31-0.063-0.463
	c-0.006-0.029-0.047-0.072-0.071-0.071c-0.027,0-0.059,0.041-0.078,0.069c-0.019,0.031-0.029,0.069-0.035,0.108
	c-0.036,0.24-0.093,0.48-0.097,0.721c-0.007,0.343,0.021,0.685,0.045,1.025c0.005,0.057,0.076,0.109,0.117,0.164
	c0.051-0.053,0.105-0.1,0.151-0.153c0.016-0.019,0.016-0.057,0.016-0.084C15.011,23.118,15.024,22.813,15.04,22.51z M15.577,21.557
	c-0.019-0.003-0.036-0.004-0.054-0.005c-0.022,0.051-0.056,0.099-0.063,0.149c-0.079,0.471-0.159,0.938-0.223,1.409
	c-0.017,0.124,0.004,0.257,0.023,0.383c0.015,0.095,0.055,0.201,0.177,0.184c0.123-0.015,0.187-0.103,0.187-0.231
	c-0.001-0.547,0-1.097-0.003-1.643C15.618,21.721,15.592,21.637,15.577,21.557z M14.31,22.366c0,0-0.003,0-0.004,0
	c0-0.128,0.003-0.257-0.004-0.386c0-0.038-0.028-0.074-0.044-0.112c-0.034,0.015-0.072,0.023-0.1,0.046
	c-0.399,0.335-0.426,1.069-0.053,1.431c0.027,0.027,0.075,0.044,0.111,0.043c0.015,0,0.038-0.062,0.04-0.095
	C14.276,22.985,14.292,22.676,14.31,22.366z M16.089,23.292c0.208-0.158,0.238-0.878,0.03-1.073
	C16.054,22.588,16.015,22.926,16.089,23.292z"/>
<path fill-rule="evenodd" clip-rule="evenodd" fill="#48689A" d="M23.659,13.102c0,1.602-0.004,3.202,0,4.805
	c0,0.162,0.011,0.324,0.021,0.488c0.008,0.119,0.083,0.178,0.198,0.181c0.494,0.007,0.985,0.001,1.47-0.109
	c0.116-0.027,0.128-0.119,0.139-0.208c0.043-0.433,0.074-0.865,0.12-1.297c0.067-0.66,0.141-1.321,0.212-1.982
	c0.085-0.772,0.184-1.546,0.247-2.321c0.087-1.091,0.147-2.185,0.216-3.277c0.028-0.405,0.048-0.811,0.072-1.217
	c0-0.019,0-0.037,0.004-0.056c0.027-0.414,0.247-0.56,0.64-0.411c0.055,0.021,0.105,0.113,0.11,0.175
	c0.013,0.132-0.003,0.268-0.013,0.4c-0.069,0.881-0.14,1.763-0.212,2.644c-0.058,0.689-0.116,1.381-0.184,2.07
	c-0.061,0.591-0.133,1.176-0.201,1.766c-0.084,0.715-0.177,1.433-0.255,2.147c-0.066,0.595-0.117,1.189-0.182,1.783
	c-0.035,0.338-0.296,0.572-0.636,0.574c-0.631,0.004-1.263,0.007-1.893,0.008c-0.035,0-0.066,0-0.101-0.001
	c-0.317-0.016-0.405-0.112-0.396-0.429c0.019-0.835,0.095-1.674,0.05-2.506c-0.126-2.363-0.173-4.729-0.231-7.094
	c-0.019-0.662,0.031-1.328,0.052-1.992c0.007-0.182,0.037-0.229,0.221-0.229c0.32,0.001,0.639,0.022,0.958,0.048
	c0.246,0.02,0.491,0.066,0.739,0.093c0.11,0.014,0.193,0.044,0.208,0.171c0.023,0.176-0.023,0.313-0.139,0.359
	c-0.071,0.028-0.155,0.047-0.234,0.045c-0.291-0.008-0.583-0.021-0.872-0.044c-0.236-0.017-0.284,0.017-0.28,0.253
	c0.016,0.712,0.035,1.424,0.052,2.137c0.025,1.008,0.047,2.016,0.072,3.025C23.639,13.102,23.651,13.102,23.659,13.102z"/>
<path fill-rule="evenodd" clip-rule="evenodd" fill="#48689A" d="M22.378,23.907c0.023-0.505,0.179-0.924,0.386-1.323
	c0.143-0.277,0.36-0.48,0.676-0.523c0.328-0.047,0.665-0.092,0.995-0.076c0.426,0.022,0.78,0.231,1.063,0.557
	c0.301,0.346,0.549,0.729,0.618,1.189c0.094,0.617-0.199,1.078-0.674,1.438c-0.468,0.356-0.994,0.381-1.542,0.272
	c-0.341-0.069-0.65-0.211-0.942-0.399C22.529,24.762,22.347,24.364,22.378,23.907z M24.653,23.091
	c-0.023,0.053-0.05,0.081-0.049,0.112c0.008,0.408,0.015,0.814,0.034,1.223c0.003,0.039,0.069,0.102,0.11,0.109
	c0.052,0.002,0.126-0.028,0.156-0.07c0.148-0.189,0.271-0.384,0.188-0.65C25.006,23.543,24.899,23.292,24.653,23.091z
	 M24.238,23.794c0,0,0.014,0,0.019,0c0-0.156,0.003-0.313,0-0.47c-0.001-0.075,0.005-0.157-0.015-0.227
	c-0.013-0.043-0.072-0.102-0.11-0.101c-0.047,0.002-0.112,0.044-0.135,0.089c-0.034,0.063-0.045,0.146-0.045,0.22
	c-0.007,0.321-0.007,0.639-0.002,0.959c0,0.06,0.012,0.131,0.047,0.174c0.038,0.05,0.107,0.071,0.163,0.106
	c0.028-0.049,0.072-0.098,0.074-0.149C24.244,24.194,24.238,23.996,24.238,23.794z M23.479,23.358
	c-0.151,0.09-0.214,0.227-0.193,0.385c0.03,0.232,0.08,0.327,0.193,0.358C23.479,23.859,23.479,23.619,23.479,23.358z"/>
<path fill-rule="evenodd" clip-rule="evenodd" fill="#48689A" d="M25.065,10.213c-0.344-0.039-0.692-0.069-1.033-0.125
	c-0.076-0.012-0.166-0.097-0.202-0.172c-0.146-0.305-0.15-0.64-0.128-0.969c0.015-0.224,0.062-0.451,0.131-0.666
	c0.069-0.211,0.238-0.326,0.474-0.318c0.509,0.016,1,0.122,1.48,0.282c0.144,0.049,0.22,0.147,0.228,0.296
	c0.014,0.468,0.014,0.936-0.114,1.391c-0.056,0.194-0.17,0.263-0.374,0.266c-0.077,0-0.154-0.004-0.229-0.005
	c-0.076,0-0.152,0-0.231,0C25.066,10.199,25.066,10.207,25.065,10.213z"/>
<path fill-rule="evenodd" clip-rule="evenodd" fill="#48689A" d="M2.85,7.5C2.857,7.41,2.861,7.318,2.874,7.227
	c0.032-0.208,0.067-0.253,0.271-0.292C3.459,6.88,3.774,6.826,4.093,6.788c0.134-0.017,0.275,0,0.412,0.021
	c0.267,0.042,0.52-0.018,0.778-0.07C5.769,6.641,6.259,6.559,6.76,6.587c0.006,0.002,0.01,0.002,0.01,0.002
	c0.427,0.022,0.533,0.138,0.559,0.56c0.153,2.533,0.242,5.068,0.276,7.607c0.009,0.613,0.077,1.22,0.2,1.821
	c0.009,0.041,0.013,0.084,0.017,0.128c0.017,0.232-0.103,0.357-0.337,0.332c-0.044-0.005-0.099-0.068-0.118-0.116
	c-0.199-0.521-0.295-1.063-0.32-1.622c-0.046-1.073-0.092-2.147-0.14-3.223c-0.052-1.173-0.101-2.349-0.163-3.521
	c-0.021-0.42-0.078-0.837-0.119-1.256C6.611,7.192,6.55,7.149,6.444,7.17C5.592,7.333,4.728,7.357,3.862,7.384
	C3.587,7.395,3.508,7.472,3.529,7.75c0.026,0.333,0.071,0.666,0.13,0.992c0.133,0.739,0.298,1.47,0.414,2.21
	c0.092,0.583,0.115,1.179,0.194,1.764c0.064,0.477,0.152,0.951,0.252,1.423c0.159,0.743,0.298,1.487,0.325,2.249
	c0.014,0.366,0.059,0.733,0.107,1.096c0.024,0.179,0.092,0.222,0.27,0.199c0.316-0.047,0.629-0.113,0.944-0.161
	c0.068-0.01,0.173-0.009,0.204,0.029c0.044,0.061,0.068,0.165,0.049,0.236c-0.048,0.2-0.198,0.324-0.389,0.383
	c-0.275,0.085-0.549,0.177-0.829,0.216c-0.196,0.03-0.406-0.004-0.604-0.039c-0.134-0.024-0.217-0.133-0.226-0.28
	c-0.022-0.434-0.034-0.869-0.075-1.3c-0.04-0.443-0.11-0.883-0.161-1.322c-0.037-0.315-0.051-0.629-0.096-0.941
	c-0.055-0.388-0.12-0.775-0.201-1.155C3.691,12.67,3.553,11.994,3.515,11.3c-0.024-0.474-0.128-0.933-0.247-1.393
	C3.068,9.116,2.882,8.321,2.85,7.5z"/>
<path fill-rule="evenodd" clip-rule="evenodd" fill="#48689A" d="M6.052,24.507c-1.12,0.015-1.86-0.703-2.182-1.614
	c-0.184-0.516-0.062-1.001,0.225-1.445c0.287-0.446,0.667-0.798,1.169-0.996c0.352-0.138,0.708-0.089,1.05,0.034
	c0.54,0.195,1.033,0.472,1.42,0.907c0.428,0.483,0.541,1.046,0.396,1.669c-0.19,0.813-0.749,1.217-1.526,1.374
	C6.423,24.472,6.236,24.484,6.052,24.507z M5.858,22.464c0.019,0.357,0.027,0.651,0.053,0.946c0.006,0.069,0.061,0.182,0.106,0.191
	c0.116,0.018,0.25,0.016,0.358-0.027c0.117-0.048,0.066-0.184,0.056-0.284C6.4,23.039,6.36,22.79,6.33,22.541
	c-0.035-0.271-0.057-0.542-0.09-0.812c-0.013-0.101-0.06-0.185-0.178-0.188c-0.113-0.004-0.146,0.085-0.153,0.172
	C5.886,21.982,5.872,22.253,5.858,22.464z M6.695,22.688C6.7,22.688,6.706,22.69,6.712,22.69c0.009,0.2,0.012,0.4,0.029,0.6
	c0.017,0.174,0.11,0.213,0.251,0.111c0.129-0.096,0.227-0.21,0.271-0.372c0.12-0.441-0.083-0.799-0.302-1.148
	c-0.065-0.102-0.154-0.078-0.174,0.045C6.745,22.177,6.724,22.434,6.695,22.688z M5.41,23.411c0.007-0.08,0.019-0.137,0.016-0.192
	c-0.021-0.432-0.045-0.862-0.07-1.298c-0.001-0.019,0-0.041-0.01-0.055c-0.033-0.056-0.071-0.106-0.105-0.16
	c-0.054,0.037-0.13,0.061-0.154,0.109c-0.068,0.143-0.131,0.288-0.167,0.438c-0.113,0.452,0.078,0.807,0.39,1.113
	C5.328,23.384,5.358,23.389,5.41,23.411z"/>
<path fill-rule="evenodd" clip-rule="evenodd" fill="#48689A" d="M3.798,8.331c0.006-0.246,0.107-0.355,0.347-0.366
	c0.51-0.021,1-0.127,1.473-0.314c0.015-0.005,0.026-0.013,0.04-0.017c0.312-0.109,0.408-0.051,0.476,0.27
	c0.069,0.321,0.145,0.64,0.217,0.959C6.355,8.881,6.359,8.899,6.362,8.92c0.054,0.339-0.023,0.432-0.365,0.478
	c-0.245,0.033-0.49,0.073-0.731,0.131C5.057,9.577,4.856,9.653,4.65,9.71C4.432,9.772,4.36,9.749,4.27,9.55
	C4.117,9.218,3.981,8.877,3.842,8.54C3.816,8.475,3.812,8.401,3.798,8.331z"/>
<path fill-rule="evenodd" clip-rule="evenodd" fill="#FFFFFF" d="M24.653,23.091c0.246,0.201,0.353,0.452,0.439,0.724
	c0.084,0.267-0.039,0.461-0.188,0.65c-0.03,0.042-0.104,0.072-0.156,0.07c-0.041-0.008-0.107-0.07-0.11-0.109
	c-0.02-0.408-0.026-0.814-0.034-1.223C24.604,23.172,24.63,23.144,24.653,23.091z"/>
<path fill-rule="evenodd" clip-rule="evenodd" fill="#48689A" d="M15.27,7.29c0.25,0.016,0.595,0.025,0.935,0.059
	c0.26,0.027,0.286,0.074,0.284,0.33c0,0.301-0.002,0.602-0.004,0.902c0,0.106-0.043,0.172-0.157,0.182
	c-0.526,0.042-1.054,0.093-1.583,0.122c-0.182,0.009-0.368-0.025-0.549-0.058c-0.119-0.021-0.179-0.112-0.178-0.241
	c0.002-0.333,0-0.667-0.001-1.001c-0.001-0.123,0.06-0.189,0.176-0.201C14.52,7.354,14.848,7.326,15.27,7.29z"/>
</svg>
