<?xml version="1.0" encoding="utf-8"?>
<!-- Generator: Adobe Illustrator 16.0.0, SVG Export Plug-In . SVG Version: 6.00 Build 0)  -->
<!DOCTYPE svg PUBLIC "-//W3C//DTD SVG 1.1//EN" "http://www.w3.org/Graphics/SVG/1.1/DTD/svg11.dtd">
<svg version="1.1" id="Layer_1" xmlns="http://www.w3.org/2000/svg" xmlns:xlink="http://www.w3.org/1999/xlink" x="0px" y="0px"
	 width="30px" height="30px" viewBox="0 0 30 30" enable-background="new 0 0 30 30" xml:space="preserve">
<path fill-rule="evenodd" clip-rule="evenodd" fill="#48689A" d="M8.419,6.234C8.375,5.919,8.337,5.619,8.296,5.318
	c-0.1-0.721-0.14-1.446-0.087-2.172c0.012-0.183,0.074-0.364,0.131-0.54C8.396,2.44,8.539,2.355,8.708,2.323
	C9.12,2.246,9.533,2.161,9.949,2.107c0.623-0.082,1.246-0.152,1.871-0.201C13,1.815,14.18,1.711,15.362,1.665
	c1.601-0.062,3.204-0.084,4.803-0.101c0.446-0.005,0.898,0.048,1.342,0.106c0.32,0.042,0.634,0.151,0.769,0.473
	c0.075,0.185,0.115,0.395,0.135,0.595c0.082,0.904,0.153,1.808,0.225,2.712c0.007,0.11,0.042,0.134,0.15,0.13
	c1.008-0.036,2.02-0.081,3.032-0.089c0.464-0.006,0.931,0.055,1.398,0.1c0.166,0.014,0.317,0.079,0.449,0.198
	c0.172,0.157,0.376,0.287,0.556,0.437c0.55,0.454,0.818,1.053,0.883,1.733c0.042,0.469,0.034,0.942,0.042,1.415
	c0.024,2.078,0.048,4.158,0.07,6.237c0.021,2.488,0.04,4.976,0.063,7.464c0.007,0.599,0.039,1.197,0.049,1.796
	c0.011,0.479-0.051,0.95-0.162,1.414c-0.165,0.674-0.679,1.092-1.389,1.148c-2.271,0.181-4.546,0.155-6.822,0.16
	c-3.075,0.009-6.154-0.005-9.231,0.012c-2.117,0.013-4.232,0.078-6.348,0.088c-1.023,0.003-2.05-0.061-3.075-0.108
	c-0.249-0.013-0.507-0.047-0.742-0.128c-0.344-0.121-0.493-0.428-0.606-0.74c-0.271-0.752-0.326-1.536-0.333-2.321
	c-0.026-4.682-0.046-9.36-0.051-14.042c0-0.409,0.119-0.823,0.228-1.224c0.148-0.54,0.37-1.056,0.672-1.532
	c0.201-0.315,0.415-0.626,0.784-0.772c0.183-0.074,0.385-0.11,0.583-0.132c0.595-0.069,1.192-0.13,1.789-0.181
	c0.586-0.05,1.175-0.089,1.763-0.131C7.018,6.336,7.649,6.295,8.28,6.25C8.322,6.248,8.369,6.239,8.419,6.234z M18.89,16.768
	c-0.031,0.083-0.059,0.124-0.061,0.169c-0.019,0.211-0.049,0.426-0.037,0.638c0.009,0.152,0.047,0.317,0.119,0.453
	c0.225,0.421,0.471,0.832,0.712,1.248c0.112,0.194,0.112,0.205-0.052,0.366c-0.017,0.018-0.034,0.033-0.05,0.05
	c-0.087,0.092-0.169,0.085-0.248-0.007c-0.129-0.153-0.256-0.312-0.389-0.462c-0.046-0.052-0.114-0.084-0.173-0.127
	c-0.037,0.067-0.077,0.135-0.115,0.202c-0.005,0.004-0.002,0.011-0.005,0.015c-0.04,0.292-0.09,0.582-0.116,0.876
	c-0.038,0.384-0.259,0.623-0.609,0.762c-0.5,0.198-1.032,0.247-1.566,0.267c-0.862,0.034-1.723-0.001-2.58-0.11
	c-0.49-0.063-0.977-0.149-1.445-0.319c-0.231-0.083-0.377-0.223-0.414-0.465c-0.016-0.121-0.046-0.241-0.057-0.362
	c-0.112-1.155-0.137-2.311-0.105-3.47c0.01-0.364,0-0.38-0.382-0.354c-0.348,0.02-0.693,0.062-1.038,0.067
	c-1.555,0.026-3.109,0.038-4.664,0.062c-1.134,0.018-2.267,0.041-3.399,0.061c-0.231,0.006-0.255,0.029-0.264,0.254
	c-0.017,0.381-0.037,0.763-0.041,1.145c-0.018,2.023-0.058,4.049,0.053,6.071c0.035,0.654,0.065,1.315,0.276,1.948
	c0.135,0.398,0.366,0.723,0.789,0.86c0.266,0.084,0.546,0.152,0.822,0.164c1.253,0.055,2.508,0.123,3.761,0.119
	c2.374-0.011,4.747-0.067,7.123-0.104c0.14-0.003,0.184-0.058,0.123-0.182c-0.094-0.19-0.207-0.374-0.306-0.562
	c-0.025-0.047-0.057-0.112-0.038-0.148c0.092-0.166,0.27-0.213,0.442-0.253c0.147-0.033,0.213,0.069,0.271,0.168
	c0.149,0.251,0.312,0.498,0.427,0.763c0.1,0.236,0.261,0.312,0.499,0.295c0.357-0.022,0.721-0.043,1.081-0.071
	c0.255-0.021,0.3-0.085,0.196-0.324c-0.108-0.254-0.24-0.498-0.367-0.743c-0.067-0.132-0.058-0.2,0.078-0.247
	c0.396-0.129,0.521-0.079,0.674,0.231c0.015,0.034,0.034,0.065,0.049,0.098c0.111,0.255,0.227,0.506,0.331,0.764
	c0.069,0.174,0.187,0.284,0.383,0.289c0.236,0.007,0.476,0.007,0.712,0c0.263-0.005,0.274-0.027,0.135-0.242
	c-0.038-0.057-0.078-0.114-0.12-0.166c-0.251-0.301-0.496-0.605-0.755-0.898c-0.16-0.183-0.093-0.332,0.068-0.48
	c0.179-0.163,0.357-0.17,0.504-0.011c0.132,0.146,0.254,0.304,0.362,0.467c0.255,0.392,0.5,0.787,0.745,1.184
	c0.1,0.16,0.253,0.232,0.435,0.226c0.261-0.016,0.52-0.046,0.782-0.07c0.084-0.009,0.119-0.05,0.081-0.131
	c-0.066-0.138-0.123-0.282-0.203-0.415c-0.273-0.459-0.554-0.914-0.824-1.374c-0.032-0.053-0.042-0.146-0.015-0.196
	c0.146-0.26,0.397-0.268,0.563-0.025c0.009,0.016,0.02,0.032,0.028,0.048c0.371,0.665,0.743,1.329,1.109,1.995
	c0.051,0.092,0.118,0.146,0.222,0.137c0.169-0.014,0.342-0.026,0.511-0.062c0.339-0.071,0.349-0.089,0.185-0.396
	c-0.335-0.618-0.767-1.169-1.203-1.72c-0.082-0.099-0.093-0.186-0.033-0.283c0.06-0.085,0.127-0.169,0.207-0.236
	c0.121-0.103,0.201-0.091,0.293,0.033c0.097,0.135,0.19,0.271,0.27,0.414c0.358,0.641,0.72,1.28,1.062,1.928
	c0.118,0.221,0.297,0.307,0.533,0.299c0.245-0.008,0.485-0.029,0.727-0.047c0.139-0.011,0.175-0.05,0.112-0.172
	c-0.132-0.256-0.263-0.513-0.425-0.749c-0.367-0.525-0.752-1.039-1.132-1.555c-0.126-0.174-0.099-0.297,0.088-0.422
	c0.184-0.121,0.268-0.11,0.39,0.078c0.173,0.264,0.34,0.532,0.5,0.805c0.339,0.571,0.678,1.146,1.009,1.723
	c0.096,0.167,0.24,0.227,0.421,0.208c0.209-0.021,0.415-0.06,0.622-0.095c0.086-0.015,0.108-0.064,0.064-0.14
	c-0.073-0.131-0.137-0.268-0.225-0.391c-0.502-0.709-1.007-1.417-1.517-2.123c-0.076-0.106-0.125-0.21-0.093-0.341
	c0.039-0.152,0.126-0.271,0.291-0.319c0.165-0.047,0.217,0.084,0.297,0.175c0.017,0.016,0.03,0.035,0.04,0.056
	c0.299,0.502,0.596,1.004,0.891,1.508c0.265,0.458,0.518,0.922,0.788,1.376c0.163,0.269,0.302,0.276,0.499,0.028
	c0.115-0.137,0.189-0.303,0.295-0.445c0.077-0.105,0.066-0.194-0.002-0.298c-0.477-0.703-0.954-1.409-1.43-2.114
	c-0.188-0.28-0.383-0.558-0.562-0.844c-0.082-0.13-0.008-0.27,0.165-0.366c0.164-0.091,0.204-0.082,0.318,0.079
	c0.034,0.049,0.07,0.098,0.101,0.147c0.393,0.668,0.784,1.339,1.179,2.006c0.1,0.171,0.209,0.332,0.321,0.495
	c0.056,0.081,0.116,0.078,0.141-0.026c0.018-0.089,0.042-0.177,0.04-0.269c-0.002-0.462-0.01-0.924-0.023-1.389
	c-0.002-0.072-0.026-0.154-0.066-0.216c-0.386-0.602-0.772-1.197-1.162-1.797c-0.178-0.274-0.145-0.636,0.091-0.88
	c0.086-0.091,0.15-0.092,0.232,0.006c0.034,0.039,0.066,0.084,0.09,0.133c0.171,0.322,0.339,0.646,0.506,0.969
	c0.064,0.126,0.124,0.252,0.185,0.377c0.015-0.004,0.026-0.005,0.041-0.011c0.001-0.045,0.009-0.095,0.007-0.143
	c-0.018-0.403-0.031-0.807-0.06-1.21c-0.01-0.101-0.051-0.213-0.111-0.296c-0.164-0.222-0.349-0.426-0.517-0.641
	c-0.136-0.177-0.093-0.327,0.128-0.497c0.125-0.099,0.167-0.087,0.34,0.103c0.058,0.063,0.106,0.133,0.164,0.202
	c0.026,0.032,0.058,0.064,0.112,0.124c0.021-0.084,0.042-0.134,0.044-0.182c0.04-1.091,0.082-2.179,0.119-3.268
	c0.005-0.226-0.129-0.348-0.368-0.353c-0.166-0.005-0.335-0.004-0.503-0.007c-0.6-0.015-1.197-0.033-1.798-0.048
	c-0.148-0.003-0.188,0.051-0.136,0.183c0.042,0.103,0.1,0.194,0.16,0.286c0.12,0.183,0.116,0.233-0.054,0.372
	c-0.051,0.04-0.106,0.075-0.165,0.104c-0.209,0.109-0.303,0.091-0.403-0.12c-0.104-0.225-0.188-0.46-0.271-0.694
	c-0.03-0.094-0.082-0.148-0.173-0.152c-0.19-0.007-0.383-0.002-0.574,0c-0.1,0.002-0.124,0.043-0.069,0.13
	c0.154,0.247,0.301,0.499,0.457,0.745c0.114,0.181,0.114,0.2-0.056,0.329c-0.026,0.02-0.053,0.037-0.081,0.055
	c-0.242,0.148-0.307,0.144-0.463-0.092c-0.209-0.312-0.4-0.632-0.607-0.944c-0.037-0.053-0.106-0.104-0.171-0.111
	c-0.23-0.032-0.465-0.044-0.7-0.063c-0.176-0.015-0.213,0.025-0.124,0.175c0.25,0.426,0.508,0.845,0.766,1.264
	c0.123,0.192,0.129,0.222-0.054,0.371c-0.319,0.264-0.355,0.216-0.52-0.062c-0.311-0.521-0.609-1.05-0.889-1.586
	c-0.106-0.208-0.234-0.292-0.465-0.265c-0.115,0.014-0.232,0.007-0.379,0.011c0.054,0.116,0.084,0.197,0.128,0.271
	c0.313,0.52,0.631,1.037,0.94,1.558c0.036,0.056,0.062,0.146,0.043,0.199c-0.066,0.188-0.437,0.343-0.585,0.119
	c-0.042-0.063-0.104-0.119-0.138-0.185c-0.342-0.626-0.682-1.25-1.012-1.878c-0.052-0.099-0.111-0.168-0.225-0.173
	c-0.22-0.012-0.441-0.024-0.661-0.022c-0.157,0.002-0.177,0.056-0.093,0.187c0.474,0.729,0.942,1.458,1.412,2.19
	c0.024,0.036,0.046,0.111,0.025,0.132c-0.105,0.11-0.211,0.229-0.344,0.298c-0.038,0.021-0.165-0.114-0.247-0.18
	c-0.017-0.013-0.03-0.033-0.044-0.053c-0.225-0.344-0.45-0.688-0.675-1.034C19.075,17.062,18.993,16.933,18.89,16.768z
	 M23.545,14.677c0,0.007,0,0.015,0,0.023c1.233-0.025,2.471-0.049,3.707-0.077c0.261-0.007,0.521-0.029,0.784-0.049
	c0.198-0.017,0.263-0.101,0.231-0.289c-0.017-0.095-0.033-0.188-0.038-0.284c-0.053-0.759-0.097-1.52-0.153-2.281
	c-0.066-0.869-0.139-1.738-0.208-2.605c-0.04-0.504-0.089-1.004-0.279-1.479c-0.146-0.365-0.363-0.676-0.752-0.836
	c-0.281-0.117-0.58-0.134-0.883-0.125c-2.016,0.062-4.034,0.109-6.051,0.188c-1.979,0.076-3.956,0.185-5.933,0.278
	C12.409,7.216,10.848,7.29,9.284,7.36c-1.52,0.067-3.039,0.12-4.559,0.197C4.302,7.579,3.867,7.618,3.469,7.743
	C2.513,8.044,2.027,8.774,1.864,9.686c-0.098,0.531-0.09,1.084-0.079,1.627c0.021,1.193,0.075,2.387,0.116,3.579
	c0.005,0.168,0.046,0.22,0.224,0.229c0.317,0.015,0.636,0.03,0.953,0.022c1.428-0.033,2.854-0.094,4.283-0.105
	c1.386-0.012,2.772,0.021,4.158,0.039c0.146,0,0.22-0.051,0.229-0.19c0.012-0.235,0.04-0.47,0.04-0.706
	c0-0.223,0.108-0.368,0.294-0.474c0.313-0.177,0.662-0.253,1.017-0.271c0.703-0.035,1.404-0.061,2.104-0.076
	c1.032-0.02,2.061-0.03,3.09-0.042c0.309-0.003,0.495,0.108,0.59,0.387c0.062,0.194,0.072,0.408,0.096,0.612
	c0.013,0.109-0.044,0.275,0.011,0.316c0.08,0.062,0.23,0.042,0.351,0.042C20.744,14.678,22.143,14.677,23.545,14.677z M16.204,2.702
	c0-0.013,0-0.023,0-0.035C14.902,2.706,13.6,2.739,12.3,2.789c-0.731,0.027-1.465,0.075-2.186,0.233
	C9.636,3.128,9.401,3.349,9.387,3.797C9.367,4.5,9.374,5.204,9.367,5.906C9.365,6.02,9.416,6.044,9.522,6.031
	c0.223-0.023,0.447-0.038,0.67-0.054c0.226-0.014,0.24-0.032,0.212-0.258c-0.039-0.347-0.06-0.698,0.046-1.04
	c0.106-0.345,0.303-0.634,0.69-0.719c0.411-0.092,0.831-0.179,1.252-0.219c0.843-0.077,1.69-0.122,2.534-0.18
	c1.24-0.087,2.479-0.097,3.718-0.039c0.335,0.017,0.673,0.065,1.006,0.108c0.183,0.022,0.314,0.114,0.356,0.297
	c0.04,0.186,0.093,0.372,0.104,0.56c0.017,0.357,0.002,0.716,0.002,1.075c0,0.199,0.004,0.214,0.209,0.205
	c0.375-0.019,0.747-0.049,1.119-0.087c0.048-0.006,0.127-0.078,0.132-0.126c0.021-0.166,0.026-0.335,0.018-0.501
	c-0.021-0.327-0.051-0.651-0.083-0.976c-0.026-0.257-0.044-0.516-0.103-0.767c-0.101-0.415-0.371-0.608-0.807-0.608
	C19.134,2.702,17.667,2.702,16.204,2.702z M14.719,16.977c0,0,0-0.002,0-0.003c0.061,0,0.122,0.001,0.181,0
	c0.754-0.013,1.506-0.031,2.254-0.162c0.216-0.038,0.382-0.123,0.406-0.357c0.019-0.225,0.04-0.453,0.035-0.678
	c-0.011-0.371-0.049-0.741-0.064-1.113c-0.013-0.232-0.053-0.277-0.295-0.304c-0.209-0.022-0.416-0.046-0.627-0.065
	c-1.12-0.101-2.233-0.025-3.345,0.107c-0.178,0.02-0.262,0.11-0.29,0.261c-0.048,0.258-0.105,0.516-0.122,0.777
	c-0.028,0.425-0.033,0.852-0.032,1.278c0,0.212,0.068,0.261,0.283,0.26C13.643,16.977,14.181,16.977,14.719,16.977z M15.217,5.922
	c0-0.012,0-0.025,0-0.038c1.109,0,2.218,0.001,3.329,0c0.11,0,0.23,0.005,0.335-0.024c0.072-0.021,0.154-0.087,0.185-0.154
	c0.034-0.07,0.024-0.169,0.01-0.25c-0.035-0.23-0.077-0.456-0.137-0.68c-0.018-0.066-0.087-0.146-0.151-0.167
	c-0.117-0.04-0.249-0.054-0.372-0.054c-0.67-0.001-1.34-0.01-2.009,0.008c-1.104,0.026-2.208,0.059-3.311,0.111
	c-0.396,0.019-0.79,0.096-1.181,0.156c-0.179,0.026-0.32,0.119-0.366,0.295c-0.042,0.162-0.084,0.329-0.087,0.493
	c-0.004,0.389-0.101,0.413,0.399,0.401C12.98,5.993,14.099,5.955,15.217,5.922z M15.24,20.188c0.384,0,0.769,0.006,1.152-0.003
	c0.234-0.004,0.468-0.021,0.699-0.051c0.059-0.008,0.136-0.07,0.154-0.125c0.053-0.15,0.1-0.307,0.106-0.462
	c0.03-0.585,0.048-1.169,0.066-1.754c0.002-0.201-0.034-0.251-0.241-0.24c-0.266,0.012-0.532,0.045-0.794,0.092
	c-0.204,0.04-0.248,0.11-0.23,0.32c0.017,0.184,0.049,0.367,0.077,0.55c0.02,0.119-0.033,0.182-0.148,0.201
	c-0.57,0.091-1.13,0.016-1.682-0.116c-0.147-0.034-0.208-0.166-0.162-0.311c0.025-0.09,0.062-0.18,0.103-0.268
	c0.157-0.325,0.12-0.388-0.257-0.395c-0.328-0.006-0.656-0.001-0.984,0c-0.232,0.001-0.303,0.098-0.252,0.322
	c0.041,0.186,0.091,0.37,0.108,0.559c0.035,0.451,0.054,0.904,0.076,1.356c0.006,0.114,0.061,0.197,0.173,0.22
	c0.204,0.042,0.411,0.092,0.62,0.1C14.295,20.198,14.769,20.188,15.24,20.188z"/>
</svg>
