<?xml version="1.0" encoding="utf-8"?>
<!-- Generator: Adobe Illustrator 16.0.0, SVG Export Plug-In . SVG Version: 6.00 Build 0)  -->
<!DOCTYPE svg PUBLIC "-//W3C//DTD SVG 1.1//EN" "http://www.w3.org/Graphics/SVG/1.1/DTD/svg11.dtd">
<svg version="1.1" id="Layer_1" xmlns="http://www.w3.org/2000/svg" xmlns:xlink="http://www.w3.org/1999/xlink" x="0px" y="0px"
	 width="30px" height="30px" viewBox="0 0 30 30" enable-background="new 0 0 30 30" xml:space="preserve">
<path fill="#476899" d="M29.306,20.809c-0.255-0.759-0.653-1.412-1.327-1.86c-0.046-0.03-0.09-0.109-0.09-0.164
	c-0.004-1.123-0.026-2.247,0.008-3.367c0.024-0.87,0.133-1.735,0.184-2.604c0.044-0.684,0.035-1.368-0.195-2.025
	c-0.039-0.109-0.03-0.145,0.073-0.186c0.365-0.147,0.726-0.3,1.083-0.463c0.338-0.153,0.401-0.436,0.17-0.72
	c-0.458-0.557-1.022-0.956-1.678-1.232c-0.949-0.396-1.957-0.538-2.942-0.778c-0.557-0.136-1.119-0.258-1.676-0.39
	c-0.558-0.131-1.118-0.265-1.675-0.396c-0.559-0.131-1.117-0.258-1.678-0.388c-0.567-0.132-1.136-0.267-1.705-0.393
	c-0.617-0.139-1.233-0.285-1.854-0.401c-0.391-0.071-0.788-0.132-1.181-0.123c-0.778,0.021-1.504,0.298-2.214,0.607
	c-0.939,0.41-1.844,0.903-2.826,1.206C9.235,7.301,8.691,7.487,8.139,7.637c-0.552,0.15-1.114,0.276-1.676,0.39
	C5.828,8.155,5.191,8.271,4.551,8.363C3.915,8.457,3.275,8.529,2.635,8.58C1.946,8.631,1.253,8.649,0.563,8.674
	C0.39,8.682,0.229,8.788,0.198,8.941C0.156,9.16,0.261,9.405,0.434,9.454C0.555,9.491,0.68,9.506,0.807,9.52
	c0.278,0.03,0.56,0.037,0.835,0.083c0.609,0.103,1.22,0.199,1.82,0.342c0.782,0.185,1.554,0.412,2.33,0.622
	c0.109,0.03,0.161,0.089,0.164,0.222c0.056,2.77-0.016,5.534-0.115,8.303c-0.01,0.287-0.028,0.572-0.064,0.856
	c-0.08,0.603-0.185,1.202-0.257,1.805c-0.063,0.546-0.09,1.098,0.041,1.64c0.064,0.264,0.156,0.521,0.378,0.693
	c0.073,0.057,0.18,0.107,0.264,0.098c0.173-0.022,0.355-0.059,0.508-0.144c0.253-0.133,0.493-0.3,0.727-0.473
	c0.903-0.662,1.906-1.093,2.993-1.288c0.603-0.108,1.215-0.17,1.826-0.204c1.309-0.072,2.619-0.132,3.93-0.167
	c1.091-0.024,2.176,0.081,3.245,0.309c0.932,0.197,1.828,0.519,2.681,0.96c0.351,0.187,0.595,0.04,0.621-0.364
	c0.021-0.347,0.027-0.693,0.07-1.039c0.094-0.857,0.201-1.715,0.31-2.573c0.053-0.408,0.123-0.814,0.178-1.222
	c0.09-0.647,0.184-1.295,0.259-1.943c0.064-0.575,0.132-1.15,0.152-1.726c0.028-0.661,0.007-1.325,0.007-1.991
	c0.055-0.023,0.104-0.047,0.15-0.067c0.814-0.317,1.626-0.634,2.439-0.954c0.099-0.039,0.172-0.037,0.219,0.068
	c0.104,0.246,0.23,0.49,0.302,0.748c0.216,0.743,0.185,1.647,0.21,2.416c0.054,1.407,0.081,2.694,0.098,4.103
	c0,0.032-0.015,0.073-0.037,0.109c0.106,0.411,0.208,0.866,0.123,1.278c-0.044,1.044-0.09,2.091-0.133,3.136
	c-0.011,0.236-0.013,0.472-0.015,0.709c0,0.161,0.097,0.291,0.239,0.343c0.327,0.114,0.582-0.07,0.582-0.429
	c0-1.238,0-2.477,0-3.715v-0.193c0.052,0.049,0.073,0.065,0.09,0.087c0.402,0.454,0.605,1.007,0.728,1.588
	c0.153,0.723,0.193,1.455,0.16,2.19c-0.014,0.273-0.028,0.545-0.037,0.814c-0.004,0.167,0.09,0.284,0.238,0.317
	c0.322,0.067,0.568-0.12,0.585-0.457c0.012-0.259,0.014-0.514,0.019-0.771C29.683,22.676,29.61,21.726,29.306,20.809z M22.86,13.153
	c-0.09,0.798-0.181,1.598-0.278,2.398c-0.084,0.689-0.176,1.379-0.265,2.066c-0.083,0.651-0.165,1.301-0.257,1.95
	c-0.107,0.74-0.23,1.479-0.344,2.222c-0.018,0.105-0.06,0.116-0.151,0.072c-0.954-0.462-1.968-0.696-3.012-0.816
	c-1.379-0.155-2.757-0.104-4.135-0.004c-0.958,0.07-1.914,0.122-2.87,0.198c-0.526,0.042-1.054,0.086-1.571,0.185
	c-0.346,0.065-0.681,0.216-1.013,0.347c-0.69,0.271-1.375,0.556-2.009,0.948c-0.138,0.087-0.262,0.195-0.401,0.296
	c-0.004-0.034-0.012-0.07-0.013-0.106c-0.064-1.379-0.02-2.754,0.043-4.132c0.111-2.415,0.323-4.829,0.334-7.251
	c0-0.199,0-0.396,0-0.634c0.146,0.051,0.271,0.092,0.39,0.142c0.648,0.267,1.316,0.495,1.938,0.815
	c0.632,0.326,1.222,0.734,1.827,1.12c0.613,0.392,1.223,0.793,1.899,1.072c0.491,0.202,1.001,0.25,1.521,0.247
	c0.992-0.007,1.981-0.096,2.965-0.258c1.093-0.179,2.171-0.435,3.237-0.745c0.718-0.21,1.426-0.459,2.138-0.688
	c0.017-0.005,0.029-0.001,0.066-0.001C22.89,12.785,22.883,12.968,22.86,13.153z M27.221,10.042
	c-0.14,0.026-0.298-0.046-0.447-0.052c-0.397-0.015-0.797-0.046-1.191-0.016c-0.498,0.04-0.99-0.005-1.482-0.054
	c-0.775-0.078-1.549-0.17-2.32-0.267c-0.55-0.072-1.097-0.161-1.642-0.251c-0.677-0.113-1.351-0.234-2.021-0.362
	c-0.574-0.111-1.139-0.239-1.707-0.361c-0.273-0.058-0.543-0.128-0.814-0.184C15.381,8.45,15.159,8.6,15.109,8.809
	c-0.051,0.204,0.051,0.523,0.296,0.575c0.711,0.15,1.422,0.303,2.137,0.442c0.682,0.132,1.365,0.263,2.05,0.374
	c0.803,0.13,1.608,0.245,2.415,0.354c0.653,0.089,1.312,0.166,1.966,0.243c0.302,0.037,0.607,0.062,0.909,0.093
	c0.091,0.008-0.004-0.036,0.091,0.008c0,0-0.136,0.064-0.159,0.072c-0.837,0.255-1.39,0.382-2.229,0.625
	c-0.599,0.173-1.206,0.323-1.812,0.473c-0.602,0.148-1.203,0.295-1.81,0.424c-0.785,0.168-1.57,0.325-2.358,0.47
	c-0.398,0.073-0.803,0.135-1.208,0.159c-1.034,0.069-2.002-0.191-2.914-0.636c-0.819-0.398-1.618-0.829-2.436-1.226
	c-1.154-0.557-2.345-1.027-3.583-1.383C5.673,9.648,4.871,9.457,4.074,9.25C4.024,9.238,3.977,9.218,3.933,9.178
	c0.151-0.023,0.305-0.045,0.456-0.071c1.044-0.189,2.098-0.344,3.128-0.585c1.128-0.264,2.247-0.579,3.353-0.925
	c1.07-0.335,2.117-0.746,3.181-1.103c0.292-0.099,0.61-0.169,0.917-0.174c0.504-0.011,1.017-0.002,1.511,0.076
	c0.787,0.124,1.567,0.293,2.34,0.479c0.696,0.168,1.376,0.395,2.068,0.581c0.628,0.17,1.265,0.327,1.901,0.475
	c0.723,0.167,1.449,0.326,2.177,0.478c0.43,0.091,0.863,0.167,1.296,0.248c0.575,0.107,1.028,0.395,1.384,0.831
	c0.081,0.098,0.15,0.204,0.237,0.327C27.647,9.896,27.441,9.998,27.221,10.042z"/>
<path fill="#476899" d="M23.126,12.715c-0.021-0.17-0.062-0.316-0.117-0.437c-0.366,0.099-0.735,0.184-1.105,0.261
	c0.032,0.013,0.06,0.033,0.077,0.055c0.141,0.181,0.264,0.37,0.385,0.564c0.031,0.053,0.043,0.13,0.044,0.196
	c0.004,0.205,0.001,0.41-0.002,0.614c-0.005,0.069-0.02,0.138-0.027,0.207c-0.012,0.001-0.021,0.002-0.031,0.003
	c-0.131-0.165-0.26-0.331-0.392-0.497c-0.262-0.331-0.522-0.662-0.78-0.995c-0.106,0.02-0.212,0.043-0.316,0.064
	c0.306,0.398,0.62,0.787,0.938,1.175c0.14,0.167,0.289,0.325,0.439,0.486c0.08,0.087,0.115,0.183,0.103,0.307
	c-0.025,0.32-0.042,0.641-0.063,0.962c-0.004,0.032-0.015,0.062-0.026,0.114c-0.047-0.053-0.082-0.088-0.115-0.131
	c-0.289-0.365-0.567-0.739-0.87-1.093c-0.227-0.26-0.483-0.488-0.728-0.725c-0.049-0.047-0.115-0.083-0.181-0.106
	c-0.026-0.01-0.096,0.02-0.103,0.042c-0.027,0.099-0.038,0.201,0.042,0.283c0.023,0.023,0.044,0.048,0.071,0.066
	c0.451,0.322,0.793,0.76,1.163,1.168c0.182,0.198,0.351,0.412,0.526,0.614c0.095,0.108,0.144,0.224,0.128,0.372
	c-0.032,0.293-0.054,0.587-0.083,0.882c-0.003,0.04-0.022,0.078-0.043,0.136c-0.043-0.054-0.075-0.092-0.105-0.133
	c-0.431-0.528-0.862-1.056-1.288-1.589c-0.158-0.195-0.346-0.35-0.551-0.486c-0.049-0.033-0.103-0.095-0.168-0.028
	c-0.062,0.064-0.062,0.141-0.011,0.211c0.039,0.06,0.076,0.122,0.132,0.161c0.263,0.195,0.456,0.451,0.66,0.698
	c0.402,0.484,0.803,0.974,1.206,1.455c0.047,0.058,0.067,0.111,0.061,0.186c-0.039,0.426-0.077,0.852-0.115,1.279
	c-0.002,0.021-0.012,0.042-0.022,0.081c-0.034-0.029-0.062-0.047-0.083-0.072c-0.519-0.6-1.036-1.202-1.561-1.797
	c-0.088-0.102-0.205-0.179-0.319-0.246c-0.035-0.023-0.121,0.003-0.156,0.037c-0.022,0.021-0.019,0.107,0.005,0.146
	c0.073,0.115,0.151,0.235,0.247,0.33c0.548,0.549,1.021,1.165,1.519,1.757c0.051,0.06,0.106,0.114,0.163,0.16
	c0.064,0.05,0.096,0.106,0.092,0.192c-0.015,0.264-0.025,0.532-0.044,0.797c-0.002,0.044-0.019,0.092-0.034,0.161
	c-0.095-0.122-0.175-0.219-0.253-0.32c-0.485-0.646-0.966-1.291-1.457-1.935c-0.081-0.107-0.182-0.208-0.281-0.301
	c-0.06-0.054-0.135-0.115-0.218-0.037c-0.056,0.048-0.054,0.153,0.013,0.24c0.105,0.141,0.216,0.271,0.322,0.409
	c0.521,0.661,1.033,1.329,1.564,1.982c0.191,0.236,0.215,0.466,0.104,0.733c-0.021,0.05-0.041,0.099-0.069,0.166
	c-0.04-0.047-0.067-0.081-0.098-0.11c-0.468-0.567-0.936-1.137-1.408-1.699c-0.068-0.079-0.165-0.141-0.257-0.194
	c-0.088-0.054-0.191-0.028-0.241,0.036c-0.056,0.068-0.06,0.16,0.015,0.248c0.091,0.111,0.193,0.214,0.295,0.316
	c0.448,0.463,0.898,0.925,1.346,1.39c0.046,0.046,0.084,0.102,0.141,0.168c-0.07,0.011-0.116,0.022-0.161,0.025
	c-0.155,0.008-0.311,0.012-0.465,0.02c-0.121,0.01-0.215-0.037-0.291-0.132c-0.19-0.223-0.383-0.451-0.577-0.671
	c-0.063-0.074-0.139-0.144-0.213-0.209c-0.108-0.091-0.191-0.096-0.262-0.024c-0.081,0.081-0.1,0.254-0.024,0.34
	c0.062,0.069,0.136,0.132,0.21,0.195c0.119,0.109,0.243,0.214,0.36,0.324c0.024,0.024,0.028,0.069,0.044,0.104
	c-0.035,0.011-0.067,0.028-0.105,0.03c-0.151,0.011-0.306,0.022-0.458,0.031v0.002c0.075,0.018,0.149,0.053,0.221,0.112
	c0.43,0.365,0.722,0.396,1.26,0.452c0.488,0.049,1.024,0.124,1.378-0.29c0.016-0.015,0.028-0.029,0.042-0.044
	c0.13-0.439,0.187-0.897,0.253-1.353c0.05-0.332,0.087-0.668,0.131-1.003c0.046-0.365,0.094-0.733,0.135-1.101
	c0.047-0.376,0.089-0.756,0.133-1.132c0.041-0.397,0.091-0.794,0.134-1.19c0.047-0.422,0.09-0.843,0.128-1.27
	c0.043-0.49,0.083-0.981,0.118-1.435C23.167,13.197,23.162,12.953,23.126,12.715z"/>
</svg>
