<?xml version="1.0" encoding="utf-8"?>
<!-- Generator: Adobe Illustrator 16.0.0, SVG Export Plug-In . SVG Version: 6.00 Build 0)  -->
<!DOCTYPE svg PUBLIC "-//W3C//DTD SVG 1.1//EN" "http://www.w3.org/Graphics/SVG/1.1/DTD/svg11.dtd">
<svg version="1.1" id="Layer_1" xmlns="http://www.w3.org/2000/svg" xmlns:xlink="http://www.w3.org/1999/xlink" x="0px" y="0px"
	 width="30px" height="30px" viewBox="0 0 30 30" enable-background="new 0 0 30 30" xml:space="preserve">
<path fill-rule="evenodd" clip-rule="evenodd" fill="#48689A" d="M17.058,28.774c0.033,0.147,0.069,0.273,0.091,0.405
	c0.032,0.196-0.018,0.281-0.211,0.345c-0.64,0.209-1.287,0.228-1.931,0.021c-0.26-0.085-0.511-0.201-0.761-0.312
	c-0.131-0.058-0.226-0.153-0.237-0.312c-0.001-0.035-0.063-0.089-0.099-0.091c-0.54-0.03-0.902-0.365-1.257-0.715
	c-0.211-0.206-0.246-0.446-0.122-0.718c0.061-0.128,0.107-0.263,0.16-0.395c0.04-0.102,0.003-0.175-0.087-0.228
	c-0.044-0.027-0.089-0.053-0.132-0.083c-0.153-0.105-0.234-0.242-0.146-0.438c0.072-0.157,0.111-0.331,0.159-0.5
	c0.033-0.117-0.012-0.202-0.099-0.291c-0.135-0.144-0.271-0.293-0.37-0.462c-0.136-0.232-0.082-0.464,0.104-0.653
	c0.091-0.095,0.207-0.167,0.303-0.256c0.034-0.032,0.071-0.1,0.061-0.137c-0.122-0.392-0.214-0.803-0.394-1.17
	c-0.226-0.462-0.351-0.948-0.488-1.438c-0.173-0.616-0.341-1.234-0.535-1.843c-0.241-0.761-0.51-1.515-0.907-2.208
	c-0.306-0.536-0.658-1.044-0.987-1.565c-0.398-0.633-0.735-1.298-0.93-2.024c-0.167-0.609-0.231-1.233-0.178-1.864
	C8.229,9.93,9.042,8.297,10.25,6.834c0.78-0.945,1.795-1.481,2.964-1.77c1.178-0.291,2.377-0.414,3.58-0.268
	c1.688,0.205,3.147,0.88,4.193,2.284c0.338,0.451,0.554,0.97,0.77,1.487c0.271,0.65,0.477,1.323,0.605,2.013
	c0.146,0.77,0.189,1.546,0.099,2.33c-0.174,1.491-0.783,2.811-1.602,4.051c-0.331,0.502-0.679,0.998-0.981,1.518
	c-0.53,0.915-0.7,1.917-0.63,2.967c0.026,0.361,0.039,0.721,0.039,1.084c0.002,0.246-0.024,0.492-0.047,0.738
	c-0.007,0.062-0.032,0.145-0.078,0.177c-0.104,0.075-0.108,0.169-0.09,0.274c0.062,0.362,0,0.705-0.138,1.045
	c-0.074,0.18-0.06,0.355,0.054,0.54c0.087,0.143,0.13,0.333,0.133,0.502c0.003,0.292-0.047,0.583-0.066,0.876
	c-0.009,0.15-0.008,0.301,0.003,0.45c0.024,0.341,0.015,0.665-0.29,0.904c-0.207,0.165-0.403,0.347-0.608,0.519
	c-0.193,0.159-0.414,0.239-0.672,0.221C17.351,28.766,17.215,28.774,17.058,28.774z M13.349,23.758
	c0.199,0.261,0.464,0.302,0.721,0.327c0.407,0.042,0.816,0.051,1.224,0.081c0.997,0.072,1.899-0.195,2.718-0.758
	c0.177-0.119,0.18-0.122,0.045-0.271c-0.179-0.194-0.172-0.299,0-0.509c0.024-0.029,0.045-0.062,0.075-0.085
	c0.193-0.149,0.231-0.353,0.229-0.582c-0.004-0.523,0.012-1.048,0.008-1.57c-0.008-0.948,0.284-1.801,0.812-2.582
	c0.345-0.51,0.693-1.02,1.015-1.547c0.675-1.108,1.153-2.298,1.35-3.587c0.125-0.812,0.023-1.611-0.21-2.396
	C21.102,9.5,20.75,8.77,20.378,8.047c-0.498-0.967-1.26-1.639-2.279-2.016c-1.061-0.394-2.15-0.461-3.259-0.312
	c-0.846,0.114-1.668,0.324-2.451,0.668c-0.635,0.279-1.217,0.632-1.625,1.213c-0.237,0.338-0.476,0.675-0.685,1.031
	c-0.529,0.906-0.922,1.862-0.986,2.927c-0.034,0.583,0.013,1.161,0.116,1.734c0.102,0.577,0.272,1.134,0.572,1.644
	c0.403,0.688,0.804,1.376,1.203,2.067c0.475,0.826,0.878,1.68,1.108,2.61c0.187,0.761,0.372,1.523,0.59,2.272
	c0.149,0.524,0.417,0.979,0.938,1.231c0.116,0.057,0.25,0.123,0.244,0.269c-0.004,0.147-0.155,0.189-0.267,0.247
	C13.522,23.673,13.442,23.71,13.349,23.758z M15.63,27.229c0.001,0.012,0.001,0.023,0.001,0.036c0.318-0.024,0.639-0.029,0.951-0.08
	c0.515-0.085,1.026-0.194,1.537-0.307c0.407-0.089,0.443-0.148,0.393-0.566c-0.018-0.151-0.018-0.298,0.073-0.439
	c0.073-0.111,0.053-0.228-0.062-0.313c-0.046-0.034-0.091-0.07-0.136-0.105c-0.097-0.075-0.132-0.164-0.093-0.288
	c0.018-0.051,0.002-0.113,0.002-0.172c-0.056,0.017-0.113,0.029-0.165,0.054c-0.056,0.027-0.102,0.073-0.153,0.104
	c-0.274,0.143-0.534,0.32-0.823,0.42c-0.545,0.185-1.121,0.242-1.695,0.28c-0.158,0.01-0.322-0.016-0.48-0.044
	c-0.132-0.026-0.227-0.115-0.276-0.244c-0.045-0.119,0.003-0.199,0.131-0.206c0.114-0.003,0.228,0.004,0.342,0.004
	c0.229,0.003,0.461,0.029,0.685-0.004c0.603-0.095,1.189-0.256,1.723-0.561c0.281-0.161,0.54-0.364,0.802-0.559
	c0.086-0.063,0.096-0.163,0.038-0.256c-0.056-0.092-0.146-0.113-0.237-0.074c-0.188,0.085-0.378,0.173-0.56,0.273
	c-0.445,0.25-0.897,0.5-1.424,0.486c-0.698-0.017-1.397-0.055-2.094-0.106c-0.354-0.024-0.704-0.107-1.059-0.149
	c-0.091-0.009-0.216-0.002-0.278,0.052c-0.139,0.121-0.185,0.301-0.143,0.482c0.034,0.155,0.135,0.252,0.298,0.29
	c0.198,0.047,0.289,0.193,0.234,0.387c-0.041,0.145-0.097,0.287-0.167,0.42c-0.148,0.276-0.15,0.318,0.105,0.501
	c0.159,0.115,0.249,0.258,0.208,0.448c-0.036,0.167-0.11,0.323-0.149,0.487c-0.024,0.1-0.058,0.231-0.014,0.311
	c0.189,0.329,0.443,0.591,0.848,0.649c0.139,0.021,0.248,0.079,0.319,0.208c0.082,0.15,0.212,0.247,0.387,0.26
	c0.413,0.028,0.827,0.047,1.239,0.08c0.236,0.019,0.45-0.001,0.672-0.113c0.139-0.072,0.198-0.136,0.216-0.286
	c0.026-0.257,0.054-0.277,0.314-0.276c0.495,0.005,0.887-0.213,1.222-0.555c0.182-0.186,0.177-0.282,0.04-0.505
	c-0.066-0.106-0.124-0.116-0.239-0.065c-0.321,0.138-0.642,0.285-0.979,0.381c-0.584,0.171-1.193,0.169-1.798,0.157
	c-0.165-0.004-0.332-0.029-0.492-0.068c-0.125-0.032-0.184-0.14-0.155-0.269c0.027-0.118,0.115-0.162,0.236-0.159
	C15.192,27.23,15.411,27.229,15.63,27.229z"/>
<path fill-rule="evenodd" clip-rule="evenodd" fill="#48689A" d="M23.99,13.412c-0.09-0.02-0.215-0.022-0.317-0.072
	c-0.08-0.041-0.161-0.129-0.183-0.21c-0.028-0.105,0.043-0.202,0.154-0.243c0.109-0.038,0.224-0.081,0.339-0.095
	c0.539-0.064,1.078-0.12,1.615-0.176c0.378-0.04,0.756-0.075,1.134-0.113c0.22-0.021,0.269,0.052,0.181,0.255
	c-0.07,0.166-0.199,0.271-0.371,0.299c-0.492,0.086-0.981,0.166-1.476,0.234C24.721,13.34,24.368,13.37,23.99,13.412z"/>
<path fill-rule="evenodd" clip-rule="evenodd" fill="#48689A" d="M7.822,6.698C7.82,6.929,7.721,7.002,7.587,6.92
	C7.302,6.741,7.021,6.554,6.752,6.353C6.427,6.106,6.113,5.845,5.8,5.582C5.714,5.508,5.646,5.414,5.582,5.32
	C5.5,5.201,5.507,5.078,5.605,4.967c0.095-0.105,0.208-0.155,0.341-0.075C6.06,4.962,6.18,5.025,6.276,5.115
	C6.73,5.541,7.181,5.973,7.624,6.41C7.721,6.504,7.78,6.635,7.822,6.698z"/>
<path fill-rule="evenodd" clip-rule="evenodd" fill="#48689A" d="M14.903,1.939c-0.016,0.197-0.038,0.505-0.06,0.812
	c-0.003,0.029-0.01,0.056-0.02,0.083c-0.036,0.101-0.074,0.206-0.208,0.194c-0.127-0.014-0.147-0.13-0.164-0.222
	c-0.092-0.525-0.187-1.048-0.26-1.574c-0.025-0.184,0.005-0.376,0.023-0.565c0.012-0.128,0.108-0.196,0.229-0.216
	c0.131-0.027,0.242,0.021,0.293,0.142c0.052,0.12,0.094,0.251,0.107,0.379C14.872,1.257,14.88,1.542,14.903,1.939z"/>
<path fill-rule="evenodd" clip-rule="evenodd" fill="#48689A" d="M21.6,5.851c-0.186-0.008-0.274-0.075-0.329-0.193
	c-0.049-0.108,0.009-0.194,0.08-0.252c0.208-0.167,0.415-0.333,0.634-0.479c0.485-0.324,0.975-0.641,1.465-0.952
	c0.084-0.054,0.197-0.143,0.279-0.03c0.07,0.101-0.043,0.185-0.112,0.246c-0.566,0.504-1.136,1.005-1.711,1.5
	C21.809,5.773,21.677,5.813,21.6,5.851z"/>
<path fill-rule="evenodd" clip-rule="evenodd" fill="#48689A" d="M5.052,13.607C4.526,13.561,4,13.518,3.477,13.47
	c-0.119-0.012-0.246-0.036-0.277-0.178c-0.022-0.104,0.107-0.234,0.255-0.264c0.064-0.014,0.132-0.018,0.199-0.012
	c0.682,0.05,1.364,0.105,2.047,0.159c0.029,0.001,0.058,0.004,0.084,0.012c0.11,0.033,0.186,0.105,0.18,0.225
	c-0.006,0.119-0.098,0.161-0.2,0.164c-0.237,0.006-0.475,0.002-0.712,0.002C5.052,13.586,5.052,13.597,5.052,13.607z"/>
<path fill-rule="evenodd" clip-rule="evenodd" fill="#48689A" d="M14.343,19.676c-0.041-0.026-0.078-0.063-0.122-0.074
	c-0.189-0.045-0.25-0.195-0.291-0.352c-0.1-0.39-0.203-0.779-0.277-1.175c-0.214-1.11-0.475-2.201-1.099-3.168
	c-0.287-0.442-0.322-0.935-0.276-1.441c0.014-0.166,0.091-0.23,0.254-0.218c0.444,0.034,0.877,0.111,1.253,0.377
	c0.051,0.033,0.11,0.057,0.16,0.091c0.086,0.059,0.135,0.063,0.167-0.061c0.055-0.212,0.144-0.415,0.312-0.568
	c0.249-0.224,0.571-0.201,0.771,0.07c0.113,0.154,0.191,0.337,0.274,0.512c0.078,0.167,0.088,0.175,0.24,0.063
	c0.36-0.265,0.717-0.536,1.08-0.792c0.127-0.088,0.267-0.194,0.432-0.09c0.166,0.106,0.161,0.285,0.135,0.451
	c-0.021,0.133-0.083,0.26-0.115,0.393c-0.013,0.049,0.005,0.108,0.009,0.16c0.048-0.004,0.104,0,0.147-0.018
	c0.233-0.105,0.466-0.21,0.694-0.327c0.088-0.043,0.154-0.03,0.219,0.03c0.152,0.146,0.263,0.321,0.283,0.529
	c0.008,0.086-0.036,0.186-0.077,0.265c-0.197,0.372-0.414,0.734-0.603,1.111c-0.064,0.125-0.082,0.28-0.099,0.425
	c-0.062,0.517-0.095,1.041-0.176,1.557c-0.042,0.263-0.164,0.515-0.235,0.774c-0.06,0.209-0.111,0.423-0.144,0.639
	c-0.053,0.332-0.101,0.667-0.127,1.003c-0.047,0.66-0.084,1.318-0.116,1.979c-0.027,0.561-0.04,1.122-0.06,1.686
	c-0.007,0.154-0.17,0.309-0.325,0.289c-0.04-0.002-0.098-0.069-0.105-0.114c-0.021-0.127-0.021-0.256-0.021-0.385
	c-0.011-1.028-0.021-2.055-0.03-3.083c-0.002-0.359-0.03-0.399-0.388-0.396c-0.376,0.006-0.751,0.03-1.126,0.048
	c-0.153,0.007-0.252,0.088-0.285,0.232c-0.031,0.134-0.058,0.272-0.057,0.407c0.004,0.71,0.021,1.419,0.03,2.129
	c0.002,0.198-0.013,0.398-0.015,0.598c0,0.116-0.061,0.157-0.166,0.17c-0.312,0.043-0.482-0.092-0.477-0.401
	c0.017-0.9,0.042-1.798,0.063-2.7c0.006-0.226,0.02-0.452,0.272-0.572C14.332,19.712,14.337,19.692,14.343,19.676z M17.883,14.123
	c-0.016-0.008-0.028-0.014-0.043-0.022c-0.071,0.056-0.146,0.104-0.206,0.166c-0.208,0.214-0.462,0.267-0.743,0.24
	c-0.263-0.026-0.353-0.111-0.383-0.372c-0.032-0.265-0.032-0.264-0.247-0.108c-0.062,0.044-0.125,0.087-0.188,0.129
	c-0.224,0.148-0.477,0.201-0.74,0.224c-0.118,0.009-0.203-0.035-0.263-0.134c-0.064-0.105-0.123-0.214-0.189-0.319
	c-0.07-0.109-0.138-0.105-0.195,0.013c-0.049,0.103-0.082,0.213-0.125,0.316c-0.098,0.231-0.305,0.315-0.523,0.198
	c-0.125-0.065-0.238-0.156-0.347-0.246c-0.162-0.128-0.351-0.188-0.552-0.204c-0.137-0.012-0.196,0.06-0.167,0.193
	c0.017,0.083,0.046,0.165,0.081,0.243c0.101,0.219,0.228,0.429,0.305,0.656c0.159,0.463,0.305,0.929,0.436,1.4
	c0.171,0.617,0.322,1.24,0.485,1.858c0.088,0.335,0.179,0.669,0.279,1.002c0.04,0.133,0.087,0.132,0.212,0.078
	c0.136-0.059,0.284-0.123,0.428-0.128c0.375-0.017,0.752-0.01,1.127,0.002c0.29,0.01,0.356-0.026,0.354-0.318
	c-0.001-0.464,0.104-0.904,0.267-1.333c0.133-0.346,0.225-0.703,0.261-1.076c0.038-0.409,0.054-0.824,0.209-1.217
	c0.132-0.332,0.183-0.696,0.393-1.002C17.85,14.296,17.856,14.204,17.883,14.123z"/>
<path fill-rule="evenodd" clip-rule="evenodd" fill="#48689A" d="M20.004,10.982c-0.021,0.077-0.033,0.18-0.077,0.263
	c-0.028,0.052-0.106,0.094-0.167,0.101c-0.029,0.003-0.084-0.08-0.102-0.131c-0.083-0.27-0.156-0.546-0.242-0.817
	c-0.322-1.047-0.868-1.953-1.68-2.695c-0.073-0.067-0.146-0.137-0.202-0.219c-0.072-0.104-0.029-0.204,0.095-0.242
	c0.159-0.049,0.31-0.006,0.421,0.103c0.236,0.233,0.474,0.467,0.677,0.728c0.371,0.48,0.715,0.982,0.946,1.549
	C19.848,10.049,19.927,10.502,20.004,10.982z"/>
<path fill-rule="evenodd" clip-rule="evenodd" fill="#48689A" d="M14.767,26.721c-0.271,0-0.543,0.009-0.813-0.006
	c-0.113-0.007-0.229-0.056-0.335-0.1c-0.094-0.039-0.176-0.119-0.134-0.222c0.033-0.082,0.118-0.189,0.189-0.197
	c0.18-0.019,0.367-0.003,0.547,0.028c0.66,0.116,1.322,0.122,1.985,0.035c0.112-0.016,0.222-0.055,0.333-0.066
	c0.043-0.006,0.118,0.024,0.128,0.055c0.014,0.045,0.003,0.125-0.03,0.154c-0.066,0.061-0.151,0.113-0.237,0.145
	c-0.491,0.176-1.007,0.177-1.519,0.191c-0.039,0-0.078,0-0.113,0C14.767,26.731,14.767,26.726,14.767,26.721z"/>
</svg>
