<?xml version="1.0" encoding="utf-8"?>
<!-- Generator: Adobe Illustrator 16.0.0, SVG Export Plug-In . SVG Version: 6.00 Build 0)  -->
<!DOCTYPE svg PUBLIC "-//W3C//DTD SVG 1.1//EN" "http://www.w3.org/Graphics/SVG/1.1/DTD/svg11.dtd">
<svg version="1.1" id="Layer_1" xmlns="http://www.w3.org/2000/svg" xmlns:xlink="http://www.w3.org/1999/xlink" x="0px" y="0px"
	 width="30px" height="30px" viewBox="0 0 30 30" enable-background="new 0 0 30 30" xml:space="preserve">
<path fill-rule="evenodd" clip-rule="evenodd" fill="#476899" d="M25.371,9.736c0,0.958-0.146,1.883-0.339,2.804
	c-0.251,1.212-0.561,2.409-0.98,3.575c-0.325,0.903-0.715,1.792-1.165,2.646c-1.254,2.375-2.552,4.729-3.838,7.086
	c-0.363,0.667-0.721,1.339-1.111,1.992c-0.295,0.49-0.67,0.928-1.186,1.235c-0.59,0.351-1.164,0.326-1.722-0.064
	c-0.554-0.388-0.929-0.912-1.267-1.465c-0.904-1.475-1.676-3.014-2.426-4.56c-0.63-1.298-1.258-2.596-1.842-3.908
	c-0.685-1.539-1.344-3.088-1.977-4.646c-0.392-0.962-0.679-1.959-0.885-2.973c-0.243-1.174-0.322-2.356-0.142-3.543
	c0.199-1.332,0.736-2.533,1.622-3.592c1.055-1.259,2.348-2.238,3.894-2.91c0.83-0.359,1.693-0.613,2.61-0.683
	c0.351-0.026,0.704-0.059,1.056-0.049C16.475,0.7,17.246,0.878,18,1.133c1.795,0.609,3.345,1.572,4.645,2.889
	c1.049,1.064,1.878,2.265,2.415,3.631C25.325,8.328,25.384,9.037,25.371,9.736z M20.199,20.825c0.091-0.094,0.153-0.136,0.183-0.193
	c0.135-0.243,0.26-0.49,0.391-0.735c0.111-0.209,0.076-0.396-0.065-0.578c-0.083-0.107-0.15-0.226-0.206-0.347
	c-0.326-0.717-0.65-1.438-0.972-2.156c-0.101-0.224-0.202-0.449-0.289-0.676c-0.046-0.117-0.063-0.235,0.069-0.331
	c0.14-0.096,0.268-0.056,0.364,0.037c0.115,0.111,0.23,0.238,0.294,0.381c0.385,0.89,0.754,1.785,1.129,2.679
	c0.068,0.16,0.124,0.178,0.241,0.043c0.112-0.136,0.204-0.289,0.311-0.433c0.099-0.129,0.104-0.265,0.031-0.403
	c-0.211-0.41-0.44-0.81-0.637-1.224c-0.34-0.713-0.665-1.432-0.993-2.148c-0.128-0.281-0.048-0.567,0.187-0.707
	c0.175-0.104,0.296-0.088,0.396,0.078c0.084,0.137,0.155,0.283,0.204,0.435c0.252,0.794,0.491,1.592,0.75,2.387
	c0.083,0.262,0.202,0.514,0.312,0.767c0.046,0.111,0.13,0.115,0.202,0.026c0.095-0.116,0.184-0.24,0.262-0.366
	c0.247-0.402,0.252-0.781-0.038-1.188c-0.229-0.319-0.402-0.681-0.56-1.042c-0.166-0.38-0.264-0.786-0.422-1.17
	c-0.185-0.446-0.405-0.881-0.605-1.322c-0.108-0.233-0.019-0.402,0.245-0.408c0.098-0.003,0.232,0.064,0.296,0.142
	c0.162,0.198,0.346,0.405,0.431,0.639c0.271,0.754,0.504,1.521,0.747,2.285c0.073,0.233,0.134,0.471,0.213,0.701
	c0.018,0.057,0.083,0.101,0.128,0.149c0.037-0.049,0.086-0.093,0.112-0.146c0.05-0.104,0.085-0.218,0.131-0.326
	c0.183-0.42,0.242-0.831,0.048-1.274c-0.254-0.581-0.456-1.182-0.7-1.766c-0.315-0.746-0.652-1.481-0.977-2.224
	c-0.041-0.093-0.072-0.193-0.08-0.289c-0.011-0.12,0.049-0.218,0.176-0.265c0.118-0.045,0.207,0.012,0.28,0.091
	c0.051,0.058,0.101,0.12,0.127,0.187c0.229,0.546,0.479,1.083,0.667,1.64c0.274,0.805,0.504,1.622,0.754,2.434
	c0.012,0.039,0.042,0.074,0.076,0.125c0.036-0.043,0.057-0.061,0.068-0.083c0.021-0.036,0.048-0.075,0.059-0.114
	c0.112-0.448,0.208-0.898,0.345-1.338c0.08-0.252-0.018-0.43-0.165-0.61c-0.14-0.172-0.282-0.343-0.415-0.521
	c-0.092-0.126-0.192-0.253-0.241-0.396c-0.169-0.493-0.3-0.997-0.47-1.487c-0.196-0.559-0.337-1.151-0.869-1.545
	c-0.01-0.004-0.015-0.015-0.021-0.023c-0.09-0.12-0.065-0.19,0.084-0.236c0.249-0.075,0.565,0.015,0.721,0.253
	c0.166,0.256,0.309,0.528,0.421,0.809c0.283,0.706,0.538,1.42,0.816,2.128c0.07,0.183,0.183,0.351,0.276,0.525
	c0.019-0.006,0.042-0.012,0.06-0.017c0.01-0.07,0.03-0.142,0.028-0.212c-0.009-0.392-0.026-0.784-0.034-1.175
	c-0.011-0.437-0.066-0.853-0.267-1.264c-0.449-0.93-0.826-1.895-1.399-2.773c-0.101-0.154-0.143-0.321,0.008-0.484
	c0.031-0.034,0.031-0.129,0.002-0.167c-0.199-0.282-0.386-0.574-0.617-0.83c-1.465-1.609-3.286-2.583-5.556-2.775
	c-1.515-0.131-2.965,0.064-4.35,0.656c-1.227,0.521-2.215,1.316-2.957,2.376c-0.778,1.11-1.166,2.352-1.3,3.665
	C7.513,9.91,7.613,11.118,7.91,12.309c0.251,1,0.591,1.976,1.023,2.917c0.634,1.368,1.292,2.729,1.955,4.088
	c1.066,2.188,2.145,4.37,3.218,6.557c0.096,0.197,0.195,0.396,0.292,0.592c0.032-0.049,0.041-0.09,0.03-0.127
	c-0.166-0.566-0.337-1.13-0.495-1.698c-0.103-0.372-0.195-0.75-0.271-1.129c-0.026-0.124-0.009-0.267,0.032-0.388
	c0.064-0.186,0.274-0.205,0.387-0.041c0.063,0.091,0.12,0.194,0.148,0.3c0.126,0.487,0.25,0.975,0.358,1.468
	c0.14,0.647,0.248,1.304,0.396,1.95c0.077,0.339,0.187,0.676,0.33,0.993c0.11,0.243,0.336,0.396,0.646,0.373
	c0.212-0.016,0.271-0.11,0.184-0.287c-0.029-0.064-0.061-0.127-0.099-0.183c-0.321-0.466-0.481-0.992-0.593-1.525
	c-0.12-0.576-0.16-1.167-0.281-1.74c-0.109-0.521-0.278-1.034-0.425-1.548c-0.038-0.12,0-0.221,0.13-0.259
	c0.173-0.047,0.354,0.006,0.435,0.183c0.113,0.244,0.21,0.501,0.268,0.763c0.096,0.438,0.154,0.888,0.236,1.33
	c0.098,0.542,0.193,1.087,0.311,1.626c0.074,0.334,0.172,0.667,0.282,0.995c0.083,0.248,0.211,0.267,0.413,0.08
	c0.387-0.356,0.457-0.757,0.291-1.247c-0.25-0.741-0.436-1.497-0.651-2.247c-0.171-0.588-0.351-1.169-0.519-1.756
	c-0.061-0.204-0.111-0.41-0.139-0.619c-0.009-0.074,0.051-0.211,0.105-0.225c0.084-0.021,0.211,0.016,0.285,0.072
	c0.084,0.064,0.144,0.171,0.195,0.269c0.436,0.823,0.575,1.72,0.746,2.61c0.098,0.522,0.188,1.045,0.285,1.566
	c0.013,0.061,0.06,0.12,0.088,0.179c0.064-0.037,0.15-0.062,0.185-0.118c0.202-0.319,0.406-0.644,0.582-0.977
	c0.126-0.235,0.063-0.455-0.082-0.688c-0.288-0.466-0.515-0.963-0.651-1.49c-0.152-0.598-0.301-1.192-0.563-1.759
	c-0.107-0.224-0.131-0.459-0.044-0.696c0.079-0.215,0.307-0.27,0.475-0.106c0.053,0.054,0.104,0.117,0.129,0.186
	c0.094,0.264,0.197,0.528,0.264,0.799c0.17,0.695,0.315,1.398,0.49,2.092c0.054,0.219,0.159,0.428,0.257,0.632
	c0.063,0.131,0.128,0.125,0.218,0.01c0.057-0.073,0.111-0.146,0.166-0.222c0.171-0.243,0.227-0.512,0.141-0.788
	c-0.201-0.639-0.425-1.272-0.625-1.91C18.23,20.491,18,19.824,17.67,19.19c-0.07-0.131-0.041-0.253,0.08-0.339
	c0.125-0.091,0.266-0.092,0.391,0.002c0.073,0.06,0.141,0.138,0.189,0.22c0.32,0.541,0.51,1.121,0.617,1.733
	c0.086,0.479,0.188,0.957,0.294,1.433c0.023,0.108,0.08,0.21,0.138,0.356c0.082-0.096,0.145-0.145,0.171-0.208
	c0.143-0.333,0.277-0.669,0.401-1.008c0.044-0.111,0.037-0.232-0.072-0.322c-0.479-0.397-0.611-0.951-0.72-1.501
	c-0.106-0.544-0.174-1.093-0.512-1.564c-0.038-0.056-0.052-0.129-0.064-0.196c-0.038-0.173,0.06-0.389,0.192-0.439
	c0.121-0.048,0.256,0.02,0.385,0.192c0.217,0.295,0.307,0.633,0.39,0.976c0.144,0.58,0.271,1.165,0.423,1.746
	C20.016,20.445,20.108,20.608,20.199,20.825z"/>
<path fill-rule="evenodd" clip-rule="evenodd" fill="#476899" d="M16.102,10.493c-0.785-0.032-1.438-0.099-2.043-0.391
	c-0.604-0.292-0.888-0.765-0.863-1.394c0.025-0.738,0.289-1.413,0.708-2.025c0.409-0.599,1.043-0.814,1.774-0.766
	c0.745,0.047,1.423,0.278,1.999,0.74c0.884,0.703,1.093,2.009,0.466,2.914c-0.32,0.457-0.786,0.718-1.342,0.833
	C16.534,10.461,16.258,10.476,16.102,10.493z M15.986,9.47c0.42,0.016,0.799-0.102,1.101-0.398c0.478-0.469,0.441-1.128-0.103-1.488
	c-0.197-0.131-0.432-0.232-0.662-0.289c-0.333-0.08-0.669-0.127-0.937-0.351c-0.001-0.001-0.009-0.009-0.009-0.009
	c-0.092,0.009-0.193-0.006-0.265,0.03c-0.082,0.042-0.151,0.125-0.206,0.202c-0.264,0.365-0.378,0.775-0.397,1.212
	c-0.017,0.35,0.155,0.621,0.451,0.82C15.263,9.401,15.61,9.474,15.986,9.47z"/>
<path fill-rule="evenodd" clip-rule="evenodd" fill="#476899" d="M8.944,7.56C8.933,7.027,8.983,6.5,9.327,6.059
	c0.245-0.314,0.518-0.612,0.809-0.887c0.387-0.367,0.8-0.715,1.292-0.958c0.111-0.054,0.24-0.093,0.363-0.102
	c0.163-0.014,0.237,0.114,0.148,0.242c-0.066,0.096-0.154,0.181-0.243,0.261c-0.46,0.419-0.923,0.836-1.384,1.253
	C9.888,6.249,9.701,6.735,9.663,7.273C9.627,7.722,9.624,8.171,9.764,8.612c0.049,0.153,0.029,0.326-0.119,0.417
	C9.557,9.084,9.389,9.107,9.307,9.062C9.192,9.001,9.074,8.871,9.05,8.754C8.976,8.361,8.943,7.959,8.893,7.562
	C8.911,7.561,8.928,7.561,8.944,7.56z"/>
</svg>
