<?xml version="1.0" encoding="utf-8"?>
<!-- Generator: Adobe Illustrator 16.0.0, SVG Export Plug-In . SVG Version: 6.00 Build 0)  -->
<!DOCTYPE svg PUBLIC "-//W3C//DTD SVG 1.1//EN" "http://www.w3.org/Graphics/SVG/1.1/DTD/svg11.dtd">
<svg version="1.1" id="Layer_1" xmlns="http://www.w3.org/2000/svg" xmlns:xlink="http://www.w3.org/1999/xlink" x="0px" y="0px"
	 width="30px" height="30px" viewBox="0 0 30 30" enable-background="new 0 0 30 30" xml:space="preserve">
<path fill-rule="evenodd" clip-rule="evenodd" fill="#48689A" d="M0.395,15.067c0.062-2.679,1.021-4.998,2.818-6.979
	C4.468,6.707,5.998,5.714,7.69,4.966c1.043-0.462,2.094-0.923,3.173-1.293c1.844-0.627,3.748-0.878,5.703-0.736
	c1.036,0.075,2.066,0.185,3.073,0.431c1.249,0.307,2.43,0.793,3.515,1.493c1.788,1.156,3.417,2.506,4.854,4.076
	c0.74,0.809,1.236,1.756,1.438,2.84c0.147,0.781,0.203,1.565,0.068,2.355c-0.142,0.841-0.24,1.691-0.412,2.527
	c-0.249,1.209-0.551,2.418-1.341,3.407c-0.439,0.553-0.982,1.024-1.493,1.522c-0.259,0.254-0.544,0.482-0.812,0.729
	c-0.061,0.056-0.131,0.132-0.141,0.207c-0.166,1.268-0.323,2.539-0.481,3.809c-0.021,0.158-0.038,0.314-0.078,0.467
	c-0.102,0.358-0.356,0.503-0.689,0.333c-0.361-0.185-0.718-0.401-1.028-0.66c-0.376-0.312-0.701-0.686-1.048-1.032
	c-0.113-0.112-0.221-0.227-0.334-0.339c-0.383-0.391-0.81-0.535-1.391-0.52c-1.725,0.043-3.452,0.035-5.174-0.043
	c-1.133-0.055-2.275-0.188-3.385-0.421c-1.255-0.261-2.493-0.637-3.712-1.043c-1.431-0.479-2.789-1.136-4.056-1.969
	c-1.199-0.785-2.249-1.718-2.898-3.031C0.575,17.131,0.371,16.124,0.395,15.067z M23.425,24.596
	c0.029-0.006,0.057-0.012,0.085-0.016c0.03-0.103,0.08-0.201,0.091-0.303c0.068-0.741,0.102-1.486,0.197-2.223
	c0.104-0.816,0.258-1.151,1.192-1.117c0.332,0.013,0.564-0.083,0.767-0.317c0.066-0.078,0.143-0.15,0.205-0.23
	c1.384-1.809,2.226-3.816,2.189-6.127c-0.012-0.669-0.106-1.339-0.176-2.007c-0.088-0.869-0.362-1.677-0.828-2.42
	c-0.982-1.563-2.371-2.68-3.973-3.543c-1.301-0.704-2.677-1.238-4.081-1.683c-0.978-0.307-1.976-0.539-3.006-0.502
	c-0.661,0.026-1.324,0.1-1.981,0.183c-1.242,0.158-2.452,0.469-3.63,0.886C8.639,5.828,6.953,6.763,5.448,8.008
	C4.718,8.614,3.97,9.2,3.436,10.005c-0.919,1.389-1.415,2.924-1.577,4.567c-0.127,1.299,0.167,2.502,0.961,3.552
	c0.572,0.758,1.335,1.294,2.122,1.805c1.556,1.013,3.227,1.763,5.021,2.212c1.087,0.273,2.184,0.523,3.288,0.698
	c1.266,0.199,2.541,0.355,3.816,0.445c1.45,0.102,2.901,0.031,4.289-0.468c0.375-0.136,0.601-0.023,0.814,0.243
	c0.315,0.396,0.631,0.794,0.947,1.188C23.217,24.369,23.322,24.479,23.425,24.596z"/>
<path fill-rule="evenodd" clip-rule="evenodd" fill="#48689A" d="M7.371,15.792c1.824-0.138,3.931-0.287,6.036-0.459
	c1.863-0.154,3.722-0.328,5.579-0.503c1.152-0.108,2.3-0.235,3.448-0.352c0.182-0.018,0.365-0.038,0.544-0.02
	c0.104,0.01,0.245,0.073,0.281,0.152c0.04,0.085,0.014,0.251-0.05,0.319c-0.096,0.099-0.247,0.188-0.38,0.198
	c-0.985,0.074-1.975,0.123-2.961,0.188c-1.225,0.082-2.448,0.162-3.672,0.257c-1.254,0.099-2.508,0.204-3.76,0.329
	c-0.952,0.093-1.903,0.211-2.853,0.328c-1.1,0.137-2.196,0.293-3.294,0.424c-0.453,0.055-0.91,0.084-1.368,0.094
	c-0.214,0.002-0.403-0.101-0.435-0.352c-0.035-0.274,0.077-0.453,0.35-0.54c0.133-0.043,0.279-0.059,0.42-0.06
	C5.866,15.791,6.475,15.792,7.371,15.792z"/>
<path fill-rule="evenodd" clip-rule="evenodd" fill="#48689A" d="M17.21,11.552c1.708-0.127,3.681-0.272,5.651-0.423
	c0.282-0.021,0.563-0.076,0.846-0.098c0.165-0.014,0.274,0.066,0.27,0.251c-0.004,0.175-0.111,0.221-0.265,0.235
	c-0.851,0.079-1.699,0.18-2.548,0.239c-1.294,0.092-2.591,0.15-3.885,0.234c-0.98,0.064-1.958,0.146-2.936,0.218
	c-1.19,0.089-2.383,0.16-3.572,0.269c-0.819,0.074-1.633,0.195-2.448,0.292c-0.179,0.021-0.373,0.073-0.418-0.204
	c-0.041-0.246,0.038-0.412,0.311-0.467c0.402-0.083,0.809-0.154,1.217-0.185c1.656-0.131,3.311-0.261,4.97-0.354
	C15.248,11.512,16.097,11.552,17.21,11.552z"/>
<path fill-rule="evenodd" clip-rule="evenodd" fill="#48689A" d="M14.611,18.84c1.35-0.068,2.7-0.126,4.05-0.209
	c0.448-0.026,0.891-0.12,1.34-0.171c0.367-0.045,0.476,0.017,0.498,0.235c0.03,0.272-0.212,0.609-0.477,0.611
	c-0.425,0.004-0.852-0.041-1.277-0.046c-1.028-0.011-2.058-0.065-3.083-0.009c-1.206,0.064-2.407,0.229-3.608,0.35
	c-0.314,0.032-0.629,0.082-0.942,0.09c-0.293,0.006-0.402-0.184-0.306-0.465c0.084-0.244,0.234-0.409,0.507-0.429
	c0.149-0.009,0.299-0.022,0.448-0.024c0.947-0.002,1.898,0,2.847,0C14.611,18.796,14.611,18.817,14.611,18.84z"/>
<path fill-rule="evenodd" clip-rule="evenodd" fill="#48689A" d="M18.98,8.401c-0.101,0.026-0.198,0.067-0.301,0.073
	c-1.025,0.064-2.052,0.13-3.078,0.184c-1.343,0.072-2.686,0.126-4.027,0.207c-0.654,0.04-1.304,0.126-1.958,0.174
	C9.369,9.057,9.129,8.991,8.959,8.78C8.723,8.492,8.808,8.246,9.174,8.192c0.289-0.044,0.582-0.077,0.874-0.074
	c2.721,0.025,5.441,0.055,8.162,0.092c0.253,0.003,0.509,0.052,0.763,0.081C18.977,8.328,18.979,8.364,18.98,8.401z"/>
<path fill-rule="evenodd" clip-rule="evenodd" fill="#48689A" d="M26.908,12.573c-0.089,0.672-0.169,1.346-0.27,2.016
	c-0.02,0.132-0.096,0.267-0.178,0.379c-0.146,0.203-0.339,0.18-0.429-0.054c-0.045-0.118-0.047-0.266-0.025-0.392
	c0.149-0.877,0.231-1.755,0.075-2.641c-0.124-0.699-0.408-1.323-0.867-1.869c-0.159-0.191-0.303-0.403-0.42-0.623
	c-0.043-0.083-0.033-0.259,0.024-0.318c0.072-0.073,0.23-0.104,0.338-0.084c0.338,0.065,0.604,0.27,0.814,0.536
	c0.633,0.8,0.915,1.718,0.883,2.735c-0.004,0.102,0,0.206,0,0.309C26.872,12.567,26.889,12.57,26.908,12.573z"/>
</svg>
