<?xml version="1.0" encoding="utf-8"?>
<!-- Generator: Adobe Illustrator 16.0.0, SVG Export Plug-In . SVG Version: 6.00 Build 0)  -->
<!DOCTYPE svg PUBLIC "-//W3C//DTD SVG 1.1//EN" "http://www.w3.org/Graphics/SVG/1.1/DTD/svg11.dtd">
<svg version="1.1" id="Layer_1" xmlns="http://www.w3.org/2000/svg" xmlns:xlink="http://www.w3.org/1999/xlink" x="0px" y="0px"
	 width="30px" height="30px" viewBox="0 0 30 30" enable-background="new 0 0 30 30" xml:space="preserve">
<path fill-rule="evenodd" clip-rule="evenodd" fill="#48689A" d="M29.244,10.583c-0.056,0.654-0.111,1.363-0.178,2.069
	c-0.058,0.61-0.121,1.22-0.189,1.829c-0.062,0.571-0.132,1.143-0.199,1.713c-0.063,0.545-0.125,1.089-0.191,1.63
	c-0.064,0.53-0.134,1.06-0.2,1.586c-0.063,0.485-0.12,0.967-0.192,1.448c-0.111,0.734-0.198,1.474-0.448,2.179
	c-0.032,0.087-0.077,0.171-0.126,0.249c-0.089,0.144-0.217,0.222-0.392,0.228c-0.712,0.03-1.424,0.06-2.133,0.098
	c-0.868,0.047-1.738,0.096-2.607,0.15c-0.928,0.062-1.856,0.122-2.786,0.192c-0.793,0.059-1.585,0.127-2.378,0.193
	c-0.787,0.064-1.576,0.127-2.363,0.199c-0.666,0.059-1.332,0.127-1.998,0.193c-0.642,0.064-1.284,0.125-1.926,0.201
	c-0.655,0.076-1.31,0.16-1.962,0.253c-0.508,0.074-1.016,0.153-1.521,0.253c-0.439,0.085-0.872,0.204-1.31,0.303
	c-0.465,0.104-0.931,0.207-1.413,0.194c-0.802-0.021-1.45-0.479-1.686-1.243c-0.179-0.588-0.327-1.187-0.455-1.789
	c-0.146-0.688-0.262-1.387-0.375-2.082c-0.094-0.573-0.167-1.148-0.246-1.721c-0.086-0.626-0.172-1.25-0.253-1.877
	c-0.085-0.654-0.166-1.308-0.251-1.962c-0.061-0.463-0.126-0.926-0.189-1.39c-0.087-0.63-0.173-1.26-0.26-1.89
	c-0.063-0.458-0.13-0.917-0.192-1.375C0.718,9.632,0.614,8.849,0.512,8.066C0.49,7.904,0.463,7.743,0.46,7.581
	C0.451,6.705,0.868,6.25,1.579,6.039c0.812-0.242,1.63-0.473,2.457-0.668c1.191-0.282,2.409-0.32,3.627-0.288
	c0.18,0.006,0.359,0.05,0.537,0.089c0.245,0.056,0.405,0.219,0.515,0.439c0.16,0.324,0.348,0.628,0.606,0.886
	c0.195,0.196,0.417,0.306,0.702,0.281c0.667-0.055,1.334-0.101,1.999-0.163c0.62-0.057,1.238-0.129,1.856-0.198
	c0.539-0.06,1.078-0.125,1.618-0.185c0.617-0.07,1.236-0.138,1.852-0.207c0.597-0.066,1.19-0.134,1.786-0.197
	c0.604-0.065,1.21-0.127,1.815-0.185c1.062-0.1,2.128-0.17,3.195-0.117C24.572,5.549,25,5.609,25.419,5.695
	c0.415,0.085,0.684,0.366,0.819,0.767c0.16,0.468,0.189,0.953,0.185,1.439c-0.002,0.122,0.037,0.145,0.151,0.147
	c0.416,0.01,0.833,0.01,1.245,0.059c0.845,0.098,1.209,0.523,1.335,1.371C29.207,9.825,29.213,10.176,29.244,10.583z M4.451,24.703
	c0.031,0.006,0.049,0.013,0.065,0.011c0.347-0.053,0.693-0.107,1.039-0.165c0.526-0.085,1.051-0.177,1.577-0.26
	c0.56-0.086,1.12-0.164,1.679-0.245c0.597-0.086,1.193-0.177,1.791-0.26c0.612-0.086,1.225-0.164,1.835-0.244
	c0.659-0.087,1.316-0.18,1.976-0.26c0.725-0.087,1.449-0.165,2.174-0.243c0.671-0.072,1.341-0.144,2.012-0.207
	c0.828-0.073,1.658-0.144,2.489-0.204c1.008-0.074,2.016-0.133,3.026-0.199c0.05-0.004,0.101-0.031,0.151-0.048
	c-0.02-0.047-0.026-0.112-0.062-0.144c-0.174-0.161-0.356-0.314-0.535-0.474c-0.104-0.092-0.216-0.179-0.31-0.281
	c-0.109-0.12-0.083-0.37,0.036-0.488c0.107-0.103,0.228-0.098,0.389,0.037c0.11,0.093,0.218,0.191,0.313,0.3
	c0.288,0.321,0.569,0.645,0.852,0.971c0.113,0.133,0.254,0.199,0.432,0.188c0.229-0.013,0.458-0.017,0.687-0.029
	c0.068-0.002,0.135-0.021,0.236-0.036c-0.082-0.097-0.138-0.176-0.206-0.244c-0.662-0.668-1.324-1.333-1.987-2
	c-0.147-0.151-0.3-0.298-0.437-0.457c-0.105-0.124-0.104-0.259-0.021-0.357c0.076-0.092,0.229-0.127,0.357-0.054
	c0.137,0.08,0.279,0.167,0.379,0.283c0.699,0.811,1.389,1.63,2.082,2.444c0.041,0.051,0.084,0.096,0.143,0.165
	c0.043-0.099,0.072-0.171,0.103-0.242c0.165-0.383,0.132-0.716-0.151-1.057c-0.785-0.941-1.544-1.904-2.312-2.856
	c-0.159-0.198-0.323-0.389-0.478-0.591c-0.095-0.124-0.1-0.275-0.019-0.347c0.126-0.111,0.237-0.021,0.322,0.057
	c0.151,0.132,0.296,0.274,0.418,0.432c0.721,0.926,1.436,1.857,2.151,2.786c0.112,0.146,0.231,0.289,0.374,0.466
	c0.023-0.104,0.048-0.17,0.054-0.235c0.022-0.384,0.039-0.767,0.061-1.15c0.008-0.119-0.04-0.202-0.134-0.274
	c-0.089-0.065-0.171-0.146-0.243-0.229c-0.735-0.855-1.435-1.738-2.242-2.529c-0.143-0.139-0.256-0.31-0.364-0.477
	c-0.035-0.056-0.043-0.182-0.008-0.215c0.052-0.047,0.178-0.084,0.231-0.053c0.168,0.1,0.341,0.212,0.472,0.358
	c0.774,0.855,1.539,1.724,2.305,2.587c0.032,0.035,0.073,0.062,0.124,0.105c0.015-0.057,0.028-0.085,0.032-0.116
	c0.058-0.615,0.112-1.23,0.172-1.844c0.011-0.106-0.022-0.188-0.091-0.267c-0.594-0.697-1.185-1.4-1.778-2.098
	c-0.304-0.355-0.59-0.728-0.977-1.003c-0.08-0.058-0.137-0.152-0.196-0.235c-0.075-0.104-0.076-0.21,0.018-0.305
	c0.098-0.097,0.177-0.005,0.249,0.04c0.303,0.196,0.579,0.423,0.812,0.705c0.632,0.764,1.267,1.526,1.9,2.289
	c0.046,0.057,0.094,0.112,0.16,0.191c0.029-0.085,0.059-0.139,0.063-0.195c0.041-0.424,0.072-0.849,0.121-1.271
	c0.021-0.213-0.05-0.383-0.187-0.537c-0.26-0.293-0.512-0.597-0.778-0.884c-0.549-0.588-1.05-1.221-1.721-1.685
	c-0.038-0.027-0.07-0.062-0.103-0.096c-0.121-0.119-0.106-0.266-0.063-0.406c0.01-0.035,0.109-0.076,0.152-0.062
	c0.094,0.034,0.191,0.085,0.264,0.153c0.363,0.342,0.744,0.672,1.074,1.045c0.449,0.506,0.859,1.048,1.286,1.575
	c0.049,0.059,0.102,0.112,0.169,0.188c0.019-0.077,0.037-0.121,0.04-0.166c0.033-0.462,0.058-0.926,0.099-1.386
	c0.018-0.18-0.038-0.318-0.155-0.442c-0.217-0.233-0.443-0.457-0.648-0.701c-0.467-0.559-0.935-1.12-1.385-1.694
	c-0.166-0.214-0.357-0.259-0.61-0.238c-0.577,0.048-1.158,0.076-1.736,0.11c-1.005,0.059-2.011,0.11-3.015,0.176
	c-0.853,0.057-1.707,0.126-2.561,0.195c-0.708,0.058-1.417,0.12-2.125,0.187c-0.601,0.056-1.202,0.116-1.801,0.184
	c-0.548,0.062-1.096,0.134-1.643,0.205c-0.751,0.098-1.503,0.191-2.251,0.3c-0.652,0.094-1.303,0.198-1.951,0.318
	c-0.661,0.122-1.319,0.263-1.977,0.405c-0.333,0.072-0.561,0.273-0.63,0.618c-0.054,0.264-0.114,0.531-0.129,0.801
	c-0.059,1.07-0.117,2.139-0.143,3.21c-0.049,2.03-0.083,4.062-0.105,6.095c-0.007,0.73-0.154,1.425-0.443,2.094
	C4.611,24.359,4.532,24.526,4.451,24.703z M4.063,20.458c0.011-0.001,0.022-0.003,0.033-0.005c0.002-0.022,0.006-0.045,0.006-0.068
	c0.039-1.207,0.064-2.415,0.115-3.621c0.067-1.595,0.145-3.189,0.235-4.781c0.042-0.711,0.354-1.261,1.076-1.479
	c0.384-0.117,0.777-0.202,1.169-0.276c0.65-0.117,1.301-0.218,1.954-0.316c0.572-0.087,1.146-0.166,1.72-0.248
	c0.61-0.087,1.221-0.18,1.833-0.26c0.802-0.103,1.605-0.202,2.41-0.296c0.766-0.091,1.532-0.187,2.301-0.261
	c0.833-0.081,1.668-0.144,2.504-0.209c0.722-0.056,1.446-0.1,2.169-0.156c0.62-0.047,1.241-0.098,1.861-0.153
	c0.554-0.049,1.106-0.105,1.661-0.163c0.042-0.004,0.107-0.045,0.112-0.075c0.032-0.248,0.083-0.501,0.072-0.749
	c-0.019-0.392-0.187-0.538-0.575-0.521c-0.477,0.021-0.952,0.061-1.427,0.106C22.476,7,21.661,7.081,20.848,7.167
	c-0.776,0.082-1.552,0.175-2.328,0.26c-0.828,0.092-1.655,0.182-2.482,0.271c-0.726,0.079-1.452,0.157-2.178,0.234
	c-0.543,0.058-1.088,0.114-1.632,0.172c-0.567,0.061-1.135,0.12-1.701,0.188c-0.674,0.082-1.345,0.171-2.018,0.26
	C7.768,8.65,7.025,8.754,6.284,8.849C5.681,8.927,5.077,8.991,4.475,9.068c-0.208,0.026-0.418,0.06-0.619,0.116
	c-0.34,0.095-0.521,0.353-0.523,0.709c-0.001,0.107,0.003,0.216,0.008,0.322c0.03,0.557,0.057,1.113,0.09,1.668
	c0.069,1.108,0.132,2.214,0.21,3.321c0.115,1.59,0.239,3.181,0.361,4.772C4.014,20.138,4.042,20.299,4.063,20.458z M8.409,7.851
	C8.379,7.805,8.357,7.764,8.33,7.727C8.07,7.367,7.811,7.006,7.547,6.65C7.39,6.438,7.386,6.441,7.588,6.264
	c0.028-0.025,0.067-0.083,0.059-0.098c-0.022-0.033-0.068-0.064-0.11-0.071c-0.115-0.02-0.231-0.032-0.348-0.04
	C6.422,5.999,5.655,5.998,4.894,6.124C4.504,6.187,4.114,6.271,3.73,6.371C3.222,6.506,2.714,6.65,2.216,6.821
	C1.921,6.923,1.63,7.066,1.6,7.448C1.582,7.682,1.55,7.913,1.538,8.147C1.53,8.301,1.58,8.431,1.727,8.525
	C1.875,8.62,2.001,8.75,2.14,8.86c0.176,0.139,0.354,0.276,0.532,0.411c0.092,0.068,0.17,0.067,0.224-0.05
	c0.05-0.11,0.107-0.217,0.159-0.325c0.084-0.174,0.05-0.311-0.086-0.455c-0.227-0.24-0.44-0.496-0.646-0.754
	C2.221,7.56,2.236,7.433,2.337,7.332c0.102-0.104,0.23-0.102,0.334-0.03C2.787,7.38,2.894,7.482,2.975,7.595
	c0.181,0.25,0.343,0.513,0.513,0.77c0.066,0.1,0.156,0.159,0.28,0.156c0.271-0.008,0.541-0.013,0.812-0.026
	c0.048-0.002,0.096-0.042,0.153-0.067C4.707,8.392,4.694,8.373,4.68,8.356C4.329,7.93,3.978,7.504,3.629,7.077
	C3.51,6.933,3.518,6.778,3.638,6.648C3.701,6.58,3.771,6.562,3.847,6.625c0.078,0.067,0.159,0.133,0.222,0.212
	c0.299,0.383,0.607,0.761,0.883,1.159c0.204,0.293,0.434,0.452,0.797,0.341c0.041-0.011,0.086-0.002,0.125-0.014
	c0.102-0.03,0.202-0.068,0.33-0.112C6.115,8.114,6.058,8.047,5.997,7.984c-0.32-0.335-0.644-0.666-0.958-1.006
	c-0.076-0.083-0.134-0.19-0.176-0.296c-0.046-0.115,0.001-0.208,0.12-0.26c0.224-0.095,0.35-0.076,0.513,0.111
	c0.111,0.125,0.205,0.266,0.299,0.404c0.23,0.335,0.455,0.675,0.69,1.006c0.042,0.058,0.124,0.122,0.188,0.124
	c0.139,0.004,0.28-0.017,0.413-0.054c0.138-0.039,0.137-0.071,0.04-0.18C6.789,7.444,6.453,7.055,6.118,6.665
	C6.077,6.617,6.045,6.562,5.991,6.484c0.13-0.039,0.235-0.072,0.341-0.098c0.241-0.058,0.28-0.044,0.424,0.159
	c0.28,0.396,0.555,0.797,0.84,1.191C7.759,7.958,8.155,8.012,8.409,7.851z M28.005,11.589c0.015-0.001,0.029-0.003,0.044-0.003
	c0.014-0.1,0.036-0.199,0.039-0.3c0.007-0.294,0.009-0.588,0.004-0.882c-0.003-0.095-0.015-0.207-0.063-0.283
	c-0.178-0.279-0.363-0.554-0.567-0.813c-0.059-0.074-0.195-0.12-0.294-0.121c-0.3,0-0.599,0.026-0.896,0.047
	c-0.032,0.001-0.08,0.025-0.088,0.047c-0.007,0.027,0.015,0.071,0.037,0.097c0.401,0.5,0.803,0.998,1.205,1.496
	C27.617,11.113,27.811,11.35,28.005,11.589z M3.234,20.893c0.016,0,0.031,0,0.046-0.002c0.003-0.053,0.01-0.106,0.01-0.159
	c0.004-1.313,0.009-2.629,0.009-3.944c0-0.048-0.015-0.108-0.045-0.142c-0.166-0.178-0.337-0.35-0.51-0.519
	c-0.024-0.024-0.073-0.021-0.111-0.031c-0.005,0.035-0.019,0.071-0.014,0.104c0.025,0.218,0.056,0.434,0.082,0.653
	c0.085,0.692,0.161,1.385,0.25,2.075c0.079,0.616,0.172,1.231,0.26,1.848C3.215,20.815,3.227,20.854,3.234,20.893z M1.626,9.295
	c-0.002,0-0.004,0-0.007,0c0.02,0.149,0.05,0.295,0.054,0.444c0.01,0.319,0.173,0.523,0.448,0.666
	c0.177,0.091,0.341,0.206,0.517,0.302c0.029,0.017,0.105,0.003,0.12-0.021c0.112-0.174,0.077-0.703-0.063-0.851
	C2.444,9.57,2.184,9.316,1.925,9.061C1.883,9.02,1.829,8.984,1.775,8.96C1.663,8.908,1.606,8.948,1.611,9.07
	C1.611,9.146,1.62,9.221,1.626,9.295z M3.013,13.405c-0.022-0.264-0.031-0.464-0.061-0.662c-0.011-0.067-0.069-0.141-0.126-0.186
	c-0.154-0.12-0.315-0.228-0.479-0.335c-0.05-0.032-0.116-0.042-0.174-0.061c-0.019,0.055-0.056,0.112-0.051,0.165
	c0.023,0.316,0.052,0.633,0.088,0.948c0.009,0.065,0.042,0.146,0.09,0.182c0.189,0.144,0.388,0.275,0.584,0.407
	c0.087,0.059,0.129,0.028,0.129-0.073C3.012,13.64,3.013,13.492,3.013,13.405z M3.169,15.7c0.021-0.01,0.042-0.019,0.062-0.028
	c-0.041-0.316-0.082-0.634-0.125-0.95c-0.003-0.029-0.025-0.064-0.05-0.081c-0.165-0.121-0.331-0.241-0.503-0.353
	c-0.034-0.023-0.108-0.027-0.138-0.005c-0.03,0.024-0.042,0.09-0.038,0.134c0.013,0.121,0.03,0.241,0.058,0.359
	c0.022,0.094,0.043,0.2,0.1,0.27c0.161,0.199,0.341,0.384,0.517,0.57C3.083,15.652,3.129,15.672,3.169,15.7z M1.893,11.009
	c0.049,0.16,0.067,0.326,0.145,0.457c0.157,0.261,0.434,0.383,0.695,0.515c0.019,0.009,0.084-0.024,0.084-0.038
	c-0.002-0.127,0.033-0.288-0.03-0.376c-0.178-0.244-0.392-0.461-0.601-0.68c-0.044-0.047-0.144-0.084-0.194-0.064
	C1.944,10.839,1.927,10.937,1.893,11.009z"/>
</svg>
