<?xml version="1.0" encoding="utf-8"?>
<!-- Generator: Adobe Illustrator 16.0.0, SVG Export Plug-In . SVG Version: 6.00 Build 0)  -->
<!DOCTYPE svg PUBLIC "-//W3C//DTD SVG 1.1//EN" "http://www.w3.org/Graphics/SVG/1.1/DTD/svg11.dtd">
<svg version="1.1" id="Layer_1" xmlns="http://www.w3.org/2000/svg" xmlns:xlink="http://www.w3.org/1999/xlink" x="0px" y="0px"
	 width="30px" height="30px" viewBox="0 0 30 30" enable-background="new 0 0 30 30" xml:space="preserve">
<path fill-rule="evenodd" clip-rule="evenodd" fill="#48689A" d="M8.429,17.765c-0.282,0.312-0.563,0.595-0.81,0.905
	c-0.304,0.39-0.564,0.811-0.872,1.193c-0.154,0.191-0.348,0.373-0.562,0.49c-0.388,0.213-0.868,0.034-1.124-0.379
	c-0.185-0.301-0.276-0.631-0.345-0.972c-0.187-0.939-0.125-1.877,0.046-2.814c0.142-0.776,0.349-1.529,0.799-2.183
	c0.736-1.073,1.624-2.007,2.734-2.701c0.483-0.303,1.025-0.488,1.619-0.447c0.048,0.002,0.124-0.05,0.146-0.095
	c0.517-1.017,1.119-1.979,1.778-2.904c1.16-1.628,2.523-3.071,4.056-4.347c0.994-0.826,2.032-1.583,3.179-2.189
	c0.676-0.358,1.392-0.608,2.136-0.785c0.726-0.177,1.458-0.306,2.209-0.272c0.374,0.018,0.74,0.089,1.086,0.242
	c0.579,0.259,0.833,0.746,0.943,1.333c0.172,0.912,0.146,1.826,0.012,2.735c-0.116,0.771-0.241,1.544-0.424,2.303
	c-0.169,0.698-0.389,1.386-0.64,2.059c-0.402,1.081-0.834,2.153-1.281,3.214c-0.441,1.042-0.92,2.068-1.548,3.014
	c-0.074,0.111-0.072,0.224,0.007,0.33c0.34,0.452,0.43,0.97,0.417,1.519c-0.012,0.768-0.2,1.501-0.445,2.221
	c-0.527,1.546-1.415,2.883-2.468,4.116c-0.52,0.61-1.047,1.216-1.669,1.728c-0.237,0.197-0.48,0.389-0.784,0.472
	c-0.635,0.171-1.369-0.165-1.646-0.765c-0.1-0.217-0.164-0.453-0.208-0.69c-0.056-0.28,0.073-0.539,0.165-0.795
	c0.17-0.478,0.352-0.949,0.525-1.425c0.082-0.224,0.029-0.301-0.208-0.309c-0.384-0.008-0.768-0.008-1.154-0.016
	c-0.083-0.004-0.133,0.026-0.178,0.104c-0.177,0.29-0.401,0.536-0.729,0.669c-0.246,0.104-0.493,0.093-0.739,0.03
	c-1.16-0.298-2.246-0.77-3.251-1.415c-0.169-0.108-0.327-0.248-0.465-0.393c-0.195-0.204-0.255-0.445-0.164-0.722
	c0.132-0.401,0.254-0.803,0.378-1.205c0.012-0.039,0.012-0.104-0.01-0.125c-0.205-0.174-0.338-0.394-0.444-0.636
	C8.49,17.84,8.473,17.825,8.429,17.765z M14.138,20.549c0.016-0.013,0.032-0.022,0.048-0.036c-0.014-0.049-0.021-0.105-0.044-0.149
	c-0.239-0.462-0.477-0.915-0.717-1.373c-0.101-0.189-0.067-0.3,0.131-0.421c0.187-0.115,0.27-0.111,0.383,0.093
	c0.136,0.246,0.241,0.512,0.346,0.774c0.157,0.385,0.295,0.779,0.456,1.162c0.027,0.067,0.114,0.147,0.182,0.153
	c0.138,0.019,0.281-0.006,0.421-0.028c0.03-0.004,0.078-0.076,0.071-0.106c-0.038-0.178-0.075-0.351-0.133-0.522
	c-0.164-0.489-0.34-0.976-0.501-1.463c-0.019-0.061,0-0.169,0.044-0.212c0.228-0.228,0.388-0.193,0.515,0.099
	c0.013,0.03,0.023,0.062,0.031,0.095c0.115,0.496,0.227,0.996,0.35,1.492c0.035,0.139,0.094,0.273,0.155,0.407
	c0.048,0.103,0.143,0.118,0.242,0.068c0.051-0.026,0.102-0.051,0.148-0.081c0.162-0.095,0.168-0.135,0.098-0.312
	c-0.133-0.332-0.271-0.665-0.38-1.006c-0.107-0.328-0.183-0.667-0.264-1.001c-0.043-0.168,0.071-0.341,0.252-0.388
	c0.183-0.052,0.299,0.026,0.31,0.214c0.035,0.593,0.189,1.159,0.368,1.72c0.03,0.101,0.11,0.188,0.169,0.28
	c0.104-0.077,0.218-0.144,0.311-0.23c0.037-0.034,0.06-0.133,0.037-0.177c-0.229-0.445-0.347-0.93-0.459-1.411
	c-0.061-0.271-0.13-0.534-0.188-0.803c-0.044-0.197,0.043-0.34,0.219-0.385c0.145-0.038,0.234,0.021,0.283,0.236
	c0.087,0.362,0.161,0.729,0.231,1.094c0.057,0.299,0.092,0.601,0.151,0.899c0.024,0.133,0.098,0.161,0.216,0.091
	c0.102-0.057,0.194-0.131,0.29-0.206c0.128-0.103,0.163-0.229,0.11-0.389c-0.073-0.229-0.131-0.468-0.204-0.695
	c-0.123-0.387-0.246-0.774-0.379-1.159c-0.057-0.171-0.002-0.383,0.145-0.479c0.152-0.099,0.242-0.081,0.298,0.087
	c0.088,0.27,0.158,0.546,0.223,0.822c0.069,0.288,0.12,0.584,0.186,0.874c0.014,0.059,0.062,0.113,0.095,0.168
	c0.054-0.04,0.126-0.066,0.164-0.119c0.109-0.153,0.202-0.318,0.314-0.474c0.081-0.115,0.077-0.226,0.025-0.347
	c-0.101-0.228-0.202-0.458-0.298-0.689c-0.098-0.235-0.195-0.472-0.28-0.712c-0.049-0.143,0.046-0.306,0.188-0.352
	c0.146-0.051,0.219-0.019,0.287,0.153c0.121,0.309,0.235,0.621,0.351,0.93c0.049,0.129,0.091,0.26,0.141,0.395
	c0.167-0.114,0.292-0.415,0.243-0.566c-0.078-0.25-0.173-0.491-0.243-0.742c-0.06-0.206-0.108-0.411-0.137-0.619
	c-0.018-0.122,0.039-0.238,0.177-0.275c0.141-0.037,0.223,0.053,0.266,0.163c0.086,0.218,0.158,0.442,0.233,0.667
	c0.035,0.105,0.065,0.216,0.111,0.363c0.08-0.089,0.132-0.139,0.18-0.195c0.295-0.347,0.438-0.771,0.606-1.182
	c0.034-0.088-0.001-0.118-0.09-0.125c-0.24-0.025-0.444-0.101-0.516-0.364c-0.009-0.03-0.021-0.06-0.035-0.098
	c-0.034,0.024-0.061,0.034-0.079,0.053c-0.396,0.365-0.856,0.621-1.34,0.845c-0.65,0.299-1.322,0.486-2.049,0.432
	c-0.155-0.011-0.314,0-0.47-0.014c-0.481-0.045-0.966-0.083-1.423-0.256c-0.924-0.351-1.663-0.948-2.256-1.733
	c-0.292-0.388-0.45-0.826-0.51-1.306c-0.053-0.423-0.037-0.842,0.003-1.265c0.087-0.868,0.327-1.671,0.856-2.385
	c0.64-0.865,1.455-1.359,2.548-1.38c0.353-0.005,0.707-0.062,1.058-0.108c0.233-0.031,0.464-0.094,0.697-0.131
	c0.288-0.047,0.583-0.058,0.853,0.064c0.415,0.183,0.831,0.371,1.227,0.588c0.614,0.339,1.19,0.74,1.723,1.201
	c0.244,0.212,0.424,0.461,0.495,0.778c0.129,0.58,0.104,1.165-0.026,1.736c-0.126,0.565,0.018,1.049,0.323,1.507
	c0.073,0.111,0.121,0.111,0.177-0.011c0.115-0.259,0.213-0.525,0.33-0.783c0.104-0.23,0.052-0.411-0.093-0.615
	c-0.146-0.208-0.243-0.459-0.344-0.697c-0.057-0.13,0.067-0.299,0.242-0.364c0.108-0.041,0.186,0.004,0.249,0.165
	c0.045,0.108,0.082,0.22,0.12,0.332c0.042,0.116,0.081,0.234,0.123,0.35c0.019,0.002,0.037,0.003,0.057,0.006
	c0.074-0.184,0.152-0.363,0.215-0.547c0.061-0.173,0.025-0.343-0.05-0.51c-0.151-0.335-0.298-0.675-0.441-1.014
	c-0.072-0.166,0.006-0.321,0.188-0.397c0.169-0.07,0.27-0.027,0.342,0.163c0.055,0.147,0.091,0.299,0.133,0.449
	c0.038,0.132,0.071,0.265,0.107,0.399c0.018,0.003,0.035,0.004,0.054,0.007c0.088-0.154,0.183-0.305,0.258-0.464
	c0.028-0.058,0.029-0.153,0.001-0.21c-0.101-0.214-0.224-0.418-0.332-0.626c-0.1-0.193-0.204-0.386-0.283-0.588
	c-0.053-0.136,0.037-0.272,0.182-0.323c0.224-0.082,0.29-0.066,0.374,0.11c0.059,0.121,0.104,0.251,0.153,0.379
	c0.046,0.126,0.089,0.251,0.134,0.377c0.016,0,0.031,0,0.048,0.001c0.047-0.135,0.096-0.272,0.142-0.407
	c0.095-0.282,0.117-0.557-0.031-0.838c-0.137-0.26-0.246-0.533-0.36-0.802c-0.095-0.228-0.049-0.425,0.133-0.592
	c0.129-0.119,0.197-0.111,0.266,0.05c0.088,0.199,0.16,0.403,0.239,0.606c0.031,0.083,0.064,0.166,0.097,0.25
	c0.051-0.029,0.065-0.049,0.07-0.069c0.076-0.323,0.148-0.646,0.223-0.968c0.032-0.134,0.003-0.253-0.076-0.363
	c-0.138-0.199-0.274-0.397-0.411-0.597c-0.102-0.15-0.171-0.318-0.071-0.49c0.05-0.087,0.145-0.17,0.236-0.198
	c0.052-0.016,0.148,0.078,0.203,0.143c0.059,0.07,0.092,0.163,0.137,0.246c0.021,0.042,0.046,0.083,0.068,0.124
	c0.096-0.615,0.186-1.218,0.12-1.824c-0.029-0.282-0.073-0.566-0.149-0.837c-0.09-0.331-0.296-0.564-0.66-0.625
	c-0.602-0.104-1.195-0.027-1.78,0.084c-0.453,0.085-0.899,0.197-1.343,0.317c-0.486,0.135-0.967,0.294-1.412,0.545
	c-0.865,0.487-1.661,1.074-2.44,1.685c-1.093,0.854-2.151,1.75-3.025,2.835c-0.588,0.73-1.135,1.495-1.706,2.239
	c-0.492,0.642-0.945,1.304-1.283,2.041c-0.294,0.635-0.576,1.275-0.878,1.907C9.703,13.338,9.47,13.85,9.341,14.4
	c-0.214,0.925-0.227,1.851-0.004,2.779c0.069,0.292,0.208,0.506,0.468,0.667c1.186,0.742,2.36,1.495,3.543,2.239
	C13.605,20.248,13.873,20.396,14.138,20.549z M12.952,11.141c-0.011,0-0.023,0.003-0.036,0.004c0.057,0.395,0.078,0.796,0.176,1.178
	c0.215,0.822,0.717,1.414,1.524,1.727c0.516,0.199,1.053,0.312,1.598,0.381c0.401,0.051,0.806,0.03,1.204-0.059
	c0.589-0.133,1.108-0.408,1.564-0.799c0.354-0.307,0.72-0.61,0.952-1.029c0.411-0.742,0.493-1.554,0.427-2.384
	c-0.035-0.442-0.25-0.8-0.585-1.085c-0.168-0.144-0.345-0.283-0.527-0.407c-0.493-0.331-1.006-0.633-1.59-0.762
	c-0.64-0.141-1.274-0.086-1.892,0.132c-0.357,0.128-0.71,0.225-1.091,0.088c-0.075-0.026-0.193-0.022-0.257,0.022
	c-0.485,0.324-0.911,0.712-1.16,1.256C13.007,9.955,12.965,10.545,12.952,11.141z M5.63,17.592c0,0.161-0.009,0.322,0.002,0.481
	c0.029,0.333,0.06,0.663,0.212,0.968c0.083,0.161,0.16,0.178,0.275,0.038c0.11-0.135,0.215-0.278,0.3-0.429
	c0.239-0.434,0.548-0.807,0.929-1.119c0.252-0.21,0.503-0.419,0.746-0.641c0.07-0.064,0.128-0.168,0.144-0.261
	c0.052-0.308,0.066-0.622,0.123-0.929c0.113-0.604,0.236-1.209,0.37-1.808c0.143-0.642,0.399-1.242,0.698-1.825
	c0.058-0.117,0.103-0.244,0.129-0.371c0.021-0.107-0.051-0.162-0.157-0.127c-0.098,0.033-0.198,0.07-0.285,0.125
	c-1.138,0.715-2.086,1.616-2.75,2.796C5.826,15.455,5.625,16.499,5.63,17.592z M16.397,21.983c-0.023,0-0.044-0.004-0.066-0.006
	c-0.036,0.093-0.078,0.186-0.106,0.28c-0.111,0.383-0.232,0.762-0.323,1.147c-0.056,0.228-0.101,0.472-0.071,0.697
	c0.06,0.449,0.469,0.606,0.818,0.334c1.153-0.904,2.161-1.946,2.93-3.207c0.146-0.239,0.295-0.483,0.435-0.729
	c0.092-0.161,0.071-0.177-0.087-0.258c-0.073-0.036-0.152-0.125-0.165-0.203c-0.038-0.218-0.038-0.443-0.062-0.665
	c-0.025-0.229-0.056-0.452-0.097-0.676c-0.009-0.051-0.065-0.135-0.096-0.133c-0.068,0.002-0.151,0.036-0.196,0.087
	c-0.042,0.044-0.06,0.131-0.058,0.195c0.019,0.341,0.043,0.679,0.069,1.021c0.026,0.392,0.065,0.782,0.096,1.176
	c0.007,0.112-0.049,0.211-0.158,0.22c-0.113,0.012-0.17-0.089-0.183-0.196c-0.043-0.326-0.076-0.659-0.123-0.987
	c-0.03-0.206-0.077-0.411-0.118-0.623c-0.243,0.107-0.341,0.252-0.331,0.464c0.002,0.104,0.014,0.208,0.02,0.311
	c0.029,0.538,0.066,1.072,0.081,1.608c0.004,0.117-0.062,0.24-0.114,0.353c-0.017,0.036-0.098,0.062-0.142,0.059
	c-0.03-0.002-0.073-0.068-0.078-0.111c-0.041-0.362-0.072-0.728-0.111-1.09c-0.019-0.161-0.039-0.331-0.079-0.488
	c-0.013-0.054-0.092-0.093-0.139-0.139c-0.041,0.053-0.107,0.103-0.115,0.159c-0.022,0.167-0.03,0.341-0.023,0.51
	c0.019,0.434,0.055,0.871,0.073,1.307c0.006,0.165-0.103,0.226-0.257,0.161c-0.168-0.07-0.258-0.195-0.262-0.383
	c-0.006-0.319-0.014-0.636-0.033-0.952c-0.004-0.061-0.062-0.163-0.096-0.163c-0.075-0.002-0.169,0.03-0.223,0.085
	c-0.056,0.05-0.094,0.147-0.098,0.222c-0.007,0.18,0.006,0.36,0.021,0.542c0.021,0.242,0.056,0.488,0.072,0.733
	c0.011,0.155-0.124,0.252-0.267,0.184c-0.066-0.03-0.128-0.099-0.16-0.165c-0.04-0.076-0.046-0.173-0.07-0.258
	C16.47,22.262,16.434,22.123,16.397,21.983z M10.473,19.466c-0.007,0.059-0.016,0.117-0.019,0.178
	c-0.013,0.226-0.023,0.454-0.04,0.68c-0.001,0.036-0.026,0.091-0.054,0.101c-0.196,0.078-0.48-0.161-0.452-0.367
	c0.032-0.209,0.063-0.421,0.087-0.633c0.027-0.242-0.09-0.434-0.311-0.534c-0.107-0.048-0.188-0.034-0.253,0.075
	c-0.132,0.217-0.2,0.455-0.235,0.707c-0.031,0.238,0.021,0.436,0.226,0.589c0.597,0.441,1.192,0.887,1.888,1.167
	c0.467,0.186,0.945,0.343,1.452,0.371c0.266,0.014,0.482-0.123,0.673-0.291c0.034-0.03,0.053-0.139,0.027-0.169
	c-0.089-0.104-0.208-0.169-0.37-0.178c0,0.085-0.004,0.153,0.003,0.224c0.006,0.102-0.039,0.13-0.134,0.134
	c-0.328,0.014-0.336,0.008-0.347-0.316c0-0.011,0-0.019-0.002-0.026c-0.01-0.274-0.205-0.521-0.493-0.607
	c0,0.178,0.001,0.352-0.001,0.524c-0.003,0.208-0.029,0.229-0.231,0.226c-0.039,0-0.075-0.004-0.114-0.01
	c-0.144-0.008-0.198-0.087-0.181-0.224c0.022-0.199,0.028-0.401,0.064-0.595c0.033-0.189-0.042-0.311-0.196-0.399
	c-0.133-0.078-0.173-0.059-0.178,0.102c-0.005,0.179-0.005,0.36-0.019,0.54c-0.004,0.044-0.051,0.112-0.091,0.118
	c-0.196,0.041-0.479-0.207-0.475-0.409c0.007-0.231,0.027-0.463,0.029-0.695C10.731,19.579,10.667,19.513,10.473,19.466z
	 M19.918,18.251c0.023,0.311,0.04,0.623,0.075,0.936c0.022,0.188,0.067,0.372,0.118,0.556c0.015,0.055,0.08,0.097,0.121,0.146
	c0.044-0.04,0.103-0.07,0.129-0.121c0.163-0.284,0.287-0.587,0.244-0.917c-0.055-0.451-0.142-0.899-0.222-1.345
	c-0.01-0.061-0.049-0.114-0.077-0.175c-0.056,0.042-0.118,0.072-0.162,0.125C19.949,17.685,19.881,17.95,19.918,18.251z
	 M21.016,12.667c-0.048,0.075-0.086,0.135-0.119,0.195c-0.166,0.313-0.331,0.625-0.491,0.941c-0.021,0.037-0.024,0.116,0,0.137
	c0.131,0.122,0.269,0.238,0.413,0.339c0.032,0.023,0.132,0,0.153-0.032c0.202-0.324,0.399-0.653,0.589-0.985
	c0.047-0.081,0.035-0.155-0.083-0.195c-0.159-0.053-0.295-0.145-0.373-0.304C21.091,12.734,21.062,12.715,21.016,12.667z
	 M20.953,17.685c0.021-0.002,0.041-0.002,0.06-0.002c0.012-0.178,0.036-0.357,0.025-0.532c-0.013-0.236-0.05-0.47-0.089-0.701
	c-0.01-0.059-0.075-0.107-0.115-0.162c-0.019,0.009-0.036,0.017-0.051,0.024C20.738,16.783,20.883,17.229,20.953,17.685z"/>
<path fill-rule="evenodd" clip-rule="evenodd" fill="#48689A" d="M12.746,23.915c-0.002,0.978-0.369,1.804-0.991,2.548
	c-0.445,0.536-0.984,0.853-1.659,0.981c-0.716,0.137-1.429,0.29-2.141,0.451c-0.6,0.133-1.119,0.399-1.471,0.934
	c-0.109,0.163-0.249,0.314-0.399,0.441c-0.319,0.272-0.77,0.188-0.938-0.167c-0.059-0.123-0.069-0.259,0.01-0.379
	c0.511-0.784,0.718-1.653,0.742-2.576c0.022-0.841,0.102-1.678,0.252-2.502c0.072-0.391,0.167-0.78,0.301-1.15
	c0.169-0.472,0.551-0.769,0.987-0.978c0.256-0.121,0.538-0.2,0.818-0.265c0.317-0.074,0.616,0.041,0.907,0.163
	c0.703,0.299,1.357,0.672,1.898,1.224c0.083,0.083,0.18,0.151,0.271,0.229c0.201,0.167,0.423,0.26,0.693,0.241
	c0.135-0.01,0.275,0.008,0.408,0.038c0.208,0.047,0.294,0.153,0.309,0.369C12.754,23.65,12.746,23.784,12.746,23.915z M6.702,27.075
	c0.001,0.053,0.004,0.115,0.007,0.178c0.018,0.229,0.075,0.266,0.283,0.184c0.021-0.013,0.042-0.022,0.064-0.03
	c0.357-0.164,0.702-0.361,1.073-0.479c0.516-0.165,1.053-0.27,1.578-0.404c0.425-0.109,0.822-0.284,1.167-0.561
	c0.598-0.478,0.787-1.137,0.816-1.862c0.005-0.095-0.061-0.125-0.14-0.147c-0.281-0.081-0.585-0.101-0.819-0.303
	c-0.261-0.226-0.51-0.465-0.773-0.691c-0.353-0.306-0.708-0.61-1.075-0.902c-0.157-0.123-0.36-0.186-0.563-0.133
	c-0.292,0.078-0.548,0.228-0.694,0.506c-0.136,0.256-0.278,0.516-0.373,0.792c-0.144,0.415-0.292,0.834-0.356,1.266
	c-0.083,0.546-0.086,1.106-0.125,1.659C6.75,26.454,6.725,26.761,6.702,27.075z"/>
<path fill-rule="evenodd" clip-rule="evenodd" fill="#48689A" d="M17.101,8.255c0.34,0.047,0.689,0.064,1.021,0.146
	c0.394,0.097,0.688,0.376,0.958,0.662c0.175,0.187,0.303,0.418,0.46,0.624c0.021,0.031,0.083,0.056,0.118,0.048
	c0.145-0.027,0.279,0.019,0.358,0.139c0.071,0.112,0.028,0.259-0.132,0.32c-0.136,0.055-0.137,0.139-0.135,0.254
	c0.015,0.38,0.03,0.766-0.104,1.127c-0.374,1.024-0.94,1.399-1.813,1.434c-0.635,0.024-1.272-0.002-1.894-0.167
	c-0.859-0.23-1.409-0.706-1.603-1.709c-0.131-0.672-0.024-1.312,0.245-1.929c0.11-0.249,0.343-0.386,0.573-0.509
	c0.572-0.306,1.192-0.392,1.828-0.398c0.037,0,0.076,0,0.113,0C17.098,8.283,17.1,8.269,17.101,8.255z M17.229,12.553
	c0.295-0.054,0.599-0.091,0.888-0.167c0.445-0.117,0.78-0.384,0.889-0.847c0.07-0.299,0.1-0.607,0.117-0.914
	c0.045-0.868-0.892-1.951-2.079-1.679c-0.211,0.048-0.406,0.031-0.569-0.092c-0.166-0.125-0.313-0.089-0.477-0.03
	c-0.035,0.013-0.071,0.024-0.106,0.041c-0.555,0.226-0.913,0.619-1.047,1.214c-0.078,0.352-0.047,0.7,0.024,1.044
	c0.086,0.394,0.284,0.728,0.648,0.925C16.049,12.334,16.606,12.534,17.229,12.553z"/>
<path fill-rule="evenodd" clip-rule="evenodd" fill="#48689A" d="M15.615,13.968c-0.153-0.01-0.29-0.031-0.345-0.178
	c-0.055-0.143,0.005-0.273,0.121-0.351c0.142-0.096,0.302-0.174,0.466-0.228c0.129-0.045,0.236,0.035,0.308,0.147
	c0.073,0.112,0.088,0.229,0.009,0.345C16.033,13.902,15.819,13.941,15.615,13.968z"/>
<path fill-rule="evenodd" clip-rule="evenodd" fill="#48689A" d="M17.414,13.92c-0.151-0.054-0.312-0.091-0.45-0.171
	c-0.125-0.069-0.14-0.191-0.078-0.308c0.077-0.14,0.182-0.179,0.323-0.148c0.124,0.024,0.251,0.032,0.377,0.042
	c0.046,0.003,0.096-0.013,0.142-0.004c0.09,0.025,0.178,0.06,0.266,0.091c-0.036,0.099-0.048,0.211-0.105,0.291
	c-0.111,0.151-0.282,0.182-0.46,0.168C17.423,13.896,17.419,13.909,17.414,13.92z"/>
<path fill-rule="evenodd" clip-rule="evenodd" fill="#48689A" d="M13.627,10.917c0.2,0,0.375,0.172,0.371,0.37
	c-0.002,0.204-0.122,0.351-0.292,0.353c-0.228,0.004-0.466-0.176-0.472-0.352C13.229,11.095,13.418,10.917,13.627,10.917z"/>
<path fill-rule="evenodd" clip-rule="evenodd" fill="#48689A" d="M14.272,12.326c0.222-0.003,0.381,0.136,0.382,0.33
	c0.003,0.211-0.131,0.389-0.292,0.393c-0.201,0.004-0.479-0.215-0.477-0.376C13.89,12.5,14.082,12.327,14.272,12.326z"/>
<path fill-rule="evenodd" clip-rule="evenodd" fill="#48689A" d="M13.731,9.259c0.136,0.002,0.245,0.121,0.24,0.263
	c-0.004,0.159-0.16,0.316-0.31,0.312c-0.128-0.004-0.286-0.152-0.288-0.269C13.372,9.428,13.571,9.256,13.731,9.259z"/>
<path fill-rule="evenodd" clip-rule="evenodd" fill="#48689A" d="M8.956,25.937c-0.083-0.044-0.218-0.072-0.248-0.147
	c-0.056-0.135,0.098-0.179,0.189-0.216c0.487-0.187,0.891-0.487,1.25-0.862c0.104-0.108,0.246-0.191,0.384-0.252
	c0.111-0.053,0.225-0.004,0.294,0.106c0.072,0.115,0.007,0.206-0.073,0.274c-0.424,0.365-0.854,0.724-1.364,0.962
	C9.264,25.862,9.123,25.886,8.956,25.937z"/>
</svg>
