<?xml version="1.0" encoding="utf-8"?>
<!-- Generator: Adobe Illustrator 16.0.0, SVG Export Plug-In . SVG Version: 6.00 Build 0)  -->
<!DOCTYPE svg PUBLIC "-//W3C//DTD SVG 1.1//EN" "http://www.w3.org/Graphics/SVG/1.1/DTD/svg11.dtd">
<svg version="1.1" id="Layer_1" xmlns="http://www.w3.org/2000/svg" xmlns:xlink="http://www.w3.org/1999/xlink" x="0px" y="0px"
	 width="30px" height="30px" viewBox="0 0 30 30" enable-background="new 0 0 30 30" xml:space="preserve">
<g opacity="0.7">
	<g>
		<path fill="#151D2B" d="M29,15c0,7.731-6.268,14-14,14C7.268,29,1,22.731,1,15C1,7.268,7.268,1,15,1C22.732,1,29,7.268,29,15z
			 M15,2.407c-6.853,0-12.409,5.627-12.409,12.569c0,6.941,5.556,12.569,12.409,12.569c6.853,0,12.409-5.628,12.409-12.569
			C27.409,8.034,21.853,2.407,15,2.407z"/>
	</g>
</g>
<polygon opacity="0.7" fill="#151D2B" points="16.914,8.435 18.42,10.022 13.01,15.125 18.41,20.238 16.926,21.824 9.78,15.125 "/>
</svg>
