<?xml version="1.0" encoding="utf-8"?>
<!-- Generator: Adobe Illustrator 16.0.0, SVG Export Plug-In . SVG Version: 6.00 Build 0)  -->
<!DOCTYPE svg PUBLIC "-//W3C//DTD SVG 1.1//EN" "http://www.w3.org/Graphics/SVG/1.1/DTD/svg11.dtd">
<svg version="1.1" id="Layer_1" xmlns="http://www.w3.org/2000/svg" xmlns:xlink="http://www.w3.org/1999/xlink" x="0px" y="0px"
	 width="30px" height="30px" viewBox="0 0 30 30" enable-background="new 0 0 30 30" xml:space="preserve">
<g opacity="0.7">
	<g>
		<path fill="#151D2B" d="M28.929,15.007c0,7.731-6.269,14-14,14c-7.732,0-14-6.269-14-14c0-7.732,6.268-14,14-14
			C22.66,1.006,28.929,7.274,28.929,15.007z M14.929,2.414C8.076,2.414,2.52,8.041,2.52,14.983c0,6.941,5.556,12.569,12.409,12.569
			c6.853,0,12.409-5.628,12.409-12.569C27.338,8.041,21.781,2.414,14.929,2.414z"/>
	</g>
</g>
<polygon opacity="0.7" fill="#151D2B" points="12.115,21.831 10.608,20.244 16.019,15.142 10.62,10.028 12.103,8.442 19.249,15.142 
	"/>
</svg>
