<?xml version="1.0" encoding="utf-8"?>
<!-- Generator: Adobe Illustrator 16.0.0, SVG Export Plug-In . SVG Version: 6.00 Build 0)  -->
<!DOCTYPE svg PUBLIC "-//W3C//DTD SVG 1.1//EN" "http://www.w3.org/Graphics/SVG/1.1/DTD/svg11.dtd">
<svg version="1.1" id="Layer_1" xmlns="http://www.w3.org/2000/svg" xmlns:xlink="http://www.w3.org/1999/xlink" x="0px" y="0px"
	 width="30px" height="30px" viewBox="0 0 30 30" enable-background="new 0 0 30 30" xml:space="preserve">
<circle fill="#FFFFFF" stroke="#005E9E" stroke-miterlimit="10" cx="15.123" cy="15.021" r="14"/>
<g>
	<path fill-rule="evenodd" clip-rule="evenodd" fill="#005E9E" d="M11.642,15.841c-0.151,0.166-0.301,0.314-0.431,0.481
		c-0.162,0.207-0.302,0.43-0.464,0.635c-0.083,0.102-0.186,0.196-0.299,0.26c-0.207,0.114-0.461,0.018-0.598-0.202
		c-0.098-0.158-0.146-0.335-0.182-0.517c-0.101-0.499-0.067-0.999,0.023-1.496c0.076-0.413,0.186-0.814,0.425-1.161
		c0.391-0.57,0.863-1.068,1.454-1.436c0.256-0.162,0.545-0.26,0.861-0.238c0.025,0.001,0.065-0.026,0.077-0.05
		c0.274-0.54,0.595-1.052,0.946-1.544c0.618-0.865,1.343-1.633,2.157-2.312c0.529-0.439,1.082-0.842,1.691-1.164
		c0.359-0.19,0.74-0.323,1.135-0.418c0.387-0.093,0.777-0.162,1.174-0.144c0.201,0.009,0.396,0.047,0.58,0.129
		c0.309,0.137,0.443,0.396,0.502,0.709c0.09,0.484,0.078,0.971,0.006,1.455c-0.062,0.41-0.129,0.821-0.225,1.225
		c-0.09,0.371-0.209,0.737-0.342,1.094c-0.213,0.575-0.443,1.145-0.682,1.71c-0.234,0.554-0.488,1.099-0.822,1.602
		c-0.039,0.06-0.039,0.12,0.002,0.176c0.184,0.24,0.229,0.516,0.225,0.808c-0.008,0.407-0.107,0.797-0.238,1.18
		c-0.279,0.822-0.754,1.533-1.312,2.189c-0.275,0.324-0.557,0.646-0.887,0.919c-0.127,0.105-0.258,0.207-0.418,0.251
		c-0.338,0.092-0.728-0.089-0.875-0.407c-0.053-0.115-0.087-0.241-0.111-0.367c-0.028-0.148,0.04-0.285,0.089-0.423
		c0.09-0.253,0.187-0.504,0.279-0.757c0.043-0.12,0.015-0.16-0.111-0.164c-0.204-0.004-0.409-0.005-0.613-0.009
		c-0.044-0.002-0.071,0.014-0.096,0.055c-0.094,0.156-0.213,0.286-0.388,0.356c-0.129,0.056-0.262,0.05-0.391,0.017
		c-0.617-0.159-1.195-0.409-1.731-0.752c-0.089-0.059-0.173-0.132-0.247-0.21c-0.104-0.107-0.136-0.237-0.088-0.384
		c0.071-0.213,0.136-0.426,0.203-0.641c0.006-0.021,0.006-0.055-0.005-0.066c-0.109-0.093-0.18-0.209-0.236-0.338
		C11.673,15.881,11.663,15.872,11.642,15.841z M14.677,17.32c0.008-0.007,0.018-0.012,0.026-0.018
		c-0.008-0.027-0.012-0.057-0.024-0.081c-0.127-0.244-0.253-0.486-0.381-0.729c-0.054-0.102-0.036-0.16,0.069-0.227
		c0.1-0.059,0.144-0.058,0.205,0.051c0.072,0.131,0.127,0.271,0.184,0.412c0.084,0.205,0.157,0.414,0.241,0.618
		c0.016,0.035,0.062,0.078,0.098,0.081c0.074,0.009,0.149-0.002,0.224-0.014c0.015-0.004,0.042-0.042,0.038-0.058
		c-0.021-0.095-0.041-0.187-0.071-0.278c-0.087-0.261-0.181-0.518-0.267-0.779c-0.01-0.031,0-0.088,0.024-0.111
		c0.12-0.121,0.206-0.102,0.273,0.053c0.008,0.017,0.012,0.032,0.017,0.051c0.062,0.264,0.12,0.528,0.186,0.793
		c0.019,0.075,0.05,0.146,0.083,0.218c0.026,0.054,0.074,0.062,0.128,0.035c0.026-0.014,0.053-0.026,0.079-0.043
		c0.086-0.051,0.089-0.073,0.052-0.166c-0.071-0.177-0.145-0.354-0.202-0.536c-0.057-0.174-0.097-0.354-0.142-0.532
		c-0.022-0.089,0.039-0.18,0.135-0.206c0.098-0.027,0.159,0.014,0.164,0.115c0.02,0.313,0.102,0.616,0.196,0.914
		c0.018,0.053,0.059,0.099,0.09,0.148c0.055-0.041,0.117-0.075,0.166-0.122c0.02-0.019,0.031-0.07,0.02-0.094
		c-0.123-0.237-0.184-0.494-0.244-0.751c-0.033-0.143-0.069-0.283-0.1-0.428c-0.024-0.104,0.022-0.18,0.115-0.203
		c0.078-0.021,0.125,0.01,0.152,0.125c0.045,0.193,0.084,0.387,0.121,0.582c0.031,0.158,0.049,0.319,0.08,0.478
		c0.014,0.07,0.053,0.086,0.115,0.05c0.053-0.031,0.104-0.071,0.152-0.11c0.07-0.056,0.09-0.123,0.061-0.208
		c-0.039-0.121-0.07-0.248-0.109-0.369c-0.062-0.205-0.129-0.412-0.199-0.615c-0.031-0.092-0.002-0.204,0.076-0.256
		c0.082-0.052,0.129-0.043,0.158,0.047c0.049,0.144,0.084,0.289,0.119,0.436c0.035,0.154,0.064,0.311,0.098,0.467
		c0.008,0.031,0.033,0.059,0.051,0.088c0.029-0.02,0.066-0.035,0.086-0.062c0.061-0.082,0.107-0.17,0.168-0.252
		c0.043-0.061,0.041-0.121,0.014-0.184c-0.053-0.122-0.107-0.244-0.158-0.367c-0.053-0.125-0.104-0.252-0.148-0.379
		c-0.027-0.075,0.023-0.162,0.1-0.188c0.078-0.026,0.117-0.009,0.152,0.082c0.064,0.164,0.127,0.329,0.188,0.495
		c0.025,0.068,0.047,0.138,0.074,0.209c0.088-0.061,0.156-0.221,0.131-0.301c-0.043-0.133-0.092-0.262-0.131-0.394
		c-0.031-0.109-0.057-0.219-0.072-0.33c-0.01-0.064,0.021-0.126,0.094-0.146c0.074-0.02,0.119,0.028,0.141,0.086
		c0.045,0.116,0.084,0.235,0.125,0.354c0.018,0.057,0.035,0.115,0.059,0.193c0.043-0.046,0.07-0.075,0.096-0.104
		c0.158-0.185,0.232-0.411,0.322-0.629c0.018-0.047,0-0.062-0.047-0.067c-0.127-0.013-0.236-0.053-0.275-0.194
		c-0.004-0.015-0.01-0.03-0.018-0.051c-0.02,0.013-0.031,0.018-0.043,0.028c-0.211,0.194-0.455,0.331-0.711,0.45
		c-0.348,0.158-0.705,0.257-1.09,0.229c-0.083-0.006-0.167,0-0.251-0.007c-0.256-0.023-0.514-0.045-0.757-0.136
		c-0.491-0.186-0.884-0.504-1.199-0.921c-0.155-0.207-0.239-0.439-0.271-0.695c-0.028-0.225-0.02-0.448,0.002-0.672
		c0.045-0.461,0.173-0.889,0.455-1.27c0.34-0.459,0.773-0.721,1.353-0.732c0.188-0.003,0.377-0.033,0.563-0.058
		c0.125-0.017,0.246-0.05,0.371-0.07c0.154-0.025,0.311-0.03,0.455,0.036c0.221,0.096,0.439,0.197,0.652,0.312
		c0.326,0.18,0.633,0.393,0.914,0.638c0.131,0.113,0.227,0.246,0.264,0.415c0.07,0.308,0.055,0.619-0.014,0.923
		c-0.066,0.299,0.01,0.558,0.172,0.802c0.039,0.058,0.064,0.058,0.094-0.007c0.062-0.138,0.115-0.279,0.178-0.417
		c0.055-0.124,0.025-0.219-0.051-0.327c-0.078-0.111-0.129-0.244-0.184-0.371c-0.029-0.069,0.037-0.158,0.129-0.193
		c0.059-0.022,0.1,0.002,0.133,0.088c0.023,0.057,0.045,0.117,0.064,0.176c0.023,0.061,0.043,0.125,0.064,0.186
		c0.012,0.001,0.021,0.001,0.031,0.003c0.039-0.098,0.08-0.192,0.113-0.291c0.033-0.092,0.014-0.183-0.025-0.272
		c-0.08-0.178-0.158-0.359-0.236-0.539c-0.037-0.088,0.004-0.171,0.1-0.211c0.092-0.038,0.145-0.013,0.184,0.086
		c0.029,0.079,0.049,0.16,0.07,0.239c0.02,0.07,0.037,0.141,0.057,0.212c0.01,0.001,0.02,0.002,0.027,0.004
		c0.049-0.081,0.1-0.163,0.139-0.248c0.016-0.031,0.016-0.081,0.002-0.111c-0.055-0.115-0.121-0.223-0.178-0.334
		c-0.053-0.102-0.109-0.205-0.15-0.312c-0.027-0.073,0.02-0.145,0.096-0.172c0.119-0.043,0.154-0.035,0.199,0.059
		c0.031,0.064,0.057,0.133,0.082,0.203c0.023,0.065,0.047,0.132,0.07,0.2c0.01,0,0.018,0,0.027,0
		c0.023-0.071,0.051-0.145,0.074-0.216c0.051-0.15,0.062-0.297-0.018-0.446c-0.072-0.138-0.131-0.283-0.191-0.427
		c-0.051-0.121-0.025-0.225,0.072-0.314c0.068-0.063,0.104-0.059,0.141,0.027c0.047,0.105,0.084,0.215,0.125,0.322
		c0.02,0.044,0.037,0.088,0.055,0.134c0.025-0.017,0.033-0.027,0.037-0.037c0.039-0.173,0.078-0.344,0.119-0.516
		c0.014-0.071,0-0.135-0.043-0.194c-0.072-0.105-0.146-0.21-0.217-0.317c-0.055-0.081-0.092-0.169-0.039-0.261
		c0.025-0.045,0.076-0.09,0.127-0.105C20,8.484,20.053,8.535,20.08,8.568c0.033,0.038,0.051,0.087,0.074,0.131
		c0.01,0.023,0.025,0.045,0.035,0.066c0.051-0.327,0.1-0.647,0.064-0.97c-0.016-0.15-0.039-0.301-0.078-0.446
		c-0.049-0.176-0.158-0.301-0.354-0.333c-0.318-0.055-0.635-0.014-0.945,0.045c-0.24,0.045-0.479,0.105-0.715,0.169
		c-0.258,0.071-0.514,0.156-0.75,0.289c-0.461,0.26-0.885,0.573-1.299,0.897c-0.58,0.454-1.144,0.931-1.609,1.507
		c-0.312,0.389-0.603,0.795-0.906,1.192c-0.262,0.341-0.503,0.693-0.683,1.084c-0.156,0.338-0.306,0.679-0.467,1.015
		c-0.13,0.271-0.253,0.542-0.322,0.835c-0.114,0.492-0.122,0.984-0.002,1.478c0.036,0.154,0.11,0.268,0.249,0.355
		c0.63,0.395,1.254,0.794,1.882,1.19C14.394,17.16,14.536,17.239,14.677,17.32z M14.046,12.317
		c-0.006,0.001-0.012,0.001-0.019,0.002c0.031,0.21,0.042,0.423,0.093,0.626c0.114,0.438,0.383,0.752,0.811,0.918
		c0.274,0.106,0.56,0.166,0.85,0.204c0.213,0.026,0.43,0.017,0.641-0.032c0.312-0.071,0.59-0.217,0.832-0.426
		c0.188-0.162,0.383-0.325,0.506-0.546c0.219-0.396,0.262-0.827,0.227-1.268c-0.018-0.236-0.133-0.426-0.311-0.578
		c-0.09-0.077-0.184-0.151-0.281-0.216c-0.262-0.176-0.535-0.337-0.846-0.405c-0.338-0.076-0.677-0.046-1.005,0.07
		c-0.19,0.068-0.377,0.12-0.581,0.047c-0.04-0.015-0.104-0.013-0.137,0.011c-0.257,0.173-0.485,0.379-0.617,0.668
		C14.076,11.687,14.054,12,14.046,12.317z M10.152,15.749c0,0.085-0.005,0.17,0.001,0.256c0.016,0.176,0.032,0.354,0.113,0.514
		c0.043,0.087,0.085,0.096,0.147,0.021c0.058-0.071,0.114-0.147,0.159-0.228c0.126-0.231,0.292-0.43,0.495-0.596
		c0.134-0.111,0.268-0.223,0.396-0.341c0.037-0.034,0.068-0.089,0.076-0.14c0.029-0.162,0.037-0.33,0.065-0.493
		c0.061-0.322,0.126-0.643,0.197-0.962c0.076-0.341,0.211-0.66,0.371-0.971c0.031-0.061,0.055-0.129,0.069-0.196
		c0.012-0.058-0.027-0.087-0.083-0.068c-0.052,0.018-0.106,0.038-0.151,0.066c-0.605,0.379-1.109,0.859-1.463,1.486
		C10.257,14.611,10.15,15.167,10.152,15.749z M15.879,18.084c-0.011,0-0.024-0.002-0.037-0.004c-0.019,0.051-0.041,0.099-0.055,0.15
		c-0.06,0.202-0.125,0.404-0.174,0.609c-0.028,0.121-0.052,0.251-0.037,0.37c0.032,0.24,0.25,0.324,0.435,0.178
		c0.613-0.48,1.15-1.034,1.559-1.704c0.078-0.129,0.156-0.257,0.23-0.389c0.049-0.086,0.039-0.094-0.045-0.137
		c-0.039-0.021-0.08-0.067-0.088-0.109c-0.021-0.115-0.021-0.236-0.033-0.353c-0.014-0.121-0.031-0.241-0.051-0.36
		c-0.006-0.024-0.035-0.071-0.053-0.07c-0.035,0.001-0.08,0.02-0.104,0.046c-0.021,0.024-0.031,0.069-0.031,0.104
		c0.01,0.182,0.023,0.362,0.037,0.544c0.016,0.209,0.035,0.417,0.053,0.625c0.002,0.061-0.027,0.113-0.086,0.118
		c-0.061,0.006-0.09-0.049-0.098-0.105c-0.021-0.174-0.041-0.351-0.064-0.524c-0.016-0.11-0.041-0.219-0.062-0.331
		c-0.129,0.056-0.182,0.133-0.178,0.246c0.002,0.056,0.01,0.11,0.012,0.165c0.016,0.285,0.035,0.57,0.043,0.855
		c0.002,0.062-0.033,0.128-0.061,0.188c-0.01,0.021-0.051,0.034-0.074,0.032c-0.018-0.003-0.039-0.038-0.041-0.061
		c-0.023-0.193-0.041-0.387-0.062-0.579c-0.008-0.086-0.02-0.175-0.041-0.26c-0.006-0.028-0.049-0.05-0.072-0.073
		c-0.021,0.027-0.059,0.054-0.061,0.084c-0.014,0.09-0.018,0.181-0.014,0.271c0.01,0.231,0.029,0.463,0.037,0.694
		c0.004,0.087-0.053,0.12-0.135,0.085c-0.09-0.036-0.137-0.104-0.139-0.202c-0.004-0.17-0.008-0.339-0.018-0.508
		c-0.004-0.03-0.033-0.086-0.051-0.086c-0.041,0-0.092,0.017-0.119,0.044c-0.029,0.028-0.051,0.078-0.051,0.12
		c-0.006,0.095,0.002,0.191,0.008,0.287c0.012,0.13,0.031,0.26,0.041,0.391c0.006,0.083-0.066,0.134-0.143,0.098
		c-0.035-0.016-0.067-0.054-0.084-0.088c-0.022-0.041-0.026-0.092-0.039-0.138C15.917,18.232,15.897,18.157,15.879,18.084z
		 M12.728,16.745c-0.003,0.031-0.008,0.062-0.011,0.095c-0.006,0.119-0.011,0.241-0.019,0.361c-0.002,0.019-0.015,0.048-0.03,0.054
		c-0.103,0.041-0.255-0.087-0.24-0.195c0.018-0.112,0.034-0.225,0.047-0.337c0.015-0.13-0.048-0.229-0.167-0.283
		c-0.057-0.026-0.099-0.02-0.134,0.038c-0.07,0.115-0.106,0.243-0.125,0.377c-0.017,0.127,0.01,0.231,0.12,0.312
		c0.317,0.235,0.634,0.474,1.003,0.622c0.249,0.099,0.503,0.184,0.773,0.197c0.141,0.007,0.257-0.065,0.358-0.155
		c0.018-0.016,0.028-0.073,0.014-0.089c-0.047-0.056-0.11-0.091-0.197-0.094c0,0.044-0.002,0.081,0.002,0.118
		c0.003,0.054-0.02,0.069-0.071,0.071c-0.174,0.006-0.179,0.005-0.184-0.169c0-0.005,0-0.01,0-0.015
		c-0.005-0.146-0.11-0.276-0.262-0.321c0,0.095,0,0.187-0.002,0.278c-0.001,0.11-0.016,0.123-0.124,0.12
		c-0.02-0.001-0.04-0.002-0.061-0.006c-0.075-0.004-0.104-0.045-0.094-0.12c0.011-0.104,0.015-0.212,0.033-0.315
		c0.018-0.101-0.022-0.165-0.104-0.212c-0.072-0.042-0.093-0.03-0.095,0.054c-0.003,0.096-0.003,0.191-0.01,0.287
		c-0.002,0.023-0.027,0.06-0.048,0.064c-0.105,0.021-0.255-0.111-0.253-0.217c0.004-0.125,0.015-0.249,0.017-0.372
		C12.866,16.805,12.831,16.77,12.728,16.745z M17.752,16.099c0.012,0.165,0.02,0.332,0.039,0.497
		c0.012,0.101,0.035,0.199,0.062,0.296c0.008,0.028,0.043,0.052,0.064,0.077c0.023-0.021,0.055-0.037,0.068-0.063
		c0.086-0.151,0.152-0.312,0.131-0.488c-0.029-0.24-0.076-0.479-0.117-0.715c-0.006-0.033-0.027-0.061-0.043-0.093
		c-0.029,0.021-0.062,0.038-0.086,0.065C17.768,15.796,17.732,15.938,17.752,16.099z M18.334,13.129
		c-0.025,0.04-0.045,0.072-0.064,0.104c-0.086,0.167-0.174,0.332-0.26,0.5c-0.01,0.02-0.012,0.062,0,0.074
		c0.07,0.064,0.143,0.125,0.221,0.18c0.016,0.012,0.07,0,0.08-0.017c0.109-0.173,0.213-0.348,0.312-0.524
		c0.025-0.042,0.02-0.083-0.043-0.104c-0.084-0.028-0.156-0.077-0.197-0.162C18.375,13.165,18.359,13.155,18.334,13.129z
		 M18.301,15.796c0.012,0,0.021,0,0.031,0c0.008-0.094,0.02-0.189,0.014-0.283c-0.006-0.125-0.025-0.25-0.047-0.371
		c-0.004-0.033-0.039-0.059-0.061-0.088c-0.01,0.005-0.018,0.01-0.027,0.014C18.188,15.317,18.264,15.556,18.301,15.796z"/>
	<path fill-rule="evenodd" clip-rule="evenodd" fill="#005E9E" d="M13.937,19.11c-0.001,0.521-0.196,0.96-0.528,1.356
		c-0.237,0.284-0.522,0.452-0.881,0.521c-0.38,0.072-0.76,0.154-1.139,0.24c-0.319,0.071-0.595,0.211-0.782,0.496
		c-0.059,0.087-0.131,0.167-0.212,0.234c-0.169,0.146-0.41,0.1-0.499-0.089c-0.031-0.065-0.037-0.138,0.004-0.201
		c0.272-0.418,0.383-0.88,0.396-1.37c0.011-0.446,0.055-0.892,0.133-1.331c0.038-0.206,0.09-0.415,0.16-0.612
		c0.09-0.25,0.293-0.406,0.525-0.519c0.136-0.065,0.287-0.106,0.435-0.142c0.169-0.039,0.328,0.022,0.483,0.087
		c0.374,0.158,0.722,0.356,1.01,0.65c0.043,0.045,0.095,0.083,0.143,0.121c0.108,0.089,0.225,0.139,0.369,0.129
		c0.072-0.004,0.146,0.005,0.217,0.021c0.11,0.025,0.156,0.081,0.164,0.196C13.941,18.97,13.937,19.041,13.937,19.11z
		 M10.722,20.792c0.001,0.028,0.002,0.062,0.004,0.094c0.009,0.123,0.04,0.143,0.15,0.098c0.013-0.006,0.023-0.011,0.035-0.016
		c0.189-0.087,0.373-0.192,0.57-0.255c0.274-0.087,0.561-0.144,0.841-0.215c0.225-0.059,0.437-0.15,0.62-0.298
		c0.317-0.255,0.418-0.604,0.434-0.991c0.002-0.05-0.032-0.065-0.075-0.078c-0.148-0.043-0.31-0.053-0.434-0.16
		c-0.138-0.12-0.272-0.248-0.412-0.368c-0.187-0.163-0.375-0.325-0.571-0.48c-0.084-0.065-0.193-0.098-0.3-0.069
		c-0.155,0.041-0.292,0.121-0.37,0.269c-0.074,0.136-0.147,0.275-0.199,0.421c-0.075,0.221-0.155,0.445-0.19,0.674
		c-0.043,0.29-0.044,0.588-0.065,0.881C10.748,20.461,10.733,20.625,10.722,20.792z"/>
	<path fill-rule="evenodd" clip-rule="evenodd" fill="#FFFFFF" d="M14.677,17.32c-0.141-0.081-0.283-0.16-0.421-0.246
		c-0.628-0.396-1.252-0.796-1.882-1.19c-0.139-0.088-0.213-0.201-0.249-0.355c-0.12-0.493-0.112-0.986,0.002-1.478
		c0.069-0.293,0.192-0.565,0.322-0.835c0.161-0.336,0.311-0.677,0.467-1.015c0.18-0.391,0.421-0.744,0.683-1.084
		c0.303-0.396,0.594-0.803,0.906-1.192c0.465-0.576,1.029-1.053,1.609-1.507c0.414-0.324,0.838-0.637,1.299-0.897
		c0.236-0.133,0.492-0.217,0.75-0.289c0.236-0.064,0.475-0.124,0.715-0.169c0.311-0.059,0.627-0.1,0.945-0.045
		c0.195,0.032,0.305,0.157,0.354,0.333c0.039,0.145,0.062,0.296,0.078,0.446c0.035,0.322-0.014,0.643-0.064,0.97
		c-0.01-0.021-0.025-0.043-0.035-0.066c-0.023-0.044-0.041-0.093-0.074-0.131C20.053,8.535,20,8.484,19.975,8.492
		c-0.051,0.015-0.102,0.06-0.127,0.105c-0.053,0.092-0.016,0.181,0.039,0.261c0.07,0.107,0.145,0.212,0.217,0.317
		c0.043,0.059,0.057,0.123,0.043,0.194c-0.041,0.171-0.08,0.343-0.119,0.516c-0.004,0.01-0.012,0.021-0.037,0.037
		c-0.018-0.045-0.035-0.09-0.055-0.134c-0.041-0.107-0.078-0.217-0.125-0.322c-0.037-0.085-0.072-0.09-0.141-0.027
		c-0.098,0.089-0.123,0.194-0.072,0.314c0.061,0.144,0.119,0.289,0.191,0.427c0.08,0.149,0.068,0.296,0.018,0.446
		c-0.023,0.071-0.051,0.145-0.074,0.216c-0.01,0-0.018,0-0.027,0c-0.023-0.067-0.047-0.134-0.07-0.2
		c-0.025-0.069-0.051-0.138-0.082-0.203c-0.045-0.094-0.08-0.102-0.199-0.059c-0.076,0.027-0.123,0.099-0.096,0.172
		c0.041,0.107,0.098,0.21,0.15,0.312c0.057,0.111,0.123,0.22,0.178,0.334c0.014,0.03,0.014,0.08-0.002,0.111
		c-0.039,0.084-0.09,0.167-0.139,0.248c-0.008-0.002-0.018-0.003-0.027-0.004c-0.02-0.071-0.037-0.142-0.057-0.212
		c-0.021-0.079-0.041-0.161-0.07-0.239c-0.039-0.099-0.092-0.124-0.184-0.086c-0.096,0.04-0.137,0.123-0.1,0.211
		c0.078,0.18,0.156,0.36,0.236,0.539c0.039,0.089,0.059,0.18,0.025,0.272c-0.033,0.099-0.074,0.193-0.113,0.291
		c-0.01-0.001-0.02-0.002-0.031-0.003c-0.021-0.062-0.041-0.125-0.064-0.186c-0.02-0.06-0.041-0.12-0.064-0.176
		c-0.033-0.086-0.074-0.111-0.133-0.088c-0.092,0.036-0.158,0.125-0.129,0.193c0.055,0.127,0.105,0.26,0.184,0.371
		c0.076,0.108,0.105,0.203,0.051,0.327c-0.062,0.137-0.115,0.278-0.178,0.417c-0.029,0.065-0.055,0.065-0.094,0.007
		c-0.162-0.244-0.238-0.502-0.172-0.802c0.068-0.305,0.084-0.616,0.014-0.923c-0.037-0.169-0.133-0.301-0.264-0.415
		c-0.281-0.245-0.588-0.458-0.914-0.638c-0.213-0.115-0.432-0.216-0.652-0.312c-0.145-0.065-0.301-0.061-0.455-0.036
		c-0.125,0.021-0.246,0.053-0.371,0.07c-0.187,0.025-0.375,0.055-0.563,0.058c-0.58,0.011-1.013,0.273-1.353,0.732
		c-0.282,0.381-0.41,0.808-0.455,1.27c-0.022,0.225-0.031,0.448-0.002,0.672c0.032,0.256,0.117,0.488,0.271,0.695
		c0.315,0.417,0.708,0.735,1.199,0.921c0.243,0.091,0.501,0.113,0.757,0.136c0.083,0.007,0.167,0.001,0.251,0.007
		c0.385,0.028,0.742-0.071,1.09-0.229c0.256-0.119,0.5-0.255,0.711-0.45c0.012-0.01,0.023-0.016,0.043-0.028
		c0.008,0.021,0.014,0.036,0.018,0.051c0.039,0.142,0.148,0.182,0.275,0.194c0.047,0.005,0.064,0.02,0.047,0.067
		c-0.09,0.219-0.164,0.444-0.322,0.629c-0.025,0.029-0.053,0.057-0.096,0.104c-0.023-0.079-0.041-0.136-0.059-0.193
		c-0.041-0.12-0.08-0.239-0.125-0.354c-0.021-0.059-0.066-0.106-0.141-0.086c-0.072,0.02-0.104,0.082-0.094,0.146
		c0.016,0.111,0.041,0.221,0.072,0.33c0.039,0.132,0.088,0.261,0.131,0.394c0.025,0.08-0.043,0.24-0.131,0.301
		c-0.027-0.071-0.049-0.141-0.074-0.209c-0.061-0.166-0.123-0.331-0.188-0.495c-0.035-0.091-0.074-0.108-0.152-0.082
		c-0.076,0.026-0.127,0.112-0.1,0.188c0.045,0.127,0.096,0.254,0.148,0.379c0.051,0.123,0.105,0.245,0.158,0.367
		c0.027,0.062,0.029,0.123-0.014,0.184c-0.061,0.082-0.107,0.17-0.168,0.252c-0.02,0.027-0.057,0.043-0.086,0.062
		c-0.018-0.029-0.043-0.057-0.051-0.088c-0.033-0.156-0.062-0.312-0.098-0.467c-0.035-0.146-0.07-0.292-0.119-0.436
		c-0.029-0.09-0.076-0.099-0.158-0.047c-0.078,0.052-0.107,0.164-0.076,0.256c0.07,0.203,0.137,0.41,0.199,0.615
		c0.039,0.121,0.07,0.248,0.109,0.369c0.029,0.085,0.01,0.152-0.061,0.208c-0.049,0.039-0.1,0.079-0.152,0.11
		c-0.062,0.036-0.102,0.021-0.115-0.05c-0.031-0.158-0.049-0.319-0.08-0.478c-0.037-0.195-0.076-0.389-0.121-0.582
		c-0.027-0.115-0.074-0.146-0.152-0.125c-0.093,0.023-0.14,0.1-0.115,0.203c0.031,0.145,0.066,0.285,0.1,0.428
		c0.061,0.257,0.121,0.514,0.244,0.751c0.012,0.023,0,0.075-0.02,0.094c-0.049,0.047-0.111,0.081-0.166,0.122
		c-0.031-0.05-0.072-0.096-0.09-0.148c-0.095-0.298-0.177-0.601-0.196-0.914c-0.005-0.102-0.066-0.143-0.164-0.115
		c-0.096,0.026-0.157,0.117-0.135,0.206c0.045,0.179,0.085,0.358,0.142,0.532c0.057,0.182,0.131,0.359,0.202,0.536
		c0.037,0.093,0.034,0.115-0.052,0.166c-0.025,0.017-0.052,0.029-0.079,0.043c-0.054,0.027-0.102,0.019-0.128-0.035
		c-0.033-0.071-0.064-0.143-0.083-0.218c-0.066-0.265-0.125-0.529-0.186-0.793c-0.005-0.019-0.009-0.034-0.017-0.051
		c-0.067-0.154-0.153-0.174-0.273-0.053c-0.024,0.023-0.035,0.08-0.024,0.111c0.085,0.262,0.18,0.519,0.267,0.779
		c0.031,0.092,0.051,0.184,0.071,0.278c0.004,0.016-0.023,0.054-0.038,0.058c-0.075,0.012-0.15,0.022-0.224,0.014
		c-0.036-0.003-0.082-0.046-0.098-0.081c-0.084-0.204-0.157-0.413-0.241-0.618c-0.056-0.141-0.111-0.281-0.184-0.412
		c-0.061-0.108-0.104-0.109-0.205-0.051c-0.105,0.066-0.123,0.125-0.069,0.227c0.128,0.242,0.254,0.484,0.381,0.729
		c0.012,0.024,0.016,0.054,0.024,0.081C14.695,17.309,14.685,17.313,14.677,17.32z"/>
	<path fill-rule="evenodd" clip-rule="evenodd" fill="#FFFFFF" d="M14.046,12.317c0.008-0.317,0.03-0.63,0.163-0.924
		c0.132-0.289,0.36-0.496,0.617-0.668c0.034-0.023,0.098-0.025,0.137-0.011c0.204,0.072,0.391,0.021,0.581-0.047
		c0.328-0.116,0.667-0.146,1.005-0.07c0.311,0.068,0.584,0.229,0.846,0.405c0.098,0.065,0.191,0.139,0.281,0.216
		c0.178,0.152,0.293,0.342,0.311,0.578c0.035,0.441-0.008,0.873-0.227,1.268c-0.123,0.221-0.318,0.384-0.506,0.546
		c-0.242,0.209-0.52,0.355-0.832,0.426c-0.211,0.048-0.428,0.058-0.641,0.032c-0.291-0.038-0.576-0.097-0.85-0.204
		c-0.428-0.166-0.697-0.48-0.811-0.918c-0.051-0.203-0.062-0.416-0.093-0.626C14.034,12.319,14.04,12.318,14.046,12.317z
		 M16.254,10.783c-0.002,0.007-0.004,0.015-0.004,0.022c-0.021,0-0.039,0-0.061,0c-0.338,0.004-0.668,0.05-0.972,0.212
		c-0.122,0.065-0.246,0.138-0.305,0.271c-0.143,0.329-0.199,0.669-0.131,1.025c0.104,0.535,0.396,0.787,0.853,0.909
		c0.329,0.088,0.67,0.102,1.008,0.089c0.463-0.019,0.764-0.218,0.963-0.762c0.07-0.192,0.064-0.397,0.057-0.6
		c-0.002-0.062-0.002-0.106,0.072-0.136c0.084-0.031,0.105-0.11,0.068-0.169c-0.041-0.064-0.113-0.089-0.189-0.075
		c-0.02,0.005-0.053-0.009-0.062-0.024c-0.084-0.109-0.152-0.232-0.246-0.331c-0.143-0.153-0.301-0.301-0.51-0.353
		C16.617,10.817,16.434,10.808,16.254,10.783z M15.462,13.821c0.107-0.014,0.222-0.034,0.296-0.141
		c0.042-0.062,0.036-0.124-0.003-0.183c-0.04-0.06-0.097-0.103-0.165-0.079c-0.087,0.028-0.172,0.07-0.248,0.121
		c-0.06,0.042-0.092,0.111-0.063,0.187C15.309,13.805,15.381,13.816,15.462,13.821z M16.418,13.796
		c0.004-0.006,0.006-0.013,0.008-0.021c0.096,0.008,0.186-0.009,0.244-0.089c0.031-0.042,0.039-0.102,0.057-0.155
		c-0.047-0.017-0.092-0.035-0.141-0.048c-0.025-0.004-0.051,0.004-0.076,0.002c-0.066-0.005-0.133-0.008-0.199-0.022
		c-0.076-0.017-0.131,0.004-0.172,0.079c-0.033,0.061-0.025,0.127,0.041,0.163C16.254,13.747,16.338,13.767,16.418,13.796z
		 M14.406,12.198c-0.112,0-0.211,0.095-0.209,0.198c0.002,0.093,0.129,0.188,0.25,0.187c0.091-0.001,0.155-0.079,0.157-0.187
		C14.604,12.29,14.512,12.198,14.406,12.198z M14.75,12.948c-0.103,0-0.205,0.093-0.206,0.185c-0.003,0.085,0.146,0.202,0.253,0.199
		c0.084-0.002,0.155-0.097,0.155-0.209C14.95,13.02,14.866,12.946,14.75,12.948z M14.461,11.316c-0.085-0.001-0.192,0.09-0.19,0.164
		c0.001,0.061,0.085,0.141,0.153,0.143c0.08,0.002,0.163-0.082,0.165-0.166C14.592,11.381,14.534,11.318,14.461,11.316z"/>
	<path fill-rule="evenodd" clip-rule="evenodd" fill="#FFFFFF" d="M10.152,15.749c-0.002-0.582,0.104-1.138,0.391-1.651
		c0.354-0.627,0.858-1.107,1.463-1.486c0.045-0.029,0.1-0.049,0.151-0.066c0.056-0.019,0.096,0.01,0.083,0.068
		c-0.014,0.067-0.038,0.135-0.069,0.196c-0.16,0.311-0.295,0.63-0.371,0.971c-0.071,0.319-0.137,0.64-0.197,0.962
		c-0.029,0.163-0.036,0.331-0.065,0.493c-0.007,0.051-0.039,0.105-0.076,0.14c-0.128,0.118-0.263,0.229-0.396,0.341
		c-0.203,0.166-0.368,0.364-0.495,0.596c-0.045,0.08-0.101,0.156-0.159,0.228c-0.062,0.075-0.104,0.066-0.147-0.021
		c-0.081-0.16-0.097-0.338-0.113-0.514C10.147,15.919,10.152,15.834,10.152,15.749z"/>
	<path fill-rule="evenodd" clip-rule="evenodd" fill="#FFFFFF" d="M15.879,18.084c0.019,0.073,0.038,0.148,0.057,0.224
		c0.013,0.046,0.017,0.097,0.039,0.138c0.018,0.034,0.049,0.072,0.084,0.088c0.076,0.036,0.148-0.015,0.143-0.098
		c-0.01-0.131-0.029-0.261-0.041-0.391c-0.006-0.096-0.014-0.192-0.008-0.287c0-0.042,0.021-0.092,0.051-0.12
		c0.027-0.027,0.078-0.044,0.119-0.044c0.018,0,0.047,0.056,0.051,0.086c0.01,0.169,0.014,0.338,0.018,0.508
		c0.002,0.099,0.049,0.166,0.139,0.202c0.082,0.035,0.139,0.002,0.135-0.085c-0.008-0.231-0.027-0.463-0.037-0.694
		c-0.004-0.091,0-0.182,0.014-0.271c0.002-0.03,0.039-0.057,0.061-0.084c0.023,0.023,0.066,0.045,0.072,0.073
		c0.021,0.085,0.033,0.174,0.041,0.26c0.021,0.192,0.039,0.386,0.062,0.579c0.002,0.022,0.023,0.058,0.041,0.061
		c0.023,0.002,0.064-0.012,0.074-0.032c0.027-0.06,0.062-0.126,0.061-0.188c-0.008-0.285-0.027-0.57-0.043-0.855
		c-0.002-0.055-0.01-0.109-0.012-0.165c-0.004-0.113,0.049-0.19,0.178-0.246c0.021,0.112,0.047,0.221,0.062,0.331
		c0.023,0.174,0.043,0.351,0.064,0.524c0.008,0.057,0.037,0.111,0.098,0.105c0.059-0.005,0.088-0.058,0.086-0.118
		c-0.018-0.208-0.037-0.416-0.053-0.625c-0.014-0.182-0.027-0.362-0.037-0.544c0-0.034,0.01-0.079,0.031-0.104
		c0.023-0.026,0.068-0.045,0.104-0.046c0.018-0.001,0.047,0.046,0.053,0.07c0.02,0.119,0.037,0.239,0.051,0.36
		c0.012,0.116,0.012,0.237,0.033,0.353c0.008,0.042,0.049,0.089,0.088,0.109c0.084,0.043,0.094,0.051,0.045,0.137
		c-0.074,0.132-0.152,0.26-0.23,0.389c-0.408,0.67-0.945,1.224-1.559,1.704c-0.186,0.146-0.403,0.062-0.435-0.178
		c-0.015-0.119,0.009-0.249,0.037-0.37c0.049-0.205,0.114-0.407,0.174-0.609c0.014-0.052,0.036-0.1,0.055-0.15
		C15.855,18.082,15.868,18.084,15.879,18.084z"/>
	<path fill-rule="evenodd" clip-rule="evenodd" fill="#FFFFFF" d="M12.728,16.745c0.103,0.024,0.138,0.06,0.136,0.148
		c-0.002,0.123-0.013,0.247-0.017,0.372c-0.002,0.105,0.148,0.237,0.253,0.217c0.021-0.005,0.046-0.041,0.048-0.064
		c0.007-0.096,0.007-0.191,0.01-0.287c0.001-0.084,0.022-0.096,0.095-0.054c0.081,0.047,0.121,0.111,0.104,0.212
		c-0.019,0.104-0.022,0.211-0.033,0.315c-0.01,0.075,0.019,0.116,0.094,0.12c0.021,0.004,0.042,0.005,0.061,0.006
		c0.107,0.003,0.122-0.01,0.124-0.12c0.002-0.092,0.002-0.184,0.002-0.278c0.152,0.045,0.256,0.176,0.262,0.321
		c0,0.005,0,0.01,0,0.015c0.005,0.174,0.01,0.175,0.184,0.169c0.052-0.002,0.075-0.018,0.071-0.071
		c-0.004-0.037-0.002-0.074-0.002-0.118c0.087,0.003,0.15,0.038,0.197,0.094c0.015,0.016,0.004,0.073-0.014,0.089
		c-0.102,0.09-0.217,0.162-0.358,0.155c-0.27-0.014-0.524-0.099-0.773-0.197c-0.37-0.148-0.687-0.387-1.003-0.622
		c-0.109-0.08-0.136-0.185-0.12-0.312c0.019-0.134,0.055-0.262,0.125-0.377c0.035-0.058,0.077-0.064,0.134-0.038
		c0.118,0.054,0.181,0.153,0.167,0.283c-0.013,0.112-0.03,0.225-0.047,0.337c-0.015,0.108,0.137,0.236,0.24,0.195
		c0.016-0.006,0.028-0.035,0.03-0.054c0.008-0.12,0.013-0.242,0.019-0.361C12.72,16.808,12.725,16.776,12.728,16.745z"/>
	<path fill-rule="evenodd" clip-rule="evenodd" fill="#FFFFFF" d="M17.752,16.099c-0.02-0.16,0.016-0.303,0.119-0.424
		c0.023-0.027,0.057-0.045,0.086-0.065c0.016,0.032,0.037,0.06,0.043,0.093c0.041,0.236,0.088,0.475,0.117,0.715
		c0.021,0.176-0.045,0.337-0.131,0.488c-0.014,0.026-0.045,0.042-0.068,0.063c-0.021-0.025-0.057-0.049-0.064-0.077
		c-0.027-0.097-0.051-0.195-0.062-0.296C17.771,16.431,17.764,16.264,17.752,16.099z"/>
	<path fill-rule="evenodd" clip-rule="evenodd" fill="#FFFFFF" d="M18.334,13.129c0.025,0.026,0.041,0.036,0.049,0.051
		c0.041,0.085,0.113,0.133,0.197,0.162c0.062,0.021,0.068,0.062,0.043,0.104c-0.1,0.176-0.203,0.351-0.312,0.524
		c-0.01,0.017-0.064,0.029-0.08,0.017c-0.078-0.055-0.15-0.116-0.221-0.18c-0.012-0.012-0.01-0.054,0-0.074
		c0.086-0.168,0.174-0.333,0.26-0.5C18.289,13.201,18.309,13.169,18.334,13.129z"/>
	<path fill-rule="evenodd" clip-rule="evenodd" fill="#FFFFFF" d="M18.301,15.796c-0.037-0.24-0.113-0.479-0.09-0.729
		c0.01-0.004,0.018-0.009,0.027-0.014c0.021,0.029,0.057,0.055,0.061,0.088c0.021,0.121,0.041,0.246,0.047,0.371
		c0.006,0.094-0.006,0.189-0.014,0.283C18.322,15.796,18.312,15.796,18.301,15.796z"/>
	<path fill-rule="evenodd" clip-rule="evenodd" fill="#005E9E" d="M16.254,10.783c0.18,0.025,0.363,0.035,0.541,0.078
		c0.209,0.052,0.367,0.2,0.51,0.353c0.094,0.099,0.162,0.222,0.246,0.331c0.01,0.016,0.043,0.03,0.062,0.024
		c0.076-0.014,0.148,0.011,0.189,0.075c0.037,0.059,0.016,0.138-0.068,0.169c-0.074,0.03-0.074,0.074-0.072,0.136
		c0.008,0.202,0.014,0.408-0.057,0.6c-0.199,0.544-0.5,0.743-0.963,0.762c-0.338,0.013-0.679,0-1.008-0.089
		c-0.458-0.122-0.75-0.375-0.853-0.909c-0.068-0.356-0.012-0.696,0.131-1.025c0.059-0.133,0.183-0.206,0.305-0.271
		c0.304-0.162,0.634-0.208,0.972-0.212c0.021,0,0.039,0,0.061,0C16.25,10.798,16.252,10.79,16.254,10.783z M16.322,13.067
		c0.156-0.028,0.316-0.047,0.471-0.087c0.236-0.062,0.414-0.204,0.473-0.45c0.037-0.159,0.053-0.324,0.061-0.486
		c0.025-0.462-0.473-1.039-1.104-0.894c-0.113,0.026-0.217,0.017-0.304-0.048c-0.087-0.066-0.166-0.047-0.253-0.016
		c-0.02,0.008-0.038,0.013-0.055,0.021c-0.296,0.12-0.487,0.33-0.558,0.646c-0.041,0.188-0.024,0.373,0.014,0.556
		c0.045,0.209,0.15,0.387,0.344,0.492C15.693,12.952,15.99,13.059,16.322,13.067z"/>
	<path fill-rule="evenodd" clip-rule="evenodd" fill="#005E9E" d="M15.462,13.821c-0.081-0.005-0.153-0.016-0.183-0.095
		c-0.028-0.076,0.003-0.146,0.063-0.187c0.076-0.05,0.161-0.092,0.248-0.121c0.068-0.024,0.125,0.019,0.165,0.079
		c0.039,0.06,0.046,0.122,0.003,0.183C15.684,13.787,15.57,13.807,15.462,13.821z"/>
	<path fill-rule="evenodd" clip-rule="evenodd" fill="#005E9E" d="M16.418,13.796c-0.08-0.029-0.164-0.049-0.238-0.092
		c-0.066-0.036-0.074-0.102-0.041-0.163c0.041-0.075,0.096-0.096,0.172-0.079c0.066,0.014,0.133,0.017,0.199,0.022
		c0.025,0.002,0.051-0.006,0.076-0.002c0.049,0.014,0.094,0.032,0.141,0.048c-0.018,0.053-0.025,0.113-0.057,0.155
		c-0.059,0.081-0.148,0.097-0.244,0.089C16.424,13.783,16.422,13.79,16.418,13.796z"/>
	<path fill-rule="evenodd" clip-rule="evenodd" fill="#005E9E" d="M14.406,12.198c0.106,0,0.198,0.092,0.198,0.197
		c-0.002,0.108-0.066,0.186-0.157,0.187c-0.121,0.002-0.248-0.093-0.25-0.187C14.194,12.292,14.294,12.198,14.406,12.198z"/>
	<path fill-rule="evenodd" clip-rule="evenodd" fill="#005E9E" d="M14.75,12.948c0.117-0.002,0.201,0.072,0.203,0.175
		c0,0.112-0.07,0.207-0.155,0.209c-0.107,0.002-0.256-0.114-0.253-0.199C14.545,13.041,14.646,12.948,14.75,12.948z"/>
	<path fill-rule="evenodd" clip-rule="evenodd" fill="#005E9E" d="M14.461,11.316c0.073,0.002,0.131,0.064,0.128,0.141
		c-0.002,0.084-0.085,0.168-0.165,0.166c-0.068-0.001-0.152-0.082-0.153-0.143C14.269,11.406,14.375,11.315,14.461,11.316z"/>
</g>
</svg>
