<?xml version="1.0" encoding="utf-8"?>
<!-- Generator: Adobe Illustrator 16.0.0, SVG Export Plug-In . SVG Version: 6.00 Build 0)  -->
<!DOCTYPE svg PUBLIC "-//W3C//DTD SVG 1.1//EN" "http://www.w3.org/Graphics/SVG/1.1/DTD/svg11.dtd">
<svg version="1.1" id="Layer_1" xmlns="http://www.w3.org/2000/svg" xmlns:xlink="http://www.w3.org/1999/xlink" x="0px" y="0px"
	 width="30px" height="30px" viewBox="0 0 30 30" enable-background="new 0 0 30 30" xml:space="preserve">
<circle fill="#F7F7F7" stroke="#C7E3EB" stroke-miterlimit="10" cx="15" cy="15" r="13"/>
<g>
	<path fill="#C7E3EB" d="M13.76,8.107c0.086,0.005,0.131,0.046,0.157,0.104c0.026,0.066,0.014,0.129-0.027,0.185
		c-0.02,0.029-0.047,0.054-0.075,0.073c-0.373,0.274-0.614,0.641-0.687,1.111c-0.042,0.251-0.067,0.505-0.099,0.757
		c-0.016,0.124-0.083,0.215-0.181,0.242c-0.16,0.042-0.269-0.028-0.308-0.21c-0.179-0.849,0.138-1.664,0.866-2.132
		C13.521,8.167,13.645,8.113,13.76,8.107z"/>
	<path fill="#C7E3EB" d="M19.232,17.611c0.023,0.753,0.048,1.502,0.069,2.252c0.002,0.112-0.004,0.23-0.004,0.343
		c-0.002,0.1-0.056,0.147-0.147,0.158c-0.155,0.022-0.306-0.015-0.317-0.238c-0.02-0.427-0.055-0.85-0.073-1.277
		c-0.022-0.548-0.04-1.099-0.058-1.644c0-0.069,0.002-0.136,0-0.203c-0.006-0.063,0.023-0.088,0.079-0.098
		c0.118-0.022,0.229,0,0.326,0.058c0.037,0.021,0.069,0.075,0.076,0.121c0.024,0.173,0.04,0.35,0.061,0.524
		C19.244,17.609,19.236,17.611,19.232,17.611z"/>
	<path fill="#C7E3EB" d="M13.781,8.077c0.084,0.003,0.126,0.045,0.151,0.105c0.026,0.066,0.013,0.131-0.025,0.187
		c-0.021,0.029-0.047,0.053-0.072,0.074c-0.359,0.277-0.593,0.645-0.664,1.121c-0.041,0.254-0.065,0.509-0.096,0.765
		c-0.014,0.125-0.081,0.216-0.174,0.243c-0.156,0.044-0.264-0.026-0.298-0.21c-0.173-0.858,0.135-1.68,0.839-2.15
		C13.551,8.137,13.669,8.082,13.781,8.077z"/>
	<path fill="#C7E3EB" d="M12.519,16.847c0.066-0.039,0.138-0.071,0.209-0.086c0.054-0.013,0.082-0.1,0.078-0.235
		c0-0.057-0.034-0.095-0.058-0.135c-0.023-0.021-0.046-0.045-0.076-0.051c-0.02-0.004-0.042,0.004-0.058,0.008
		c-0.014,0.002-0.027,0.005-0.041,0.012c-0.005,0.004-0.013,0.008-0.018,0.011c-0.009,0.003-0.02,0.003-0.029,0.006
		c-0.005,0.002-0.009,0.004-0.014,0.006c-0.008,0.002-0.019,0.004-0.027,0.007c-0.067,0.021-0.132,0.051-0.194,0.078
		c-0.093,0.044-0.183,0.093-0.271,0.142c-0.105,0.062-0.188,0.157-0.296,0.238c-0.486,0.372-0.472,1.209-0.479,1.296
		c-0.008,0.083-0.021,0.357,0.026,0.425c0.048,0.065,0.174,0.061,0.207,0.034c0.031-0.02,0.155-0.043,0.148-0.283
		c-0.008-0.242,0.044-0.536,0.095-0.753c0.051-0.214,0.246-0.404,0.419-0.507c0.082-0.05,0.26-0.161,0.348-0.201
		C12.498,16.852,12.509,16.848,12.519,16.847z"/>
	<path fill="#C7E3EB" d="M14.867,6.403c0,0,1.422-0.121,2.429,1.137c1.009,1.256,1.051,2.981,1.009,3.375
		c-0.041,0.396-0.33,1.687-0.607,2.128c-0.32,0.509-0.625,0.872-1.478,1.088c-0.858,0.218-1.23,0.272-2.01,0.171
		c-0.783-0.104-1.522-0.239-1.879-0.57c-0.355-0.331-1.533-1.343-1.414-3.368c0.121-2.022,1.252-2.849,1.421-2.984
		C12.509,7.246,13.597,6.363,14.867,6.403z M12.623,7.869c-0.149,0.115-1.113,0.754-1.217,2.501
		c-0.106,1.745,0.773,2.417,1.085,2.704c0.309,0.286,1.099,0.585,1.778,0.674c0.681,0.09,0.891,0.078,1.639-0.107
		c0.744-0.187,0.98-0.665,1.271-1.007c0.405-0.479,0.623-1.465,0.658-1.805c0.039-0.34,0.147-1.534-0.746-2.606
		c-1.139-1.372-2.246-1.287-2.246-1.287C13.738,6.9,12.769,7.752,12.623,7.869z"/>
	<path fill="#C7E3EB" d="M20.785,20.064c-0.021-0.507-0.122-1.322-0.304-1.995c-0.186-0.674-0.234-1.013-0.465-1.393
		c-0.387-0.638-0.657-0.915-1.135-1.316c-0.477-0.404-1.427-0.697-1.559-0.739c-0.125-0.042-0.156-0.042-1.019,0.556
		c-0.407,0.28-1.299,0.335-1.299,0.335s-0.047-0.003-0.068-0.003c-0.206,0.012-0.374-0.013-0.574-0.048
		c-0.234-0.042-0.465-0.104-0.691-0.174c-0.191-0.061-0.382-0.128-0.565-0.208c-0.057-0.025-0.117-0.052-0.17-0.087
		c-0.082-0.051-0.176-0.147-0.281-0.139c-0.049,0.003-0.102,0.036-0.143,0.057c-0.034,0.018-0.071,0.033-0.102,0.055
		c-0.016,0.011-0.029,0.024-0.042,0.035c-0.023,0.013-0.048,0.019-0.07,0.034c-0.013,0.009-0.023,0.019-0.037,0.022
		c-0.023,0.013-0.047,0.024-0.068,0.038c-0.167,0.091-0.324,0.206-0.477,0.32c-0.225,0.169-0.44,0.352-0.65,0.537
		c-0.256,0.225-0.447,0.511-0.699,0.79c-0.942,1.041-0.653,3.317-0.653,3.537c0,0.384,0.013,0.771,0.101,1.144
		c0.049,0.207,0.214,0.434,0.364,0.588c0.119,0.124,0.257,0.236,0.401,0.336c0.375,0.262,0.796,0.453,1.228,0.604
		c0.992,0.351,2.067,0.49,3.118,0.487c0.868-0.006,1.741-0.07,2.596-0.24c0.79-0.158,1.581-0.409,2.267-0.839
		c0.213-0.133,0.415-0.283,0.599-0.457c0.078-0.073,0.149-0.157,0.216-0.242c0.087-0.103,0.19-0.181,0.235-0.316
		c0.042-0.126,0.03-0.266,0.012-0.397C20.806,20.661,20.8,20.354,20.785,20.064z M14.929,22.783
		c-1.026,0.024-2.054-0.157-3.005-0.547c-0.351-0.144-0.69-0.314-1.011-0.518c-0.096-0.062-0.189-0.127-0.284-0.19
		c-0.194-0.138-0.168-0.292-0.171-0.515c-0.005-0.213-0.037-0.429-0.061-0.639c-0.073-0.61-0.146-1.441-0.062-2.024
		c0.086-0.584,0.477-1.369,0.891-1.747c0.197-0.178,0.621-0.579,0.838-0.732c0.179-0.127,0.364-0.217,0.544-0.343
		c0.056-0.039,0.035-0.06,0.107-0.046c0.019,0.004,0.171,0.073,0.223,0.102c0.024,0.019,0.051,0.032,0.079,0.045
		c0.104,0.051,0.237,0.094,0.346,0.129c0.203,0.065,0.274,0.078,0.509,0.115c0.247,0.039,0.496,0.026,0.743,0.054
		c1.844,0.216,2.544-0.622,2.636-0.749c0.094-0.13,0.64,0.275,1.126,0.568c0.485,0.291,0.906,0.731,1.271,1.362
		c0.367,0.627,0.459,2.521,0.478,2.994c0.008,0.218,0.019,0.438,0.03,0.658c0.005,0.147,0.049,0.301,0.027,0.448
		c-0.02,0.114-0.081,0.135-0.168,0.197c-0.091,0.064-0.186,0.127-0.283,0.184c-0.302,0.184-0.623,0.33-0.95,0.46
		c-1.067,0.422-2.212,0.644-3.356,0.714C15.263,22.771,15.095,22.78,14.929,22.783z"/>
</g>
</svg>
