<?xml version="1.0" encoding="utf-8"?>
<!-- Generator: Adobe Illustrator 16.0.0, SVG Export Plug-In . SVG Version: 6.00 Build 0)  -->
<!DOCTYPE svg PUBLIC "-//W3C//DTD SVG 1.1//EN" "http://www.w3.org/Graphics/SVG/1.1/DTD/svg11.dtd">
<svg version="1.1" id="Layer_1" xmlns="http://www.w3.org/2000/svg" xmlns:xlink="http://www.w3.org/1999/xlink" x="0px" y="0px"
	 width="30px" height="30px" viewBox="0 0 30 30" enable-background="new 0 0 30 30" xml:space="preserve">
<circle fill="#FFFFFF" stroke="#F26722" stroke-miterlimit="10" cx="15.082" cy="15" r="14"/>
<g>
	<path fill-rule="evenodd" clip-rule="evenodd" fill="#F26722" d="M18.029,20.427c-0.085,0.014-0.156,0.022-0.227,0.035
		c-0.264,0.049-0.525,0.099-0.79,0.149c-0.248,0.048-0.497,0.098-0.744,0.149c-0.262,0.054-0.524,0.112-0.787,0.17
		c-0.256,0.059-0.513,0.117-0.771,0.18c-0.264,0.065-0.528,0.136-0.792,0.203c-0.363,0.094-0.725,0.188-1.089,0.275
		c-0.098,0.023-0.2,0.03-0.301,0.035c-0.146,0.008-0.266-0.049-0.335-0.184c-0.127-0.247-0.262-0.489-0.375-0.741
		c-0.22-0.495-0.43-0.992-0.634-1.491c-0.187-0.455-0.356-0.916-0.537-1.372c-0.182-0.454-0.362-0.908-0.554-1.357
		c-0.161-0.381-0.346-0.752-0.506-1.135c-0.196-0.462-0.378-0.93-0.562-1.397c-0.164-0.415-0.326-0.83-0.478-1.249
		c-0.108-0.297-0.203-0.603-0.295-0.906c-0.019-0.062-0.014-0.135-0.006-0.201c0.043-0.342,0.119-0.674,0.223-1.002
		c0.077-0.24,0.133-0.487,0.202-0.73C8.705,9.75,8.736,9.64,8.817,9.55c0.03-0.033,0.035-0.09,0.044-0.138
		c0.02-0.111,0.031-0.224,0.051-0.334c0.016-0.082,0.075-0.131,0.155-0.144C9.26,8.902,9.455,8.874,9.648,8.849
		c0.282-0.034,0.566-0.062,0.849-0.096c0.24-0.03,0.479-0.06,0.719-0.097c0.218-0.034,0.435-0.08,0.653-0.117
		c0.253-0.043,0.506-0.085,0.761-0.124c0.196-0.03,0.393-0.056,0.589-0.084c0.224-0.032,0.446-0.074,0.671-0.094
		c0.246-0.022,0.467-0.103,0.677-0.231c0.333-0.206,0.69-0.219,1.056-0.11c0.144,0.042,0.281,0.014,0.421-0.002
		c0.303-0.034,0.606-0.072,0.909-0.099c0.28-0.025,0.563-0.04,0.844-0.054c0.067-0.003,0.134,0.014,0.2,0.029
		c0.067,0.016,0.109,0.073,0.11,0.146c0,0.058-0.001,0.118-0.012,0.175c-0.029,0.181,0,0.347,0.076,0.518
		c0.302,0.688,0.594,1.381,0.895,2.071c0.335,0.779,0.678,1.557,1.017,2.334c0.266,0.606,0.533,1.211,0.798,1.819
		c0.231,0.535,0.461,1.072,0.688,1.608c0.125,0.295,0.244,0.592,0.299,0.91c0.022,0.142,0.062,0.282,0.019,0.429
		c-0.021,0.073-0.052,0.132-0.123,0.158c-0.151,0.057-0.305,0.109-0.459,0.161c-0.26,0.087-0.521,0.174-0.783,0.253
		c-0.241,0.075-0.485,0.139-0.728,0.21c-0.021,0.006-0.051,0.026-0.054,0.044c-0.047,0.329-0.089,0.658-0.135,0.987
		c-0.01,0.07,0.016,0.093,0.085,0.099c0.543,0.042,1.088,0.068,1.631-0.009c0.119-0.016,0.242-0.033,0.361,0.019
		c0.121,0.054,0.195,0.153,0.224,0.28c0.025,0.106-0.044,0.223-0.158,0.288c-0.142,0.082-0.3,0.114-0.458,0.136
		c-0.374,0.051-0.747,0.039-1.121-0.018c-0.145-0.021-0.293-0.022-0.439-0.034c-0.059-0.005-0.072,0.017-0.062,0.076
		c0.028,0.146,0.041,0.295-0.008,0.441c-0.027,0.085-0.088,0.129-0.177,0.132c-0.354,0.014-0.71,0.024-1.064,0.038
		c-0.155,0.006-0.288-0.047-0.399-0.153c-0.077-0.074-0.107-0.157-0.059-0.263C17.988,20.566,18.002,20.505,18.029,20.427z
		 M18.505,17.672c0.001,0,0.003,0,0.005,0c-0.006-0.087-0.017-0.176-0.016-0.264c0.003-0.146-0.038-0.281-0.097-0.411
		c-0.176-0.389-0.352-0.775-0.529-1.163c-0.418-0.905-0.846-1.807-1.256-2.716c-0.264-0.584-0.504-1.18-0.751-1.772
		c-0.236-0.563-0.465-1.129-0.706-1.689c-0.108-0.25-0.243-0.487-0.405-0.709c-0.119-0.162-0.269-0.211-0.461-0.174
		c-0.353,0.066-0.705,0.133-1.06,0.188c-0.431,0.066-0.863,0.123-1.294,0.183C11.53,9.2,11.125,9.257,10.721,9.316
		c-0.357,0.051-0.714,0.106-1.072,0.159c-0.086,0.014-0.101,0.031-0.067,0.11c0.083,0.189,0.173,0.375,0.256,0.565
		c0.174,0.396,0.347,0.792,0.516,1.189c0.235,0.55,0.468,1.099,0.695,1.65c0.197,0.479,0.391,0.959,0.58,1.441
		c0.163,0.418,0.318,0.838,0.472,1.258c0.18,0.496,0.354,0.993,0.531,1.49c0.171,0.483,0.339,0.969,0.514,1.452
		c0.087,0.237,0.056,0.248,0.371,0.225c0.01-0.001,0.018-0.002,0.026-0.005c0.235-0.069,0.47-0.141,0.706-0.21
		c0.115-0.034,0.182-0.108,0.207-0.226c0.035-0.165,0.076-0.33,0.104-0.496c0.018-0.1,0.059-0.171,0.165-0.187
		c0.062-0.01,0.125-0.01,0.188-0.015c0.051-0.003,0.072,0.022,0.061,0.071c-0.022,0.091-0.046,0.184-0.074,0.273
		c-0.037,0.121-0.081,0.239-0.117,0.36c-0.038,0.135-0.002,0.182,0.136,0.165c0.117-0.013,0.229-0.052,0.344-0.069
		c0.113-0.018,0.152-0.088,0.173-0.188c0.05-0.229,0.101-0.458,0.158-0.686c0.021-0.082,0.05-0.163,0.086-0.241
		c0.031-0.067,0.103-0.087,0.187-0.063c0.069,0.019,0.112,0.073,0.104,0.145c-0.009,0.082-0.023,0.165-0.04,0.247
		c-0.038,0.194-0.082,0.389-0.117,0.584c-0.022,0.127,0.025,0.162,0.149,0.123c0.07-0.022,0.143-0.039,0.212-0.064
		c0.027-0.011,0.06-0.037,0.068-0.062c0.021-0.062,0.028-0.128,0.043-0.191c0.039-0.168,0.077-0.339,0.123-0.506
		c0.036-0.135,0.074-0.27,0.126-0.398c0.046-0.115,0.171-0.151,0.281-0.101c0.045,0.019,0.067,0.047,0.053,0.095
		c-0.032,0.121-0.065,0.244-0.097,0.365c-0.056,0.212-0.111,0.423-0.164,0.636c-0.018,0.074,0.019,0.123,0.096,0.133
		c0.111,0.015,0.217-0.018,0.324-0.046c0.084-0.022,0.135-0.069,0.155-0.151c0.021-0.087,0.046-0.174,0.062-0.263
		c0.039-0.247,0.073-0.495,0.112-0.743c0.025-0.16,0.132-0.248,0.277-0.236c0.075,0.006,0.098,0.035,0.077,0.105
		c-0.017,0.064-0.044,0.128-0.06,0.194c-0.043,0.186-0.083,0.374-0.124,0.562c-0.028,0.127-0.062,0.254-0.088,0.381
		c-0.022,0.115,0.007,0.149,0.122,0.138c0.078-0.009,0.154-0.037,0.231-0.047c0.102-0.014,0.145-0.076,0.156-0.167
		c0.028-0.259,0.056-0.516,0.08-0.775c0.009-0.085,0.042-0.13,0.128-0.146c0.027-0.005,0.056-0.005,0.082-0.005
		c0.09,0.001,0.114,0.025,0.107,0.115c-0.006,0.073-0.016,0.147-0.031,0.22c-0.037,0.18-0.077,0.358-0.114,0.536
		c-0.016,0.079,0.015,0.14,0.078,0.16c0.042,0.013,0.085,0.018,0.128,0.019c0.057,0.004,0.097-0.021,0.098-0.084
		C18.505,17.965,18.505,17.819,18.505,17.672z M12.206,19.95c0.006-0.001,0.013-0.002,0.021-0.004c0-0.043-0.003-0.088,0-0.132
		c0.012-0.215,0.063-0.411,0.256-0.54c0.059-0.041,0.121-0.079,0.183-0.116c0.133-0.079,0.184-0.189,0.132-0.337
		c-0.068-0.194-0.153-0.384-0.225-0.578c-0.291-0.783-0.583-1.564-0.864-2.351c-0.205-0.574-0.385-1.158-0.593-1.732
		c-0.181-0.501-0.376-0.999-0.584-1.49c-0.34-0.805-0.697-1.602-1.048-2.402C9.445,10.183,9.407,10.098,9.362,10
		c-0.02,0.032-0.034,0.049-0.042,0.068c-0.035,0.09-0.075,0.179-0.104,0.271c-0.09,0.29-0.18,0.581-0.264,0.873
		C8.9,11.39,8.878,11.568,8.909,11.755C8.95,12,9.028,12.231,9.121,12.459c0.114,0.281,0.242,0.557,0.364,0.835
		c0.294,0.672,0.593,1.343,0.882,2.017c0.226,0.528,0.446,1.058,0.662,1.591c0.2,0.496,0.392,0.997,0.585,1.497
		c0.144,0.371,0.283,0.745,0.425,1.117C12.094,19.661,12.149,19.806,12.206,19.95z M17.118,8.41c0-0.002-0.001-0.005-0.001-0.007
		c-0.249,0.022-0.499,0.044-0.749,0.067c-0.057,0.006-0.082,0.038-0.068,0.093c0.011,0.04,0.021,0.08,0.038,0.115
		c0.102,0.23,0.209,0.46,0.311,0.69c0.294,0.661,0.59,1.32,0.875,1.985c0.259,0.597,0.501,1.2,0.754,1.8
		c0.223,0.524,0.446,1.047,0.679,1.568c0.063,0.144,0.152,0.276,0.239,0.407c0.06,0.09,0.095,0.082,0.136-0.019
		c0.043-0.102,0.081-0.207,0.109-0.312c0.071-0.249,0.134-0.501,0.208-0.75c0.05-0.172,0.09-0.337-0.036-0.494
		c-0.005-0.007-0.004-0.019-0.009-0.025c-0.052-0.087-0.098-0.178-0.154-0.261c-0.034-0.049-0.062-0.043-0.091,0.009
		c-0.008,0.014-0.018,0.027-0.022,0.042c-0.072,0.201-0.146,0.402-0.219,0.603c-0.036,0.099-0.07,0.2-0.111,0.297
		c-0.031,0.071-0.084,0.077-0.139,0.023c-0.062-0.059-0.082-0.129-0.065-0.21c0.027-0.139,0.046-0.282,0.089-0.417
		c0.083-0.271,0.179-0.538,0.271-0.806c0.022-0.07,0.054-0.133,0.019-0.214c-0.124-0.277-0.243-0.557-0.361-0.837
		c-0.239-0.568-0.478-1.137-0.719-1.705c-0.222-0.52-0.447-1.038-0.668-1.559c-0.024-0.056-0.053-0.088-0.118-0.084
		C17.25,8.414,17.184,8.41,17.118,8.41z M12.825,20.492c0,0.056-0.004,0.113,0,0.169c0.016,0.164,0.095,0.228,0.259,0.212
		c0.041-0.004,0.082-0.006,0.12-0.017c0.4-0.106,0.8-0.218,1.202-0.322c0.286-0.074,0.573-0.142,0.861-0.207
		c0.275-0.062,0.55-0.118,0.827-0.174c0.265-0.053,0.531-0.107,0.799-0.151c0.373-0.061,0.748-0.12,1.13-0.114
		c0.086,0,0.16-0.037,0.199-0.117c0.044-0.091,0.095-0.182,0.12-0.278c0.042-0.158,0.074-0.321,0.095-0.482
		c0.014-0.113-0.03-0.147-0.144-0.146c-0.074,0-0.15,0.005-0.223,0.011c-0.423,0.038-0.846,0.075-1.269,0.118
		c-0.229,0.022-0.458,0.052-0.686,0.082c-0.297,0.038-0.591,0.077-0.885,0.118c-0.299,0.041-0.596,0.091-0.893,0.125
		c-0.351,0.04-0.694,0.111-1.031,0.221c-0.162,0.054-0.288,0.151-0.359,0.315C12.862,20.059,12.826,20.272,12.825,20.492z
		 M19.959,17.57c0.009,0,0.019,0.001,0.027,0.002c0.009-0.021,0.022-0.043,0.026-0.064c0.016-0.074,0.021-0.152,0.043-0.226
		c0.055-0.184,0.111-0.367,0.176-0.547c0.092-0.251,0.172-0.507,0.313-0.738c0.023-0.038,0.035-0.09,0.035-0.134
		c0.003-0.21-0.093-0.383-0.214-0.544c-0.045-0.059-0.085-0.046-0.108,0.029c-0.027,0.09-0.043,0.185-0.077,0.272
		c-0.085,0.221-0.176,0.439-0.267,0.657c-0.062,0.148-0.095,0.292-0.013,0.447c0.086,0.16,0.104,0.332,0.062,0.512
		c-0.018,0.079-0.023,0.161-0.027,0.242C19.934,17.509,19.95,17.54,19.959,17.57z M19.667,16.182
		c0.01,0.002,0.018,0.004,0.026,0.006c0.024-0.061,0.053-0.121,0.073-0.183c0.126-0.358,0.248-0.719,0.374-1.077
		c0.028-0.077,0.046-0.149,0.013-0.228c-0.041-0.103-0.072-0.208-0.117-0.31c-0.02-0.045-0.06-0.082-0.091-0.123
		c-0.031,0.047-0.067,0.093-0.093,0.143c-0.014,0.027-0.012,0.062-0.02,0.092c-0.007,0.038-0.013,0.077-0.026,0.112
		c-0.098,0.232-0.194,0.464-0.299,0.694c-0.068,0.151-0.113,0.298-0.031,0.46c0.052,0.104,0.098,0.211,0.146,0.318
		C19.637,16.117,19.652,16.15,19.667,16.182z M20.373,17.65c0.116-0.022,0.235-0.039,0.35-0.068
		c0.127-0.033,0.143-0.055,0.134-0.184c-0.007-0.081,0.015-0.146,0.066-0.205c0.02-0.021,0.034-0.047,0.053-0.07
		c0.043-0.059,0.066-0.123,0.044-0.196c-0.019-0.067-0.029-0.138-0.06-0.2c-0.049-0.103-0.106-0.202-0.166-0.3
		c-0.027-0.045-0.072-0.046-0.105-0.003c-0.039,0.049-0.082,0.1-0.107,0.154c-0.122,0.28-0.242,0.562-0.357,0.844
		C20.151,17.601,20.182,17.643,20.373,17.65z"/>
	<path fill-rule="evenodd" clip-rule="evenodd" fill="#F26722" d="M20.265,19.06c-0.059-0.017-0.147-0.032-0.229-0.069
		c-0.09-0.04-0.107-0.12-0.062-0.21c0.05-0.106,0.137-0.156,0.253-0.16c0.233-0.01,0.466-0.008,0.695-0.034
		c0.209-0.023,0.412-0.081,0.619-0.118c0.078-0.014,0.161-0.029,0.236-0.016c0.101,0.019,0.128,0.126,0.045,0.188
		c-0.078,0.058-0.168,0.105-0.262,0.132c-0.31,0.086-0.621,0.165-0.936,0.239C20.519,19.037,20.406,19.042,20.265,19.06z"/>
	<path fill-rule="evenodd" clip-rule="evenodd" fill="#F26722" d="M20.304,19.621c-0.026-0.001-0.058,0.005-0.08-0.006
		c-0.027-0.012-0.065-0.034-0.072-0.061c-0.027-0.109,0.022-0.24,0.169-0.261c0.22-0.03,0.435-0.08,0.65-0.124
		c0.188-0.038,0.375-0.078,0.563-0.116c0.02-0.004,0.039-0.004,0.061-0.004c0.052-0.001,0.103-0.002,0.123,0.058
		c0.018,0.049-0.021,0.132-0.075,0.153c-0.125,0.05-0.251,0.102-0.379,0.139c-0.229,0.065-0.461,0.122-0.693,0.18
		c-0.087,0.021-0.177,0.032-0.266,0.048C20.305,19.624,20.304,19.623,20.304,19.621z"/>
	<path fill-rule="evenodd" clip-rule="evenodd" fill="#FFFFFF" d="M18.505,17.672c0,0.147,0,0.293,0,0.44
		c-0.001,0.063-0.041,0.088-0.098,0.084c-0.043-0.001-0.086-0.006-0.128-0.019c-0.063-0.021-0.094-0.081-0.078-0.16
		c0.037-0.178,0.077-0.356,0.114-0.536c0.016-0.072,0.025-0.146,0.031-0.22c0.007-0.09-0.018-0.114-0.107-0.115
		c-0.026,0-0.055,0-0.082,0.005c-0.086,0.016-0.119,0.061-0.128,0.146c-0.024,0.26-0.052,0.517-0.08,0.775
		c-0.012,0.091-0.055,0.153-0.156,0.167c-0.077,0.01-0.153,0.038-0.231,0.047c-0.115,0.012-0.145-0.022-0.122-0.138
		c0.025-0.127,0.06-0.254,0.088-0.381c0.041-0.188,0.081-0.376,0.124-0.562c0.016-0.066,0.043-0.13,0.06-0.194
		c0.021-0.07-0.002-0.1-0.077-0.105c-0.146-0.012-0.252,0.076-0.277,0.236c-0.039,0.248-0.073,0.496-0.112,0.743
		c-0.016,0.089-0.04,0.176-0.062,0.263c-0.021,0.082-0.071,0.129-0.155,0.151c-0.107,0.028-0.213,0.061-0.324,0.046
		c-0.077-0.01-0.113-0.059-0.096-0.133c0.053-0.213,0.108-0.424,0.164-0.636c0.031-0.121,0.064-0.244,0.097-0.365
		c0.015-0.048-0.008-0.076-0.053-0.095c-0.11-0.051-0.235-0.015-0.281,0.101c-0.052,0.129-0.09,0.264-0.126,0.398
		c-0.046,0.167-0.084,0.338-0.123,0.506c-0.015,0.063-0.021,0.13-0.043,0.191c-0.009,0.025-0.041,0.052-0.068,0.062
		c-0.069,0.025-0.143,0.042-0.212,0.064c-0.125,0.039-0.171,0.004-0.149-0.123c0.036-0.195,0.079-0.39,0.117-0.584
		c0.017-0.082,0.031-0.165,0.04-0.247c0.008-0.071-0.036-0.126-0.104-0.145c-0.084-0.023-0.156-0.004-0.187,0.063
		c-0.036,0.078-0.065,0.159-0.086,0.241c-0.057,0.228-0.108,0.457-0.158,0.686c-0.021,0.1-0.06,0.17-0.173,0.188
		c-0.114,0.018-0.227,0.057-0.344,0.069c-0.138,0.017-0.174-0.03-0.136-0.165c0.036-0.121,0.08-0.239,0.117-0.36
		c0.027-0.09,0.051-0.183,0.074-0.273c0.011-0.049-0.01-0.074-0.061-0.071c-0.063,0.005-0.126,0.005-0.188,0.015
		c-0.106,0.016-0.146,0.087-0.165,0.187c-0.029,0.166-0.069,0.331-0.104,0.496c-0.025,0.117-0.091,0.191-0.207,0.226
		c-0.235,0.069-0.47,0.141-0.706,0.21c-0.009,0.003-0.017,0.004-0.026,0.005c-0.315,0.023-0.284,0.013-0.371-0.225
		c-0.175-0.483-0.343-0.969-0.514-1.452c-0.176-0.497-0.351-0.994-0.531-1.49c-0.154-0.42-0.31-0.84-0.472-1.258
		c-0.189-0.482-0.382-0.962-0.58-1.441c-0.228-0.551-0.46-1.101-0.695-1.65c-0.169-0.397-0.341-0.793-0.516-1.189
		c-0.083-0.19-0.174-0.376-0.256-0.565c-0.034-0.079-0.019-0.096,0.067-0.11c0.358-0.053,0.715-0.108,1.072-0.159
		c0.405-0.059,0.809-0.116,1.214-0.173c0.432-0.06,0.864-0.116,1.294-0.183c0.355-0.054,0.707-0.121,1.06-0.188
		c0.192-0.037,0.342,0.013,0.461,0.174c0.162,0.222,0.297,0.459,0.405,0.709c0.241,0.56,0.47,1.126,0.706,1.689
		c0.248,0.592,0.488,1.188,0.751,1.772c0.41,0.91,0.838,1.811,1.256,2.716c0.178,0.388,0.354,0.774,0.529,1.163
		c0.059,0.13,0.1,0.266,0.097,0.411c-0.001,0.088,0.01,0.177,0.016,0.264C18.508,17.672,18.506,17.672,18.505,17.672z M11.375,9.721
		c-0.343,0.021-0.607,0.172-0.847,0.376c-0.024,0.021-0.042,0.071-0.037,0.102c0.026,0.143,0.049,0.289,0.097,0.426
		c0.079,0.225,0.176,0.444,0.265,0.666c0.06,0.15,0.116,0.303,0.181,0.45c0.076,0.167,0.262,0.139,0.359,0.07
		c0.04-0.031,0.054-0.071,0.038-0.121c-0.009-0.03-0.021-0.059-0.034-0.088c-0.155-0.353-0.311-0.704-0.463-1.058
		c-0.033-0.077-0.065-0.16,0.004-0.235c0.037-0.041,0.081-0.086,0.13-0.104c0.103-0.037,0.212-0.057,0.319-0.082
		c0.087-0.02,0.182-0.017,0.253-0.082C11.75,9.94,11.73,9.812,11.59,9.765C11.516,9.739,11.436,9.732,11.375,9.721z"/>
	<path fill-rule="evenodd" clip-rule="evenodd" fill="#FFFFFF" d="M12.206,19.95c-0.056-0.145-0.111-0.289-0.167-0.434
		c-0.142-0.372-0.281-0.746-0.425-1.117c-0.193-0.5-0.385-1.001-0.585-1.497c-0.216-0.533-0.436-1.062-0.662-1.591
		c-0.29-0.674-0.588-1.345-0.882-2.017c-0.122-0.279-0.25-0.554-0.364-0.835C9.028,12.231,8.95,12,8.909,11.755
		c-0.03-0.187-0.008-0.365,0.044-0.542c0.084-0.292,0.173-0.583,0.264-0.873c0.029-0.092,0.068-0.182,0.104-0.271
		c0.008-0.02,0.022-0.036,0.042-0.068c0.045,0.098,0.083,0.183,0.121,0.269c0.351,0.8,0.708,1.597,1.048,2.402
		c0.208,0.491,0.403,0.989,0.584,1.49c0.208,0.574,0.388,1.158,0.593,1.732c0.281,0.786,0.574,1.567,0.864,2.351
		c0.072,0.194,0.157,0.384,0.225,0.578c0.052,0.147,0.001,0.258-0.132,0.337c-0.062,0.037-0.124,0.075-0.183,0.116
		c-0.193,0.129-0.244,0.325-0.256,0.54c-0.003,0.044,0,0.089,0,0.132C12.219,19.948,12.212,19.949,12.206,19.95z"/>
	<path fill-rule="evenodd" clip-rule="evenodd" fill="#FFFFFF" d="M17.118,8.41c0.065,0,0.132,0.004,0.196-0.001
		c0.065-0.004,0.094,0.028,0.118,0.084c0.221,0.521,0.446,1.039,0.668,1.559c0.241,0.568,0.479,1.137,0.719,1.705
		c0.118,0.28,0.237,0.56,0.361,0.837c0.035,0.081,0.004,0.144-0.019,0.214c-0.093,0.268-0.188,0.535-0.271,0.806
		c-0.043,0.135-0.062,0.278-0.089,0.417c-0.017,0.081,0.004,0.152,0.065,0.21c0.055,0.054,0.107,0.048,0.139-0.023
		c0.041-0.098,0.075-0.199,0.111-0.297c0.073-0.201,0.146-0.402,0.219-0.603c0.005-0.015,0.015-0.028,0.022-0.042
		c0.029-0.052,0.057-0.058,0.091-0.009c0.057,0.083,0.103,0.174,0.154,0.261c0.005,0.007,0.004,0.018,0.009,0.025
		c0.126,0.157,0.086,0.322,0.036,0.494c-0.074,0.249-0.137,0.5-0.208,0.75c-0.028,0.105-0.066,0.21-0.109,0.312
		c-0.041,0.101-0.076,0.108-0.136,0.019c-0.087-0.13-0.176-0.263-0.239-0.407c-0.232-0.521-0.456-1.044-0.679-1.568
		c-0.253-0.6-0.495-1.203-0.754-1.8c-0.285-0.665-0.581-1.324-0.875-1.985c-0.102-0.23-0.209-0.459-0.311-0.69
		c-0.017-0.035-0.027-0.075-0.038-0.115c-0.014-0.055,0.012-0.087,0.068-0.093c0.25-0.022,0.5-0.045,0.749-0.067
		C17.117,8.405,17.118,8.407,17.118,8.41z"/>
	<path fill-rule="evenodd" clip-rule="evenodd" fill="#FFFFFF" d="M12.825,20.492c0-0.22,0.037-0.434,0.124-0.639
		c0.071-0.164,0.197-0.262,0.359-0.315c0.336-0.109,0.68-0.181,1.031-0.221c0.297-0.034,0.594-0.084,0.893-0.125
		c0.294-0.041,0.588-0.08,0.885-0.118c0.228-0.03,0.456-0.06,0.686-0.082c0.423-0.043,0.846-0.08,1.269-0.118
		c0.072-0.006,0.148-0.011,0.223-0.011c0.113-0.001,0.157,0.033,0.144,0.146c-0.021,0.161-0.053,0.324-0.095,0.482
		c-0.025,0.097-0.076,0.188-0.12,0.278c-0.039,0.08-0.113,0.117-0.199,0.117c-0.382-0.006-0.757,0.054-1.13,0.114
		c-0.268,0.044-0.534,0.099-0.799,0.151c-0.276,0.056-0.552,0.112-0.827,0.174c-0.288,0.065-0.575,0.133-0.861,0.207
		c-0.402,0.104-0.802,0.216-1.202,0.322c-0.039,0.011-0.08,0.013-0.12,0.017c-0.164,0.016-0.243-0.048-0.259-0.212
		C12.821,20.605,12.825,20.548,12.825,20.492z M13.073,20.126c0.002,0.015,0.003,0.043,0.008,0.069
		c0.015,0.087,0.042,0.108,0.129,0.098c0.055-0.007,0.112-0.017,0.166-0.031c0.376-0.107,0.752-0.208,1.123-0.326
		c0.454-0.145,0.921-0.195,1.388-0.262c0.242-0.034,0.484-0.064,0.725-0.099c0.204-0.029,0.408-0.066,0.61-0.088
		c0.314-0.035,0.63-0.058,0.945-0.087c0.018-0.002,0.042-0.009,0.051-0.022c0.084-0.115,0.023-0.26-0.113-0.282
		c-0.046-0.007-0.092-0.013-0.136-0.01c-0.198,0.01-0.397,0.018-0.596,0.036c-0.294,0.024-0.59,0.057-0.883,0.088
		c-0.327,0.036-0.656,0.069-0.982,0.119c-0.324,0.051-0.646,0.106-0.963,0.181c-0.426,0.1-0.848,0.217-1.269,0.33
		C13.128,19.88,13.075,19.961,13.073,20.126z"/>
	<path fill-rule="evenodd" clip-rule="evenodd" fill="#FFFFFF" d="M19.959,17.57c-0.009-0.03-0.025-0.062-0.023-0.091
		c0.004-0.081,0.01-0.163,0.027-0.242c0.043-0.18,0.024-0.352-0.062-0.512c-0.082-0.155-0.05-0.299,0.013-0.447
		c0.091-0.218,0.182-0.437,0.267-0.657c0.034-0.088,0.05-0.183,0.077-0.272c0.023-0.075,0.063-0.088,0.108-0.029
		c0.121,0.161,0.217,0.334,0.214,0.544c0,0.044-0.012,0.096-0.035,0.134c-0.142,0.231-0.222,0.487-0.313,0.738
		c-0.064,0.18-0.121,0.363-0.176,0.547c-0.022,0.073-0.027,0.151-0.043,0.226c-0.004,0.021-0.018,0.043-0.026,0.064
		C19.978,17.571,19.968,17.57,19.959,17.57z"/>
	<path fill-rule="evenodd" clip-rule="evenodd" fill="#FFFFFF" d="M19.667,16.182c-0.015-0.031-0.03-0.064-0.045-0.096
		c-0.048-0.107-0.094-0.215-0.146-0.318c-0.082-0.162-0.037-0.309,0.031-0.46c0.104-0.229,0.201-0.462,0.299-0.694
		c0.014-0.035,0.02-0.074,0.026-0.112c0.008-0.03,0.006-0.065,0.02-0.092c0.025-0.049,0.062-0.096,0.093-0.143
		c0.031,0.041,0.071,0.078,0.091,0.123c0.045,0.102,0.076,0.207,0.117,0.31c0.033,0.079,0.016,0.151-0.013,0.228
		c-0.126,0.358-0.248,0.719-0.374,1.077c-0.021,0.062-0.049,0.122-0.073,0.183C19.685,16.186,19.677,16.184,19.667,16.182z"/>
	<path fill-rule="evenodd" clip-rule="evenodd" fill="#FFFFFF" d="M20.373,17.65c-0.191-0.008-0.222-0.05-0.149-0.229
		c0.115-0.282,0.235-0.563,0.357-0.844c0.025-0.055,0.068-0.105,0.107-0.154c0.033-0.043,0.078-0.042,0.105,0.003
		c0.06,0.098,0.117,0.197,0.166,0.3c0.03,0.062,0.041,0.133,0.06,0.2c0.022,0.073-0.001,0.138-0.044,0.196
		c-0.019,0.023-0.033,0.049-0.053,0.07c-0.052,0.06-0.073,0.124-0.066,0.205c0.009,0.129-0.007,0.15-0.134,0.184
		C20.608,17.611,20.489,17.628,20.373,17.65z"/>
	<path fill-rule="evenodd" clip-rule="evenodd" fill="#F26722" d="M11.375,9.721c0.061,0.011,0.14,0.018,0.214,0.044
		c0.14,0.047,0.16,0.175,0.048,0.276c-0.071,0.065-0.166,0.062-0.253,0.082c-0.107,0.025-0.216,0.045-0.319,0.082
		c-0.049,0.018-0.093,0.063-0.13,0.104c-0.069,0.075-0.037,0.159-0.004,0.235c0.153,0.354,0.309,0.705,0.463,1.058
		c0.013,0.029,0.025,0.058,0.034,0.088c0.017,0.049,0.002,0.09-0.038,0.121c-0.097,0.069-0.283,0.097-0.359-0.07
		c-0.065-0.147-0.121-0.3-0.181-0.45c-0.089-0.222-0.186-0.441-0.265-0.666c-0.047-0.137-0.07-0.283-0.097-0.426
		c-0.005-0.031,0.013-0.081,0.037-0.102C10.769,9.893,11.033,9.741,11.375,9.721z"/>
	<path fill-rule="evenodd" clip-rule="evenodd" fill="#F26722" d="M13.073,20.126c0.002-0.165,0.056-0.246,0.202-0.286
		c0.421-0.113,0.843-0.23,1.269-0.33c0.317-0.074,0.64-0.13,0.963-0.181c0.326-0.05,0.655-0.083,0.982-0.119
		c0.293-0.031,0.589-0.063,0.883-0.088c0.198-0.019,0.397-0.026,0.596-0.036c0.044-0.003,0.09,0.003,0.136,0.01
		c0.137,0.022,0.197,0.167,0.113,0.282c-0.009,0.014-0.033,0.021-0.051,0.022c-0.315,0.029-0.631,0.052-0.945,0.087
		c-0.202,0.021-0.406,0.059-0.61,0.088c-0.24,0.034-0.482,0.064-0.725,0.099c-0.466,0.066-0.934,0.117-1.388,0.262
		c-0.371,0.118-0.747,0.219-1.123,0.326c-0.053,0.015-0.111,0.024-0.166,0.031c-0.087,0.011-0.114-0.011-0.129-0.098
		C13.076,20.169,13.075,20.141,13.073,20.126z"/>
</g>
</svg>
