<?xml version="1.0" encoding="utf-8"?>
<!-- Generator: Adobe Illustrator 16.0.0, SVG Export Plug-In . SVG Version: 6.00 Build 0)  -->
<!DOCTYPE svg PUBLIC "-//W3C//DTD SVG 1.1//EN" "http://www.w3.org/Graphics/SVG/1.1/DTD/svg11.dtd">
<svg version="1.1" id="Layer_1" xmlns="http://www.w3.org/2000/svg" xmlns:xlink="http://www.w3.org/1999/xlink" x="0px" y="0px"
	 width="30px" height="30px" viewBox="0 0 30 30" enable-background="new 0 0 30 30" xml:space="preserve">
<circle fill="#FFFFFF" stroke="#C9D3E7" stroke-miterlimit="10" cx="15" cy="15" r="14"/>
<path fill="#C9D3E7" d="M16.221,24.325c0.021,0.1,0.045,0.188,0.062,0.276c0.021,0.135-0.014,0.192-0.143,0.234
	c-0.439,0.146-0.882,0.156-1.325,0.018c-0.176-0.06-0.348-0.14-0.519-0.215c-0.091-0.039-0.155-0.104-0.163-0.216
	c-0.001-0.021-0.043-0.059-0.068-0.062c-0.369-0.021-0.617-0.248-0.86-0.486c-0.144-0.145-0.168-0.311-0.082-0.493
	c0.04-0.087,0.073-0.178,0.109-0.271c0.028-0.067,0.003-0.119-0.06-0.154c-0.029-0.021-0.061-0.037-0.09-0.059
	c-0.105-0.07-0.16-0.166-0.1-0.301c0.048-0.106,0.076-0.226,0.109-0.343c0.022-0.079-0.009-0.137-0.068-0.196
	c-0.093-0.1-0.186-0.203-0.253-0.316c-0.092-0.159-0.056-0.317,0.07-0.446c0.062-0.063,0.142-0.112,0.208-0.175
	c0.023-0.021,0.048-0.066,0.042-0.096c-0.083-0.27-0.146-0.551-0.27-0.801c-0.153-0.314-0.241-0.646-0.333-0.981
	c-0.118-0.423-0.234-0.845-0.366-1.263c-0.165-0.52-0.348-1.032-0.62-1.512c-0.209-0.363-0.45-0.712-0.675-1.069
	c-0.272-0.434-0.503-0.887-0.636-1.384c-0.114-0.418-0.159-0.844-0.123-1.275c0.114-1.311,0.668-2.428,1.494-3.429
	c0.534-0.646,1.229-1.013,2.028-1.211c0.806-0.199,1.628-0.283,2.451-0.184c1.152,0.14,2.152,0.603,2.867,1.563
	c0.23,0.309,0.378,0.663,0.525,1.018c0.187,0.444,0.327,0.903,0.416,1.377c0.1,0.527,0.129,1.057,0.065,1.594
	c-0.12,1.021-0.536,1.925-1.099,2.771c-0.227,0.344-0.463,0.684-0.672,1.038c-0.361,0.625-0.478,1.312-0.43,2.029
	c0.018,0.248,0.026,0.495,0.028,0.74c0,0.167-0.019,0.337-0.035,0.508c-0.004,0.041-0.021,0.098-0.054,0.117
	c-0.07,0.053-0.071,0.117-0.062,0.189c0.043,0.246,0,0.479-0.095,0.716c-0.05,0.121-0.04,0.239,0.036,0.368
	c0.062,0.098,0.09,0.229,0.09,0.343c0.003,0.198-0.028,0.399-0.043,0.603c-0.007,0.102-0.006,0.205,0.002,0.308
	c0.019,0.231,0.01,0.454-0.199,0.616c-0.143,0.115-0.274,0.237-0.413,0.354c-0.135,0.11-0.285,0.163-0.462,0.151
	C16.421,24.32,16.326,24.325,16.221,24.325z M13.683,20.893c0.137,0.181,0.318,0.209,0.493,0.227
	c0.278,0.029,0.56,0.035,0.836,0.056c0.683,0.052,1.3-0.134,1.86-0.518c0.12-0.081,0.124-0.083,0.03-0.187
	c-0.121-0.134-0.117-0.203-0.002-0.349c0.019-0.021,0.033-0.045,0.054-0.06c0.132-0.103,0.157-0.242,0.155-0.396
	c-0.002-0.359,0.008-0.717,0.006-1.074c-0.006-0.648,0.195-1.232,0.557-1.768c0.235-0.35,0.475-0.699,0.691-1.059
	c0.463-0.759,0.791-1.573,0.925-2.455c0.086-0.557,0.017-1.102-0.146-1.639c-0.158-0.534-0.398-1.033-0.652-1.527
	c-0.342-0.663-0.861-1.122-1.559-1.38c-0.728-0.268-1.474-0.315-2.23-0.213c-0.578,0.078-1.142,0.222-1.677,0.457
	c-0.433,0.19-0.833,0.432-1.111,0.83c-0.164,0.231-0.326,0.462-0.468,0.706c-0.362,0.62-0.631,1.273-0.675,2.002
	c-0.023,0.399,0.01,0.794,0.079,1.187c0.069,0.395,0.186,0.776,0.393,1.124c0.274,0.472,0.55,0.943,0.822,1.416
	c0.326,0.564,0.602,1.148,0.759,1.785c0.127,0.521,0.254,1.041,0.403,1.556c0.101,0.356,0.286,0.668,0.642,0.842
	c0.079,0.04,0.171,0.085,0.166,0.185c-0.002,0.102-0.105,0.129-0.181,0.168C13.802,20.836,13.748,20.863,13.683,20.893z
	 M15.243,23.27c0.002,0.008,0.002,0.018,0.002,0.023c0.218-0.018,0.437-0.021,0.651-0.057c0.352-0.06,0.701-0.133,1.049-0.207
	c0.281-0.062,0.304-0.104,0.271-0.389c-0.013-0.104-0.013-0.205,0.05-0.302c0.051-0.078,0.036-0.157-0.041-0.215
	c-0.031-0.022-0.062-0.047-0.095-0.072c-0.063-0.051-0.091-0.112-0.062-0.196c0.013-0.033,0.002-0.078,0.002-0.117
	c-0.038,0.012-0.079,0.021-0.114,0.039c-0.037,0.016-0.067,0.049-0.104,0.066c-0.188,0.1-0.362,0.221-0.562,0.286
	c-0.374,0.129-0.769,0.168-1.16,0.193c-0.109,0.006-0.221-0.013-0.33-0.029c-0.09-0.019-0.155-0.078-0.189-0.168
	c-0.031-0.081,0.002-0.137,0.09-0.142c0.078-0.004,0.156,0.005,0.233,0.005c0.157,0,0.315,0.019,0.468-0.005
	c0.413-0.063,0.814-0.176,1.178-0.385c0.193-0.108,0.371-0.248,0.551-0.382c0.059-0.042,0.064-0.112,0.025-0.177
	c-0.039-0.061-0.102-0.076-0.162-0.049c-0.131,0.059-0.26,0.117-0.383,0.188c-0.307,0.17-0.614,0.342-0.976,0.334
	c-0.479-0.013-0.957-0.039-1.434-0.072c-0.242-0.021-0.481-0.073-0.724-0.104c-0.062-0.006-0.148,0-0.191,0.039
	c-0.096,0.081-0.125,0.205-0.098,0.328c0.023,0.104,0.093,0.173,0.204,0.196c0.136,0.031,0.197,0.133,0.161,0.266
	c-0.028,0.1-0.067,0.197-0.116,0.288c-0.101,0.188-0.102,0.218,0.073,0.343c0.108,0.08,0.17,0.178,0.143,0.307
	c-0.026,0.113-0.075,0.224-0.103,0.334c-0.017,0.066-0.039,0.158-0.009,0.213c0.128,0.227,0.303,0.406,0.58,0.445
	c0.094,0.014,0.169,0.055,0.22,0.143c0.056,0.102,0.143,0.169,0.263,0.178c0.283,0.02,0.565,0.032,0.848,0.055
	c0.161,0.012,0.308,0,0.459-0.076c0.096-0.051,0.136-0.095,0.146-0.195c0.021-0.178,0.037-0.189,0.215-0.188
	c0.341,0.003,0.606-0.146,0.836-0.38c0.123-0.126,0.121-0.193,0.027-0.347c-0.046-0.074-0.084-0.079-0.164-0.048
	c-0.219,0.098-0.438,0.195-0.668,0.265c-0.398,0.116-0.814,0.114-1.23,0.104c-0.111-0.002-0.227-0.02-0.335-0.047
	c-0.086-0.021-0.126-0.094-0.107-0.184c0.019-0.081,0.079-0.111,0.162-0.109C14.943,23.271,15.094,23.27,15.243,23.27z"/>
<path fill="#C9D3E7" d="M20.962,13.816c-0.06-0.014-0.146-0.015-0.216-0.049c-0.055-0.029-0.111-0.088-0.127-0.145
	c-0.018-0.072,0.031-0.138,0.105-0.165c0.075-0.027,0.152-0.055,0.233-0.066c0.367-0.044,0.735-0.082,1.104-0.119
	c0.258-0.027,0.517-0.052,0.775-0.077c0.146-0.016,0.184,0.034,0.123,0.174c-0.049,0.113-0.137,0.185-0.255,0.205
	c-0.336,0.06-0.671,0.112-1.008,0.16C21.462,13.767,21.221,13.788,20.962,13.816z"/>
<path fill="#C9D3E7" d="M9.902,9.224C9.9,9.382,9.832,9.432,9.742,9.375c-0.196-0.122-0.387-0.25-0.57-0.388
	C8.948,8.819,8.732,8.64,8.519,8.46C8.46,8.41,8.414,8.345,8.369,8.281C8.313,8.199,8.319,8.115,8.385,8.04
	c0.066-0.073,0.143-0.106,0.233-0.052c0.079,0.047,0.16,0.091,0.226,0.151c0.311,0.292,0.619,0.588,0.922,0.887
	C9.832,9.091,9.873,9.18,9.902,9.224z"/>
<path fill="#C9D3E7" d="M14.746,5.967c-0.01,0.134-0.024,0.346-0.041,0.556c-0.002,0.02-0.006,0.038-0.014,0.057
	c-0.024,0.069-0.05,0.141-0.142,0.132c-0.088-0.009-0.102-0.088-0.113-0.152c-0.063-0.359-0.127-0.717-0.177-1.076
	c-0.018-0.126,0.004-0.257,0.016-0.386c0.009-0.088,0.075-0.134,0.158-0.148c0.089-0.018,0.165,0.015,0.2,0.097
	c0.034,0.083,0.065,0.172,0.072,0.26C14.724,5.501,14.73,5.696,14.746,5.967z"/>
<path fill="#C9D3E7" d="M19.327,8.644c-0.127-0.005-0.187-0.051-0.226-0.132c-0.031-0.074,0.008-0.132,0.058-0.171
	c0.141-0.114,0.282-0.229,0.433-0.328c0.331-0.222,0.667-0.438,1.004-0.652c0.057-0.037,0.133-0.097,0.189-0.02
	c0.049,0.07-0.028,0.126-0.076,0.168c-0.389,0.344-0.777,0.688-1.173,1.026C19.471,8.591,19.38,8.618,19.327,8.644z"/>
<path fill="#C9D3E7" d="M8.007,13.949c-0.36-0.031-0.719-0.06-1.078-0.094c-0.082-0.008-0.168-0.022-0.188-0.122
	c-0.016-0.069,0.073-0.16,0.174-0.182c0.044-0.009,0.091-0.012,0.136-0.008c0.467,0.034,0.934,0.072,1.401,0.109
	c0.019,0.001,0.039,0.002,0.057,0.008c0.076,0.023,0.127,0.072,0.123,0.153c-0.003,0.082-0.067,0.11-0.136,0.114
	C8.333,13.93,8.17,13.928,8.01,13.928C8.007,13.936,8.007,13.943,8.007,13.949z"/>
<path fill="#C9D3E7" d="M14.363,18.102c-0.028-0.019-0.052-0.043-0.083-0.052c-0.129-0.028-0.171-0.133-0.2-0.239
	c-0.067-0.268-0.139-0.533-0.189-0.806c-0.146-0.758-0.325-1.504-0.752-2.166c-0.196-0.302-0.22-0.64-0.189-0.985
	c0.01-0.112,0.063-0.158,0.175-0.148c0.302,0.023,0.599,0.075,0.857,0.258c0.034,0.023,0.074,0.038,0.108,0.062
	c0.06,0.039,0.093,0.042,0.116-0.043c0.036-0.145,0.099-0.283,0.212-0.387c0.17-0.154,0.391-0.138,0.527,0.046
	c0.077,0.106,0.131,0.231,0.188,0.351c0.054,0.114,0.061,0.119,0.166,0.042c0.245-0.18,0.489-0.365,0.739-0.541
	c0.084-0.06,0.183-0.132,0.296-0.062c0.111,0.073,0.107,0.196,0.091,0.309c-0.014,0.093-0.057,0.178-0.079,0.269
	c-0.009,0.034,0.004,0.073,0.006,0.109c0.033-0.003,0.07,0,0.103-0.014c0.16-0.071,0.317-0.142,0.476-0.222
	c0.061-0.029,0.105-0.021,0.149,0.021c0.104,0.1,0.179,0.22,0.192,0.362c0.006,0.058-0.022,0.127-0.053,0.182
	c-0.135,0.254-0.283,0.502-0.414,0.761c-0.041,0.085-0.054,0.192-0.063,0.291c-0.042,0.354-0.066,0.709-0.12,1.064
	c-0.029,0.181-0.113,0.353-0.162,0.528c-0.04,0.144-0.076,0.288-0.1,0.438c-0.033,0.227-0.068,0.455-0.086,0.687
	c-0.031,0.452-0.059,0.902-0.082,1.354c-0.017,0.382-0.023,0.768-0.039,1.152c-0.004,0.104-0.114,0.211-0.223,0.197
	c-0.027-0.002-0.065-0.05-0.072-0.08c-0.012-0.086-0.012-0.175-0.012-0.263c-0.01-0.702-0.017-1.406-0.021-2.106
	c-0.005-0.246-0.023-0.274-0.269-0.272c-0.258,0.004-0.515,0.022-0.771,0.032c-0.105,0.006-0.173,0.062-0.196,0.162
	c-0.021,0.09-0.04,0.186-0.04,0.275c0.004,0.484,0.016,0.973,0.022,1.456c0.002,0.138-0.011,0.271-0.011,0.409
	c0,0.078-0.043,0.105-0.113,0.115c-0.214,0.027-0.332-0.062-0.327-0.274c0.012-0.616,0.028-1.229,0.043-1.845
	c0.004-0.156,0.015-0.311,0.186-0.395C14.356,18.126,14.358,18.111,14.363,18.102z M16.784,14.303
	c-0.011-0.006-0.019-0.01-0.028-0.016c-0.049,0.038-0.102,0.071-0.143,0.114c-0.141,0.147-0.315,0.182-0.508,0.164
	c-0.181-0.017-0.242-0.074-0.264-0.253c-0.02-0.18-0.02-0.18-0.167-0.074c-0.044,0.029-0.086,0.059-0.13,0.087
	c-0.153,0.103-0.327,0.138-0.506,0.154c-0.08,0.007-0.139-0.023-0.18-0.091c-0.044-0.073-0.084-0.147-0.13-0.218
	c-0.047-0.076-0.094-0.073-0.132,0.008c-0.035,0.07-0.056,0.146-0.086,0.217c-0.068,0.156-0.209,0.214-0.36,0.134
	c-0.085-0.044-0.161-0.106-0.236-0.167c-0.11-0.09-0.24-0.129-0.377-0.141c-0.094-0.008-0.135,0.041-0.116,0.133
	c0.013,0.056,0.032,0.112,0.056,0.165c0.069,0.151,0.156,0.293,0.208,0.45c0.109,0.315,0.208,0.635,0.298,0.958
	c0.117,0.423,0.22,0.849,0.332,1.271c0.059,0.229,0.123,0.456,0.191,0.685c0.026,0.092,0.059,0.092,0.144,0.057
	c0.093-0.041,0.194-0.086,0.292-0.088c0.257-0.013,0.514-0.009,0.771,0.002c0.198,0.006,0.243-0.02,0.243-0.219
	c0-0.32,0.07-0.617,0.184-0.912c0.09-0.238,0.152-0.479,0.178-0.733c0.024-0.281,0.037-0.567,0.144-0.834
	c0.091-0.228,0.124-0.477,0.269-0.686C16.764,14.421,16.768,14.357,16.784,14.303z"/>
<path fill="#C9D3E7" d="M18.234,12.155c-0.014,0.052-0.021,0.122-0.051,0.178c-0.021,0.037-0.074,0.065-0.115,0.071
	c-0.021,0.003-0.058-0.054-0.068-0.09c-0.059-0.185-0.107-0.373-0.166-0.559c-0.221-0.716-0.596-1.336-1.148-1.843
	c-0.049-0.046-0.103-0.094-0.14-0.151c-0.049-0.071-0.021-0.14,0.063-0.166c0.108-0.034,0.215-0.003,0.289,0.071
	c0.162,0.159,0.324,0.319,0.463,0.497c0.255,0.329,0.49,0.672,0.646,1.061C18.129,11.517,18.184,11.827,18.234,12.155z"/>
<path fill="#C9D3E7" d="M14.653,22.92c-0.185,0-0.371,0.006-0.557-0.004c-0.077-0.004-0.156-0.037-0.229-0.068
	c-0.064-0.023-0.12-0.08-0.09-0.147c0.022-0.058,0.079-0.132,0.128-0.138c0.122-0.013,0.25-0.002,0.375,0.02
	c0.45,0.08,0.902,0.084,1.357,0.023c0.077-0.01,0.152-0.035,0.228-0.045c0.028-0.004,0.081,0.018,0.09,0.035
	c0.01,0.032,0,0.088-0.021,0.108c-0.045,0.04-0.104,0.075-0.162,0.099c-0.336,0.119-0.689,0.119-1.041,0.129
	c-0.026,0.002-0.053,0-0.077,0C14.653,22.928,14.653,22.924,14.653,22.92z"/>
<path fill="#C9D3E7" d="M14.755,24.053c-0.283,0.023-0.54-0.059-0.784-0.193c-0.031-0.018-0.062-0.036-0.086-0.062
	c-0.067-0.063-0.058-0.14,0.027-0.181c0.137-0.068,0.275-0.027,0.407,0.019c0.308,0.104,0.621,0.134,0.943,0.112
	c0.059-0.004,0.117-0.01,0.173,0c0.045,0.006,0.086,0.034,0.129,0.057c-0.029,0.038-0.049,0.096-0.087,0.114
	c-0.083,0.041-0.175,0.074-0.266,0.09C15.061,24.031,14.907,24.037,14.755,24.053z"/>
</svg>
