<?xml version="1.0" encoding="utf-8"?>
<!-- Generator: Adobe Illustrator 16.0.0, SVG Export Plug-In . SVG Version: 6.00 Build 0)  -->
<!DOCTYPE svg PUBLIC "-//W3C//DTD SVG 1.1//EN" "http://www.w3.org/Graphics/SVG/1.1/DTD/svg11.dtd">
<svg version="1.1" id="Layer_1" xmlns="http://www.w3.org/2000/svg" xmlns:xlink="http://www.w3.org/1999/xlink" x="0px" y="0px"
	 width="30px" height="30px" viewBox="0 0 30 30" enable-background="new 0 0 30 30" xml:space="preserve">
<circle fill="#FFFAFA" stroke="#00A5E5" stroke-miterlimit="10" cx="15" cy="15" r="13"/>
<g>
	<path fill="#00A5E5" d="M13.829,8.766c0.079,0.005,0.12,0.042,0.144,0.096c0.024,0.06,0.012,0.118-0.025,0.169
		C13.93,9.058,13.905,9.08,13.88,9.098c-0.341,0.251-0.562,0.586-0.629,1.017c-0.038,0.23-0.061,0.462-0.091,0.693
		c-0.014,0.114-0.076,0.197-0.165,0.222c-0.146,0.039-0.246-0.026-0.282-0.193c-0.163-0.777,0.127-1.523,0.793-1.951
		C13.611,8.821,13.723,8.771,13.829,8.766z"/>
	<path fill="#00A5E5" d="M18.839,17.467c0.021,0.687,0.043,1.373,0.064,2.06c0.002,0.104-0.004,0.211-0.005,0.315
		c-0.002,0.089-0.051,0.134-0.135,0.145c-0.142,0.02-0.279-0.014-0.29-0.217c-0.018-0.392-0.05-0.78-0.067-1.171
		c-0.021-0.501-0.036-1.005-0.052-1.506c-0.001-0.062,0.002-0.123-0.001-0.185c-0.006-0.059,0.022-0.08,0.073-0.09
		c0.108-0.02,0.21,0,0.299,0.053c0.034,0.02,0.063,0.07,0.069,0.111c0.023,0.159,0.037,0.321,0.055,0.482
		C18.85,17.465,18.842,17.466,18.839,17.467z"/>
	<path fill="#00A5E5" d="M13.848,8.738c0.077,0.003,0.116,0.041,0.139,0.096c0.024,0.06,0.012,0.12-0.023,0.171
		c-0.019,0.026-0.043,0.048-0.066,0.067c-0.329,0.254-0.543,0.59-0.608,1.026c-0.037,0.233-0.059,0.466-0.088,0.7
		c-0.013,0.115-0.073,0.198-0.159,0.222c-0.142,0.04-0.241-0.024-0.273-0.193c-0.158-0.785,0.124-1.537,0.768-1.968
		C13.638,8.793,13.746,8.742,13.848,8.738z"/>
	<path fill="#00A5E5" d="M12.693,16.766c0.061-0.035,0.126-0.065,0.192-0.079c0.049-0.01,0.075-0.091,0.071-0.214
		c-0.001-0.053-0.031-0.086-0.053-0.123c-0.021-0.021-0.043-0.042-0.07-0.048c-0.018-0.003-0.038,0.003-0.053,0.009
		c-0.013,0.002-0.025,0.004-0.037,0.01c-0.005,0.003-0.012,0.006-0.017,0.009c-0.008,0.003-0.018,0.002-0.026,0.005
		c-0.005,0.002-0.008,0.004-0.013,0.005c-0.008,0.003-0.017,0.004-0.025,0.007c-0.062,0.018-0.121,0.045-0.178,0.072
		c-0.085,0.039-0.167,0.083-0.248,0.13c-0.097,0.056-0.172,0.142-0.271,0.216c-0.445,0.342-0.432,1.109-0.438,1.187
		c-0.007,0.077-0.019,0.328,0.024,0.389c0.044,0.062,0.159,0.055,0.189,0.032c0.028-0.02,0.143-0.039,0.136-0.26
		c-0.008-0.221,0.04-0.49,0.087-0.688c0.047-0.197,0.225-0.37,0.383-0.465c0.075-0.045,0.238-0.148,0.319-0.185
		C12.674,16.771,12.684,16.768,12.693,16.766z"/>
	<path fill="#00A5E5" d="M14.843,7.205c0,0,1.302-0.11,2.223,1.041c0.923,1.15,0.961,2.729,0.923,3.089
		c-0.038,0.362-0.301,1.545-0.555,1.948c-0.294,0.466-0.573,0.798-1.354,0.997c-0.785,0.199-1.125,0.249-1.839,0.156
		c-0.717-0.095-1.394-0.219-1.72-0.522c-0.325-0.302-1.404-1.229-1.294-3.082c0.111-1.852,1.146-2.609,1.301-2.733
		C12.684,7.977,13.68,7.169,14.843,7.205z M12.788,8.548c-0.136,0.105-1.018,0.69-1.114,2.289c-0.097,1.598,0.708,2.214,0.993,2.475
		c0.283,0.261,1.006,0.536,1.628,0.618c0.623,0.082,0.816,0.071,1.5-0.099c0.681-0.171,0.897-0.609,1.163-0.922
		c0.371-0.438,0.569-1.341,0.602-1.652c0.036-0.311,0.135-1.404-0.682-2.385c-1.043-1.256-2.056-1.178-2.056-1.178
		C13.809,7.661,12.922,8.441,12.788,8.548z"/>
	<path fill="#00A5E5" d="M20.261,19.712c-0.021-0.465-0.112-1.211-0.279-1.826c-0.169-0.617-0.214-0.927-0.425-1.274
		c-0.355-0.584-0.603-0.838-1.039-1.206c-0.437-0.37-1.307-0.638-1.426-0.676c-0.116-0.039-0.144-0.039-0.933,0.508
		c-0.373,0.257-1.19,0.307-1.19,0.307s-0.043-0.002-0.062-0.002c-0.188,0.01-0.342-0.012-0.525-0.044
		c-0.214-0.04-0.426-0.096-0.632-0.16c-0.176-0.056-0.35-0.117-0.518-0.191c-0.052-0.023-0.107-0.048-0.156-0.08
		c-0.075-0.047-0.161-0.135-0.257-0.127c-0.045,0.003-0.093,0.032-0.131,0.052c-0.031,0.017-0.065,0.03-0.093,0.05
		c-0.014,0.01-0.026,0.022-0.039,0.031c-0.021,0.013-0.044,0.018-0.064,0.032c-0.011,0.008-0.021,0.016-0.033,0.021
		c-0.021,0.011-0.043,0.021-0.063,0.033c-0.153,0.084-0.296,0.189-0.436,0.295c-0.206,0.155-0.403,0.321-0.595,0.491
		c-0.234,0.206-0.409,0.468-0.64,0.722c-0.862,0.953-0.598,3.038-0.598,3.239c0,0.351,0.012,0.706,0.092,1.046
		c0.045,0.189,0.196,0.396,0.333,0.538c0.109,0.115,0.235,0.217,0.367,0.308c0.343,0.239,0.729,0.416,1.124,0.555
		c0.908,0.319,1.892,0.448,2.854,0.445c0.795-0.006,1.594-0.064,2.376-0.22c0.724-0.146,1.447-0.374,2.074-0.768
		c0.196-0.122,0.382-0.259,0.549-0.418c0.073-0.069,0.136-0.144,0.198-0.221c0.08-0.096,0.174-0.166,0.214-0.29
		c0.039-0.116,0.03-0.244,0.013-0.365C20.279,20.259,20.273,19.976,20.261,19.712z M14.899,22.201
		c-0.939,0.021-1.881-0.145-2.751-0.502c-0.321-0.131-0.632-0.286-0.925-0.472c-0.088-0.057-0.173-0.116-0.26-0.176
		c-0.178-0.125-0.154-0.267-0.157-0.47c-0.004-0.194-0.033-0.391-0.055-0.585c-0.067-0.559-0.134-1.319-0.057-1.854
		c0.079-0.535,0.436-1.254,0.816-1.598c0.18-0.162,0.568-0.531,0.767-0.671c0.164-0.117,0.333-0.197,0.499-0.314
		c0.05-0.036,0.031-0.053,0.097-0.042c0.017,0.002,0.157,0.066,0.204,0.095c0.023,0.015,0.047,0.028,0.073,0.04
		c0.095,0.046,0.217,0.085,0.317,0.118c0.185,0.06,0.251,0.071,0.465,0.104c0.226,0.036,0.454,0.024,0.681,0.05
		c1.688,0.197,2.328-0.569,2.413-0.686c0.085-0.118,0.586,0.251,1.031,0.52c0.444,0.268,0.829,0.67,1.164,1.247
		c0.335,0.575,0.42,2.307,0.436,2.742c0.008,0.199,0.018,0.4,0.028,0.603c0.004,0.134,0.046,0.275,0.026,0.41
		c-0.018,0.104-0.074,0.123-0.155,0.179c-0.084,0.06-0.169,0.118-0.258,0.171c-0.276,0.165-0.571,0.3-0.87,0.419
		c-0.978,0.386-2.026,0.589-3.072,0.653C15.205,22.19,15.052,22.198,14.899,22.201z"/>
</g>
</svg>
