<?xml version="1.0" encoding="utf-8"?>
<!-- Generator: Adobe Illustrator 16.0.0, SVG Export Plug-In . SVG Version: 6.00 Build 0)  -->
<!DOCTYPE svg PUBLIC "-//W3C//DTD SVG 1.1//EN" "http://www.w3.org/Graphics/SVG/1.1/DTD/svg11.dtd">
<svg version="1.1" id="Layer_1" xmlns="http://www.w3.org/2000/svg" xmlns:xlink="http://www.w3.org/1999/xlink" x="0px" y="0px"
	 width="30px" height="30px" viewBox="0 0 30 30" enable-background="new 0 0 30 30" xml:space="preserve">
<circle fill="#FAFBFC" stroke="#C9D3E7" stroke-miterlimit="10" cx="15.123" cy="15.021" r="14"/>
<path fill="#C9D3E7" d="M11.642,15.841c-0.151,0.166-0.301,0.313-0.431,0.481c-0.162,0.207-0.302,0.43-0.464,0.635
	c-0.083,0.102-0.186,0.195-0.299,0.26c-0.207,0.114-0.461,0.018-0.598-0.201c-0.098-0.158-0.146-0.336-0.182-0.518
	c-0.101-0.499-0.067-0.999,0.023-1.496c0.076-0.413,0.186-0.814,0.425-1.161c0.391-0.57,0.863-1.068,1.454-1.436
	c0.256-0.162,0.545-0.26,0.861-0.238c0.025,0.001,0.065-0.026,0.077-0.05c0.274-0.54,0.595-1.052,0.946-1.544
	c0.618-0.865,1.343-1.633,2.157-2.312c0.529-0.439,1.082-0.842,1.69-1.164c0.359-0.19,0.74-0.323,1.136-0.418
	c0.387-0.093,0.776-0.162,1.174-0.144c0.201,0.009,0.396,0.047,0.58,0.129c0.309,0.137,0.442,0.396,0.502,0.709
	c0.09,0.484,0.078,0.971,0.006,1.455c-0.062,0.41-0.129,0.821-0.225,1.225c-0.091,0.371-0.209,0.737-0.343,1.094
	c-0.213,0.575-0.442,1.145-0.682,1.71c-0.234,0.554-0.488,1.099-0.822,1.602c-0.039,0.06-0.039,0.12,0.002,0.176
	c0.185,0.24,0.229,0.516,0.226,0.808c-0.008,0.407-0.107,0.797-0.238,1.18c-0.279,0.822-0.754,1.533-1.312,2.189
	c-0.275,0.323-0.557,0.646-0.887,0.918c-0.127,0.105-0.258,0.207-0.418,0.252c-0.338,0.092-0.728-0.09-0.875-0.407
	c-0.053-0.115-0.087-0.241-0.111-0.367c-0.028-0.147,0.04-0.285,0.089-0.423c0.09-0.253,0.187-0.504,0.279-0.758
	c0.043-0.119,0.015-0.159-0.111-0.163c-0.204-0.005-0.409-0.005-0.613-0.009c-0.044-0.002-0.071,0.014-0.096,0.055
	c-0.094,0.156-0.213,0.285-0.388,0.355c-0.129,0.057-0.262,0.051-0.391,0.018c-0.617-0.159-1.195-0.409-1.731-0.752
	c-0.089-0.059-0.173-0.133-0.247-0.211c-0.104-0.106-0.136-0.236-0.088-0.383c0.071-0.213,0.136-0.427,0.203-0.642
	c0.006-0.021,0.006-0.055-0.005-0.065c-0.109-0.094-0.18-0.209-0.236-0.338C11.673,15.881,11.663,15.872,11.642,15.841z
	 M14.677,17.32c0.008-0.008,0.018-0.012,0.026-0.019c-0.008-0.026-0.012-0.057-0.024-0.081c-0.127-0.244-0.253-0.486-0.381-0.729
	c-0.054-0.102-0.036-0.16,0.069-0.227c0.1-0.06,0.144-0.059,0.205,0.051c0.072,0.131,0.127,0.271,0.184,0.412
	c0.084,0.205,0.157,0.414,0.241,0.617c0.016,0.035,0.062,0.078,0.098,0.081c0.074,0.009,0.149-0.002,0.224-0.014
	c0.015-0.004,0.042-0.042,0.038-0.058c-0.021-0.096-0.041-0.188-0.071-0.278c-0.087-0.261-0.181-0.519-0.267-0.779
	c-0.01-0.03,0-0.088,0.024-0.11c0.12-0.121,0.206-0.103,0.273,0.053c0.008,0.017,0.012,0.031,0.017,0.051
	c0.062,0.264,0.12,0.527,0.187,0.793c0.019,0.075,0.049,0.146,0.082,0.218c0.026,0.054,0.074,0.062,0.129,0.035
	c0.025-0.014,0.053-0.026,0.078-0.043c0.086-0.051,0.09-0.073,0.053-0.166c-0.071-0.177-0.146-0.354-0.202-0.536
	c-0.058-0.174-0.097-0.354-0.142-0.531c-0.022-0.09,0.039-0.181,0.135-0.207c0.098-0.026,0.158,0.015,0.164,0.115
	c0.02,0.313,0.102,0.616,0.195,0.914c0.018,0.053,0.059,0.1,0.09,0.148c0.056-0.041,0.117-0.075,0.166-0.122
	c0.021-0.019,0.031-0.07,0.021-0.095c-0.123-0.236-0.185-0.494-0.244-0.75c-0.033-0.144-0.069-0.283-0.101-0.428
	c-0.023-0.104,0.022-0.181,0.115-0.204c0.078-0.021,0.125,0.01,0.152,0.125c0.045,0.192,0.084,0.387,0.121,0.582
	c0.031,0.157,0.049,0.318,0.08,0.478c0.014,0.069,0.053,0.086,0.115,0.05c0.053-0.031,0.104-0.07,0.152-0.109
	c0.069-0.057,0.09-0.123,0.061-0.209c-0.039-0.121-0.07-0.248-0.109-0.369c-0.062-0.205-0.129-0.412-0.199-0.614
	c-0.031-0.092-0.002-0.204,0.076-0.256c0.082-0.052,0.129-0.043,0.158,0.047c0.049,0.144,0.084,0.289,0.119,0.436
	c0.035,0.154,0.064,0.312,0.098,0.468c0.008,0.03,0.033,0.059,0.051,0.088c0.029-0.021,0.066-0.035,0.086-0.062
	c0.062-0.082,0.107-0.17,0.168-0.252c0.043-0.061,0.041-0.121,0.015-0.184c-0.054-0.123-0.106-0.244-0.158-0.367
	c-0.053-0.125-0.104-0.252-0.147-0.379c-0.027-0.075,0.022-0.162,0.1-0.188c0.078-0.026,0.117-0.009,0.152,0.082
	c0.063,0.164,0.127,0.329,0.188,0.495c0.025,0.068,0.047,0.138,0.074,0.209c0.088-0.061,0.156-0.221,0.131-0.301
	c-0.043-0.133-0.092-0.262-0.131-0.394c-0.031-0.109-0.057-0.219-0.072-0.33c-0.01-0.064,0.021-0.126,0.094-0.146
	c0.074-0.02,0.119,0.028,0.142,0.086c0.045,0.116,0.084,0.235,0.125,0.354c0.018,0.057,0.034,0.115,0.059,0.193
	c0.043-0.046,0.07-0.075,0.097-0.104c0.158-0.185,0.231-0.411,0.321-0.629c0.019-0.047,0-0.062-0.047-0.067
	c-0.127-0.013-0.235-0.053-0.274-0.194c-0.004-0.015-0.011-0.03-0.019-0.051c-0.021,0.013-0.03,0.018-0.043,0.028
	c-0.211,0.194-0.455,0.331-0.711,0.45c-0.349,0.158-0.705,0.257-1.09,0.229c-0.083-0.006-0.167,0-0.251-0.007
	c-0.256-0.023-0.514-0.045-0.757-0.136c-0.491-0.186-0.884-0.504-1.199-0.921c-0.155-0.207-0.239-0.439-0.271-0.695
	c-0.028-0.225-0.02-0.448,0.002-0.672c0.045-0.461,0.173-0.889,0.455-1.27c0.34-0.459,0.773-0.721,1.353-0.732
	c0.188-0.003,0.377-0.033,0.563-0.058c0.125-0.017,0.245-0.05,0.37-0.07c0.154-0.025,0.312-0.03,0.455,0.036
	c0.222,0.096,0.438,0.197,0.652,0.312c0.325,0.18,0.633,0.393,0.913,0.638c0.132,0.113,0.228,0.246,0.265,0.415
	c0.069,0.308,0.056,0.619-0.015,0.923c-0.065,0.299,0.011,0.558,0.173,0.802c0.039,0.058,0.063,0.058,0.094-0.007
	c0.062-0.138,0.115-0.279,0.179-0.417c0.055-0.124,0.024-0.219-0.052-0.327c-0.078-0.111-0.129-0.244-0.185-0.371
	c-0.028-0.069,0.037-0.158,0.13-0.193c0.059-0.022,0.1,0.002,0.133,0.088c0.022,0.057,0.045,0.117,0.063,0.176
	c0.023,0.061,0.043,0.125,0.064,0.186c0.012,0.001,0.021,0.001,0.031,0.003c0.039-0.098,0.08-0.192,0.113-0.291
	c0.033-0.092,0.014-0.183-0.025-0.272c-0.08-0.178-0.158-0.359-0.236-0.539c-0.037-0.088,0.004-0.171,0.1-0.211
	c0.093-0.038,0.146-0.013,0.185,0.086c0.029,0.079,0.049,0.16,0.07,0.239c0.02,0.07,0.036,0.141,0.057,0.212
	c0.011,0.001,0.021,0.002,0.027,0.004c0.049-0.081,0.1-0.163,0.139-0.248c0.017-0.031,0.017-0.081,0.002-0.111
	c-0.055-0.115-0.121-0.223-0.178-0.334c-0.054-0.102-0.109-0.205-0.149-0.312c-0.027-0.073,0.02-0.145,0.096-0.172
	c0.119-0.043,0.154-0.035,0.199,0.059c0.03,0.064,0.057,0.133,0.082,0.203c0.022,0.065,0.047,0.132,0.069,0.2
	c0.01,0,0.019,0,0.026,0c0.023-0.071,0.052-0.145,0.074-0.216c0.051-0.15,0.062-0.297-0.018-0.446
	c-0.072-0.138-0.131-0.283-0.191-0.427c-0.051-0.121-0.024-0.225,0.072-0.314c0.068-0.063,0.104-0.059,0.141,0.027
	c0.047,0.105,0.084,0.215,0.125,0.322c0.021,0.044,0.037,0.088,0.056,0.134c0.024-0.017,0.032-0.027,0.036-0.037
	c0.039-0.173,0.078-0.344,0.119-0.516c0.015-0.071,0-0.135-0.043-0.194c-0.071-0.105-0.146-0.21-0.217-0.317
	c-0.055-0.081-0.092-0.169-0.039-0.261c0.025-0.045,0.076-0.09,0.127-0.105C20,8.484,20.053,8.535,20.08,8.568
	c0.033,0.038,0.051,0.087,0.074,0.131c0.01,0.023,0.025,0.045,0.035,0.066c0.051-0.327,0.1-0.647,0.063-0.97
	c-0.017-0.15-0.039-0.301-0.078-0.446c-0.049-0.176-0.157-0.301-0.354-0.333c-0.317-0.055-0.635-0.014-0.944,0.045
	c-0.24,0.045-0.479,0.105-0.715,0.169c-0.259,0.071-0.515,0.156-0.75,0.289c-0.461,0.26-0.886,0.573-1.3,0.897
	c-0.579,0.454-1.144,0.931-1.608,1.507c-0.312,0.389-0.603,0.795-0.906,1.192c-0.262,0.341-0.503,0.693-0.683,1.084
	c-0.156,0.338-0.306,0.679-0.467,1.015c-0.13,0.271-0.253,0.542-0.322,0.835c-0.114,0.492-0.122,0.984-0.002,1.479
	c0.036,0.154,0.11,0.268,0.249,0.354c0.63,0.396,1.254,0.794,1.882,1.19C14.394,17.16,14.536,17.239,14.677,17.32z M14.046,12.317
	c-0.006,0.001-0.012,0.001-0.019,0.002c0.031,0.21,0.042,0.423,0.093,0.626c0.114,0.438,0.383,0.752,0.811,0.918
	c0.274,0.106,0.56,0.166,0.85,0.204c0.213,0.026,0.43,0.017,0.641-0.032c0.312-0.071,0.59-0.217,0.832-0.426
	c0.188-0.162,0.383-0.325,0.506-0.546c0.219-0.396,0.262-0.827,0.227-1.268c-0.018-0.236-0.133-0.426-0.311-0.578
	c-0.09-0.077-0.184-0.151-0.281-0.216c-0.262-0.176-0.535-0.337-0.846-0.405c-0.338-0.076-0.677-0.046-1.005,0.07
	c-0.19,0.068-0.377,0.12-0.581,0.047c-0.04-0.015-0.104-0.013-0.137,0.011c-0.257,0.173-0.485,0.379-0.617,0.668
	C14.076,11.687,14.054,12,14.046,12.317z M10.152,15.749c0,0.085-0.005,0.17,0.001,0.256c0.016,0.177,0.032,0.354,0.113,0.515
	c0.043,0.086,0.085,0.096,0.147,0.021c0.058-0.071,0.114-0.147,0.159-0.228c0.126-0.231,0.292-0.431,0.495-0.597
	c0.134-0.11,0.268-0.223,0.396-0.341c0.037-0.034,0.068-0.089,0.076-0.14c0.029-0.162,0.037-0.33,0.065-0.493
	c0.061-0.322,0.126-0.643,0.197-0.962c0.076-0.341,0.211-0.66,0.371-0.971c0.031-0.061,0.055-0.129,0.069-0.196
	c0.012-0.058-0.027-0.087-0.083-0.068c-0.052,0.018-0.106,0.038-0.151,0.066c-0.605,0.379-1.109,0.859-1.463,1.486
	C10.257,14.611,10.15,15.167,10.152,15.749z M15.879,18.084c-0.011,0-0.023-0.002-0.037-0.004c-0.019,0.051-0.041,0.1-0.055,0.15
	c-0.061,0.201-0.125,0.403-0.174,0.608c-0.028,0.121-0.053,0.251-0.037,0.37c0.031,0.24,0.25,0.324,0.435,0.178
	c0.613-0.479,1.15-1.033,1.56-1.703c0.078-0.129,0.156-0.258,0.229-0.39c0.05-0.086,0.039-0.094-0.045-0.137
	c-0.039-0.021-0.08-0.067-0.088-0.109c-0.021-0.114-0.021-0.235-0.033-0.353c-0.014-0.121-0.03-0.241-0.051-0.36
	c-0.006-0.024-0.035-0.071-0.054-0.069c-0.034,0-0.079,0.02-0.104,0.045c-0.021,0.024-0.031,0.069-0.031,0.104
	c0.01,0.183,0.023,0.362,0.037,0.544c0.017,0.209,0.035,0.417,0.053,0.625c0.002,0.061-0.026,0.113-0.086,0.118
	c-0.061,0.006-0.09-0.05-0.098-0.104c-0.021-0.175-0.041-0.352-0.064-0.524c-0.016-0.11-0.041-0.22-0.062-0.331
	c-0.129,0.056-0.182,0.133-0.178,0.246c0.002,0.056,0.01,0.109,0.012,0.164c0.017,0.285,0.035,0.57,0.043,0.855
	c0.003,0.062-0.032,0.128-0.061,0.188c-0.011,0.021-0.052,0.035-0.074,0.033c-0.019-0.004-0.039-0.039-0.041-0.062
	c-0.022-0.192-0.041-0.388-0.062-0.579c-0.008-0.086-0.021-0.175-0.041-0.26c-0.006-0.028-0.049-0.051-0.072-0.073
	c-0.021,0.027-0.059,0.054-0.061,0.084c-0.015,0.091-0.019,0.181-0.015,0.271c0.01,0.231,0.028,0.464,0.037,0.695
	c0.004,0.086-0.054,0.119-0.136,0.084c-0.09-0.035-0.137-0.104-0.139-0.201c-0.004-0.17-0.008-0.34-0.018-0.508
	c-0.004-0.031-0.033-0.087-0.051-0.087c-0.041,0-0.092,0.017-0.119,0.044c-0.029,0.028-0.051,0.078-0.051,0.12
	c-0.006,0.095,0.002,0.191,0.008,0.287c0.012,0.13,0.031,0.261,0.041,0.392c0.006,0.082-0.066,0.133-0.143,0.098
	c-0.035-0.016-0.068-0.055-0.084-0.088c-0.022-0.041-0.027-0.092-0.039-0.139C15.917,18.232,15.896,18.157,15.879,18.084z
	 M12.728,16.745c-0.003,0.03-0.008,0.062-0.011,0.095c-0.006,0.119-0.011,0.241-0.019,0.361c-0.002,0.02-0.015,0.048-0.03,0.054
	c-0.103,0.041-0.255-0.087-0.24-0.194c0.018-0.112,0.034-0.226,0.047-0.338c0.015-0.13-0.048-0.229-0.167-0.283
	c-0.057-0.025-0.099-0.02-0.134,0.039c-0.07,0.114-0.106,0.242-0.125,0.377c-0.017,0.127,0.01,0.23,0.12,0.312
	c0.317,0.235,0.634,0.474,1.003,0.622c0.249,0.1,0.503,0.184,0.773,0.197c0.141,0.007,0.257-0.065,0.358-0.155
	c0.018-0.017,0.028-0.073,0.014-0.089c-0.047-0.057-0.11-0.092-0.197-0.094c0,0.043-0.002,0.08,0.002,0.117
	c0.003,0.055-0.02,0.069-0.071,0.071c-0.174,0.006-0.179,0.005-0.184-0.169c0-0.005,0-0.01,0-0.016
	c-0.005-0.146-0.11-0.275-0.262-0.32c0,0.095,0,0.188-0.002,0.277c-0.001,0.111-0.016,0.123-0.124,0.121
	c-0.02-0.002-0.04-0.002-0.061-0.006c-0.075-0.004-0.104-0.045-0.094-0.121c0.011-0.104,0.015-0.211,0.033-0.314
	c0.018-0.102-0.022-0.165-0.104-0.212c-0.072-0.042-0.093-0.03-0.095,0.054c-0.003,0.096-0.003,0.191-0.01,0.287
	c-0.002,0.023-0.027,0.061-0.048,0.064c-0.105,0.021-0.255-0.111-0.253-0.217c0.004-0.125,0.015-0.25,0.017-0.373
	C12.866,16.805,12.831,16.77,12.728,16.745z M17.752,16.1c0.012,0.164,0.02,0.332,0.039,0.496c0.012,0.102,0.035,0.199,0.062,0.297
	c0.008,0.027,0.043,0.051,0.063,0.076c0.022-0.021,0.056-0.037,0.067-0.062c0.086-0.151,0.152-0.312,0.132-0.488
	c-0.029-0.24-0.076-0.479-0.117-0.715c-0.006-0.033-0.026-0.061-0.043-0.094c-0.029,0.021-0.062,0.039-0.086,0.065
	C17.768,15.796,17.732,15.938,17.752,16.1z M18.334,13.129c-0.025,0.04-0.045,0.072-0.064,0.104c-0.086,0.167-0.174,0.332-0.26,0.5
	c-0.01,0.02-0.012,0.062,0,0.074c0.07,0.064,0.143,0.125,0.221,0.18c0.017,0.012,0.07,0,0.08-0.017
	c0.109-0.173,0.213-0.348,0.312-0.524c0.025-0.042,0.02-0.083-0.043-0.104c-0.084-0.028-0.156-0.077-0.197-0.162
	C18.375,13.165,18.359,13.155,18.334,13.129z M18.301,15.796c0.012,0,0.021,0,0.031,0c0.008-0.094,0.02-0.188,0.014-0.282
	c-0.006-0.125-0.025-0.25-0.047-0.372c-0.004-0.033-0.039-0.059-0.061-0.088c-0.01,0.005-0.018,0.01-0.027,0.014
	C18.188,15.317,18.264,15.557,18.301,15.796z"/>
<path fill="#C9D3E7" d="M13.937,19.109c-0.001,0.521-0.196,0.961-0.528,1.356c-0.237,0.284-0.522,0.452-0.881,0.521
	c-0.38,0.072-0.76,0.154-1.139,0.24c-0.319,0.071-0.595,0.211-0.782,0.496c-0.059,0.088-0.131,0.168-0.212,0.234
	c-0.169,0.146-0.41,0.1-0.499-0.089C9.865,21.803,9.859,21.73,9.9,21.667c0.272-0.418,0.383-0.88,0.396-1.37
	c0.011-0.445,0.055-0.893,0.133-1.331c0.038-0.206,0.09-0.415,0.16-0.612c0.09-0.25,0.293-0.405,0.525-0.519
	c0.136-0.065,0.287-0.106,0.435-0.142c0.169-0.039,0.328,0.021,0.483,0.086c0.374,0.158,0.722,0.356,1.01,0.65
	c0.043,0.045,0.095,0.084,0.143,0.121c0.108,0.09,0.225,0.139,0.369,0.129c0.072-0.004,0.146,0.006,0.217,0.021
	c0.11,0.025,0.156,0.081,0.164,0.195C13.941,18.971,13.937,19.041,13.937,19.109z M10.722,20.792
	c0.001,0.028,0.002,0.062,0.004,0.094c0.009,0.123,0.04,0.144,0.15,0.099c0.013-0.006,0.023-0.012,0.035-0.017
	c0.189-0.087,0.373-0.192,0.57-0.255c0.274-0.087,0.561-0.145,0.841-0.215c0.225-0.059,0.437-0.15,0.62-0.298
	c0.317-0.255,0.418-0.604,0.434-0.991c0.002-0.05-0.032-0.064-0.075-0.078c-0.148-0.043-0.31-0.053-0.434-0.16
	c-0.138-0.119-0.272-0.248-0.412-0.367c-0.187-0.164-0.375-0.326-0.571-0.48c-0.084-0.064-0.193-0.098-0.3-0.068
	c-0.155,0.041-0.292,0.12-0.37,0.269c-0.074,0.136-0.147,0.274-0.199,0.421c-0.075,0.221-0.155,0.445-0.19,0.674
	c-0.043,0.29-0.044,0.588-0.065,0.881C10.748,20.461,10.733,20.625,10.722,20.792z"/>
<path fill="#C9D3E7" d="M16.254,10.783c0.18,0.025,0.363,0.035,0.541,0.078c0.209,0.052,0.367,0.2,0.51,0.353
	c0.094,0.099,0.162,0.222,0.246,0.331c0.01,0.016,0.043,0.03,0.062,0.024c0.076-0.014,0.147,0.011,0.188,0.075
	c0.037,0.059,0.017,0.138-0.067,0.169c-0.074,0.03-0.074,0.074-0.072,0.136c0.008,0.202,0.014,0.408-0.057,0.6
	c-0.199,0.544-0.5,0.743-0.963,0.762c-0.338,0.013-0.68,0-1.009-0.089c-0.458-0.122-0.75-0.375-0.853-0.909
	c-0.068-0.356-0.012-0.696,0.131-1.025c0.059-0.133,0.183-0.206,0.305-0.271c0.305-0.162,0.635-0.208,0.973-0.212
	c0.021,0,0.039,0,0.061,0C16.25,10.798,16.252,10.79,16.254,10.783z M16.322,13.067c0.156-0.028,0.316-0.047,0.471-0.087
	c0.236-0.062,0.414-0.204,0.473-0.45c0.037-0.159,0.053-0.324,0.062-0.486c0.024-0.462-0.474-1.039-1.104-0.894
	c-0.113,0.026-0.217,0.017-0.304-0.048c-0.087-0.066-0.166-0.047-0.253-0.016c-0.02,0.008-0.038,0.013-0.055,0.021
	c-0.296,0.12-0.487,0.33-0.558,0.646c-0.041,0.188-0.024,0.373,0.014,0.556c0.045,0.209,0.15,0.387,0.344,0.492
	C15.693,12.952,15.99,13.059,16.322,13.067z"/>
<path fill="#C9D3E7" d="M15.462,13.821c-0.081-0.005-0.153-0.016-0.183-0.095c-0.028-0.076,0.003-0.146,0.063-0.187
	c0.076-0.05,0.161-0.092,0.248-0.121c0.068-0.024,0.125,0.019,0.165,0.079c0.039,0.06,0.046,0.122,0.003,0.183
	C15.684,13.787,15.57,13.807,15.462,13.821z"/>
<path fill="#C9D3E7" d="M16.418,13.796c-0.08-0.029-0.164-0.049-0.238-0.092c-0.065-0.036-0.074-0.102-0.041-0.163
	c0.041-0.075,0.096-0.096,0.172-0.079c0.066,0.014,0.133,0.017,0.199,0.022c0.025,0.002,0.051-0.006,0.076-0.002
	c0.049,0.014,0.094,0.032,0.141,0.048c-0.018,0.053-0.024,0.113-0.057,0.155c-0.059,0.081-0.148,0.097-0.244,0.089
	C16.424,13.783,16.422,13.79,16.418,13.796z"/>
<path fill="#C9D3E7" d="M14.406,12.198c0.106,0,0.198,0.092,0.198,0.197c-0.002,0.108-0.066,0.186-0.157,0.187
	c-0.121,0.002-0.248-0.093-0.25-0.187C14.194,12.292,14.294,12.198,14.406,12.198z"/>
<path fill="#C9D3E7" d="M14.75,12.948c0.117-0.002,0.201,0.072,0.203,0.175c0,0.112-0.07,0.207-0.155,0.209
	c-0.107,0.002-0.256-0.114-0.253-0.199C14.545,13.041,14.646,12.948,14.75,12.948z"/>
<path fill="#C9D3E7" d="M14.461,11.316c0.073,0.002,0.131,0.064,0.128,0.141c-0.002,0.084-0.085,0.168-0.165,0.166
	c-0.068-0.001-0.152-0.082-0.153-0.143C14.269,11.406,14.375,11.315,14.461,11.316z"/>
</svg>
