<?xml version="1.0" encoding="utf-8"?>
<!-- Generator: Adobe Illustrator 16.0.0, SVG Export Plug-In . SVG Version: 6.00 Build 0)  -->
<!DOCTYPE svg PUBLIC "-//W3C//DTD SVG 1.1//EN" "http://www.w3.org/Graphics/SVG/1.1/DTD/svg11.dtd">
<svg version="1.1" id="Layer_1" xmlns="http://www.w3.org/2000/svg" xmlns:xlink="http://www.w3.org/1999/xlink" x="0px" y="0px"
	 width="30px" height="30px" viewBox="0 0 30 30" enable-background="new 0 0 30 30" xml:space="preserve">
<circle fill="#FFFFFF" stroke="#F26722" stroke-miterlimit="10" cx="15" cy="15.048" r="14"/>
<g>
	<path fill="#F26621" d="M11.584,10.253c-0.023-0.169-0.042-0.332-0.065-0.494c-0.052-0.39-0.071-0.781-0.045-1.172
		c0.007-0.099,0.038-0.197,0.069-0.291c0.03-0.09,0.104-0.136,0.192-0.153c0.216-0.042,0.433-0.087,0.649-0.116
		c0.326-0.044,0.651-0.082,0.978-0.109c0.619-0.049,1.235-0.104,1.854-0.13c0.836-0.034,1.674-0.046,2.514-0.055
		c0.232-0.002,0.469,0.026,0.701,0.058c0.166,0.023,0.33,0.082,0.4,0.255c0.041,0.1,0.061,0.213,0.072,0.321
		c0.041,0.488,0.078,0.976,0.115,1.463c0.004,0.06,0.021,0.073,0.078,0.071c0.529-0.02,1.059-0.044,1.586-0.048
		c0.244-0.003,0.49,0.029,0.732,0.054c0.088,0.008,0.168,0.043,0.236,0.107c0.09,0.084,0.195,0.155,0.289,0.236
		c0.289,0.246,0.43,0.568,0.463,0.935c0.021,0.253,0.018,0.509,0.021,0.764c0.014,1.121,0.025,2.244,0.035,3.365
		c0.014,1.341,0.023,2.685,0.035,4.027c0.002,0.324,0.02,0.646,0.025,0.969c0.004,0.258-0.025,0.514-0.084,0.764
		c-0.086,0.363-0.355,0.59-0.729,0.619c-1.188,0.1-2.375,0.084-3.566,0.088c-1.61,0.004-3.219-0.004-4.83,0.006
		c-1.106,0.006-2.212,0.041-3.32,0.045c-0.536,0.004-1.072-0.031-1.609-0.057c-0.129-0.008-0.264-0.025-0.387-0.068
		c-0.18-0.064-0.258-0.23-0.317-0.398c-0.142-0.406-0.171-0.83-0.174-1.254c-0.013-2.525-0.024-5.049-0.026-7.577
		c0-0.22,0.061-0.444,0.12-0.66c0.077-0.292,0.192-0.57,0.351-0.827c0.106-0.17,0.218-0.337,0.411-0.417
		c0.094-0.039,0.201-0.058,0.305-0.07c0.311-0.037,0.622-0.07,0.935-0.098c0.308-0.027,0.615-0.048,0.922-0.071
		c0.331-0.024,0.661-0.046,0.991-0.07C11.534,10.261,11.559,10.256,11.584,10.253z M17.062,15.938
		c-0.017,0.045-0.031,0.066-0.033,0.09c-0.01,0.115-0.025,0.23-0.02,0.346c0.004,0.082,0.026,0.17,0.064,0.242
		c0.115,0.229,0.246,0.451,0.371,0.676c0.059,0.102,0.059,0.109-0.027,0.197c-0.012,0.008-0.018,0.016-0.025,0.025
		c-0.047,0.049-0.09,0.047-0.129-0.004c-0.068-0.082-0.135-0.17-0.205-0.248c-0.023-0.029-0.06-0.047-0.089-0.07
		c-0.02,0.037-0.042,0.074-0.062,0.109c-0.002,0.004-0.002,0.006-0.002,0.008c-0.021,0.158-0.047,0.314-0.062,0.473
		c-0.02,0.207-0.133,0.338-0.316,0.41c-0.262,0.107-0.541,0.135-0.82,0.146c-0.451,0.018-0.899-0.002-1.35-0.059
		c-0.257-0.035-0.512-0.082-0.756-0.174c-0.122-0.045-0.198-0.119-0.216-0.25c-0.008-0.064-0.024-0.131-0.03-0.195
		c-0.059-0.623-0.071-1.248-0.056-1.873c0.007-0.197,0.002-0.205-0.2-0.191c-0.182,0.012-0.362,0.033-0.542,0.037
		c-0.813,0.014-1.626,0.02-2.44,0.033c-0.592,0.01-1.185,0.021-1.776,0.033c-0.122,0.002-0.134,0.016-0.14,0.137
		c-0.008,0.205-0.018,0.41-0.02,0.619c-0.01,1.092-0.031,2.184,0.026,3.275c0.019,0.352,0.034,0.709,0.145,1.049
		c0.07,0.215,0.192,0.393,0.414,0.465c0.139,0.045,0.285,0.082,0.429,0.088c0.655,0.031,1.312,0.068,1.968,0.064
		c1.242-0.006,2.482-0.035,3.726-0.055c0.073-0.002,0.097-0.031,0.063-0.1c-0.05-0.102-0.108-0.201-0.16-0.303
		c-0.012-0.025-0.028-0.061-0.02-0.08c0.047-0.09,0.141-0.115,0.23-0.137c0.078-0.018,0.112,0.037,0.143,0.09
		c0.079,0.137,0.165,0.27,0.223,0.412c0.053,0.129,0.137,0.17,0.262,0.162c0.188-0.014,0.375-0.025,0.566-0.041
		c0.133-0.012,0.156-0.045,0.104-0.174c-0.059-0.137-0.128-0.27-0.194-0.4c-0.036-0.074-0.03-0.109,0.04-0.133
		c0.207-0.072,0.272-0.045,0.354,0.123c0.008,0.018,0.02,0.035,0.027,0.055c0.055,0.137,0.117,0.271,0.172,0.41
		c0.035,0.094,0.098,0.154,0.197,0.156c0.127,0.004,0.25,0.004,0.377,0c0.133-0.002,0.141-0.016,0.066-0.131
		c-0.018-0.031-0.037-0.061-0.061-0.09c-0.131-0.162-0.26-0.326-0.396-0.484c-0.083-0.098-0.048-0.178,0.036-0.258
		c0.094-0.09,0.186-0.094,0.262-0.008c0.07,0.078,0.133,0.162,0.191,0.252c0.133,0.211,0.262,0.424,0.389,0.641
		c0.053,0.086,0.133,0.125,0.229,0.121c0.137-0.01,0.271-0.025,0.408-0.039c0.045-0.004,0.062-0.025,0.043-0.07
		c-0.035-0.074-0.064-0.152-0.105-0.225c-0.143-0.246-0.291-0.492-0.432-0.74c-0.016-0.027-0.023-0.078-0.008-0.105
		c0.076-0.141,0.205-0.145,0.295-0.014c0.006,0.008,0.012,0.018,0.014,0.027c0.193,0.357,0.389,0.717,0.582,1.076
		c0.025,0.051,0.061,0.076,0.113,0.074c0.092-0.01,0.18-0.014,0.268-0.035c0.178-0.039,0.184-0.049,0.098-0.215
		c-0.176-0.334-0.4-0.629-0.631-0.928c-0.043-0.053-0.047-0.1-0.014-0.15c0.029-0.049,0.062-0.092,0.105-0.127
		c0.064-0.057,0.105-0.051,0.154,0.018c0.049,0.072,0.098,0.145,0.141,0.223c0.188,0.344,0.377,0.691,0.557,1.039
		c0.061,0.119,0.154,0.166,0.277,0.162c0.127-0.004,0.254-0.016,0.381-0.025c0.072-0.006,0.092-0.027,0.059-0.094
		c-0.068-0.137-0.137-0.277-0.221-0.402c-0.193-0.285-0.396-0.561-0.594-0.842c-0.066-0.092-0.051-0.158,0.045-0.227
		c0.098-0.066,0.141-0.057,0.207,0.043c0.088,0.143,0.174,0.287,0.26,0.434c0.178,0.309,0.354,0.619,0.529,0.932
		c0.049,0.09,0.125,0.121,0.219,0.109c0.109-0.01,0.217-0.031,0.326-0.049c0.043-0.01,0.055-0.035,0.033-0.076
		c-0.037-0.07-0.074-0.145-0.117-0.211c-0.262-0.383-0.527-0.764-0.793-1.146c-0.039-0.057-0.066-0.113-0.049-0.184
		c0.02-0.08,0.066-0.146,0.152-0.174c0.086-0.021,0.113,0.047,0.152,0.096c0.012,0.008,0.02,0.02,0.023,0.031
		c0.156,0.271,0.309,0.541,0.467,0.812c0.137,0.248,0.27,0.498,0.412,0.742c0.084,0.146,0.156,0.15,0.26,0.016
		c0.061-0.074,0.1-0.164,0.154-0.24c0.041-0.057,0.037-0.105,0-0.16c-0.252-0.381-0.5-0.76-0.748-1.141
		c-0.1-0.152-0.199-0.301-0.293-0.457c-0.045-0.07-0.004-0.145,0.086-0.197c0.086-0.049,0.105-0.043,0.166,0.043
		c0.02,0.027,0.035,0.053,0.051,0.08c0.209,0.359,0.41,0.723,0.619,1.082c0.051,0.092,0.109,0.18,0.168,0.268
		c0.029,0.045,0.059,0.043,0.074-0.014c0.01-0.047,0.021-0.098,0.021-0.145c-0.002-0.25-0.008-0.5-0.012-0.75
		c-0.002-0.039-0.016-0.082-0.035-0.117c-0.201-0.324-0.406-0.645-0.607-0.969c-0.096-0.148-0.076-0.342,0.047-0.475
		c0.045-0.049,0.078-0.049,0.119,0.002c0.018,0.021,0.035,0.047,0.051,0.072c0.088,0.176,0.176,0.35,0.264,0.523
		c0.031,0.068,0.066,0.137,0.098,0.203c0.004-0.002,0.01-0.002,0.02-0.006c0-0.025,0.004-0.053,0.002-0.076
		c-0.008-0.219-0.016-0.438-0.029-0.654c-0.006-0.053-0.029-0.113-0.059-0.16c-0.084-0.117-0.182-0.229-0.27-0.344
		c-0.072-0.096-0.051-0.178,0.066-0.27c0.064-0.053,0.088-0.047,0.178,0.057c0.029,0.033,0.055,0.07,0.084,0.109
		c0.016,0.018,0.031,0.033,0.061,0.066c0.012-0.045,0.021-0.072,0.023-0.1c0.02-0.588,0.041-1.174,0.062-1.762
		c0.002-0.123-0.068-0.188-0.195-0.191c-0.086-0.001-0.172-0.001-0.262-0.004c-0.314-0.008-0.627-0.018-0.939-0.026
		c-0.078-0.001-0.1,0.029-0.07,0.1c0.02,0.055,0.053,0.104,0.082,0.154c0.062,0.098,0.061,0.125-0.029,0.199
		c-0.025,0.023-0.055,0.041-0.084,0.057c-0.111,0.059-0.158,0.049-0.213-0.064c-0.053-0.121-0.098-0.248-0.143-0.375
		c-0.014-0.05-0.041-0.08-0.09-0.083c-0.1-0.003-0.197,0-0.299,0c-0.053,0.002-0.066,0.024-0.037,0.071
		c0.082,0.132,0.158,0.269,0.24,0.402C19.988,15.99,19.988,16,19.9,16.07c-0.014,0.01-0.027,0.02-0.045,0.027
		c-0.123,0.08-0.16,0.08-0.238-0.047c-0.111-0.17-0.211-0.342-0.318-0.512c-0.021-0.027-0.057-0.055-0.088-0.059
		c-0.123-0.018-0.246-0.023-0.369-0.035c-0.092-0.007-0.109,0.016-0.066,0.096c0.133,0.229,0.268,0.455,0.402,0.682
		c0.064,0.104,0.066,0.119-0.027,0.199c-0.168,0.143-0.186,0.119-0.271-0.033c-0.164-0.281-0.32-0.566-0.465-0.855
		c-0.059-0.112-0.123-0.157-0.246-0.142c-0.059,0.007-0.121,0.003-0.195,0.005c0.027,0.064,0.041,0.105,0.066,0.146
		c0.166,0.279,0.33,0.559,0.492,0.84c0.018,0.029,0.031,0.078,0.021,0.107c-0.035,0.102-0.227,0.186-0.305,0.064
		c-0.025-0.035-0.055-0.064-0.074-0.1c-0.178-0.338-0.357-0.674-0.529-1.013c-0.027-0.054-0.059-0.091-0.117-0.094
		c-0.115-0.007-0.23-0.012-0.348-0.012c-0.08,0.001-0.092,0.031-0.047,0.103c0.246,0.392,0.492,0.785,0.738,1.181
		c0.012,0.02,0.025,0.059,0.016,0.07c-0.057,0.059-0.111,0.125-0.182,0.162c-0.021,0.01-0.084-0.061-0.129-0.098
		c-0.008-0.008-0.016-0.018-0.023-0.029c-0.117-0.186-0.234-0.371-0.354-0.559C17.158,16.096,17.115,16.025,17.062,15.938z
		 M19.496,14.809c0,0.004,0,0.009,0,0.013c0.646-0.014,1.291-0.027,1.938-0.042c0.139-0.004,0.273-0.017,0.412-0.026
		c0.104-0.009,0.137-0.055,0.121-0.155c-0.008-0.051-0.018-0.101-0.021-0.154c-0.027-0.41-0.049-0.82-0.078-1.231
		c-0.035-0.469-0.074-0.937-0.111-1.405c-0.02-0.272-0.045-0.542-0.145-0.798c-0.078-0.197-0.189-0.365-0.393-0.451
		c-0.146-0.064-0.305-0.073-0.461-0.068c-1.055,0.033-2.111,0.059-3.168,0.101c-1.033,0.041-2.066,0.1-3.104,0.149
		c-0.815,0.041-1.631,0.081-2.449,0.119c-0.795,0.036-1.589,0.063-2.385,0.105C9.431,10.979,9.203,11,8.995,11.068
		c-0.5,0.162-0.753,0.556-0.841,1.048c-0.051,0.286-0.045,0.584-0.04,0.877c0.012,0.644,0.038,1.288,0.061,1.93
		c0.002,0.091,0.024,0.119,0.117,0.125c0.166,0.007,0.333,0.016,0.498,0.013c0.747-0.018,1.494-0.051,2.241-0.058
		c0.725-0.005,1.45,0.011,2.176,0.021c0.076,0,0.115-0.026,0.119-0.103c0.007-0.127,0.022-0.254,0.022-0.382
		c0-0.12,0.056-0.198,0.153-0.256c0.164-0.095,0.347-0.135,0.532-0.145c0.367-0.02,0.734-0.033,1.102-0.041
		c0.539-0.012,1.077-0.017,1.615-0.023c0.162-0.002,0.26,0.06,0.309,0.209c0.033,0.104,0.037,0.22,0.053,0.331
		c0.006,0.058-0.025,0.147,0.004,0.17c0.041,0.034,0.121,0.024,0.184,0.024C18.033,14.81,18.764,14.809,19.496,14.809z
		 M15.656,8.347c0-0.006,0-0.013,0-0.019c-0.682,0.021-1.362,0.039-2.041,0.066c-0.384,0.014-0.767,0.04-1.145,0.125
		c-0.25,0.057-0.374,0.177-0.38,0.419c-0.01,0.379-0.006,0.758-0.01,1.137c-0.002,0.062,0.025,0.074,0.081,0.068
		c0.117-0.013,0.235-0.021,0.351-0.029c0.118-0.008,0.125-0.017,0.111-0.139c-0.02-0.188-0.032-0.377,0.025-0.561
		c0.054-0.187,0.158-0.341,0.361-0.388c0.215-0.05,0.434-0.097,0.656-0.119c0.441-0.041,0.882-0.064,1.325-0.097
		c0.649-0.047,1.296-0.052,1.946-0.021c0.176,0.01,0.352,0.035,0.525,0.059c0.094,0.012,0.164,0.062,0.186,0.16
		c0.021,0.101,0.049,0.2,0.055,0.302c0.008,0.192,0,0.387,0,0.58c0,0.107,0.004,0.116,0.109,0.11
		c0.195-0.01,0.393-0.027,0.584-0.047c0.027-0.002,0.068-0.042,0.072-0.068c0.01-0.089,0.014-0.181,0.008-0.271
		c-0.012-0.176-0.025-0.352-0.043-0.526c-0.014-0.139-0.023-0.279-0.055-0.414c-0.051-0.224-0.193-0.328-0.42-0.328
		C17.189,8.347,16.422,8.347,15.656,8.347z M14.879,16.049c0,0,0,0,0-0.002c0.033,0,0.064,0.002,0.096,0
		c0.394-0.006,0.789-0.016,1.178-0.086c0.114-0.02,0.201-0.066,0.213-0.193c0.01-0.121,0.021-0.244,0.02-0.366
		c-0.006-0.201-0.023-0.398-0.033-0.601c-0.009-0.125-0.027-0.149-0.154-0.164c-0.11-0.012-0.219-0.025-0.329-0.035
		c-0.585-0.055-1.169-0.014-1.749,0.057c-0.095,0.012-0.138,0.06-0.152,0.141c-0.023,0.139-0.054,0.279-0.062,0.419
		c-0.014,0.229-0.018,0.46-0.017,0.691c0,0.115,0.035,0.141,0.147,0.141C14.316,16.049,14.598,16.049,14.879,16.049z M15.14,10.085
		c0-0.007,0-0.014,0-0.021c0.581,0,1.161,0.001,1.743,0c0.059,0,0.117,0.003,0.174-0.013c0.036-0.011,0.08-0.047,0.096-0.083
		c0.018-0.038,0.014-0.091,0.008-0.135c-0.02-0.125-0.041-0.247-0.074-0.367c-0.01-0.036-0.045-0.079-0.078-0.09
		c-0.061-0.021-0.129-0.028-0.195-0.028c-0.35-0.001-0.699-0.006-1.051,0.003c-0.576,0.015-1.154,0.033-1.731,0.06
		c-0.206,0.011-0.412,0.053-0.617,0.084c-0.094,0.014-0.169,0.064-0.192,0.16c-0.022,0.087-0.044,0.177-0.046,0.265
		c-0.002,0.21-0.053,0.223,0.209,0.217C13.971,10.124,14.556,10.103,15.14,10.085z M15.15,17.781c0.203,0,0.404,0.006,0.604,0
		c0.123-0.002,0.245-0.012,0.364-0.027c0.033-0.004,0.074-0.039,0.083-0.068c0.027-0.08,0.052-0.166,0.056-0.248
		c0.018-0.316,0.025-0.631,0.033-0.945c0.004-0.109-0.016-0.137-0.127-0.131c-0.137,0.008-0.277,0.023-0.414,0.049
		c-0.105,0.021-0.129,0.059-0.119,0.172c0.01,0.1,0.023,0.199,0.038,0.299c0.011,0.064-0.017,0.096-0.079,0.107
		c-0.297,0.051-0.59,0.008-0.878-0.061c-0.076-0.02-0.107-0.092-0.085-0.17c0.014-0.049,0.033-0.098,0.055-0.143
		c0.083-0.176,0.063-0.211-0.135-0.213c-0.172-0.004-0.344-0.002-0.514,0c-0.123,0-0.159,0.053-0.133,0.172
		c0.02,0.1,0.049,0.199,0.057,0.303c0.018,0.242,0.027,0.486,0.041,0.732c0.002,0.061,0.031,0.104,0.09,0.117
		c0.105,0.023,0.216,0.049,0.323,0.055C14.657,17.787,14.906,17.781,15.15,17.781z"/>
	<path fill="#FFFFFF" d="M17.062,15.938c0.055,0.088,0.096,0.158,0.139,0.229c0.117,0.186,0.234,0.371,0.354,0.557
		c0.006,0.012,0.014,0.021,0.021,0.029c0.045,0.035,0.109,0.107,0.131,0.096c0.07-0.035,0.123-0.1,0.18-0.16
		c0.01-0.012-0.002-0.053-0.014-0.072c-0.246-0.395-0.492-0.787-0.74-1.18c-0.043-0.071-0.033-0.1,0.049-0.102
		c0.115,0,0.23,0.006,0.348,0.012c0.057,0.003,0.09,0.04,0.115,0.093c0.172,0.338,0.352,0.676,0.531,1.014
		c0.018,0.035,0.049,0.064,0.072,0.1c0.078,0.121,0.27,0.037,0.305-0.064c0.012-0.029-0.004-0.076-0.021-0.107
		c-0.162-0.281-0.326-0.559-0.492-0.84c-0.025-0.039-0.039-0.083-0.066-0.146c0.076-0.003,0.137,0.001,0.197-0.007
		c0.121-0.014,0.189,0.031,0.244,0.143c0.145,0.289,0.303,0.574,0.465,0.855c0.086,0.15,0.104,0.176,0.271,0.033
		c0.096-0.08,0.092-0.096,0.029-0.199c-0.137-0.227-0.271-0.451-0.4-0.682c-0.045-0.082-0.029-0.104,0.064-0.095
		c0.121,0.012,0.244,0.018,0.367,0.033c0.031,0.005,0.07,0.033,0.088,0.06c0.107,0.17,0.207,0.344,0.318,0.51
		c0.078,0.127,0.115,0.131,0.24,0.051c0.018-0.012,0.029-0.02,0.043-0.029c0.09-0.07,0.09-0.08,0.029-0.178
		c-0.082-0.133-0.158-0.27-0.24-0.402c-0.027-0.047-0.014-0.069,0.037-0.07c0.102,0,0.201-0.004,0.301,0
		c0.047,0.002,0.074,0.031,0.09,0.081c0.043,0.125,0.088,0.254,0.141,0.375c0.055,0.113,0.102,0.125,0.213,0.066
		c0.031-0.018,0.061-0.035,0.086-0.057c0.088-0.076,0.09-0.104,0.027-0.201c-0.029-0.051-0.062-0.1-0.082-0.154
		c-0.029-0.072-0.008-0.101,0.07-0.099c0.312,0.008,0.625,0.017,0.939,0.026c0.09,0.001,0.176,0.001,0.264,0.004
		c0.127,0.002,0.195,0.067,0.193,0.19c-0.021,0.588-0.043,1.174-0.062,1.764c-0.002,0.027-0.012,0.053-0.021,0.098
		c-0.031-0.033-0.045-0.051-0.061-0.066c-0.031-0.037-0.057-0.076-0.086-0.109c-0.088-0.104-0.113-0.109-0.178-0.055
		c-0.117,0.092-0.139,0.174-0.066,0.268c0.09,0.117,0.186,0.225,0.27,0.344c0.035,0.047,0.055,0.107,0.059,0.162
		c0.014,0.217,0.023,0.436,0.029,0.652c0.002,0.025-0.002,0.053-0.002,0.076c-0.008,0.004-0.014,0.006-0.02,0.006
		c-0.031-0.066-0.066-0.137-0.096-0.203c-0.09-0.176-0.178-0.348-0.266-0.523c-0.016-0.023-0.031-0.049-0.049-0.07
		c-0.043-0.053-0.076-0.051-0.121-0.004c-0.123,0.133-0.141,0.326-0.047,0.475c0.201,0.324,0.406,0.645,0.607,0.971
		c0.02,0.033,0.035,0.076,0.035,0.115c0.006,0.252,0.01,0.5,0.012,0.75c0,0.049-0.012,0.096-0.021,0.145
		c-0.014,0.057-0.045,0.059-0.072,0.016c-0.059-0.09-0.119-0.176-0.17-0.268c-0.207-0.361-0.41-0.723-0.619-1.084
		c-0.014-0.027-0.031-0.053-0.049-0.08c-0.061-0.086-0.082-0.092-0.168-0.043c-0.09,0.055-0.129,0.129-0.086,0.197
		c0.094,0.154,0.193,0.305,0.293,0.457c0.248,0.379,0.498,0.762,0.748,1.141c0.037,0.055,0.041,0.104,0.002,0.16
		c-0.057,0.078-0.096,0.166-0.154,0.24c-0.104,0.135-0.178,0.131-0.262-0.016c-0.143-0.242-0.275-0.494-0.412-0.74
		c-0.156-0.273-0.311-0.545-0.465-0.814c-0.006-0.012-0.012-0.021-0.023-0.031c-0.041-0.049-0.068-0.119-0.154-0.096
		c-0.086,0.027-0.133,0.092-0.152,0.174c-0.016,0.07,0.01,0.127,0.049,0.184c0.268,0.383,0.531,0.764,0.793,1.146
		c0.045,0.068,0.08,0.139,0.117,0.211c0.023,0.039,0.01,0.066-0.033,0.076c-0.107,0.018-0.217,0.039-0.326,0.049
		c-0.094,0.012-0.17-0.021-0.219-0.111c-0.176-0.311-0.352-0.621-0.529-0.928c-0.084-0.148-0.17-0.293-0.26-0.434
		c-0.066-0.104-0.107-0.109-0.207-0.043c-0.096,0.068-0.109,0.133-0.043,0.227c0.195,0.279,0.4,0.557,0.592,0.84
		c0.084,0.125,0.152,0.268,0.221,0.402c0.033,0.066,0.014,0.088-0.057,0.094c-0.127,0.012-0.254,0.021-0.383,0.025
		c-0.123,0.004-0.215-0.041-0.277-0.162c-0.18-0.348-0.367-0.695-0.557-1.039c-0.041-0.078-0.092-0.15-0.141-0.223
		c-0.049-0.068-0.09-0.074-0.152-0.018c-0.043,0.035-0.078,0.08-0.107,0.125c-0.033,0.055-0.027,0.1,0.016,0.154
		c0.229,0.297,0.453,0.594,0.629,0.926c0.086,0.166,0.08,0.176-0.096,0.215c-0.09,0.021-0.178,0.027-0.27,0.033
		c-0.051,0.004-0.088-0.023-0.113-0.074c-0.193-0.357-0.387-0.715-0.582-1.074c-0.002-0.01-0.008-0.02-0.012-0.027
		c-0.09-0.131-0.219-0.127-0.295,0.014c-0.016,0.027-0.01,0.078,0.006,0.105c0.143,0.248,0.291,0.494,0.432,0.742
		c0.041,0.07,0.07,0.148,0.105,0.225c0.021,0.043,0.002,0.064-0.043,0.07c-0.137,0.012-0.271,0.029-0.408,0.035
		c-0.096,0.006-0.174-0.033-0.229-0.121c-0.127-0.213-0.256-0.426-0.389-0.639c-0.057-0.088-0.121-0.172-0.191-0.252
		c-0.076-0.086-0.168-0.082-0.262,0.008c-0.084,0.078-0.119,0.158-0.034,0.258c0.136,0.158,0.263,0.322,0.394,0.484
		c0.023,0.029,0.043,0.061,0.061,0.09c0.076,0.117,0.068,0.127-0.066,0.131c-0.125,0.006-0.248,0.006-0.375,0
		c-0.102-0.004-0.162-0.061-0.199-0.156c-0.055-0.137-0.115-0.273-0.172-0.412c-0.008-0.016-0.02-0.035-0.027-0.053
		c-0.08-0.166-0.145-0.193-0.354-0.123c-0.07,0.023-0.076,0.061-0.04,0.131c0.066,0.133,0.136,0.266,0.194,0.402
		c0.053,0.131,0.029,0.162-0.104,0.174c-0.189,0.016-0.377,0.027-0.565,0.039c-0.123,0.008-0.208-0.033-0.261-0.158
		c-0.06-0.145-0.146-0.277-0.223-0.412c-0.031-0.053-0.066-0.109-0.145-0.09c-0.089,0.02-0.183,0.045-0.229,0.135
		c-0.01,0.018,0.007,0.055,0.021,0.08c0.051,0.102,0.109,0.201,0.159,0.303c0.032,0.068,0.009,0.096-0.063,0.098
		c-1.243,0.021-2.485,0.053-3.727,0.059c-0.656,0.002-1.311-0.035-1.967-0.064c-0.145-0.008-0.29-0.043-0.43-0.088
		c-0.221-0.076-0.342-0.252-0.413-0.467c-0.111-0.34-0.125-0.695-0.146-1.049c-0.058-1.092-0.036-2.186-0.027-3.277
		c0.002-0.205,0.012-0.412,0.02-0.617c0.006-0.121,0.018-0.135,0.139-0.137c0.592-0.012,1.185-0.023,1.777-0.033
		c0.813-0.012,1.627-0.018,2.439-0.033c0.181-0.002,0.362-0.025,0.542-0.037c0.202-0.014,0.207-0.006,0.202,0.191
		c-0.017,0.627-0.005,1.25,0.054,1.873c0.007,0.064,0.021,0.129,0.03,0.195c0.019,0.129,0.094,0.205,0.216,0.252
		c0.244,0.09,0.5,0.137,0.756,0.17c0.45,0.059,0.9,0.078,1.351,0.059c0.278-0.01,0.559-0.035,0.819-0.143
		c0.184-0.074,0.299-0.203,0.316-0.41c0.016-0.16,0.042-0.316,0.062-0.473c0-0.004,0-0.008,0.002-0.008
		c0.02-0.037,0.042-0.074,0.062-0.109c0.029,0.023,0.066,0.041,0.089,0.068c0.07,0.078,0.139,0.164,0.205,0.25
		c0.039,0.049,0.082,0.051,0.129,0.002c0.008-0.008,0.016-0.018,0.025-0.025c0.086-0.088,0.086-0.094,0.027-0.197
		c-0.125-0.225-0.254-0.447-0.371-0.674c-0.037-0.074-0.059-0.162-0.064-0.244c-0.004-0.115,0.012-0.23,0.02-0.346
		C17.031,16.004,17.046,15.982,17.062,15.938z"/>
	<path fill="#FFFFFF" d="M19.496,14.809c-0.732,0-1.463,0.001-2.199,0c-0.061,0-0.141,0.01-0.182-0.024
		c-0.03-0.023,0-0.112-0.006-0.17c-0.014-0.11-0.018-0.226-0.053-0.331c-0.048-0.15-0.146-0.211-0.307-0.209
		c-0.538,0.007-1.076,0.012-1.615,0.023c-0.367,0.008-0.734,0.022-1.102,0.041c-0.186,0.01-0.369,0.05-0.533,0.145
		c-0.097,0.058-0.153,0.137-0.153,0.256c0,0.128-0.014,0.254-0.021,0.382c-0.005,0.076-0.043,0.103-0.121,0.103
		c-0.724-0.01-1.449-0.026-2.175-0.021c-0.746,0.007-1.493,0.04-2.24,0.058c-0.166,0.003-0.332-0.005-0.499-0.013
		c-0.093-0.005-0.114-0.034-0.117-0.125c-0.022-0.643-0.05-1.287-0.061-1.93c-0.007-0.293-0.011-0.592,0.04-0.877
		c0.086-0.492,0.34-0.886,0.84-1.048C9.203,11,9.431,10.979,9.652,10.967c0.795-0.041,1.589-0.069,2.385-0.105
		c0.818-0.038,1.634-0.078,2.449-0.118c1.037-0.051,2.07-0.108,3.104-0.15c1.057-0.042,2.113-0.067,3.168-0.101
		c0.156-0.005,0.314,0.004,0.461,0.067c0.203,0.086,0.314,0.254,0.393,0.451c0.1,0.256,0.125,0.526,0.145,0.798
		c0.037,0.468,0.076,0.937,0.111,1.406c0.029,0.41,0.051,0.821,0.078,1.23c0.004,0.052,0.014,0.102,0.021,0.153
		c0.016,0.101-0.018,0.146-0.121,0.156c-0.139,0.011-0.273,0.023-0.412,0.026c-0.646,0.015-1.291,0.028-1.938,0.042
		C19.496,14.818,19.496,14.813,19.496,14.809z M21.365,11.745c-0.018-0.185-0.029-0.336-0.049-0.487
		c-0.014-0.1-0.064-0.181-0.164-0.216c-0.062-0.023-0.127-0.043-0.189-0.05c-0.295-0.031-0.582,0.012-0.871,0.05
		c-0.043,0.005-0.084,0.019-0.123,0.036c-0.057,0.024-0.074,0.071-0.051,0.126c0.023,0.049,0.057,0.094,0.07,0.146
		c0.02,0.073,0.068,0.12,0.135,0.141c0.107,0.035,0.215,0.068,0.322,0.085c0.154,0.024,0.309,0.032,0.463,0.05
		c0.078,0.008,0.113,0.04,0.115,0.123c0,0.105-0.004,0.21-0.004,0.315c0,0.073,0,0.147,0.006,0.22
		c0.008,0.071,0.064,0.141,0.121,0.142c0.068,0,0.096-0.049,0.119-0.103c0.008-0.019,0.021-0.04,0.023-0.061
		C21.318,12.08,21.346,11.896,21.365,11.745z M9.109,11.479c0,0.003,0,0.008-0.001,0.011c-0.022,0-0.043,0-0.064,0
		c-0.323-0.013-0.462,0.145-0.517,0.417c-0.032,0.158-0.057,0.319-0.067,0.479c-0.02,0.285,0.02,0.566,0.128,0.832
		c0.013,0.029,0.051,0.066,0.076,0.064c0.026-0.002,0.062-0.04,0.07-0.07c0.024-0.088,0.05-0.179,0.057-0.27
		c0.016-0.232,0.016-0.465,0.033-0.697c0.012-0.16,0.089-0.281,0.25-0.338c0.062-0.024,0.132-0.038,0.191-0.067
		c0.09-0.044,0.179-0.091,0.256-0.152c0.061-0.046,0.048-0.101-0.02-0.14c-0.021-0.012-0.049-0.024-0.074-0.027
		C9.322,11.505,9.216,11.492,9.109,11.479z"/>
	<path fill="#FFFFFF" d="M15.656,8.347c0.764,0,1.533,0,2.301,0c0.227,0,0.369,0.104,0.42,0.328
		c0.031,0.135,0.039,0.275,0.055,0.414c0.018,0.175,0.031,0.35,0.043,0.526c0.006,0.09,0.002,0.181-0.01,0.271
		c-0.002,0.026-0.043,0.065-0.07,0.068c-0.191,0.021-0.389,0.037-0.584,0.047c-0.107,0.005-0.109-0.003-0.109-0.11
		c0-0.193,0.008-0.388,0-0.58c-0.006-0.102-0.035-0.202-0.055-0.302c-0.021-0.099-0.092-0.148-0.188-0.16
		c-0.174-0.023-0.35-0.049-0.525-0.059c-0.648-0.031-1.297-0.026-1.945,0.021c-0.443,0.033-0.885,0.057-1.326,0.097
		c-0.221,0.022-0.439,0.069-0.655,0.119c-0.202,0.046-0.306,0.202-0.361,0.388c-0.055,0.184-0.044,0.374-0.024,0.561
		c0.013,0.123,0.008,0.131-0.111,0.139c-0.117,0.008-0.234,0.016-0.351,0.029c-0.055,0.006-0.082-0.006-0.08-0.068
		c0.003-0.379,0-0.758,0.01-1.137c0.006-0.242,0.13-0.362,0.38-0.419c0.376-0.085,0.761-0.112,1.145-0.125
		c0.679-0.027,1.359-0.045,2.041-0.066C15.656,8.334,15.656,8.341,15.656,8.347z"/>
	<path fill="#FFFFFF" d="M14.879,16.049c-0.281,0-0.562,0-0.844,0c-0.113,0.002-0.148-0.023-0.148-0.141
		c-0.001-0.229,0.002-0.459,0.016-0.689c0.01-0.141,0.039-0.28,0.063-0.419c0.016-0.083,0.059-0.13,0.151-0.142
		c0.582-0.07,1.164-0.112,1.75-0.056c0.109,0.01,0.219,0.022,0.33,0.033c0.125,0.015,0.146,0.039,0.152,0.165
		c0.01,0.202,0.029,0.401,0.033,0.602c0.004,0.122-0.008,0.245-0.018,0.366c-0.012,0.125-0.1,0.172-0.213,0.193
		c-0.391,0.07-0.785,0.078-1.179,0.086c-0.03,0-0.063,0-0.095,0C14.879,16.049,14.879,16.049,14.879,16.049z"/>
	<path fill="#FFFFFF" d="M15.15,17.781c-0.244,0-0.493,0.006-0.74,0c-0.107-0.006-0.217-0.031-0.322-0.055
		c-0.061-0.012-0.089-0.057-0.092-0.117c-0.012-0.246-0.021-0.49-0.039-0.732c-0.01-0.104-0.037-0.203-0.057-0.303
		c-0.027-0.121,0.01-0.172,0.133-0.172c0.17-0.002,0.342-0.004,0.514,0c0.198,0.002,0.217,0.035,0.135,0.213
		c-0.021,0.045-0.041,0.094-0.055,0.143c-0.024,0.078,0.009,0.148,0.085,0.17c0.288,0.068,0.581,0.111,0.878,0.061
		c0.062-0.012,0.09-0.043,0.079-0.107c-0.015-0.1-0.03-0.199-0.04-0.299c-0.01-0.113,0.014-0.15,0.121-0.172
		c0.137-0.025,0.277-0.041,0.414-0.049c0.111-0.006,0.131,0.021,0.127,0.131c-0.01,0.314-0.018,0.629-0.035,0.945
		c-0.004,0.082-0.027,0.168-0.054,0.248c-0.01,0.029-0.052,0.064-0.083,0.068c-0.121,0.016-0.242,0.025-0.364,0.027
		C15.555,17.787,15.354,17.781,15.15,17.781z"/>
	<path fill="#F26621" d="M21.365,11.745c-0.02,0.151-0.047,0.334-0.076,0.517c-0.004,0.021-0.016,0.042-0.023,0.061
		c-0.023,0.054-0.053,0.103-0.119,0.103c-0.057-0.001-0.113-0.07-0.121-0.142c-0.006-0.073-0.006-0.147-0.006-0.22
		c0-0.104,0.004-0.209,0.004-0.315c-0.004-0.083-0.037-0.114-0.117-0.123c-0.152-0.018-0.309-0.026-0.461-0.05
		c-0.107-0.017-0.215-0.05-0.322-0.085c-0.066-0.021-0.115-0.068-0.135-0.141c-0.016-0.051-0.047-0.096-0.07-0.146
		c-0.023-0.056-0.006-0.103,0.051-0.126c0.037-0.017,0.08-0.031,0.123-0.036c0.287-0.038,0.576-0.081,0.869-0.05
		c0.062,0.007,0.129,0.027,0.191,0.05c0.098,0.036,0.148,0.116,0.162,0.216C21.336,11.409,21.348,11.56,21.365,11.745z"/>
	<path fill="#F26621" d="M9.109,11.479c0.107,0.013,0.213,0.026,0.319,0.042c0.025,0.003,0.053,0.015,0.074,0.027
		c0.068,0.04,0.082,0.094,0.02,0.14c-0.077,0.061-0.166,0.108-0.256,0.152c-0.06,0.029-0.129,0.043-0.191,0.066
		c-0.161,0.057-0.238,0.178-0.25,0.338c-0.016,0.232-0.016,0.465-0.033,0.696c-0.007,0.091-0.033,0.183-0.057,0.271
		c-0.009,0.029-0.044,0.068-0.07,0.069c-0.025,0.001-0.063-0.036-0.076-0.065C8.479,12.95,8.44,12.67,8.46,12.385
		c0.01-0.16,0.035-0.321,0.067-0.479c0.055-0.271,0.193-0.43,0.515-0.417c0.022,0.001,0.044,0,0.066,0
		C9.109,11.487,9.109,11.482,9.109,11.479z"/>
</g>
</svg>
