<?xml version="1.0" encoding="utf-8"?>
<!-- Generator: Adobe Illustrator 16.0.0, SVG Export Plug-In . SVG Version: 6.00 Build 0)  -->
<!DOCTYPE svg PUBLIC "-//W3C//DTD SVG 1.1//EN" "http://www.w3.org/Graphics/SVG/1.1/DTD/svg11.dtd">
<svg version="1.1" id="Layer_1" xmlns="http://www.w3.org/2000/svg" xmlns:xlink="http://www.w3.org/1999/xlink" x="0px" y="0px"
	 width="30px" height="30px" viewBox="0 0 30 30" enable-background="new 0 0 30 30" xml:space="preserve">
<circle fill="#FFFFFF" stroke="#C9E3D8" stroke-miterlimit="10" cx="15.082" cy="15" r="14"/>
<path fill="#C9E3D8" d="M18.029,20.427c-0.086,0.015-0.156,0.022-0.228,0.035c-0.264,0.049-0.524,0.099-0.79,0.149
	c-0.248,0.048-0.496,0.098-0.744,0.148c-0.262,0.055-0.523,0.112-0.787,0.17c-0.256,0.06-0.513,0.117-0.771,0.18
	c-0.264,0.065-0.528,0.137-0.792,0.203c-0.363,0.095-0.725,0.188-1.089,0.275c-0.098,0.023-0.2,0.03-0.301,0.035
	c-0.146,0.008-0.266-0.049-0.335-0.184c-0.127-0.248-0.262-0.489-0.375-0.741c-0.22-0.495-0.43-0.992-0.634-1.491
	c-0.187-0.455-0.356-0.916-0.537-1.372c-0.182-0.454-0.362-0.908-0.554-1.356c-0.161-0.381-0.346-0.752-0.506-1.136
	c-0.196-0.462-0.378-0.93-0.562-1.397c-0.164-0.415-0.326-0.83-0.478-1.249c-0.108-0.297-0.203-0.603-0.295-0.906
	c-0.019-0.062-0.014-0.135-0.006-0.201c0.043-0.342,0.119-0.674,0.223-1.002c0.077-0.24,0.133-0.487,0.202-0.73
	C8.705,9.75,8.736,9.64,8.817,9.55c0.03-0.033,0.035-0.09,0.044-0.138c0.02-0.111,0.031-0.224,0.051-0.334
	c0.016-0.082,0.075-0.131,0.155-0.144c0.193-0.032,0.388-0.06,0.581-0.085c0.282-0.034,0.566-0.062,0.849-0.096
	c0.24-0.03,0.479-0.06,0.719-0.097c0.218-0.034,0.435-0.08,0.653-0.117c0.253-0.043,0.506-0.085,0.761-0.124
	c0.196-0.03,0.393-0.056,0.589-0.084c0.224-0.032,0.446-0.074,0.671-0.094c0.246-0.022,0.467-0.103,0.677-0.231
	c0.333-0.206,0.69-0.219,1.056-0.11c0.145,0.042,0.281,0.014,0.421-0.002c0.304-0.034,0.606-0.072,0.909-0.099
	c0.279-0.025,0.562-0.04,0.844-0.054c0.067-0.003,0.135,0.014,0.2,0.029c0.067,0.016,0.108,0.073,0.11,0.146
	c0,0.058-0.002,0.118-0.012,0.175c-0.029,0.181,0,0.347,0.075,0.518c0.302,0.688,0.595,1.381,0.896,2.071
	c0.334,0.779,0.678,1.557,1.017,2.334c0.267,0.606,0.533,1.211,0.798,1.819c0.23,0.535,0.461,1.071,0.688,1.608
	c0.125,0.295,0.244,0.592,0.3,0.91c0.022,0.142,0.062,0.281,0.019,0.428c-0.021,0.074-0.052,0.133-0.123,0.158
	c-0.15,0.058-0.305,0.109-0.459,0.162c-0.26,0.086-0.521,0.174-0.783,0.252c-0.24,0.075-0.484,0.14-0.728,0.211
	c-0.021,0.006-0.051,0.025-0.054,0.043c-0.047,0.33-0.09,0.658-0.135,0.987c-0.01,0.07,0.016,0.093,0.084,0.099
	c0.543,0.043,1.088,0.068,1.631-0.008c0.119-0.017,0.242-0.033,0.361,0.019c0.121,0.054,0.195,0.153,0.225,0.28
	c0.025,0.105-0.045,0.223-0.158,0.287c-0.143,0.082-0.3,0.114-0.458,0.137c-0.374,0.051-0.747,0.039-1.121-0.018
	c-0.146-0.021-0.293-0.022-0.438-0.035c-0.06-0.004-0.072,0.018-0.062,0.076c0.027,0.146,0.041,0.295-0.008,0.441
	c-0.027,0.085-0.088,0.129-0.178,0.132c-0.354,0.015-0.709,0.024-1.063,0.038c-0.155,0.006-0.288-0.047-0.399-0.152
	c-0.076-0.074-0.106-0.158-0.059-0.264C17.988,20.566,18.002,20.505,18.029,20.427z M18.505,17.672c0.001,0,0.003,0,0.005,0
	c-0.006-0.087-0.017-0.176-0.016-0.264c0.003-0.146-0.038-0.281-0.098-0.411c-0.176-0.39-0.352-0.774-0.528-1.163
	c-0.418-0.905-0.847-1.807-1.257-2.716c-0.264-0.584-0.504-1.18-0.75-1.772c-0.236-0.563-0.465-1.129-0.707-1.689
	c-0.108-0.25-0.243-0.487-0.405-0.709c-0.119-0.162-0.269-0.211-0.461-0.174c-0.353,0.066-0.705,0.133-1.06,0.188
	c-0.431,0.066-0.863,0.123-1.294,0.183c-0.405,0.055-0.81,0.112-1.214,0.171c-0.357,0.051-0.714,0.106-1.072,0.159
	c-0.086,0.014-0.101,0.031-0.067,0.11C9.665,9.774,9.755,9.96,9.838,10.15c0.174,0.396,0.347,0.792,0.516,1.189
	c0.235,0.55,0.468,1.099,0.695,1.65c0.197,0.479,0.391,0.959,0.58,1.441c0.163,0.418,0.318,0.838,0.472,1.257
	c0.18,0.496,0.354,0.994,0.531,1.49c0.171,0.483,0.339,0.969,0.514,1.452c0.087,0.237,0.056,0.248,0.371,0.226
	c0.01-0.002,0.018-0.002,0.026-0.006c0.235-0.068,0.47-0.141,0.706-0.209c0.115-0.035,0.182-0.108,0.207-0.227
	c0.035-0.165,0.076-0.33,0.104-0.496c0.018-0.1,0.059-0.171,0.165-0.188c0.062-0.01,0.125-0.01,0.188-0.015
	c0.051-0.003,0.072,0.022,0.061,0.071c-0.022,0.091-0.046,0.184-0.074,0.273c-0.037,0.121-0.081,0.238-0.117,0.359
	c-0.038,0.135-0.002,0.182,0.136,0.165c0.117-0.013,0.229-0.052,0.344-0.069c0.113-0.018,0.152-0.088,0.173-0.188
	c0.05-0.229,0.101-0.458,0.158-0.686c0.021-0.082,0.051-0.164,0.086-0.242c0.031-0.066,0.104-0.086,0.188-0.062
	c0.068,0.02,0.111,0.073,0.104,0.145c-0.009,0.082-0.022,0.166-0.039,0.248c-0.039,0.193-0.082,0.389-0.117,0.584
	c-0.022,0.127,0.024,0.162,0.148,0.123c0.07-0.022,0.143-0.039,0.212-0.064c0.027-0.012,0.06-0.037,0.068-0.062
	c0.021-0.062,0.028-0.127,0.043-0.19c0.039-0.168,0.077-0.339,0.123-0.506c0.036-0.136,0.073-0.271,0.126-0.398
	c0.046-0.114,0.171-0.151,0.281-0.101c0.045,0.019,0.066,0.047,0.053,0.095c-0.032,0.121-0.064,0.244-0.098,0.365
	c-0.056,0.212-0.11,0.423-0.164,0.636c-0.018,0.074,0.02,0.123,0.097,0.133c0.11,0.016,0.217-0.018,0.323-0.046
	c0.084-0.022,0.136-0.069,0.156-0.151c0.021-0.086,0.045-0.174,0.062-0.263c0.039-0.247,0.073-0.495,0.112-0.743
	c0.024-0.16,0.132-0.248,0.276-0.236c0.075,0.007,0.099,0.035,0.077,0.105c-0.018,0.064-0.044,0.129-0.061,0.194
	c-0.043,0.187-0.082,0.374-0.123,0.562c-0.028,0.127-0.062,0.254-0.088,0.381c-0.022,0.115,0.006,0.149,0.121,0.139
	c0.078-0.01,0.154-0.037,0.231-0.047c0.103-0.014,0.146-0.076,0.156-0.168c0.028-0.258,0.056-0.516,0.079-0.774
	c0.01-0.085,0.043-0.13,0.129-0.146c0.027-0.006,0.056-0.006,0.082-0.006c0.09,0.002,0.113,0.025,0.107,0.115
	c-0.007,0.073-0.017,0.147-0.031,0.221c-0.037,0.18-0.078,0.357-0.114,0.535c-0.017,0.08,0.015,0.141,0.077,0.16
	c0.043,0.014,0.086,0.018,0.129,0.02c0.057,0.004,0.097-0.021,0.098-0.084C18.505,17.965,18.505,17.818,18.505,17.672z
	 M12.206,19.95c0.006-0.001,0.013-0.002,0.021-0.005c0-0.043-0.003-0.088,0-0.131c0.012-0.215,0.063-0.412,0.256-0.541
	c0.059-0.041,0.121-0.078,0.183-0.115c0.133-0.079,0.184-0.189,0.132-0.338c-0.068-0.193-0.153-0.383-0.225-0.577
	c-0.291-0.783-0.583-1.563-0.864-2.351c-0.205-0.575-0.385-1.159-0.593-1.732c-0.181-0.501-0.376-0.999-0.584-1.49
	c-0.34-0.805-0.697-1.602-1.048-2.402C9.445,10.183,9.407,10.098,9.362,10c-0.02,0.032-0.034,0.049-0.042,0.068
	c-0.035,0.09-0.075,0.179-0.104,0.271c-0.09,0.29-0.18,0.581-0.264,0.873C8.9,11.39,8.878,11.568,8.909,11.755
	C8.95,12,9.028,12.231,9.121,12.459c0.114,0.281,0.242,0.557,0.364,0.835c0.294,0.672,0.593,1.343,0.882,2.017
	c0.226,0.528,0.446,1.058,0.662,1.591c0.2,0.496,0.392,0.996,0.585,1.496c0.144,0.371,0.283,0.746,0.425,1.117
	C12.094,19.661,12.149,19.807,12.206,19.95z M17.118,8.41c0-0.002-0.001-0.005-0.001-0.007c-0.249,0.022-0.499,0.044-0.749,0.067
	c-0.058,0.006-0.082,0.038-0.068,0.093c0.011,0.04,0.021,0.08,0.038,0.115c0.102,0.23,0.209,0.46,0.311,0.69
	c0.295,0.661,0.591,1.32,0.875,1.985c0.26,0.597,0.502,1.2,0.754,1.8c0.224,0.524,0.447,1.047,0.68,1.568
	c0.062,0.144,0.152,0.276,0.238,0.407c0.061,0.09,0.096,0.082,0.137-0.019c0.043-0.102,0.081-0.207,0.109-0.312
	c0.07-0.249,0.134-0.501,0.207-0.75c0.051-0.172,0.091-0.337-0.035-0.494c-0.006-0.007-0.004-0.019-0.01-0.025
	c-0.052-0.087-0.098-0.178-0.153-0.261c-0.034-0.049-0.062-0.043-0.091,0.009c-0.008,0.014-0.019,0.027-0.022,0.042
	c-0.071,0.201-0.146,0.402-0.219,0.603c-0.036,0.099-0.07,0.2-0.111,0.297c-0.03,0.071-0.084,0.077-0.139,0.023
	c-0.062-0.059-0.082-0.129-0.065-0.21c0.027-0.139,0.047-0.282,0.09-0.417c0.082-0.271,0.178-0.538,0.271-0.806
	c0.022-0.07,0.054-0.133,0.019-0.214c-0.123-0.277-0.242-0.557-0.361-0.837c-0.238-0.568-0.478-1.137-0.719-1.705
	c-0.222-0.52-0.447-1.038-0.668-1.559c-0.023-0.056-0.053-0.088-0.117-0.084C17.25,8.414,17.184,8.41,17.118,8.41z M12.825,20.492
	c0,0.056-0.004,0.113,0,0.169c0.016,0.164,0.095,0.228,0.259,0.212c0.041-0.004,0.082-0.006,0.12-0.018
	c0.4-0.105,0.8-0.217,1.202-0.321c0.286-0.074,0.573-0.142,0.861-0.207c0.275-0.062,0.549-0.118,0.827-0.175
	c0.266-0.053,0.531-0.106,0.799-0.15c0.373-0.061,0.748-0.12,1.131-0.113c0.086,0,0.16-0.037,0.199-0.117
	c0.043-0.092,0.094-0.183,0.119-0.278c0.042-0.158,0.074-0.321,0.096-0.482c0.014-0.112-0.03-0.146-0.145-0.146
	c-0.074,0-0.15,0.005-0.223,0.011c-0.424,0.038-0.846,0.075-1.27,0.118c-0.229,0.021-0.458,0.052-0.686,0.082
	c-0.297,0.038-0.592,0.076-0.885,0.117c-0.299,0.041-0.596,0.092-0.893,0.125c-0.351,0.041-0.694,0.111-1.031,0.222
	c-0.162,0.054-0.288,0.151-0.359,0.315C12.862,20.059,12.826,20.271,12.825,20.492z M19.959,17.57c0.009,0,0.02,0,0.027,0.002
	c0.009-0.021,0.021-0.043,0.025-0.064c0.016-0.074,0.021-0.152,0.043-0.226c0.055-0.185,0.111-0.367,0.176-0.548
	c0.093-0.25,0.172-0.506,0.313-0.737c0.022-0.038,0.035-0.09,0.035-0.134c0.003-0.211-0.093-0.383-0.214-0.544
	c-0.045-0.059-0.086-0.046-0.108,0.029c-0.026,0.09-0.043,0.185-0.077,0.272c-0.084,0.221-0.176,0.438-0.267,0.657
	c-0.062,0.147-0.095,0.291-0.013,0.447c0.086,0.159,0.104,0.332,0.062,0.512c-0.019,0.078-0.022,0.16-0.026,0.242
	C19.934,17.509,19.95,17.54,19.959,17.57z M19.667,16.182c0.01,0.002,0.019,0.004,0.026,0.006c0.023-0.061,0.053-0.121,0.072-0.183
	c0.127-0.358,0.248-0.719,0.375-1.077c0.027-0.077,0.045-0.149,0.012-0.228c-0.041-0.103-0.071-0.208-0.116-0.31
	c-0.021-0.045-0.06-0.082-0.091-0.123c-0.031,0.047-0.067,0.093-0.094,0.143c-0.014,0.027-0.012,0.062-0.02,0.092
	c-0.007,0.038-0.014,0.077-0.025,0.112c-0.099,0.232-0.195,0.464-0.3,0.694c-0.067,0.151-0.112,0.297-0.03,0.459
	c0.051,0.104,0.098,0.211,0.146,0.318C19.637,16.117,19.652,16.15,19.667,16.182z M20.373,17.65c0.116-0.022,0.234-0.039,0.35-0.068
	c0.127-0.033,0.144-0.055,0.135-0.184c-0.008-0.082,0.015-0.146,0.065-0.205c0.021-0.021,0.034-0.047,0.054-0.07
	c0.043-0.059,0.065-0.123,0.043-0.196c-0.019-0.067-0.028-0.138-0.06-0.2c-0.049-0.103-0.106-0.201-0.166-0.3
	c-0.026-0.045-0.071-0.046-0.104-0.003c-0.039,0.049-0.082,0.1-0.107,0.154c-0.122,0.279-0.242,0.562-0.357,0.844
	C20.15,17.602,20.182,17.643,20.373,17.65z"/>
<path fill="#C9E3D8" d="M20.266,19.061c-0.06-0.018-0.147-0.033-0.229-0.069c-0.091-0.04-0.106-0.12-0.062-0.21
	c0.049-0.106,0.137-0.156,0.252-0.16c0.233-0.01,0.467-0.008,0.695-0.034c0.209-0.022,0.412-0.081,0.619-0.118
	c0.078-0.014,0.161-0.029,0.236-0.016c0.101,0.02,0.127,0.126,0.045,0.188c-0.078,0.059-0.168,0.105-0.262,0.133
	c-0.311,0.086-0.621,0.164-0.937,0.238C20.52,19.037,20.406,19.042,20.266,19.061z"/>
<path fill="#C9E3D8" d="M20.305,19.621c-0.027-0.001-0.059,0.005-0.08-0.006c-0.027-0.012-0.065-0.034-0.072-0.061
	c-0.027-0.109,0.021-0.24,0.168-0.262c0.221-0.029,0.436-0.08,0.65-0.124c0.188-0.038,0.375-0.078,0.563-0.116
	c0.021-0.004,0.039-0.004,0.062-0.004c0.051-0.001,0.103-0.002,0.122,0.059c0.019,0.049-0.021,0.132-0.075,0.152
	c-0.125,0.051-0.25,0.102-0.379,0.139c-0.229,0.065-0.461,0.123-0.693,0.181c-0.086,0.021-0.176,0.032-0.266,0.048
	C20.305,19.624,20.305,19.623,20.305,19.621z"/>
<path fill="#C9E3D8" d="M12.825,20.492c0-0.221,0.037-0.434,0.124-0.639c0.071-0.164,0.197-0.263,0.359-0.315
	c0.336-0.108,0.68-0.181,1.031-0.222c0.297-0.033,0.594-0.084,0.893-0.125c0.293-0.041,0.588-0.08,0.885-0.117
	c0.229-0.03,0.456-0.061,0.686-0.082c0.424-0.043,0.846-0.08,1.27-0.118c0.072-0.006,0.148-0.011,0.223-0.011
	c0.113-0.002,0.157,0.033,0.145,0.146c-0.021,0.161-0.054,0.324-0.096,0.482c-0.025,0.097-0.076,0.188-0.119,0.278
	c-0.039,0.08-0.113,0.116-0.199,0.116c-0.383-0.006-0.758,0.054-1.131,0.114c-0.268,0.044-0.533,0.1-0.799,0.15
	c-0.275,0.057-0.552,0.113-0.827,0.175c-0.288,0.065-0.575,0.133-0.861,0.207c-0.402,0.104-0.802,0.216-1.202,0.321
	c-0.039,0.012-0.08,0.014-0.12,0.018c-0.164,0.016-0.243-0.048-0.259-0.212C12.821,20.605,12.825,20.548,12.825,20.492z
	 M13.073,20.126c0.002,0.015,0.003,0.043,0.008,0.069c0.015,0.087,0.042,0.107,0.129,0.098c0.055-0.007,0.112-0.018,0.166-0.031
	c0.376-0.107,0.752-0.207,1.123-0.326c0.454-0.145,0.921-0.194,1.388-0.262c0.242-0.033,0.484-0.064,0.725-0.099
	c0.205-0.029,0.408-0.066,0.611-0.089c0.313-0.034,0.629-0.057,0.944-0.086c0.019-0.002,0.042-0.01,0.051-0.022
	c0.084-0.114,0.023-0.26-0.112-0.282c-0.047-0.007-0.092-0.013-0.137-0.01c-0.197,0.01-0.396,0.018-0.596,0.036
	c-0.294,0.024-0.59,0.058-0.883,0.088c-0.327,0.036-0.656,0.069-0.982,0.119c-0.324,0.051-0.646,0.106-0.963,0.181
	c-0.426,0.1-0.848,0.217-1.269,0.33C13.128,19.88,13.075,19.961,13.073,20.126z"/>
<path fill="#C9E3D8" d="M11.375,9.721c0.061,0.011,0.14,0.018,0.214,0.044c0.14,0.047,0.16,0.175,0.048,0.276
	c-0.071,0.065-0.166,0.062-0.253,0.082c-0.107,0.025-0.216,0.045-0.319,0.082c-0.049,0.018-0.093,0.063-0.13,0.104
	c-0.069,0.075-0.037,0.159-0.004,0.235c0.153,0.354,0.309,0.705,0.463,1.058c0.013,0.029,0.025,0.058,0.034,0.088
	c0.017,0.049,0.002,0.09-0.038,0.121c-0.097,0.069-0.283,0.097-0.359-0.07c-0.065-0.147-0.121-0.3-0.181-0.45
	c-0.089-0.222-0.186-0.441-0.265-0.666c-0.047-0.137-0.07-0.283-0.097-0.426c-0.005-0.031,0.013-0.081,0.037-0.102
	C10.769,9.893,11.033,9.741,11.375,9.721z"/>
</svg>
