<?xml version="1.0" encoding="utf-8"?>
<!-- Generator: Adobe Illustrator 16.0.0, SVG Export Plug-In . SVG Version: 6.00 Build 0)  -->
<!DOCTYPE svg PUBLIC "-//W3C//DTD SVG 1.1//EN" "http://www.w3.org/Graphics/SVG/1.1/DTD/svg11.dtd">
<svg version="1.1" id="Layer_1" xmlns="http://www.w3.org/2000/svg" xmlns:xlink="http://www.w3.org/1999/xlink" x="0px" y="0px"
	 width="30px" height="30px" viewBox="0 0 30 30" enable-background="new 0 0 30 30" xml:space="preserve">
<circle fill="#ED1C24" stroke="#A7A9AB" stroke-width="0.5" stroke-miterlimit="10" cx="15" cy="15" r="14"/>
<g>
	<polygon fill="#FFCB05" points="6.825,9.486 7.8,12.566 11.031,12.542 8.402,14.42 9.424,17.484 6.825,15.566 4.226,17.484 
		5.249,14.42 2.62,12.542 5.85,12.566 	"/>
	<polygon fill="#FFCB05" points="10.847,4.943 11.255,6.232 12.608,6.222 11.507,7.009 11.935,8.292 10.847,7.489 9.759,8.292 
		10.187,7.009 9.086,6.222 10.439,6.232 	"/>
	<polygon fill="#FFCB05" points="13.996,8.932 14.405,10.222 15.757,10.211 14.656,10.998 15.084,12.281 13.996,11.478 
		12.908,12.281 13.336,10.998 12.235,10.211 13.588,10.222 	"/>
	<polygon fill="#FFCB05" points="14.133,14.121 14.541,15.411 15.894,15.4 14.793,16.187 15.221,17.47 14.133,16.667 13.044,17.47 
		13.473,16.187 12.372,15.4 13.725,15.411 	"/>
	<polygon fill="#FFCB05" points="11.267,18.467 11.675,19.756 13.027,19.746 11.927,20.532 12.354,21.815 11.267,21.012 
		10.179,21.815 10.606,20.532 9.506,19.746 10.858,19.756 	"/>
</g>
</svg>
