<?xml version="1.0" encoding="utf-8"?>
<!-- Generator: Adobe Illustrator 16.0.0, SVG Export Plug-In . SVG Version: 6.00 Build 0)  -->
<!DOCTYPE svg PUBLIC "-//W3C//DTD SVG 1.1//EN" "http://www.w3.org/Graphics/SVG/1.1/DTD/svg11.dtd">
<svg version="1.1" id="Layer_1" xmlns="http://www.w3.org/2000/svg" xmlns:xlink="http://www.w3.org/1999/xlink" x="0px" y="0px"
	 width="30px" height="30px" viewBox="0 0 30 30" enable-background="new 0 0 30 30" xml:space="preserve">
<circle fill="#FFFFFF" stroke="#A7A9AB" stroke-width="0.5" stroke-miterlimit="10" cx="15" cy="15" r="14"/>
<path fill="#ED1C24" d="M2.338,20.324h25.387c0.283-0.681,0.514-1.393,0.686-2.125H1.651C1.824,18.932,2.054,19.644,2.338,20.324z
	 M15.031,28.812c2.691,0,5.203-0.776,7.323-2.12H7.708C9.829,28.036,12.339,28.812,15.031,28.812z M28.74,13.953H1.321
	c-0.025,0.35-0.04,0.702-0.04,1.058c0,0.359,0.014,0.713,0.041,1.066H28.74c0.027-0.353,0.041-0.708,0.041-1.066
	C28.781,14.655,28.768,14.303,28.74,13.953z M5.115,24.571h19.833c0.622-0.649,1.183-1.363,1.67-2.125H3.446
	C3.933,23.208,4.492,23.922,5.115,24.571z M27.729,9.707H2.334c-0.283,0.683-0.513,1.391-0.686,2.123h26.765
	C28.242,11.098,28.012,10.389,27.729,9.707z M24.956,5.46H5.106C4.485,6.111,3.926,6.821,3.44,7.583h23.184
	C26.137,6.821,25.578,6.111,24.956,5.46z M15.031,1.209c-2.698,0-5.213,0.78-7.336,2.127h14.673
	C20.245,1.989,17.729,1.209,15.031,1.209z"/>
<path fill="#0072BC" d="M15,1.209c-7.594,0-13.75,6.176-13.75,13.796c0,0.36,0.014,0.718,0.041,1.072H15V1.209z"/>
<path fill="#FFFFFF" d="M5.073,11.449L4.82,10.938l-0.253,0.511l-0.564,0.082l0.409,0.398l-0.097,0.562l0.505-0.265l0.504,0.265
	l-0.096-0.562l0.409-0.398L5.073,11.449z M12.879,10.05l-0.252-0.512l-0.253,0.512l-0.564,0.082l0.409,0.398l-0.096,0.562
	l0.505-0.265l0.504,0.265l-0.096-0.562l0.409-0.398L12.879,10.05z M7.308,11.449l-0.252-0.511l-0.253,0.511l-0.564,0.082
	l0.408,0.398l-0.096,0.562l0.505-0.265l0.505,0.265l-0.097-0.562l0.409-0.398L7.308,11.449z M4.82,8.14L4.567,8.651L4.003,8.733
	l0.409,0.398L4.315,9.693L4.82,9.428l0.504,0.266L5.229,9.131l0.409-0.398L5.073,8.651L4.82,8.14z M9.544,11.449l-0.253-0.511
	L9.04,11.449l-0.565,0.082l0.409,0.398l-0.097,0.562l0.505-0.265l0.504,0.265L9.7,11.929l0.408-0.398L9.544,11.449z M11.78,11.449
	l-0.253-0.511l-0.252,0.511l-0.564,0.082l0.409,0.398l-0.096,0.562l0.504-0.265l0.505,0.265l-0.097-0.562l0.409-0.398L11.78,11.449z
	 M10.896,11.092l-0.096-0.562l0.408-0.398l-0.564-0.082L10.39,9.538l-0.252,0.512l-0.565,0.082l0.409,0.398l-0.097,0.562
	l0.504-0.265L10.896,11.092z M11.78,8.651L11.527,8.14l-0.252,0.512L10.71,8.733l0.409,0.398l-0.096,0.562l0.504-0.266l0.505,0.266
	l-0.097-0.562l0.409-0.398L11.78,8.651z M6.423,11.092L6.327,10.53l0.409-0.398L6.171,10.05L5.919,9.538L5.666,10.05l-0.564,0.082
	L5.51,10.53l-0.096,0.562l0.505-0.265L6.423,11.092z M9.544,8.651L9.292,8.14L9.04,8.651L8.475,8.733l0.409,0.398L8.786,9.693
	l0.505-0.266l0.504,0.266L9.7,9.131l0.408-0.398L9.544,8.651z M8.66,11.092L8.563,10.53l0.408-0.398L8.407,10.05L8.155,9.538
	L7.902,10.05l-0.564,0.082l0.408,0.398l-0.097,0.562l0.505-0.265L8.66,11.092z M6.423,5.496L6.327,4.934l0.409-0.398L6.171,4.454
	L6.163,4.437C5.934,4.63,5.71,4.828,5.493,5.035L5.414,5.496l0.505-0.265L6.423,5.496z M12.879,7.252L12.627,6.74l-0.253,0.512
	l-0.564,0.082l0.409,0.398l-0.096,0.562l0.505-0.266l0.504,0.266l-0.096-0.562l0.409-0.398L12.879,7.252z M7.308,14.247
	l-0.252-0.511l-0.253,0.511L6.239,14.33l0.408,0.398L6.551,15.29l0.505-0.265l0.505,0.265l-0.097-0.562l0.409-0.398L7.308,14.247z
	 M11.78,14.247l-0.253-0.511l-0.252,0.511L10.71,14.33l0.409,0.398l-0.096,0.562l0.504-0.265l0.505,0.265l-0.097-0.562l0.409-0.398
	L11.78,14.247z M14.016,14.247l-0.252-0.511l-0.253,0.511l-0.564,0.083l0.408,0.398l-0.097,0.562l0.506-0.265l0.505,0.265
	l-0.097-0.562l0.408-0.398L14.016,14.247z M11.78,5.853l-0.253-0.511l-0.252,0.511L10.71,5.935l0.409,0.398l-0.096,0.562
	l0.504-0.265l0.505,0.265l-0.097-0.562l0.409-0.398L11.78,5.853z M9.544,14.247l-0.253-0.511L9.04,14.247L8.475,14.33l0.409,0.398
	L8.786,15.29l0.505-0.265l0.504,0.265L9.7,14.728l0.408-0.398L9.544,14.247z M4.188,8.294L4.092,7.732L4.5,7.334L3.936,7.252
	L3.8,6.98C3.614,7.24,3.435,7.508,3.266,7.782L3.178,8.294l0.504-0.266L4.188,8.294z M4.82,6.63l0.504,0.265L5.229,6.333
	l0.409-0.398L5.073,5.853L4.943,5.59C4.737,5.811,4.538,6.037,4.346,6.27l0.065,0.063L4.315,6.895L4.82,6.63z M2.079,12.491
	l0.505-0.265l0.505,0.265l-0.097-0.562L3.4,11.531l-0.564-0.082l-0.252-0.511l-0.252,0.511l-0.565,0.082l0.409,0.398L2.079,12.491z
	 M4.092,13.329L4.5,12.93l-0.564-0.082l-0.253-0.511l-0.252,0.511L2.865,12.93l0.41,0.399L3.178,13.89l0.504-0.265l0.505,0.265
	L4.092,13.329z M5.073,14.247L4.82,13.736l-0.253,0.511L4.003,14.33l0.409,0.398L4.315,15.29l0.505-0.265l0.504,0.265l-0.096-0.562
	l0.409-0.398L5.073,14.247z M9.544,5.853L9.292,5.341L9.04,5.853L8.475,5.935l0.409,0.398L8.786,6.895L9.292,6.63l0.504,0.265
	L9.7,6.333l0.408-0.398L9.544,5.853z M7.746,4.934L7.649,5.496l0.505-0.265L8.66,5.496L8.563,4.934l0.408-0.398L8.407,4.454
	L8.155,3.942L7.902,4.454L7.338,4.536L7.746,4.934z M9.982,4.934L9.886,5.496l0.504-0.265l0.505,0.265l-0.096-0.562l0.408-0.398
	l-0.564-0.082L10.39,3.942l-0.252,0.511L9.573,4.536L9.982,4.934z M8.786,4.097l0.505-0.266l0.504,0.266L9.7,3.535l0.408-0.398
	L9.544,3.054L9.292,2.543L9.04,3.054L8.475,3.136l0.409,0.398L8.786,4.097z M12.218,4.934l-0.096,0.562l0.505-0.265l0.504,0.265
	l-0.096-0.562l0.409-0.398l-0.564-0.082l-0.252-0.511l-0.253,0.511l-0.564,0.082L12.218,4.934z M11.023,4.097l0.504-0.266
	l0.505,0.266l-0.097-0.562l0.409-0.398L11.78,3.054l-0.253-0.511l-0.252,0.511L10.71,3.136l0.409,0.398L11.023,4.097z M2.836,14.247
	l-0.252-0.511l-0.252,0.511L1.767,14.33l0.409,0.398L2.079,15.29l0.505-0.265l0.505,0.265l-0.097-0.562L3.4,14.33L2.836,14.247z
	 M10.39,6.74l-0.252,0.512L9.573,7.334l0.409,0.398L9.886,8.294l0.504-0.266l0.505,0.266l-0.096-0.562l0.408-0.398l-0.564-0.082
	L10.39,6.74z M13.258,4.097l0.506-0.266l0.505,0.266l-0.097-0.562l0.408-0.398l-0.564-0.082l-0.252-0.511l-0.253,0.511l-0.564,0.082
	l0.408,0.398L13.258,4.097z M7.561,4.097L7.464,3.535L7.65,3.354C7.312,3.567,6.983,3.795,6.666,4.037l0.39-0.205L7.561,4.097z
	 M3.089,9.693L2.992,9.131L3.4,8.733L2.836,8.651L2.806,8.588C2.639,8.903,2.484,9.226,2.342,9.555l0.242-0.127L3.089,9.693z
	 M13.764,5.341l-0.253,0.511l-0.564,0.083l0.408,0.398l-0.097,0.562l0.506-0.265l0.505,0.265l-0.097-0.562l0.408-0.398l-0.564-0.083
	L13.764,5.341z M7.308,5.853L7.056,5.341L6.803,5.853L6.239,5.935l0.408,0.398L6.551,6.895L7.056,6.63l0.505,0.265L7.464,6.333
	l0.409-0.398L7.308,5.853z M3.683,10.827l0.505,0.265L4.092,10.53L4.5,10.132L3.936,10.05L3.683,9.538L3.431,10.05l-0.565,0.082
	l0.41,0.398l-0.097,0.562L3.683,10.827z M5.919,6.74L5.666,7.252L5.102,7.334L5.51,7.732L5.414,8.294l0.505-0.266l0.504,0.266
	L6.327,7.732l0.409-0.398L6.171,7.252L5.919,6.74z M7.308,8.651L7.056,8.14L6.803,8.651L6.239,8.733l0.408,0.398L6.551,9.693
	l0.505-0.266l0.505,0.266L7.464,9.131l0.409-0.398L7.308,8.651z M13.764,8.14l-0.253,0.512l-0.564,0.082l0.408,0.398l-0.097,0.562
	l0.506-0.266l0.505,0.266l-0.097-0.562l0.408-0.398l-0.564-0.082L13.764,8.14z M8.155,6.74L7.902,7.252L7.338,7.334l0.408,0.398
	L7.649,8.294l0.505-0.266L8.66,8.294L8.563,7.732l0.408-0.398L8.407,7.252L8.155,6.74z M6.327,13.329l0.409-0.399l-0.564-0.082
	l-0.252-0.511l-0.253,0.511L5.102,12.93l0.409,0.399L5.414,13.89l0.505-0.265l0.504,0.265L6.327,13.329z M8.563,13.329l0.408-0.399
	l-0.565-0.082l-0.252-0.511l-0.252,0.511L7.338,12.93l0.408,0.399L7.649,13.89l0.505-0.265L8.66,13.89L8.563,13.329z M13.764,10.938
	l-0.253,0.511l-0.564,0.082l0.408,0.398l-0.097,0.562l0.506-0.265l0.505,0.265l-0.097-0.562l0.408-0.398l-0.564-0.082L13.764,10.938
	z M13.035,13.329l0.409-0.399l-0.564-0.082l-0.252-0.511l-0.253,0.511l-0.564,0.082l0.409,0.399l-0.096,0.562l0.505-0.265
	l0.504,0.265L13.035,13.329z M10.799,13.329l0.408-0.399l-0.564-0.082l-0.253-0.511l-0.252,0.511L9.573,12.93l0.409,0.399
	L9.886,13.89l0.504-0.265l0.505,0.265L10.799,13.329z"/>
</svg>
