<?xml version="1.0" encoding="utf-8"?>
<!-- Generator: Adobe Illustrator 16.0.0, SVG Export Plug-In . SVG Version: 6.00 Build 0)  -->
<!DOCTYPE svg PUBLIC "-//W3C//DTD SVG 1.1//EN" "http://www.w3.org/Graphics/SVG/1.1/DTD/svg11.dtd">
<svg version="1.1" id="Layer_1" xmlns="http://www.w3.org/2000/svg" xmlns:xlink="http://www.w3.org/1999/xlink" x="0px" y="0px"
	 width="30px" height="30px" viewBox="0 0 30 30" enable-background="new 0 0 30 30" xml:space="preserve">
<circle fill="#197B30" stroke="#A7A9AB" stroke-width="0.5" stroke-miterlimit="10" cx="15" cy="14.904" r="14"/>
<path fill="#ED1C24" d="M14.96,1.154c-1.145,0-2.257,0.139-3.32,0.4v26.72c1.063,0.262,2.175,0.4,3.32,0.4
	c7.641,0,13.834-6.16,13.834-13.76C28.795,7.315,22.602,1.154,14.96,1.154z"/>
<g>
	<g>
		<path fill-rule="evenodd" clip-rule="evenodd" fill="#FFCE46" d="M11.607,9.546c-3.058,0-5.536,2.479-5.536,5.537
			c0,3.057,2.479,5.537,5.536,5.537s5.537-2.479,5.537-5.537C17.144,12.025,14.665,9.546,11.607,9.546z M11.607,20.009
			c-2.721,0-4.926-2.206-4.926-4.926c0-2.721,2.206-4.926,4.926-4.926s4.926,2.206,4.926,4.926
			C16.533,17.803,14.328,20.009,11.607,20.009z"/>
		<path fill-rule="evenodd" clip-rule="evenodd" fill="#FFCE46" d="M16.435,12.373l-4.478-1.408V9.558
			c-0.116-0.007-0.232-0.012-0.35-0.012c-0.12,0-0.239,0.005-0.357,0.013v2.266l-1.968,1.124l-1.913-1.426
			c-0.199,0.236-0.378,0.49-0.536,0.758l1.145,1.413L6.08,14.776c-0.005,0.102-0.009,0.203-0.009,0.306
			c0,0.241,0.017,0.478,0.047,0.711l3.041,0.652l-2.107,1.582l-0.14-0.014c0.171,0.272,0.364,0.529,0.578,0.768l3.761,0.373v1.451
			c0.118,0.007,0.237,0.013,0.357,0.013c0.118,0,0.234-0.006,0.35-0.013v-1.381l2.962,0.294c0.257-0.192,0.495-0.407,0.715-0.64
			l-0.226-0.022l-1.332-1.332l2.841-0.877c0.096-0.324,0.164-0.66,0.198-1.007l-3.384-1.064l3.206-0.99
			C16.817,13.16,16.648,12.752,16.435,12.373z M9.23,13.792l0.442,0.329l0.742,0.742l-0.083,0.025l0.17,0.551l-0.124,0.093
			L9.05,13.894L9.23,13.792z M8.612,13.331L8.6,13.337l-0.034-0.042L8.612,13.331z M6.751,15.207l1.678-0.958l1.292,1.596
			L6.751,15.207z M11.25,18.445l-0.116-0.012l0.116-0.035V18.445z M11.25,17.658l-0.919,0.284l0.131,0.425L8.09,18.132l1.983-1.489
			l0.356,0.077l0.58,0.715l0.24-0.195V17.658z M11.25,16.173l-0.428-0.092V16.08l0.428-0.321V16.173z M11.25,13.797l-1.248-0.393
			L9.991,13.44l-0.053-0.053l1.312-0.749V13.797z M11.957,17.047l0.751,0.161l-0.751,0.232V17.047z M14.299,18.748l-2.342-0.232
			V18.18l1.355-0.418L14.299,18.748z M16.258,16.112l-2.747,0.849l-0.02-0.02l0.059-0.275l-0.425-0.091l-0.581-0.581l0.294-0.394
			l-0.69-0.515l0.042-0.032l0.353-0.109L16.258,16.112z M12.795,14.127l-0.198-0.263l-0.335,0.252l-0.305-0.096v-1.785l0.475-0.271
			l-0.076-0.132l3.902,1.227L12.795,14.127z"/>
	</g>
	<path fill-rule="evenodd" clip-rule="evenodd" fill="#D71920" d="M14.921,15.862c0,1.828-1.483,3.312-3.317,3.312
		c-1.827,0-3.311-1.484-3.311-3.312v-4.336h6.628V15.862L14.921,15.862z"/>
	<path fill-rule="evenodd" clip-rule="evenodd" fill="#FFFFFF" d="M13.635,15.784c0,1.119-0.908,2.027-2.03,2.027
		c-1.118,0-2.026-0.908-2.026-2.027v-2.866h4.056V15.784L13.635,15.784z"/>
	<g>
		<path fill-rule="evenodd" clip-rule="evenodd" fill="#0085BF" d="M10.714,16.091c0.114,0,0.206-0.092,0.206-0.206v-1.26H9.814
			v1.26c0,0.114,0.092,0.206,0.206,0.206H10.714L10.714,16.091z"/>
		<path fill-rule="evenodd" clip-rule="evenodd" fill="#0085BF" d="M12.5,16.091c-0.122,0-0.214-0.092-0.214-0.206v-1.26H13.4v1.26
			c0,0.114-0.099,0.206-0.213,0.206H12.5L12.5,16.091z"/>
		<path fill-rule="evenodd" clip-rule="evenodd" fill="#0085BF" d="M11.943,16.091c0.122,0,0.214-0.092,0.214-0.206v-1.26h-1.114
			v1.26c0,0.114,0.091,0.206,0.213,0.206H11.943L11.943,16.091z"/>
		<path fill-rule="evenodd" clip-rule="evenodd" fill="#0085BF" d="M11.943,17.656c0.122,0,0.214-0.092,0.214-0.207v-1.26h-1.114
			v1.26c0,0.115,0.091,0.207,0.213,0.207H11.943L11.943,17.656z"/>
		<path fill-rule="evenodd" clip-rule="evenodd" fill="#0085BF" d="M11.943,14.525c0.122,0,0.214-0.092,0.214-0.206v-1.26h-1.114
			v1.26c0,0.114,0.091,0.206,0.213,0.206H11.943L11.943,14.525z"/>
		<path fill-rule="evenodd" clip-rule="evenodd" fill="#FFCE46" d="M11.363,13.502c-0.076,0-0.137-0.061-0.137-0.137
			c0-0.077,0.061-0.137,0.137-0.137c0.077,0,0.138,0.061,0.138,0.137C11.5,13.441,11.439,13.502,11.363,13.502L11.363,13.502z"/>
		<path fill-rule="evenodd" clip-rule="evenodd" fill="#FFCE46" d="M11.836,13.502c0.076,0,0.138-0.061,0.138-0.137
			c0-0.077-0.062-0.137-0.138-0.137s-0.13,0.061-0.13,0.137C11.706,13.441,11.76,13.502,11.836,13.502L11.836,13.502z"/>
		<path fill-rule="evenodd" clip-rule="evenodd" fill="#FFCE46" d="M11.6,13.93c-0.076,0-0.138-0.061-0.138-0.138
			c0-0.076,0.062-0.137,0.138-0.137s0.137,0.062,0.137,0.137C11.737,13.869,11.676,13.93,11.6,13.93L11.6,13.93z"/>
		<path fill-rule="evenodd" clip-rule="evenodd" fill="#FFCE46" d="M10.127,15.067c-0.069,0-0.13-0.061-0.13-0.138
			c0-0.076,0.061-0.137,0.13-0.137c0.076,0,0.137,0.061,0.137,0.137C10.264,15.006,10.203,15.067,10.127,15.067L10.127,15.067z"/>
		<path fill-rule="evenodd" clip-rule="evenodd" fill="#FFCE46" d="M10.607,15.067c0.069,0,0.13-0.061,0.13-0.138
			c0-0.076-0.061-0.137-0.13-0.137c-0.076,0-0.137,0.061-0.137,0.137C10.47,15.006,10.531,15.067,10.607,15.067L10.607,15.067z"/>
		<path fill-rule="evenodd" clip-rule="evenodd" fill="#FFCE46" d="M10.127,15.655c-0.069,0-0.13,0.062-0.13,0.13
			c0,0.076,0.061,0.138,0.13,0.138c0.076,0,0.137-0.062,0.137-0.138C10.264,15.717,10.203,15.655,10.127,15.655L10.127,15.655z"/>
		<path fill-rule="evenodd" clip-rule="evenodd" fill="#FFCE46" d="M10.607,15.655c0.069,0,0.13,0.062,0.13,0.13
			c0,0.076-0.061,0.138-0.13,0.138c-0.076,0-0.137-0.062-0.137-0.138C10.47,15.717,10.531,15.655,10.607,15.655L10.607,15.655z"/>
		<path fill-rule="evenodd" clip-rule="evenodd" fill="#FFCE46" d="M10.371,15.495c-0.076,0-0.137-0.062-0.137-0.138
			s0.061-0.137,0.137-0.137c0.069,0,0.13,0.061,0.13,0.137S10.44,15.495,10.371,15.495L10.371,15.495z"/>
		<path fill-rule="evenodd" clip-rule="evenodd" fill="#FFCE46" d="M13.08,15.067c0.077,0,0.137-0.061,0.137-0.138
			c0-0.076-0.061-0.137-0.137-0.137c-0.076,0-0.137,0.061-0.137,0.137C12.942,15.006,13.003,15.067,13.08,15.067L13.08,15.067z"/>
		<path fill-rule="evenodd" clip-rule="evenodd" fill="#FFCE46" d="M12.607,15.067c-0.077,0-0.138-0.061-0.138-0.138
			c0-0.076,0.061-0.137,0.138-0.137c0.068,0,0.129,0.061,0.129,0.137C12.736,15.006,12.675,15.067,12.607,15.067L12.607,15.067z"/>
		<path fill-rule="evenodd" clip-rule="evenodd" fill="#FFCE46" d="M13.08,15.655c0.077,0,0.137,0.062,0.137,0.13
			c0,0.076-0.061,0.138-0.137,0.138c-0.076,0-0.137-0.062-0.137-0.138C12.942,15.717,13.003,15.655,13.08,15.655L13.08,15.655z"/>
		<path fill-rule="evenodd" clip-rule="evenodd" fill="#FFCE46" d="M12.607,15.655c-0.077,0-0.138,0.062-0.138,0.13
			c0,0.076,0.061,0.138,0.138,0.138c0.068,0,0.129-0.062,0.129-0.138C12.736,15.717,12.675,15.655,12.607,15.655L12.607,15.655z"/>
		<path fill-rule="evenodd" clip-rule="evenodd" fill="#FFCE46" d="M12.843,15.495c0.069,0,0.129-0.062,0.129-0.138
			s-0.061-0.137-0.129-0.137c-0.076,0-0.138,0.061-0.138,0.137S12.767,15.495,12.843,15.495L12.843,15.495z"/>
		<path fill-rule="evenodd" clip-rule="evenodd" fill="#FFCE46" d="M11.363,15.067c-0.076,0-0.137-0.061-0.137-0.138
			c0-0.076,0.061-0.137,0.137-0.137c0.077,0,0.138,0.061,0.138,0.137C11.5,15.006,11.439,15.067,11.363,15.067L11.363,15.067z"/>
		<path fill-rule="evenodd" clip-rule="evenodd" fill="#FFCE46" d="M11.836,15.067c0.076,0,0.138-0.061,0.138-0.138
			c0-0.076-0.062-0.137-0.138-0.137s-0.13,0.061-0.13,0.137C11.706,15.006,11.76,15.067,11.836,15.067L11.836,15.067z"/>
		<path fill-rule="evenodd" clip-rule="evenodd" fill="#FFCE46" d="M11.363,15.655c-0.076,0-0.137,0.062-0.137,0.13
			c0,0.076,0.061,0.138,0.137,0.138c0.077,0,0.138-0.062,0.138-0.138C11.5,15.717,11.439,15.655,11.363,15.655L11.363,15.655z"/>
		<path fill-rule="evenodd" clip-rule="evenodd" fill="#FFCE46" d="M11.836,15.655c0.076,0,0.138,0.062,0.138,0.13
			c0,0.076-0.062,0.138-0.138,0.138s-0.13-0.062-0.13-0.138C11.706,15.717,11.76,15.655,11.836,15.655L11.836,15.655z"/>
		<path fill-rule="evenodd" clip-rule="evenodd" fill="#FFCE46" d="M11.6,15.495c-0.076,0-0.138-0.062-0.138-0.138
			s0.062-0.137,0.138-0.137s0.137,0.061,0.137,0.137S11.676,15.495,11.6,15.495L11.6,15.495z"/>
		<path fill-rule="evenodd" clip-rule="evenodd" fill="#FFCE46" d="M11.363,16.633c-0.076,0-0.137-0.062-0.137-0.138
			s0.061-0.138,0.137-0.138c0.077,0,0.138,0.062,0.138,0.138S11.439,16.633,11.363,16.633L11.363,16.633z"/>
		<path fill-rule="evenodd" clip-rule="evenodd" fill="#FFCE46" d="M11.836,16.633c0.076,0,0.138-0.062,0.138-0.138
			s-0.062-0.138-0.138-0.138s-0.13,0.062-0.13,0.138S11.76,16.633,11.836,16.633L11.836,16.633z"/>
		<path fill-rule="evenodd" clip-rule="evenodd" fill="#FFCE46" d="M11.363,17.221c-0.076,0-0.137,0.061-0.137,0.13
			c0,0.076,0.061,0.137,0.137,0.137c0.077,0,0.138-0.061,0.138-0.137C11.5,17.281,11.439,17.221,11.363,17.221L11.363,17.221z"/>
		<path fill-rule="evenodd" clip-rule="evenodd" fill="#FFCE46" d="M11.836,17.221c0.076,0,0.138,0.061,0.138,0.13
			c0,0.076-0.062,0.137-0.138,0.137s-0.13-0.061-0.13-0.137C11.706,17.281,11.76,17.221,11.836,17.221L11.836,17.221z"/>
		<path fill-rule="evenodd" clip-rule="evenodd" fill="#FFCE46" d="M11.6,17.061c-0.076,0-0.138-0.062-0.138-0.138
			s0.062-0.138,0.138-0.138s0.137,0.062,0.137,0.138S11.676,17.061,11.6,17.061L11.6,17.061z"/>
		<path fill-rule="evenodd" clip-rule="evenodd" fill="#FFCE46" d="M11.363,14.09c-0.076,0-0.137,0.061-0.137,0.13
			c0,0.077,0.061,0.138,0.137,0.138c0.077,0,0.138-0.061,0.138-0.138C11.5,14.151,11.439,14.09,11.363,14.09L11.363,14.09z"/>
		<path fill-rule="evenodd" clip-rule="evenodd" fill="#FFCE46" d="M11.836,14.09c0.076,0,0.138,0.061,0.138,0.13
			c0,0.077-0.062,0.138-0.138,0.138s-0.13-0.061-0.13-0.138C11.706,14.151,11.76,14.09,11.836,14.09L11.836,14.09z"/>
	</g>
	<g>
		<polygon fill-rule="evenodd" clip-rule="evenodd" fill="#FFCE46" points="11.26,12.223 11.099,12.743 12.115,12.743 
			11.961,12.223 11.932,12.223 11.932,11.873 11.991,11.873 12.02,11.702 11.896,11.702 11.896,11.795 11.845,11.795 11.845,11.702 
			11.72,11.702 11.72,11.795 11.677,11.795 11.677,11.702 11.545,11.702 11.545,11.795 11.501,11.795 11.501,11.702 11.37,11.702 
			11.37,11.795 11.326,11.795 11.326,11.702 11.202,11.702 11.231,11.873 11.289,11.873 11.289,12.223 		"/>
		<polygon fill-rule="evenodd" clip-rule="evenodd" fill="#FFCE46" points="8.597,12.223 8.436,12.743 9.452,12.743 9.298,12.223 
			9.269,12.223 9.269,11.873 9.328,11.873 9.357,11.702 9.233,11.702 9.233,11.795 9.182,11.795 9.182,11.702 9.057,11.702 
			9.057,11.795 9.014,11.795 9.014,11.702 8.882,11.702 8.882,11.795 8.838,11.795 8.838,11.702 8.707,11.702 8.707,11.795 
			8.663,11.795 8.663,11.702 8.539,11.702 8.568,11.873 8.626,11.873 8.626,12.223 		"/>
		<polygon fill-rule="evenodd" clip-rule="evenodd" fill="#FFCE46" points="13.923,12.223 13.762,12.743 14.778,12.743 
			14.625,12.223 14.596,12.223 14.596,11.873 14.654,11.873 14.683,11.702 14.559,11.702 14.559,11.795 14.508,11.795 
			14.508,11.702 14.383,11.702 14.383,11.795 14.34,11.795 14.34,11.702 14.208,11.702 14.208,11.795 14.165,11.795 14.165,11.702 
			14.033,11.702 14.033,11.795 13.989,11.795 13.989,11.702 13.865,11.702 13.894,11.873 13.953,11.873 13.953,12.223 		"/>
	</g>
	<g>
		<polygon fill-rule="evenodd" clip-rule="evenodd" fill="#FFCE46" points="8.597,15.191 8.436,15.71 9.452,15.71 9.298,15.191 
			9.269,15.191 9.269,14.84 9.328,14.84 9.357,14.67 9.233,14.67 9.233,14.763 9.182,14.763 9.182,14.67 9.057,14.67 9.057,14.763 
			9.014,14.763 9.014,14.67 8.882,14.67 8.882,14.763 8.838,14.763 8.838,14.67 8.707,14.67 8.707,14.763 8.663,14.763 8.663,14.67 
			8.539,14.67 8.568,14.84 8.626,14.84 8.626,15.191 		"/>
		<polygon fill-rule="evenodd" clip-rule="evenodd" fill="#FFCE46" points="13.923,15.191 13.762,15.71 14.778,15.71 14.625,15.191 
			14.596,15.191 14.596,14.84 14.654,14.84 14.683,14.67 14.559,14.67 14.559,14.763 14.508,14.763 14.508,14.67 14.383,14.67 
			14.383,14.763 14.34,14.763 14.34,14.67 14.208,14.67 14.208,14.763 14.165,14.763 14.165,14.67 14.033,14.67 14.033,14.763 
			13.989,14.763 13.989,14.67 13.865,14.67 13.894,14.84 13.953,14.84 13.953,15.191 		"/>
	</g>
	<g>
		<polygon fill-rule="evenodd" clip-rule="evenodd" fill="#FFCE46" points="9.562,17.976 9.813,18.458 10.536,17.745 10.062,17.482 
			10.042,17.503 9.795,17.254 9.836,17.213 9.738,17.07 9.649,17.157 9.715,17.224 9.678,17.26 9.613,17.193 9.524,17.281 
			9.59,17.347 9.559,17.378 9.493,17.312 9.399,17.404 9.465,17.47 9.434,17.501 9.368,17.435 9.275,17.527 9.34,17.594 
			9.309,17.624 9.243,17.558 9.155,17.646 9.295,17.746 9.337,17.705 9.583,17.955 		"/>
		<polygon fill-rule="evenodd" clip-rule="evenodd" fill="#FFCE46" points="13.154,17.481 12.671,17.731 13.385,18.455 
			13.647,17.98 13.626,17.96 13.876,17.714 13.917,17.756 14.059,17.656 13.972,17.568 13.906,17.634 13.87,17.597 13.936,17.531 
			13.849,17.443 13.783,17.509 13.752,17.478 13.818,17.412 13.726,17.318 13.66,17.384 13.628,17.353 13.695,17.287 13.603,17.193 
			13.536,17.259 13.505,17.228 13.572,17.162 13.484,17.074 13.384,17.214 13.425,17.256 13.175,17.502 		"/>
	</g>
</g>
</svg>
