<?xml version="1.0" encoding="utf-8"?>
<!-- Generator: Adobe Illustrator 16.0.0, SVG Export Plug-In . SVG Version: 6.00 Build 0)  -->
<!DOCTYPE svg PUBLIC "-//W3C//DTD SVG 1.1//EN" "http://www.w3.org/Graphics/SVG/1.1/DTD/svg11.dtd">
<svg version="1.1" id="Layer_1" xmlns="http://www.w3.org/2000/svg" xmlns:xlink="http://www.w3.org/1999/xlink" x="0px" y="0px"
	 width="30px" height="30px" viewBox="0 0 30 30" enable-background="new 0 0 30 30" xml:space="preserve">
<circle fill="#FFC20E" stroke="#A7A9AB" stroke-width="0.5" cx="14.812" cy="15.039" r="14"/>
<path fill="#ED1C24" d="M3.357,7.339h22.862c-2.449-3.637-6.654-6.038-11.431-6.038C10.01,1.301,5.805,3.702,3.357,7.339z"/>
<path fill="#ED1C24" d="M26.459,22.413H3.223c2.489,3.84,6.762,6.374,11.618,6.374C19.696,28.787,23.971,26.253,26.459,22.413z"/>
<g>
	<g>
		<polygon fill="#D2AC2B" points="5.795,19.552 4.594,19.552 4.396,19.734 4.396,20.231 5.994,20.231 5.994,19.734 		"/>
		<path fill="#C4122F" d="M4.273,18.055c-0.158,0.098-0.265,0.195-0.247,0.244c0.009,0.046,0.059,0.079,0.13,0.129
			c0.112,0.083,0.18,0.23,0.128,0.3c0.093-0.08,0.152-0.198,0.152-0.331C4.436,18.259,4.373,18.135,4.273,18.055z"/>
		<rect x="4.626" y="13.646" fill="#BCBEC0" width="1.132" height="5.855"/>
		<path fill="#C4122F" d="M4.624,16.574c-0.314-0.023-0.528-0.112-0.553-0.251c-0.019-0.11,0.087-0.233,0.276-0.344
			c0.084,0.009,0.18,0.022,0.279,0.022L4.624,16.574z"/>
		<path fill="#C4122F" d="M5.76,16.127c0.196,0.031,0.343,0.082,0.417,0.146l0.006,0.013c0.036,0.076-0.137,0.236-0.425,0.416
			L5.76,16.127z"/>
		<path fill="#ED1A3B" d="M6.914,15.84c-0.248-0.109-0.667-0.189-1.149-0.205c-0.167,0.001-0.351,0.018-0.542,0.051
			c-0.677,0.12-1.193,0.405-1.152,0.638c0.001,0.005,0.002,0.015,0.004,0.019c0,0-0.254-0.604-0.258-0.625
			c-0.045-0.26,0.527-0.576,1.279-0.708c0.235-0.042,0.465-0.057,0.666-0.056c0.48,0,0.898,0.065,1.149,0.165L6.914,15.84z"/>
		<path fill-rule="evenodd" clip-rule="evenodd" fill="#D2AC2B" d="M4.453,15.355L4.5,15.338c0.04-0.016,0.084,0.006,0.104,0.059
			C4.62,15.436,4.616,15.48,4.57,15.51c-0.015,0.01-0.033,0.018-0.049,0.025L4.453,15.355 M4.494,15.809
			c0.019-0.008,0.038-0.018,0.057-0.025c0.02-0.007,0.039-0.012,0.059-0.019L4.535,15.57c0.138-0.053,0.229-0.117,0.184-0.231
			c-0.028-0.073-0.1-0.087-0.206-0.046l-0.188,0.072"/>
		<path fill="#D2AC2B" d="M4.978,15.17c-0.021,0.006-0.04,0.012-0.06,0.017c-0.021,0.005-0.041,0.007-0.062,0.011l0.098,0.461
			l0.306-0.066c-0.004-0.008-0.008-0.018-0.011-0.027c-0.001-0.01-0.001-0.021-0.001-0.03c-0.054,0.017-0.113,0.034-0.182,0.049
			L4.978,15.17"/>
		<path fill="#D2AC2B" d="M5.588,15.568c0.058-0.168,0.127-0.328,0.197-0.49c-0.013,0.003-0.026,0.004-0.038,0.006
			c-0.012,0-0.025,0-0.038,0c-0.036,0.117-0.082,0.234-0.129,0.352c-0.057-0.11-0.121-0.219-0.169-0.331
			c-0.025,0.003-0.049,0.007-0.072,0.009c-0.024,0.002-0.049,0.002-0.073,0.002c0.088,0.15,0.173,0.302,0.253,0.458
			c0.011-0.002,0.023-0.005,0.035-0.006S5.577,15.568,5.588,15.568"/>
		<path fill="#D2AC2B" d="M6.227,15.213c0.01-0.021,0.021-0.045,0.033-0.065c-0.017-0.016-0.067-0.04-0.126-0.046
			c-0.125-0.014-0.196,0.045-0.204,0.125c-0.018,0.166,0.23,0.15,0.219,0.262c-0.005,0.047-0.053,0.066-0.104,0.061
			c-0.056-0.006-0.097-0.039-0.104-0.087L5.925,15.46c-0.008,0.029-0.02,0.058-0.033,0.085c0.036,0.025,0.083,0.039,0.128,0.044
			c0.127,0.013,0.224-0.04,0.233-0.129c0.016-0.157-0.234-0.167-0.224-0.26c0.004-0.039,0.032-0.065,0.097-0.058
			c0.046,0.005,0.075,0.031,0.087,0.07H6.227"/>
		<path fill-rule="evenodd" clip-rule="evenodd" fill="#ED1A3B" d="M3.92,17.703c-0.03-0.095,0.277-0.283,0.709-0.451
			c0.197-0.074,0.36-0.153,0.563-0.247c0.601-0.28,1.044-0.603,0.99-0.72l-0.006-0.012c0.032,0.027,0.082,0.605,0.082,0.605
			c0.055,0.108-0.351,0.426-0.905,0.705c-0.176,0.089-0.55,0.235-0.727,0.3C4.311,18,3.997,18.219,4.026,18.299L3.92,17.703z"/>
		<g>
			<path fill="#0072BC" d="M6.28,20.15c-0.108,0-0.203-0.024-0.273-0.063c-0.07-0.038-0.165-0.062-0.27-0.062
				c-0.105,0-0.202,0.023-0.272,0.062c-0.071,0.038-0.167,0.063-0.273,0.063c-0.107,0-0.203-0.027-0.273-0.065
				c-0.069-0.038-0.163-0.06-0.265-0.06c-0.105,0-0.198,0.021-0.268,0.06c-0.07,0.04-0.168,0.065-0.275,0.065v0.177
				c0.107,0,0.205-0.025,0.275-0.064c0.07-0.038,0.163-0.06,0.268-0.06c0.102,0,0.195,0.021,0.265,0.058
				c0.07,0.039,0.166,0.066,0.273,0.066c0.106,0,0.203-0.023,0.273-0.063c0.07-0.037,0.167-0.061,0.272-0.061
				c0.104,0,0.199,0.023,0.27,0.061c0.07,0.04,0.164,0.063,0.271,0.063L6.28,20.15z"/>
			<path fill="#BCBEC0" d="M6.28,20.327c-0.108,0-0.203-0.023-0.273-0.063c-0.07-0.037-0.165-0.061-0.27-0.061
				c-0.105,0-0.202,0.023-0.272,0.061c-0.071,0.04-0.167,0.063-0.273,0.063c-0.107,0-0.203-0.027-0.273-0.066
				c-0.069-0.036-0.163-0.058-0.265-0.058c-0.105,0-0.198,0.021-0.268,0.06c-0.07,0.039-0.168,0.064-0.275,0.064v0.178
				c0.107,0,0.205-0.026,0.275-0.066c0.07-0.037,0.163-0.059,0.268-0.059c0.102,0,0.195,0.021,0.265,0.058
				c0.07,0.041,0.166,0.067,0.273,0.067c0.106,0,0.203-0.025,0.273-0.063c0.07-0.039,0.167-0.062,0.272-0.062
				c0.104,0,0.199,0.022,0.27,0.061c0.07,0.04,0.164,0.064,0.271,0.064L6.28,20.327z"/>
			<path fill="#0072BC" d="M6.28,20.505c-0.108,0-0.203-0.024-0.273-0.064c-0.07-0.038-0.165-0.061-0.27-0.061
				c-0.105,0-0.202,0.022-0.272,0.062c-0.071,0.038-0.167,0.063-0.273,0.063c-0.107,0-0.203-0.026-0.273-0.067
				c-0.069-0.036-0.163-0.058-0.265-0.058c-0.105,0-0.198,0.021-0.268,0.059c-0.07,0.04-0.168,0.066-0.275,0.066v0.176
				c0.107,0,0.205-0.025,0.275-0.064c0.07-0.038,0.163-0.06,0.268-0.06c0.102,0,0.195,0.022,0.265,0.059
				c0.07,0.039,0.166,0.065,0.273,0.065c0.106,0,0.203-0.023,0.273-0.062c0.07-0.038,0.167-0.062,0.272-0.062
				c0.104,0,0.199,0.023,0.27,0.062c0.07,0.039,0.164,0.062,0.271,0.062L6.28,20.505z"/>
			<path fill="#BCBEC0" d="M6.278,20.859c-0.107,0-0.201-0.024-0.271-0.063c-0.07-0.04-0.165-0.062-0.27-0.062
				c-0.105,0-0.202,0.021-0.272,0.062c-0.071,0.038-0.167,0.063-0.273,0.063c-0.107,0-0.203-0.027-0.273-0.067
				c-0.069-0.036-0.163-0.058-0.265-0.058c-0.105,0-0.198,0.021-0.268,0.06c-0.07,0.039-0.168,0.065-0.275,0.065v-0.178
				c0.107,0,0.205-0.026,0.275-0.065c0.07-0.038,0.163-0.06,0.268-0.06c0.102,0,0.195,0.022,0.265,0.059
				c0.07,0.039,0.166,0.065,0.273,0.065c0.106,0,0.203-0.023,0.273-0.062c0.07-0.038,0.167-0.062,0.272-0.062
				c0.104,0,0.199,0.023,0.27,0.062c0.07,0.039,0.166,0.062,0.273,0.062L6.278,20.859z"/>
			<path fill="#0072BC" d="M6.278,21.036c-0.107,0-0.201-0.024-0.271-0.064c-0.07-0.037-0.165-0.062-0.27-0.062
				c-0.105,0-0.202,0.024-0.272,0.062c-0.071,0.038-0.167,0.063-0.273,0.063c-0.107,0-0.203-0.027-0.273-0.065
				c-0.069-0.037-0.163-0.061-0.265-0.061c-0.105,0-0.198,0.022-0.268,0.061c-0.07,0.039-0.168,0.065-0.275,0.065V20.86
				c0.107,0,0.205-0.027,0.275-0.066c0.07-0.038,0.163-0.06,0.268-0.06c0.102,0,0.195,0.021,0.265,0.058
				c0.07,0.04,0.166,0.067,0.273,0.067c0.106,0,0.203-0.025,0.273-0.063c0.07-0.04,0.167-0.062,0.272-0.062
				c0.104,0,0.199,0.021,0.27,0.062c0.07,0.039,0.166,0.063,0.273,0.063L6.278,21.036z"/>
		</g>
		<polygon fill="#D2AC2B" points="4.594,13.597 5.795,13.597 5.994,13.414 5.994,12.917 4.396,12.917 4.396,13.414 		"/>
		<g>
			<path fill="#ED1A3B" d="M5.544,12.06c-0.043,0-0.084,0.011-0.122,0.029c-0.053-0.091-0.151-0.152-0.265-0.152
				c-0.113,0-0.211,0.061-0.265,0.152c-0.037-0.018-0.078-0.029-0.122-0.029c-0.156,0-0.281,0.126-0.281,0.281
				c0,0.155,0.125,0.28,0.281,0.28c0.04,0,0.079-0.009,0.114-0.024c0.03,0.08,0.143,0.139,0.279,0.139
				c0.133,0,0.243-0.057,0.276-0.135c0.033,0.013,0.067,0.02,0.104,0.02c0.155,0,0.281-0.125,0.281-0.28
				C5.825,12.186,5.699,12.06,5.544,12.06z"/>
			<path fill="#D2AC2B" d="M5.157,12.337c0.057,0,0.103-0.102,0.103-0.226c0-0.125-0.046-0.227-0.103-0.227
				c-0.056,0-0.102,0.102-0.102,0.227C5.055,12.236,5.101,12.337,5.157,12.337z M5.243,12.578l0.214-0.474
				c0.008-0.019,0-0.041-0.019-0.049c-0.019-0.009-0.041,0-0.049,0.019l-0.227,0.504H5.153l-0.227-0.504
				c-0.008-0.019-0.03-0.027-0.049-0.019c-0.019,0.008-0.027,0.03-0.019,0.049l0.213,0.474H4.618l0.022,0.193h1.033l0.022-0.193
				H5.243z"/>
			<g>
				<circle fill="#009B79" cx="4.746" cy="12.681" r="0.046"/>
				<circle fill="#FFFFFF" cx="4.95" cy="12.681" r="0.046"/>
				<circle fill="#ED1A3B" cx="5.155" cy="12.681" r="0.046"/>
				<circle fill="#009B79" cx="5.565" cy="12.681" r="0.046"/>
				<circle fill="#FFFFFF" cx="5.36" cy="12.681" r="0.046"/>
			</g>
		</g>
	</g>
	<g>
		<path fill="#C4122F" d="M16.207,18.055c0.156,0.098,0.265,0.195,0.247,0.244c-0.009,0.046-0.059,0.079-0.13,0.129
			c-0.113,0.083-0.182,0.23-0.128,0.3c-0.093-0.08-0.152-0.198-0.152-0.331C16.044,18.259,16.105,18.135,16.207,18.055z"/>
		<path fill="#C4122F" d="M15.856,16.574c0.314-0.023,0.528-0.112,0.552-0.251c0.02-0.11-0.086-0.233-0.276-0.344
			c-0.085,0.009-0.179,0.022-0.277,0.022L15.856,16.574z"/>
		<path fill="#C4122F" d="M14.72,16.127c-0.196,0.031-0.344,0.082-0.417,0.146l-0.006,0.013c-0.036,0.076,0.137,0.236,0.425,0.416
			L14.72,16.127z"/>
		<polygon fill="#D2AC2B" points="15.893,19.552 14.69,19.552 14.492,19.734 14.492,20.231 16.09,20.231 16.09,19.734 		"/>
		<rect x="14.722" y="13.646" fill="#BCBEC0" width="1.133" height="5.855"/>
		<g>
			<path fill="#0072BC" d="M16.375,20.15c-0.106,0-0.202-0.024-0.273-0.063c-0.069-0.038-0.164-0.062-0.269-0.062
				c-0.104,0-0.201,0.023-0.272,0.062c-0.07,0.038-0.167,0.063-0.273,0.063c-0.106,0-0.202-0.027-0.273-0.065
				c-0.069-0.038-0.162-0.06-0.264-0.06c-0.105,0-0.199,0.021-0.269,0.06c-0.07,0.04-0.168,0.065-0.275,0.065v0.177
				c0.106,0,0.205-0.025,0.275-0.064c0.07-0.038,0.163-0.06,0.269-0.06c0.102,0,0.195,0.021,0.264,0.058
				c0.071,0.039,0.167,0.066,0.273,0.066c0.106,0,0.204-0.023,0.273-0.063c0.071-0.037,0.168-0.061,0.272-0.061
				c0.105,0,0.2,0.023,0.269,0.061c0.071,0.04,0.166,0.063,0.272,0.063L16.375,20.15z"/>
			<path fill="#BCBEC0" d="M16.375,20.327c-0.106,0-0.202-0.023-0.273-0.063c-0.069-0.037-0.164-0.061-0.269-0.061
				c-0.104,0-0.201,0.023-0.272,0.061c-0.07,0.04-0.167,0.063-0.273,0.063c-0.106,0-0.202-0.027-0.273-0.066
				c-0.069-0.036-0.162-0.058-0.264-0.058c-0.105,0-0.199,0.021-0.269,0.06c-0.07,0.039-0.168,0.064-0.275,0.064v0.178
				c0.106,0,0.205-0.026,0.275-0.066c0.07-0.037,0.163-0.059,0.269-0.059c0.102,0,0.195,0.021,0.264,0.058
				c0.071,0.041,0.167,0.067,0.273,0.067c0.106,0,0.204-0.025,0.273-0.063c0.071-0.039,0.168-0.062,0.272-0.062
				c0.105,0,0.2,0.022,0.269,0.061c0.071,0.04,0.166,0.064,0.272,0.064L16.375,20.327z"/>
			<path fill="#0072BC" d="M16.375,20.505c-0.106,0-0.202-0.024-0.273-0.064c-0.069-0.038-0.164-0.061-0.269-0.061
				c-0.104,0-0.201,0.022-0.272,0.062c-0.07,0.038-0.167,0.063-0.273,0.063c-0.106,0-0.202-0.026-0.273-0.067
				c-0.069-0.036-0.162-0.058-0.264-0.058c-0.105,0-0.199,0.021-0.269,0.059c-0.07,0.04-0.168,0.066-0.275,0.066v0.176
				c0.106,0,0.205-0.025,0.275-0.064c0.07-0.038,0.163-0.06,0.269-0.06c0.102,0,0.195,0.022,0.264,0.059
				c0.071,0.039,0.167,0.065,0.273,0.065c0.106,0,0.204-0.023,0.273-0.062c0.071-0.038,0.168-0.062,0.272-0.062
				c0.105,0,0.2,0.023,0.269,0.062c0.071,0.039,0.166,0.062,0.272,0.062L16.375,20.505z"/>
			<path fill="#BCBEC0" d="M16.374,20.859c-0.106,0-0.201-0.024-0.272-0.063c-0.069-0.04-0.164-0.062-0.269-0.062
				c-0.104,0-0.201,0.021-0.272,0.062c-0.07,0.038-0.167,0.063-0.273,0.063c-0.106,0-0.202-0.027-0.273-0.067
				c-0.069-0.036-0.162-0.058-0.264-0.058c-0.105,0-0.199,0.021-0.269,0.06c-0.07,0.039-0.168,0.065-0.275,0.065v-0.178
				c0.106,0,0.205-0.026,0.275-0.065c0.07-0.038,0.163-0.06,0.269-0.06c0.102,0,0.195,0.022,0.264,0.059
				c0.071,0.039,0.167,0.065,0.273,0.065c0.106,0,0.204-0.023,0.273-0.062c0.071-0.038,0.168-0.062,0.272-0.062
				c0.105,0,0.2,0.023,0.269,0.062c0.071,0.039,0.167,0.062,0.273,0.062L16.374,20.859z"/>
			<path fill="#0072BC" d="M16.374,21.036c-0.106,0-0.201-0.024-0.272-0.064c-0.069-0.037-0.164-0.062-0.269-0.062
				c-0.104,0-0.201,0.024-0.272,0.062c-0.07,0.038-0.167,0.063-0.273,0.063c-0.106,0-0.202-0.027-0.273-0.065
				c-0.069-0.037-0.162-0.061-0.264-0.061c-0.105,0-0.199,0.022-0.269,0.061c-0.07,0.039-0.168,0.065-0.275,0.065V20.86
				c0.106,0,0.205-0.027,0.275-0.066c0.07-0.038,0.163-0.06,0.269-0.06c0.102,0,0.195,0.021,0.264,0.058
				c0.071,0.04,0.167,0.067,0.273,0.067c0.106,0,0.204-0.025,0.273-0.063c0.071-0.04,0.168-0.062,0.272-0.062
				c0.105,0,0.2,0.021,0.269,0.062c0.071,0.039,0.167,0.063,0.273,0.063L16.374,21.036z"/>
		</g>
		<polygon fill="#D2AC2B" points="14.69,13.597 15.893,13.597 16.09,13.414 16.09,12.917 14.492,12.917 14.492,13.414 		"/>
		<g>
			<path fill="#ED1A3B" d="M15.64,12.06c-0.044,0-0.085,0.011-0.122,0.029c-0.054-0.091-0.152-0.152-0.265-0.152
				c-0.113,0-0.211,0.061-0.264,0.152c-0.038-0.018-0.079-0.029-0.123-0.029c-0.155,0-0.281,0.126-0.281,0.281
				c0,0.155,0.126,0.28,0.281,0.28c0.041,0,0.079-0.009,0.115-0.024c0.03,0.08,0.143,0.139,0.279,0.139
				c0.133,0,0.244-0.057,0.277-0.135c0.031,0.013,0.065,0.02,0.103,0.02c0.155,0,0.281-0.125,0.281-0.28
				C15.921,12.186,15.795,12.06,15.64,12.06z"/>
			<path fill="#D2AC2B" d="M15.253,12.337c0.056,0,0.103-0.102,0.103-0.226c0-0.125-0.046-0.227-0.103-0.227
				c-0.057,0-0.103,0.102-0.103,0.227C15.15,12.236,15.196,12.337,15.253,12.337z M15.338,12.578l0.213-0.474
				c0.009-0.019,0-0.041-0.019-0.049c-0.018-0.009-0.04,0-0.048,0.019l-0.227,0.504h-0.009l-0.228-0.504
				c-0.008-0.019-0.03-0.027-0.049-0.019c-0.019,0.008-0.027,0.03-0.019,0.049l0.214,0.474h-0.453l0.021,0.193h1.034l0.022-0.193
				H15.338z"/>
			<g>
				<circle fill="#009B79" cx="14.841" cy="12.681" r="0.046"/>
				<circle fill="#FFFFFF" cx="15.046" cy="12.681" r="0.046"/>
				<circle fill="#ED1A3B" cx="15.251" cy="12.681" r="0.046"/>
				<circle fill="#009B79" cx="15.661" cy="12.681" r="0.046"/>
				<circle fill="#FFFFFF" cx="15.456" cy="12.681" r="0.046"/>
			</g>
		</g>
		<path fill="#ED1A3B" d="M13.566,15.84c0.247-0.109,0.667-0.189,1.148-0.205c0.166,0.001,0.351,0.018,0.542,0.051
			c0.677,0.12,1.194,0.405,1.152,0.638c-0.001,0.005-0.002,0.015-0.003,0.019c0,0,0.254-0.604,0.258-0.625
			c0.045-0.26-0.527-0.576-1.279-0.708c-0.235-0.042-0.465-0.057-0.665-0.056c-0.48,0-0.898,0.065-1.15,0.165L13.566,15.84z"/>
		<path fill="#D2AC2B" d="M14.232,15.609c0.043-0.172,0.098-0.338,0.153-0.505c-0.013,0.003-0.025,0.006-0.038,0.008
			c-0.012,0.001-0.026,0.003-0.038,0.004c-0.026,0.12-0.061,0.241-0.099,0.362c-0.067-0.105-0.14-0.209-0.197-0.315
			c-0.023,0.005-0.048,0.011-0.071,0.015s-0.048,0.006-0.072,0.008c0.101,0.143,0.199,0.287,0.292,0.436
			c0.011-0.004,0.022-0.008,0.035-0.01C14.209,15.609,14.221,15.609,14.232,15.609"/>
		<path fill="#D2AC2B" d="M14.662,15.107c-0.02,0.002-0.042,0.004-0.062,0.002c-0.021,0-0.04-0.002-0.062-0.004l-0.008,0.471
			l0.312,0.006c-0.002-0.01-0.004-0.02-0.004-0.029s0.002-0.021,0.005-0.029c-0.057,0.004-0.118,0.007-0.189,0.006L14.662,15.107"/>
		<path fill="#D2AC2B" d="M15.153,15.186c0.049,0.004,0.098,0.014,0.146,0.021c-0.001-0.01-0.002-0.02-0.002-0.029
			c0.001-0.01,0.004-0.02,0.007-0.028l-0.423-0.038c0.001,0.011,0.003,0.021,0.001,0.031c0,0.01-0.004,0.019-0.006,0.028
			c0.043-0.001,0.095-0.001,0.153,0.004l-0.038,0.424c0.021,0.001,0.042,0,0.062,0.002c0.02,0.003,0.041,0.007,0.061,0.009
			L15.153,15.186"/>
		<path fill-rule="evenodd" clip-rule="evenodd" fill="#D2AC2B" d="M15.544,15.252c0.049,0.011,0.109,0.02,0.109,0.078
			c0,0.016-0.001,0.025-0.003,0.035c-0.016,0.068-0.066,0.094-0.148,0.066L15.544,15.252 M15.326,15.65
			c0.02,0.003,0.04,0.006,0.061,0.01c0.019,0.004,0.04,0.012,0.059,0.018l0.049-0.217l0.006,0.002
			c0.012,0.029,0.026,0.065,0.035,0.086l0.063,0.164c0.024,0.004,0.049,0.008,0.073,0.014s0.048,0.014,0.073,0.02l-0.022-0.049
			c-0.035-0.074-0.069-0.146-0.099-0.222c0.078,0.003,0.138-0.026,0.153-0.093c0.011-0.047-0.007-0.082-0.048-0.113
			c-0.03-0.021-0.089-0.034-0.127-0.043l-0.171-0.04L15.326,15.65z"/>
		<path fill-rule="evenodd" clip-rule="evenodd" fill="#D2AC2B" d="M16.005,15.67l0.147-0.102l-0.018,0.176L16.005,15.67
			 M16.131,15.791c-0.005,0.052-0.013,0.102-0.022,0.154c0.021,0.011,0.043,0.021,0.063,0.033c0.021,0.012,0.039,0.025,0.06,0.037
			l0.041-0.531c-0.01-0.004-0.02-0.008-0.028-0.014c-0.009-0.005-0.018-0.011-0.025-0.018l-0.445,0.298
			c0.013,0.005,0.024,0.012,0.037,0.019c0.011,0.007,0.02,0.014,0.032,0.021c0.038-0.034,0.078-0.06,0.122-0.095L16.131,15.791z"/>
		<path fill-rule="evenodd" clip-rule="evenodd" fill="#ED1A3B" d="M16.559,17.703c0.029-0.095-0.276-0.283-0.708-0.451
			c-0.198-0.074-0.361-0.153-0.563-0.247c-0.602-0.28-1.045-0.603-0.99-0.72l0.006-0.012c-0.032,0.027-0.082,0.605-0.082,0.605
			c-0.055,0.108,0.352,0.426,0.905,0.705c0.178,0.089,0.551,0.235,0.728,0.3c0.316,0.116,0.629,0.335,0.601,0.415L16.559,17.703z"/>
	</g>
	<g>
		<g>
			<path fill="#BCBEC0" d="M13.732,19.214c0,0.675-0.371,1.265-0.931,1.558c-0.759,0.392-1.647,0.628-2.559,0.628
				c-0.911,0-1.813-0.236-2.572-0.628c-0.56-0.293-0.93-0.883-0.93-1.558v-2.448h6.992"/>
			<rect x="10.232" y="12.682" fill="#BCBEC0" width="3.504" height="4.097"/>
			<rect x="6.74" y="12.682" fill="#ED1A3B" width="3.494" height="4.097"/>
			<g>
				<path fill="#ED1A3B" d="M10.235,19.229c0,0.967-0.776,1.752-1.744,1.752c-0.967,0-1.751-0.785-1.751-1.752v-2.453h3.496V19.229"
					/>
				<path fill="#D2AC2B" d="M6.74,19.229c0,0.419,0.147,0.804,0.394,1.105v-3.559H6.74V19.229z M9.842,16.775v3.562
					c0.246-0.303,0.394-0.688,0.394-1.109v-2.453H9.842z M9.062,20.883c0.146-0.05,0.284-0.119,0.409-0.204v-3.903H9.062V20.883z
					 M8.283,20.967c0.068,0.008,0.138,0.014,0.208,0.014c0.068,0,0.135-0.006,0.201-0.012v-4.193H8.283V20.967z M7.503,20.675
					c0.126,0.086,0.263,0.155,0.409,0.207v-4.106H7.503V20.675z"/>
			</g>
			<path fill="#ED1A3B" d="M13.74,16.775v2.453c0,0.967-0.786,1.752-1.753,1.752s-1.751-0.785-1.751-1.752v-2.453H13.74z"/>
			<path fill="#ED1A3B" d="M12.019,13.691l0.004-0.045l0.006-0.025c0,0-0.113,0.01-0.171-0.008
				c-0.059-0.018-0.112-0.043-0.167-0.092c-0.055-0.049-0.077-0.081-0.116-0.087c-0.094-0.016-0.167,0.03-0.167,0.03
				s0.071,0.027,0.124,0.096c0.053,0.069,0.111,0.104,0.136,0.113c0.041,0.014,0.185,0.004,0.225,0.005
				C11.93,13.679,12.019,13.691,12.019,13.691z"/>
			<path fill-rule="evenodd" clip-rule="evenodd" fill="#F173AC" d="M12.543,13.525c0,0,0,0.053,0.005,0.103
				c0.004,0.048-0.015,0.091-0.007,0.118c0.007,0.027,0.011,0.048,0.021,0.068c0.01,0.02,0.015,0.068,0.015,0.068
				s-0.027-0.019-0.052-0.039c-0.024-0.021-0.042-0.032-0.042-0.032s0.005,0.052,0.007,0.075c0.003,0.023,0.016,0.066,0.036,0.091
				c0.021,0.025,0.061,0.066,0.073,0.099s0.01,0.105,0.01,0.105s-0.032-0.055-0.06-0.065c-0.028-0.009-0.088-0.045-0.088-0.045
				s0.056,0.058,0.056,0.114c0,0.055-0.023,0.118-0.023,0.118s-0.025-0.05-0.058-0.083s-0.078-0.065-0.078-0.065
				s0.035,0.086,0.035,0.144c0,0.058-0.01,0.182-0.01,0.182s-0.028-0.048-0.056-0.07c-0.028-0.022-0.06-0.043-0.07-0.058
				c-0.009-0.015,0.033,0.047,0.038,0.085c0.004,0.038,0.021,0.173,0.134,0.346c0.065,0.101,0.166,0.276,0.383,0.219
				c0.216-0.059,0.136-0.366,0.091-0.509s-0.068-0.302-0.066-0.357c0.003-0.056,0.041-0.22,0.036-0.25
				c-0.005-0.03-0.017-0.146,0.01-0.241c0.028-0.099,0.051-0.137,0.066-0.177c0.015-0.04,0.027-0.062,0.033-0.098
				c0.005-0.035,0.005-0.101,0.005-0.101s0.04,0.078,0.05,0.105c0.01,0.028,0.01,0.111,0.01,0.111s0.008-0.083,0.068-0.124
				c0.06-0.04,0.131-0.083,0.148-0.105c0.018-0.022,0.023-0.039,0.023-0.039s-0.005,0.142-0.043,0.197
				c-0.024,0.037-0.124,0.153-0.124,0.153s0.05-0.02,0.086-0.022c0.035-0.003,0.06,0,0.06,0s-0.043,0.035-0.098,0.121
				c-0.056,0.085-0.033,0.093-0.073,0.164c-0.041,0.071-0.073,0.073-0.124,0.116c-0.075,0.064-0.035,0.32-0.025,0.357
				c0.01,0.038,0.141,0.35,0.144,0.426c0.002,0.076,0.015,0.244-0.111,0.354c-0.082,0.069-0.214,0.07-0.244,0.09
				c-0.03,0.021-0.091,0.084-0.091,0.215s0.045,0.15,0.081,0.184s0.081,0.016,0.09,0.041c0.01,0.024,0.016,0.039,0.03,0.055
				c0.016,0.016,0.025,0.033,0.021,0.061s-0.062,0.091-0.083,0.137c-0.02,0.045-0.06,0.163-0.06,0.182
				c0,0.017-0.005,0.072,0.013,0.1c0,0,0.062,0.078,0.02,0.094c-0.028,0.01-0.055-0.02-0.068-0.016
				c-0.038,0.01-0.058,0.035-0.068,0.033c-0.025-0.004-0.025-0.018-0.028-0.056c-0.002-0.037-0.001-0.053-0.012-0.053
				c-0.015,0-0.023,0.013-0.025,0.032c-0.002,0.021-0.002,0.066-0.021,0.066c-0.017,0-0.042-0.033-0.057-0.041
				c-0.016-0.007-0.059-0.015-0.061-0.035c-0.002-0.02,0.025-0.062,0.053-0.07c0.027-0.008,0.052-0.022,0.035-0.038
				c-0.018-0.015-0.035-0.015-0.053,0c-0.018,0.016-0.056,0.003-0.053-0.021c0.002-0.021,0.007-0.049,0.005-0.062
				c-0.003-0.013-0.033-0.038,0.007-0.061c0.041-0.021,0.058,0.021,0.098,0.014c0.041-0.008,0.061-0.023,0.076-0.049
				c0.016-0.025,0.012-0.078-0.015-0.111c-0.028-0.032-0.055-0.037-0.065-0.058c-0.011-0.02-0.025-0.067-0.025-0.067
				s0.008,0.088,0.003,0.1c-0.005,0.014-0.003,0.066-0.003,0.066s-0.027-0.033-0.05-0.059s-0.045-0.101-0.045-0.101
				s-0.002,0.07-0.002,0.099c0,0.027,0.03,0.053,0.02,0.062c-0.01,0.01-0.058-0.053-0.071-0.062c-0.012-0.01-0.052-0.043-0.07-0.078
				c-0.018-0.035-0.03-0.085-0.035-0.104c-0.005-0.018-0.013-0.096-0.005-0.115c0.013-0.03,0.033-0.084,0.033-0.084
				s-0.046,0-0.098,0c-0.053,0-0.091-0.018-0.111,0.02c-0.02,0.039-0.01,0.114,0.016,0.213c0.025,0.098,0.04,0.146,0.033,0.164
				c-0.008,0.018-0.041,0.057-0.053,0.064c-0.012,0.008-0.048,0.006-0.062-0.002c-0.015-0.008-0.041-0.021-0.089-0.021
				c-0.047,0-0.078,0.004-0.096-0.001c-0.017-0.006-0.06-0.028-0.08-0.022c-0.021,0.004-0.055,0.023-0.045,0.053
				c0.015,0.045-0.015,0.055-0.036,0.053c-0.02-0.003-0.037-0.01-0.063-0.018c-0.025-0.008-0.063,0-0.058-0.03
				c0.005-0.03,0.016-0.034,0.028-0.056c0.013-0.022,0.018-0.037,0.003-0.039c-0.017-0.002-0.035-0.004-0.049,0.008
				c-0.014,0.012-0.036,0.038-0.053,0.027c-0.018-0.01-0.032-0.031-0.032-0.078s-0.047-0.088-0.003-0.087
				c0.043,0.003,0.098,0.036,0.108,0.011c0.009-0.025,0.003-0.038-0.02-0.058c-0.023-0.019-0.053-0.032-0.021-0.058
				c0.031-0.025,0.039-0.025,0.05-0.039c0.012-0.014,0.029-0.059,0.052-0.047c0.043,0.021,0.001,0.053,0.045,0.104
				c0.043,0.051,0.07,0.069,0.144,0.061c0.074-0.007,0.093-0.017,0.093-0.039c0-0.021-0.006-0.061-0.008-0.076
				c-0.002-0.016,0.009-0.073,0.009-0.073s-0.034,0.022-0.043,0.044c-0.01,0.021-0.03,0.059-0.03,0.059s-0.008-0.044-0.006-0.08
				c0.001-0.021,0.009-0.059,0.008-0.064c-0.002-0.021-0.016-0.07-0.016-0.07s-0.012,0.054-0.02,0.07
				c-0.008,0.016-0.013,0.078-0.013,0.078s-0.046-0.042-0.033-0.114c0.01-0.056-0.008-0.128,0.008-0.151
				c0.016-0.024,0.053-0.12,0.144-0.125c0.091-0.004,0.162,0.005,0.193,0.002c0.031-0.002,0.143-0.022,0.143-0.022
				s-0.207-0.113-0.253-0.147c-0.047-0.033-0.12-0.12-0.144-0.159c-0.023-0.039-0.045-0.117-0.045-0.117s-0.038,0.002-0.071,0.023
				c-0.033,0.019-0.067,0.049-0.087,0.072c-0.019,0.023-0.051,0.077-0.051,0.077s0.006-0.068,0.006-0.09
				c0-0.022-0.004-0.063-0.004-0.063s-0.023,0.094-0.071,0.129c-0.046,0.036-0.102,0.085-0.102,0.085s0.006-0.053,0.006-0.065
				c0-0.012,0.011-0.073,0.011-0.073s-0.033,0.053-0.084,0.063c-0.051,0.009-0.126,0.007-0.132,0.041
				c-0.005,0.033,0.014,0.079,0.002,0.102c-0.012,0.023-0.037,0.04-0.037,0.04s-0.03-0.026-0.055-0.027
				c-0.026-0.002-0.05,0.011-0.05,0.011s-0.021-0.029-0.014-0.05c0.008-0.019,0.047-0.048,0.037-0.06
				c-0.01-0.012-0.041,0.003-0.061,0.014c-0.02,0.01-0.061,0.019-0.057-0.014c0.004-0.034,0.014-0.054,0.004-0.077
				s-0.004-0.039,0.012-0.045c0.016-0.005,0.079,0.002,0.085-0.014c0.005-0.016-0.017-0.035-0.058-0.045
				c-0.041-0.01-0.061-0.035-0.04-0.057c0.022-0.021,0.028-0.027,0.037-0.047c0.011-0.021,0.014-0.056,0.051-0.038
				c0.038,0.017,0.03,0.061,0.069,0.075c0.04,0.014,0.132-0.005,0.152-0.018c0.019-0.012,0.083-0.062,0.104-0.073
				c0.022-0.012,0.112-0.083,0.112-0.083s-0.053-0.04-0.073-0.06c-0.02-0.019-0.055-0.066-0.072-0.077
				c-0.018-0.009-0.104-0.045-0.134-0.046c-0.029-0.002-0.12-0.036-0.12-0.036s0.042-0.014,0.055-0.026
				c0.014-0.012,0.046-0.042,0.061-0.04c0.016,0.003,0.02,0.003,0.02,0.003s-0.085-0.004-0.103-0.01
				c-0.017-0.005-0.069-0.039-0.088-0.039c-0.021,0-0.06,0.007-0.06,0.007s0.054-0.035,0.097-0.043
				c0.043-0.007,0.077-0.006,0.077-0.006s-0.066-0.019-0.083-0.043c-0.016-0.024-0.031-0.06-0.043-0.075
				c-0.011-0.015-0.02-0.042-0.042-0.043c-0.021-0.002-0.059,0.028-0.08,0.025c-0.021-0.002-0.038-0.016-0.04-0.05
				c-0.002-0.033,0-0.021-0.008-0.039c-0.007-0.018-0.039-0.06-0.01-0.069c0.03-0.01,0.092,0.006,0.099-0.006
				c0.005-0.012-0.034-0.047-0.059-0.061c-0.026-0.013-0.067-0.037-0.045-0.057c0.021-0.02,0.043-0.027,0.055-0.045
				c0.011-0.018,0.025-0.067,0.051-0.051c0.026,0.016,0.061,0.093,0.081,0.086c0.02-0.006,0.021-0.061,0.018-0.084
				c-0.004-0.024,0-0.065,0.02-0.062c0.02,0.004,0.036,0.032,0.067,0.034c0.032,0.001,0.079-0.008,0.075,0.015
				c-0.004,0.024-0.022,0.053-0.043,0.08c-0.021,0.025-0.032,0.076-0.018,0.11c0.014,0.033,0.048,0.086,0.081,0.109
				c0.031,0.021,0.09,0.037,0.128,0.062c0.037,0.026,0.124,0.099,0.153,0.107c0.03,0.007,0.059,0.023,0.059,0.023
				s0.034-0.016,0.079-0.016s0.15,0.007,0.189-0.01c0.04-0.017,0.09-0.046,0.074-0.084c-0.015-0.038-0.102-0.071-0.094-0.1
				c0.008-0.03,0.039-0.031,0.092-0.034c0.053-0.002,0.125,0.01,0.14-0.068c0.013-0.079,0.017-0.125-0.058-0.142
				c-0.074-0.018-0.129-0.02-0.144-0.077c-0.014-0.057-0.028-0.071-0.011-0.086c0.016-0.016,0.043-0.023,0.098-0.028
				c0.056-0.004,0.118-0.004,0.136-0.018c0.018-0.014,0.022-0.051,0.043-0.067c0.022-0.015,0.106-0.029,0.106-0.029
				s0.101,0.052,0.196,0.126C12.467,13.427,12.543,13.525,12.543,13.525z"/>
			<path fill-rule="evenodd" clip-rule="evenodd" fill="#ED1A3B" d="M11.04,13.458c0,0,0.033,0.024,0.059,0.029
				c0.026,0.003,0.054,0.003,0.057,0.003c0.004,0,0.012-0.039,0.007-0.066c-0.014-0.089-0.091-0.108-0.091-0.108
				s0.024,0.054,0.013,0.079C11.07,13.43,11.04,13.458,11.04,13.458z"/>
			<path fill-rule="evenodd" clip-rule="evenodd" fill="#ED1A3B" d="M10.88,13.534c0,0-0.029-0.058-0.092-0.049
				c-0.063,0.008-0.104,0.059-0.104,0.059s0.069-0.002,0.086,0.01c0.026,0.018,0.033,0.063,0.033,0.063s0.038-0.023,0.049-0.039
				C10.865,13.562,10.88,13.534,10.88,13.534z"/>
			<path fill-rule="evenodd" clip-rule="evenodd" fill="#ED1A3B" d="M10.804,13.764c0,0-0.053,0.008-0.083,0.043
				c-0.029,0.035-0.025,0.102-0.025,0.102s0.036-0.039,0.067-0.039c0.031,0,0.081,0.011,0.081,0.011s-0.016-0.041-0.016-0.059
				C10.828,13.805,10.804,13.764,10.804,13.764z"/>
			<path fill-rule="evenodd" clip-rule="evenodd" fill="#ED1A3B" d="M10.983,14.507c0,0-0.03-0.033-0.081-0.023
				s-0.084,0.071-0.084,0.071s0.042-0.012,0.069-0.006c0.025,0.006,0.042,0.033,0.042,0.033s0.023-0.021,0.032-0.033
				C10.969,14.537,10.983,14.507,10.983,14.507z"/>
			<path fill="#ED1A3B" d="M10.924,14.726c0,0-0.044-0.007-0.081,0.024c-0.037,0.031-0.04,0.093-0.04,0.093s0.036-0.032,0.063-0.027
				c0.028,0.003,0.062,0.019,0.062,0.019s0.006-0.038,0.007-0.047C10.942,14.76,10.924,14.726,10.924,14.726z"/>
			<path fill="#ED1A3B" d="M11.024,14.928c0,0-0.002,0.058,0.024,0.094c0.028,0.037,0.079,0.044,0.079,0.044s-0.018-0.04-0.02-0.059
				c-0.003-0.03,0.024-0.055,0.024-0.055s-0.025-0.027-0.051-0.027C11.054,14.924,11.024,14.928,11.024,14.928z"/>
			<path fill-rule="evenodd" clip-rule="evenodd" fill="#ED1A3B" d="M11.536,15.445c0,0-0.035-0.047-0.084-0.046
				c-0.049,0.003-0.1,0.051-0.1,0.051s0.061-0.005,0.076,0.017c0.016,0.021,0.031,0.049,0.031,0.049s0.028-0.016,0.04-0.025
				S11.536,15.445,11.536,15.445z"/>
			<path fill-rule="evenodd" clip-rule="evenodd" fill="#ED1A3B" d="M11.385,15.651c0,0-0.065-0.01-0.096,0.026
				c-0.032,0.035-0.03,0.1-0.03,0.1s0.04-0.045,0.075-0.041s0.075,0.023,0.075,0.023s-0.006-0.039-0.009-0.057
				C11.395,15.686,11.385,15.651,11.385,15.651z"/>
			<path fill-rule="evenodd" clip-rule="evenodd" fill="#ED1A3B" d="M11.525,15.87c0,0-0.032,0.048-0.009,0.085
				c0.024,0.037,0.073,0.055,0.073,0.055s-0.018-0.027-0.01-0.059c0.006-0.025,0.047-0.061,0.047-0.061L11.525,15.87z"/>
			<path fill-rule="evenodd" clip-rule="evenodd" fill="#ED1A3B" d="M12.389,15.959c0,0-0.057-0.014-0.088,0.006
				c-0.032,0.02-0.057,0.103-0.057,0.103s0.051-0.046,0.088-0.04s0.065,0.022,0.065,0.022s0.005-0.034,0.001-0.058
				C12.396,15.979,12.389,15.959,12.389,15.959z"/>
			<path fill-rule="evenodd" clip-rule="evenodd" fill="#ED1A3B" d="M12.416,16.18c0,0-0.043,0.047-0.027,0.086
				c0.016,0.039,0.043,0.08,0.043,0.08s-0.002-0.059,0.015-0.073c0.026-0.024,0.073-0.028,0.073-0.028s-0.037-0.035-0.05-0.039
				C12.46,16.201,12.416,16.18,12.416,16.18z"/>
			<path fill-rule="evenodd" clip-rule="evenodd" fill="#ED1A3B" d="M12.632,16.248c0,0-0.021,0.057,0.02,0.094
				c0.041,0.038,0.077,0.043,0.077,0.043s-0.032-0.06-0.022-0.092c0.01-0.033,0.038-0.053,0.038-0.053s-0.051-0.018-0.059-0.016
				C12.678,16.227,12.632,16.248,12.632,16.248z"/>
			<path fill-rule="evenodd" clip-rule="evenodd" fill="#FFE3A6" d="M10.416,20.329c0.146,0.046,0.219,0.161,0.219,0.296
				c0,0.175-0.16,0.306-0.369,0.306c-0.208,0-0.377-0.131-0.377-0.306c0-0.133,0.07-0.28,0.215-0.291c0,0-0.004-0.015-0.017-0.036
				c-0.015-0.017-0.045-0.049-0.045-0.049s0.056-0.012,0.087,0.002c0.032,0.013,0.053,0.035,0.053,0.035s0.016-0.033,0.037-0.056
				c0.021-0.025,0.049-0.041,0.049-0.041s0.032,0.029,0.042,0.048c0.01,0.021,0.017,0.044,0.017,0.044s0.029-0.026,0.055-0.037
				s0.059-0.019,0.059-0.019s-0.01,0.034-0.016,0.051S10.416,20.329,10.416,20.329z"/>
			<path fill="#009B79" d="M10.235,21.121c0,0-0.277-0.196-0.397-0.224c-0.153-0.034-0.326-0.006-0.4-0.01
				c0.002,0.001,0.089,0.067,0.128,0.108c0.038,0.04,0.166,0.121,0.239,0.14C10.028,21.195,10.235,21.121,10.235,21.121z"/>
			<path fill="#009B79" d="M10.314,21.139c0,0,0.178-0.195,0.364-0.222c0.22-0.032,0.363,0.02,0.448,0.043
				c0.002,0-0.07,0.036-0.108,0.063c-0.038,0.028-0.137,0.115-0.289,0.116c-0.151,0.003-0.318-0.016-0.346-0.012
				C10.355,21.133,10.314,21.139,10.314,21.139z"/>
			<path fill="#ED1A3B" d="M10.261,20.897c-0.07-0.069-0.113-0.165-0.113-0.273c0-0.107,0.043-0.205,0.113-0.272
				c0.07,0.067,0.112,0.165,0.112,0.272C10.374,20.732,10.331,20.828,10.261,20.897z"/>
			<path fill-rule="evenodd" clip-rule="evenodd" fill="#009B79" d="M10.19,21.298c0,0,0.042-0.113,0.047-0.208
				c0.004-0.082-0.011-0.16-0.011-0.16s0.024,0,0.037,0c0.012,0,0.019,0,0.019,0s0.028,0.085,0.028,0.16
				c0,0.074-0.013,0.173-0.013,0.173s-0.038,0.008-0.05,0.014C10.233,21.281,10.19,21.298,10.19,21.298z"/>
			<rect x="10.086" y="17.364" fill="#D2AC2B" width="0.303" height="0.077"/>
			
				<rect x="10.086" y="17.364" fill="none" stroke="#000000" stroke-width="0.3389" stroke-miterlimit="3.864" width="0.303" height="0.077"/>
			<path fill="#D2AC2B" d="M9.204,15.686v-1.074H9.34v-0.479H9.108v-0.337h0.101v-0.243h-0.09v0.071H9.023v-0.071H8.917v0.071H8.816
				v-0.071H8.73v0.243h0.096v0.337H8.635v-0.721h0.131v-0.277H8.681v0.071H8.569v-0.071H8.428v0.071H8.322v-0.071H8.237v0.277h0.116
				v0.721H8.156v-0.337h0.102v-0.243H8.167v0.071H8.071v-0.071H7.965v0.071H7.869v-0.071h-0.09v0.243h0.095v0.337H7.658v0.479h0.131
				v1.074H7.507v0.523h0.801l0-0.324c0-0.104,0.08-0.189,0.186-0.189c0.104,0,0.189,0.085,0.189,0.189v0.324h0.798v-0.523H9.204z
				 M8.159,15.177H7.987l0-0.209c0-0.05,0.038-0.091,0.085-0.091c0.048,0,0.087,0.041,0.087,0.091V15.177z M9.007,15.177H8.834
				l0-0.209c0-0.05,0.037-0.091,0.085-0.091c0.047,0,0.087,0.041,0.087,0.091V15.177z"/>
			<circle fill="#FFFFFF" cx="12.155" cy="13.383" r="0.039"/>
			<polygon fill-rule="evenodd" clip-rule="evenodd" points="11.82,13.756 11.844,13.717 11.867,13.753 			"/>
			<polygon fill-rule="evenodd" clip-rule="evenodd" points="11.877,13.754 11.904,13.714 11.934,13.75 			"/>
			<polygon points="11.851,13.512 11.909,13.534 11.857,13.562 			"/>
			<polygon points="11.92,13.531 11.971,13.545 11.93,13.579 			"/>
			<path fill="#D2AC2B" d="M12.812,13.452c-0.028-0.021-0.062,0.016-0.062,0.016s0,0-0.001,0.001l-0.007-0.053l-0.04,0.001
				l-0.021,0.035l0.03,0.02c-0.034,0.001-0.085-0.004-0.084-0.033c0.001-0.007,0.005-0.013,0.005-0.013c0,0-0.014,0-0.02-0.005
				c-0.014-0.009-0.014-0.032,0-0.05l0.013-0.01v-0.012l0.019,0.053l0.039-0.01l0.012-0.039l-0.045-0.02l0.052-0.018l-0.008-0.041
				l-0.04-0.01l-0.022,0.05l-0.017-0.046l-0.038,0.01l-0.013,0.038l0.048,0.021l-0.011,0.002c-0.002,0.003-0.007,0.006-0.011,0.01
				c-0.019,0.018-0.045,0.018-0.06,0.003c-0.009-0.009-0.012-0.021-0.008-0.035c-0.011,0.003-0.022,0.002-0.032-0.003
				c-0.018-0.012-0.021-0.039-0.008-0.06c0.006-0.008,0.015-0.018,0.02-0.021l0.02,0.039l0.037-0.015l0.008-0.04l-0.048-0.013
				l0.049-0.025l-0.013-0.04l-0.041-0.004l-0.015,0.054l-0.023-0.044l-0.037,0.015l-0.007,0.039l0.047,0.013
				c-0.002,0.004-0.01,0.018-0.018,0.025c-0.018,0.018-0.045,0.02-0.059,0.004c-0.008-0.008-0.012-0.019-0.011-0.03
				c-0.011,0.006-0.024,0.006-0.035,0c-0.018-0.011-0.022-0.037-0.009-0.059c0.002-0.004,0.003-0.01,0.007-0.013l-0.001-0.01
				l0.03,0.042l0.034-0.02l0.001-0.04l-0.048-0.006l0.045-0.032L12.4,13.037l-0.042,0.001l-0.006,0.055l-0.029-0.041l-0.035,0.02
				l0,0.041l0.056,0.007l-0.013,0.002l-0.006,0.014c-0.015,0.018-0.038,0.023-0.049,0.012c-0.005-0.005-0.01-0.019-0.009-0.019
				c0,0-0.005,0.006-0.011,0.008c-0.029,0.007-0.044-0.042-0.05-0.076l0.026,0.024l0.03-0.026l-0.007-0.04L12.2,13.025
				c0-0.001,0.001-0.003,0.001-0.003s0.028-0.04,0.002-0.062c-0.032-0.021-0.058-0.012-0.06-0.007c0,0,0.021,0.018,0.027,0.031
				c0.008,0.018,0.016,0.049,0.017,0.052v0l-0.004,0.006l0.009,0.008l-0.003,0.005c0,0,0.011,0.052,0.005,0.096
				c-0.005,0.043-0.02,0.087-0.02,0.087c0.052,0.015,0.129,0.059,0.207,0.122s0.139,0.13,0.164,0.178c0,0,0.041-0.023,0.082-0.038
				c0.042-0.015,0.095-0.015,0.095-0.015l0.004-0.005l0.01,0.007l0.006-0.005c0.003,0.001,0.035,0.001,0.054,0.006
				c0.014,0.003,0.037,0.02,0.037,0.02C12.835,13.507,12.839,13.479,12.812,13.452z"/>
			<path fill-rule="evenodd" clip-rule="evenodd" fill="#D2AC2B" d="M13.185,18.494v-1.009c0.074-0.024,0.128-0.095,0.128-0.178
				c0-0.106-0.085-0.191-0.191-0.191c-0.082,0-0.152,0.053-0.179,0.127h-0.804c-0.026-0.074-0.096-0.127-0.178-0.127
				c-0.083,0-0.152,0.053-0.179,0.127h-0.803c-0.026-0.074-0.096-0.127-0.179-0.127c-0.106,0-0.191,0.085-0.191,0.191
				c0,0.083,0.053,0.153,0.128,0.178v1.009c-0.075,0.026-0.128,0.097-0.128,0.18s0.053,0.153,0.128,0.179v0.38
				c0,0.17,0.035,0.331,0.097,0.479c-0.033,0.033-0.054,0.079-0.054,0.131c0,0.104,0.086,0.191,0.191,0.191
				c0.019,0,0.036-0.003,0.053-0.01c0.187,0.224,0.451,0.379,0.752,0.427c0.022,0.082,0.095,0.142,0.184,0.142
				c0.089,0,0.162-0.06,0.184-0.142c0.301-0.048,0.564-0.203,0.751-0.427c0.017,0.007,0.035,0.01,0.053,0.01
				c0.105,0,0.19-0.087,0.19-0.191c0-0.052-0.02-0.097-0.052-0.131c0.062-0.147,0.097-0.309,0.097-0.479v-0.38
				c0.074-0.025,0.128-0.096,0.128-0.179S13.259,18.521,13.185,18.494z M13.122,17.229c0.044,0,0.079,0.034,0.079,0.078
				c0,0.043-0.035,0.079-0.079,0.079c-0.043,0-0.078-0.036-0.078-0.079C13.043,17.264,13.078,17.229,13.122,17.229z M13.047,17.482
				c0.002,0.002,0.005,0.002,0.009,0.003v1.01c-0.053,0.019-0.094,0.062-0.113,0.114H12.74l-0.021-0.118h-0.355l-0.021,0.118h-0.203
				c-0.005-0.015-0.011-0.03-0.02-0.042l0.303-0.354l0.103,0.061l0.231-0.269l-0.076-0.094L13.047,17.482z M12.633,18.609v0.13
				h-0.185v-0.13H12.633z M12.394,18.048l0.121-0.14l0.097,0.083l-0.12,0.14L12.394,18.048z M12.139,17.372h0.804
				c0.003,0.008,0.006,0.016,0.01,0.022l-0.37,0.432l-0.105-0.061l-0.231,0.269l0.077,0.096l-0.3,0.349v-0.442l0.12-0.022V17.66
				l-0.12-0.022v-0.152C12.079,17.467,12.121,17.426,12.139,17.372z M11.896,17.929v-0.185h0.129v0.185H11.896z M11.961,17.229
				c0.043,0,0.078,0.034,0.078,0.078c0,0.043-0.035,0.079-0.078,0.079c-0.043,0-0.079-0.036-0.079-0.079
				C11.882,17.264,11.918,17.229,11.961,17.229z M12.025,19.593v0.185h-0.129v-0.185H12.025z M10.979,17.372h0.803
				c0.019,0.054,0.062,0.095,0.115,0.113v0.152l-0.119,0.022v0.354l0.119,0.022v0.444l-0.299-0.351l0.077-0.096l-0.231-0.269
				l-0.105,0.062l-0.369-0.433C10.972,17.388,10.976,17.38,10.979,17.372z M11.528,18.048l-0.097,0.083l-0.12-0.14l0.098-0.083
				L11.528,18.048z M11.24,17.911l-0.075,0.094l0.23,0.269l0.104-0.06l0.303,0.354c-0.009,0.013-0.016,0.026-0.021,0.041H11.58
				l-0.022-0.118h-0.354l-0.022,0.118h-0.203c-0.019-0.053-0.06-0.096-0.113-0.114v-1.01c0.003-0.001,0.006-0.001,0.009-0.002
				L11.24,17.911z M11.473,18.609v0.13h-0.184v-0.13H11.473z M10.722,17.308c0-0.044,0.035-0.078,0.079-0.078
				c0.043,0,0.079,0.034,0.079,0.078c0,0.043-0.036,0.079-0.079,0.079C10.757,17.387,10.722,17.351,10.722,17.308z M10.8,18.752
				c-0.043,0-0.079-0.034-0.079-0.078s0.035-0.078,0.079-0.078c0.043,0,0.079,0.034,0.079,0.078S10.843,18.752,10.8,18.752z
				 M10.972,19.921c-0.043,0-0.079-0.035-0.079-0.079c0-0.043,0.035-0.079,0.079-0.079s0.079,0.036,0.079,0.079
				C11.051,19.886,11.016,19.921,10.972,19.921z M11.018,19.658c-0.015-0.005-0.03-0.007-0.046-0.007
				c-0.008,0-0.015,0.001-0.021,0.002c-0.054-0.13-0.085-0.271-0.085-0.421v-0.381c0.053-0.02,0.094-0.061,0.113-0.113h0.203
				l0.022,0.12h0.354l0.022-0.12h0.202c0.002,0.005,0.005,0.012,0.008,0.017l-0.291,0.34l-0.103-0.061l-0.231,0.27l0.076,0.094
				L11.018,19.658z M11.527,19.261l-0.12,0.141l-0.098-0.085l0.121-0.14L11.527,19.261z M11.788,20.322
				c-0.262-0.044-0.493-0.18-0.658-0.374c0.02-0.03,0.033-0.067,0.033-0.106c0-0.042-0.014-0.081-0.038-0.112l0.212-0.248
				l0.105,0.061l0.23-0.267l-0.077-0.097l0.285-0.332c0.005,0.002,0.01,0.004,0.016,0.006v0.634l-0.119,0.021v0.354l0.119,0.022
				v0.338C11.849,20.24,11.809,20.274,11.788,20.322z M11.961,20.479c-0.043,0-0.079-0.034-0.079-0.078
				c0-0.043,0.036-0.078,0.079-0.078c0.043,0,0.078,0.035,0.078,0.078C12.039,20.445,12.004,20.479,11.961,20.479z M12.791,19.948
				c-0.165,0.194-0.395,0.33-0.657,0.374c-0.021-0.048-0.06-0.082-0.109-0.1v-0.338l0.12-0.022v-0.354l-0.12-0.021v-0.634
				c0.006-0.002,0.011-0.004,0.016-0.006l0.284,0.333l-0.077,0.096l0.231,0.267l0.105-0.059l0.211,0.246
				c-0.022,0.031-0.037,0.07-0.037,0.112C12.759,19.881,12.771,19.918,12.791,19.948z M12.394,19.261l0.099-0.084l0.12,0.14
				l-0.098,0.085L12.394,19.261z M12.95,19.921c-0.043,0-0.078-0.035-0.078-0.079c0-0.043,0.035-0.079,0.078-0.079
				c0.043,0,0.079,0.036,0.079,0.079C13.029,19.886,12.993,19.921,12.95,19.921z M13.056,19.232c0,0.15-0.031,0.291-0.084,0.421
				c-0.007-0.001-0.014-0.002-0.022-0.002c-0.016,0-0.031,0.002-0.046,0.007l-0.222-0.261l0.076-0.094l-0.23-0.27l-0.104,0.062
				l-0.291-0.34c0.003-0.006,0.005-0.013,0.007-0.018h0.202l0.022,0.12h0.355l0.022-0.12h0.202c0.019,0.053,0.061,0.094,0.113,0.113
				V19.232z M13.122,18.752c-0.043,0-0.078-0.034-0.078-0.078s0.035-0.078,0.078-0.078c0.044,0,0.079,0.034,0.079,0.078
				S13.166,18.752,13.122,18.752z"/>
			<path fill="#009B79" d="M11.77,18.674c0-0.105,0.085-0.189,0.19-0.189c0.105,0,0.19,0.084,0.19,0.189s-0.085,0.19-0.19,0.19
				C11.855,18.864,11.77,18.779,11.77,18.674"/>
			<ellipse fill="#ED1A3B" cx="10.243" cy="16.761" rx="1.132" ry="1.345"/>
			<ellipse fill="#0072BC" cx="10.243" cy="16.758" rx="0.796" ry="0.986"/>
			<path fill-rule="evenodd" clip-rule="evenodd" fill="#D2AC2B" d="M10.607,16.078c0,0-0.094,0.11-0.094,0.211
				c0,0.103,0.04,0.188,0.04,0.188c-0.015-0.041-0.053-0.07-0.098-0.07c-0.058,0-0.104,0.047-0.104,0.105
				c0,0.016,0.01,0.042,0.018,0.057l0.033,0.072c0.011-0.026,0.038-0.042,0.068-0.042c0.041,0,0.075,0.034,0.075,0.075
				c0,0.006-0.001,0.012-0.002,0.018h-0.085v0.076h0.075l-0.057,0.119l0.076-0.031l0.056,0.067l0.059-0.067l0.074,0.031
				l-0.056-0.119h0.076v-0.076h-0.085c-0.001-0.006-0.002-0.012-0.002-0.018c0-0.041,0.033-0.075,0.075-0.075
				c0.03,0,0.057,0.016,0.068,0.042l0.033-0.072c0.008-0.015,0.018-0.041,0.018-0.057c0-0.059-0.047-0.105-0.105-0.105
				c-0.044,0-0.083,0.029-0.097,0.07c0,0,0.04-0.085,0.04-0.188C10.705,16.188,10.607,16.078,10.607,16.078z"/>
			<path fill-rule="evenodd" clip-rule="evenodd" fill="#D2AC2B" d="M10.237,16.751c0,0-0.094,0.11-0.094,0.212
				s0.04,0.185,0.04,0.185c-0.014-0.039-0.053-0.068-0.098-0.068c-0.057,0-0.104,0.046-0.104,0.104c0,0.018,0.01,0.044,0.017,0.059
				l0.034,0.071c0.011-0.027,0.037-0.041,0.068-0.041c0.041,0,0.074,0.033,0.074,0.074c0,0.007,0,0.012-0.002,0.019h-0.085v0.077
				h0.076l-0.057,0.117l0.075-0.03l0.056,0.066l0.059-0.066l0.075,0.03l-0.057-0.117h0.075v-0.077h-0.084
				c-0.001-0.007-0.003-0.012-0.003-0.019c0-0.041,0.034-0.074,0.075-0.074c0.031,0,0.057,0.014,0.069,0.041l0.034-0.071
				c0.008-0.015,0.017-0.041,0.017-0.059c0-0.058-0.047-0.104-0.104-0.104c-0.046,0-0.084,0.029-0.098,0.068
				c0,0,0.039-0.083,0.039-0.185S10.237,16.751,10.237,16.751z"/>
			<path fill-rule="evenodd" clip-rule="evenodd" fill="#D2AC2B" d="M9.867,16.078c0,0-0.095,0.11-0.095,0.211
				c0,0.103,0.041,0.188,0.041,0.188c-0.015-0.041-0.053-0.07-0.099-0.07c-0.058,0-0.104,0.047-0.104,0.105
				c0,0.016,0.008,0.042,0.016,0.057l0.033,0.072c0.012-0.026,0.038-0.042,0.069-0.042c0.042,0,0.074,0.034,0.074,0.075
				c0,0.006,0,0.012-0.001,0.018H9.717v0.076h0.075l-0.056,0.119l0.074-0.031l0.057,0.067l0.059-0.067L10,16.887l-0.056-0.119h0.076
				v-0.076H9.935c-0.002-0.006-0.002-0.012-0.002-0.018c0-0.041,0.034-0.075,0.075-0.075c0.03,0,0.057,0.016,0.068,0.042
				l0.034-0.072c0.007-0.015,0.018-0.041,0.018-0.057c0-0.059-0.047-0.105-0.104-0.105c-0.045,0-0.084,0.029-0.099,0.07
				c0,0,0.04-0.085,0.04-0.188C9.964,16.188,9.867,16.078,9.867,16.078z"/>
		</g>
		<g>
			<path fill="#ED1A3B" d="M12.423,9.511c-0.15,0-0.292,0.03-0.423,0.085c-0.221-0.287-0.566-0.473-0.957-0.473
				c-0.31,0-0.591,0.118-0.804,0.31c-0.213-0.191-0.495-0.31-0.804-0.31c-0.39,0-0.736,0.186-0.957,0.473
				c-0.13-0.055-0.273-0.085-0.422-0.085c-0.601,0-1.088,0.487-1.088,1.088c0,0.6,0.487,1.087,1.088,1.087
				c0.076,0,0.149-0.007,0.221-0.022v0.285h3.924v-0.285c0.072,0.015,0.146,0.022,0.222,0.022c0.601,0,1.088-0.487,1.088-1.087
				C13.512,9.998,13.024,9.511,12.423,9.511z"/>
			<path fill="#D2AC2B" d="M8.364,10.472c-0.178-0.176-0.279-0.462-0.279-0.707l0,0C8.086,9.22,8.596,8.792,9.213,8.792l0,0
				c0.618,0.001,1.128,0.428,1.13,0.973l0,0c0,0.031-0.025,0.057-0.057,0.057l0,0c-0.031,0-0.056-0.026-0.056-0.057l0,0
				c-0.001-0.468-0.449-0.86-1.017-0.86l0,0c-0.567,0-1.015,0.393-1.016,0.86l0,0c-0.001,0.214,0.096,0.481,0.245,0.626l0,0
				c0.022,0.022,0.023,0.058,0.001,0.081l0,0c-0.011,0.011-0.025,0.016-0.04,0.016l0,0C8.389,10.488,8.375,10.482,8.364,10.472
				L8.364,10.472z"/>
			<path fill="#D2AC2B" d="M12.054,10.474c-0.022-0.023-0.021-0.059,0.001-0.08l0,0c0.15-0.146,0.249-0.414,0.248-0.629l0,0
				c-0.001-0.468-0.448-0.86-1.016-0.86l0,0c-0.568,0-1.016,0.392-1.017,0.86l0,0c0,0.031-0.025,0.057-0.057,0.057l0,0
				c-0.031,0-0.057-0.026-0.057-0.057l0,0c0.001-0.545,0.512-0.972,1.13-0.973l0,0c0.617,0.001,1.128,0.428,1.129,0.973l0,0
				c-0.001,0.247-0.104,0.533-0.282,0.709l0,0c-0.011,0.011-0.025,0.017-0.04,0.017l0,0C12.079,10.49,12.064,10.485,12.054,10.474
				L12.054,10.474z"/>
			<circle fill="#0173B9" cx="10.24" cy="8.803" r="0.281"/>
			<polygon fill="#D2AC2B" points="10.336,8.723 10.336,8.333 10.529,8.333 10.529,8.14 10.336,8.14 10.336,7.948 10.143,7.948 
				10.143,8.14 9.951,8.14 9.951,8.333 10.143,8.333 10.143,8.723 9.946,8.723 9.946,8.86 10.534,8.86 10.534,8.723 			"/>
			<circle fill="#FFFFFF" cx="10.24" cy="9.533" r="0.178"/>
			<path fill="#D2AC2B" d="M12.334,11.513c-0.023-0.102-0.06-0.18-0.1-0.238c0.058,0.032,0.132,0.057,0.228,0.057
				c0.271,0,0.382-0.199,0.382-0.199s-0.112-0.197-0.382-0.197c-0.111,0-0.194,0.033-0.255,0.073
				c0.041-0.062,0.077-0.147,0.077-0.261c0-0.27-0.199-0.382-0.199-0.382s-0.197,0.112-0.197,0.382c0,0.114,0.035,0.2,0.076,0.261
				c-0.061-0.04-0.144-0.073-0.255-0.073c-0.27,0-0.382,0.197-0.382,0.197s0.113,0.199,0.382,0.199c0.096,0,0.17-0.025,0.228-0.057
				c-0.04,0.058-0.077,0.136-0.1,0.238H10.51c-0.006-0.198-0.061-0.333-0.121-0.422c0.058,0.032,0.132,0.057,0.228,0.057
				c0.271,0,0.382-0.198,0.382-0.198s-0.112-0.198-0.382-0.198c-0.111,0-0.194,0.034-0.255,0.073
				c0.041-0.061,0.077-0.146,0.077-0.26c0-0.209-0.119-0.324-0.172-0.365c0.082-0.058,0.337-0.271,0.337-0.674
				c0-0.479-0.363-0.69-0.363-0.69s-0.364,0.211-0.364,0.69c0,0.403,0.256,0.616,0.338,0.674c-0.054,0.041-0.172,0.155-0.172,0.365
				c0,0.114,0.035,0.199,0.076,0.26c-0.061-0.039-0.145-0.073-0.255-0.073c-0.27,0-0.382,0.198-0.382,0.198s0.113,0.198,0.382,0.198
				c0.095,0,0.17-0.025,0.228-0.057c-0.06,0.088-0.115,0.224-0.122,0.422H8.643c-0.022-0.102-0.061-0.18-0.099-0.238
				c0.057,0.032,0.132,0.057,0.227,0.057c0.271,0,0.382-0.199,0.382-0.199s-0.111-0.197-0.382-0.197
				c-0.11,0-0.194,0.033-0.255,0.073c0.041-0.062,0.077-0.147,0.077-0.261c0-0.27-0.198-0.382-0.198-0.382s-0.198,0.112-0.198,0.382
				c0,0.114,0.036,0.2,0.077,0.261c-0.061-0.04-0.145-0.073-0.255-0.073c-0.27,0-0.382,0.197-0.382,0.197s0.113,0.199,0.382,0.199
				c0.095,0,0.169-0.025,0.228-0.057c-0.04,0.058-0.077,0.136-0.1,0.238H7.476l0.113,0.993h5.307l0.113-0.993H12.334z"/>
			<g>
				<circle fill="#009B79" cx="8.128" cy="12.041" r="0.237"/>
				<circle fill="#FFFFFF" cx="9.18" cy="12.041" r="0.237"/>
				<circle fill="#ED1A3B" cx="10.233" cy="12.041" r="0.237"/>
				<circle fill="#009B79" cx="12.338" cy="12.041" r="0.237"/>
				<circle fill="#FFFFFF" cx="11.285" cy="12.041" r="0.236"/>
			</g>
			<g>
				<g>
					<circle fill="#ED1A3B" cx="10.24" cy="10.971" r="0.162"/>
				</g>
				<g>
					<circle fill="#ED1A3B" cx="8.394" cy="11.156" r="0.162"/>
				</g>
				<g>
					<circle fill="#ED1A3B" cx="12.085" cy="11.156" r="0.162"/>
				</g>
			</g>
		</g>
	</g>
</g>
</svg>
