<?xml version="1.0" encoding="utf-8"?>
<!-- Generator: Adobe Illustrator 16.0.0, SVG Export Plug-In . SVG Version: 6.00 Build 0)  -->
<!DOCTYPE svg PUBLIC "-//W3C//DTD SVG 1.1//EN" "http://www.w3.org/Graphics/SVG/1.1/DTD/svg11.dtd">
<svg version="1.1" id="Layer_1" xmlns="http://www.w3.org/2000/svg" xmlns:xlink="http://www.w3.org/1999/xlink" x="0px" y="0px"
	 width="30px" height="30px" viewBox="0 0 30 30" enable-background="new 0 0 30 30" xml:space="preserve">
<circle fill="#E5E5E4" cx="15.1" cy="15" r="14.126"/>
<g>
	<path fill="#FFFFFF" d="M5.962,14.392l-0.18,0.224c-0.133-0.144-0.323-0.232-0.508-0.232c-0.365,0-0.652,0.281-0.652,0.641
		s0.287,0.645,0.652,0.645c0.182,0,0.37-0.083,0.508-0.216l0.183,0.204c-0.185,0.182-0.448,0.299-0.707,0.299
		c-0.535,0-0.949-0.404-0.949-0.928c0-0.519,0.42-0.918,0.959-0.918C5.527,14.11,5.786,14.217,5.962,14.392z"/>
	<path fill="#FFFFFF" d="M8.022,15.031c0,0.521-0.423,0.925-0.967,0.925c-0.545,0-0.968-0.404-0.968-0.925
		c0-0.524,0.422-0.921,0.968-0.921C7.6,14.11,8.022,14.509,8.022,15.031z M6.4,15.031c0,0.362,0.3,0.648,0.657,0.648
		c0.358,0,0.65-0.287,0.65-0.648c0-0.363-0.292-0.646-0.65-0.646C6.698,14.387,6.4,14.668,6.4,15.031z"/>
	<path fill="#FFFFFF" d="M9.996,15.943L9.993,14.58l-0.576,1.173H9.216L8.64,14.58v1.363H8.35v-1.825h0.365l0.603,1.213l0.6-1.213
		h0.363v1.825H9.996z"/>
	<path fill="#FFFFFF" d="M11.489,14.118c0.459,0,0.722,0.227,0.722,0.623c0,0.412-0.263,0.652-0.722,0.652h-0.42v0.55h-0.308v-1.825
		H11.489z M11.069,15.117h0.407c0.282,0,0.441-0.12,0.441-0.368c0-0.24-0.159-0.354-0.441-0.354h-0.407V15.117z"/>
	<path fill="#FFFFFF" d="M12.66,15.532l-0.175,0.411h-0.321l0.806-1.824h0.315l0.798,1.824h-0.329l-0.175-0.411H12.66z
		 M13.119,14.447l-0.344,0.811h0.688L13.119,14.447z"/>
	<path fill="#FFFFFF" d="M15.605,15.943l-0.973-1.31v1.31h-0.308v-1.825h0.303l0.979,1.312v-1.312h0.303v1.825H15.605z"/>
	<path fill="#FFFFFF" d="M17.139,15.943h-0.306v-0.597l-0.681-1.228h0.312l0.521,0.889l0.513-0.889h0.312l-0.672,1.218v0.607H17.139
		z"/>
	<path fill="#FFFFFF" d="M19.82,15.665v0.278h-1.098v-1.825h0.307v1.547H19.82z"/>
	<path fill="#FFFFFF" d="M21.898,15.031c0,0.521-0.422,0.925-0.967,0.925s-0.969-0.404-0.969-0.925c0-0.524,0.424-0.921,0.969-0.921
		S21.898,14.509,21.898,15.031z M20.275,15.031c0,0.362,0.302,0.648,0.658,0.648c0.357,0,0.648-0.287,0.648-0.648
		c0-0.363-0.291-0.646-0.648-0.646C20.575,14.387,20.275,14.668,20.275,15.031z"/>
	<path fill="#FFFFFF" d="M23.673,15.046v0.673c-0.187,0.141-0.459,0.237-0.711,0.237c-0.539,0-0.959-0.404-0.959-0.925
		c0-0.522,0.427-0.921,0.979-0.921c0.26,0,0.521,0.099,0.701,0.255l-0.175,0.227c-0.143-0.131-0.338-0.208-0.526-0.208
		c-0.373,0-0.666,0.284-0.666,0.647c0,0.365,0.295,0.648,0.668,0.648c0.137,0,0.291-0.047,0.42-0.125v-0.509H23.673z"/>
	<path fill="#FFFFFF" d="M25.891,15.031c0,0.521-0.423,0.925-0.968,0.925s-0.967-0.404-0.967-0.925c0-0.524,0.422-0.921,0.967-0.921
		S25.891,14.509,25.891,15.031z M24.27,15.031c0,0.362,0.301,0.648,0.657,0.648c0.355,0,0.648-0.287,0.648-0.648
		c0-0.363-0.293-0.646-0.648-0.646C24.564,14.387,24.27,14.668,24.27,15.031z"/>
</g>
</svg>
