<?xml version="1.0" encoding="utf-8"?>
<!-- Generator: Adobe Illustrator 16.0.0, SVG Export Plug-In . SVG Version: 6.00 Build 0)  -->
<!DOCTYPE svg PUBLIC "-//W3C//DTD SVG 1.1//EN" "http://www.w3.org/Graphics/SVG/1.1/DTD/svg11.dtd">
<svg version="1.1" id="Layer_1" xmlns="http://www.w3.org/2000/svg" xmlns:xlink="http://www.w3.org/1999/xlink" x="0px" y="0px"
	 width="30px" height="30px" viewBox="0 0 30 30" enable-background="new 0 0 30 30" xml:space="preserve">
<rect x="118.443" y="130.336" fill="none" width="251.852" height="20.865"/>
<text transform="matrix(1 0 0 1 118.4434 150.4512)" fill="#FFFFFF" font-family="'HanziPenSC-W5-83pv-RKSJ-H'" font-size="27">Company’s website</text>
<rect x="118.443" y="191.201" fill="none" width="251.852" height="20.865"/>
<text transform="matrix(1 0 0 1 118.4434 211.3164)" fill="#FFFFFF" font-family="'HanziPenSC-W5-83pv-RKSJ-H'" font-size="27">Company Size</text>
<path fill="#FAB816" d="M349.227,323.156c0,21.15-17.143,38.302-38.293,38.302c-21.156,0-38.301-17.151-38.301-38.302
	c0-21.146,17.145-38.297,38.301-38.297C332.084,284.859,349.227,302.01,349.227,323.156z"/>
<path fill="#F26722" d="M141.202,322.544c0,21.151-17.146,38.302-38.298,38.302c-21.147,0-38.297-17.15-38.297-38.302
	c0-21.147,17.148-38.296,38.297-38.296C124.057,284.248,141.202,301.396,141.202,322.544z"/>
<path fill="#384777" d="M246.008,322.547c0,21.148-17.146,38.299-38.299,38.299c-21.146,0-38.294-17.148-38.294-38.299
	c0-21.148,17.147-38.299,38.294-38.299C228.861,284.248,246.008,301.398,246.008,322.547z"/>
<rect x="25.227" y="250.619" fill="#0087BF" width="366.982" height="2.896"/>
<rect x="25.227" y="171.848" fill="#0087BF" width="366.982" height="0.743"/>
<path fill="#FFFFFF" d="M200.581,328.094c0.076-3.271,1.246-6.103,3.44-8.521c1.529-1.687,3.397-2.899,5.465-3.812
	c1.272-0.563,2.557-1.128,3.875-1.575c2.252-0.769,4.576-1.074,6.959-0.9c1.268,0.091,2.522,0.224,3.754,0.525
	c1.525,0.375,2.969,0.971,4.289,1.825c2.184,1.409,4.172,3.06,5.93,4.976c0.902,0.986,1.506,2.142,1.756,3.466
	c0.18,0.952,0.248,1.909,0.084,2.878c-0.174,1.025-0.293,2.064-0.504,3.084c-0.305,1.475-0.674,2.952-1.637,4.158
	c-0.539,0.673-1.199,1.252-1.822,1.857c-0.318,0.309-0.664,0.59-0.992,0.891c-0.074,0.068-0.16,0.162-0.172,0.254
	c-0.203,1.548-0.393,3.101-0.588,4.65c-0.025,0.19-0.045,0.385-0.096,0.569c-0.123,0.435-0.437,0.61-0.842,0.405
	c-0.441-0.225-0.875-0.49-1.254-0.809c-0.459-0.381-0.857-0.834-1.279-1.258c-0.137-0.137-0.271-0.275-0.404-0.413
	c-0.471-0.478-0.992-0.651-1.701-0.637c-2.105,0.056-4.215,0.042-6.318-0.054c-1.383-0.062-2.778-0.227-4.131-0.51
	c-1.533-0.32-3.043-0.776-4.531-1.273c-1.748-0.587-3.407-1.389-4.951-2.402c-1.463-0.961-2.744-2.101-3.535-3.701
	C200.802,330.611,200.552,329.385,200.581,328.094z M228.695,339.725c0.035-0.007,0.068-0.013,0.104-0.019
	c0.037-0.125,0.1-0.244,0.111-0.371c0.082-0.903,0.125-1.812,0.24-2.712c0.129-0.997,0.315-1.405,1.457-1.362
	c0.401,0.017,0.688-0.104,0.936-0.392c0.084-0.096,0.174-0.182,0.25-0.28c1.689-2.208,2.721-4.657,2.672-7.479
	c-0.014-0.815-0.129-1.633-0.213-2.447c-0.109-1.062-0.443-2.051-1.012-2.957c-1.197-1.909-2.895-3.27-4.848-4.326
	c-1.588-0.857-3.271-1.511-4.986-2.054c-1.191-0.374-2.408-0.658-3.668-0.611c-0.807,0.03-1.615,0.119-2.42,0.222
	c-1.517,0.193-2.992,0.571-4.43,1.084c-2.244,0.793-4.302,1.938-6.14,3.455c-0.892,0.74-1.802,1.457-2.454,2.441
	c-1.123,1.693-1.73,3.566-1.928,5.572c-0.156,1.586,0.203,3.055,1.176,4.34c0.695,0.923,1.629,1.574,2.587,2.201
	c1.9,1.232,3.938,2.15,6.132,2.699c1.327,0.334,2.666,0.639,4.018,0.852c1.541,0.246,3.1,0.436,4.656,0.544
	c1.768,0.124,3.541,0.037,5.233-0.569c0.459-0.166,0.731-0.027,0.998,0.299c0.383,0.481,0.767,0.969,1.154,1.447
	C228.439,339.447,228.57,339.584,228.695,339.725z"/>
<path fill="#FFFFFF" d="M197.264,302.934c1.342,0.039,2.676,0.102,3.977,0.433c1.006,0.257,1.984,0.618,2.984,0.901
	c1.594,0.446,3.039,1.2,4.418,2.096c1.601,1.035,2.906,2.354,3.853,4.015c0.379,0.661,0.567,1.366,0.522,2.132
	c-0.022,0.393-0.166,0.592-0.529,0.696c-0.614,0.179-0.897,0.142-1.102-0.237c-0.172-0.328-0.268-0.697-0.396-1.051
	c-0.49-1.352-1.408-2.382-2.505-3.266c-1.7-1.373-3.58-2.438-5.635-3.189c-1.949-0.713-3.97-1.035-6.05-0.998
	c-1.633,0.026-3.264,0.137-4.879,0.395c-2.391,0.382-4.728,0.96-6.86,2.146c-2.701,1.502-4.56,3.77-5.787,6.57
	c-0.322,0.736-0.56,1.52-0.764,2.297c-0.181,0.684-0.078,1.389,0.088,2.064c0.266,1.098,0.702,2.121,1.371,3.039
	c0.59,0.81,1.385,1.394,2.178,1.979c0.916,0.674,1.834,1.346,2.752,2.018c0.231,0.166,0.312,0.379,0.151,0.621
	c-0.114,0.172-0.254,0.377-0.43,0.446c-0.276,0.108-0.442,0.295-0.59,0.522c-0.439,0.67-0.875,1.341-1.312,2.012
	c-0.039,0.057-0.082,0.117-0.092,0.179c-0.016,0.099-0.006,0.2-0.008,0.302c0.1-0.002,0.213,0.027,0.299-0.009
	c0.752-0.319,1.49-0.676,2.252-0.974c0.779-0.307,1.584-0.544,2.371-0.835c0.473-0.181,0.932-0.406,1.4-0.606
	c0.067-0.029,0.154-0.068,0.221-0.057c0.441,0.097,0.85-0.02,1.275-0.122c0.221-0.054,0.479,0.017,0.709,0.062
	c1.551,0.297,3.102,0.545,4.688,0.412c0.729-0.059,1.463-0.117,2.197-0.148c0.477-0.021,0.733,0.15,0.823,0.479
	c0.119,0.441-0.021,0.989-0.383,1.153c-0.358,0.168-0.764,0.3-1.156,0.323c-1.303,0.08-2.604-0.006-3.901-0.184
	c-1.101-0.152-2.196-0.337-3.301-0.443c-0.354-0.033-0.729,0.142-1.097,0.212c-0.33,0.061-0.662,0.136-0.996,0.151
	c-0.387,0.02-0.723,0.116-1.061,0.312c-1.297,0.755-2.607,1.492-3.922,2.217c-0.701,0.387-1.434,0.339-2.156,0.049
	c-0.467-0.188-0.643-0.666-0.391-1.158c0.445-0.864,0.934-1.707,1.377-2.572c0.25-0.486,0.457-0.996,0.666-1.502
	c0.121-0.295,0.006-0.508-0.256-0.688c-1.236-0.848-2.426-1.753-3.438-2.869c-0.844-0.934-1.352-2.033-1.663-3.233
	c-0.228-0.871-0.367-1.755-0.354-2.66c0.008-0.783,0.174-1.531,0.467-2.252c0.433-1.06,0.832-2.138,1.321-3.168
	c0.808-1.703,2.125-2.935,3.738-3.882c2.037-1.192,4.113-2.314,6.322-3.162c0.543-0.208,1.133-0.344,1.711-0.396
	C192.68,303.287,194.971,303.119,197.264,302.934z"/>
<path fill="#FFFFFF" d="M200.805,313.168c-1.841,0.118-3.677,0.242-5.519,0.359c-1.457,0.093-2.912,0.184-4.367,0.263
	c-1.101,0.06-2.201,0.097-3.301,0.138c-0.24,0.01-0.484,0.016-0.722-0.023c-0.119-0.021-0.293-0.131-0.313-0.229
	c-0.028-0.134,0.015-0.348,0.108-0.432c0.15-0.136,0.361-0.231,0.562-0.265c0.377-0.064,0.767-0.096,1.149-0.104
	c4.877-0.122,9.757-0.241,14.632-0.354c0.473-0.01,0.946,0.012,1.418,0.041c0.17,0.012,0.396,0.02,0.399,0.282
	c0.006,0.261-0.154,0.39-0.395,0.403c-0.328,0.02-0.656,0.023-0.984,0.023c-0.887,0.004-1.774,0-2.666,0
	C200.809,313.236,200.807,313.204,200.805,313.168z"/>
<path fill="#FFFFFF" d="M201.768,317.191c-0.121,0.062-0.238,0.15-0.367,0.177c-0.293,0.057-0.59,0.104-0.887,0.12
	c-2.269,0.127-4.535,0.207-6.798,0.381c-1.26,0.098-2.504,0.343-3.758,0.514c-1.164,0.158-2.334,0.323-3.504,0.448
	c-0.388,0.039-0.789-0.021-1.181-0.062c-0.221-0.022-0.432-0.123-0.428-0.385c0.004-0.248,0.189-0.38,0.418-0.41
	c0.908-0.123,1.814-0.265,2.728-0.352c1.789-0.166,3.579-0.305,5.37-0.443c2.517-0.195,5.031-0.33,7.558-0.255
	c0.276,0.011,0.556,0.081,0.832,0.123C201.757,317.098,201.764,317.145,201.768,317.191z"/>
<path fill="#FFFFFF" d="M190.427,310.268c-0.415-0.063-0.831-0.121-1.243-0.201c-0.105-0.019-0.207-0.104-0.291-0.178
	c-0.229-0.209-0.189-0.517,0.094-0.632c0.164-0.065,0.354-0.098,0.533-0.103c2.469-0.072,4.938-0.141,7.407-0.203
	c0.791-0.021,1.585-0.047,2.373-0.026c0.308,0.013,0.623,0.121,0.91,0.241c0.226,0.095,0.36,0.312,0.267,0.572
	c-0.09,0.246-0.312,0.257-0.533,0.238c-0.605-0.045-1.209-0.113-1.812-0.117c-0.52-0.004-1.037,0.091-1.557,0.11
	c-1.072,0.044-2.145,0.063-3.215,0.101c-0.976,0.033-1.949,0.078-2.922,0.117C190.434,310.214,190.43,310.241,190.427,310.268z"/>
<path fill="#FFFFFF" d="M180.482,316.094c0.15-0.531,0.297-1.027,0.427-1.529c0.155-0.614,0.266-1.242,0.45-1.85
	c0.109-0.359,0.242-0.771,0.502-1.016c0.882-0.831,1.81-1.619,2.75-2.383c0.248-0.2,0.607-0.283,0.927-0.371
	c0.121-0.03,0.342,0.039,0.401,0.136c0.062,0.093,0.033,0.321-0.045,0.418c-0.207,0.248-0.444,0.479-0.701,0.679
	c-0.524,0.404-1.084,0.771-1.608,1.178c-0.799,0.623-1.233,1.483-1.41,2.453c-0.168,0.906-0.235,1.832-0.354,2.75
	c-0.014,0.104-0.032,0.211-0.062,0.311c-0.071,0.229-0.187,0.496-0.438,0.465c-0.19-0.025-0.416-0.211-0.522-0.386
	C180.646,316.693,180.585,316.381,180.482,316.094z"/>
<path fill="#FFFFFF" d="M195.372,323.311c-0.494,0.053-0.988,0.121-1.483,0.151c-1.359,0.081-2.72,0.146-4.076-0.058
	c-0.254-0.037-0.511-0.122-0.74-0.233c-0.299-0.146-0.305-0.371-0.041-0.582c0.307-0.245,0.664-0.243,1.023-0.204
	c1.344,0.15,2.688,0.301,4.026,0.465c0.362,0.045,0.719,0.137,1.078,0.219c0.082,0.017,0.155,0.076,0.233,0.117
	C195.387,323.229,195.378,323.27,195.372,323.311z"/>
<path fill="#FFFFFF" d="M209.096,328.979c2.229-0.17,4.801-0.352,7.371-0.562c2.271-0.186,4.541-0.398,6.811-0.613
	c1.404-0.131,2.806-0.287,4.209-0.43c0.222-0.021,0.447-0.045,0.664-0.023c0.125,0.014,0.3,0.088,0.345,0.187
	c0.049,0.103,0.017,0.309-0.062,0.39c-0.115,0.12-0.3,0.229-0.463,0.241c-1.203,0.09-2.41,0.149-3.617,0.229
	c-1.492,0.099-2.986,0.196-4.48,0.312c-1.531,0.121-3.062,0.25-4.592,0.398c-1.162,0.115-2.322,0.26-3.48,0.402
	c-1.342,0.168-2.682,0.357-4.021,0.518c-0.555,0.066-1.108,0.102-1.67,0.113c-0.262,0.006-0.492-0.121-0.531-0.429
	c-0.041-0.335,0.096-0.554,0.429-0.66c0.164-0.05,0.341-0.069,0.511-0.071C207.26,328.975,208.004,328.979,209.096,328.979z"/>
<path fill="#FFFFFF" d="M221.109,323.8c2.086-0.153,4.492-0.332,6.897-0.516c0.347-0.026,0.688-0.093,1.031-0.118
	c0.203-0.016,0.338,0.08,0.33,0.307c-0.005,0.213-0.138,0.271-0.324,0.286c-1.037,0.095-2.069,0.218-3.108,0.291
	c-1.58,0.113-3.162,0.185-4.744,0.287c-1.193,0.078-2.39,0.179-3.582,0.267c-1.453,0.106-2.908,0.195-4.361,0.326
	c-0.998,0.092-1.992,0.238-2.988,0.358c-0.217,0.024-0.455,0.09-0.512-0.25c-0.047-0.302,0.047-0.501,0.383-0.57
	c0.49-0.101,0.986-0.187,1.484-0.225c2.021-0.159,4.045-0.321,6.068-0.435C218.715,323.753,219.748,323.8,221.109,323.8z"/>
<path fill="#FFFFFF" d="M217.938,332.697c1.646-0.084,3.295-0.154,4.941-0.254c0.549-0.032,1.09-0.149,1.637-0.211
	c0.449-0.051,0.58,0.021,0.611,0.287c0.033,0.334-0.26,0.744-0.584,0.748c-0.52,0.004-1.041-0.05-1.561-0.057
	c-1.256-0.016-2.512-0.08-3.762-0.012c-1.474,0.08-2.939,0.281-4.408,0.429c-0.383,0.039-0.767,0.099-1.148,0.106
	c-0.359,0.008-0.49-0.222-0.371-0.563c0.102-0.301,0.283-0.501,0.617-0.524c0.182-0.014,0.365-0.028,0.549-0.028
	c1.156-0.005,2.316-0.001,3.475-0.001C217.936,332.645,217.938,332.671,217.938,332.697z"/>
<path fill="#FFFFFF" d="M223.271,319.954c-0.123,0.032-0.244,0.082-0.369,0.089c-1.252,0.081-2.504,0.159-3.758,0.229
	c-1.64,0.086-3.279,0.153-4.916,0.25c-0.799,0.047-1.592,0.155-2.392,0.213c-0.303,0.021-0.594-0.06-0.803-0.316
	c-0.285-0.352-0.185-0.652,0.264-0.717c0.353-0.053,0.711-0.096,1.065-0.092c3.32,0.029,6.644,0.067,9.964,0.113
	c0.312,0.004,0.623,0.064,0.932,0.098C223.264,319.865,223.268,319.911,223.271,319.954z"/>
<path fill="#FFFFFF" d="M232.947,325.047c-0.105,0.82-0.205,1.643-0.328,2.462c-0.023,0.162-0.115,0.326-0.217,0.464
	c-0.178,0.243-0.412,0.217-0.525-0.067c-0.055-0.144-0.055-0.324-0.029-0.479c0.185-1.07,0.283-2.144,0.09-3.225
	c-0.149-0.854-0.494-1.612-1.055-2.28c-0.197-0.231-0.371-0.491-0.514-0.762c-0.053-0.101-0.041-0.315,0.029-0.39
	c0.088-0.088,0.281-0.129,0.414-0.104c0.412,0.082,0.733,0.328,0.992,0.656c0.772,0.979,1.118,2.097,1.075,3.338
	c-0.004,0.125,0,0.251,0,0.377C232.904,325.042,232.926,325.044,232.947,325.047z"/>
<path fill="#FFFFFF" d="M324.936,323.495c0.451-0.317,0.875-0.613,1.298-0.907c2.629-1.818,5.389-3.413,8.264-4.811
	c1.18-0.57,2.377-1.104,3.568-1.648c0.567-0.261,1.024,0.062,0.981,0.689c-0.021,0.32-0.037,0.64-0.059,0.959
	c-0.179,2.927-0.361,5.85-0.529,8.772c-0.102,1.774-0.295,3.542-0.248,5.326c0.029,1.165,0.023,2.335-0.014,3.502
	c-0.021,0.697-0.115,1.404-0.478,2.021c-0.358,0.613-0.895,1.074-1.535,1.373c-0.344,0.162-0.715,0.063-1.049-0.104
	c-1.127-0.562-2.104-1.338-3.049-2.158c-1.219-1.054-2.416-2.13-3.656-3.16c-0.76-0.627-1.616-1.119-2.539-1.484
	c-0.166-0.064-0.344-0.113-0.522-0.139c-0.176-0.022-0.564-0.025-0.812-0.125c0,0-0.795-0.08-0.75-1.238
	c0.068-1.665,0.021-2.446-0.006-3.883C323.777,325.044,323.492,324.502,324.936,323.495z M324.668,326.709
	c0.062,0.131-0.078,2.236-0.129,3.084c-0.062,1.016,0.504,1.062,0.504,1.062c1.088,0.209,1.51,0.347,2.617,0.942
	c2.123,1.144,3.328,2.276,5.604,4.187c0.455,0.38,1.074,0.892,1.566,1.224c0.543,0.364,1.404,0.714,1.664,0.121
	c0.149-0.34,0.41-1.418,0.438-1.785c0.13-1.517-0.104-3.081-0.016-4.599c0.086-1.454,0.148-2.909,0.23-4.365
	c0.104-1.896,0.27-3.357,0.36-5.256c0.021-0.385-0.022-1.307,0.025-1.688c0.244-1.896,0.021-1.82-0.746-1.578
	c-0.353,0.108-1.619,0.541-1.947,0.711c-3.131,1.598-4.709,2.381-7.586,4.401c-0.498,0.351-1.359,0.927-1.848,1.286
	c-0.099,0.07-0.428,0.295-0.564,0.466C324.543,325.077,324.6,326.579,324.668,326.709z"/>
<path fill="#FFFFFF" d="M298.035,299.991c1.594,0,2.971,0.52,4.049,1.727c0.613,0.691,1.043,1.492,1.326,2.373
	c0.291,0.905,0.371,1.827,0.258,2.765c-0.146,1.16-0.58,2.219-1.271,3.164c-0.719,0.98-1.6,1.777-2.723,2.278
	c-0.842,0.373-1.719,0.537-2.639,0.417c-1.73-0.224-3.059-1.132-4.129-2.459c-0.764-0.947-1.275-2.025-1.477-3.229
	c-0.312-1.848,0.131-3.484,1.438-4.858c0.1-0.104,0.174-0.2,0.184-0.362c0.013-0.197,0.152-0.341,0.324-0.438
	c0.916-0.531,1.883-0.936,2.922-1.168C296.869,300.068,297.445,299.986,298.035,299.991z M302.811,305.898
	c0-0.035,0.002-0.07,0-0.105c-0.002-0.064-0.008-0.131-0.012-0.195c-0.068-1.174-0.467-2.209-1.303-3.051
	c-0.664-0.67-1.463-1.113-2.377-1.359c-0.701-0.187-1.414-0.203-2.127-0.104c-0.66,0.091-1.297,0.292-1.908,0.559
	c-0.254,0.108-0.518,0.213-0.738,0.371c-0.229,0.166-0.414,0.396-0.623,0.598c-0.805,0.771-1.313,1.707-1.445,2.817
	c-0.108,0.931,0.039,1.835,0.412,2.698c0.564,1.3,1.438,2.331,2.668,3.044c0.943,0.546,1.959,0.774,3.043,0.586
	c0.752-0.129,1.429-0.459,2.011-0.942C301.939,309.535,302.711,307.879,302.811,305.898z"/>
<path fill="#FFFFFF" d="M311.4,312.17c-0.453-0.004-1.187-0.095-1.906-0.304c-0.943-0.272-1.814-0.692-2.584-1.304
	c-0.875-0.692-1.533-1.541-1.809-2.649c-0.193-0.771-0.127-1.531,0.139-2.278c0.045-0.132,0.107-0.261,0.152-0.394
	c0.014-0.041,0.002-0.103-0.021-0.144c-0.062-0.129-0.062-0.25,0.022-0.365c0.982-1.301,2.111-2.444,3.521-3.289
	c0.678-0.407,1.402-0.694,2.195-0.781c0.877-0.098,1.682,0.117,2.414,0.607c1.194,0.799,2.164,1.801,2.771,3.119
	c0.476,1.031,0.646,2.11,0.482,3.243c-0.15,1.054-0.521,2.015-1.207,2.839c-0.453,0.543-1.017,0.941-1.662,1.229
	C313.207,312.016,312.463,312.146,311.4,312.17z M311.629,311.17c0.934-0.038,1.592-0.175,2.203-0.472
	c1.236-0.597,1.902-1.599,2.086-2.948c0.113-0.88,0-1.729-0.287-2.561c-0.383-1.115-0.998-2.065-1.953-2.778
	c-0.707-0.526-1.508-0.802-2.391-0.765c-0.846,0.035-1.607,0.34-2.314,0.789c-0.95,0.597-1.733,1.377-2.43,2.248
	c-0.047,0.061-0.045,0.158-0.059,0.239c-0.021,0.114-0.017,0.235-0.058,0.343c-0.104,0.28-0.237,0.549-0.336,0.83
	c-0.186,0.538-0.213,1.092-0.08,1.641c0.193,0.806,0.656,1.451,1.289,1.959C308.584,310.729,310.076,311.16,311.629,311.17z"/>
<path fill="#FFFFFF" d="M318.09,337.73c0,0-0.43,0.887-0.629,1.338c-0.09,0.205-0.104,0.201-0.162,0.428
	c-0.061,0.234-0.057,0.406,0.125,0.34c0.197-0.072,0.646-0.251,0.89-0.411c-0.109,0.259-0.556,0.702-0.646,0.966
	c-0.061,0.176-0.125,0.35-0.191,0.522c-0.004,0.013-0.204,0.258,0.005,0.043c-0.07,0.071-0.121,0.146-0.164,0.221
	c-0.418,0.073-0.939-0.024-1.31-0.049c-0.66-0.049-1.295-0.095-1.957-0.032c-0.899,0.081-1.781,0.119-2.682,0.016
	c-0.479-0.055-0.932-0.012-1.318-0.351c-0.141-0.122-0.268-0.021-0.393-0.157c0.498-0.03,0.834,0.02,1.334,0.03
	c0.453,0.009,0.483-0.411,0.551-0.586c0.098-0.248,0.139-0.512,0.221-0.767c0.101-0.317,0.287-0.402,0.517-0.403
	c0.248-0.001,0.317,0.146,0.194,0.435c-0.104,0.242-0.223,0.472-0.342,0.703c-0.051,0.096-0.055,0.166,0.027,0.223
	c0.291,0.207,0.658,0.022,0.779-0.391c0.18-0.617,0.479-1.132,0.813-1.605c0.053-0.076,0.127-0.145,0.199-0.176
	c0.141-0.058,0.313-0.162,0.424,0.013c0.104,0.169-0.016,0.351-0.084,0.509c-0.008,0.016-0.014,0.027-0.021,0.038
	c-0.267,0.431-0.404,0.651-0.668,1.083c-0.121,0.193-0.226,0.516-0.035,0.534c0.227,0.026,0.157,0.036,0.385,0.017
	c0.152-0.014,0.391-0.203,0.408-0.414c0.022-0.268,0.172-0.506,0.248-0.748c0.213-0.675,0.448-1.338,0.69-1.994
	c0.051-0.138,0.152-0.28,0.256-0.332c0.113-0.053,0.261-0.029,0.375,0.022c0.031,0.013,0.035,0.271,0,0.388
	c-0.094,0.323-0.213,0.635-0.327,0.947c-0.203,0.549-0.408,1.094-0.617,1.639c-0.049,0.127-0.041,0.228,0.057,0.293
	c0.184,0.127,0.473-0.01,0.557-0.262c0.207-0.615,0.404-1.232,0.611-1.846c0.25-0.75,0.504-1.497,0.764-2.238
	c0.082-0.232,0.222-0.398,0.431-0.412c0.231-0.015,0.319,0.141,0.217,0.412c-0.318,0.826-0.646,1.646-0.967,2.469
	c-0.228,0.577-0.451,1.152-0.683,1.725c-0.045,0.115-0.041,0.191,0.047,0.244c0.23,0.137,0.703-0.088,0.794-0.397
	c0.34-1.183,0.813-2.274,1.282-3.368c0,0,0.289-0.742,0.572-0.535c0.279,0.207,0.291,0.355,0,0.895"/>
<path fill="#FFFFFF" d="M293.006,340.756c1.145,0.286,2.273,0.229,3.441,0.312c1.113,0.078,2.213,0.215,3.328,0.089
	c0.434-0.048,1.067-0.048,1.434-0.32c0.117-0.091,0.221-0.155,0.312-0.298c-0.179,0.008-0.394-0.007-0.572,0.001
	c-0.184,0.01-0.334-0.008-0.518-0.017c-0.183-0.01-0.203-0.09-0.121-0.311c0.084-0.229,0.164-0.459,0.237-0.693
	c0.019-0.049,0.019-0.16,0.005-0.166c-0.115-0.063-0.234-0.142-0.355-0.145c-0.068-0.002-0.17,0.104-0.209,0.195
	c-0.105,0.246-0.182,0.518-0.279,0.771c-0.094,0.239-0.248,0.365-0.453,0.361c-0.223-0.007-0.453,0.06-0.686-0.128
	c0.053-0.081,0.098-0.146,0.143-0.207c0.221-0.284,0.469-0.542,0.656-0.86c0.141-0.233,0.209-0.543,0.295-0.827
	c0.02-0.063-0.016-0.188-0.057-0.238c-0.033-0.041-0.123-0.031-0.174-0.004c-0.277,0.156-0.466,0.455-0.638,0.769
	c-0.182,0.324-0.362,0.646-0.526,0.983c-0.156,0.322-0.361,0.515-0.648,0.548c-0.168,0.017-0.334,0.05-0.502,0.065
	c-0.045,0.002-0.117-0.025-0.131-0.065c-0.016-0.048,0.008-0.136,0.037-0.188c0.17-0.305,0.342-0.604,0.521-0.901
	c0.381-0.625,0.771-1.243,1.147-1.871c0.054-0.088,0.127-0.237,0.103-0.307c-0.026-0.086-0.146-0.144-0.229-0.16
	c-0.224-0.047-0.42,0.061-0.551,0.305c-0.279,0.514-0.554,1.031-0.81,1.566c-0.185,0.383-0.338,0.793-0.49,1.201
	c-0.08,0.219-0.174,0.355-0.368,0.332c-0.119-0.013-0.242,0.001-0.365-0.005c-0.129-0.008-0.172-0.116-0.101-0.251
	c0.367-0.714,0.744-1.418,1.117-2.127c0.024-0.044,0.065-0.078,0.076-0.125c0.022-0.117,0.077-0.275,0.041-0.352
	c-0.07-0.14-0.216-0.196-0.324-0.088c-0.181,0.18-0.373,0.364-0.494,0.607c-0.305,0.607-0.573,1.254-0.854,1.886
	c-0.172,0.384-0.549,0.524-0.881,0.292c0.067-0.107,0.127-0.221,0.198-0.309c0.177-0.215,0.367-0.407,0.537-0.628
	c0.056-0.072,0.108-0.235,0.084-0.308c-0.051-0.147-0.17-0.187-0.301-0.14c-0.34,0.128-0.563,0.435-0.733,0.831
	c-0.324,0.759-0.427,0.618-1.009,0.512c-0.399-0.074-0.678,0.106-1.088,0.094C292.486,340.576,292.73,340.688,293.006,340.756z"/>
<path fill="#FFFFFF" d="M302.996,306.741c-0.021-0.072-0.031-0.144-0.031-0.207c-0.047-0.024,0.068-0.341,0.023-0.371
	c-0.049-0.04-0.133-0.452-0.184-0.491c0.051,0.133-0.041,0.93-0.017,1.07c0.006,0.037,0.004,0.076,0.004,0.115
	c-0.01,0.002-0.021,0.006-0.03,0.009c-0.037-0.071-0.07-0.146-0.115-0.214c-0.074-0.104-0.146-0.217-0.234-0.31
	c-0.078-0.082-0.281-0.017-0.305,0.097c-0.012,0.047,0.012,0.109,0.039,0.156c0.125,0.206,0.26,0.41,0.385,0.619
	c0.053,0.085,0.096,0.178,0.146,0.264c0.157,0.274,0.088,0.545-0.017,0.813c-0.006,0.012-0.021,0.021-0.043,0.039
	c-0.021-0.036-0.035-0.065-0.052-0.097c-0.125-0.241-0.248-0.485-0.377-0.728c-0.041-0.073-0.102-0.146-0.162-0.21
	c-0.063-0.07-0.137-0.062-0.229,0.008c-0.074,0.055-0.037,0.109-0.008,0.172c0.191,0.392,0.375,0.784,0.568,1.176
	c0.104,0.209,0.041,0.356-0.068,0.561c-0.016-0.033-0.031-0.057-0.039-0.079c-0.123-0.362-0.242-0.729-0.367-1.095
	c-0.033-0.092-0.08-0.178-0.119-0.268c-0.051-0.107-0.139-0.162-0.256-0.164c-0.031,0-0.08,0.008-0.094,0.027
	c-0.016,0.026-0.01,0.075,0.002,0.105c0.184,0.447,0.369,0.894,0.551,1.343c0.031,0.073,0.053,0.155,0.074,0.235
	c0.053,0.188-0.043,0.453-0.201,0.568c-0.066,0.049-0.109,0.039-0.141-0.048c-0.068-0.188-0.125-0.382-0.193-0.571
	c-0.086-0.248-0.174-0.498-0.275-0.742c-0.024-0.062-0.094-0.117-0.157-0.155c-0.067-0.042-0.144-0.021-0.207,0.034
	c-0.063,0.056-0.047,0.117-0.021,0.185c0.16,0.39,0.322,0.778,0.478,1.171c0.053,0.13,0.084,0.271,0.131,0.404
	c0.024,0.072-0.004,0.117-0.062,0.158c-0.016,0.012-0.03,0.025-0.049,0.037c-0.106,0.062-0.149,0.109-0.207-0.076
	c-0.135-0.422-0.278-0.842-0.422-1.264c-0.018-0.049-0.047-0.096-0.072-0.143c-0.065-0.104-0.135-0.126-0.25-0.074
	c-0.11,0.051-0.168,0.148-0.127,0.25c0.076,0.195,0.168,0.387,0.246,0.581c0.135,0.319,0.262,0.644,0.396,0.964
	c0.022,0.059,0.021,0.104-0.033,0.141c-0.101,0.063-0.194,0.135-0.301,0.186c-0.103,0.051-0.156,0.018-0.187-0.089
	c-0.096-0.349-0.188-0.697-0.283-1.045c-0.03-0.108-0.071-0.216-0.118-0.316c-0.06-0.122-0.304-0.166-0.406-0.075
	c-0.012,0.012-0.012,0.053-0.002,0.075c0.176,0.44,0.328,0.888,0.429,1.354c0.022,0.113-0.117,0.314-0.232,0.332
	c-0.076,0.013-0.117-0.035-0.143-0.096c-0.062-0.156-0.121-0.314-0.181-0.474c-0.104-0.297-0.207-0.594-0.312-0.888
	c-0.037-0.102-0.092-0.176-0.215-0.182c-0.109-0.008-0.16,0.041-0.123,0.147c0.099,0.261,0.201,0.521,0.295,0.782
	c0.082,0.229,0.154,0.459,0.232,0.688c0.021,0.069,0.049,0.281-0.027,0.292c-0.092,0.016-0.184,0.045-0.276,0.049
	c-0.169,0.01-0.271-0.205-0.318-0.365c-0.078-0.256-0.147-0.514-0.228-0.771c-0.055-0.178-0.112-0.354-0.178-0.528
	c-0.049-0.135-0.285-0.179-0.381-0.066c-0.025,0.025-0.027,0.089-0.014,0.127c0.098,0.281,0.205,0.562,0.305,0.846
	c0.043,0.124,0.07,0.256,0.107,0.383c0.021,0.072,0.037,0.5-0.033,0.498c-0.043,0-0.088,0.004-0.133,0.002
	c-0.164-0.004-0.303-0.438-0.369-0.627c-0.168-0.482-0.354-0.961-0.533-1.438c-0.041-0.104-0.1-0.202-0.221-0.229
	c-0.053-0.01-0.123-0.017-0.164,0.008c-0.061,0.035-0.049,0.111-0.027,0.172c0.057,0.158,0.117,0.316,0.176,0.474
	c0.105,0.269,0.209,0.536,0.314,0.806c0.012,0.036,0.02,0.075,0.035,0.145c0.021,0.115,0.244,1.004-0.42,0.861
	c-0.127-0.025-0.562-0.104-0.627-0.172c0.029,0.098,0.613,0.385,0.598,0.489l-0.01,0.041c0,0.011,0,0.021-0.002,0.034
	c1.166,1.009,3.531-0.688,4.605-1.598C302.576,309.671,303.43,308.16,302.996,306.741z"/>
<path fill="#FFFFFF" d="M311.482,311.491c0.782,0.043,1.502,0.024,2.25-0.244c0.608-0.22,1.145-0.58,1.6-1.039
	c0.311-0.31,0.92-0.881,0.838-1.383c-0.021-0.14-0.002-0.265,0.041-0.374c-0.094-0.075-0.168-0.188-0.203-0.344
	c-0.02-0.09-0.061-0.174-0.11-0.256c-0.005,0.074-0.009,0.149-0.013,0.228c-0.004,0.041-0.022,0.081-0.037,0.121
	c-0.01,0.003-0.021,0.005-0.032,0.007c-0.06-0.093-0.119-0.188-0.179-0.284c-0.194-0.323-0.387-0.651-0.588-0.974
	c-0.088-0.141-0.115-0.143-0.272-0.098c-0.117,0.032-0.136,0.086-0.066,0.188c0.322,0.473,0.613,0.963,0.871,1.477
	c0.082,0.166,0.035,0.316,0.006,0.475c-0.008,0.044-0.024,0.088-0.043,0.128c-0.041,0.075-0.076,0.079-0.119,0.006
	c-0.074-0.131-0.145-0.267-0.217-0.397c-0.186-0.343-0.369-0.688-0.562-1.029c-0.078-0.137-0.15-0.129-0.23,0.006
	c-0.059,0.102-0.066,0.195-0.002,0.306c0.252,0.423,0.494,0.853,0.738,1.276c0.004,0.006,0.008,0.011,0.01,0.017
	c0.092,0.187,0.076,0.263-0.074,0.405c-0.09,0.081-0.135,0.079-0.199-0.025c-0.153-0.252-0.305-0.507-0.461-0.759
	c-0.084-0.133-0.174-0.263-0.268-0.389c-0.066-0.084-0.125-0.078-0.205-0.005c-0.08,0.074-0.1,0.182-0.045,0.283
	c0.201,0.385,0.396,0.773,0.606,1.154c0.086,0.155,0.084,0.286-0.036,0.415c-0.054,0.058-0.101,0.118-0.15,0.177
	c-0.047,0.055-0.086,0.051-0.119-0.021c-0.08-0.175-0.162-0.351-0.248-0.521c-0.141-0.271-0.279-0.547-0.43-0.816
	c-0.064-0.114-0.187-0.137-0.287-0.067c-0.064,0.042-0.084,0.091-0.049,0.165c0.168,0.354,0.332,0.707,0.496,1.062
	c0.047,0.099,0.08,0.203,0.114,0.309c0.025,0.068,0.019,0.135-0.055,0.178c-0.065,0.037-0.129,0.09-0.199,0.107
	c-0.119,0.033-0.2-0.01-0.264-0.13c-0.102-0.204-0.195-0.412-0.291-0.618c-0.104-0.219-0.205-0.441-0.312-0.657
	c-0.052-0.103-0.123-0.12-0.23-0.077c-0.018,0.008-0.035,0.019-0.055,0.025c-0.154,0.082-0.164,0.12-0.088,0.273
	c0.174,0.359,0.354,0.717,0.518,1.08c0.084,0.189,0.084,0.217-0.123,0.219c-0.123,0-0.246,0.012-0.369,0.004
	c-0.096-0.006-0.162-0.074-0.197-0.161c-0.106-0.275-0.211-0.554-0.319-0.828c-0.062-0.149-0.123-0.302-0.197-0.445
	c-0.074-0.146-0.174-0.165-0.313-0.077c-0.138,0.086-0.156,0.16-0.084,0.303c0.168,0.326,0.34,0.65,0.5,0.98
	c0.112,0.232,0.096,0.253-0.158,0.252c-0.086-0.001-0.17-0.018-0.256-0.021c-0.091-0.006-0.13-0.063-0.166-0.137
	c-0.164-0.336-0.332-0.668-0.502-1c-0.017-0.037-0.046-0.067-0.07-0.103c-0.082-0.103-0.189-0.121-0.31-0.063
	c-0.059,0.026-0.063,0.06-0.041,0.119c0.103,0.248,0.199,0.5,0.294,0.752c0.01,0.025,0,0.061,0,0.092c0,0,0.137,0.416-0.402,0.281
	c-0.535-0.133,0,0.262,0,0.262L311.482,311.491z"/>
<path fill="#FFFFFF" d="M322.902,329.081c-0.031-0.632-0.068-1.267-0.164-1.888c-0.156-1.032-0.318-2.067-0.558-3.086
	c-0.246-1.049-0.541-2.09-0.889-3.111c-0.531-1.551-1.443-2.87-2.646-3.98c-1.16-1.067-2.466-1.828-4.078-1.951
	c-0.955-0.072-1.906-0.188-2.861-0.238c-1.609-0.088-3.221-0.167-4.834-0.203c-2.988-0.066-5.969,0.141-8.943,0.37
	c-1.397,0.106-2.793,0.261-4.188,0.409c-1.373,0.146-2.75,0.303-4.09,0.658c-0.744,0.195-1.435,0.514-2.029,1.01
	c-1.064,0.886-1.564,2.053-1.619,3.408c-0.039,0.955-0.02,1.914,0.002,2.871c0.025,1.06,0.084,2.117,0.123,3.176
	c0.051,1.328,0.076,2.66,0.16,3.986c0.078,1.268,0.242,2.525,0.475,3.777c0.17,0.906,0.336,1.814,0.658,2.688
	c0.432,1.168,1.012,2.256,1.803,3.222c0.521,0.637,1.162,1.085,1.969,1.288c1.011,0.257,2.039,0.41,3.076,0.502
	c1.229,0.111,2.459,0.191,3.689,0.265c2.551,0.147,5.104,0.13,7.656,0.065c1.858-0.058,3.719-0.109,5.578-0.178
	c1.754-0.063,3.514-0.045,5.262-0.279c1.041-0.139,2.061-0.353,3.012-0.809c0.609-0.291,1.229-0.591,1.594-1.191
	c0.287-0.471,0.55-0.961,0.757-1.467c0.455-1.119,0.709-2.293,0.887-3.481c0.174-1.146,0.283-2.295,0.271-3.452
	C322.965,330.668,322.945,329.873,322.902,329.081z M321.857,329.107c-0.017,0.007-0.029,0.013-0.046,0.018
	c-0.012-0.02-0.022-0.035-0.034-0.055c0.075,0.505,0.039,0.998,0.002,1.5c0.035,0.185,0.043,0.373,0.018,0.572
	c-0.062,0.465-0.082,0.936-0.123,1.402c-0.002,0.033-0.012,0.066-0.026,0.15c-0.021-0.03-0.039-0.053-0.056-0.074
	c-0.002,0.305-0.026,0.615-0.067,0.925c0,0.004,0.002,0.011,0.002,0.015c0.004,0.092,0,0.186-0.009,0.278
	c0.013,0.075,0.017,0.156,0.009,0.245c-0.216,2.465-1.375,4.529-3.683,5.574c-2.151,0.976-4.641,1.027-6.963,0.971
	c-3.455-0.088-6.9-0.102-10.357-0.088c-3.256,0.014-6.938,0.583-9.84-1.241c-0.147-0.094-0.258-0.208-0.332-0.332
	c-0.09-0.048-0.18-0.095-0.27-0.145c-0.594-0.343-0.994-0.863-1.346-1.427c-0.625-1.017-1.051-2.111-1.318-3.273
	c-0.197-0.854-0.23-1.717-0.273-2.58c-0.067-1.406-0.146-2.814-0.194-4.223c-0.068-1.996-0.134-3.995-0.156-5.992
	c-0.017-0.941,0.228-1.844,0.654-2.689c0.311-0.615,0.834-0.994,1.44-1.277c0.682-0.32,1.404-0.521,2.146-0.655
	c0.903-0.164,1.807-0.34,2.715-0.479c0.976-0.147,1.953-0.271,2.935-0.386c0.907-0.102,1.819-0.185,2.729-0.254
	c0.68-0.05,1.358-0.084,2.039-0.095c2.149-0.038,4.297,0.027,6.445,0.117c1.581,0.068,3.168,0.084,4.747,0.17
	c1.546,0.086,3.048,0.383,4.427,1.144c0.762,0.419,1.325,1.039,1.848,1.72c0.746,0.98,1.371,2.027,1.787,3.19
	c0.369,1.03,0.693,2.071,0.883,3.151c0.004,0.025,0.008,0.051,0.01,0.076c0.086,0.432,0.05,0.881-0.008,1.32
	c-0.002,0.024-0.01,0.051-0.014,0.075c0.018,0.115,0.037,0.233,0.053,0.351c0.072,0.135,0.115,0.297,0.127,0.45
	c0.045,0.546,0.07,1.093,0.103,1.64C321.861,328.967,321.857,329.038,321.857,329.107z"/>
<path fill="#FFFFFF" d="M287.57,322.926c0-1.644,0.711-2.746,1.973-3.533c0.869-0.545,1.779-1.017,2.754-1.35
	c0.18-0.062,0.371-0.107,0.559-0.134c0.275-0.041,0.406,0.142,0.308,0.397c-0.084,0.213-0.25,0.332-0.438,0.43
	c-0.752,0.384-1.509,0.767-2.259,1.152c-0.19,0.1-0.368,0.223-0.557,0.328c-0.609,0.348-0.904,0.93-1.168,1.533
	c-0.209,0.477-0.33,0.969-0.3,1.505c0.015,0.296-0.088,0.599-0.143,0.899c-0.01,0.05-0.043,0.099-0.072,0.144
	c-0.127,0.194-0.312,0.194-0.418-0.016c-0.074-0.15-0.127-0.315-0.149-0.479C287.609,323.471,287.59,323.134,287.57,322.926z"/>
<path fill="#FFFFFF" d="M313.939,317.473c0.026-0.109,0.032-0.232,0.088-0.326c0.039-0.068,0.143-0.135,0.221-0.14
	c1.453-0.077,2.666,0.394,3.545,1.599c0.371,0.508,0.752,1.01,1.096,1.537c0.209,0.316,0.146,0.56-0.118,0.823
	c-0.193,0.193-0.359,0.173-0.488-0.065c-0.189-0.35-0.359-0.707-0.56-1.045c-0.547-0.922-1.375-1.476-2.383-1.771
	c-0.367-0.109-0.748-0.175-1.121-0.264C313.998,317.77,313.945,317.7,313.939,317.473z"/>
<path fill="#FFFFFF" d="M288.568,334.26c0-0.044,0-0.085,0-0.128c0.002-0.319,0.061-0.368,0.385-0.325
	c0.072,0.008,0.146,0.016,0.215,0.033c0.127,0.03,0.197,0.1,0.223,0.245c0.053,0.325,0.107,0.654,0.211,0.965
	c0.062,0.185,0.199,0.351,0.33,0.499c0.172,0.199,0.389,0.36,0.551,0.565c0.228,0.288,0.064,0.631-0.301,0.684
	c-0.225,0.035-0.414-0.022-0.576-0.183c-0.362-0.358-0.627-0.781-0.793-1.256c-0.127-0.353-0.194-0.724-0.289-1.088
	C288.539,334.268,288.555,334.264,288.568,334.26z"/>
<path fill="#FFFFFF" d="M86.82,305.57c2.793,0.181,5.384,0.332,7.974,0.513c1.965,0.135,3.929,0.3,5.89,0.467
	c1.573,0.134,3.145,0.277,4.715,0.437c1.283,0.131,2.563,0.287,3.842,0.438c1.08,0.129,2.156,0.26,3.232,0.405
	c0.967,0.133,1.932,0.282,2.896,0.435c1.01,0.161,2.021,0.321,3.024,0.506c0.857,0.158,1.721,0.316,2.564,0.537
	c1.1,0.286,2.191,0.606,3.27,0.965c0.806,0.267,1.543,0.674,2.086,1.362c0.412,0.521,0.64,1.122,0.615,1.775
	c-0.027,0.812-0.121,1.616-0.207,2.424c-0.139,1.272-0.293,2.546-0.441,3.817c-0.096,0.839-0.194,1.677-0.282,2.516
	c-0.14,1.344-0.283,2.688-0.401,4.035c-0.072,0.84-0.078,1.688-0.152,2.525c-0.094,1.033-0.203,2.067-0.353,3.097
	c-0.235,1.646-0.471,3.293-0.592,4.952c-0.125,1.701-0.554,3.318-1.396,4.813c-0.09,0.161-0.205,0.312-0.326,0.455
	c-0.182,0.213-0.416,0.336-0.7,0.31c-0.754-0.066-1.513-0.117-2.261-0.225c-0.778-0.109-1.555-0.26-2.323-0.428
	c-0.625-0.137-1.242-0.309-1.853-0.498c-1.264-0.395-2.547-0.521-3.863-0.383c-0.887,0.093-1.776,0.176-2.666,0.193
	c-0.745,0.016-1.5-0.041-2.243-0.119c-2.343-0.25-4.679-0.438-7.041-0.276c-3.504,0.237-7.017,0.219-10.525,0.079
	c-1.104-0.043-2.2-0.038-3.301,0.109c-0.918,0.127-1.84,0.039-2.756-0.108c-0.759-0.122-1.498-0.304-2.172-0.687
	c-0.98-0.554-1.595-1.392-1.908-2.468c-0.299-1.024-0.33-2.069-0.242-3.112c0.104-1.254,0.295-2.498,0.423-3.75
	c0.206-2.053,0.397-4.104,0.442-6.172c0.028-1.318,0.18-2.634,0.229-3.951c0.062-1.705,0.071-3.41,0.116-5.112
	c0.041-1.552,0.228-3.085,0.562-4.599c0.191-0.875,0.338-1.793,0.832-2.545c0.652-0.988,1.399-1.93,2.492-2.484
	c0.282-0.145,0.623-0.221,0.94-0.236C85.646,305.548,86.335,305.57,86.82,305.57z M80.909,335.521
	c0.018,0.002,0.032,0.002,0.049,0.004c0,0.312-0.015,0.625,0.004,0.938c0.024,0.445,0.162,0.859,0.429,1.221
	c0.563,0.766,1.375,1.063,2.28,1.094c1.108,0.033,2.222-0.012,3.33,0.02c1,0.029,1.998,0.174,2.996,0.161
	c2.221-0.028,4.438-0.103,6.657-0.202c1.468-0.064,2.931-0.227,4.396-0.312c0.646-0.041,1.301-0.062,1.943,0
	c1.471,0.142,2.934,0.351,4.4,0.509c0.535,0.059,1.076,0.088,1.612,0.069c0.875-0.029,1.746-0.135,2.621-0.16
	c0.709-0.02,1.429-0.024,2.129,0.063c0.902,0.116,1.798,0.323,2.688,0.511c1.367,0.283,2.73,0.584,4.097,0.883
	c0.59,0.132,0.92,0.013,1.192-0.532c0.369-0.736,0.607-1.521,0.695-2.343c0.111-1.041,0.174-2.086,0.312-3.125
	c0.161-1.252,0.413-2.493,0.563-3.748c0.156-1.312,0.238-2.631,0.353-3.946c0.088-1.013,0.163-2.024,0.262-3.036
	c0.084-0.854,0.188-1.708,0.293-2.562c0.144-1.17,0.295-2.34,0.445-3.51c0.096-0.752,0.227-1.5,0.288-2.255
	c0.027-0.332-0.043-0.683-0.122-1.012c-0.062-0.265-0.128-0.267-0.365-0.142c-0.099,0.049-0.192,0.103-0.285,0.16
	c-0.756,0.481-1.489,1-2.271,1.438c-1.664,0.931-3.359,1.806-5.033,2.725c-1.48,0.813-2.938,1.672-4.42,2.482
	c-1.039,0.568-2.102,1.09-3.15,1.637c-0.234,0.121-0.271,0.25-0.127,0.473c0.123,0.188,0.268,0.365,0.41,0.539
	c0.895,1.075,1.82,2.125,2.68,3.229c1.998,2.561,3.875,5.207,5.449,8.059c0.346,0.625,0.688,1.256,0.998,1.901
	c0.162,0.338,0.012,0.62-0.346,0.801c-0.25,0.126-0.451,0.056-0.672-0.243c-0.055-0.074-0.105-0.156-0.148-0.236
	c-0.607-1.1-1.209-2.199-1.818-3.297c-0.867-1.565-1.904-3.021-2.949-4.472c-1.467-2.038-3.09-3.948-4.803-5.782
	c-0.264-0.279-0.397-0.305-0.699-0.166c-2.229,1.028-3.811,1.623-6.315,1.487c-1.304-0.071-2.888-0.812-3.996-1.476
	c-0.258-0.152-0.479-0.141-0.741-0.008c-1.044,0.533-2.029,1.162-2.962,1.869c-1.932,1.467-3.741,3.075-5.485,4.758
	c-1.224,1.183-2.207,2.543-2.92,4.096c-0.142,0.309-0.285,0.628-0.496,0.889c-0.265,0.327-0.646,0.252-0.867-0.109
	c-0.211-0.346-0.133-0.666,0.051-0.992c0.619-1.092,1.352-2.104,2.172-3.047c2.766-3.188,5.863-5.988,9.605-8.012
	c0.252-0.138,0.281-0.267,0.041-0.433c-0.297-0.205-0.639-0.344-0.957-0.519c-0.141-0.073-0.254-0.041-0.361,0.061
	c-0.338,0.312-0.674,0.627-1.016,0.938c-0.09,0.084-0.185,0.174-0.291,0.232c-0.256,0.141-0.476,0.104-0.576-0.091
	c-0.109-0.207-0.137-0.409,0.053-0.603c0.264-0.266,0.512-0.547,0.775-0.813c0.111-0.113,0.129-0.224,0.051-0.356
	c-0.309-0.519-0.68-0.576-1.121-0.172c-0.051,0.047-0.098,0.1-0.146,0.151c-0.44,0.45-0.879,0.907-1.332,1.348
	c-0.239,0.232-0.41,0.21-0.67-0.032c-0.178-0.166-0.174-0.27,0.027-0.547c0.031-0.046,0.064-0.089,0.1-0.13
	c0.49-0.548,0.976-1.1,1.474-1.639c0.125-0.136,0.146-0.229,0.002-0.347c-0.134-0.107-0.261-0.225-0.399-0.321
	c-0.31-0.214-0.334-0.201-0.605,0.067c-0.729,0.721-1.459,1.437-2.193,2.147c-0.141,0.136-0.299,0.251-0.461,0.36
	c-0.055,0.037-0.152,0.055-0.215,0.031c-0.275-0.101-0.377-0.385-0.23-0.642c0.049-0.088,0.115-0.169,0.18-0.245
	c0.638-0.697,1.273-1.396,1.914-2.093c0.142-0.154,0.312-0.287,0.438-0.453c0.045-0.06,0.039-0.226-0.01-0.272
	c-0.218-0.213-0.447-0.412-0.692-0.59c-0.072-0.052-0.236-0.052-0.312-0.005c-0.188,0.123-0.361,0.272-0.521,0.435
	c-0.654,0.685-1.297,1.379-1.947,2.063c-0.102,0.106-0.215,0.206-0.338,0.284c-0.201,0.128-0.373,0.037-0.526-0.104
	c-0.154-0.142-0.084-0.281,0.004-0.42c0.076-0.117,0.151-0.235,0.242-0.345c0.549-0.641,1.1-1.278,1.657-1.912
	c0.164-0.188,0.354-0.354,0.535-0.526c0.146-0.137,0.158-0.258-0.024-0.373c-0.132-0.084-0.25-0.196-0.394-0.252
	c-0.096-0.037-0.256-0.045-0.332,0.011c-0.26,0.194-0.514,0.409-0.744,0.64c-0.721,0.715-1.43,1.443-2.147,2.161
	c-0.103,0.104-0.22,0.208-0.351,0.269c-0.071,0.035-0.219,0.016-0.278-0.037c-0.271-0.245-0.274-0.379-0.07-0.688
	c0.033-0.053,0.066-0.108,0.109-0.151c0.938-1.006,1.875-2.01,2.817-3.01c0.105-0.113,0.228-0.195,0.099-0.367
	c-0.181-0.235-0.38-0.33-0.539-0.205c-0.263,0.207-0.519,0.428-0.748,0.668c-0.39,0.396-0.74,0.824-1.136,1.218
	c-0.146,0.147-0.35,0.261-0.549,0.325c-0.1,0.033-0.28-0.051-0.358-0.141c-0.05-0.057-0.011-0.242,0.047-0.33
	c0.131-0.195,0.297-0.361,0.44-0.546c0.506-0.635,1.009-1.272,1.515-1.907c0.101-0.125,0.101-0.244-0.002-0.358
	c-0.07-0.082-0.154-0.155-0.24-0.224c-0.498-0.392-0.399-0.441-0.883,0.055c-0.263,0.27-0.517,0.547-0.793,0.799
	c-0.201,0.182-0.414,0.148-0.599-0.048c-0.168-0.181-0.184-0.368-0.016-0.617c0.232-0.342,0.488-0.668,0.727-1.006
	c0.285-0.402,0.279-0.401-0.069-0.757c-0.125-0.127-0.235-0.27-0.354-0.403c-0.119-0.133-0.236-0.271-0.367-0.394
	c-0.058-0.054-0.148-0.098-0.221-0.09c-0.037,0.002-0.084,0.12-0.095,0.19c-0.082,0.668-0.188,1.333-0.231,2.002
	c-0.093,1.499-0.164,2.996-0.222,4.497c-0.098,2.335-0.202,4.671-0.25,7.008c-0.045,2.152-0.225,4.293-0.401,6.436
	C81.12,332.966,81.016,334.244,80.909,335.521z M88.939,307.607c-0.953,0.039-2.055,0.064-3.153,0.139
	c-0.604,0.04-1.203,0.176-1.757,0.453c-0.885,0.443-1.129,1.128-0.647,1.982c0.25,0.445,0.554,0.877,0.902,1.248
	c2.418,2.553,4.893,5.053,7.752,7.127c1.346,0.978,2.726,1.91,4.129,2.801c0.594,0.377,1.17,0.759,1.737,1.164
	c0.476,0.338,0.949,0.403,1.509,0.574c0.604,0.185,1,0.34,1.639,0.338c0.688,0,1.39,0.037,2.078,0.004
	c0.927-0.047,1.677-0.344,2.533-0.619c0.014-0.004,0.028-0.012,0.043-0.019c1.558-0.69,3.149-1.311,4.664-2.088
	c2.797-1.437,5.567-2.928,8.309-4.471c1.806-1.017,3.535-2.163,5.3-3.253c0.246-0.153,0.254-0.271,0.016-0.434
	c-0.232-0.158-0.479-0.298-0.732-0.408c-1.664-0.729-3.436-1.067-5.203-1.41c-0.949-0.184-1.904-0.342-2.858-0.508
	c-0.861-0.146-1.724-0.295-2.587-0.424c-1.262-0.188-2.521-0.361-3.782-0.527c-0.884-0.117-1.769-0.225-2.652-0.317
	c-1.135-0.121-2.27-0.228-3.405-0.333c-1.189-0.113-2.381-0.227-3.572-0.324c-1.416-0.115-2.834-0.227-4.254-0.32
	C92.993,307.852,91.044,307.736,88.939,307.607z"/>
<path fill="#FFFFFF" d="M110.068,310.548c0.295,0.056,0.734,0.128,1.168,0.222c0.945,0.201,1.892,0.41,2.832,0.621
	c0.755,0.166,1.507,0.336,2.259,0.512c0.575,0.135,1.151,0.273,1.725,0.424c0.158,0.041,0.388,0.083,0.339,0.307
	c-0.05,0.219-0.271,0.178-0.438,0.151c-1.158-0.171-2.312-0.362-3.474-0.524c-1.547-0.216-3.094-0.414-4.641-0.615
	c-0.453-0.058-0.58-0.164-0.559-0.545C109.305,310.686,109.477,310.537,110.068,310.548z"/>
<path fill="#4262AD" d="M15.926,3.474c1.928-0.038,3.855-0.09,5.785-0.109c1.23-0.011,2.462,0.016,3.689,0.052
	c0.664,0.019,1.313,0.147,1.927,0.423c0.608,0.274,0.973,0.759,1.037,1.411c0.089,0.945,0.127,1.896,0.175,2.845
	c0.07,1.441,0.133,2.881,0.195,4.321c0.043,0.996,0.08,1.992,0.123,2.986c0.049,1.031,0.104,2.062,0.146,3.094
	c0.03,0.719,0.065,1.438,0.06,2.16c-0.008,0.399-0.08,0.805-0.162,1.2c-0.062,0.297-0.215,0.569-0.551,0.635
	c-0.308,0.062-0.623,0.105-0.937,0.115c-1.793,0.045-3.587,0.078-5.38,0.117c-1.001,0.024-2.001,0.051-3,0.075
	c-0.088,0.003-0.17,0.017-0.258,0.023c-0.17,0.016-0.232,0.065-0.229,0.237c0.008,0.388,0.098,0.748,0.457,0.967
	c0.426,0.255,0.855,0.492,1.284,0.74c0.151,0.09,0.299,0.184,0.444,0.277c0.463,0.299,0.658,0.746,0.709,1.271
	c0.01,0.067,0.004,0.136,0.004,0.205c0,0.312-0.063,0.387-0.366,0.469c-0.513,0.138-1.037,0.188-1.562,0.214
	c-1.363,0.063-2.729,0.121-4.094,0.175c-1.733,0.071-3.467,0.137-5.2,0.2c-0.184,0.008-0.37-0.013-0.553-0.03
	c-0.21-0.018-0.334-0.142-0.373-0.347c-0.068-0.377-0.068-0.753,0.053-1.121c0.076-0.235,0.25-0.354,0.471-0.446
	c0.516-0.221,1.029-0.447,1.535-0.688c0.663-0.314,0.764-0.659,0.744-1.479c0-0.038-0.01-0.081-0.017-0.12
	c-0.025-0.154-0.076-0.197-0.236-0.193c-1.679,0.046-3.358,0.104-5.04,0.137c-0.977,0.021-1.956,0.014-2.932-0.008
	c-0.302-0.006-0.61-0.069-0.901-0.159c-0.519-0.165-0.819-0.563-0.943-1.076c-0.087-0.362-0.143-0.735-0.158-1.106
	c-0.084-2.18-0.158-4.36-0.227-6.54c-0.062-1.937-0.111-3.874-0.172-5.812C1.452,7.746,1.394,6.9,1.389,6.054
	C1.387,5.718,1.467,5.375,1.551,5.046C1.663,4.622,2.009,4.42,2.396,4.281C3.037,4.049,3.705,3.927,4.38,3.836
	c2.216-0.296,4.448-0.301,6.679-0.328c1.622-0.021,3.244-0.04,4.866-0.059C15.924,3.457,15.924,3.465,15.926,3.474z M15.802,21.982
	c0.835-0.032,1.404-0.051,1.978-0.08c2.449-0.133,4.9-0.135,7.354-0.161c0.844-0.009,1.686-0.032,2.528-0.052
	c0.19-0.004,0.251-0.047,0.257-0.201c0.029-0.625,0.078-1.25,0.07-1.875c-0.008-0.783-0.057-1.566-0.1-2.35
	c-0.08-1.39-0.17-2.78-0.255-4.168c-0.05-0.782-0.099-1.565-0.146-2.348c-0.051-0.86-0.104-1.718-0.146-2.578
	c-0.041-0.842-0.066-1.685-0.109-2.525c-0.021-0.362-0.149-0.684-0.496-0.856c-0.2-0.099-0.412-0.186-0.629-0.239
	c-0.543-0.136-1.102-0.164-1.662-0.165c-0.426,0-0.855-0.006-1.283-0.019c-1.393-0.042-2.783-0.103-4.176-0.127
	c-1.649-0.027-3.301-0.032-4.948-0.03c-0.9,0.002-1.803,0.023-2.702,0.063c-0.656,0.03-1.312,0.101-1.967,0.16
	C8.476,4.513,7.585,4.605,6.691,4.688C6.18,4.735,5.67,4.777,5.157,4.817c-0.705,0.054-1.411,0.09-2.115,0.165
	C2.701,5.019,2.598,5.049,2.56,5.427C2.512,5.905,2.475,6.388,2.48,6.869c0.008,1.18,0.064,2.361,0.064,3.542
	c0.002,1.976,0.106,3.947,0.192,5.917c0.052,1.161,0.1,2.324,0.163,3.484c0.028,0.537,0.051,1.08,0.208,1.604
	c0.106,0.351,0.312,0.617,0.68,0.7c0.274,0.062,0.561,0.107,0.841,0.107c0.899-0.008,1.801-0.035,2.702-0.06
	c0.995-0.03,1.99-0.086,2.985-0.095C12.232,22.057,14.15,22.083,15.802,21.982z M16.124,22.878c-0.458,0.03-0.873,0.048-1.284,0.089
	c-0.538,0.051-1.073,0.118-1.61,0.184c-0.183,0.022-0.203,0.048-0.194,0.232c0.009,0.188,0.02,0.379,0.032,0.567
	c0.005,0.088,0.037,0.183,0.018,0.266c-0.149,0.62-0.432,1.144-1.005,1.482c-0.499,0.298-1.028,0.513-1.574,0.692
	c-0.069,0.022-0.177,0.045-0.141,0.142c0.028,0.073,0.113,0.147,0.19,0.177c0.078,0.029,0.178,0.012,0.267,0.003
	c0.642-0.054,1.284-0.114,1.924-0.162c0.962-0.073,1.922-0.153,2.886-0.2c1.432-0.067,2.865-0.111,4.293-0.168
	c0.051-0.002,0.1-0.006,0.148-0.019c0.126-0.038,0.166-0.103,0.093-0.209c-0.067-0.099-0.162-0.193-0.269-0.248
	c-0.543-0.287-1.096-0.56-1.645-0.837c-0.35-0.174-0.681-0.385-0.783-0.786c-0.076-0.292-0.104-0.601-0.127-0.901
	c-0.021-0.273-0.023-0.3-0.306-0.303C16.721,22.874,16.4,22.878,16.124,22.878z"/>
<path fill="#FFFFFF" d="M15.802,21.982c-1.652,0.101-3.569,0.072-5.485,0.088c-0.995,0.01-1.99,0.064-2.985,0.096
	c-0.901,0.023-1.803,0.052-2.702,0.059c-0.281,0.002-0.567-0.045-0.841-0.106c-0.368-0.083-0.574-0.351-0.68-0.7
	c-0.158-0.523-0.18-1.066-0.208-1.604c-0.063-1.16-0.111-2.324-0.163-3.485c-0.085-1.97-0.19-3.942-0.192-5.917
	c0-1.181-0.057-2.362-0.064-3.542C2.475,6.388,2.512,5.905,2.56,5.427C2.598,5.05,2.701,5.019,3.042,4.983
	c0.704-0.076,1.41-0.111,2.115-0.165C5.67,4.777,6.18,4.735,6.691,4.688C7.586,4.605,8.476,4.513,9.368,4.43
	c0.655-0.059,1.311-0.13,1.967-0.16c0.899-0.04,1.802-0.061,2.702-0.063c1.648-0.002,3.299,0.002,4.947,0.03
	c1.394,0.024,2.785,0.086,4.177,0.127c0.428,0.013,0.856,0.019,1.284,0.019c0.561,0.001,1.119,0.029,1.662,0.165
	c0.216,0.053,0.428,0.14,0.627,0.239c0.348,0.172,0.478,0.494,0.496,0.856c0.045,0.841,0.069,1.683,0.11,2.525
	c0.044,0.86,0.097,1.718,0.146,2.578c0.048,0.782,0.097,1.565,0.146,2.348c0.085,1.39,0.174,2.78,0.254,4.17
	c0.045,0.781,0.092,1.564,0.1,2.348c0.009,0.625-0.041,1.25-0.069,1.875c-0.006,0.156-0.065,0.197-0.257,0.203
	c-0.844,0.019-1.686,0.041-2.528,0.051c-2.452,0.025-4.903,0.029-7.354,0.16C17.206,21.932,16.637,21.95,15.802,21.982z
	 M16.266,21.045c0-0.006,0-0.009,0-0.014c1.26-0.049,2.521-0.094,3.781-0.146c1.779-0.071,3.559-0.144,5.336-0.222
	c0.434-0.021,0.788-0.215,1.051-0.559c0.272-0.356,0.433-0.758,0.422-1.211c-0.031-1.556-0.071-3.109-0.098-4.666
	c-0.027-1.785-0.041-3.57-0.066-5.354c-0.008-0.612-0.037-1.226-0.061-1.838c-0.021-0.527-0.201-0.978-0.658-1.281
	c-0.412-0.274-0.875-0.417-1.365-0.456c-0.982-0.074-1.965,0.012-2.945,0.067c-1.066,0.058-2.131,0.14-3.197,0.193
	c-1.331,0.069-2.665,0.131-3.997,0.177c-1.293,0.044-2.586,0.085-3.879,0.089c-1.574,0.007-3.147-0.034-4.72-0.041
	c-0.297,0-0.601,0.044-0.894,0.105C4.545,5.98,4.21,6.232,3.926,6.563C3.628,6.91,3.552,7.312,3.582,7.757
	C3.628,8.476,3.661,9.198,3.7,9.917c0.047,0.819,0.091,1.637,0.141,2.456c0.056,0.904,0.129,1.806,0.177,2.711
	c0.066,1.286,0.113,2.576,0.172,3.861c0.019,0.377,0.07,0.748,0.223,1.094c0.174,0.404,0.421,0.756,0.897,0.833
	c0.52,0.084,1.04,0.174,1.564,0.213c1.417,0.103,2.836,0.147,4.256,0.116C12.841,21.163,14.553,21.098,16.266,21.045z"/>
<path fill="#FFFFFF" d="M16.124,22.878c0.276,0,0.597-0.004,0.915,0.001c0.281,0.003,0.285,0.028,0.307,0.303
	c0.021,0.301,0.049,0.609,0.125,0.901c0.104,0.401,0.436,0.612,0.784,0.786c0.55,0.277,1.103,0.55,1.646,0.837
	c0.104,0.055,0.199,0.149,0.268,0.248c0.073,0.106,0.033,0.171-0.093,0.209c-0.05,0.013-0.099,0.017-0.148,0.019
	c-1.429,0.057-2.86,0.101-4.293,0.168c-0.963,0.047-1.924,0.127-2.886,0.2c-0.64,0.048-1.282,0.108-1.924,0.162
	c-0.089,0.009-0.189,0.026-0.267-0.003c-0.078-0.029-0.163-0.104-0.19-0.177c-0.037-0.097,0.071-0.118,0.141-0.142
	c0.546-0.181,1.075-0.396,1.574-0.692c0.573-0.341,0.856-0.862,1.005-1.482c0.019-0.083-0.013-0.178-0.018-0.266
	c-0.012-0.188-0.023-0.38-0.032-0.567c-0.008-0.186,0.012-0.21,0.194-0.232c0.538-0.064,1.073-0.133,1.61-0.184
	C15.251,22.926,15.666,22.908,16.124,22.878z"/>
<path fill="#4262AD" d="M16.266,21.045c-1.712,0.053-3.424,0.118-5.136,0.156c-1.42,0.031-2.84-0.014-4.256-0.116
	C6.35,21.046,5.83,20.956,5.31,20.872c-0.476-0.077-0.723-0.429-0.897-0.833c-0.152-0.346-0.204-0.717-0.223-1.094
	c-0.059-1.285-0.106-2.575-0.172-3.861c-0.048-0.905-0.121-1.807-0.177-2.711c-0.05-0.819-0.094-1.637-0.141-2.456
	c-0.039-0.719-0.071-1.44-0.118-2.16C3.552,7.312,3.628,6.91,3.926,6.563C4.21,6.232,4.545,5.98,4.975,5.891
	C5.268,5.83,5.572,5.785,5.869,5.785c1.574,0.007,3.146,0.047,4.719,0.043c1.293-0.004,2.586-0.045,3.879-0.089
	c1.332-0.045,2.666-0.107,3.997-0.177c1.065-0.053,2.132-0.135,3.197-0.193c0.981-0.055,1.963-0.141,2.946-0.067
	c0.488,0.038,0.951,0.182,1.365,0.456c0.455,0.303,0.637,0.753,0.657,1.281c0.022,0.612,0.052,1.226,0.06,1.838
	c0.026,1.784,0.039,3.569,0.067,5.354c0.025,1.555,0.065,3.11,0.097,4.666c0.012,0.453-0.147,0.854-0.42,1.211
	c-0.264,0.344-0.617,0.537-1.052,0.559c-1.776,0.078-3.557,0.15-5.336,0.223c-1.26,0.051-2.522,0.096-3.782,0.145
	C16.266,21.036,16.266,21.039,16.266,21.045z M21.562,19.799c-0.058-0.085-0.1-0.158-0.15-0.226
	c-0.876-1.13-1.751-2.255-2.629-3.382c-0.116-0.148-0.12-0.154,0.006-0.303c0.027-0.029,0.057-0.059,0.087-0.088
	c0.071-0.074,0.131-0.068,0.197,0.016c0.231,0.306,0.477,0.6,0.704,0.904c0.727,0.979,1.445,1.955,2.164,2.934
	c0.062,0.085,0.131,0.131,0.238,0.127c0.289-0.012,0.584-0.018,0.879-0.032c0.14-0.009,0.152-0.047,0.064-0.166
	c-0.45-0.606-0.895-1.219-1.354-1.819c-0.627-0.816-1.265-1.63-1.9-2.439c-0.053-0.068-0.064-0.126-0.014-0.194
	c0.041-0.058,0.082-0.12,0.131-0.168c0.115-0.107,0.172-0.11,0.271,0.006c0.198,0.234,0.401,0.464,0.582,0.712
	c0.964,1.312,1.921,2.633,2.876,3.952c0.057,0.076,0.119,0.118,0.215,0.11c0.35-0.026,0.7-0.045,1.051-0.081
	c0.299-0.031,0.312-0.065,0.112-0.308c-0.319-0.392-0.655-0.767-0.977-1.155c-1.032-1.267-2.062-2.538-3.091-3.806
	c-0.144-0.174-0.146-0.227-0.017-0.416c0.119-0.174,0.188-0.189,0.343-0.037c0.248,0.248,0.51,0.486,0.729,0.76
	c0.77,0.972,1.521,1.953,2.279,2.934c0.386,0.498,0.768,1,1.151,1.499c0.087,0.113,0.157,0.113,0.207-0.017
	c0.069-0.188,0.144-0.387,0.144-0.58c0.004-0.412-0.055-0.818-0.363-1.139c-0.016-0.017-0.027-0.035-0.042-0.053
	c-1.138-1.498-2.278-2.996-3.417-4.493c-0.092-0.123-0.062-0.221,0.084-0.354c0.127-0.111,0.184-0.014,0.245,0.069
	c0.54,0.734,1.084,1.469,1.626,2.207c0.564,0.773,1.127,1.55,1.689,2.327c0.029,0.041,0.045,0.094,0.067,0.141
	c0.021-0.018,0.044-0.035,0.065-0.049c0.004-0.058,0.013-0.113,0.009-0.17c-0.042-0.485-0.075-0.973-0.134-1.455
	c-0.016-0.126-0.074-0.257-0.147-0.366c-0.17-0.258-0.358-0.504-0.542-0.755c-0.554-0.751-1.104-1.504-1.659-2.249
	c-0.132-0.172-0.147-0.338-0.06-0.526c0.064-0.145,0.133-0.158,0.23-0.038c0.072,0.086,0.144,0.174,0.202,0.269
	c0.507,0.776,1.011,1.553,1.515,2.33c0.137,0.21,0.267,0.423,0.42,0.668c0.021-0.088,0.041-0.138,0.041-0.187
	c0-0.28,0-0.561-0.01-0.838c0-0.061-0.039-0.13-0.08-0.18c-0.601-0.747-1.203-1.494-1.812-2.235
	c-0.235-0.29-0.241-0.301-0.017-0.605c0.01-0.014,0.023-0.028,0.031-0.042c0.063-0.089,0.122-0.093,0.188-0.001
	c0.116,0.161,0.239,0.315,0.353,0.479c0.401,0.576,0.799,1.155,1.2,1.732c0.024,0.036,0.062,0.068,0.124,0.134
	c0.018-0.11,0.041-0.18,0.037-0.246c-0.025-0.36-0.075-0.718-0.087-1.078c-0.007-0.234-0.097-0.415-0.242-0.581
	c-0.345-0.392-0.692-0.781-1.032-1.179c-0.089-0.107-0.146-0.246-0.205-0.374c-0.045-0.094-0.026-0.188,0.078-0.238
	c0.11-0.055,0.217-0.101,0.311,0.028c0.052,0.07,0.113,0.129,0.16,0.2c0.285,0.405,0.567,0.813,0.851,1.218
	c0.026,0.036,0.062,0.062,0.116,0.117c0.009-0.133,0.025-0.228,0.021-0.321c-0.006-0.277-0.021-0.557-0.031-0.835
	c-0.013-0.256-0.125-0.467-0.293-0.651c-0.17-0.187-0.34-0.373-0.51-0.56c-0.162-0.18-0.141-0.333,0.062-0.468
	c0.099-0.065,0.185-0.066,0.255,0.038c0.098,0.146,0.19,0.293,0.288,0.44c0.025,0.042,0.053,0.084,0.094,0.147
	c0.025-0.06,0.045-0.088,0.047-0.116c0.02-0.459,0.042-0.916,0.049-1.377c0.002-0.103-0.037-0.214-0.084-0.308
	c-0.199-0.404-0.49-0.698-0.976-0.69c-0.681,0.01-1.36,0.023-2.041,0.058c-1.31,0.068-2.617,0.156-3.925,0.229
	c-1.318,0.073-2.639,0.153-3.958,0.203c-1.143,0.042-2.287,0.053-3.431,0.062C10.177,6.882,9.132,6.88,8.087,6.857
	c-0.711-0.016-1.424-0.049-2.131-0.13C5.472,6.67,5.085,6.806,4.734,7.114C4.577,7.252,4.486,7.416,4.492,7.631
	c0.014,0.465,0.005,0.93,0.038,1.392c0.072,1.017,0.167,2.03,0.248,3.044C4.882,13.361,5,14.654,5.083,15.949
	c0.073,1.142,0.113,2.285,0.295,3.417c0.064,0.397,0.205,0.612,0.552,0.694c0.25,0.057,0.506,0.104,0.761,0.109
	c0.747,0.021,1.497,0.035,2.245,0.023c1.638-0.026,3.279-0.07,4.919-0.109c0.064-0.001,0.127-0.016,0.221-0.029
	c-0.063-0.1-0.104-0.177-0.161-0.244c-0.158-0.197-0.322-0.389-0.484-0.582c-0.141-0.174-0.138-0.224,0.017-0.39
	c0.144-0.155,0.18-0.155,0.315,0.004c0.042,0.048,0.078,0.101,0.116,0.15c0.222,0.289,0.444,0.577,0.667,0.864
	c0.081,0.104,0.189,0.146,0.318,0.146c0.389,0,0.776,0.007,1.163,0.003c0.093-0.001,0.186-0.038,0.279-0.059
	c-0.043-0.087-0.067-0.188-0.125-0.257c-0.207-0.254-0.426-0.491-0.636-0.739c-0.109-0.127-0.065-0.289,0.111-0.425
	c0.116-0.092,0.157-0.086,0.278,0.082c0.303,0.424,0.603,0.852,0.9,1.279c0.057,0.084,0.118,0.127,0.221,0.121
	c0.37-0.02,0.737-0.035,1.107-0.054c0.01-0.001,0.021-0.013,0.049-0.029c-0.049-0.067-0.089-0.137-0.14-0.194
	c-0.466-0.516-0.933-1.027-1.402-1.539c-0.253-0.271-0.251-0.323,0.05-0.551c0.008-0.004,0.01-0.006,0.014-0.01
	c0.098-0.086,0.18-0.074,0.261,0.028c0.202,0.265,0.413,0.524,0.618,0.786c0.34,0.436,0.679,0.876,1.021,1.309
	c0.048,0.059,0.113,0.137,0.173,0.141c0.289,0.016,0.579,0.006,0.904,0.006c-0.046-0.082-0.062-0.129-0.089-0.166
	c-0.078-0.104-0.155-0.209-0.242-0.309c-0.521-0.613-1.047-1.225-1.571-1.838c-0.139-0.163-0.123-0.285,0.032-0.43
	c0.089-0.08,0.165-0.102,0.248,0.009c0.179,0.228,0.364,0.447,0.538,0.677c0.491,0.631,0.979,1.272,1.471,1.901
	c0.047,0.062,0.146,0.125,0.219,0.123c0.393-0.005,0.783-0.03,1.177-0.048C21.507,19.823,21.521,19.812,21.562,19.799z"/>
<path fill="#FFFFFF" d="M21.562,19.799c-0.039,0.016-0.056,0.024-0.07,0.026c-0.395,0.018-0.784,0.043-1.176,0.048
	c-0.074,0.002-0.172-0.062-0.219-0.123c-0.494-0.629-0.979-1.271-1.472-1.9c-0.174-0.229-0.358-0.451-0.538-0.678
	c-0.083-0.109-0.16-0.089-0.248-0.009c-0.156,0.144-0.171,0.267-0.031,0.43c0.523,0.613,1.049,1.226,1.57,1.839
	c0.087,0.1,0.164,0.203,0.242,0.309c0.027,0.037,0.043,0.083,0.089,0.164c-0.325,0-0.614,0.011-0.903-0.006
	c-0.061-0.004-0.127-0.08-0.174-0.14c-0.343-0.433-0.682-0.873-1.021-1.309c-0.204-0.263-0.416-0.521-0.617-0.786
	c-0.081-0.104-0.163-0.114-0.262-0.028c-0.004,0.005-0.006,0.005-0.012,0.009c-0.302,0.229-0.304,0.28-0.051,0.553
	c0.471,0.511,0.938,1.023,1.402,1.537c0.051,0.06,0.091,0.127,0.14,0.195c-0.026,0.018-0.039,0.028-0.049,0.029
	c-0.37,0.018-0.737,0.034-1.106,0.055c-0.104,0.004-0.164-0.039-0.222-0.121c-0.298-0.43-0.599-0.856-0.901-1.279
	c-0.121-0.168-0.162-0.174-0.277-0.082c-0.176,0.135-0.221,0.297-0.111,0.424c0.21,0.248,0.43,0.484,0.635,0.738
	c0.059,0.068,0.084,0.171,0.125,0.258c-0.094,0.021-0.187,0.058-0.279,0.059c-0.385,0.004-0.773-0.003-1.163-0.003
	c-0.129,0-0.237-0.043-0.318-0.147c-0.223-0.285-0.445-0.574-0.667-0.863c-0.039-0.051-0.075-0.104-0.116-0.15
	c-0.135-0.158-0.171-0.158-0.315-0.004c-0.154,0.166-0.158,0.217-0.017,0.389c0.162,0.194,0.327,0.386,0.484,0.582
	c0.056,0.068,0.097,0.146,0.161,0.246c-0.093,0.014-0.156,0.027-0.221,0.028c-1.64,0.039-3.281,0.083-4.919,0.11
	c-0.748,0.011-1.498-0.004-2.245-0.024c-0.255-0.007-0.511-0.054-0.761-0.11c-0.348-0.082-0.488-0.297-0.552-0.693
	c-0.182-1.133-0.222-2.275-0.295-3.417c-0.082-1.298-0.2-2.591-0.305-3.885C4.696,11.053,4.602,10.04,4.53,9.023
	C4.497,8.561,4.505,8.096,4.492,7.631C4.486,7.416,4.577,7.252,4.734,7.114C5.085,6.806,5.472,6.67,5.958,6.727
	c0.707,0.081,1.42,0.114,2.131,0.13c1.045,0.023,2.09,0.025,3.137,0.017c1.144-0.009,2.288-0.021,3.431-0.062
	c1.319-0.05,2.64-0.13,3.958-0.203c1.308-0.074,2.615-0.161,3.925-0.229c0.681-0.035,1.36-0.047,2.041-0.058
	c0.483-0.007,0.774,0.287,0.976,0.69c0.047,0.094,0.086,0.205,0.084,0.308c-0.007,0.461-0.029,0.918-0.049,1.377
	c-0.002,0.028-0.021,0.057-0.047,0.116c-0.041-0.063-0.066-0.105-0.094-0.147c-0.098-0.146-0.19-0.294-0.288-0.44
	c-0.07-0.104-0.156-0.103-0.255-0.038c-0.203,0.135-0.225,0.288-0.062,0.468c0.17,0.188,0.34,0.374,0.51,0.56
	c0.168,0.185,0.28,0.395,0.293,0.651c0.012,0.278,0.025,0.558,0.031,0.835c0.004,0.094-0.014,0.188-0.021,0.321
	c-0.055-0.055-0.09-0.081-0.116-0.117c-0.282-0.405-0.563-0.813-0.851-1.218c-0.047-0.07-0.108-0.13-0.16-0.2
	c-0.094-0.129-0.199-0.083-0.311-0.028c-0.104,0.052-0.123,0.144-0.078,0.238c0.06,0.128,0.116,0.267,0.205,0.374
	c0.34,0.398,0.688,0.787,1.032,1.179c0.146,0.166,0.235,0.347,0.242,0.581c0.012,0.36,0.062,0.718,0.087,1.078
	c0.004,0.066-0.02,0.136-0.037,0.246c-0.062-0.066-0.1-0.098-0.124-0.134c-0.401-0.577-0.799-1.156-1.2-1.732
	c-0.113-0.163-0.236-0.318-0.353-0.479c-0.065-0.091-0.124-0.087-0.188,0.001c-0.008,0.015-0.021,0.028-0.031,0.042
	c-0.226,0.304-0.221,0.315,0.017,0.605c0.606,0.742,1.211,1.488,1.812,2.235c0.041,0.05,0.08,0.119,0.08,0.18
	c0.01,0.278,0.01,0.559,0.01,0.838c0,0.049-0.021,0.099-0.041,0.187c-0.153-0.246-0.283-0.458-0.42-0.668
	c-0.504-0.777-1.008-1.554-1.515-2.33c-0.06-0.095-0.13-0.183-0.202-0.269c-0.099-0.12-0.166-0.107-0.23,0.038
	c-0.088,0.188-0.072,0.354,0.061,0.526c0.557,0.744,1.104,1.498,1.658,2.249c0.184,0.251,0.372,0.497,0.542,0.755
	c0.073,0.109,0.134,0.24,0.147,0.366c0.059,0.482,0.092,0.969,0.134,1.455c0.004,0.057-0.005,0.112-0.009,0.17
	c-0.021,0.014-0.045,0.031-0.065,0.049c-0.022-0.047-0.038-0.1-0.067-0.141c-0.562-0.775-1.125-1.554-1.689-2.327
	c-0.542-0.738-1.086-1.473-1.626-2.207c-0.062-0.083-0.118-0.18-0.245-0.069c-0.146,0.132-0.176,0.231-0.084,0.354
	c1.139,1.497,2.279,2.995,3.417,4.493c0.015,0.018,0.026,0.036,0.042,0.053c0.309,0.319,0.367,0.727,0.364,1.139
	c0,0.193-0.074,0.393-0.144,0.58c-0.051,0.13-0.121,0.13-0.207,0.017c-0.386-0.499-0.768-1.001-1.152-1.499
	c-0.758-0.98-1.51-1.961-2.279-2.934c-0.218-0.273-0.48-0.512-0.729-0.76c-0.154-0.152-0.224-0.137-0.343,0.037
	c-0.13,0.188-0.127,0.242,0.017,0.416c1.029,1.268,2.059,2.54,3.091,3.806c0.319,0.39,0.655,0.765,0.978,1.155
	c0.198,0.24,0.186,0.275-0.113,0.308c-0.351,0.036-0.701,0.055-1.051,0.081c-0.096,0.008-0.158-0.034-0.215-0.11
	c-0.955-1.319-1.912-2.64-2.876-3.952c-0.181-0.248-0.384-0.479-0.582-0.712c-0.099-0.117-0.153-0.113-0.27-0.006
	c-0.05,0.048-0.091,0.111-0.132,0.168c-0.051,0.067-0.039,0.126,0.014,0.194c0.637,0.81,1.273,1.623,1.9,2.439
	c0.459,0.602,0.902,1.213,1.354,1.819c0.088,0.119,0.074,0.157-0.064,0.166c-0.295,0.015-0.59,0.021-0.879,0.032
	c-0.107,0.004-0.177-0.042-0.238-0.127c-0.719-0.979-1.438-1.955-2.164-2.934c-0.229-0.306-0.473-0.6-0.704-0.904
	c-0.066-0.084-0.126-0.09-0.197-0.016c-0.03,0.029-0.06,0.059-0.087,0.088c-0.126,0.148-0.122,0.154-0.006,0.303
	c0.878,1.127,1.753,2.252,2.629,3.382C21.463,19.641,21.505,19.714,21.562,19.799z M6.509,7.667C6.273,7.684,6.001,7.71,5.728,7.722
	c-0.181,0.008-0.26,0.108-0.287,0.3C5.364,8.574,5.413,9.126,5.494,9.674C5.515,9.823,5.605,9.896,5.757,9.89
	c0.198-0.008,0.395-0.027,0.59-0.057c0.045-0.007,0.109-0.072,0.118-0.121C6.49,9.586,6.502,9.454,6.496,9.325
	C6.486,9.064,6.471,8.803,6.44,8.544C6.426,8.41,6.474,8.361,6.598,8.361c0.121,0,0.242,0.002,0.364-0.001
	c0.179-0.004,0.36-0.006,0.537-0.024c0.053-0.006,0.121-0.053,0.148-0.1c0.121-0.218-0.016-0.474-0.264-0.5
	C7.106,7.71,6.827,7.691,6.509,7.667z"/>
<path fill="#4262AD" d="M6.509,7.667C6.827,7.691,7.106,7.71,7.383,7.736c0.248,0.025,0.385,0.282,0.264,0.5
	c-0.027,0.047-0.095,0.093-0.148,0.1C7.322,8.354,7.141,8.355,6.962,8.36C6.84,8.363,6.719,8.361,6.598,8.361
	c-0.124,0-0.172,0.049-0.157,0.183c0.031,0.259,0.046,0.52,0.056,0.781c0.005,0.129-0.006,0.261-0.031,0.387
	C6.457,9.761,6.393,9.826,6.348,9.833c-0.196,0.03-0.393,0.049-0.59,0.057C5.605,9.896,5.515,9.823,5.494,9.674
	c-0.081-0.548-0.13-1.1-0.054-1.653c0.027-0.191,0.106-0.292,0.287-0.3C6.001,7.71,6.273,7.684,6.509,7.667z"/>
</svg>
